o Microwave011_Body001
v -0.198678 0.192261 -0.1333335
v -0.198678 0.192894 0.1414925
v 0.160825 0.192894 -0.1333335
v 0.160825 0.190465 -0.1357615
v -0.198678 0.190465 -0.1357615
v -0.201106 0.190465 0.1414925
v -0.201106 0.190465 -0.1333335
v 0.160825 0.192894 0.1414925
v 0.163254 0.190465 -0.1333335
v -0.198678 0.190465 0.1439205
v 0.160825 0.190465 0.1439205
v 0.163254 0.190465 0.1414925
v 0.160825 -0.18942 -0.1357615
v -0.198678 -0.18942 -0.1357615
v 0.163254 -0.18942 -0.1333335
v -0.201106 -0.18942 -0.1333335
v -0.198678 -0.18942 0.1439205
v -0.201106 -0.18942 0.1414925
v 0.160825 -0.18942 0.1439205
v 0.163254 -0.18942 0.1414925
v 0.165682 -0.191848 -0.1381905
v -0.203535 -0.191848 -0.1381905
v -0.203535 -0.191848 0.1463495
v 0.165682 -0.191848 0.1463495
v -0.276933 -0.191848 0.1536825
v -0.276933 -0.191848 -0.1467105
v -0.282508 -0.191848 -0.1411355
v -0.279798 -0.191848 0.1529145
v 0.18648 -0.191848 0.1536825
v -0.279798 -0.191848 -0.1459425
v 0.18648 -0.191848 -0.1467105
v -0.28174 -0.191848 -0.1440005
v -0.282508 -0.191848 0.1481075
v -0.28174 -0.191848 0.1509715
v -0.277144 -0.190243 0.1552875
v 0.189691 -0.190243 0.1552875
v -0.277144 -0.190243 -0.1483155
v -0.280629 -0.190243 -0.1473815
v 0.189691 -0.190243 -0.1483155
v -0.284113 -0.190243 -0.1413465
v -0.28318 -0.190243 -0.1448315
v -0.284113 -0.190243 0.1483185
v -0.28318 -0.190243 0.1518035
v -0.280629 -0.190243 0.1543535
v 0.188085 -0.193454 0.1536825
v -0.277144 0.236083 0.1552875
v 0.188085 0.236083 0.1552875
v -0.280629 0.236083 -0.1473825
v -0.277144 0.236083 -0.1483155
v 0.188085 0.236083 -0.1483155
v 0.188085 -0.193454 -0.1467105
v -0.284113 0.236083 -0.1413465
v -0.28318 0.236083 -0.1448315
v -0.280629 0.236083 0.1543535
v 0.188085 -0.205897 0.1536825
v 0.189691 -0.205596 0.1552875
v 0.188085 0.239449 0.1519225
v -0.276701 0.239449 0.1519225
v 0.277593 -0.191848 0.1552875
v 0.277593 0.236083 0.1552875
v -0.276701 0.239449 -0.1449505
v -0.278887 0.239449 -0.1443645
v 0.188085 0.239449 -0.1449505
v 0.277593 -0.191848 -0.1483155
v 0.277593 0.236083 -0.1483155
v 0.189691 -0.206858 -0.1483155
v -0.280748 0.239449 -0.1409035
v -0.280162 0.239449 -0.1430895
v -0.284113 0.236083 0.1483185
v -0.28318 0.236083 0.1518025
v -0.278887 0.239449 0.1513365
v 0.188085 -0.20665 -0.1001605
v 0.188085 -0.20665 0.1055375
v 0.188085 -0.208808 0.1536825
v 0.189691 -0.208808 0.1552875
v 0.277593 -0.205746 0.1552875
v 0.27715 0.239449 0.1519225
v -0.280748 0.239449 0.1478755
v -0.280162 0.239449 0.1500605
v 0.281078 -0.191848 0.1543535
v 0.281078 0.236083 0.1543535
v 0.27715 0.239449 -0.1449505
v 0.281078 0.236083 -0.1473825
v 0.281078 -0.191848 -0.1473815
v 0.277593 -0.20665 -0.1483155
v 0.188085 -0.206858 -0.1467105
v 0.189691 -0.208255 0.1049055
v 0.189691 -0.208255 -0.0995285
v 0.188085 -0.209131 0.1076395
v 0.189691 -0.210575 0.1536825
v 0.277593 -0.208808 0.1552875
v 0.281078 -0.205746 0.1543535
v 0.279336 0.239449 0.1513365
v 0.280611 0.239449 0.1500605
v 0.281197 0.239449 0.1478755
v 0.281197 0.239449 -0.1409035
v 0.280611 0.239449 -0.1430895
v 0.279336 0.239449 -0.1443645
v 0.283629 -0.191848 0.1518035
v 0.283629 0.236083 0.1518025
v 0.283629 0.236083 -0.1448315
v 0.283629 -0.191848 -0.1448315
v 0.281078 -0.20665 -0.1473815
v 0.189691 -0.208808 -0.1483155
v 0.277593 -0.208808 -0.1483155
v 0.188085 -0.208808 -0.1024805
v 0.282957 -0.208225 0.1049055
v 0.189691 -0.210575 0.1070085
v 0.189691 -0.210414 -0.1018495
v 0.277382 -0.210575 0.1536825
v 0.281078 -0.208808 0.1543535
v 0.283629 -0.205746 0.1518035
v 0.284562 0.236083 0.1483185
v 0.284562 0.236083 -0.1413465
v 0.284562 -0.191848 0.1483185
v 0.284562 -0.191848 -0.1413465
v 0.283629 -0.20665 -0.1448315
v 0.281078 -0.208808 -0.1473815
v 0.189691 -0.210414 -0.1467105
v 0.277382 -0.210414 -0.1467105
v 0.188085 -0.208808 -0.1467105
v 0.282957 -0.210575 0.1070075
v 0.282957 -0.208256 -0.0995295
v 0.282957 -0.210575 0.1481075
v 0.282189 -0.210575 0.1509715
v 0.280247 -0.210575 0.1529145
v 0.283629 -0.208808 0.1518035
v 0.284562 -0.205746 0.1483185
v 0.284562 -0.191848 -0.1018495
v 0.284562 -0.20665 -0.1413465
v 0.283629 -0.208808 -0.1448315
v 0.280247 -0.210414 -0.1459425
v 0.282189 -0.210414 -0.1439995
v 0.282957 -0.210414 -0.1411355
v 0.282957 -0.210414 -0.1018495
v 0.284562 -0.209128 0.1076455
v 0.284562 -0.206619 0.1055435
v 0.284562 -0.20665 -0.1001605
v 0.284562 -0.208808 0.1483185
v 0.284562 -0.208808 -0.1413465
v 0.284562 -0.208808 -0.1024805
v 0.165682 0.239449 0.1433445
v 0.165682 0.239449 -0.1370145
v -0.203535 0.239449 -0.1370145
v -0.203535 0.239449 0.1433445
v 0.155237 0.246567 0.1356615
v 0.155237 0.246566 -0.1293325
v -0.19309 0.246566 -0.1293325
v -0.19309 0.246567 0.1356615
v -0.277144 -0.078633 0.1552875
v 0.189271 -0.078633 0.1552875
v 0.277593 -0.079818 0.1552875
v 0.281078 -0.079818 0.1543535
v 0.283629 -0.079818 0.1518025
v 0.284562 -0.079818 0.1483185
v 0.284562 -0.079818 -0.1413465
v 0.283629 -0.079818 -0.1448315
v 0.281078 -0.079818 -0.1473825
v 0.277593 -0.079818 -0.1483155
v 0.189271 -0.078633 -0.1483155
v -0.277144 -0.078633 -0.1483155
v -0.280629 -0.078633 -0.1473825
v -0.28318 -0.078633 -0.1448315
v -0.284113 -0.078633 -0.1413465
v -0.284113 -0.078633 0.1483185
v -0.28318 -0.078633 0.1518025
v -0.280629 -0.078633 0.1543535
v -0.284113 -0.078633 0.0713965
v -0.284113 -0.157827 0.0713965
v -0.284113 -0.157827 -0.1413465
v -0.284113 -0.078633 -0.1084255
v -0.284113 -0.157827 -0.1084255
v -0.252079 -0.190243 -0.1483155
v -0.252079 -0.078633 -0.1483155
v -0.252079 0.236083 -0.1483155
v -0.207043 -0.190243 -0.1483155
v -0.207043 -0.078633 -0.1483155
v -0.207043 0.236083 -0.1483155
v 0.211945 -0.190649 -0.1483155
v 0.211945 -0.078937 -0.1483155
v 0.211945 0.236083 -0.1483155
v 0.255548 -0.191446 -0.1483155
v 0.25705 -0.079543 -0.1483155
v 0.25705 0.236083 -0.1483155
v -0.2444 -0.179859 -0.1558575
v -0.2444 -0.069185 -0.1558575
v -0.214722 -0.069185 -0.1558575
v -0.214721 -0.179859 -0.1558575
v -0.214722 0.206802 -0.1558575
v -0.2444 0.206802 -0.1558575
v 0.248247 -0.180919 -0.1558575
v 0.249301 -0.069994 -0.1558575
v 0.219513 -0.180271 -0.1558575
v 0.219577 -0.069501 -0.1558575
v 0.249366 0.206746 -0.1558575
v 0.219642 0.206746 -0.1558575
v -0.15572 0.192894 -0.1262835
v 0.117852 0.192894 -0.1262655
v -0.169441 0.192894 -0.1235705
v -0.181241 0.192894 -0.1156795
v 0.131582 0.192894 -0.1235535
v -0.189095 0.192894 0.0988075
v -0.19181 0.192894 0.0850975
v -0.191786 0.192894 -0.0901405
v -0.189092 0.192894 -0.1038635
v 0.143402 0.192894 -0.1156925
v -0.181203 0.192894 0.1105845
v 0.151295 0.192894 -0.1038865
v -0.169403 0.192894 0.1184195
v 0.153996 0.192894 -0.0901595
v -0.155711 0.192894 0.1211285
v 0.117866 0.192894 0.1211875
v 0.153966 0.192894 0.0850985
v 0.131577 0.192894 0.1184855
v 0.151255 0.192894 0.0988125
v 0.143381 0.192894 0.1106145
v -0.283138 -0.210191 -0.1138405
v -0.284562 -0.2095 -0.1138405
v -0.284562 -0.2095 0.1216455
v -0.283138 -0.210191 0.1216455
v -0.284538 -0.192241 -0.1138405
v -0.283111 -0.191552 -0.1138405
v -0.284537 -0.192241 0.1216455
v -0.283111 -0.191552 0.1216455
v -0.284562 -0.2095 0.1482355
v -0.283138 -0.210191 0.1480475
v -0.283111 -0.191552 0.1480475
v -0.284537 -0.192241 0.1482355
v -0.216413 -0.191557 -0.1463195
v -0.276726 -0.191554 -0.1463195
v -0.276915 -0.192244 -0.1477455
v -0.21495 -0.209505 -0.1477455
v -0.21644 -0.210195 -0.1463195
v -0.21644 -0.210195 0.1544325
v -0.214897 -0.209505 0.1558575
v -0.214872 -0.192246 0.1558575
v -0.216413 -0.191557 0.1544325
v -0.276753 -0.210193 0.1544325
v -0.27694 -0.209503 0.1558575
v -0.276915 -0.192244 0.1558575
v -0.276726 -0.191554 0.1544325
v -0.27694 -0.209503 -0.1477455
v -0.276753 -0.210193 -0.1463195
v -0.283138 -0.210191 -0.1399345
v -0.284562 -0.2095 -0.1401225
v -0.284537 -0.192241 -0.1401225
v -0.283111 -0.191552 -0.1399345
v -0.283541 -0.209501 0.1520465
v -0.282264 -0.210191 0.1513085
v -0.282237 -0.191552 0.1513085
v -0.283516 -0.192242 0.1520465
v -0.280751 -0.209501 0.1548365
v -0.280014 -0.210192 0.1535585
v -0.279987 -0.191553 0.1535585
v -0.280726 -0.192242 0.1548365
v -0.280751 -0.209502 -0.1467245
v -0.280014 -0.210192 -0.1454455
v -0.279987 -0.191553 -0.1454455
v -0.280726 -0.192243 -0.1467245
v -0.283541 -0.209501 -0.1439335
v -0.282264 -0.210191 -0.1431955
v -0.282237 -0.191552 -0.1431955
v -0.283516 -0.192242 -0.1439335
v -0.276938 -0.208734 0.1558575
v -0.28075 -0.208733 0.1548365
v -0.28354 -0.208732 0.1520465
v -0.284561 -0.208732 0.1482355
v -0.284561 -0.208732 0.1216455
v -0.284561 -0.208732 -0.1138405
v -0.284561 -0.208732 -0.1401225
v -0.28354 -0.208732 -0.1439335
v -0.28075 -0.208733 -0.1467245
v -0.276938 -0.208734 -0.1477455
v -0.214886 -0.192977 -0.1477455
v -0.276916 -0.192975 -0.1477455
v -0.280727 -0.192973 -0.1467245
v -0.283517 -0.192972 -0.1439335
v -0.284539 -0.192972 -0.1401225
v -0.284539 -0.192972 -0.1138405
v -0.284539 -0.192972 0.1216455
v -0.284539 -0.192972 0.1482355
v -0.283517 -0.192972 0.1520465
v -0.280727 -0.192973 0.1548365
v -0.276916 -0.192974 0.1558575
vt 0.780931 0.742977
vt 0.811417 0.743187
vt 0.780934 0.743187
vt 0.781609 0.746424
vt 0.80173 0.74705
vt 0.801718 0.747306
vt 0.780725 0.743183
vt 0.780931 0.742977
vt 0.780934 0.743187
vt 0.801718 0.747306
vt 0.80173 0.74705
vt 0.801937 0.747228
vt 0.781422 0.746296
vt 0.781626 0.746137
vt 0.781609 0.746424
vt 0.779282 0.776504
vt 0.809764 0.776713
vt 0.77928 0.776713
vt 0.784018 0.74549
vt 0.804204 0.745696
vt 0.78402 0.745696
vt 0.780716 0.775394
vt 0.780934 0.743187
vt 0.780926 0.775398
vt 0.811408 0.775398
vt 0.811619 0.743183
vt 0.811611 0.775394
vt 0.809966 0.744294
vt 0.809767 0.776504
vt 0.809763 0.744291
vt 0.779074 0.776507
vt 0.779282 0.776504
vt 0.77928 0.776713
vt 0.809763 0.744291
vt 0.779282 0.776504
vt 0.779278 0.744291
vt 0.804204 0.777911
vt 0.78402 0.745696
vt 0.804204 0.745696
vt 0.659449 0.270009
vt 0.661962 0.272342
vt 0.659449 0.275789
vt 0.871645 0.717497
vt 0.869921 0.715987
vt 0.873531 0.713767
vt 0.701 0.706798
vt 0.699277 0.708121
vt 0.697716 0.704203
vt 0.779278 0.744291
vt 0.779074 0.776507
vt 0.77907 0.744294
vt 0.778868 0.744083
vt 0.809763 0.744291
vt 0.779278 0.744291
vt 0.78402 0.777911
vt 0.804618 0.778117
vt 0.783611 0.778117
vt 0.780926 0.775398
vt 0.811823 0.775607
vt 0.780517 0.775607
vt 0.697716 0.704203
vt 0.869921 0.715987
vt 0.701 0.706798
vt 0.710409 0.272665
vt 0.707835 0.275206
vt 0.707835 0.270009
vt 0.697716 0.704203
vt 0.679032 0.930649
vt 0.679032 0.66038
vt 0.873531 0.713767
vt 0.892216 0.942246
vt 0.873531 0.9291
vt 0.873531 0.713767
vt 0.682989 0.657344
vt 0.888259 0.66851
vt 0.697716 0.704203
vt 0.679032 0.66038
vt 0.679577 0.658739
vt 0.873531 0.713767
vt 0.891671 0.670276
vt 0.892216 0.671977
vt 0.873531 0.713767
vt 0.888259 0.66851
vt 0.890292 0.669069
vt 0.697716 0.704203
vt 0.679577 0.658739
vt 0.680956 0.657681
vt 0.985956 0.592311
vt 0.982928 0.590462
vt 0.986866 0.590479
vt 0.461359 0.592297
vt 0.982928 0.590462
vt 0.982719 0.592297
vt 0.873531 0.713767
vt 0.890292 0.669069
vt 0.891671 0.670276
vt 0.352272 0.588189
vt 0.349256 0.590025
vt 0.348339 0.588201
vt 0.380474 0.588189
vt 0.431145 0.588189
vt 0.35249 0.590016
vt 0.407113 0.493549
vt 0.405307 0.496564
vt 0.405307 0.493331
vt 0.405307 0.493331
vt 0.407113 0.16764
vt 0.407113 0.493549
vt 0.697716 0.704203
vt 0.680956 0.657681
vt 0.682989 0.657344
vt 0.988177 0.592346
vt 0.986866 0.590479
vt 0.989782 0.590525
vt 0.461359 0.592297
vt 0.459552 0.594103
vt 0.457717 0.590462
vt 0.982961 0.464896
vt 0.459649 0.110825
vt 0.983054 0.110825
vt 0.345437 0.588233
vt 0.349256 0.590025
vt 0.347046 0.59005
vt 0.352211 0.10852
vt 0.348323 0.462626
vt 0.348278 0.108532
vt 0.431128 0.462615
vt 0.87565 0.10852
vt 0.877029 0.462615
vt 0.875692 0.591822
vt 0.873885 0.590016
vt 0.877518 0.588189
vt 0.886813 0.497482
vt 0.532695 0.493549
vt 0.886813 0.493549
vt 0.886813 0.493549
vt 0.532695 0.493549
vt 0.532695 0.456509
vt 0.407113 0.16764
vt 0.405307 0.164683
vt 0.407113 0.163731
vt 0.983054 0.110825
vt 0.986899 0.464913
vt 0.982961 0.464896
vt 0.683545 0.512439
vt 0.685351 0.17444
vt 0.685352 0.512419
vt 0.162747 0.237108
vt 0.162837 0.237129
vt 0.162744 0.237125
vt 0.459649 0.110825
vt 0.982618 0.1071
vt 0.983054 0.110825
vt 0.458223 0.464896
vt 0.358949 0.110825
vt 0.459649 0.110825
vt 0.348278 0.108532
vt 0.345421 0.462659
vt 0.345375 0.108565
vt 0.352211 0.10852
vt 0.350199 0.104784
vt 0.352666 0.104777
vt 0.380412 0.10852
vt 0.352211 0.10852
vt 0.352666 0.104777
vt 0.953289 0.463638
vt 0.976357 0.10852
vt 0.976403 0.463948
vt 0.162844 0.2362
vt 0.162744 0.236215
vt 0.162744 0.236198
vt 0.886813 0.493549
vt 0.890599 0.495558
vt 0.886813 0.497482
vt 0.886813 0.16764
vt 0.532696 0.163731
vt 0.886813 0.163731
vt 0.989908 0.110889
vt 0.986899 0.464913
vt 0.986991 0.110842
vt 0.985087 0.107111
vt 0.983054 0.110825
vt 0.982618 0.1071
vt 0.162844 0.2362
vt 0.162739 0.234771
vt 0.162836 0.234501
vt 0.162743 0.234499
vt 0.16272 0.234759
vt 0.162722 0.234499
vt 0.162723 0.237107
vt 0.162744 0.237125
vt 0.162723 0.237124
vt 0.162836 0.236653
vt 0.162747 0.237108
vt 0.162732 0.236649
vt 0.35951 0.1071
vt 0.459649 0.110825
vt 0.358949 0.110825
vt 0.740247 0.428799
vt 0.4392 0.172038
vt 0.740247 0.172038
vt 0.354953 0.466246
vt 0.358949 0.110825
vt 0.358856 0.466229
vt 0.890599 0.495558
vt 0.886813 0.500383
vt 0.886813 0.497482
vt 0.902495 0.10852
vt 0.975815 0.104777
vt 0.953244 0.10852
vt 0.976357 0.10852
vt 0.980312 0.46396
vt 0.976403 0.463948
vt 0.162744 0.236215
vt 0.16286 0.236326
vt 0.162844 0.23654
vt 0.886813 0.493549
vt 0.890599 0.16818
vt 0.890599 0.493092
vt 0.886813 0.16764
vt 0.890599 0.165728
vt 0.890599 0.16818
vt 0.986991 0.110842
vt 0.986546 0.107134
vt 0.989908 0.110889
vt 0.162744 0.235935
vt 0.162844 0.2362
vt 0.162744 0.236198
vt 0.004166 0.850871
vt 0.009976 0.16891
vt 0.009977 0.849154
vt 0.162723 0.237124
vt 0.162709 0.237115
vt 0.162723 0.237107
vt 0.162732 0.236649
vt 0.162723 0.237107
vt 0.162709 0.236648
vt 0.162683 0.23687
vt 0.162706 0.236768
vt 0.162706 0.236871
vt 0.85074 0.466409
vt 0.773765 0.466409
vt 0.854238 0.461855
vt 0.358949 0.110825
vt 0.357062 0.107111
vt 0.35951 0.1071
vt 0.352129 0.466292
vt 0.355046 0.110842
vt 0.354953 0.466246
vt 0.976357 0.10852
vt 0.978267 0.104784
vt 0.980266 0.108532
vt 0.983104 0.108565
vt 0.980312 0.46396
vt 0.980266 0.108532
vt 0.163142 0.236226
vt 0.163253 0.236245
vt 0.163143 0.236248
vt 0.162744 0.236215
vt 0.162709 0.236646
vt 0.162729 0.236215
vt 0.162744 0.236215
vt 0.16273 0.236198
vt 0.162744 0.236198
vt 0.162728 0.235948
vt 0.162744 0.236198
vt 0.16273 0.236198
vt 0.320062 0.846981
vt 0.009976 0.16891
vt 0.320071 0.166744
vt 0.16272 0.234759
vt 0.162727 0.234783
vt 0.162709 0.23477
vt 0.161656 0.236771
vt 0.161673 0.236789
vt 0.161656 0.236792
vt 0.010659 1.012063
vt 0.004896 0.858517
vt 0.010659 0.856758
vt 0.010139 1.016942
vt 0.302217 1.010027
vt 0.3024 1.014901
vt 0.162683 0.236893
vt 0.162706 0.236871
vt 0.162706 0.236894
vt 0.162656 0.23687
vt 0.162683 0.236767
vt 0.162683 0.23687
vt 0.85656 0.129634
vt 0.853732 0.134464
vt 0.852629 0.133029
vt 0.859571 0.136425
vt 0.853732 0.134464
vt 0.858764 0.132504
vt 0.859571 0.462354
vt 0.854238 0.136923
vt 0.859571 0.136425
vt 0.859571 0.462354
vt 0.853732 0.464314
vt 0.854238 0.461855
vt 0.852629 0.46575
vt 0.858764 0.466275
vt 0.85656 0.469145
vt 0.738809 0.191917
vt 0.510398 0.187996
vt 0.738002 0.187996
vt 0.511205 0.517846
vt 0.738002 0.521767
vt 0.510398 0.521767
vt 0.163141 0.236199
vt 0.163252 0.236223
vt 0.163142 0.236226
vt 0.163253 0.236245
vt 0.163268 0.236222
vt 0.16327 0.236244
vt 0.010139 0.00672
vt 0.30217 0.010448
vt 0.010612 0.012483
vt 0.009977 0.849154
vt 0.320754 0.854592
vt 0.010659 0.856758
vt 0.009976 0.16891
vt 0.320706 0.159591
vt 0.320071 0.166744
vt 0.010612 0.012483
vt 0.004801 0.159271
vt 0.004801 0.0121
vt 0.162706 0.236894
vt 0.162679 0.236907
vt 0.162683 0.236893
vt 0.162656 0.236893
vt 0.162683 0.23687
vt 0.162683 0.236893
vt 0.162632 0.236871
vt 0.162656 0.236767
vt 0.162656 0.23687
vt 0.511205 0.517846
vt 0.738809 0.191917
vt 0.738809 0.517846
vt 0.16314 0.236174
vt 0.163251 0.236196
vt 0.163141 0.236199
vt 0.163251 0.236196
vt 0.163268 0.236222
vt 0.163252 0.236223
vt 0.3024 0.00468
vt 0.311695 0.012936
vt 0.30217 0.010448
vt 0.16273 0.236198
vt 0.162729 0.236215
vt 0.162717 0.236206
vt 0.16327 0.234733
vt 0.163263 0.234757
vt 0.163251 0.234746
vt 0.320062 0.846981
vt 0.324936 0.164185
vt 0.324927 0.848645
vt 0.325666 0.856298
vt 0.320754 0.991347
vt 0.320754 0.854592
vt 0.162632 0.236894
vt 0.162659 0.236907
vt 0.162639 0.236908
vt 0.162683 0.236893
vt 0.162659 0.236907
vt 0.162656 0.236893
vt 0.162632 0.236894
vt 0.162656 0.23687
vt 0.162656 0.236893
vt 0.163244 0.234499
vt 0.163251 0.234746
vt 0.16314 0.234502
vt 0.163251 0.234746
vt 0.16314 0.235946
vt 0.16314 0.234502
vt 0.163251 0.235933
vt 0.16314 0.236174
vt 0.16314 0.235946
vt 0.163251 0.235933
vt 0.163251 0.236171
vt 0.16314 0.236174
vt 0.163251 0.236171
vt 0.163267 0.236195
vt 0.163251 0.236196
vt 0.163268 0.236222
vt 0.16328 0.236197
vt 0.163281 0.236217
vt 0.163267 0.236171
vt 0.16328 0.236197
vt 0.163267 0.236195
vt 0.325572 0.157032
vt 0.320706 0.02887
vt 0.325572 0.027708
vt 0.161606 0.236789
vt 0.161622 0.236771
vt 0.161622 0.236792
vt 0.16327 0.234733
vt 0.163244 0.234499
vt 0.163267 0.234499
vt 0.163251 0.236171
vt 0.163267 0.235946
vt 0.163267 0.236171
vt 0.773765 0.466409
vt 0.754403 0.163395
vt 0.773765 0.13237
vt 0.773765 0.466409
vt 0.435301 0.437443
vt 0.754403 0.437443
vt 0.413715 0.388631
vt 0.414035 0.387073
vt 0.415931 0.385746
vt 0.435301 0.163395
vt 0.435301 0.437443
vt 0.372066 0.466409
vt 0.754403 0.437443
vt 0.740247 0.172038
vt 0.754403 0.163395
vt 0.625529 0.131177
vt 0.633439 0.53474
vt 0.625529 0.546591
vt 0.65144 0.270009
vt 0.659449 0.535526
vt 0.65144 0.544041
vt 0.633439 0.546563
vt 0.641307 0.14307
vt 0.641307 0.534954
vt 0.162743 0.234499
vt 0.162836 0.234501
vt 0.162739 0.234771
vt 0.320706 0.159591
vt 0.318154 0.019355
vt 0.320706 0.02887
vt 0.302217 1.010027
vt 0.318201 1.000898
vt 0.311742 1.007407
vt 0.318201 1.000898
vt 0.320754 0.854592
vt 0.320754 0.991347
vt 0.010659 0.856758
vt 0.302217 1.010027
vt 0.010659 1.012063
vt 0.010611 0.161756
vt 0.30217 0.010448
vt 0.320706 0.159591
vt 0.30217 0.010448
vt 0.318154 0.019355
vt 0.320706 0.159591
vt 0.458223 0.464896
vt 0.982928 0.590462
vt 0.457717 0.590462
vt 0.358856 0.466229
vt 0.457717 0.590462
vt 0.358823 0.592268
vt 0.35492 0.592285
vt 0.358856 0.466229
vt 0.358823 0.592268
vt 0.352096 0.592331
vt 0.354953 0.466246
vt 0.35492 0.592285
vt 0.819525 0.191917
vt 0.738002 0.187996
vt 0.818718 0.187996
vt 0.738809 0.191917
vt 0.819525 0.191917
vt 0.819525 0.473404
vt 0.738809 0.517846
vt 0.818719 0.521767
vt 0.738002 0.521767
vt 0.983149 0.463993
vt 0.980328 0.590007
vt 0.980312 0.46396
vt 0.980312 0.46396
vt 0.976419 0.589995
vt 0.976403 0.463948
vt 0.951616 0.589542
vt 0.976403 0.463948
vt 0.976419 0.589995
vt 0.431145 0.588189
vt 0.877029 0.462615
vt 0.877518 0.588189
vt 0.352256 0.462615
vt 0.348339 0.588201
vt 0.348323 0.462626
vt 0.345421 0.462659
vt 0.348339 0.588201
vt 0.345437 0.588233
vt 0.407113 0.497481
vt 0.407113 0.493549
vt 0.443587 0.493549
vt 0.532696 0.16764
vt 0.407113 0.163731
vt 0.532696 0.163731
vt 0.989815 0.464959
vt 0.986866 0.590479
vt 0.986899 0.464913
vt 0.986899 0.464913
vt 0.982928 0.590462
vt 0.982961 0.464896
vt 0.443587 0.254186
vt 0.407113 0.493549
vt 0.407113 0.16764
vt 0.443587 0.456509
vt 0.532696 0.254186
vt 0.532695 0.456509
vt 0.443587 0.456509
vt 0.532695 0.493549
vt 0.443587 0.493549
vt 0.407113 0.493549
vt 0.443587 0.456509
vt 0.443587 0.493549
vt 0.352272 0.588189
vt 0.380457 0.462615
vt 0.380474 0.588189
vt 0.380457 0.462615
vt 0.352211 0.10852
vt 0.380412 0.10852
vt 0.160791 0.234576
vt 0.160646 0.2354
vt 0.160646 0.234572
vt 0.160646 0.2354
vt 0.160791 0.237469
vt 0.160646 0.237465
vt 0.90254 0.462957
vt 0.877518 0.588189
vt 0.877029 0.462615
vt 0.902495 0.10852
vt 0.877029 0.462615
vt 0.87565 0.10852
vt 0.160336 0.235397
vt 0.160482 0.234576
vt 0.160482 0.235405
vt 0.160336 0.237467
vt 0.160482 0.235405
vt 0.160481 0.237471
vt 0.160872 0.235334
vt 0.160791 0.234576
vt 0.160872 0.234499
vt 0.160872 0.235333
vt 0.160952 0.234576
vt 0.160952 0.235404
vt 0.162192 0.236767
vt 0.162254 0.237039
vt 0.162192 0.237102
vt 0.160872 0.235333
vt 0.160952 0.237468
vt 0.160872 0.237687
vt 0.160872 0.235334
vt 0.160791 0.237469
vt 0.160791 0.235404
vt 0.160872 0.237688
vt 0.160646 0.237465
vt 0.160791 0.237469
vt 0.160562 0.235336
vt 0.160646 0.234577
vt 0.160642 0.235407
vt 0.162254 0.236767
vt 0.162317 0.237031
vt 0.162254 0.237092
vt 0.160562 0.235334
vt 0.160482 0.234576
vt 0.160562 0.234499
vt 0.160562 0.235336
vt 0.160646 0.237477
vt 0.160566 0.237696
vt 0.160562 0.235334
vt 0.160481 0.237471
vt 0.160482 0.235405
vt 0.160341 0.237685
vt 0.160481 0.237471
vt 0.160562 0.237691
vt 0.532696 0.16764
vt 0.443587 0.254186
vt 0.407113 0.16764
vt 0.886813 0.16764
vt 0.532696 0.254186
vt 0.532696 0.16764
vt 0.886813 0.493549
vt 0.532696 0.254186
vt 0.886813 0.16764
vt 0.801718 0.747306
vt 0.801144 0.75029
vt 0.800907 0.749328
vt 0.801718 0.747306
vt 0.800907 0.749328
vt 0.800233 0.748479
vt 0.801937 0.772278
vt 0.801092 0.770212
vt 0.801313 0.76927
vt 0.781609 0.746424
vt 0.786376 0.747116
vt 0.78522 0.747252
vt 0.801718 0.747306
vt 0.800233 0.748479
vt 0.79923 0.747889
vt 0.801937 0.772278
vt 0.800436 0.771002
vt 0.801092 0.770212
vt 0.781609 0.746424
vt 0.78522 0.747252
vt 0.78423 0.747755
vt 0.801718 0.747306
vt 0.79923 0.747889
vt 0.798069 0.747649
vt 0.801937 0.772278
vt 0.799443 0.771504
vt 0.800436 0.771002
vt 0.781609 0.746424
vt 0.78423 0.747755
vt 0.783576 0.748543
vt 0.801937 0.772278
vt 0.798286 0.771639
vt 0.799443 0.771504
vt 0.781609 0.746424
vt 0.783576 0.748543
vt 0.783356 0.749483
vt 0.781832 0.771365
vt 0.783521 0.768463
vt 0.783757 0.769424
vt 0.781832 0.771365
vt 0.785431 0.770865
vt 0.786591 0.771106
vt 0.781832 0.771365
vt 0.783757 0.769424
vt 0.78443 0.770273
vt 0.781832 0.771365
vt 0.78443 0.770273
vt 0.785431 0.770865
vt 0.811417 0.743187
vt 0.780926 0.775398
vt 0.780934 0.743187
vt 0.873531 0.9291
vt 0.679032 0.930649
vt 0.697716 0.919536
vt 0.801937 0.772278
vt 0.801718 0.747306
vt 0.801937 0.747228
vt 0.781609 0.746424
vt 0.781626 0.746137
vt 0.80173 0.74705
vt 0.779282 0.776504
vt 0.809767 0.776504
vt 0.809764 0.776713
vt 0.784018 0.74549
vt 0.804202 0.74549
vt 0.804204 0.745696
vt 0.780716 0.775394
vt 0.780725 0.743183
vt 0.780934 0.743187
vt 0.811408 0.775398
vt 0.811417 0.743187
vt 0.811619 0.743183
vt 0.809966 0.744294
vt 0.80997 0.776507
vt 0.809767 0.776504
vt 0.809763 0.744291
vt 0.809767 0.776504
vt 0.779282 0.776504
vt 0.804204 0.777911
vt 0.78402 0.777911
vt 0.78402 0.745696
vt 0.779278 0.744291
vt 0.779282 0.776504
vt 0.779074 0.776507
vt 0.778868 0.744083
vt 0.810177 0.744083
vt 0.809763 0.744291
vt 0.78402 0.777911
vt 0.804204 0.777911
vt 0.804618 0.778117
vt 0.780926 0.775398
vt 0.811408 0.775398
vt 0.811823 0.775607
vt 0.697716 0.704203
vt 0.873531 0.713767
vt 0.869921 0.715987
vt 0.697716 0.704203
vt 0.697716 0.919536
vt 0.679032 0.930649
vt 0.873531 0.713767
vt 0.892216 0.671977
vt 0.892216 0.942246
vt 0.873531 0.713767
vt 0.697716 0.704203
vt 0.682989 0.657344
vt 0.985956 0.592311
vt 0.982719 0.592297
vt 0.982928 0.590462
vt 0.461359 0.592297
vt 0.457717 0.590462
vt 0.982928 0.590462
vt 0.352272 0.588189
vt 0.35249 0.590016
vt 0.349256 0.590025
vt 0.431145 0.588189
vt 0.877518 0.588189
vt 0.873885 0.590016
vt 0.873885 0.590016
vt 0.35249 0.590016
vt 0.431145 0.588189
vt 0.35249 0.590016
vt 0.352272 0.588189
vt 0.380474 0.588189
vt 0.407113 0.493549
vt 0.407113 0.497481
vt 0.405307 0.496564
vt 0.405307 0.493331
vt 0.405307 0.167897
vt 0.407113 0.16764
vt 0.988177 0.592346
vt 0.985956 0.592311
vt 0.986866 0.590479
vt 0.982961 0.464896
vt 0.458223 0.464896
vt 0.459649 0.110825
vt 0.345437 0.588233
vt 0.348339 0.588201
vt 0.349256 0.590025
vt 0.352211 0.10852
vt 0.352256 0.462615
vt 0.348323 0.462626
vt 0.431128 0.462615
vt 0.431083 0.10852
vt 0.87565 0.10852
vt 0.886813 0.497482
vt 0.532695 0.497482
vt 0.532695 0.493549
vt 0.407113 0.16764
vt 0.405307 0.167897
vt 0.405307 0.164683
vt 0.983054 0.110825
vt 0.986991 0.110842
vt 0.986899 0.464913
vt 0.683545 0.512439
vt 0.683545 0.174459
vt 0.685351 0.17444
vt 0.162747 0.237108
vt 0.162862 0.237113
vt 0.162837 0.237129
vt 0.459649 0.110825
vt 0.459712 0.1071
vt 0.982618 0.1071
vt 0.458223 0.464896
vt 0.358856 0.466229
vt 0.358949 0.110825
vt 0.348278 0.108532
vt 0.348323 0.462626
vt 0.345421 0.462659
vt 0.352211 0.10852
vt 0.348278 0.108532
vt 0.350199 0.104784
vt 0.352666 0.104777
vt 0.875607 0.104777
vt 0.431083 0.10852
vt 0.875607 0.104777
vt 0.87565 0.10852
vt 0.431083 0.10852
vt 0.431083 0.10852
vt 0.380412 0.10852
vt 0.352666 0.104777
vt 0.953289 0.463638
vt 0.953244 0.10852
vt 0.976357 0.10852
vt 0.162844 0.2362
vt 0.162868 0.236218
vt 0.162744 0.236215
vt 0.886813 0.493549
vt 0.890599 0.493092
vt 0.890599 0.495558
vt 0.886813 0.16764
vt 0.532696 0.16764
vt 0.532696 0.163731
vt 0.989908 0.110889
vt 0.989815 0.464959
vt 0.986899 0.464913
vt 0.985087 0.107111
vt 0.986991 0.110842
vt 0.983054 0.110825
vt 0.162844 0.2362
vt 0.162744 0.235935
vt 0.162739 0.234771
vt 0.162743 0.234499
vt 0.162739 0.234771
vt 0.16272 0.234759
vt 0.162723 0.237107
vt 0.162747 0.237108
vt 0.162744 0.237125
vt 0.162836 0.236653
vt 0.162862 0.237113
vt 0.162747 0.237108
vt 0.35951 0.1071
vt 0.459712 0.1071
vt 0.459649 0.110825
vt 0.740247 0.428799
vt 0.4392 0.428799
vt 0.4392 0.172038
vt 0.354953 0.466246
vt 0.355046 0.110842
vt 0.358949 0.110825
vt 0.890599 0.495558
vt 0.890599 0.497009
vt 0.886813 0.500383
vt 0.902495 0.10852
vt 0.87565 0.10852
vt 0.875607 0.104777
vt 0.875607 0.104777
vt 0.975815 0.104777
vt 0.902495 0.10852
vt 0.975815 0.104777
vt 0.976357 0.10852
vt 0.953244 0.10852
vt 0.976357 0.10852
vt 0.980266 0.108532
vt 0.980312 0.46396
vt 0.162836 0.236648
vt 0.162725 0.236646
vt 0.162844 0.23654
vt 0.162725 0.236646
vt 0.162744 0.236215
vt 0.162844 0.23654
vt 0.162744 0.236215
vt 0.162868 0.236218
vt 0.16286 0.236326
vt 0.886813 0.493549
vt 0.886813 0.16764
vt 0.890599 0.16818
vt 0.886813 0.16764
vt 0.886813 0.163731
vt 0.890599 0.165728
vt 0.986991 0.110842
vt 0.985087 0.107111
vt 0.986546 0.107134
vt 0.004166 0.850871
vt 0.004166 0.166425
vt 0.009976 0.16891
vt 0.162732 0.236649
vt 0.162747 0.237108
vt 0.162723 0.237107
vt 0.162683 0.23687
vt 0.162683 0.236767
vt 0.162706 0.236768
vt 0.773765 0.466409
vt 0.773765 0.13237
vt 0.854238 0.136923
vt 0.773765 0.13237
vt 0.85074 0.13237
vt 0.854238 0.136923
vt 0.854238 0.136923
vt 0.85074 0.13237
vt 0.853732 0.134464
vt 0.752088 0.542394
vt 0.753977 0.543053
vt 0.755079 0.544488
vt 0.854238 0.136923
vt 0.854238 0.461855
vt 0.773765 0.466409
vt 0.721404 0.594487
vt 0.721083 0.596045
vt 0.720385 0.596955
vt 0.720385 0.596955
vt 0.719188 0.597372
vt 0.721404 0.594487
vt 0.358949 0.110825
vt 0.355046 0.110842
vt 0.357062 0.107111
vt 0.352129 0.466292
vt 0.352222 0.110889
vt 0.355046 0.110842
vt 0.976357 0.10852
vt 0.975815 0.104777
vt 0.978267 0.104784
vt 0.983104 0.108565
vt 0.983149 0.463993
vt 0.980312 0.46396
vt 0.163142 0.236226
vt 0.163252 0.236223
vt 0.163253 0.236245
vt 0.162744 0.236215
vt 0.162725 0.236646
vt 0.162709 0.236646
vt 0.162744 0.236215
vt 0.162729 0.236215
vt 0.16273 0.236198
vt 0.162728 0.235948
vt 0.162744 0.235935
vt 0.162744 0.236198
vt 0.320062 0.846981
vt 0.009977 0.849154
vt 0.009976 0.16891
vt 0.16272 0.234759
vt 0.162739 0.234771
vt 0.162727 0.234783
vt 0.161656 0.236771
vt 0.161673 0.236768
vt 0.161673 0.236789
vt 0.010659 1.012063
vt 0.004801 1.011637
vt 0.004896 0.858517
vt 0.010139 1.016942
vt 0.010659 1.012063
vt 0.302217 1.010027
vt 0.162683 0.236893
vt 0.162683 0.23687
vt 0.162706 0.236871
vt 0.162656 0.23687
vt 0.162656 0.236767
vt 0.162683 0.236767
vt 0.85656 0.129634
vt 0.858764 0.132504
vt 0.853732 0.134464
vt 0.859571 0.136425
vt 0.854238 0.136923
vt 0.853732 0.134464
vt 0.859571 0.462354
vt 0.854238 0.461855
vt 0.854238 0.136923
vt 0.859571 0.462354
vt 0.858764 0.466275
vt 0.853732 0.464314
vt 0.852629 0.46575
vt 0.853732 0.464314
vt 0.858764 0.466275
vt 0.738809 0.191917
vt 0.511205 0.191917
vt 0.510398 0.187996
vt 0.511205 0.517846
vt 0.738809 0.517846
vt 0.738002 0.521767
vt 0.163141 0.236199
vt 0.163251 0.236196
vt 0.163252 0.236223
vt 0.163253 0.236245
vt 0.163252 0.236223
vt 0.163268 0.236222
vt 0.010139 0.00672
vt 0.3024 0.00468
vt 0.30217 0.010448
vt 0.009977 0.849154
vt 0.320062 0.846981
vt 0.320754 0.854592
vt 0.009976 0.16891
vt 0.010611 0.161756
vt 0.320706 0.159591
vt 0.010612 0.012483
vt 0.010611 0.161756
vt 0.004801 0.159271
vt 0.162706 0.236894
vt 0.162698 0.236908
vt 0.162679 0.236907
vt 0.162656 0.236893
vt 0.162656 0.23687
vt 0.162683 0.23687
vt 0.162632 0.236871
vt 0.162632 0.236768
vt 0.162656 0.236767
vt 0.511205 0.517846
vt 0.511205 0.191917
vt 0.738809 0.191917
vt 0.16314 0.236174
vt 0.163251 0.236171
vt 0.163251 0.236196
vt 0.163251 0.236196
vt 0.163267 0.236195
vt 0.163268 0.236222
vt 0.3024 0.00468
vt 0.313986 0.007706
vt 0.311695 0.012936
vt 0.16327 0.234733
vt 0.163281 0.234744
vt 0.163263 0.234757
vt 0.320062 0.846981
vt 0.320071 0.166744
vt 0.324936 0.164185
vt 0.325666 0.856298
vt 0.325571 0.99155
vt 0.320754 0.991347
vt 0.162632 0.236894
vt 0.162656 0.236893
vt 0.162659 0.236907
vt 0.162683 0.236893
vt 0.162679 0.236907
vt 0.162659 0.236907
vt 0.162632 0.236894
vt 0.162632 0.236871
vt 0.162656 0.23687
vt 0.163251 0.234746
vt 0.163251 0.235933
vt 0.16314 0.235946
vt 0.163251 0.236171
vt 0.163267 0.236171
vt 0.163267 0.236195
vt 0.163268 0.236222
vt 0.163267 0.236195
vt 0.16328 0.236197
vt 0.163267 0.236171
vt 0.16328 0.236177
vt 0.16328 0.236197
vt 0.325572 0.157032
vt 0.320706 0.159591
vt 0.320706 0.02887
vt 0.161606 0.236789
vt 0.161606 0.236768
vt 0.161622 0.236771
vt 0.16327 0.234733
vt 0.163251 0.234746
vt 0.163244 0.234499
vt 0.163251 0.236171
vt 0.163251 0.235933
vt 0.163267 0.235946
vt 0.773765 0.466409
vt 0.754403 0.437443
vt 0.754403 0.163395
vt 0.773765 0.13237
vt 0.754403 0.163395
vt 0.435301 0.163395
vt 0.754403 0.437443
vt 0.740247 0.428799
vt 0.740247 0.172038
vt 0.625529 0.131177
vt 0.633439 0.14283
vt 0.633439 0.53474
vt 0.65144 0.270009
vt 0.659449 0.278781
vt 0.659449 0.535526
vt 0.633439 0.546563
vt 0.633439 0.131177
vt 0.641307 0.14307
vt 0.302217 1.010027
vt 0.320754 0.854592
vt 0.318201 1.000898
vt 0.010659 0.856758
vt 0.320754 0.854592
vt 0.302217 1.010027
vt 0.010611 0.161756
vt 0.010612 0.012483
vt 0.30217 0.010448
vt 0.30217 0.010448
vt 0.311695 0.012936
vt 0.318154 0.019355
vt 0.458223 0.464896
vt 0.982961 0.464896
vt 0.982928 0.590462
vt 0.358856 0.466229
vt 0.458223 0.464896
vt 0.457717 0.590462
vt 0.35492 0.592285
vt 0.354953 0.466246
vt 0.358856 0.466229
vt 0.352096 0.592331
vt 0.352129 0.466292
vt 0.354953 0.466246
vt 0.819525 0.191917
vt 0.738809 0.191917
vt 0.738002 0.187996
vt 0.819525 0.517846
vt 0.738809 0.517846
vt 0.819525 0.473404
vt 0.738809 0.517846
vt 0.738809 0.191917
vt 0.819525 0.473404
vt 0.738809 0.517846
vt 0.819525 0.517846
vt 0.818719 0.521767
vt 0.983149 0.463993
vt 0.983165 0.59004
vt 0.980328 0.590007
vt 0.980312 0.46396
vt 0.980328 0.590007
vt 0.976419 0.589995
vt 0.951616 0.589542
vt 0.953289 0.463638
vt 0.976403 0.463948
vt 0.431145 0.588189
vt 0.431128 0.462615
vt 0.877029 0.462615
vt 0.352256 0.462615
vt 0.352272 0.588189
vt 0.348339 0.588201
vt 0.345421 0.462659
vt 0.348323 0.462626
vt 0.348339 0.588201
vt 0.443587 0.493549
vt 0.532695 0.493549
vt 0.532695 0.497482
vt 0.532695 0.497482
vt 0.407113 0.497481
vt 0.443587 0.493549
vt 0.532696 0.16764
vt 0.407113 0.16764
vt 0.407113 0.163731
vt 0.989815 0.464959
vt 0.989782 0.590525
vt 0.986866 0.590479
vt 0.986899 0.464913
vt 0.986866 0.590479
vt 0.982928 0.590462
vt 0.443587 0.254186
vt 0.443587 0.456509
vt 0.407113 0.493549
vt 0.443587 0.456509
vt 0.443587 0.254186
vt 0.532696 0.254186
vt 0.443587 0.456509
vt 0.532695 0.456509
vt 0.532695 0.493549
vt 0.352272 0.588189
vt 0.352256 0.462615
vt 0.380457 0.462615
vt 0.380457 0.462615
vt 0.352256 0.462615
vt 0.352211 0.10852
vt 0.160791 0.234576
vt 0.160791 0.235404
vt 0.160646 0.2354
vt 0.160646 0.2354
vt 0.160791 0.235404
vt 0.160791 0.237469
vt 0.90254 0.462957
vt 0.902556 0.588646
vt 0.877518 0.588189
vt 0.902495 0.10852
vt 0.90254 0.462957
vt 0.877029 0.462615
vt 0.160336 0.235397
vt 0.160341 0.234567
vt 0.160482 0.234576
vt 0.160336 0.237467
vt 0.160336 0.235397
vt 0.160482 0.235405
vt 0.160872 0.235334
vt 0.160791 0.235404
vt 0.160791 0.234576
vt 0.160872 0.235333
vt 0.160872 0.234499
vt 0.160952 0.234576
vt 0.162192 0.236767
vt 0.162254 0.236817
vt 0.162254 0.237039
vt 0.160872 0.235333
vt 0.160952 0.235404
vt 0.160952 0.237468
vt 0.160872 0.235334
vt 0.160872 0.237688
vt 0.160791 0.237469
vt 0.160872 0.237688
vt 0.160651 0.237682
vt 0.160646 0.237465
vt 0.160562 0.235336
vt 0.160567 0.234499
vt 0.160646 0.234577
vt 0.162254 0.236767
vt 0.162317 0.236817
vt 0.162317 0.237031
vt 0.160562 0.235334
vt 0.160482 0.235405
vt 0.160482 0.234576
vt 0.160562 0.235336
vt 0.160642 0.235407
vt 0.160646 0.237477
vt 0.160562 0.235334
vt 0.160562 0.237691
vt 0.160481 0.237471
vt 0.160341 0.237685
vt 0.160336 0.237467
vt 0.160481 0.237471
vt 0.532696 0.16764
vt 0.532696 0.254186
vt 0.443587 0.254186
vt 0.886813 0.493549
vt 0.532695 0.456509
vt 0.532696 0.254186
vt 0.801937 0.772278
vt 0.801313 0.76927
vt 0.801144 0.75029
vt 0.801937 0.772278
vt 0.801144 0.75029
vt 0.801718 0.747306
vt 0.801718 0.747306
vt 0.798069 0.747649
vt 0.786376 0.747116
vt 0.801718 0.747306
vt 0.786376 0.747116
vt 0.781609 0.746424
vt 0.781832 0.771365
vt 0.781609 0.746424
vt 0.783521 0.768463
vt 0.783521 0.768463
vt 0.781609 0.746424
vt 0.783356 0.749483
vt 0.786591 0.771106
vt 0.798286 0.771639
vt 0.801937 0.772278
vt 0.781832 0.771365
vt 0.786591 0.771106
vt 0.801937 0.772278
vt 0.786591 0.771106
vt 0.78443 0.770273
vt 0.783521 0.768463
vt 0.800233 0.748479
vt 0.800907 0.749328
vt 0.801144 0.75029
vt 0.798069 0.747649
vt 0.79923 0.747889
vt 0.800233 0.748479
vt 0.786376 0.747116
vt 0.798069 0.747649
vt 0.783356 0.749483
vt 0.78423 0.747755
vt 0.78522 0.747252
vt 0.786376 0.747116
vt 0.783576 0.748543
vt 0.78423 0.747755
vt 0.786376 0.747116
vt 0.801144 0.75029
vt 0.783356 0.749483
vt 0.798069 0.747649
vt 0.783356 0.749483
vt 0.783576 0.748543
vt 0.786376 0.747116
vt 0.783521 0.768463
vt 0.783356 0.749483
vt 0.801313 0.76927
vt 0.78443 0.770273
vt 0.783757 0.769424
vt 0.783521 0.768463
vt 0.786591 0.771106
vt 0.785431 0.770865
vt 0.78443 0.770273
vt 0.798286 0.771639
vt 0.786591 0.771106
vt 0.801313 0.76927
vt 0.800436 0.771002
vt 0.799443 0.771504
vt 0.798286 0.771639
vt 0.801092 0.770212
vt 0.800436 0.771002
vt 0.798286 0.771639
vt 0.783521 0.768463
vt 0.801313 0.76927
vt 0.786591 0.771106
vt 0.801313 0.76927
vt 0.801092 0.770212
vt 0.798286 0.771639
vt 0.801144 0.75029
vt 0.801313 0.76927
vt 0.783356 0.749483
vt 0.798069 0.747649
vt 0.800233 0.748479
vt 0.801144 0.75029
vt 0.811417 0.743187
vt 0.811408 0.775398
vt 0.780926 0.775398
vt 0.873531 0.9291
vt 0.892216 0.942246
vt 0.679032 0.930649
vt 0.805413 0.773
vt 0.785228 0.752372
vt 0.805413 0.752372
vt 0.162192 0.23651
vt 0.162181 0.236705
vt 0.162181 0.23651
vt 0.162192 0.23651
vt 0.162181 0.234753
vt 0.162192 0.234754
vt 0.162192 0.234754
vt 0.162181 0.234556
vt 0.162192 0.234555
vt 0.162192 0.236507
vt 0.162203 0.236702
vt 0.162192 0.236703
vt 0.162203 0.236507
vt 0.162192 0.234753
vt 0.162203 0.234753
vt 0.162192 0.234753
vt 0.162203 0.234556
vt 0.162203 0.234753
vt 0.162192 0.234555
vt 0.162174 0.234532
vt 0.162184 0.234527
vt 0.162192 0.234555
vt 0.16221 0.234532
vt 0.162203 0.234556
vt 0.162708 0.236767
vt 0.16225 0.23675
vt 0.162698 0.236755
vt 0.162248 0.236761
vt 0.162226 0.236743
vt 0.16225 0.23675
vt 0.161673 0.236767
vt 0.162133 0.236753
vt 0.162135 0.236764
vt 0.161673 0.234502
vt 0.162133 0.234509
vt 0.161684 0.234512
vt 0.162709 0.234504
vt 0.16225 0.234509
vt 0.162248 0.234499
vt 0.162135 0.234499
vt 0.162157 0.234515
vt 0.162133 0.234509
vt 0.162248 0.234499
vt 0.162226 0.234515
vt 0.16222 0.234506
vt 0.162135 0.236764
vt 0.162157 0.236746
vt 0.162163 0.236756
vt 0.162192 0.236706
vt 0.162174 0.236729
vt 0.162181 0.236705
vt 0.162192 0.236703
vt 0.16221 0.236726
vt 0.162199 0.236732
vt 0.162174 0.234532
vt 0.162163 0.234506
vt 0.162184 0.234527
vt 0.16221 0.234532
vt 0.16222 0.234506
vt 0.162226 0.234515
vt 0.162163 0.236756
vt 0.162174 0.236729
vt 0.162184 0.236735
vt 0.162226 0.236743
vt 0.162199 0.236732
vt 0.16221 0.236726
vt 0.162887 0.235981
vt 0.162869 0.234649
vt 0.162875 0.234649
vt 0.162888 0.23613
vt 0.162881 0.235981
vt 0.162887 0.235981
vt 0.162875 0.234649
vt 0.162868 0.234499
vt 0.162874 0.234499
vt 0.162868 0.236514
vt 0.162881 0.23621
vt 0.162887 0.236211
vt 0.162203 0.234753
vt 0.162698 0.236755
vt 0.162203 0.236507
vt 0.161684 0.236756
vt 0.162181 0.234753
vt 0.162181 0.23651
vt 0.162867 0.237053
vt 0.162864 0.237027
vt 0.16287 0.237027
vt 0.16287 0.237027
vt 0.162866 0.236998
vt 0.162872 0.236998
vt 0.162872 0.236972
vt 0.162866 0.236998
vt 0.162866 0.236972
vt 0.162887 0.236211
vt 0.162882 0.236186
vt 0.162888 0.236186
vt 0.162888 0.236157
vt 0.162882 0.236186
vt 0.162882 0.236157
vt 0.162888 0.23613
vt 0.162882 0.236157
vt 0.162882 0.23613
vt 0.162133 0.234509
vt 0.162157 0.234515
vt 0.162174 0.234532
vt 0.162226 0.234515
vt 0.16225 0.234509
vt 0.162203 0.234556
vt 0.161684 0.236756
vt 0.162181 0.23651
vt 0.162181 0.236705
vt 0.16221 0.236726
vt 0.162203 0.236702
vt 0.16225 0.23675
vt 0.161684 0.236756
vt 0.161673 0.234502
vt 0.161684 0.234512
vt 0.162995 0.236979
vt 0.162989 0.237004
vt 0.162989 0.236979
vt 0.162993 0.237034
vt 0.162989 0.237004
vt 0.162994 0.237005
vt 0.162993 0.237034
vt 0.162985 0.23706
vt 0.162987 0.237034
vt 0.162998 0.234651
vt 0.162992 0.2345
vt 0.162997 0.234501
vt 0.16301 0.235983
vt 0.162993 0.234651
vt 0.162998 0.234651
vt 0.163011 0.236132
vt 0.163005 0.235983
vt 0.16301 0.235983
vt 0.163011 0.236132
vt 0.163006 0.236158
vt 0.163006 0.236132
vt 0.163011 0.236158
vt 0.163005 0.236188
vt 0.163006 0.236158
vt 0.16301 0.236212
vt 0.163005 0.236188
vt 0.163011 0.236188
vt 0.16301 0.236212
vt 0.162992 0.236516
vt 0.163005 0.236212
vt 0.162709 0.234504
vt 0.162698 0.236755
vt 0.162698 0.234514
vt 0.163135 0.236251
vt 0.163011 0.234502
vt 0.16314 0.234499
vt 0.162992 0.236516
vt 0.162887 0.236211
vt 0.163005 0.236212
vt 0.163005 0.236212
vt 0.162888 0.236186
vt 0.163005 0.236188
vt 0.163006 0.236158
vt 0.162888 0.236186
vt 0.162888 0.236157
vt 0.163006 0.236132
vt 0.162888 0.236157
vt 0.162888 0.23613
vt 0.163006 0.236132
vt 0.162887 0.235981
vt 0.163005 0.235983
vt 0.163005 0.235983
vt 0.162875 0.234649
vt 0.162993 0.234651
vt 0.162992 0.2345
vt 0.162875 0.234649
vt 0.162874 0.234499
vt 0.162985 0.23706
vt 0.16287 0.237027
vt 0.162987 0.237034
vt 0.162987 0.237034
vt 0.162872 0.236998
vt 0.162989 0.237004
vt 0.162989 0.236979
vt 0.162872 0.236998
vt 0.162872 0.236972
vt 0.16299 0.236655
vt 0.162872 0.236972
vt 0.162862 0.236648
vt 0.162192 0.23651
vt 0.162192 0.236706
vt 0.162181 0.236705
vt 0.162192 0.23651
vt 0.162181 0.23651
vt 0.162181 0.234753
vt 0.162192 0.234754
vt 0.162181 0.234753
vt 0.162181 0.234556
vt 0.162192 0.236507
vt 0.162203 0.236507
vt 0.162203 0.236702
vt 0.162203 0.236507
vt 0.162192 0.236507
vt 0.162192 0.234753
vt 0.162192 0.234753
vt 0.162192 0.234555
vt 0.162203 0.234556
vt 0.162192 0.234555
vt 0.162181 0.234556
vt 0.162174 0.234532
vt 0.162192 0.234555
vt 0.162199 0.234527
vt 0.16221 0.234532
vt 0.162708 0.236767
vt 0.162248 0.236761
vt 0.16225 0.23675
vt 0.162248 0.236761
vt 0.16222 0.236753
vt 0.162226 0.236743
vt 0.161673 0.236767
vt 0.161684 0.236756
vt 0.162133 0.236753
vt 0.161673 0.234502
vt 0.162135 0.234499
vt 0.162133 0.234509
vt 0.162709 0.234504
vt 0.162698 0.234514
vt 0.16225 0.234509
vt 0.162135 0.234499
vt 0.162163 0.234506
vt 0.162157 0.234515
vt 0.162248 0.234499
vt 0.16225 0.234509
vt 0.162226 0.234515
vt 0.162135 0.236764
vt 0.162133 0.236753
vt 0.162157 0.236746
vt 0.162192 0.236706
vt 0.162184 0.236735
vt 0.162174 0.236729
vt 0.162192 0.236703
vt 0.162203 0.236702
vt 0.16221 0.236726
vt 0.162174 0.234532
vt 0.162157 0.234515
vt 0.162163 0.234506
vt 0.16221 0.234532
vt 0.162199 0.234527
vt 0.16222 0.234506
vt 0.162163 0.236756
vt 0.162157 0.236746
vt 0.162174 0.236729
vt 0.162226 0.236743
vt 0.16222 0.236753
vt 0.162199 0.236732
vt 0.162887 0.235981
vt 0.162881 0.235981
vt 0.162869 0.234649
vt 0.162888 0.23613
vt 0.162882 0.23613
vt 0.162881 0.235981
vt 0.162875 0.234649
vt 0.162869 0.234649
vt 0.162868 0.234499
vt 0.162203 0.234753
vt 0.162698 0.234514
vt 0.162698 0.236755
vt 0.162862 0.236648
vt 0.162872 0.236972
vt 0.162866 0.236972
vt 0.161684 0.236756
vt 0.161684 0.234512
vt 0.162181 0.234753
vt 0.162867 0.237053
vt 0.162862 0.237053
vt 0.162864 0.237027
vt 0.16287 0.237027
vt 0.162864 0.237027
vt 0.162866 0.236998
vt 0.162872 0.236972
vt 0.162872 0.236998
vt 0.162866 0.236998
vt 0.162887 0.236211
vt 0.162881 0.23621
vt 0.162882 0.236186
vt 0.162888 0.236157
vt 0.162888 0.236186
vt 0.162882 0.236186
vt 0.162888 0.23613
vt 0.162888 0.236157
vt 0.162882 0.236157
vt 0.162174 0.234532
vt 0.162181 0.234556
vt 0.162133 0.234509
vt 0.162181 0.234556
vt 0.162181 0.234753
vt 0.161684 0.234512
vt 0.161684 0.234512
vt 0.162133 0.234509
vt 0.162181 0.234556
vt 0.16225 0.234509
vt 0.162698 0.234514
vt 0.162203 0.234556
vt 0.162698 0.234514
vt 0.162203 0.234753
vt 0.162203 0.234556
vt 0.162203 0.234556
vt 0.16221 0.234532
vt 0.162226 0.234515
vt 0.162181 0.236705
vt 0.162174 0.236729
vt 0.162157 0.236746
vt 0.162157 0.236746
vt 0.162133 0.236753
vt 0.162181 0.236705
vt 0.162133 0.236753
vt 0.161684 0.236756
vt 0.162181 0.236705
vt 0.162203 0.236702
vt 0.162203 0.236507
vt 0.162698 0.236755
vt 0.162698 0.236755
vt 0.16225 0.23675
vt 0.162203 0.236702
vt 0.16225 0.23675
vt 0.162226 0.236743
vt 0.16221 0.236726
vt 0.161684 0.236756
vt 0.161673 0.236767
vt 0.161673 0.234502
vt 0.162995 0.236979
vt 0.162989 0.236979
vt 0.16299 0.236655
vt 0.162995 0.236979
vt 0.162994 0.237005
vt 0.162989 0.237004
vt 0.162993 0.237034
vt 0.162987 0.237034
vt 0.162989 0.237004
vt 0.162993 0.237034
vt 0.16299 0.23706
vt 0.162985 0.23706
vt 0.162998 0.234651
vt 0.162993 0.234651
vt 0.162992 0.2345
vt 0.16301 0.235983
vt 0.163005 0.235983
vt 0.162993 0.234651
vt 0.163011 0.236132
vt 0.163006 0.236132
vt 0.163005 0.235983
vt 0.163011 0.236132
vt 0.163011 0.236158
vt 0.163006 0.236158
vt 0.163011 0.236158
vt 0.163011 0.236188
vt 0.163005 0.236188
vt 0.16301 0.236212
vt 0.163005 0.236212
vt 0.163005 0.236188
vt 0.162709 0.234504
vt 0.162708 0.236767
vt 0.162698 0.236755
vt 0.163135 0.236251
vt 0.163011 0.236254
vt 0.163011 0.234502
vt 0.162992 0.236516
vt 0.162868 0.236514
vt 0.162887 0.236211
vt 0.163005 0.236212
vt 0.162887 0.236211
vt 0.162888 0.236186
vt 0.163006 0.236158
vt 0.163005 0.236188
vt 0.162888 0.236186
vt 0.163006 0.236132
vt 0.163006 0.236158
vt 0.162888 0.236157
vt 0.163006 0.236132
vt 0.162888 0.23613
vt 0.162887 0.235981
vt 0.163005 0.235983
vt 0.162887 0.235981
vt 0.162875 0.234649
vt 0.162992 0.2345
vt 0.162993 0.234651
vt 0.162875 0.234649
vt 0.162985 0.23706
vt 0.162867 0.237053
vt 0.16287 0.237027
vt 0.162987 0.237034
vt 0.16287 0.237027
vt 0.162872 0.236998
vt 0.162989 0.236979
vt 0.162989 0.237004
vt 0.162872 0.236998
vt 0.16299 0.236655
vt 0.162989 0.236979
vt 0.162872 0.236972
vt 0.805413 0.773
vt 0.785228 0.773
vt 0.785228 0.752372
vt 0.414035 0.387073
vt 0.414734 0.386164
vt 0.415931 0.385746
vt 0.372066 0.13237
vt 0.372066 0.466409
vt 0.368569 0.461855
vt 0.372066 0.466409
vt 0.370177 0.46575
vt 0.368569 0.461855
vt 0.414734 0.596955
vt 0.414035 0.596045
vt 0.413715 0.594487
vt 0.368569 0.461855
vt 0.368569 0.136923
vt 0.372066 0.13237
vt 0.372066 0.13237
vt 0.773765 0.13237
vt 0.435301 0.163395
vt 0.435301 0.437443
vt 0.773765 0.466409
vt 0.372066 0.466409
vt 0.372066 0.13237
vt 0.435301 0.163395
vt 0.372066 0.466409
f 3/1 5/2 4/3
f 2/4 7/5 1/6
f 9/7 3/8 4/9
f 1/10 7/11 5/12
f 10/13 6/14 2/15
f 11/16 2/17 8/18
f 8/19 9/20 12/21
f 15/22 4/23 13/24
f 14/25 7/26 16/27
f 18/28 10/29 17/30
f 12/31 11/32 8/33
f 17/34 11/35 19/36
f 15/37 12/38 9/39
f 15/40 13/41 21/42
f 14/43 16/44 22/45
f 18/46 17/47 23/48
f 19/49 12/50 20/51
f 24/52 17/53 19/54
f 20/55 21/56 24/57
f 13/58 22/59 21/60
f 23/61 16/62 18/63
f 19/64 20/65 24/66
f 23/67 29/68 25/69
f 22/70 31/71 21/72
f 22/73 33/74 27/75
f 23/76 25/77 28/78
f 22/79 30/80 26/81
f 22/82 27/83 32/84
f 23/85 28/86 34/87
f 28/88 35/89 44/90
f 29/91 35/92 25/93
f 22/94 32/95 30/96
f 37/97 30/98 38/99
f 173/100 176/101 26/102
f 40/103 32/104 27/105
f 27/106 42/107 40/108
f 23/109 34/110 33/111
f 34/112 44/113 43/114
f 29/115 45/116 36/117
f 150/118 47/119 46/120
f 41/121 30/122 32/123
f 49/124 162/125 48/126
f 177/127 50/128 160/129
f 51/130 31/131 39/132
f 53/133 164/134 52/135
f 52/136 164/137 171/138
f 42/139 34/140 43/141
f 46/142 167/143 150/144
f 51/145 29/146 31/147
f 56/148 45/149 55/150
f 47/151 58/152 46/153
f 151/154 60/155 47/156
f 48/157 163/158 53/159
f 49/160 62/161 61/162
f 175/163 49/164 61/165
f 183/166 65/167 159/168
f 51/169 66/170 86/171
f 52/172 68/173 53/174
f 69/175 166/176 70/177
f 70/178 167/179 54/180
f 71/181 46/182 58/183
f 51/184 73/185 45/186
f 55/187 89/188 74/189
f 75/190 55/191 74/192
f 59/193 56/194 76/195
f 77/196 47/197 60/198
f 147/199 149/200 146/201
f 153/202 60/203 152/204
f 68/205 48/206 53/207
f 181/208 82/209 184/210
f 65/211 158/212 159/213
f 66/214 179/215 182/216
f 52/217 78/218 67/219
f 69/220 79/221 78/222
f 54/223 79/224 70/225
f 72/226 51/227 86/228
f 73/229 88/230 87/231
f 74/232 90/233 75/234
f 76/235 75/236 91/237
f 92/238 59/239 76/240
f 82/241 63/242 96/243
f 60/244 93/245 77/246
f 154/247 81/248 153/249
f 65/250 98/251 83/252
f 101/253 158/254 83/255
f 84/256 85/257 64/258
f 66/259 105/260 104/261
f 66/262 121/263 86/264
f 106/265 86/266 121/267
f 107/268 88/269 123/270
f 89/271 87/272 108/273
f 88/274 106/275 109/276
f 90/277 89/278 108/279
f 75/280 110/281 91/282
f 111/283 76/284 91/285
f 112/286 80/287 92/288
f 81/289 94/290 93/291
f 113/292 94/293 100/294
f 114/295 95/296 113/297
f 114/298 97/299 96/300
f 98/301 101/302 83/303
f 155/304 100/305 154/306
f 114/307 157/308 101/309
f 102/310 103/311 84/312
f 85/313 118/314 105/315
f 104/316 120/317 119/318
f 87/319 122/320 108/321
f 88/322 135/323 123/324
f 119/325 106/326 121/327
f 91/328 126/329 111/330
f 127/331 92/332 111/333
f 128/334 99/335 112/336
f 114/337 155/338 156/339
f 116/340 117/341 102/342
f 117/343 118/344 103/345
f 105/346 132/347 120/348
f 121/349 104/350 119/351
f 136/352 107/353 137/354
f 107/355 138/356 137/357
f 136/358 124/359 122/360
f 139/361 125/362 124/363
f 111/364 125/365 127/366
f 139/367 112/368 127/369
f 128/370 137/371 115/372
f 137/373 129/374 115/375
f 138/376 116/377 129/378
f 138/379 130/380 116/381
f 130/382 131/383 117/384
f 118/385 133/386 132/387
f 140/388 133/389 131/390
f 141/391 134/392 140/393
f 141/394 123/395 135/396
f 136/397 128/398 139/399
f 130/400 141/401 140/402
f 63/403 142/404 57/405
f 63/406 144/407 143/408
f 78/409 79/410 58/411
f 145/412 144/413 61/414
f 143/415 146/416 142/417
f 144/418 147/419 143/420
f 145/421 148/422 144/423
f 145/424 146/425 149/426
f 55/427 45/428 73/429
f 135/430 133/431 134/432
f 110/433 125/434 126/435
f 125/436 122/437 124/438
f 108/439 110/440 90/441
f 109/442 120/443 135/444
f 120/445 133/446 135/447
f 151/448 35/449 36/450
f 152/451 36/452 59/453
f 80/454 152/455 59/456
f 99/457 153/458 80/459
f 115/460 154/461 99/462
f 155/463 115/464 129/465
f 156/466 102/467 157/468
f 157/469 84/470 158/471
f 158/472 64/473 159/474
f 182/475 159/476 64/477
f 176/478 160/479 39/480
f 161/481 38/482 162/483
f 163/484 38/485 41/486
f 41/487 40/488 170/489
f 165/490 43/491 166/492
f 166/493 44/494 167/495
f 167/496 35/497 150/498
f 169/499 40/500 42/501
f 172/502 168/503 171/504
f 172/505 164/506 170/507
f 40/508 172/509 170/510
f 37/511 174/512 173/513
f 174/514 49/515 175/516
f 185/517 187/518 188/519
f 187/520 190/521 189/522
f 180/523 39/524 160/525
f 181/526 160/527 50/528
f 192/529 193/530 194/531
f 195/532 194/533 196/534
f 174/535 185/536 173/537
f 177/538 188/539 187/540
f 173/541 188/542 176/543
f 177/544 189/545 178/546
f 174/547 190/548 186/549
f 175/550 189/551 190/552
f 183/553 191/554 192/555
f 179/556 191/557 182/558
f 180/559 193/560 179/561
f 183/562 195/563 184/564
f 180/565 196/566 194/567
f 184/568 196/569 181/570
f 165/571 169/572 42/573
f 69/574 168/575 165/576
f 52/577 168/578 69/579
f 1/580 197/581 199/582
f 1/583 199/584 200/585
f 3/586 201/587 198/588
f 2/589 203/590 202/591
f 1/592 200/593 205/594
f 3/595 206/596 201/597
f 2/598 202/599 207/600
f 1/601 205/602 204/603
f 3/604 208/605 206/606
f 2/607 207/608 209/609
f 3/610 210/611 208/612
f 2/613 209/614 211/615
f 8/616 212/617 214/618
f 8/619 215/620 213/621
f 8/622 214/623 216/624
f 8/625 216/626 215/627
f 5/628 13/629 4/630
f 21/631 29/632 24/633
f 3/634 1/635 5/636
f 2/637 6/638 7/639
f 11/640 10/641 2/642
f 8/643 3/644 9/645
f 15/646 9/647 4/648
f 14/649 5/650 7/651
f 18/652 6/653 10/654
f 17/655 10/656 11/657
f 15/658 20/659 12/660
f 19/661 11/662 12/663
f 24/664 23/665 17/666
f 20/667 15/668 21/669
f 13/670 14/671 22/672
f 23/673 22/674 16/675
f 23/676 24/677 29/678
f 22/679 26/680 31/681
f 22/682 23/683 33/684
f 28/685 25/686 35/687
f 29/688 36/689 35/690
f 37/691 26/692 30/693
f 176/694 39/695 31/696
f 31/697 26/698 176/699
f 26/700 37/701 173/702
f 40/703 41/704 32/705
f 27/706 33/707 42/708
f 34/709 28/710 44/711
f 150/712 151/713 47/714
f 41/715 38/716 30/717
f 49/718 161/719 162/720
f 177/721 178/722 50/723
f 53/724 163/725 164/726
f 42/727 33/728 34/729
f 46/730 54/731 167/732
f 51/733 45/734 29/735
f 56/736 36/737 45/738
f 47/739 57/740 58/741
f 151/742 152/743 60/744
f 48/745 162/746 163/747
f 49/748 48/749 62/750
f 61/751 63/752 178/753
f 63/754 50/755 178/756
f 178/757 175/758 61/759
f 183/760 184/761 65/762
f 51/763 39/764 66/765
f 52/766 67/767 68/768
f 69/769 165/770 166/771
f 70/772 166/773 167/774
f 71/775 54/776 46/777
f 51/778 72/779 73/780
f 55/781 73/782 89/783
f 75/784 56/785 55/786
f 59/787 36/788 56/789
f 77/790 57/791 47/792
f 147/793 148/794 149/795
f 153/796 81/797 60/798
f 68/799 62/800 48/801
f 181/802 50/803 63/804
f 63/805 82/806 181/807
f 82/808 65/809 184/810
f 65/811 83/812 158/813
f 64/814 85/815 182/816
f 85/817 66/818 182/819
f 66/820 39/821 179/822
f 52/823 69/824 78/825
f 69/826 70/827 79/828
f 54/829 71/830 79/831
f 73/832 72/833 88/834
f 76/835 56/836 75/837
f 92/838 80/839 59/840
f 63/841 57/842 95/843
f 57/844 77/845 95/846
f 95/847 77/848 94/849
f 77/850 93/851 94/852
f 95/853 96/854 63/855
f 96/856 97/857 98/858
f 98/859 82/860 96/861
f 60/862 81/863 93/864
f 154/865 100/866 81/867
f 65/868 82/869 98/870
f 101/871 157/872 158/873
f 84/874 103/875 85/876
f 66/877 85/878 105/879
f 66/880 104/881 121/882
f 106/883 72/884 86/885
f 107/886 87/887 88/888
f 89/889 73/890 87/891
f 88/892 72/893 106/894
f 90/895 74/896 89/897
f 75/898 90/899 110/900
f 111/901 92/902 76/903
f 112/904 99/905 80/906
f 81/907 100/908 94/909
f 113/910 95/911 94/912
f 114/913 96/914 95/915
f 114/916 101/917 97/918
f 98/919 97/920 101/921
f 155/922 113/923 100/924
f 114/925 156/926 157/927
f 102/928 117/929 103/930
f 85/931 103/932 118/933
f 104/934 105/935 120/936
f 87/937 107/938 122/939
f 88/940 109/941 135/942
f 119/943 109/944 106/945
f 91/946 110/947 126/948
f 127/949 112/950 92/951
f 128/952 115/953 99/954
f 114/955 113/956 155/957
f 116/958 130/959 117/960
f 117/961 131/962 118/963
f 105/964 118/965 132/966
f 136/967 122/968 107/969
f 107/970 123/971 138/972
f 136/973 139/974 124/975
f 139/976 127/977 125/978
f 111/979 126/980 125/981
f 139/982 128/983 112/984
f 137/985 138/986 129/987
f 130/988 140/989 131/990
f 118/991 131/992 133/993
f 140/994 134/995 133/996
f 141/997 135/998 134/999
f 141/1000 138/1001 123/1002
f 136/1003 137/1004 128/1005
f 130/1006 138/1007 141/1008
f 63/1009 143/1010 142/1011
f 57/1012 142/1013 145/1014
f 143/1015 147/1016 146/1017
f 144/1018 148/1019 147/1020
f 145/1021 149/1022 148/1023
f 145/1024 142/1025 146/1026
f 110/1027 122/1028 125/1029
f 108/1030 122/1031 110/1032
f 109/1033 119/1034 120/1035
f 120/1036 132/1037 133/1038
f 151/1039 150/1040 35/1041
f 152/1042 151/1043 36/1044
f 80/1045 153/1046 152/1047
f 99/1048 154/1049 153/1050
f 115/1051 155/1052 154/1053
f 116/1054 156/1055 129/1056
f 156/1057 155/1058 129/1059
f 156/1060 116/1061 102/1062
f 157/1063 102/1064 84/1065
f 158/1066 84/1067 64/1068
f 182/1069 183/1070 159/1071
f 176/1072 177/1073 160/1074
f 161/1075 37/1076 38/1077
f 163/1078 162/1079 38/1080
f 170/1081 164/1082 163/1083
f 163/1084 41/1085 170/1086
f 165/1087 42/1088 43/1089
f 166/1090 43/1091 44/1092
f 167/1093 44/1094 35/1095
f 169/1096 172/1097 40/1098
f 172/1099 169/1100 168/1101
f 172/1102 171/1103 164/1104
f 37/1105 161/1106 174/1107
f 174/1108 161/1109 49/1110
f 185/1111 186/1112 187/1113
f 187/1114 186/1115 190/1116
f 180/1117 179/1118 39/1119
f 181/1120 180/1121 160/1122
f 192/1123 191/1124 193/1125
f 195/1126 192/1127 194/1128
f 174/1129 186/1130 185/1131
f 177/1132 176/1133 188/1134
f 173/1135 185/1136 188/1137
f 177/1138 187/1139 189/1140
f 174/1141 175/1142 190/1143
f 175/1144 178/1145 189/1146
f 183/1147 182/1148 191/1149
f 179/1150 193/1151 191/1152
f 180/1153 194/1154 193/1155
f 183/1156 192/1157 195/1158
f 180/1159 181/1160 196/1161
f 184/1162 195/1163 196/1164
f 165/1165 168/1166 169/1167
f 52/1168 171/1169 168/1170
f 3/1171 198/1172 197/1173
f 3/1174 197/1175 1/1176
f 1/1177 204/1178 203/1179
f 1/1180 203/1181 2/1182
f 8/1183 2/1184 212/1185
f 212/1186 2/1187 211/1188
f 213/1189 210/1190 3/1191
f 8/1192 213/1193 3/1194
f 213/1195 216/1196 212/1197
f 200/1198 199/1199 197/1200
f 204/1201 205/1202 200/1203
f 203/1204 204/1205 211/1206
f 207/1207 202/1208 203/1209
f 209/1210 207/1211 203/1212
f 197/1213 211/1214 204/1215
f 211/1216 209/1217 203/1218
f 212/1219 211/1220 198/1221
f 216/1222 214/1223 212/1224
f 213/1225 215/1226 216/1227
f 210/1228 213/1229 198/1230
f 206/1231 208/1232 210/1233
f 201/1234 206/1235 210/1236
f 212/1237 198/1238 213/1239
f 198/1240 201/1241 210/1242
f 197/1243 198/1244 211/1245
f 204/1246 200/1247 197/1248
f 5/1249 14/1250 13/1251
f 21/1252 31/1253 29/1254
f 7/1255 18/1256 16/1257
f 218/1258 244/1259 217/1260
f 218/1261 220/1262 219/1263
f 219/1264 226/1265 225/1266
f 221/1267 247/1268 246/1269
f 222/1270 223/1271 224/1272
f 223/1273 227/1274 224/1275
f 225/1276 249/1277 248/1278
f 228/1279 250/1280 227/1281
f 274/1282 230/1283 229/1284
f 231/1285 258/1286 230/1287
f 232/1288 243/1289 242/1290
f 235/1291 238/1292 234/1293
f 236/1294 241/1295 240/1296
f 239/1297 253/1298 238/1299
f 240/1300 254/1301 255/1302
f 242/1303 257/1304 256/1305
f 245/1306 261/1307 244/1308
f 246/1309 262/1310 263/1311
f 249/1312 252/1313 248/1314
f 250/1315 255/1316 254/1317
f 256/1318 261/1319 260/1320
f 258/1321 263/1322 262/1323
f 269/1324 219/1325 268/1326
f 270/1327 218/1328 269/1329
f 268/1330 225/1331 267/1332
f 232/1333 242/1334 273/1335
f 224/1336 229/1337 222/1338
f 233/1339 220/1340 217/1341
f 267/1342 248/1343 266/1344
f 266/1345 252/1346 265/1347
f 264/1348 252/1349 239/1350
f 273/1351 256/1352 272/1353
f 271/1354 256/1355 260/1356
f 270/1357 260/1358 245/1359
f 238/1360 253/1361 249/1362
f 254/1363 241/1364 227/1365
f 233/1366 217/1367 244/1368
f 262/1369 247/1370 230/1371
f 233/1372 235/1373 234/1374
f 240/1375 283/1376 284/1377
f 251/1378 283/1379 255/1380
f 251/1381 281/1382 282/1383
f 223/1384 281/1385 228/1386
f 221/1387 280/1388 223/1389
f 246/1390 279/1391 221/1392
f 246/1393 277/1394 278/1395
f 263/1396 276/1397 277/1398
f 231/1399 276/1400 259/1401
f 231/1402 274/1403 275/1404
f 236/1405 229/1406 237/1407
f 232/1408 236/1409 235/1410
f 274/1411 273/1412 275/1413
f 275/1414 272/1415 276/1416
f 277/1417 272/1418 271/1419
f 278/1420 271/1421 270/1422
f 278/1423 269/1424 279/1425
f 279/1426 268/1427 280/1428
f 281/1429 268/1430 267/1431
f 281/1432 266/1433 282/1434
f 282/1435 265/1436 283/1437
f 284/1438 265/1439 264/1440
f 236/1441 264/1442 235/1443
f 218/1444 245/1445 244/1446
f 218/1447 217/1448 220/1449
f 219/1450 220/1451 226/1452
f 221/1453 222/1454 247/1455
f 222/1456 221/1457 223/1458
f 223/1459 228/1460 227/1461
f 225/1462 226/1463 249/1464
f 228/1465 251/1466 250/1467
f 274/1468 231/1469 230/1470
f 231/1471 259/1472 258/1473
f 232/1474 233/1475 243/1476
f 235/1477 239/1478 238/1479
f 236/1480 237/1481 241/1482
f 239/1483 252/1484 253/1485
f 240/1486 241/1487 254/1488
f 242/1489 243/1490 257/1491
f 245/1492 260/1493 261/1494
f 246/1495 247/1496 262/1497
f 249/1498 253/1499 252/1500
f 250/1501 251/1502 255/1503
f 256/1504 257/1505 261/1506
f 258/1507 259/1508 263/1509
f 269/1510 218/1511 219/1512
f 270/1513 245/1514 218/1515
f 268/1516 219/1517 225/1518
f 224/1519 237/1520 229/1521
f 235/1522 264/1523 239/1524
f 233/1525 234/1526 220/1527
f 267/1528 225/1529 248/1530
f 266/1531 248/1532 252/1533
f 264/1534 265/1535 252/1536
f 273/1537 242/1538 256/1539
f 271/1540 272/1541 256/1542
f 270/1543 271/1544 260/1545
f 249/1546 226/1547 238/1548
f 226/1549 220/1550 234/1551
f 234/1552 238/1553 226/1554
f 241/1555 237/1556 227/1557
f 237/1558 224/1559 227/1560
f 227/1561 250/1562 254/1563
f 244/1564 261/1565 257/1566
f 257/1567 243/1568 244/1569
f 243/1570 233/1571 244/1572
f 247/1573 222/1574 229/1575
f 229/1576 230/1577 247/1578
f 230/1579 258/1580 262/1581
f 233/1582 232/1583 235/1584
f 240/1585 284/1586 236/1587
f 240/1588 255/1589 283/1590
f 251/1591 282/1592 283/1593
f 251/1594 228/1595 281/1596
f 223/1597 280/1598 281/1599
f 221/1600 279/1601 280/1602
f 246/1603 278/1604 279/1605
f 246/1606 263/1607 277/1608
f 263/1609 259/1610 276/1611
f 231/1612 275/1613 276/1614
f 236/1615 274/1616 229/1617
f 232/1618 274/1619 236/1620
f 274/1621 232/1622 273/1623
f 275/1624 273/1625 272/1626
f 277/1627 276/1628 272/1629
f 278/1630 277/1631 271/1632
f 278/1633 270/1634 269/1635
f 279/1636 269/1637 268/1638
f 281/1639 280/1640 268/1641
f 281/1642 267/1643 266/1644
f 282/1645 266/1646 265/1647
f 284/1648 283/1649 265/1650
f 236/1651 284/1652 264/1653
f 7/1654 6/1655 18/1656
f 79/1657 71/1658 58/1659
f 58/1660 61/1661 67/1662
f 61/1663 62/1664 67/1665
f 62/1666 68/1667 67/1668
f 67/1669 78/1670 58/1671
f 58/1672 57/1673 145/1674
f 144/1675 63/1676 61/1677
f 58/1678 145/1679 61/1680
