o Microwave011_door
v -0.198311 -0.191557 -0.1199595
v -0.198311 -0.191557 0.1271215
v -0.198338 -0.210195 0.1271215
v -0.198338 -0.210195 -0.1199595
v 0.186896 -0.19171 -0.1199595
v 0.186873 -0.210348 0.1512115
v 0.188299 -0.209659 0.1512115
v 0.186874 -0.209659 0.1526375
v 0.188299 -0.209659 0.1273745
v 0.186873 -0.210348 0.1271215
v 0.188324 -0.1924 0.1512115
v 0.1869 -0.19171 0.1512115
v 0.186874 -0.209659 -0.1426435
v 0.188299 -0.209659 -0.1412175
v 0.186873 -0.210348 -0.1412175
v 0.188324 -0.1924 -0.1412175
v 0.1869 -0.19171 -0.1412175
v 0.188324 -0.1924 -0.1199595
v -0.212159 -0.210191 -0.1199595
v -0.213584 -0.2095 -0.1199595
v -0.213584 -0.2095 0.1271215
v -0.212159 -0.210191 0.1271215
v 0.188299 -0.209659 -0.1202135
v 0.186873 -0.210348 -0.1199595
v -0.212133 -0.191552 -0.1199595
v -0.212132 -0.191552 0.1271215
v -0.213584 -0.2095 0.1450145
v -0.212159 -0.210191 0.1448265
v -0.212132 -0.191552 0.1448265
v -0.213559 -0.192241 0.1450145
v -0.198311 -0.191557 -0.1412175
v -0.205748 -0.191554 -0.1412175
v -0.198337 -0.209505 -0.1426435
v -0.198338 -0.210195 -0.1412175
v -0.198338 -0.210195 0.1512115
v -0.198337 -0.209505 0.1526375
v -0.198311 -0.191556 0.1512115
v -0.205775 -0.210193 0.1512115
v -0.205961 -0.209503 0.1526375
v -0.205748 -0.191554 0.1512115
v -0.205961 -0.209503 -0.1426435
v -0.205775 -0.210193 -0.1412175
v -0.212159 -0.210191 -0.1348325
v -0.213584 -0.2095 -0.1350205
v -0.212133 -0.191552 -0.1348325
v -0.211286 -0.210191 0.1480875
v -0.211259 -0.191552 0.1480875
v -0.209773 -0.209501 0.1516155
v -0.209036 -0.210192 0.1503375
v -0.209009 -0.191553 0.1503375
v -0.209036 -0.210192 -0.1403435
v -0.209009 -0.191553 -0.1403435
v -0.212563 -0.209501 -0.1388325
v -0.211286 -0.210191 -0.1380945
v -0.211259 -0.191552 -0.1380945
v -0.212562 -0.208732 0.1488255
v -0.209772 -0.208733 -0.1416225
v -0.19707 -0.209012 -0.1188125
v -0.19707 -0.209012 0.1259735
v 0.188323 -0.193131 0.1259845
v 0.186895 -0.192499 0.1259735
v -0.197045 -0.191992 0.1259735
v -0.197045 -0.191992 -0.1188125
v 0.186898 -0.19313 -0.1426435
v -0.198313 -0.192977 -0.1426435
v -0.205937 -0.192975 -0.1426435
v -0.209749 -0.192973 -0.1416225
v -0.212539 -0.192972 -0.1388325
v -0.21356 -0.192972 -0.1350205
v -0.21356 -0.192972 -0.1199595
v -0.21356 -0.192972 0.1271215
v -0.212539 -0.192972 0.1488255
v -0.209749 -0.192973 0.1516155
v -0.205937 -0.192974 0.1526375
v -0.198313 -0.192977 0.1526375
v 0.186898 -0.19313 0.1526375
v 0.151062 -0.246566 0.1166215
v 0.150252 -0.246401 0.1166195
v 0.149659 -0.245948 0.1166135
v 0.149442 -0.245329 0.1166045
v 0.149442 -0.243984 0.1228305
v 0.149659 -0.244569 0.1230705
v 0.150252 -0.244997 0.1232465
v 0.151062 -0.245153 0.1233105
v 0.176196 -0.245329 0.1166045
v 0.175979 -0.245948 0.1166135
v 0.175386 -0.246401 0.1166195
v 0.174576 -0.246566 0.1166215
v 0.174576 -0.245153 0.1233105
v 0.175386 -0.244997 0.1232465
v 0.175979 -0.244569 0.1230705
v 0.176196 -0.243984 0.1228305
v 0.174576 -0.236042 0.1167705
v 0.175386 -0.236208 0.1167745
v 0.175979 -0.236661 0.1167845
v 0.176196 -0.23728 0.1167995
v 0.176196 -0.235731 0.1221725
v 0.175979 -0.235184 0.1218425
v 0.175386 -0.234784 0.1216015
v 0.174576 -0.234638 0.1215135
v 0.149442 -0.23728 0.1167995
v 0.149659 -0.236661 0.1167845
v 0.150252 -0.236208 0.1167745
v 0.151062 -0.236042 0.1167705
v 0.151062 -0.234638 0.1215135
v 0.150252 -0.234784 0.1216015
v 0.149659 -0.235184 0.1218425
v 0.149442 -0.235731 0.1221725
v 0.149442 -0.240004 0.1297765
v 0.149659 -0.240481 0.1302035
v 0.150252 -0.240831 0.1305155
v 0.151062 -0.240959 0.1306305
v 0.174576 -0.240959 0.1306305
v 0.175386 -0.240831 0.1305155
v 0.175979 -0.240481 0.1302035
v 0.176196 -0.240004 0.1297765
v 0.176196 -0.232748 0.1258155
v 0.175979 -0.232336 0.1253205
v 0.175386 -0.232035 0.1249585
v 0.174576 -0.231925 0.1248255
v 0.151062 -0.231925 0.1248255
v 0.150252 -0.232035 0.1249585
v 0.149659 -0.232336 0.1253205
v 0.149442 -0.232748 0.1258155
v 0.149442 -0.234855 0.1344325
v 0.149659 -0.235118 0.1350275
v 0.150252 -0.235311 0.1354635
v 0.151062 -0.235381 0.1356225
v 0.174576 -0.235381 0.1356225
v 0.175386 -0.235311 0.1354635
v 0.175979 -0.235118 0.1350275
v 0.176196 -0.234855 0.1344325
v 0.176196 -0.229188 0.1280615
v 0.175979 -0.228998 0.1274375
v 0.175386 -0.228858 0.1269805
v 0.174576 -0.228807 0.1268125
v 0.151062 -0.228807 0.1268125
v 0.150252 -0.228858 0.1269805
v 0.149659 -0.228998 0.1274375
v 0.149442 -0.229188 0.1280615
v 0.149442 -0.226828 0.1374275
v 0.149659 -0.226958 0.1380805
v 0.150252 -0.227053 0.1385575
v 0.151062 -0.227087 0.1387325
v 0.174576 -0.227087 0.1387325
v 0.175386 -0.227053 0.1385575
v 0.175979 -0.226958 0.1380805
v 0.176196 -0.226828 0.1374275
v 0.176196 -0.22477 0.1292015
v 0.175979 -0.224674 0.1285515
v 0.175386 -0.224604 0.1280755
v 0.174576 -0.224579 0.1279015
v 0.151062 -0.224579 0.1279015
v 0.150252 -0.224604 0.1280755
v 0.149659 -0.224674 0.1285515
v 0.149442 -0.22477 0.1292015
v 0.150252 -0.209415 0.1370055
v 0.149659 -0.209868 0.1370135
v 0.149442 -0.210487 0.1370255
v 0.149659 -0.210487 0.1376755
v 0.150252 -0.210487 0.1381515
v 0.151062 -0.210486 0.1383255
v 0.151062 -0.209866 0.1381405
v 0.151062 -0.209414 0.1376575
v 0.151062 -0.209249 0.1370025
v 0.175979 -0.209868 0.1370135
v 0.175386 -0.209415 0.1370055
v 0.174576 -0.209249 0.1370025
v 0.17458 -0.209413 0.1376575
v 0.174585 -0.209861 0.1381405
v 0.17459 -0.210476 0.1383255
v 0.175392 -0.210479 0.1381515
v 0.17598 -0.210483 0.1376755
v 0.176196 -0.210487 0.1370255
v 0.174576 -0.209868 0.1280755
v 0.174576 -0.209415 0.1285515
v 0.174576 -0.209249 0.1292015
v 0.175386 -0.209415 0.1292015
v 0.175979 -0.209868 0.1292015
v 0.176196 -0.210487 0.1292015
v 0.175979 -0.210487 0.1285515
v 0.175386 -0.210487 0.1280755
v 0.174576 -0.210487 0.1279015
v 0.149659 -0.209868 0.1292015
v 0.150252 -0.209415 0.1292015
v 0.151062 -0.209249 0.1292015
v 0.151062 -0.209415 0.1285515
v 0.151062 -0.209868 0.1280755
v 0.151062 -0.210487 0.1279015
v 0.150252 -0.210487 0.1280755
v 0.149659 -0.210487 0.1285515
v 0.149442 -0.210487 0.1292015
v 0.174576 -0.236042 -0.1112565
v 0.175386 -0.236208 -0.1112675
v 0.175979 -0.236661 -0.1112975
v 0.176196 -0.23728 -0.1113385
v 0.151062 -0.236042 -0.1112565
v 0.150252 -0.236208 -0.1112675
v 0.149659 -0.236661 -0.1112975
v 0.149442 -0.23728 -0.1113385
v 0.174576 -0.246567 -0.1108265
v 0.175386 -0.246401 -0.1108195
v 0.175979 -0.245948 -0.1108015
v 0.176196 -0.245329 -0.1107765
v 0.176196 -0.243984 -0.1171865
v 0.175979 -0.244569 -0.1174265
v 0.175386 -0.244997 -0.1176015
v 0.174576 -0.245154 -0.1176665
v 0.149442 -0.245329 -0.1107765
v 0.149659 -0.245948 -0.1108015
v 0.150252 -0.246401 -0.1108195
v 0.151062 -0.246567 -0.1108265
v 0.151062 -0.245154 -0.1176665
v 0.150252 -0.244997 -0.1176015
v 0.149659 -0.244569 -0.1174265
v 0.149442 -0.243984 -0.1171865
v 0.174576 -0.234638 -0.1158685
v 0.175386 -0.234784 -0.1159575
v 0.175979 -0.235184 -0.1161985
v 0.176196 -0.235731 -0.1165275
v 0.149442 -0.235731 -0.1165275
v 0.149659 -0.235184 -0.1161985
v 0.150252 -0.234784 -0.1159575
v 0.151062 -0.234638 -0.1158685
v 0.176196 -0.240004 -0.1241325
v 0.175979 -0.240481 -0.1245595
v 0.175386 -0.240831 -0.1248715
v 0.174576 -0.240959 -0.1249855
v 0.151062 -0.240959 -0.1249855
v 0.150252 -0.240831 -0.1248715
v 0.149659 -0.240481 -0.1245595
v 0.149442 -0.240004 -0.1241325
v 0.174576 -0.231925 -0.1191815
v 0.175386 -0.232035 -0.1193135
v 0.175979 -0.232337 -0.1196765
v 0.176196 -0.232748 -0.1201705
v 0.149442 -0.232748 -0.1201705
v 0.149659 -0.232337 -0.1196765
v 0.150252 -0.232035 -0.1193135
v 0.151062 -0.231925 -0.1191815
v 0.176196 -0.234745 -0.1288885
v 0.175979 -0.234988 -0.1294935
v 0.175386 -0.235166 -0.1299355
v 0.174576 -0.235231 -0.1300975
v 0.151062 -0.235231 -0.1300975
v 0.150252 -0.235166 -0.1299355
v 0.149659 -0.234988 -0.1294935
v 0.149442 -0.234745 -0.1288885
v 0.174576 -0.228958 -0.1210485
v 0.175386 -0.229003 -0.1212175
v 0.175979 -0.229127 -0.1216805
v 0.176196 -0.229297 -0.1223115
v 0.149442 -0.229297 -0.1223115
v 0.149659 -0.229127 -0.1216805
v 0.150252 -0.229003 -0.1212175
v 0.151062 -0.228958 -0.1210485
v 0.176196 -0.226828 -0.1317585
v 0.175979 -0.226958 -0.1324115
v 0.175386 -0.227053 -0.1328885
v 0.174576 -0.227088 -0.1330635
v 0.151062 -0.227088 -0.1330635
v 0.150252 -0.227053 -0.1328885
v 0.149659 -0.226958 -0.1324115
v 0.149442 -0.226828 -0.1317585
v 0.174576 -0.224579 -0.1222325
v 0.175386 -0.224604 -0.1224065
v 0.175979 -0.224674 -0.1228825
v 0.176196 -0.22477 -0.1235325
v 0.149442 -0.22477 -0.1235325
v 0.149659 -0.224674 -0.1228825
v 0.150252 -0.224604 -0.1224065
v 0.151062 -0.224579 -0.1222325
v 0.175386 -0.209415 -0.1313365
v 0.175979 -0.209868 -0.1313445
v 0.176196 -0.210487 -0.1313565
v 0.175979 -0.210487 -0.1320065
v 0.175386 -0.210487 -0.1324825
v 0.174576 -0.210487 -0.1326565
v 0.174576 -0.209866 -0.1324715
v 0.174576 -0.209414 -0.1319885
v 0.174576 -0.209249 -0.1313335
v 0.149659 -0.209868 -0.1313445
v 0.150252 -0.209415 -0.1313365
v 0.151062 -0.209249 -0.1313335
v 0.151057 -0.209413 -0.1319885
v 0.151052 -0.209861 -0.1324715
v 0.151048 -0.210476 -0.1326565
v 0.150245 -0.210479 -0.1324825
v 0.149657 -0.210483 -0.1320065
v 0.149442 -0.210487 -0.1313565
v 0.174576 -0.209415 -0.1228825
v 0.174576 -0.209868 -0.1224065
v 0.174576 -0.210487 -0.1222325
v 0.175386 -0.210487 -0.1224065
v 0.175979 -0.210487 -0.1228825
v 0.176196 -0.210487 -0.1235325
v 0.175979 -0.209868 -0.1235325
v 0.175386 -0.209415 -0.1235325
v 0.174576 -0.209249 -0.1235325
v 0.150252 -0.209415 -0.1235325
v 0.149659 -0.209868 -0.1235325
v 0.149442 -0.210487 -0.1235325
v 0.149659 -0.210487 -0.1228825
v 0.150252 -0.210487 -0.1224065
v 0.151062 -0.210487 -0.1222325
v 0.151062 -0.209868 -0.1224065
v 0.151062 -0.209415 -0.1228825
v 0.151062 -0.209249 -0.1235325
v 0.150362 -0.209507 0.1375705
v 0.149781 -0.209951 0.1375775
v 0.150362 -0.20995 0.1380445
v 0.175858 -0.209949 0.1375775
v 0.175278 -0.209506 0.1375705
v 0.175281 -0.209946 0.1380445
v 0.175275 -0.209952 0.1281735
v 0.175275 -0.209508 0.1286395
v 0.175857 -0.209952 0.1286395
v 0.149781 -0.209952 0.1286395
v 0.150362 -0.209508 0.1286395
v 0.150362 -0.209952 0.1281735
v 0.175276 -0.209507 -0.1319015
v 0.175857 -0.209952 -0.1319085
v 0.175276 -0.209951 -0.1323755
v 0.149779 -0.20995 -0.1319085
v 0.150359 -0.209506 -0.1319015
v 0.150356 -0.209946 -0.1323755
v 0.175275 -0.209508 -0.1229705
v 0.175275 -0.209952 -0.1225045
v 0.175857 -0.209952 -0.1229705
v 0.150362 -0.209508 -0.1229705
v 0.149781 -0.209952 -0.1229705
v 0.150362 -0.209952 -0.1225045
vt 0.530904 0.956628
vt 0.531758 0.862186
vt 0.531203 0.956631
vt 0.496012 0.945711
vt 0.505668 0.94617
vt 0.496012 0.946083
vt 0.523478 0.956584
vt 0.523738 0.86214
vt 0.524032 0.86214
vt 0.528227 0.896808
vt 0.51852 0.89718
vt 0.518518 0.896809
vt 0.515334 0.956526
vt 0.515716 0.862081
vt 0.516015 0.862082
vt 0.558622 0.946273
vt 0.549298 0.946561
vt 0.549246 0.946189
vt 0.518816 0.904275
vt 0.528195 0.904646
vt 0.518818 0.904646
vt 0.522761 0.95658
vt 0.523736 0.862139
vt 0.523055 0.956583
vt 0.527768 0.876057
vt 0.52835 0.86504
vt 0.528342 0.876058
vt 0.527768 0.876057
vt 0.5283 0.935649
vt 0.527725 0.935648
vt 0.527725 0.935648
vt 0.528291 0.947121
vt 0.527717 0.947174
vt 0.529288 0.864847
vt 0.521254 0.865379
vt 0.521206 0.864972
vt 0.521079 0.93803
vt 0.520138 0.860312
vt 0.520867 0.860304
vt 0.517339 0.854423
vt 0.525724 0.854701
vt 0.517348 0.854831
vt 0.527717 0.947174
vt 0.528473 0.948049
vt 0.52793 0.948258
vt 0.525753 0.854293
vt 0.526402 0.854847
vt 0.525724 0.854701
vt 0.523441 0.862136
vt 0.523747 0.860591
vt 0.523736 0.862139
vt 0.519614 0.866354
vt 0.520105 0.865953
vt 0.519921 0.866537
vt 0.516015 0.862082
vt 0.515727 0.860533
vt 0.516026 0.860495
vt 0.531458 0.862183
vt 0.531767 0.860638
vt 0.531758 0.862186
vt 0.524032 0.86214
vt 0.523747 0.860591
vt 0.524041 0.860553
vt 0.531468 0.860596
vt 0.531772 0.85996
vt 0.531767 0.860638
vt 0.527334 0.855626
vt 0.526868 0.85524
vt 0.527124 0.854951
vt 0.516026 0.860495
vt 0.51573 0.859855
vt 0.51603 0.859702
vt 0.527775 0.864985
vt 0.528533 0.864108
vt 0.52835 0.86504
vt 0.521206 0.864972
vt 0.520575 0.865545
vt 0.520412 0.865166
vt 0.528473 0.948049
vt 0.528513 0.949047
vt 0.52793 0.948258
vt 0.526402 0.854847
vt 0.527124 0.854951
vt 0.526868 0.85524
vt 0.528574 0.863095
vt 0.528533 0.864108
vt 0.52799 0.863897
vt 0.520105 0.865953
vt 0.520412 0.865166
vt 0.520575 0.865545
vt 0.559852 0.856211
vt 0.549246 0.946189
vt 0.550476 0.856127
vt 0.519916 0.867861
vt 0.528987 0.948506
vt 0.519614 0.948651
vt 0.506951 0.855736
vt 0.496012 0.945711
vt 0.497242 0.855649
vt 0.517037 0.938081
vt 0.527043 0.857143
vt 0.526741 0.937932
vt 0.520867 0.860304
vt 0.525476 0.938102
vt 0.521079 0.93803
vt 0.550476 0.856127
vt 0.506988 0.852992
vt 0.550513 0.853383
vt 0.497262 0.854173
vt 0.497453 0.853527
vt 0.497928 0.853085
vt 0.526868 0.85524
vt 0.527048 0.855818
vt 0.525724 0.854701
vt 0.550476 0.856127
vt 0.550513 0.853383
vt 0.558561 0.853455
vt 0.520575 0.865545
vt 0.521254 0.865379
vt 0.519921 0.866537
vt 0.496012 0.945711
vt 0.496012 0.946083
vt 0.495719 0.945798
vt 0.528523 0.897092
vt 0.52823 0.89718
vt 0.528227 0.896808
vt 0.558922 0.946365
vt 0.558622 0.946645
vt 0.558622 0.946273
vt 0.518818 0.904646
vt 0.518518 0.904558
vt 0.518816 0.904275
vt 0.528331 0.938547
vt 0.527763 0.870419
vt 0.528406 0.870052
vt 0.531915 0.95605
vt 0.532038 0.861867
vt 0.532101 0.956312
vt 0.516754 0.870362
vt 0.516274 0.938484
vt 0.51635 0.869989
vt 0.523659 0.861873
vt 0.516607 0.861571
vt 0.523389 0.861575
vt 0.523444 0.956055
vt 0.516335 0.861868
vt 0.523659 0.861873
vt 0.527688 0.938162
vt 0.516754 0.870362
vt 0.527763 0.870419
vt 0.5317 0.861868
vt 0.524592 0.956055
vt 0.524377 0.861873
vt 0.531428 0.861571
vt 0.524377 0.861873
vt 0.524647 0.861576
vt 0.518817 0.904946
vt 0.528356 0.911425
vt 0.51879 0.911425
vt 0.522442 0.956875
vt 0.515665 0.956528
vt 0.522446 0.956577
vt 0.522446 0.956577
vt 0.516345 0.862085
vt 0.523127 0.862134
vt 0.523127 0.862134
vt 0.516357 0.860497
vt 0.523138 0.860546
vt 0.523138 0.860546
vt 0.516361 0.859705
vt 0.523142 0.859754
vt 0.523142 0.859175
vt 0.516361 0.859705
vt 0.516361 0.859126
vt 0.521164 0.864888
vt 0.527682 0.863892
vt 0.527468 0.864981
vt 0.521164 0.864888
vt 0.52746 0.876052
vt 0.521156 0.875959
vt 0.521156 0.875959
vt 0.527418 0.935644
vt 0.521114 0.935551
vt 0.521105 0.947077
vt 0.527418 0.935644
vt 0.52741 0.94717
vt 0.521105 0.947077
vt 0.527623 0.948254
vt 0.521318 0.948161
vt 0.52437 0.859183
vt 0.531143 0.859801
vt 0.524362 0.859762
vt 0.524356 0.860554
vt 0.531143 0.859801
vt 0.531137 0.860594
vt 0.524346 0.862142
vt 0.531137 0.860594
vt 0.531128 0.862181
vt 0.524346 0.862142
vt 0.530573 0.956626
vt 0.523792 0.956586
vt 0.523792 0.956586
vt 0.530574 0.956924
vt 0.523793 0.956884
vt 0.518543 0.903959
vt 0.528228 0.89748
vt 0.528202 0.903958
vt 0.424235 0.906765
vt 0.42043 0.906574
vt 0.420569 0.906251
vt 0.424232 0.907101
vt 0.420332 0.906961
vt 0.42043 0.906574
vt 0.424234 0.907497
vt 0.420301 0.907308
vt 0.420332 0.906961
vt 0.422865 0.918884
vt 0.418936 0.918806
vt 0.422858 0.918488
vt 0.422876 0.919235
vt 0.418979 0.9192
vt 0.422865 0.918884
vt 0.558078 0.889921
vt 0.561879 0.889389
vt 0.558085 0.890256
vt 0.558133 0.884767
vt 0.561301 0.884203
vt 0.558146 0.885162
vt 0.558119 0.884416
vt 0.561102 0.883852
vt 0.558133 0.884767
vt 0.552575 0.936119
vt 0.555446 0.936798
vt 0.552573 0.936394
vt 0.552586 0.92661
vt 0.555457 0.926633
vt 0.555408 0.927008
vt 0.552584 0.926229
vt 0.555591 0.926263
vt 0.555457 0.926633
vt 0.552581 0.925844
vt 0.555772 0.925997
vt 0.555591 0.926263
vt 0.424028 0.870758
vt 0.423807 0.875369
vt 0.423743 0.870764
vt 0.424413 0.870754
vt 0.424092 0.875356
vt 0.424028 0.870758
vt 0.424794 0.870754
vt 0.424477 0.875348
vt 0.424413 0.870754
vt 0.424736 0.870372
vt 0.434303 0.870804
vt 0.424794 0.870754
vt 0.460223 0.868265
vt 0.460347 0.857147
vt 0.4605 0.86826
vt 0.45984 0.868271
vt 0.460072 0.857149
vt 0.460223 0.868265
vt 0.434303 0.870804
vt 0.434642 0.875401
vt 0.434367 0.875396
vt 0.569876 0.868415
vt 0.565288 0.86883
vt 0.565281 0.868479
vt 0.569889 0.868766
vt 0.565294 0.869226
vt 0.565288 0.86883
vt 0.43432 0.875782
vt 0.424858 0.875346
vt 0.434367 0.875396
vt 0.481727 0.866702
vt 0.48185 0.855588
vt 0.482005 0.866699
vt 0.481345 0.866707
vt 0.481572 0.855591
vt 0.481727 0.866702
vt 0.418345 0.928268
vt 0.415288 0.928533
vt 0.418307 0.927983
vt 0.418372 0.928653
vt 0.415494 0.928793
vt 0.418345 0.928268
vt 0.418382 0.929033
vt 0.415645 0.929158
vt 0.418372 0.928653
vt 0.424192 0.891783
vt 0.42027 0.891358
vt 0.420409 0.891041
vt 0.556779 0.917352
vt 0.560792 0.917205
vt 0.560696 0.917553
vt 0.556783 0.917
vt 0.560825 0.91681
vt 0.560792 0.917205
vt 0.558155 0.905634
vt 0.562194 0.905335
vt 0.558166 0.905985
vt 0.558139 0.905238
vt 0.562149 0.904989
vt 0.558155 0.905634
vt 0.558122 0.904903
vt 0.56204 0.904604
vt 0.558139 0.905238
vt 0.411873 0.870964
vt 0.416479 0.871296
vt 0.411872 0.87136
vt 0.411871 0.870613
vt 0.416474 0.8709
vt 0.411873 0.870964
vt 0.43445 0.881313
vt 0.43466 0.876726
vt 0.434724 0.88132
vt 0.434402 0.881702
vt 0.42494 0.881263
vt 0.43445 0.881313
vt 0.460392 0.880702
vt 0.460516 0.869586
vt 0.46067 0.880699
vt 0.460009 0.880707
vt 0.460241 0.869586
vt 0.460392 0.880702
vt 0.42494 0.881263
vt 0.424496 0.876673
vt 0.424876 0.876671
vt 0.424559 0.881266
vt 0.424111 0.876681
vt 0.424496 0.876673
vt 0.424175 0.88128
vt 0.423825 0.876694
vt 0.424111 0.876681
vt 0.481742 0.86803
vt 0.481514 0.879148
vt 0.48136 0.868036
vt 0.48202 0.868025
vt 0.481896 0.879142
vt 0.481742 0.86803
vt 0.434386 0.876721
vt 0.424818 0.876292
vt 0.434327 0.876342
vt 0.552575 0.936119
vt 0.418382 0.929033
vt 0.552586 0.92661
vt 0.422858 0.918488
vt 0.418836 0.908206
vt 0.422759 0.907889
vt 0.558146 0.885162
vt 0.561736 0.889075
vt 0.558078 0.889921
vt 0.552586 0.92661
vt 0.555398 0.936518
vt 0.552575 0.936119
vt 0.424121 0.903384
vt 0.420569 0.906251
vt 0.420957 0.902776
vt 0.418936 0.918806
vt 0.414574 0.909046
vt 0.418836 0.908206
vt 0.561301 0.884203
vt 0.565803 0.886666
vt 0.561736 0.889075
vt 0.555408 0.927008
vt 0.557409 0.937351
vt 0.555398 0.936518
vt 0.420957 0.902776
vt 0.416479 0.904635
vt 0.418812 0.901552
vt 0.440802 0.857403
vt 0.44443 0.868479
vt 0.440956 0.868514
vt 0.563429 0.88241
vt 0.568515 0.883585
vt 0.565803 0.886666
vt 0.467943 0.855773
vt 0.470018 0.866862
vt 0.468098 0.866885
vt 0.418812 0.901552
vt 0.413738 0.902508
vt 0.417489 0.900074
vt 0.444275 0.857367
vt 0.449574 0.868415
vt 0.44443 0.868479
vt 0.564731 0.880288
vt 0.570232 0.878816
vt 0.568515 0.883585
vt 0.469863 0.855751
vt 0.472629 0.866828
vt 0.470018 0.866862
vt 0.417489 0.900074
vt 0.411975 0.899159
vt 0.416819 0.898226
vt 0.44942 0.857303
vt 0.45984 0.868271
vt 0.449574 0.868415
vt 0.565376 0.877667
vt 0.569901 0.869162
vt 0.570232 0.878816
vt 0.472474 0.855717
vt 0.481345 0.866707
vt 0.472629 0.866828
vt 0.416819 0.898226
vt 0.412212 0.892286
vt 0.416819 0.892222
vt 0.560725 0.906211
vt 0.556781 0.916604
vt 0.556682 0.906005
vt 0.420409 0.891041
vt 0.423814 0.887031
vt 0.424192 0.891783
vt 0.415689 0.939041
vt 0.418382 0.929033
vt 0.418372 0.938543
vt 0.558454 0.901515
vt 0.561897 0.904285
vt 0.558122 0.904903
vt 0.565083 0.906928
vt 0.560825 0.91681
vt 0.560725 0.906211
vt 0.416296 0.888745
vt 0.420749 0.886158
vt 0.420409 0.891041
vt 0.468115 0.868228
vt 0.466608 0.879371
vt 0.466453 0.868259
vt 0.561509 0.900821
vt 0.565987 0.902555
vt 0.561897 0.904285
vt 0.444539 0.869814
vt 0.441129 0.880987
vt 0.440975 0.869875
vt 0.413465 0.885676
vt 0.418587 0.884425
vt 0.416296 0.888745
vt 0.469941 0.868198
vt 0.468269 0.879339
vt 0.468115 0.868228
vt 0.563655 0.899537
vt 0.568788 0.900305
vt 0.565987 0.902555
vt 0.449589 0.869738
vt 0.444694 0.880926
vt 0.444539 0.869814
vt 0.41173 0.881021
vt 0.417307 0.882402
vt 0.413465 0.885676
vt 0.472644 0.868158
vt 0.470095 0.879309
vt 0.469941 0.868198
vt 0.564915 0.898069
vt 0.570478 0.896954
vt 0.568788 0.900305
vt 0.449589 0.869738
vt 0.460009 0.880707
vt 0.449744 0.880849
vt 0.411872 0.87136
vt 0.416562 0.879737
vt 0.41173 0.881021
vt 0.48136 0.868036
vt 0.472798 0.879269
vt 0.472644 0.868158
vt 0.565634 0.896156
vt 0.570242 0.890088
vt 0.570478 0.896954
vt 0.556682 0.906005
vt 0.422858 0.918488
vt 0.422759 0.907889
vt 0.424192 0.891783
vt 0.558146 0.885162
vt 0.558078 0.889921
vt 0.424121 0.903384
vt 0.558122 0.904903
vt 0.424235 0.906765
vt 0.434367 0.875396
vt 0.424794 0.870754
vt 0.434303 0.870804
vt 0.43445 0.881313
vt 0.424876 0.876671
vt 0.434386 0.876721
vt 0.420332 0.906961
vt 0.415991 0.905605
vt 0.416051 0.90527
vt 0.420569 0.906251
vt 0.41623 0.904914
vt 0.416479 0.904635
vt 0.42043 0.906574
vt 0.416051 0.90527
vt 0.41623 0.904914
vt 0.561736 0.889075
vt 0.566056 0.886914
vt 0.561879 0.889389
vt 0.418979 0.9192
vt 0.414674 0.919645
vt 0.418936 0.918806
vt 0.41909 0.919545
vt 0.414746 0.920033
vt 0.418979 0.9192
vt 0.558146 0.885162
vt 0.423832 0.886635
vt 0.558133 0.884767
vt 0.552573 0.936394
vt 0.418372 0.938543
vt 0.552575 0.936119
vt 0.558133 0.884767
vt 0.423843 0.886284
vt 0.558119 0.884416
vt 0.466434 0.8669
vt 0.468035 0.867269
vt 0.466349 0.867285
vt 0.561102 0.883852
vt 0.563429 0.88241
vt 0.561301 0.884203
vt 0.560953 0.883535
vt 0.563133 0.882141
vt 0.561102 0.883852
vt 0.555591 0.926263
vt 0.557983 0.926912
vt 0.557701 0.927137
vt 0.555408 0.927008
vt 0.557495 0.927477
vt 0.557419 0.927841
vt 0.555457 0.926633
vt 0.557701 0.927137
vt 0.557495 0.927477
vt 0.440956 0.868514
vt 0.444478 0.86886
vt 0.44104 0.868896
vt 0.41623 0.904914
vt 0.413738 0.902508
vt 0.416479 0.904635
vt 0.416051 0.90527
vt 0.41339 0.902699
vt 0.41623 0.904914
vt 0.566056 0.886914
vt 0.568515 0.883585
vt 0.568865 0.883705
vt 0.440802 0.857403
vt 0.444313 0.856983
vt 0.444275 0.857367
vt 0.414746 0.920033
vt 0.412157 0.921398
vt 0.411896 0.921098
vt 0.468035 0.867269
vt 0.470018 0.866862
vt 0.469991 0.867246
vt 0.563429 0.88241
vt 0.56436 0.88015
vt 0.564731 0.880288
vt 0.563133 0.882141
vt 0.564086 0.879989
vt 0.56436 0.88015
vt 0.557983 0.926912
vt 0.559022 0.928182
vt 0.557701 0.927137
vt 0.467869 0.855392
vt 0.469863 0.855751
vt 0.467943 0.855773
vt 0.557701 0.927137
vt 0.558756 0.928471
vt 0.557495 0.927477
vt 0.44443 0.868479
vt 0.4496 0.868797
vt 0.444478 0.86886
vt 0.41339 0.902699
vt 0.411975 0.899159
vt 0.413738 0.902508
vt 0.444478 0.86886
vt 0.449661 0.869075
vt 0.444599 0.869138
vt 0.568865 0.883705
vt 0.570232 0.878816
vt 0.570615 0.878857
vt 0.444275 0.857367
vt 0.449435 0.85692
vt 0.44942 0.857303
vt 0.444313 0.856983
vt 0.449488 0.856638
vt 0.449435 0.85692
vt 0.469991 0.867246
vt 0.472629 0.866828
vt 0.472617 0.867212
vt 0.564731 0.880288
vt 0.564991 0.877586
vt 0.565376 0.877667
vt 0.56436 0.88015
vt 0.564706 0.877466
vt 0.564991 0.877586
vt 0.417489 0.900074
vt 0.417203 0.898256
vt 0.417859 0.900064
vt 0.469825 0.855369
vt 0.472474 0.855717
vt 0.469863 0.855751
vt 0.469733 0.855091
vt 0.472452 0.855335
vt 0.469825 0.855369
vt 0.4496 0.868797
vt 0.45984 0.868271
vt 0.459844 0.868653
vt 0.411975 0.899159
vt 0.411831 0.892366
vt 0.412212 0.892286
vt 0.449661 0.869075
vt 0.459844 0.868653
vt 0.459846 0.868932
vt 0.570232 0.878816
vt 0.570282 0.869124
vt 0.570615 0.878857
vt 0.449435 0.85692
vt 0.459692 0.857153
vt 0.44942 0.857303
vt 0.449488 0.856638
vt 0.459684 0.856773
vt 0.449435 0.85692
vt 0.472629 0.866828
vt 0.481349 0.86709
vt 0.472617 0.867212
vt 0.564991 0.877586
vt 0.565294 0.869226
vt 0.565376 0.877667
vt 0.472617 0.867212
vt 0.481351 0.867372
vt 0.472576 0.867494
vt 0.417203 0.898256
vt 0.416819 0.892222
vt 0.417204 0.892292
vt 0.472474 0.855717
vt 0.481184 0.855213
vt 0.48119 0.855596
vt 0.472452 0.855335
vt 0.481178 0.854934
vt 0.481184 0.855213
vt 0.423832 0.886635
vt 0.420749 0.886158
vt 0.420939 0.885802
vt 0.418372 0.938543
vt 0.415634 0.939323
vt 0.415689 0.939041
vt 0.423843 0.886284
vt 0.420939 0.885802
vt 0.421073 0.885481
vt 0.552575 0.925558
vt 0.418345 0.928268
vt 0.418307 0.927983
vt 0.552581 0.925844
vt 0.418372 0.928653
vt 0.418345 0.928268
vt 0.552584 0.926229
vt 0.418382 0.929033
vt 0.418372 0.928653
vt 0.558085 0.890256
vt 0.424192 0.891783
vt 0.558078 0.889921
vt 0.422865 0.918884
vt 0.556779 0.917352
vt 0.422876 0.919235
vt 0.422858 0.918488
vt 0.556783 0.917
vt 0.422865 0.918884
vt 0.560792 0.917205
vt 0.565182 0.917528
vt 0.56512 0.917918
vt 0.420409 0.891041
vt 0.416046 0.889001
vt 0.416296 0.888745
vt 0.560696 0.917553
vt 0.56512 0.917918
vt 0.564943 0.918252
vt 0.424239 0.907848
vt 0.558155 0.905634
vt 0.558166 0.905985
vt 0.424234 0.907497
vt 0.558139 0.905238
vt 0.558155 0.905634
vt 0.424232 0.907101
vt 0.558122 0.904903
vt 0.558139 0.905238
vt 0.561897 0.904285
vt 0.56624 0.902828
vt 0.56204 0.904604
vt 0.562149 0.904989
vt 0.566504 0.903511
vt 0.562194 0.905335
vt 0.56204 0.904604
vt 0.566429 0.903178
vt 0.562149 0.904989
vt 0.420939 0.885802
vt 0.418587 0.884425
vt 0.418874 0.884147
vt 0.466453 0.868259
vt 0.468041 0.867846
vt 0.468115 0.868228
vt 0.421073 0.885481
vt 0.418874 0.884147
vt 0.419081 0.883884
vt 0.4157 0.929531
vt 0.413731 0.930073
vt 0.415645 0.929158
vt 0.415494 0.928793
vt 0.413211 0.929526
vt 0.415288 0.928533
vt 0.415645 0.929158
vt 0.413511 0.92974
vt 0.415494 0.928793
vt 0.441129 0.880987
vt 0.444739 0.881308
vt 0.441213 0.881369
vt 0.416046 0.889001
vt 0.413465 0.885676
vt 0.416296 0.888745
vt 0.56512 0.917918
vt 0.56791 0.919231
vt 0.564943 0.918252
vt 0.56624 0.902828
vt 0.568788 0.900305
vt 0.569146 0.900478
vt 0.440975 0.869875
vt 0.444574 0.869431
vt 0.444539 0.869814
vt 0.566429 0.903178
vt 0.569146 0.900478
vt 0.569412 0.900755
vt 0.418587 0.884425
vt 0.417676 0.882267
vt 0.418874 0.884147
vt 0.468041 0.867846
vt 0.469941 0.868198
vt 0.468115 0.868228
vt 0.418874 0.884147
vt 0.417942 0.882107
vt 0.419081 0.883884
vt 0.468206 0.879723
vt 0.470095 0.879309
vt 0.470072 0.879692
vt 0.413211 0.929526
vt 0.412404 0.930788
vt 0.412029 0.930653
vt 0.413511 0.92974
vt 0.412679 0.931063
vt 0.412404 0.930788
vt 0.444694 0.880926
vt 0.44977 0.881232
vt 0.444739 0.881308
vt 0.413109 0.885795
vt 0.41173 0.881021
vt 0.413465 0.885676
vt 0.444739 0.881308
vt 0.44983 0.881512
vt 0.444851 0.881588
vt 0.569146 0.900478
vt 0.570478 0.896954
vt 0.570864 0.897078
vt 0.444539 0.869814
vt 0.449604 0.869355
vt 0.449589 0.869738
vt 0.444574 0.869431
vt 0.449657 0.869075
vt 0.449604 0.869355
vt 0.417307 0.882402
vt 0.416942 0.879645
vt 0.417676 0.882267
vt 0.469907 0.867815
vt 0.472644 0.868158
vt 0.469941 0.868198
vt 0.417676 0.882267
vt 0.417217 0.879517
vt 0.417942 0.882107
vt 0.470072 0.879692
vt 0.472798 0.879269
vt 0.472787 0.879651
vt 0.564915 0.898069
vt 0.565253 0.896197
vt 0.565634 0.896156
vt 0.469997 0.879972
vt 0.472787 0.879651
vt 0.472745 0.879931
vt 0.44977 0.881232
vt 0.460009 0.880707
vt 0.460014 0.88109
vt 0.41173 0.881021
vt 0.411487 0.871335
vt 0.411872 0.87136
vt 0.44983 0.881512
vt 0.460014 0.88109
vt 0.460016 0.881371
vt 0.570478 0.896954
vt 0.570626 0.890155
vt 0.570864 0.897078
vt 0.449604 0.869355
vt 0.459861 0.869589
vt 0.449589 0.869738
vt 0.449657 0.869075
vt 0.459853 0.86921
vt 0.449604 0.869355
vt 0.416942 0.879645
vt 0.416479 0.871296
vt 0.41686 0.87126
vt 0.472644 0.868158
vt 0.481354 0.867653
vt 0.48136 0.868036
vt 0.472622 0.867775
vt 0.481348 0.867372
vt 0.481354 0.867653
vt 0.472798 0.879269
vt 0.481519 0.87953
vt 0.472787 0.879651
vt 0.565253 0.896197
vt 0.565635 0.890152
vt 0.565634 0.896156
vt 0.472787 0.879651
vt 0.48152 0.879809
vt 0.472745 0.879931
vt 0.424794 0.870754
vt 0.424424 0.870424
vt 0.424736 0.870372
vt 0.424424 0.870424
vt 0.424028 0.870758
vt 0.424046 0.870428
vt 0.423743 0.870764
vt 0.424046 0.870428
vt 0.424028 0.870758
vt 0.459846 0.868932
vt 0.460175 0.868596
vt 0.460176 0.86887
vt 0.45984 0.868271
vt 0.460175 0.868596
vt 0.459844 0.868653
vt 0.424587 0.870098
vt 0.424424 0.870424
vt 0.424278 0.870155
vt 0.424424 0.870424
vt 0.424046 0.870428
vt 0.424278 0.870155
vt 0.569901 0.869162
vt 0.57022 0.868793
vt 0.570282 0.869124
vt 0.569889 0.868766
vt 0.570209 0.86845
vt 0.57022 0.868793
vt 0.434303 0.870804
vt 0.434501 0.870477
vt 0.434578 0.870807
vt 0.460284 0.856817
vt 0.460072 0.857149
vt 0.460014 0.856821
vt 0.459692 0.857153
vt 0.460014 0.856821
vt 0.460072 0.857149
vt 0.57049 0.868706
vt 0.570282 0.869124
vt 0.57022 0.868793
vt 0.57022 0.868793
vt 0.570209 0.86845
vt 0.57049 0.868706
vt 0.481345 0.866707
vt 0.481679 0.867034
vt 0.481349 0.86709
vt 0.481679 0.867034
vt 0.482005 0.866699
vt 0.481952 0.867031
vt 0.434367 0.875396
vt 0.434572 0.875733
vt 0.43432 0.875782
vt 0.56495 0.868523
vt 0.565288 0.86883
vt 0.564957 0.868867
vt 0.565294 0.869226
vt 0.564957 0.868867
vt 0.565288 0.86883
vt 0.564957 0.868867
vt 0.564624 0.869122
vt 0.564678 0.86879
vt 0.564678 0.86879
vt 0.56495 0.868523
vt 0.564957 0.868867
vt 0.423807 0.875369
vt 0.42412 0.875689
vt 0.4239 0.875752
vt 0.424092 0.875356
vt 0.424497 0.875681
vt 0.42412 0.875689
vt 0.424858 0.875346
vt 0.424497 0.875681
vt 0.424477 0.875348
vt 0.42481 0.875732
vt 0.424358 0.875964
vt 0.424497 0.875681
vt 0.48119 0.855596
vt 0.481515 0.855261
vt 0.481572 0.855591
vt 0.481184 0.855213
vt 0.481509 0.854988
vt 0.481515 0.855261
vt 0.42412 0.875689
vt 0.424497 0.875681
vt 0.424358 0.875964
vt 0.43445 0.881313
vt 0.434655 0.881654
vt 0.434402 0.881702
vt 0.411538 0.870657
vt 0.411873 0.870964
vt 0.411541 0.871001
vt 0.411872 0.87136
vt 0.411541 0.871001
vt 0.411873 0.870964
vt 0.411487 0.871335
vt 0.411262 0.870923
vt 0.411541 0.871001
vt 0.460009 0.880707
vt 0.460344 0.881034
vt 0.460014 0.88109
vt 0.460392 0.880702
vt 0.460616 0.881031
vt 0.460344 0.881034
vt 0.411538 0.870657
vt 0.411541 0.871001
vt 0.411262 0.870923
vt 0.423889 0.881299
vt 0.424202 0.881614
vt 0.423982 0.881682
vt 0.424175 0.88128
vt 0.424578 0.881601
vt 0.424202 0.881614
vt 0.42494 0.881263
vt 0.424578 0.881601
vt 0.424559 0.881266
vt 0.424578 0.881601
vt 0.42475 0.881946
vt 0.42444 0.881889
vt 0.459861 0.869589
vt 0.460183 0.869258
vt 0.460241 0.869586
vt 0.460183 0.869258
vt 0.459845 0.868933
vt 0.460175 0.868987
vt 0.424202 0.881614
vt 0.424578 0.881601
vt 0.42444 0.881889
vt 0.434386 0.876721
vt 0.434581 0.876397
vt 0.43466 0.876726
vt 0.481957 0.867695
vt 0.481742 0.86803
vt 0.481685 0.8677
vt 0.48136 0.868036
vt 0.481685 0.8677
vt 0.481742 0.86803
vt 0.417135 0.871174
vt 0.416804 0.870928
vt 0.417074 0.870843
vt 0.416479 0.871296
vt 0.416804 0.870928
vt 0.41686 0.87126
vt 0.416804 0.870928
vt 0.416466 0.870549
vt 0.416797 0.870584
vt 0.416797 0.870584
vt 0.417074 0.870843
vt 0.416804 0.870928
vt 0.424876 0.876671
vt 0.424506 0.876345
vt 0.424818 0.876292
vt 0.424496 0.876673
vt 0.424129 0.876353
vt 0.424506 0.876345
vt 0.423825 0.876694
vt 0.424129 0.876353
vt 0.424111 0.876681
vt 0.48185 0.879747
vt 0.481519 0.87953
vt 0.481848 0.879473
vt 0.481514 0.879148
vt 0.481848 0.879473
vt 0.481519 0.87953
vt 0.424669 0.876022
vt 0.424506 0.876345
vt 0.42436 0.876079
vt 0.424506 0.876345
vt 0.424129 0.876353
vt 0.42436 0.876079
vt 0.530904 0.956628
vt 0.531458 0.862183
vt 0.531758 0.862186
vt 0.496012 0.945711
vt 0.505721 0.945798
vt 0.505668 0.94617
vt 0.523478 0.956584
vt 0.523183 0.956584
vt 0.523738 0.86214
vt 0.528227 0.896808
vt 0.52823 0.89718
vt 0.51852 0.89718
vt 0.515334 0.956526
vt 0.515035 0.956525
vt 0.515716 0.862081
vt 0.558622 0.946273
vt 0.558622 0.946645
vt 0.549298 0.946561
vt 0.518816 0.904275
vt 0.528193 0.904275
vt 0.528195 0.904646
vt 0.522761 0.95658
vt 0.523441 0.862136
vt 0.523736 0.862139
vt 0.527768 0.876057
vt 0.527775 0.864985
vt 0.52835 0.86504
vt 0.527768 0.876057
vt 0.528342 0.876058
vt 0.5283 0.935649
vt 0.527725 0.935648
vt 0.5283 0.935649
vt 0.528291 0.947121
vt 0.529288 0.864847
vt 0.529298 0.865255
vt 0.521254 0.865379
vt 0.521079 0.93803
vt 0.520351 0.938037
vt 0.520138 0.860312
vt 0.517339 0.854423
vt 0.525753 0.854293
vt 0.525724 0.854701
vt 0.527717 0.947174
vt 0.528291 0.947121
vt 0.528473 0.948049
vt 0.525753 0.854293
vt 0.526546 0.854463
vt 0.526402 0.854847
vt 0.523441 0.862136
vt 0.523452 0.860549
vt 0.523747 0.860591
vt 0.519614 0.866354
vt 0.51983 0.865672
vt 0.520105 0.865953
vt 0.516015 0.862082
vt 0.515716 0.862081
vt 0.515727 0.860533
vt 0.531458 0.862183
vt 0.531468 0.860596
vt 0.531767 0.860638
vt 0.524032 0.86214
vt 0.523738 0.86214
vt 0.523747 0.860591
vt 0.531468 0.860596
vt 0.531474 0.859803
vt 0.531772 0.85996
vt 0.527334 0.855626
vt 0.527048 0.855818
vt 0.526868 0.85524
vt 0.516026 0.860495
vt 0.515727 0.860533
vt 0.51573 0.859855
vt 0.527775 0.864985
vt 0.52799 0.863897
vt 0.528533 0.864108
vt 0.521206 0.864972
vt 0.521254 0.865379
vt 0.520575 0.865545
vt 0.528473 0.948049
vt 0.528944 0.948685
vt 0.528513 0.949047
vt 0.526402 0.854847
vt 0.526546 0.854463
vt 0.527124 0.854951
vt 0.528574 0.863095
vt 0.529004 0.863462
vt 0.528533 0.864108
vt 0.520105 0.865953
vt 0.51983 0.865672
vt 0.520412 0.865166
vt 0.559852 0.856211
vt 0.558622 0.946273
vt 0.549246 0.946189
vt 0.519916 0.867861
vt 0.529289 0.867717
vt 0.528987 0.948506
vt 0.506951 0.855736
vt 0.505721 0.945798
vt 0.496012 0.945711
vt 0.517037 0.938081
vt 0.517339 0.857292
vt 0.527043 0.857143
vt 0.520867 0.860304
vt 0.525263 0.860376
vt 0.525476 0.938102
vt 0.550476 0.856127
vt 0.506951 0.855736
vt 0.506988 0.852992
vt 0.497928 0.853085
vt 0.498609 0.852917
vt 0.497262 0.854173
vt 0.498609 0.852917
vt 0.506988 0.852992
vt 0.506951 0.855736
vt 0.497242 0.855649
vt 0.498609 0.852917
vt 0.506951 0.855736
vt 0.497242 0.855649
vt 0.497262 0.854173
vt 0.498609 0.852917
vt 0.527048 0.855818
vt 0.527043 0.857143
vt 0.525724 0.854701
vt 0.527043 0.857143
vt 0.517339 0.857292
vt 0.525724 0.854701
vt 0.517339 0.857292
vt 0.517348 0.854831
vt 0.525724 0.854701
vt 0.525724 0.854701
vt 0.526402 0.854847
vt 0.526868 0.85524
vt 0.558561 0.853455
vt 0.559237 0.853635
vt 0.559699 0.854086
vt 0.559699 0.854086
vt 0.559872 0.854735
vt 0.558561 0.853455
vt 0.559872 0.854735
vt 0.559852 0.856211
vt 0.558561 0.853455
vt 0.559852 0.856211
vt 0.550476 0.856127
vt 0.558561 0.853455
vt 0.521254 0.865379
vt 0.529298 0.865255
vt 0.529289 0.867717
vt 0.529289 0.867717
vt 0.519916 0.867861
vt 0.521254 0.865379
vt 0.519916 0.867861
vt 0.519921 0.866537
vt 0.521254 0.865379
vt 0.519921 0.866537
vt 0.520105 0.865953
vt 0.520575 0.865545
vt 0.524018 0.861872
vt 0.523955 0.956318
vt 0.523444 0.956055
vt 0.528331 0.938547
vt 0.527688 0.938162
vt 0.527763 0.870419
vt 0.524592 0.956055
vt 0.524081 0.956318
vt 0.524018 0.861872
vt 0.516754 0.870362
vt 0.516679 0.938104
vt 0.516274 0.938484
vt 0.51612 0.95605
vt 0.515934 0.956312
vt 0.515998 0.861867
vt 0.523659 0.861873
vt 0.516335 0.861868
vt 0.516607 0.861571
vt 0.523444 0.956055
vt 0.51612 0.95605
vt 0.516335 0.861868
vt 0.527688 0.938162
vt 0.516679 0.938104
vt 0.516754 0.870362
vt 0.5317 0.861868
vt 0.531915 0.95605
vt 0.524592 0.956055
vt 0.531428 0.861571
vt 0.5317 0.861868
vt 0.524377 0.861873
vt 0.518817 0.904946
vt 0.528431 0.904946
vt 0.528356 0.911425
vt 0.522442 0.956875
vt 0.515661 0.956826
vt 0.515665 0.956528
vt 0.522446 0.956577
vt 0.515665 0.956528
vt 0.516345 0.862085
vt 0.523127 0.862134
vt 0.516345 0.862085
vt 0.516357 0.860497
vt 0.523138 0.860546
vt 0.516357 0.860497
vt 0.516361 0.859705
vt 0.523142 0.859175
vt 0.523142 0.859754
vt 0.516361 0.859705
vt 0.521164 0.864888
vt 0.521378 0.863799
vt 0.527682 0.863892
vt 0.521164 0.864888
vt 0.527468 0.864981
vt 0.52746 0.876052
vt 0.521156 0.875959
vt 0.52746 0.876052
vt 0.527418 0.935644
vt 0.521105 0.947077
vt 0.521114 0.935551
vt 0.527418 0.935644
vt 0.521105 0.947077
vt 0.52741 0.94717
vt 0.527623 0.948254
vt 0.52437 0.859183
vt 0.531151 0.859223
vt 0.531143 0.859801
vt 0.524356 0.860554
vt 0.524362 0.859762
vt 0.531143 0.859801
vt 0.524346 0.862142
vt 0.524356 0.860554
vt 0.531137 0.860594
vt 0.524346 0.862142
vt 0.531128 0.862181
vt 0.530573 0.956626
vt 0.523792 0.956586
vt 0.530573 0.956626
vt 0.530574 0.956924
vt 0.518543 0.903959
vt 0.518521 0.89748
vt 0.528228 0.89748
vt 0.424235 0.906765
vt 0.424232 0.907101
vt 0.42043 0.906574
vt 0.424232 0.907101
vt 0.424234 0.907497
vt 0.420332 0.906961
vt 0.424234 0.907497
vt 0.424239 0.907848
vt 0.420301 0.907308
vt 0.422865 0.918884
vt 0.418979 0.9192
vt 0.418936 0.918806
vt 0.422876 0.919235
vt 0.41909 0.919545
vt 0.418979 0.9192
vt 0.558078 0.889921
vt 0.561736 0.889075
vt 0.561879 0.889389
vt 0.558133 0.884767
vt 0.561102 0.883852
vt 0.561301 0.884203
vt 0.558119 0.884416
vt 0.560953 0.883535
vt 0.561102 0.883852
vt 0.552575 0.936119
vt 0.555398 0.936518
vt 0.555446 0.936798
vt 0.552586 0.92661
vt 0.552584 0.926229
vt 0.555457 0.926633
vt 0.552584 0.926229
vt 0.552581 0.925844
vt 0.555591 0.926263
vt 0.552581 0.925844
vt 0.552575 0.925558
vt 0.555772 0.925997
vt 0.424028 0.870758
vt 0.424092 0.875356
vt 0.423807 0.875369
vt 0.424413 0.870754
vt 0.424477 0.875348
vt 0.424092 0.875356
vt 0.424794 0.870754
vt 0.424858 0.875346
vt 0.424477 0.875348
vt 0.424736 0.870372
vt 0.434248 0.870422
vt 0.434303 0.870804
vt 0.460223 0.868265
vt 0.460072 0.857149
vt 0.460347 0.857147
vt 0.45984 0.868271
vt 0.459692 0.857153
vt 0.460072 0.857149
vt 0.434303 0.870804
vt 0.434578 0.870807
vt 0.434642 0.875401
vt 0.569876 0.868415
vt 0.569889 0.868766
vt 0.565288 0.86883
vt 0.569889 0.868766
vt 0.569901 0.869162
vt 0.565294 0.869226
vt 0.43432 0.875782
vt 0.42481 0.875732
vt 0.424858 0.875346
vt 0.481727 0.866702
vt 0.481572 0.855591
vt 0.48185 0.855588
vt 0.481345 0.866707
vt 0.48119 0.855596
vt 0.481572 0.855591
vt 0.418345 0.928268
vt 0.415494 0.928793
vt 0.415288 0.928533
vt 0.418372 0.928653
vt 0.415645 0.929158
vt 0.415494 0.928793
vt 0.418382 0.929033
vt 0.4157 0.929531
vt 0.415645 0.929158
vt 0.424192 0.891783
vt 0.424179 0.892119
vt 0.42027 0.891358
vt 0.556779 0.917352
vt 0.556783 0.917
vt 0.560792 0.917205
vt 0.556783 0.917
vt 0.556781 0.916604
vt 0.560825 0.91681
vt 0.558155 0.905634
vt 0.562149 0.904989
vt 0.562194 0.905335
vt 0.558139 0.905238
vt 0.56204 0.904604
vt 0.562149 0.904989
vt 0.558122 0.904903
vt 0.561897 0.904285
vt 0.56204 0.904604
vt 0.411873 0.870964
vt 0.416474 0.8709
vt 0.416479 0.871296
vt 0.411871 0.870613
vt 0.416466 0.870549
vt 0.416474 0.8709
vt 0.43445 0.881313
vt 0.434386 0.876721
vt 0.43466 0.876726
vt 0.434402 0.881702
vt 0.424891 0.881652
vt 0.42494 0.881263
vt 0.460392 0.880702
vt 0.460241 0.869586
vt 0.460516 0.869586
vt 0.460009 0.880707
vt 0.459861 0.869589
vt 0.460241 0.869586
vt 0.42494 0.881263
vt 0.424559 0.881266
vt 0.424496 0.876673
vt 0.424559 0.881266
vt 0.424175 0.88128
vt 0.424111 0.876681
vt 0.424175 0.88128
vt 0.423889 0.881299
vt 0.423825 0.876694
vt 0.481742 0.86803
vt 0.481896 0.879142
vt 0.481514 0.879148
vt 0.48202 0.868025
vt 0.482174 0.879137
vt 0.481896 0.879142
vt 0.434386 0.876721
vt 0.424876 0.876671
vt 0.424818 0.876292
vt 0.552575 0.936119
vt 0.418372 0.938543
vt 0.418382 0.929033
vt 0.422858 0.918488
vt 0.418936 0.918806
vt 0.418836 0.908206
vt 0.558146 0.885162
vt 0.561301 0.884203
vt 0.561736 0.889075
vt 0.552586 0.92661
vt 0.555408 0.927008
vt 0.555398 0.936518
vt 0.424121 0.903384
vt 0.424235 0.906765
vt 0.420569 0.906251
vt 0.418936 0.918806
vt 0.414674 0.919645
vt 0.414574 0.909046
vt 0.561301 0.884203
vt 0.563429 0.88241
vt 0.565803 0.886666
vt 0.555408 0.927008
vt 0.557419 0.927841
vt 0.557409 0.937351
vt 0.420957 0.902776
vt 0.420569 0.906251
vt 0.416479 0.904635
vt 0.440802 0.857403
vt 0.444275 0.857367
vt 0.44443 0.868479
vt 0.563429 0.88241
vt 0.564731 0.880288
vt 0.568515 0.883585
vt 0.467943 0.855773
vt 0.469863 0.855751
vt 0.470018 0.866862
vt 0.418812 0.901552
vt 0.416479 0.904635
vt 0.413738 0.902508
vt 0.444275 0.857367
vt 0.44942 0.857303
vt 0.449574 0.868415
vt 0.564731 0.880288
vt 0.565376 0.877667
vt 0.570232 0.878816
vt 0.469863 0.855751
vt 0.472474 0.855717
vt 0.472629 0.866828
vt 0.417489 0.900074
vt 0.413738 0.902508
vt 0.411975 0.899159
vt 0.44942 0.857303
vt 0.459692 0.857153
vt 0.45984 0.868271
vt 0.565376 0.877667
vt 0.565294 0.869226
vt 0.569901 0.869162
vt 0.472474 0.855717
vt 0.48119 0.855596
vt 0.481345 0.866707
vt 0.416819 0.898226
vt 0.411975 0.899159
vt 0.412212 0.892286
vt 0.560725 0.906211
vt 0.560825 0.91681
vt 0.556781 0.916604
vt 0.420409 0.891041
vt 0.420749 0.886158
vt 0.423814 0.887031
vt 0.415689 0.939041
vt 0.4157 0.929531
vt 0.418382 0.929033
vt 0.558454 0.901515
vt 0.561509 0.900821
vt 0.561897 0.904285
vt 0.565083 0.906928
vt 0.565182 0.917528
vt 0.560825 0.91681
vt 0.416296 0.888745
vt 0.418587 0.884425
vt 0.420749 0.886158
vt 0.468115 0.868228
vt 0.468269 0.879339
vt 0.466608 0.879371
vt 0.561509 0.900821
vt 0.563655 0.899537
vt 0.565987 0.902555
vt 0.444539 0.869814
vt 0.444694 0.880926
vt 0.441129 0.880987
vt 0.413465 0.885676
vt 0.417307 0.882402
vt 0.418587 0.884425
vt 0.469941 0.868198
vt 0.470095 0.879309
vt 0.468269 0.879339
vt 0.563655 0.899537
vt 0.564915 0.898069
vt 0.568788 0.900305
vt 0.449589 0.869738
vt 0.449744 0.880849
vt 0.444694 0.880926
vt 0.41173 0.881021
vt 0.416562 0.879737
vt 0.417307 0.882402
vt 0.472644 0.868158
vt 0.472798 0.879269
vt 0.470095 0.879309
vt 0.564915 0.898069
vt 0.565634 0.896156
vt 0.570478 0.896954
vt 0.449589 0.869738
vt 0.459861 0.869589
vt 0.460009 0.880707
vt 0.411872 0.87136
vt 0.416479 0.871296
vt 0.416562 0.879737
vt 0.48136 0.868036
vt 0.481514 0.879148
vt 0.472798 0.879269
vt 0.565634 0.896156
vt 0.565635 0.890152
vt 0.570242 0.890088
vt 0.556682 0.906005
vt 0.556781 0.916604
vt 0.422858 0.918488
vt 0.424192 0.891783
vt 0.423814 0.887031
vt 0.558146 0.885162
vt 0.424121 0.903384
vt 0.558454 0.901515
vt 0.558122 0.904903
vt 0.434367 0.875396
vt 0.424858 0.875346
vt 0.424794 0.870754
vt 0.43445 0.881313
vt 0.42494 0.881263
vt 0.424876 0.876671
vt 0.420332 0.906961
vt 0.420301 0.907308
vt 0.415991 0.905605
vt 0.420569 0.906251
vt 0.42043 0.906574
vt 0.41623 0.904914
vt 0.42043 0.906574
vt 0.420332 0.906961
vt 0.416051 0.90527
vt 0.561736 0.889075
vt 0.565803 0.886666
vt 0.566056 0.886914
vt 0.418979 0.9192
vt 0.414746 0.920033
vt 0.414674 0.919645
vt 0.41909 0.919545
vt 0.414936 0.920362
vt 0.414746 0.920033
vt 0.558146 0.885162
vt 0.423814 0.887031
vt 0.423832 0.886635
vt 0.552573 0.936394
vt 0.418361 0.938817
vt 0.418372 0.938543
vt 0.558133 0.884767
vt 0.423832 0.886635
vt 0.423843 0.886284
vt 0.466434 0.8669
vt 0.468098 0.866885
vt 0.468035 0.867269
vt 0.561102 0.883852
vt 0.563133 0.882141
vt 0.563429 0.88241
vt 0.560953 0.883535
vt 0.562914 0.881883
vt 0.563133 0.882141
vt 0.555591 0.926263
vt 0.555772 0.925997
vt 0.557983 0.926912
vt 0.555408 0.927008
vt 0.555457 0.926633
vt 0.557495 0.927477
vt 0.555457 0.926633
vt 0.555591 0.926263
vt 0.557701 0.927137
vt 0.440956 0.868514
vt 0.44443 0.868479
vt 0.444478 0.86886
vt 0.41623 0.904914
vt 0.41339 0.902699
vt 0.413738 0.902508
vt 0.416051 0.90527
vt 0.413138 0.902989
vt 0.41339 0.902699
vt 0.566056 0.886914
vt 0.565803 0.886666
vt 0.568515 0.883585
vt 0.440802 0.857403
vt 0.440875 0.857019
vt 0.444313 0.856983
vt 0.414746 0.920033
vt 0.414936 0.920362
vt 0.412157 0.921398
vt 0.468035 0.867269
vt 0.468098 0.866885
vt 0.470018 0.866862
vt 0.563429 0.88241
vt 0.563133 0.882141
vt 0.56436 0.88015
vt 0.563133 0.882141
vt 0.562914 0.881883
vt 0.564086 0.879989
vt 0.557983 0.926912
vt 0.559386 0.928027
vt 0.559022 0.928182
vt 0.467869 0.855392
vt 0.469825 0.855369
vt 0.469863 0.855751
vt 0.557701 0.927137
vt 0.559022 0.928182
vt 0.558756 0.928471
vt 0.44443 0.868479
vt 0.449574 0.868415
vt 0.4496 0.868797
vt 0.41339 0.902699
vt 0.411592 0.899294
vt 0.411975 0.899159
vt 0.444478 0.86886
vt 0.4496 0.868797
vt 0.449661 0.869075
vt 0.568865 0.883705
vt 0.568515 0.883585
vt 0.570232 0.878816
vt 0.444275 0.857367
vt 0.444313 0.856983
vt 0.449435 0.85692
vt 0.444313 0.856983
vt 0.444426 0.8567
vt 0.449488 0.856638
vt 0.469991 0.867246
vt 0.470018 0.866862
vt 0.472629 0.866828
vt 0.564731 0.880288
vt 0.56436 0.88015
vt 0.564991 0.877586
vt 0.56436 0.88015
vt 0.564086 0.879989
vt 0.564706 0.877466
vt 0.417489 0.900074
vt 0.416819 0.898226
vt 0.417203 0.898256
vt 0.469825 0.855369
vt 0.472452 0.855335
vt 0.472474 0.855717
vt 0.469733 0.855091
vt 0.472403 0.855056
vt 0.472452 0.855335
vt 0.4496 0.868797
vt 0.449574 0.868415
vt 0.45984 0.868271
vt 0.411975 0.899159
vt 0.411592 0.899294
vt 0.411831 0.892366
vt 0.449661 0.869075
vt 0.4496 0.868797
vt 0.459844 0.868653
vt 0.570232 0.878816
vt 0.569901 0.869162
vt 0.570282 0.869124
vt 0.449435 0.85692
vt 0.459684 0.856773
vt 0.459692 0.857153
vt 0.449488 0.856638
vt 0.459676 0.856494
vt 0.459684 0.856773
vt 0.472629 0.866828
vt 0.481345 0.866707
vt 0.481349 0.86709
vt 0.564991 0.877586
vt 0.564909 0.869201
vt 0.565294 0.869226
vt 0.472617 0.867212
vt 0.481349 0.86709
vt 0.481351 0.867372
vt 0.417203 0.898256
vt 0.416819 0.898226
vt 0.416819 0.892222
vt 0.472474 0.855717
vt 0.472452 0.855335
vt 0.481184 0.855213
vt 0.472452 0.855335
vt 0.472403 0.855056
vt 0.481178 0.854934
vt 0.423832 0.886635
vt 0.423814 0.887031
vt 0.420749 0.886158
vt 0.418372 0.938543
vt 0.418361 0.938817
vt 0.415634 0.939323
vt 0.423843 0.886284
vt 0.423832 0.886635
vt 0.420939 0.885802
vt 0.552575 0.925558
vt 0.552581 0.925844
vt 0.418345 0.928268
vt 0.552581 0.925844
vt 0.552584 0.926229
vt 0.418372 0.928653
vt 0.552584 0.926229
vt 0.552586 0.92661
vt 0.418382 0.929033
vt 0.558085 0.890256
vt 0.424179 0.892119
vt 0.424192 0.891783
vt 0.422865 0.918884
vt 0.556783 0.917
vt 0.556779 0.917352
vt 0.422858 0.918488
vt 0.556781 0.916604
vt 0.556783 0.917
vt 0.560792 0.917205
vt 0.560825 0.91681
vt 0.565182 0.917528
vt 0.420409 0.891041
vt 0.42027 0.891358
vt 0.416046 0.889001
vt 0.560696 0.917553
vt 0.560792 0.917205
vt 0.56512 0.917918
vt 0.424239 0.907848
vt 0.424234 0.907497
vt 0.558155 0.905634
vt 0.424234 0.907497
vt 0.424232 0.907101
vt 0.558139 0.905238
vt 0.424232 0.907101
vt 0.424235 0.906765
vt 0.558122 0.904903
vt 0.561897 0.904285
vt 0.565987 0.902555
vt 0.56624 0.902828
vt 0.562149 0.904989
vt 0.566429 0.903178
vt 0.566504 0.903511
vt 0.56204 0.904604
vt 0.56624 0.902828
vt 0.566429 0.903178
vt 0.420939 0.885802
vt 0.420749 0.886158
vt 0.418587 0.884425
vt 0.466453 0.868259
vt 0.466357 0.867878
vt 0.468041 0.867846
vt 0.421073 0.885481
vt 0.420939 0.885802
vt 0.418874 0.884147
vt 0.4157 0.929531
vt 0.413811 0.930434
vt 0.413731 0.930073
vt 0.415494 0.928793
vt 0.413511 0.92974
vt 0.413211 0.929526
vt 0.415645 0.929158
vt 0.413731 0.930073
vt 0.413511 0.92974
vt 0.441129 0.880987
vt 0.444694 0.880926
vt 0.444739 0.881308
vt 0.416046 0.889001
vt 0.413109 0.885795
vt 0.413465 0.885676
vt 0.56512 0.917918
vt 0.568166 0.918927
vt 0.56791 0.919231
vt 0.56624 0.902828
vt 0.565987 0.902555
vt 0.568788 0.900305
vt 0.440975 0.869875
vt 0.441048 0.869492
vt 0.444574 0.869431
vt 0.566429 0.903178
vt 0.56624 0.902828
vt 0.569146 0.900478
vt 0.418587 0.884425
vt 0.417307 0.882402
vt 0.417676 0.882267
vt 0.468041 0.867846
vt 0.469907 0.867815
vt 0.469941 0.868198
vt 0.418874 0.884147
vt 0.417676 0.882267
vt 0.417942 0.882107
vt 0.468206 0.879723
vt 0.468269 0.879339
vt 0.470095 0.879309
vt 0.413211 0.929526
vt 0.413511 0.92974
vt 0.412404 0.930788
vt 0.413511 0.92974
vt 0.413731 0.930073
vt 0.412679 0.931063
vt 0.444694 0.880926
vt 0.449744 0.880849
vt 0.44977 0.881232
vt 0.413109 0.885795
vt 0.411344 0.881073
vt 0.41173 0.881021
vt 0.444739 0.881308
vt 0.44977 0.881232
vt 0.44983 0.881512
vt 0.569146 0.900478
vt 0.568788 0.900305
vt 0.570478 0.896954
vt 0.444539 0.869814
vt 0.444574 0.869431
vt 0.449604 0.869355
vt 0.444574 0.869431
vt 0.444678 0.869151
vt 0.449657 0.869075
vt 0.417307 0.882402
vt 0.416562 0.879737
vt 0.416942 0.879645
vt 0.469907 0.867815
vt 0.472622 0.867775
vt 0.472644 0.868158
vt 0.417676 0.882267
vt 0.416942 0.879645
vt 0.417217 0.879517
vt 0.470072 0.879692
vt 0.470095 0.879309
vt 0.472798 0.879269
vt 0.564915 0.898069
vt 0.564546 0.898078
vt 0.565253 0.896197
vt 0.469997 0.879972
vt 0.470072 0.879692
vt 0.472787 0.879651
vt 0.44977 0.881232
vt 0.449744 0.880849
vt 0.460009 0.880707
vt 0.41173 0.881021
vt 0.411344 0.881073
vt 0.411487 0.871335
vt 0.44983 0.881512
vt 0.44977 0.881232
vt 0.460014 0.88109
vt 0.570478 0.896954
vt 0.570242 0.890088
vt 0.570626 0.890155
vt 0.449604 0.869355
vt 0.459853 0.86921
vt 0.459861 0.869589
vt 0.449657 0.869075
vt 0.459845 0.868933
vt 0.459853 0.86921
vt 0.416942 0.879645
vt 0.416562 0.879737
vt 0.416479 0.871296
vt 0.472644 0.868158
vt 0.472622 0.867775
vt 0.481354 0.867653
vt 0.472622 0.867775
vt 0.472573 0.867494
vt 0.481348 0.867372
vt 0.472798 0.879269
vt 0.481514 0.879148
vt 0.481519 0.87953
vt 0.565253 0.896197
vt 0.565254 0.890232
vt 0.565635 0.890152
vt 0.472787 0.879651
vt 0.481519 0.87953
vt 0.48152 0.879809
vt 0.424794 0.870754
vt 0.424413 0.870754
vt 0.424424 0.870424
vt 0.424424 0.870424
vt 0.424413 0.870754
vt 0.424028 0.870758
vt 0.423743 0.870764
vt 0.423825 0.870381
vt 0.424046 0.870428
vt 0.459846 0.868932
vt 0.459844 0.868653
vt 0.460175 0.868596
vt 0.45984 0.868271
vt 0.460223 0.868265
vt 0.460175 0.868596
vt 0.424587 0.870098
vt 0.424736 0.870372
vt 0.424424 0.870424
vt 0.569901 0.869162
vt 0.569889 0.868766
vt 0.57022 0.868793
vt 0.569889 0.868766
vt 0.569876 0.868415
vt 0.570209 0.86845
vt 0.434303 0.870804
vt 0.434248 0.870422
vt 0.434501 0.870477
vt 0.460284 0.856817
vt 0.460347 0.857147
vt 0.460072 0.857149
vt 0.459692 0.857153
vt 0.459684 0.856773
vt 0.460014 0.856821
vt 0.57049 0.868706
vt 0.570557 0.869036
vt 0.570282 0.869124
vt 0.481345 0.866707
vt 0.481727 0.866702
vt 0.481679 0.867034
vt 0.481679 0.867034
vt 0.481727 0.866702
vt 0.482005 0.866699
vt 0.434367 0.875396
vt 0.434642 0.875401
vt 0.434572 0.875733
vt 0.56495 0.868523
vt 0.565281 0.868479
vt 0.565288 0.86883
vt 0.565294 0.869226
vt 0.564909 0.869201
vt 0.564957 0.868867
vt 0.564957 0.868867
vt 0.564909 0.869201
vt 0.564624 0.869122
vt 0.423807 0.875369
vt 0.424092 0.875356
vt 0.42412 0.875689
vt 0.424092 0.875356
vt 0.424477 0.875348
vt 0.424497 0.875681
vt 0.424858 0.875346
vt 0.42481 0.875732
vt 0.424497 0.875681
vt 0.42481 0.875732
vt 0.424669 0.876022
vt 0.424358 0.875964
vt 0.48119 0.855596
vt 0.481184 0.855213
vt 0.481515 0.855261
vt 0.481184 0.855213
vt 0.481178 0.854934
vt 0.481509 0.854988
vt 0.43445 0.881313
vt 0.434724 0.88132
vt 0.434655 0.881654
vt 0.411538 0.870657
vt 0.411871 0.870613
vt 0.411873 0.870964
vt 0.411872 0.87136
vt 0.411487 0.871335
vt 0.411541 0.871001
vt 0.411487 0.871335
vt 0.411202 0.871256
vt 0.411262 0.870923
vt 0.460009 0.880707
vt 0.460392 0.880702
vt 0.460344 0.881034
vt 0.460392 0.880702
vt 0.46067 0.880699
vt 0.460616 0.881031
vt 0.423889 0.881299
vt 0.424175 0.88128
vt 0.424202 0.881614
vt 0.424175 0.88128
vt 0.424559 0.881266
vt 0.424578 0.881601
vt 0.42494 0.881263
vt 0.424891 0.881652
vt 0.424578 0.881601
vt 0.424578 0.881601
vt 0.424891 0.881652
vt 0.42475 0.881946
vt 0.459861 0.869589
vt 0.459853 0.86921
vt 0.460183 0.869258
vt 0.460183 0.869258
vt 0.459853 0.86921
vt 0.459845 0.868933
vt 0.434386 0.876721
vt 0.434327 0.876342
vt 0.434581 0.876397
vt 0.481957 0.867695
vt 0.48202 0.868025
vt 0.481742 0.86803
vt 0.48136 0.868036
vt 0.481354 0.867653
vt 0.481685 0.8677
vt 0.417135 0.871174
vt 0.41686 0.87126
vt 0.416804 0.870928
vt 0.416479 0.871296
vt 0.416474 0.8709
vt 0.416804 0.870928
vt 0.416804 0.870928
vt 0.416474 0.8709
vt 0.416466 0.870549
vt 0.424876 0.876671
vt 0.424496 0.876673
vt 0.424506 0.876345
vt 0.424496 0.876673
vt 0.424111 0.876681
vt 0.424129 0.876353
vt 0.423825 0.876694
vt 0.423907 0.876312
vt 0.424129 0.876353
vt 0.48185 0.879747
vt 0.48152 0.879809
vt 0.481519 0.87953
vt 0.481514 0.879148
vt 0.481896 0.879142
vt 0.481848 0.879473
vt 0.424669 0.876022
vt 0.424818 0.876292
vt 0.424506 0.876345
f 8/1 35/2 6/3
f 6/4 9/5 7/6
f 76/7 37/8 75/9
f 12/10 60/11 61/12
f 13/13 34/14 33/15
f 15/16 23/17 24/18
f 17/19 18/20 16/21
f 64/22 31/23 17/24
f 20/25 43/26 19/27
f 20/28 22/29 21/30
f 21/31 28/32 27/33
f 70/34 45/35 69/36
f 25/37 71/38 26/39
f 71/40 29/41 26/42
f 27/43 46/44 56/45
f 30/46 47/47 29/48
f 65/49 32/50 31/51
f 66/52 52/53 32/54
f 33/55 42/56 41/57
f 36/58 38/59 35/60
f 75/61 40/62 74/63
f 39/64 49/65 38/66
f 74/67 50/68 73/69
f 41/70 51/71 57/72
f 44/73 54/74 43/75
f 69/76 55/77 68/78
f 46/79 48/80 56/81
f 47/82 73/83 50/84
f 57/85 54/86 53/87
f 52/88 68/89 55/90
f 34/91 24/92 4/93
f 31/94 5/95 17/96
f 3/97 6/98 35/99
f 61/100 37/101 12/102
f 26/103 1/104 25/105
f 4/106 22/107 19/108
f 38/109 49/110 46/111
f 50/112 40/113 29/114
f 4/115 19/116 43/117
f 55/118 45/119 32/120
f 6/121 7/122 8/123
f 76/124 11/125 12/126
f 13/127 14/128 15/129
f 16/130 64/131 17/132
f 4/133 59/134 3/135
f 63/136 5/137 1/138
f 62/139 1/140 2/141
f 10/142 60/143 9/144
f 59/145 61/146 10/147
f 58/148 62/149 59/150
f 5/151 58/152 24/153
f 18/154 24/155 23/156
f 16/157 23/158 14/159
f 16/160 13/161 64/162
f 64/163 33/164 65/165
f 65/166 41/167 66/168
f 66/169 57/170 67/171
f 68/172 57/173 53/174
f 69/175 53/176 44/177
f 69/178 20/179 70/180
f 70/181 21/182 71/183
f 30/184 21/185 27/186
f 30/187 56/188 72/189
f 72/190 48/191 73/192
f 74/193 48/194 39/195
f 75/196 39/197 36/198
f 75/199 8/200 76/201
f 76/202 7/203 11/204
f 9/205 11/206 7/207
f 80/208 82/209 81/210
f 79/211 83/212 82/213
f 78/214 84/215 83/216
f 87/217 89/218 88/219
f 86/220 90/221 87/222
f 85/223 91/224 86/225
f 95/226 97/227 96/228
f 94/229 98/230 95/231
f 93/232 99/233 94/234
f 104/235 106/236 105/237
f 103/238 107/239 106/240
f 102/241 108/242 107/243
f 158/244 192/245 159/246
f 157/247 184/248 158/249
f 165/250 185/251 157/252
f 164/253 168/254 165/255
f 163/256 169/257 164/258
f 162/259 170/260 163/261
f 168/262 178/263 177/264
f 167/265 179/266 178/267
f 166/268 180/269 179/270
f 176/271 186/272 177/273
f 175/274 187/275 176/276
f 183/277 188/278 175/279
f 199/280 221/281 200/282
f 198/283 222/284 199/285
f 197/286 223/287 198/288
f 204/289 206/290 205/291
f 203/292 207/293 206/294
f 202/295 208/296 207/297
f 211/298 213/299 212/300
f 210/301 214/302 211/303
f 209/304 215/305 210/306
f 274/307 296/308 275/309
f 273/310 297/311 274/312
f 281/313 298/314 273/315
f 280/316 284/317 281/318
f 279/319 285/320 280/321
f 278/322 286/323 279/324
f 284/325 300/326 308/327
f 283/328 301/329 300/330
f 282/331 302/332 301/333
f 292/334 305/335 293/336
f 291/337 306/338 292/339
f 299/340 307/341 291/342
f 93/343 197/344 104/345
f 88/346 84/347 77/348
f 96/349 92/350 85/351
f 104/352 100/353 93/354
f 101/355 81/356 108/357
f 89/358 112/359 84/360
f 97/361 116/362 92/363
f 105/364 120/365 100/366
f 108/367 109/368 124/369
f 113/370 128/371 112/372
f 117/373 132/374 116/375
f 121/376 136/377 120/378
f 124/379 125/380 140/381
f 129/382 144/383 128/384
f 133/385 148/386 132/387
f 137/388 152/389 136/390
f 140/391 141/392 156/393
f 145/394 162/395 144/396
f 149/397 174/398 148/399
f 153/400 183/401 152/402
f 156/403 159/404 192/405
f 213/406 201/407 212/408
f 205/409 196/410 204/411
f 217/412 197/413 193/414
f 200/415 216/416 209/417
f 229/418 208/419 213/420
f 225/421 220/422 205/423
f 233/424 224/425 217/426
f 221/427 232/428 216/429
f 245/430 228/431 229/432
f 241/433 236/434 225/435
f 249/436 240/437 233/438
f 237/439 248/440 232/441
f 261/442 244/443 245/444
f 257/445 252/446 241/447
f 265/448 256/449 249/450
f 253/451 264/452 248/453
f 261/454 278/455 260/456
f 275/457 268/458 257/459
f 293/460 272/461 265/462
f 269/463 290/464 264/465
f 212/466 88/467 77/468
f 204/469 96/470 85/471
f 101/472 209/473 80/474
f 177/475 165/476 168/477
f 281/478 308/479 299/480
f 83/481 112/482 111/483
f 81/484 110/485 109/486
f 82/487 111/488 110/489
f 92/490 115/491 91/492
f 90/493 113/494 89/495
f 91/496 114/497 90/498
f 96/499 195/500 95/501
f 94/502 193/503 93/504
f 95/505 194/506 94/507
f 100/508 119/509 99/510
f 98/511 117/512 97/513
f 99/514 118/515 98/516
f 107/517 124/518 123/519
f 105/520 122/521 121/522
f 106/523 123/524 122/525
f 112/526 127/527 111/528
f 110/529 125/530 109/531
f 111/532 126/533 110/534
f 115/535 132/536 131/537
f 113/538 130/539 129/540
f 114/541 131/542 130/543
f 119/544 136/545 135/546
f 117/547 134/548 133/549
f 118/550 135/551 134/552
f 124/553 139/554 123/555
f 122/556 137/557 121/558
f 123/559 138/560 122/561
f 128/562 143/563 127/564
f 126/565 141/566 125/567
f 127/568 142/569 126/570
f 131/571 148/572 147/573
f 129/574 146/575 145/576
f 130/577 147/578 146/579
f 135/580 152/581 151/582
f 133/583 150/584 149/585
f 134/586 151/587 150/588
f 140/589 155/590 139/591
f 138/592 153/593 137/594
f 139/595 154/596 138/597
f 143/598 162/599 161/600
f 141/601 160/602 159/603
f 142/604 161/605 160/606
f 148/607 173/608 147/609
f 146/610 171/611 145/612
f 147/613 172/614 146/615
f 152/616 182/617 151/618
f 150/619 180/620 149/621
f 151/622 181/623 150/624
f 155/625 192/626 191/627
f 153/628 190/629 189/630
f 154/631 191/632 190/633
f 195/634 220/635 219/636
f 193/637 218/638 217/639
f 194/640 219/641 218/642
f 101/643 199/644 200/645
f 102/646 198/647 199/648
f 103/649 197/650 198/651
f 86/652 204/653 85/654
f 87/655 203/656 86/657
f 88/658 202/659 87/660
f 207/661 228/662 227/663
f 205/664 226/665 225/666
f 206/667 227/668 226/669
f 77/670 211/671 212/672
f 78/673 210/674 211/675
f 79/676 209/677 210/678
f 216/679 231/680 215/681
f 214/682 229/683 213/684
f 215/685 230/686 214/687
f 219/688 236/689 235/690
f 217/691 234/692 233/693
f 218/694 235/695 234/696
f 224/697 239/698 223/699
f 222/700 237/701 221/702
f 223/703 238/704 222/705
f 228/706 243/707 227/708
f 226/709 241/710 225/711
f 227/712 242/713 226/714
f 231/715 248/716 247/717
f 229/718 246/719 245/720
f 230/721 247/722 246/723
f 236/724 251/725 235/726
f 234/727 249/728 233/729
f 235/730 250/731 234/732
f 239/733 256/734 255/735
f 237/736 254/737 253/738
f 238/739 255/740 254/741
f 244/742 259/743 243/744
f 242/745 257/746 241/747
f 243/748 258/749 242/750
f 247/751 264/752 263/753
f 245/754 262/755 261/756
f 246/757 263/758 262/759
f 252/760 267/761 251/762
f 250/763 265/764 249/765
f 251/766 266/767 250/768
f 255/769 272/770 271/771
f 253/772 270/773 269/774
f 254/775 271/776 270/777
f 259/778 278/779 277/780
f 257/781 276/782 275/783
f 258/784 277/785 276/786
f 264/787 289/788 263/789
f 262/790 287/791 261/792
f 263/793 288/794 262/795
f 267/796 296/797 295/798
f 265/799 294/800 293/801
f 266/802 295/803 294/804
f 272/805 304/806 271/807
f 270/808 302/809 269/810
f 271/811 303/812 270/813
f 165/814 309/815 164/816
f 309/817 158/818 310/819
f 159/820 310/821 158/822
f 160/823 311/824 310/825
f 162/826 311/827 161/828
f 163/829 309/830 311/831
f 309/832 310/833 311/834
f 174/835 312/836 173/837
f 166/838 313/839 312/840
f 168/841 313/842 167/843
f 313/844 170/845 314/846
f 171/847 314/848 170/849
f 314/850 173/851 312/852
f 312/853 313/854 314/855
f 183/856 315/857 182/858
f 315/859 176/860 316/861
f 177/862 316/863 176/864
f 316/865 179/866 317/867
f 180/868 317/869 179/870
f 317/871 182/872 315/873
f 315/874 316/875 317/876
f 192/877 318/878 191/879
f 184/880 319/881 318/882
f 186/883 319/884 185/885
f 187/886 320/887 319/888
f 189/889 320/890 188/891
f 190/892 318/893 320/894
f 318/895 319/896 320/897
f 281/898 321/899 280/900
f 321/901 274/902 322/903
f 275/904 322/905 274/906
f 276/907 323/908 322/909
f 278/910 323/911 277/912
f 279/913 321/914 323/915
f 321/916 322/917 323/918
f 290/919 324/920 289/921
f 282/922 325/923 324/924
f 284/925 325/926 283/927
f 325/928 286/929 326/930
f 287/931 326/932 286/933
f 326/934 289/935 324/936
f 324/937 325/938 326/939
f 299/940 327/941 298/942
f 327/943 292/944 328/945
f 293/946 328/947 292/948
f 294/949 329/950 328/951
f 296/952 329/953 295/954
f 329/955 298/956 327/957
f 327/958 328/959 329/960
f 308/961 330/962 307/963
f 300/964 331/965 330/966
f 302/967 331/968 301/969
f 331/970 304/971 332/972
f 305/973 332/974 304/975
f 306/976 330/977 332/978
f 330/979 331/980 332/981
f 8/982 36/983 35/984
f 6/985 10/986 9/987
f 76/988 12/989 37/990
f 12/991 11/992 60/993
f 13/994 15/995 34/996
f 15/997 14/998 23/999
f 17/1000 5/1001 18/1002
f 64/1003 65/1004 31/1005
f 20/1006 44/1007 43/1008
f 20/1009 19/1010 22/1011
f 21/1012 22/1013 28/1014
f 70/1015 25/1016 45/1017
f 25/1018 70/1019 71/1020
f 71/1021 30/1022 29/1023
f 27/1024 28/1025 46/1026
f 30/1027 72/1028 47/1029
f 65/1030 66/1031 32/1032
f 66/1033 67/1034 52/1035
f 33/1036 34/1037 42/1038
f 36/1039 39/1040 38/1041
f 75/1042 37/1043 40/1044
f 39/1045 48/1046 49/1047
f 74/1048 40/1049 50/1050
f 41/1051 42/1052 51/1053
f 44/1054 53/1055 54/1056
f 69/1057 45/1058 55/1059
f 46/1060 49/1061 48/1062
f 47/1063 72/1064 73/1065
f 57/1066 51/1067 54/1068
f 52/1069 67/1070 68/1071
f 34/1072 15/1073 24/1074
f 31/1075 1/1076 5/1077
f 3/1078 10/1079 6/1080
f 61/1081 2/1082 37/1083
f 26/1084 2/1085 1/1086
f 4/1087 3/1088 22/1089
f 46/1090 28/1091 38/1092
f 28/1093 22/1094 3/1095
f 35/1096 28/1097 3/1098
f 35/1099 38/1100 28/1101
f 40/1102 37/1103 29/1104
f 37/1105 2/1106 29/1107
f 2/1108 26/1109 29/1110
f 29/1111 47/1112 50/1113
f 43/1114 54/1115 51/1116
f 51/1117 42/1118 43/1119
f 42/1120 34/1121 43/1122
f 34/1123 4/1124 43/1125
f 45/1126 25/1127 1/1128
f 1/1129 31/1130 45/1131
f 31/1132 32/1133 45/1134
f 32/1135 52/1136 55/1137
f 10/1138 3/1139 59/1140
f 4/1141 58/1142 59/1143
f 58/1144 4/1145 24/1146
f 62/1147 63/1148 1/1149
f 62/1150 2/1151 61/1152
f 10/1153 61/1154 60/1155
f 59/1156 62/1157 61/1158
f 58/1159 63/1160 62/1161
f 5/1162 63/1163 58/1164
f 18/1165 5/1166 24/1167
f 16/1168 18/1169 23/1170
f 16/1171 14/1172 13/1173
f 64/1174 13/1175 33/1176
f 65/1177 33/1178 41/1179
f 66/1180 41/1181 57/1182
f 68/1183 67/1184 57/1185
f 69/1186 68/1187 53/1188
f 69/1189 44/1190 20/1191
f 70/1192 20/1193 21/1194
f 30/1195 71/1196 21/1197
f 30/1198 27/1199 56/1200
f 72/1201 56/1202 48/1203
f 74/1204 73/1205 48/1206
f 75/1207 74/1208 39/1209
f 75/1210 36/1211 8/1212
f 76/1213 8/1214 7/1215
f 9/1216 60/1217 11/1218
f 80/1219 79/1220 82/1221
f 79/1222 78/1223 83/1224
f 78/1225 77/1226 84/1227
f 87/1228 90/1229 89/1230
f 86/1231 91/1232 90/1233
f 85/1234 92/1235 91/1236
f 95/1237 98/1238 97/1239
f 94/1240 99/1241 98/1242
f 93/1243 100/1244 99/1245
f 104/1246 103/1247 106/1248
f 103/1249 102/1250 107/1251
f 102/1252 101/1253 108/1254
f 158/1255 184/1256 192/1257
f 157/1258 185/1259 184/1260
f 165/1261 186/1262 185/1263
f 164/1264 169/1265 168/1266
f 163/1267 170/1268 169/1269
f 162/1270 171/1271 170/1272
f 168/1273 167/1274 178/1275
f 167/1276 166/1277 179/1278
f 166/1279 174/1280 180/1281
f 176/1282 187/1283 186/1284
f 175/1285 188/1286 187/1287
f 183/1288 189/1289 188/1290
f 199/1291 222/1292 221/1293
f 198/1294 223/1295 222/1296
f 197/1297 224/1298 223/1299
f 204/1300 203/1301 206/1302
f 203/1303 202/1304 207/1305
f 202/1306 201/1307 208/1308
f 211/1309 214/1310 213/1311
f 210/1312 215/1313 214/1314
f 209/1315 216/1316 215/1317
f 274/1318 297/1319 296/1320
f 273/1321 298/1322 297/1323
f 281/1324 299/1325 298/1326
f 280/1327 285/1328 284/1329
f 279/1330 286/1331 285/1332
f 278/1333 287/1334 286/1335
f 284/1336 283/1337 300/1338
f 283/1339 282/1340 301/1341
f 282/1342 290/1343 302/1344
f 292/1345 306/1346 305/1347
f 291/1348 307/1349 306/1350
f 299/1351 308/1352 307/1353
f 93/1354 193/1355 197/1356
f 88/1357 89/1358 84/1359
f 96/1360 97/1361 92/1362
f 104/1363 105/1364 100/1365
f 101/1366 80/1367 81/1368
f 89/1369 113/1370 112/1371
f 97/1372 117/1373 116/1374
f 105/1375 121/1376 120/1377
f 108/1378 81/1379 109/1380
f 113/1381 129/1382 128/1383
f 117/1384 133/1385 132/1386
f 121/1387 137/1388 136/1389
f 124/1390 109/1391 125/1392
f 129/1393 145/1394 144/1395
f 133/1396 149/1397 148/1398
f 137/1399 153/1400 152/1401
f 140/1402 125/1403 141/1404
f 145/1405 171/1406 162/1407
f 149/1408 180/1409 174/1410
f 153/1411 189/1412 183/1413
f 156/1414 141/1415 159/1416
f 213/1417 208/1418 201/1419
f 205/1420 220/1421 196/1422
f 217/1423 224/1424 197/1425
f 200/1426 221/1427 216/1428
f 229/1429 228/1430 208/1431
f 225/1432 236/1433 220/1434
f 233/1435 240/1436 224/1437
f 221/1438 237/1439 232/1440
f 245/1441 244/1442 228/1443
f 241/1444 252/1445 236/1446
f 249/1447 256/1448 240/1449
f 237/1450 253/1451 248/1452
f 261/1453 260/1454 244/1455
f 257/1456 268/1457 252/1458
f 265/1459 272/1460 256/1461
f 253/1462 269/1463 264/1464
f 261/1465 287/1466 278/1467
f 275/1468 296/1469 268/1470
f 293/1471 305/1472 272/1473
f 269/1474 302/1475 290/1476
f 212/1477 201/1478 88/1479
f 204/1480 196/1481 96/1482
f 101/1483 200/1484 209/1485
f 177/1486 186/1487 165/1488
f 281/1489 284/1490 308/1491
f 83/1492 84/1493 112/1494
f 81/1495 82/1496 110/1497
f 82/1498 83/1499 111/1500
f 92/1501 116/1502 115/1503
f 90/1504 114/1505 113/1506
f 91/1507 115/1508 114/1509
f 96/1510 196/1511 195/1512
f 94/1513 194/1514 193/1515
f 95/1516 195/1517 194/1518
f 100/1519 120/1520 119/1521
f 98/1522 118/1523 117/1524
f 99/1525 119/1526 118/1527
f 107/1528 108/1529 124/1530
f 105/1531 106/1532 122/1533
f 106/1534 107/1535 123/1536
f 112/1537 128/1538 127/1539
f 110/1540 126/1541 125/1542
f 111/1543 127/1544 126/1545
f 115/1546 116/1547 132/1548
f 113/1549 114/1550 130/1551
f 114/1552 115/1553 131/1554
f 119/1555 120/1556 136/1557
f 117/1558 118/1559 134/1560
f 118/1561 119/1562 135/1563
f 124/1564 140/1565 139/1566
f 122/1567 138/1568 137/1569
f 123/1570 139/1571 138/1572
f 128/1573 144/1574 143/1575
f 126/1576 142/1577 141/1578
f 127/1579 143/1580 142/1581
f 131/1582 132/1583 148/1584
f 129/1585 130/1586 146/1587
f 130/1588 131/1589 147/1590
f 135/1591 136/1592 152/1593
f 133/1594 134/1595 150/1596
f 134/1597 135/1598 151/1599
f 140/1600 156/1601 155/1602
f 138/1603 154/1604 153/1605
f 139/1606 155/1607 154/1608
f 143/1609 144/1610 162/1611
f 141/1612 142/1613 160/1614
f 142/1615 143/1616 161/1617
f 148/1618 174/1619 173/1620
f 146/1621 172/1622 171/1623
f 147/1624 173/1625 172/1626
f 152/1627 183/1628 182/1629
f 150/1630 181/1631 180/1632
f 151/1633 182/1634 181/1635
f 155/1636 156/1637 192/1638
f 153/1639 154/1640 190/1641
f 154/1642 155/1643 191/1644
f 195/1645 196/1646 220/1647
f 193/1648 194/1649 218/1650
f 194/1651 195/1652 219/1653
f 101/1654 102/1655 199/1656
f 102/1657 103/1658 198/1659
f 103/1660 104/1661 197/1662
f 86/1663 203/1664 204/1665
f 87/1666 202/1667 203/1668
f 88/1669 201/1670 202/1671
f 207/1672 208/1673 228/1674
f 205/1675 206/1676 226/1677
f 206/1678 207/1679 227/1680
f 77/1681 78/1682 211/1683
f 78/1684 79/1685 210/1686
f 79/1687 80/1688 209/1689
f 216/1690 232/1691 231/1692
f 214/1693 230/1694 229/1695
f 215/1696 231/1697 230/1698
f 219/1699 220/1700 236/1701
f 217/1702 218/1703 234/1704
f 218/1705 219/1706 235/1707
f 224/1708 240/1709 239/1710
f 222/1711 238/1712 237/1713
f 223/1714 239/1715 238/1716
f 228/1717 244/1718 243/1719
f 226/1720 242/1721 241/1722
f 227/1723 243/1724 242/1725
f 231/1726 232/1727 248/1728
f 229/1729 230/1730 246/1731
f 230/1732 231/1733 247/1734
f 236/1735 252/1736 251/1737
f 234/1738 250/1739 249/1740
f 235/1741 251/1742 250/1743
f 239/1744 240/1745 256/1746
f 237/1747 238/1748 254/1749
f 238/1750 239/1751 255/1752
f 244/1753 260/1754 259/1755
f 242/1756 258/1757 257/1758
f 243/1759 259/1760 258/1761
f 247/1762 248/1763 264/1764
f 245/1765 246/1766 262/1767
f 246/1768 247/1769 263/1770
f 252/1771 268/1772 267/1773
f 250/1774 266/1775 265/1776
f 251/1777 267/1778 266/1779
f 255/1780 256/1781 272/1782
f 253/1783 254/1784 270/1785
f 254/1786 255/1787 271/1788
f 259/1789 260/1790 278/1791
f 257/1792 258/1793 276/1794
f 258/1795 259/1796 277/1797
f 264/1798 290/1799 289/1800
f 262/1801 288/1802 287/1803
f 263/1804 289/1805 288/1806
f 267/1807 268/1808 296/1809
f 265/1810 266/1811 294/1812
f 266/1813 267/1814 295/1815
f 272/1816 305/1817 304/1818
f 270/1819 303/1820 302/1821
f 271/1822 304/1823 303/1824
f 165/1825 157/1826 309/1827
f 309/1828 157/1829 158/1830
f 159/1831 160/1832 310/1833
f 160/1834 161/1835 311/1836
f 162/1837 163/1838 311/1839
f 163/1840 164/1841 309/1842
f 174/1843 166/1844 312/1845
f 166/1846 167/1847 313/1848
f 168/1849 169/1850 313/1851
f 313/1852 169/1853 170/1854
f 171/1855 172/1856 314/1857
f 314/1858 172/1859 173/1860
f 183/1861 175/1862 315/1863
f 315/1864 175/1865 176/1866
f 177/1867 178/1868 316/1869
f 316/1870 178/1871 179/1872
f 180/1873 181/1874 317/1875
f 317/1876 181/1877 182/1878
f 192/1879 184/1880 318/1881
f 184/1882 185/1883 319/1884
f 186/1885 187/1886 319/1887
f 187/1888 188/1889 320/1890
f 189/1891 190/1892 320/1893
f 190/1894 191/1895 318/1896
f 281/1897 273/1898 321/1899
f 321/1900 273/1901 274/1902
f 275/1903 276/1904 322/1905
f 276/1906 277/1907 323/1908
f 278/1909 279/1910 323/1911
f 279/1912 280/1913 321/1914
f 290/1915 282/1916 324/1917
f 282/1918 283/1919 325/1920
f 284/1921 285/1922 325/1923
f 325/1924 285/1925 286/1926
f 287/1927 288/1928 326/1929
f 326/1930 288/1931 289/1932
f 299/1933 291/1934 327/1935
f 327/1936 291/1937 292/1938
f 293/1939 294/1940 328/1941
f 294/1942 295/1943 329/1944
f 296/1945 297/1946 329/1947
f 329/1948 297/1949 298/1950
f 308/1951 300/1952 330/1953
f 300/1954 301/1955 331/1956
f 302/1957 303/1958 331/1959
f 331/1960 303/1961 304/1962
f 305/1963 306/1964 332/1965
f 306/1966 307/1967 330/1968
