o CoffeeMachine039_Lid003
v 0.000137 0.217103 0.131666
v 0.000137 0.217103 0.123562
v 0.048485 0.154239 0.130369
v 0.048407 0.154619 0.131286
v 0.048219 0.155536 0.131666
v -0.048229 0.154239 0.130369
v -0.048151 0.154619 0.131286
v -0.047963 0.155536 0.131666
v -0.048229 0.154239 0.124858
v -0.048151 0.154619 0.123941
v -0.047963 0.155536 0.123562
v 0.048485 0.154239 0.124858
v 0.048407 0.154619 0.123941
v 0.048219 0.155536 0.123562
v 0.007756 0.268491 0.124858
v 0.00773 0.268111 0.123941
v 0.007667 0.267194 0.123562
v -0.007499 0.268491 0.124858
v -0.007469 0.268111 0.123941
v -0.007395 0.267194 0.123562
v -0.007499 0.268491 0.130369
v -0.007469 0.268111 0.131286
v -0.007395 0.267194 0.131666
v 0.007756 0.268491 0.130369
v 0.00773 0.268111 0.131286
v 0.007667 0.267194 0.131666
v 0.07072 0.190136 0.130369
v 0.070339 0.190137 0.131286
v 0.069419 0.190137 0.131666
v 0.069413 0.175888 0.130369
v 0.06904 0.175978 0.131286
v 0.068139 0.176195 0.131666
v 0.069413 0.175888 0.124858
v 0.06904 0.175978 0.123941
v 0.068139 0.176195 0.123562
v 0.07072 0.190136 0.124858
v 0.070339 0.190137 0.123941
v 0.069419 0.190137 0.123562
v -0.07072 0.190192 0.124858
v -0.070338 0.190192 0.123941
v -0.069416 0.190193 0.123562
v -0.069157 0.175888 0.124858
v -0.068785 0.175981 0.123941
v -0.067887 0.176205 0.123562
v -0.069157 0.175888 0.130369
v -0.068785 0.175981 0.131286
v -0.067887 0.176205 0.131666
v -0.07072 0.190192 0.130369
v -0.070338 0.190192 0.131286
v -0.069416 0.190193 0.131666
v -0.066692 0.221482 0.130369
v -0.066322 0.221385 0.131286
v -0.06543 0.221152 0.131666
v -0.060896 0.236599 0.130369
v -0.060559 0.236419 0.131286
v -0.059744 0.235984 0.131666
v -0.060896 0.236599 0.124858
v -0.060559 0.236419 0.123941
v -0.059744 0.235984 0.123562
v -0.066692 0.221482 0.124858
v -0.066322 0.221385 0.123941
v -0.06543 0.221152 0.123562
v -0.05128 0.25021 0.130369
v -0.051004 0.249943 0.131286
v -0.050338 0.249296 0.131666
v -0.038328 0.259946 0.130369
v -0.03814 0.259612 0.131286
v -0.037686 0.258806 0.131666
v -0.038328 0.259946 0.124858
v -0.03814 0.259612 0.123941
v -0.037686 0.258806 0.123562
v -0.05128 0.25021 0.124858
v -0.051004 0.249943 0.123941
v -0.050338 0.249296 0.123562
v -0.023447 0.265916 0.130369
v -0.023345 0.265548 0.131286
v -0.023098 0.264659 0.131666
v -0.023447 0.265916 0.124858
v -0.023345 0.265548 0.123941
v -0.023098 0.264659 0.123562
v 0.023988 0.266261 0.130369
v 0.023885 0.265892 0.131286
v 0.023636 0.265001 0.131666
v 0.038584 0.259946 0.130369
v 0.038391 0.259615 0.131286
v 0.037925 0.258818 0.131666
v 0.038584 0.259946 0.124858
v 0.038391 0.259615 0.123941
v 0.037925 0.258818 0.123562
v 0.023988 0.266261 0.124858
v 0.023885 0.265892 0.123941
v 0.023636 0.265001 0.123562
v 0.051722 0.249948 0.130369
v 0.051445 0.249682 0.131286
v 0.050778 0.249037 0.131666
v 0.061152 0.236599 0.130369
v 0.060814 0.23642 0.131286
v 0.059997 0.235988 0.131666
v 0.061152 0.236599 0.124858
v 0.060814 0.23642 0.123941
v 0.059997 0.235988 0.123562
v 0.051722 0.249948 0.124858
v 0.051445 0.249682 0.123941
v 0.050778 0.249037 0.123562
v 0.06693 0.22121 0.130369
v 0.066561 0.221114 0.131286
v 0.065668 0.220882 0.131666
v 0.069413 0.204708 0.130369
v 0.069036 0.204663 0.131286
v 0.068125 0.204554 0.131666
v 0.069413 0.204708 0.124858
v 0.069036 0.204663 0.123941
v 0.068125 0.204554 0.123562
v 0.06693 0.22121 0.124858
v 0.066561 0.221114 0.123941
v 0.065668 0.220882 0.123562
v -0.063027 0.16058 0.124858
v -0.062733 0.160867 0.123941
v -0.062023 0.16156 0.123562
v -0.063027 0.16058 0.130369
v -0.062733 0.160867 0.131286
v -0.062023 0.16156 0.131666
v 0.063283 0.16058 0.124858
v 0.062989 0.160867 0.123941
v 0.062279 0.16156 0.123562
v 0.063283 0.16058 0.130369
v 0.062989 0.160867 0.131286
v 0.062279 0.16156 0.131666
v -0.069157 0.204708 0.130369
v -0.06878 0.20466 0.131286
v -0.06787 0.204544 0.131666
v -0.069157 0.204708 0.124858
v -0.06878 0.20466 0.123941
v -0.06787 0.204544 0.123562
v -0.031099 0.285507 0.125968
v -0.031099 0.258464 0.125968
v -0.031099 0.285507 0.129071
v -0.031099 0.258464 0.129071
v -0.026392 0.285507 0.125968
v -0.026392 0.258464 0.125968
v -0.026392 0.285507 0.129071
v -0.026392 0.258464 0.129071
v 0.028896 0.285507 0.125968
v 0.028896 0.258464 0.125968
v 0.028896 0.285507 0.129071
v 0.028896 0.258464 0.129071
v 0.033603 0.285507 0.125968
v 0.033603 0.258464 0.125968
v 0.033603 0.285507 0.129071
v 0.033603 0.258464 0.129071
v -0.026567 0.285204 0.126225
v -0.026567 0.282206 0.126225
v -0.026567 0.285204 0.128642
v -0.026567 0.282206 0.128642
v 0.029044 0.285204 0.126225
v 0.029044 0.282206 0.126225
v 0.029044 0.285204 0.128642
v 0.029044 0.282206 0.128642
vt 0.52049404 0.6137157
vt 0.5161741 0.53790075
vt 0.52049404 0.53790075
vt 0.4998981 0.5504667
vt 0.49557808 0.56242573
vt 0.49557707 0.5504667
vt 0.513628 0.5810247
vt 0.50930804 0.5921937
vt 0.50930804 0.5810247
vt 0.5024431 0.5495137
vt 0.50676304 0.53830075
vt 0.50676304 0.5495137
vt 0.50676304 0.57404274
vt 0.5024431 0.58589274
vt 0.5024431 0.57404274
vt 0.50676304 0.59656274
vt 0.5024431 0.6041947
vt 0.5024431 0.59656274
vt 0.49557808 0.56242573
vt 0.4998981 0.57492775
vt 0.49557808 0.57492775
vt 0.49557808 0.53774273
vt 0.4998981 0.5263007
vt 0.4998981 0.53774273
vt 0.513628 0.5341367
vt 0.50930804 0.54460174
vt 0.50930804 0.5341367
vt 0.513628 0.5566657
vt 0.50930804 0.5696017
vt 0.50930804 0.5566657
vt 0.5024431 0.5263007
vt 0.50676304 0.53830075
vt 0.5024431 0.53830075
vt 0.5161741 0.6137157
vt 0.52049404 0.62531674
vt 0.5161741 0.62531674
vt 0.5161741 0.5262997
vt 0.52049404 0.53790075
vt 0.5161741 0.53790075
vt 0.50930804 0.5921937
vt 0.513628 0.6041947
vt 0.50930804 0.6041947
vt 0.513628 0.5566657
vt 0.50930804 0.54460174
vt 0.5136291 0.54460174
vt 0.50930804 0.5696017
vt 0.513628 0.5810247
vt 0.50930804 0.5810247
vt 0.513628 0.5341367
vt 0.50930804 0.5263007
vt 0.5136291 0.5263007
vt 0.49557808 0.53774273
vt 0.4998981 0.5504667
vt 0.49557707 0.5504667
vt 0.49557808 0.57492775
vt 0.4998981 0.58659273
vt 0.49557707 0.58659273
vt 0.50676304 0.59656274
vt 0.5024431 0.58589274
vt 0.50676304 0.58589274
vt 0.50676304 0.57404274
vt 0.5024431 0.5608927
vt 0.50676304 0.5608927
vt 0.50676304 0.5608927
vt 0.5024431 0.5495137
vt 0.50676304 0.5495137
vt 0.34208706 0.5080387
vt 0.34208706 0.43264073
vt 0.39035007 0.47033268
vt 0.42961806 0.46442974
vt 0.42961806 0.4762377
vt 0.39035007 0.47033268
vt 0.35828206 0.41702574
vt 0.36921206 0.41602176
vt 0.39035007 0.47033268
vt 0.36925507 0.52485675
vt 0.35829008 0.52365774
vt 0.39035007 0.47033268
vt 0.40515107 0.5172737
vt 0.39352408 0.52173173
vt 0.39035007 0.47033268
vt 0.42304206 0.4999827
vt 0.41558707 0.5099017
vt 0.39035007 0.47033268
vt 0.42961806 0.4762377
vt 0.42763108 0.48854774
vt 0.39035007 0.47033268
vt 0.42305207 0.44071072
vt 0.42789808 0.45191175
vt 0.39035007 0.47033268
vt 0.40515408 0.42340773
vt 0.41538405 0.43063474
vt 0.39035007 0.47033268
vt 0.38051307 0.4170367
vt 0.39331308 0.4189617
vt 0.39035007 0.47033268
vt 0.35829008 0.52365774
vt 0.34681007 0.51906073
vt 0.39035007 0.47033268
vt 0.34681007 0.51906073
vt 0.34208706 0.5080387
vt 0.39035007 0.47033268
vt 0.34208706 0.43264073
vt 0.34681007 0.42161876
vt 0.39035007 0.47033268
vt 0.34681007 0.42161876
vt 0.35828206 0.41702574
vt 0.39035007 0.47033268
vt 0.39331308 0.4189617
vt 0.40515408 0.42340773
vt 0.39035007 0.47033268
vt 0.36921206 0.41602176
vt 0.38051307 0.4170367
vt 0.39035007 0.47033268
vt 0.41538405 0.43063474
vt 0.42305207 0.44071072
vt 0.39035007 0.47033268
vt 0.42789808 0.45191175
vt 0.42961806 0.46442974
vt 0.39035007 0.47033268
vt 0.42763108 0.48854774
vt 0.42304206 0.4999827
vt 0.39035007 0.47033268
vt 0.41558707 0.5099017
vt 0.40515107 0.5172737
vt 0.39035007 0.47033268
vt 0.39352408 0.52173173
vt 0.38050506 0.52364475
vt 0.39035007 0.47033268
vt 0.38050506 0.52364475
vt 0.36925507 0.52485675
vt 0.39035007 0.47033268
vt 0.519742 0.43264073
vt 0.519742 0.5080387
vt 0.47147903 0.47033268
vt 0.43221107 0.4762377
vt 0.43221107 0.46442974
vt 0.47147903 0.47033268
vt 0.49261704 0.41602176
vt 0.5035471 0.41702574
vt 0.47147903 0.47033268
vt 0.503539 0.52365774
vt 0.49257305 0.52485675
vt 0.47147903 0.47033268
vt 0.46830407 0.52173173
vt 0.45667705 0.5172737
vt 0.47147903 0.47033268
vt 0.44624206 0.5099017
vt 0.43878707 0.4999827
vt 0.47147903 0.47033268
vt 0.43419808 0.48854774
vt 0.43221107 0.4762377
vt 0.47147903 0.47033268
vt 0.43393105 0.45191175
vt 0.43877706 0.44071072
vt 0.47147903 0.47033268
vt 0.44644508 0.43063474
vt 0.45667502 0.42340773
vt 0.47147903 0.47033268
vt 0.46851608 0.4189617
vt 0.48131606 0.4170367
vt 0.47147903 0.47033268
vt 0.51501906 0.51906073
vt 0.503539 0.52365774
vt 0.47147903 0.47033268
vt 0.519742 0.5080387
vt 0.51501906 0.51906073
vt 0.47147903 0.47033268
vt 0.51501906 0.42161876
vt 0.519742 0.43264073
vt 0.47147903 0.47033268
vt 0.5035471 0.41702574
vt 0.51501906 0.42161876
vt 0.47147903 0.47033268
vt 0.45667502 0.42340773
vt 0.46851608 0.4189617
vt 0.47147903 0.47033268
vt 0.48131606 0.4170367
vt 0.49261704 0.41602176
vt 0.47147903 0.47033268
vt 0.43877706 0.44071072
vt 0.44644508 0.43063474
vt 0.47147903 0.47033268
vt 0.43221107 0.46442974
vt 0.43393105 0.45191175
vt 0.47147903 0.47033268
vt 0.43878707 0.4999827
vt 0.43419808 0.48854774
vt 0.47147903 0.47033268
vt 0.45667705 0.5172737
vt 0.44624206 0.5099017
vt 0.47147903 0.47033268
vt 0.4813231 0.52364475
vt 0.46830407 0.52173173
vt 0.47147903 0.47033268
vt 0.49257305 0.52485675
vt 0.4813231 0.52364475
vt 0.47147903 0.47033268
vt 0.52121305 0.5379617
vt 0.52049404 0.6137157
vt 0.52049404 0.53790075
vt 0.34208706 0.43264073
vt 0.34136808 0.50818676
vt 0.34136808 0.43249273
vt 0.52049404 0.6137157
vt 0.52121305 0.6250857
vt 0.52049404 0.62531674
vt 0.34136808 0.50818676
vt 0.34681007 0.51906073
vt 0.34626606 0.51961774
vt 0.515455 0.61365473
vt 0.5161741 0.53790075
vt 0.5161741 0.6137157
vt 0.520461 0.50818676
vt 0.519742 0.43264073
vt 0.520461 0.43249273
vt 0.5161741 0.53790075
vt 0.515455 0.5265307
vt 0.5161741 0.5262997
vt 0.520461 0.43249273
vt 0.51501906 0.42161876
vt 0.515563 0.42106277
vt 0.4998981 0.5504667
vt 0.5006161 0.5624017
vt 0.4998981 0.56242573
vt 0.43149206 0.46438068
vt 0.43221107 0.4762377
vt 0.43149206 0.47629577
vt 0.4998981 0.56242573
vt 0.5006161 0.57484674
vt 0.4998981 0.57492775
vt 0.43149206 0.47629577
vt 0.43419808 0.48854774
vt 0.43350208 0.48874074
vt 0.49485907 0.5624017
vt 0.49557707 0.5504667
vt 0.49557808 0.56242573
vt 0.42961806 0.4762377
vt 0.43033606 0.46438068
vt 0.43033606 0.47629577
vt 0.49557707 0.5504667
vt 0.49485907 0.53782374
vt 0.49557808 0.53774273
vt 0.43033606 0.46438068
vt 0.42789808 0.45191175
vt 0.42859706 0.45171672
vt 0.513628 0.5810247
vt 0.5143471 0.59212375
vt 0.5136291 0.5921937
vt 0.36921108 0.41530073
vt 0.35828206 0.41702574
vt 0.35811207 0.4163187
vt 0.5136291 0.5921937
vt 0.5143471 0.60396874
vt 0.513628 0.6041947
vt 0.35811207 0.4163187
vt 0.34681007 0.42161876
vt 0.34626606 0.42106277
vt 0.50859004 0.59212375
vt 0.50930804 0.5810247
vt 0.50930804 0.5921937
vt 0.5035471 0.41702574
vt 0.49261805 0.41530073
vt 0.50371706 0.4163187
vt 0.50859004 0.5810247
vt 0.50930804 0.5696017
vt 0.50930804 0.5810247
vt 0.49261704 0.41602176
vt 0.4812301 0.41632277
vt 0.49261805 0.41530073
vt 0.5024431 0.5495137
vt 0.501724 0.5383737
vt 0.5024431 0.53830075
vt 0.49257407 0.52557975
vt 0.503539 0.52365774
vt 0.503714 0.5243617
vt 0.5024431 0.53830075
vt 0.501724 0.52652574
vt 0.5024431 0.5263007
vt 0.503714 0.5243617
vt 0.51501906 0.51906073
vt 0.515563 0.51961774
vt 0.50748205 0.5383737
vt 0.50676304 0.5495137
vt 0.50676304 0.53830075
vt 0.35829008 0.52365774
vt 0.36925507 0.52557975
vt 0.35811406 0.5243617
vt 0.50748205 0.5495137
vt 0.50676304 0.5608927
vt 0.50676304 0.5495137
vt 0.36925507 0.52485675
vt 0.38059607 0.52435774
vt 0.36925507 0.52557975
vt 0.50676304 0.57404274
vt 0.50748205 0.5857517
vt 0.50676304 0.58589274
vt 0.39370707 0.5224307
vt 0.40515107 0.5172737
vt 0.40549308 0.5179127
vt 0.50676304 0.58589274
vt 0.50748205 0.5963527
vt 0.50676304 0.59656274
vt 0.40549308 0.5179127
vt 0.41558707 0.5099017
vt 0.41609406 0.51042277
vt 0.501724 0.5857517
vt 0.5024431 0.57404274
vt 0.5024431 0.58589274
vt 0.45667705 0.5172737
vt 0.46812108 0.5224307
vt 0.4563361 0.5179127
vt 0.501724 0.57396674
vt 0.5024431 0.5608927
vt 0.5024431 0.57404274
vt 0.46830407 0.52173173
vt 0.4812331 0.52435774
vt 0.46812108 0.5224307
vt 0.50748205 0.5963527
vt 0.50676304 0.6041947
vt 0.50676304 0.59656274
vt 0.41558707 0.5099017
vt 0.42367408 0.50033873
vt 0.41609406 0.51042277
vt 0.49485907 0.58644575
vt 0.49557808 0.57492775
vt 0.49557707 0.58659273
vt 0.42304206 0.4999827
vt 0.42832705 0.48874074
vt 0.42367408 0.50033873
vt 0.5024431 0.6041947
vt 0.501724 0.5963527
vt 0.5024431 0.59656274
vt 0.43815506 0.50033873
vt 0.44624206 0.5099017
vt 0.44573507 0.51042277
vt 0.4563361 0.5179127
vt 0.44624206 0.5099017
vt 0.45667705 0.5172737
vt 0.5024431 0.58589274
vt 0.501724 0.5963527
vt 0.501724 0.5857517
vt 0.43033606 0.47629577
vt 0.42763108 0.48854774
vt 0.42961806 0.4762377
vt 0.49557808 0.56242573
vt 0.49485907 0.57484674
vt 0.49485907 0.5624017
vt 0.43878707 0.4999827
vt 0.43350208 0.48874074
vt 0.43419808 0.48854774
vt 0.5006161 0.58644575
vt 0.4998981 0.57492775
vt 0.5006161 0.57484674
vt 0.49485907 0.53782374
vt 0.49557707 0.5263007
vt 0.49557808 0.53774273
vt 0.42789808 0.45191175
vt 0.42367607 0.44034475
vt 0.42859706 0.45171672
vt 0.5136291 0.5263007
vt 0.5143471 0.53434676
vt 0.513628 0.5341367
vt 0.42367607 0.44034475
vt 0.41538405 0.43063474
vt 0.41588905 0.4301117
vt 0.4998981 0.5263007
vt 0.5006161 0.53782374
vt 0.4998981 0.53774273
vt 0.43815207 0.44034475
vt 0.43393105 0.45191175
vt 0.43323207 0.45171672
vt 0.43149206 0.46438068
vt 0.43393105 0.45191175
vt 0.43221107 0.46442974
vt 0.4998981 0.5504667
vt 0.5006161 0.53782374
vt 0.5006161 0.5504877
vt 0.5143471 0.53434676
vt 0.5136291 0.54460174
vt 0.513628 0.5341367
vt 0.41538405 0.43063474
vt 0.40549308 0.4227677
vt 0.41588905 0.4301117
vt 0.5143471 0.54474175
vt 0.513628 0.5566657
vt 0.5136291 0.54460174
vt 0.40515408 0.42340773
vt 0.39349505 0.41826272
vt 0.40549308 0.4227677
vt 0.50930804 0.54460174
vt 0.50859004 0.53434676
vt 0.50930804 0.5341367
vt 0.45633504 0.4227677
vt 0.44644508 0.43063474
vt 0.44594008 0.4301117
vt 0.43815207 0.44034475
vt 0.44644508 0.43063474
vt 0.43877706 0.44071072
vt 0.50930804 0.5263007
vt 0.50859004 0.53434676
vt 0.50859004 0.5265587
vt 0.5143471 0.5567407
vt 0.5136291 0.5696017
vt 0.513628 0.5566657
vt 0.39331308 0.4189617
vt 0.38059807 0.41632277
vt 0.39349505 0.41826272
vt 0.36921206 0.41602176
vt 0.38059807 0.41632277
vt 0.38051307 0.4170367
vt 0.5143471 0.5810247
vt 0.5136291 0.5696017
vt 0.5143471 0.5696367
vt 0.50930804 0.5696017
vt 0.50859004 0.5567407
vt 0.50930804 0.5566657
vt 0.4812301 0.41632277
vt 0.46851608 0.4189617
vt 0.46833405 0.41826272
vt 0.45667502 0.42340773
vt 0.46833405 0.41826272
vt 0.46851608 0.4189617
vt 0.50859004 0.54474175
vt 0.50930804 0.5566657
vt 0.50859004 0.5567407
vt 0.520461 0.50818676
vt 0.51501906 0.51906073
vt 0.519742 0.5080387
vt 0.5161741 0.6137157
vt 0.515455 0.6250857
vt 0.515455 0.61365473
vt 0.35811406 0.5243617
vt 0.34681007 0.51906073
vt 0.35829008 0.52365774
vt 0.50676304 0.53830075
vt 0.50748205 0.52652574
vt 0.50748205 0.5383737
vt 0.50371706 0.4163187
vt 0.51501906 0.42161876
vt 0.5035471 0.41702574
vt 0.50930804 0.5921937
vt 0.50859004 0.60396874
vt 0.50859004 0.59212375
vt 0.34136808 0.43249273
vt 0.34681007 0.42161876
vt 0.34208706 0.43264073
vt 0.52049404 0.53790075
vt 0.52121305 0.5265307
vt 0.52121305 0.5379617
vt 0.39352408 0.52173173
vt 0.38059607 0.52435774
vt 0.38050506 0.52364475
vt 0.50748205 0.57396674
vt 0.50676304 0.5608927
vt 0.50748205 0.56085575
vt 0.49257305 0.52485675
vt 0.4812331 0.52435774
vt 0.4813231 0.52364475
vt 0.501724 0.5495137
vt 0.5024431 0.5608927
vt 0.501724 0.56085575
vt 0.52049404 0.6137157
vt 0.5161741 0.6137157
vt 0.5161741 0.53790075
vt 0.4998981 0.5504667
vt 0.4998981 0.56242573
vt 0.49557808 0.56242573
vt 0.513628 0.5810247
vt 0.5136291 0.5921937
vt 0.50930804 0.5921937
vt 0.5024431 0.5495137
vt 0.5024431 0.53830075
vt 0.50676304 0.53830075
vt 0.50676304 0.57404274
vt 0.50676304 0.58589274
vt 0.5024431 0.58589274
vt 0.50676304 0.59656274
vt 0.50676304 0.6041947
vt 0.5024431 0.6041947
vt 0.49557808 0.56242573
vt 0.4998981 0.56242573
vt 0.4998981 0.57492775
vt 0.49557808 0.53774273
vt 0.49557707 0.5263007
vt 0.4998981 0.5263007
vt 0.513628 0.5341367
vt 0.5136291 0.54460174
vt 0.50930804 0.54460174
vt 0.513628 0.5566657
vt 0.5136291 0.5696017
vt 0.50930804 0.5696017
vt 0.5024431 0.5263007
vt 0.50676304 0.5263007
vt 0.50676304 0.53830075
vt 0.5161741 0.6137157
vt 0.52049404 0.6137157
vt 0.52049404 0.62531674
vt 0.5161741 0.5262997
vt 0.52049404 0.5262997
vt 0.52049404 0.53790075
vt 0.50930804 0.5921937
vt 0.5136291 0.5921937
vt 0.513628 0.6041947
vt 0.513628 0.5566657
vt 0.50930804 0.5566657
vt 0.50930804 0.54460174
vt 0.50930804 0.5696017
vt 0.5136291 0.5696017
vt 0.513628 0.5810247
vt 0.513628 0.5341367
vt 0.50930804 0.5341367
vt 0.50930804 0.5263007
vt 0.49557808 0.53774273
vt 0.4998981 0.53774273
vt 0.4998981 0.5504667
vt 0.49557808 0.57492775
vt 0.4998981 0.57492775
vt 0.4998981 0.58659273
vt 0.50676304 0.59656274
vt 0.5024431 0.59656274
vt 0.5024431 0.58589274
vt 0.50676304 0.57404274
vt 0.5024431 0.57404274
vt 0.5024431 0.5608927
vt 0.50676304 0.5608927
vt 0.5024431 0.5608927
vt 0.5024431 0.5495137
vt 0.52121305 0.5379617
vt 0.52121305 0.61365473
vt 0.52049404 0.6137157
vt 0.34208706 0.43264073
vt 0.34208706 0.5080387
vt 0.34136808 0.50818676
vt 0.52049404 0.6137157
vt 0.52121305 0.61365473
vt 0.52121305 0.6250857
vt 0.34136808 0.50818676
vt 0.34208706 0.5080387
vt 0.34681007 0.51906073
vt 0.515455 0.61365473
vt 0.515455 0.5379617
vt 0.5161741 0.53790075
vt 0.520461 0.50818676
vt 0.519742 0.5080387
vt 0.519742 0.43264073
vt 0.5161741 0.53790075
vt 0.515455 0.5379617
vt 0.515455 0.5265307
vt 0.520461 0.43249273
vt 0.519742 0.43264073
vt 0.51501906 0.42161876
vt 0.4998981 0.5504667
vt 0.5006161 0.5504877
vt 0.5006161 0.5624017
vt 0.43149206 0.46438068
vt 0.43221107 0.46442974
vt 0.43221107 0.4762377
vt 0.4998981 0.56242573
vt 0.5006161 0.5624017
vt 0.5006161 0.57484674
vt 0.43149206 0.47629577
vt 0.43221107 0.4762377
vt 0.43419808 0.48854774
vt 0.49485907 0.5624017
vt 0.49485907 0.5504877
vt 0.49557707 0.5504667
vt 0.42961806 0.4762377
vt 0.42961806 0.46442974
vt 0.43033606 0.46438068
vt 0.49557707 0.5504667
vt 0.49485907 0.5504877
vt 0.49485907 0.53782374
vt 0.43033606 0.46438068
vt 0.42961806 0.46442974
vt 0.42789808 0.45191175
vt 0.513628 0.5810247
vt 0.5143471 0.5810247
vt 0.5143471 0.59212375
vt 0.36921108 0.41530073
vt 0.36921206 0.41602176
vt 0.35828206 0.41702574
vt 0.5136291 0.5921937
vt 0.5143471 0.59212375
vt 0.5143471 0.60396874
vt 0.35811207 0.4163187
vt 0.35828206 0.41702574
vt 0.34681007 0.42161876
vt 0.50859004 0.59212375
vt 0.50859004 0.5810247
vt 0.50930804 0.5810247
vt 0.5035471 0.41702574
vt 0.49261704 0.41602176
vt 0.49261805 0.41530073
vt 0.50859004 0.5810247
vt 0.50859004 0.5696367
vt 0.50930804 0.5696017
vt 0.49261704 0.41602176
vt 0.48131606 0.4170367
vt 0.4812301 0.41632277
vt 0.5024431 0.5495137
vt 0.501724 0.5495137
vt 0.501724 0.5383737
vt 0.49257407 0.52557975
vt 0.49257305 0.52485675
vt 0.503539 0.52365774
vt 0.5024431 0.53830075
vt 0.501724 0.5383737
vt 0.501724 0.52652574
vt 0.503714 0.5243617
vt 0.503539 0.52365774
vt 0.51501906 0.51906073
vt 0.50748205 0.5383737
vt 0.50748205 0.5495137
vt 0.50676304 0.5495137
vt 0.35829008 0.52365774
vt 0.36925507 0.52485675
vt 0.36925507 0.52557975
vt 0.50748205 0.5495137
vt 0.50748205 0.56085575
vt 0.50676304 0.5608927
vt 0.36925507 0.52485675
vt 0.38050506 0.52364475
vt 0.38059607 0.52435774
vt 0.50676304 0.57404274
vt 0.50748205 0.57396674
vt 0.50748205 0.5857517
vt 0.39370707 0.5224307
vt 0.39352408 0.52173173
vt 0.40515107 0.5172737
vt 0.50676304 0.58589274
vt 0.50748205 0.5857517
vt 0.50748205 0.5963527
vt 0.40549308 0.5179127
vt 0.40515107 0.5172737
vt 0.41558707 0.5099017
vt 0.501724 0.5857517
vt 0.501724 0.57396674
vt 0.5024431 0.57404274
vt 0.45667705 0.5172737
vt 0.46830407 0.52173173
vt 0.46812108 0.5224307
vt 0.501724 0.57396674
vt 0.501724 0.56085575
vt 0.5024431 0.5608927
vt 0.46830407 0.52173173
vt 0.4813231 0.52364475
vt 0.4812331 0.52435774
vt 0.50748205 0.5963527
vt 0.50748205 0.60393274
vt 0.50676304 0.6041947
vt 0.41558707 0.5099017
vt 0.42304206 0.4999827
vt 0.42367408 0.50033873
vt 0.49485907 0.58644575
vt 0.49485907 0.57484674
vt 0.49557808 0.57492775
vt 0.42304206 0.4999827
vt 0.42763108 0.48854774
vt 0.42832705 0.48874074
vt 0.5024431 0.6041947
vt 0.501724 0.60393274
vt 0.501724 0.5963527
vt 0.43815506 0.50033873
vt 0.43878707 0.4999827
vt 0.44624206 0.5099017
vt 0.4563361 0.5179127
vt 0.44573507 0.51042277
vt 0.44624206 0.5099017
vt 0.5024431 0.58589274
vt 0.5024431 0.59656274
vt 0.501724 0.5963527
vt 0.43033606 0.47629577
vt 0.42832705 0.48874074
vt 0.42763108 0.48854774
vt 0.49557808 0.56242573
vt 0.49557808 0.57492775
vt 0.49485907 0.57484674
vt 0.43878707 0.4999827
vt 0.43815506 0.50033873
vt 0.43350208 0.48874074
vt 0.5006161 0.58644575
vt 0.4998981 0.58659273
vt 0.4998981 0.57492775
vt 0.49485907 0.53782374
vt 0.49485907 0.52645177
vt 0.49557707 0.5263007
vt 0.42789808 0.45191175
vt 0.42305207 0.44071072
vt 0.42367607 0.44034475
vt 0.5136291 0.5263007
vt 0.5143471 0.5265587
vt 0.5143471 0.53434676
vt 0.42367607 0.44034475
vt 0.42305207 0.44071072
vt 0.41538405 0.43063474
vt 0.4998981 0.5263007
vt 0.5006161 0.52645177
vt 0.5006161 0.53782374
vt 0.43815207 0.44034475
vt 0.43877706 0.44071072
vt 0.43393105 0.45191175
vt 0.43149206 0.46438068
vt 0.43323207 0.45171672
vt 0.43393105 0.45191175
vt 0.4998981 0.5504667
vt 0.4998981 0.53774273
vt 0.5006161 0.53782374
vt 0.5143471 0.53434676
vt 0.5143471 0.54474175
vt 0.5136291 0.54460174
vt 0.41538405 0.43063474
vt 0.40515408 0.42340773
vt 0.40549308 0.4227677
vt 0.5143471 0.54474175
vt 0.5143471 0.5567407
vt 0.513628 0.5566657
vt 0.40515408 0.42340773
vt 0.39331308 0.4189617
vt 0.39349505 0.41826272
vt 0.50930804 0.54460174
vt 0.50859004 0.54474175
vt 0.50859004 0.53434676
vt 0.45633504 0.4227677
vt 0.45667502 0.42340773
vt 0.44644508 0.43063474
vt 0.43815207 0.44034475
vt 0.44594008 0.4301117
vt 0.44644508 0.43063474
vt 0.50930804 0.5263007
vt 0.50930804 0.5341367
vt 0.50859004 0.53434676
vt 0.5143471 0.5567407
vt 0.5143471 0.5696367
vt 0.5136291 0.5696017
vt 0.39331308 0.4189617
vt 0.38051307 0.4170367
vt 0.38059807 0.41632277
vt 0.36921206 0.41602176
vt 0.36921108 0.41530073
vt 0.38059807 0.41632277
vt 0.5143471 0.5810247
vt 0.513628 0.5810247
vt 0.5136291 0.5696017
vt 0.50930804 0.5696017
vt 0.50859004 0.5696367
vt 0.50859004 0.5567407
vt 0.4812301 0.41632277
vt 0.48131606 0.4170367
vt 0.46851608 0.4189617
vt 0.45667502 0.42340773
vt 0.45633504 0.4227677
vt 0.46833405 0.41826272
vt 0.50859004 0.54474175
vt 0.50930804 0.54460174
vt 0.50930804 0.5566657
vt 0.520461 0.50818676
vt 0.515563 0.51961774
vt 0.51501906 0.51906073
vt 0.5161741 0.6137157
vt 0.5161741 0.62531674
vt 0.515455 0.6250857
vt 0.35811406 0.5243617
vt 0.34626606 0.51961774
vt 0.34681007 0.51906073
vt 0.50676304 0.53830075
vt 0.50676304 0.5263007
vt 0.50748205 0.52652574
vt 0.50371706 0.4163187
vt 0.515563 0.42106277
vt 0.51501906 0.42161876
vt 0.50930804 0.5921937
vt 0.50930804 0.6041947
vt 0.50859004 0.60396874
vt 0.34136808 0.43249273
vt 0.34626606 0.42106277
vt 0.34681007 0.42161876
vt 0.52049404 0.53790075
vt 0.52049404 0.5262997
vt 0.52121305 0.5265307
vt 0.39352408 0.52173173
vt 0.39370707 0.5224307
vt 0.38059607 0.52435774
vt 0.50748205 0.57396674
vt 0.50676304 0.57404274
vt 0.50676304 0.5608927
vt 0.49257305 0.52485675
vt 0.49257407 0.52557975
vt 0.4812331 0.52435774
vt 0.501724 0.5495137
vt 0.5024431 0.5495137
vt 0.5024431 0.5608927
vt 0.21435255 0.5030113
vt 0.20826954 0.46707928
vt 0.21435255 0.46707928
vt 0.18058455 0.5030113
vt 0.17135656 0.46707928
vt 0.18058455 0.46707928
vt 0.22043556 0.5030113
vt 0.21435255 0.46707928
vt 0.22043556 0.46707928
vt 0.18981355 0.5030113
vt 0.18058455 0.46707928
vt 0.18981355 0.46707928
vt 0.18058455 0.5030113
vt 0.1866675 0.5122393
vt 0.18058455 0.5122393
vt 0.17450154 0.5030113
vt 0.18058455 0.5122393
vt 0.17450154 0.5122393
vt 0.21435255 0.5389433
vt 0.20826954 0.5030113
vt 0.21435255 0.5030113
vt 0.19904155 0.5030113
vt 0.18981355 0.46707928
vt 0.19904155 0.46707928
vt 0.20826954 0.5389433
vt 0.20218652 0.5030113
vt 0.20826954 0.5030113
vt 0.20826954 0.5030113
vt 0.19904155 0.46707928
vt 0.20826954 0.46707928
vt 0.1866675 0.5030113
vt 0.19275051 0.5122393
vt 0.1866675 0.5122393
vt 0.19275051 0.5030113
vt 0.19883353 0.5122393
vt 0.19275051 0.5122393
vt 0.19749051 0.51811725
vt 0.19275051 0.5122393
vt 0.19749051 0.5122393
vt 0.15600055 0.46707928
vt 0.15012252 0.5761143
vt 0.15012252 0.46707928
vt 0.19275051 0.51811725
vt 0.18801153 0.5122393
vt 0.19275051 0.5122393
vt 0.16187853 0.46707928
vt 0.15600055 0.5761143
vt 0.15600055 0.46707928
vt 0.16187853 0.46707928
vt 0.16661751 0.5761143
vt 0.16187853 0.5761143
vt 0.16661751 0.46707928
vt 0.17135656 0.5761143
vt 0.16661751 0.5761143
vt 0.21435255 0.5030113
vt 0.20826954 0.5030113
vt 0.20826954 0.46707928
vt 0.18058455 0.5030113
vt 0.17135656 0.5030113
vt 0.17135656 0.46707928
vt 0.22043556 0.5030113
vt 0.21435255 0.5030113
vt 0.21435255 0.46707928
vt 0.18981355 0.5030113
vt 0.18058455 0.5030113
vt 0.18058455 0.46707928
vt 0.18058455 0.5030113
vt 0.1866675 0.5030113
vt 0.1866675 0.5122393
vt 0.17450154 0.5030113
vt 0.18058455 0.5030113
vt 0.18058455 0.5122393
vt 0.21435255 0.5389433
vt 0.20826954 0.5389433
vt 0.20826954 0.5030113
vt 0.19904155 0.5030113
vt 0.18981355 0.5030113
vt 0.18981355 0.46707928
vt 0.20826954 0.5389433
vt 0.20218652 0.5389433
vt 0.20218652 0.5030113
vt 0.20826954 0.5030113
vt 0.19904155 0.5030113
vt 0.19904155 0.46707928
vt 0.1866675 0.5030113
vt 0.19275051 0.5030113
vt 0.19275051 0.5122393
vt 0.19275051 0.5030113
vt 0.19883353 0.5030113
vt 0.19883353 0.5122393
vt 0.19749051 0.51811725
vt 0.19275051 0.51811725
vt 0.19275051 0.5122393
vt 0.15600055 0.46707928
vt 0.15600055 0.5761143
vt 0.15012252 0.5761143
vt 0.19275051 0.51811725
vt 0.18801153 0.51811725
vt 0.18801153 0.5122393
vt 0.16187853 0.46707928
vt 0.16187853 0.5761143
vt 0.15600055 0.5761143
vt 0.16187853 0.46707928
vt 0.16661751 0.46707928
vt 0.16661751 0.5761143
vt 0.16661751 0.46707928
vt 0.17135656 0.46707928
vt 0.17135656 0.5761143
f 6/1 12/2 3/3
f 15/4 21/5 24/6
f 27/7 33/8 36/9
f 39/10 45/11 48/12
f 51/13 57/14 60/15
f 63/16 69/17 72/18
f 21/19 78/20 75/21
f 81/22 87/23 90/24
f 93/25 99/26 102/27
f 105/28 111/29 114/30
f 117/31 45/32 42/33
f 9/34 120/35 117/36
f 123/37 3/38 12/39
f 33/40 126/41 123/42
f 105/43 99/44 96/45
f 111/46 27/47 36/48
f 93/49 87/50 84/51
f 81/52 15/53 24/54
f 75/55 69/56 66/57
f 63/58 57/59 54/60
f 51/61 132/62 129/63
f 129/64 39/65 48/66
f 8/67 5/68 1/69
f 26/70 23/71 1/72
f 32/73 29/74 1/75
f 50/76 47/77 1/78
f 56/79 53/80 1/81
f 68/82 65/83 1/84
f 23/85 77/86 1/87
f 86/88 83/89 1/90
f 98/91 95/92 1/93
f 110/94 107/95 1/96
f 47/97 122/98 1/99
f 122/100 8/101 1/102
f 5/103 128/104 1/105
f 128/106 32/107 1/108
f 107/109 98/110 1/111
f 29/112 110/113 1/114
f 95/115 86/116 1/117
f 83/118 26/119 1/120
f 77/121 68/122 1/123
f 65/124 56/125 1/126
f 53/127 131/128 1/129
f 131/130 50/131 1/132
f 14/133 11/134 2/135
f 20/136 17/137 2/138
f 38/139 35/140 2/141
f 44/142 41/143 2/144
f 62/145 59/146 2/147
f 74/148 71/149 2/150
f 80/151 20/152 2/153
f 92/154 89/155 2/156
f 104/157 101/158 2/159
f 116/160 113/161 2/162
f 119/163 44/164 2/165
f 11/166 119/167 2/168
f 125/169 14/170 2/171
f 35/172 125/173 2/174
f 101/175 116/176 2/177
f 113/178 38/179 2/180
f 89/181 104/182 2/183
f 17/184 92/185 2/186
f 71/187 80/188 2/189
f 59/190 74/191 2/192
f 134/193 62/194 2/195
f 41/196 134/197 2/198
f 4/199 6/200 3/201
f 5/202 7/203 4/204
f 6/205 121/206 120/207
f 7/208 122/209 121/210
f 10/211 12/212 9/213
f 10/214 14/215 13/216
f 12/217 124/218 123/219
f 13/220 125/221 124/222
f 15/223 19/224 18/225
f 16/226 20/227 19/228
f 18/229 79/230 78/231
f 19/232 80/233 79/234
f 22/235 24/236 21/237
f 23/238 25/239 22/240
f 24/241 82/242 81/243
f 25/244 83/245 82/246
f 27/247 31/248 30/249
f 28/250 32/251 31/252
f 30/253 127/254 126/255
f 31/256 128/257 127/258
f 34/259 36/260 33/261
f 35/262 37/263 34/264
f 37/265 111/266 36/267
f 38/268 112/269 37/270
f 39/271 43/272 42/273
f 40/274 44/275 43/276
f 42/277 118/278 117/279
f 43/280 119/281 118/282
f 46/283 48/284 45/285
f 47/286 49/287 46/288
f 49/289 129/290 48/291
f 50/292 130/293 49/294
f 51/295 55/296 54/297
f 52/298 56/299 55/300
f 54/301 64/302 63/303
f 55/304 65/305 64/306
f 58/307 60/308 57/309
f 59/310 61/311 58/312
f 61/313 132/314 60/315
f 62/316 133/317 61/318
f 64/319 66/320 63/321
f 65/322 67/323 64/324
f 67/325 75/326 66/327
f 68/328 76/329 67/330
f 69/331 73/332 72/333
f 70/334 74/335 73/336
f 58/337 74/338 59/339
f 57/340 73/341 58/342
f 22/343 77/344 23/345
f 21/346 76/347 22/348
f 71/349 79/350 80/351
f 70/352 78/353 79/354
f 82/355 84/356 81/357
f 83/358 85/359 82/360
f 84/361 94/362 93/363
f 85/364 95/365 94/366
f 87/367 91/368 90/369
f 88/370 92/371 91/372
f 16/373 92/374 17/375
f 15/376 91/377 16/378
f 94/379 96/380 93/381
f 95/382 97/383 94/384
f 97/385 105/386 96/387
f 98/388 106/389 97/390
f 99/391 103/392 102/393
f 100/394 104/395 103/396
f 88/397 104/398 89/399
f 87/400 103/401 88/402
f 106/403 108/404 105/405
f 107/406 109/407 106/408
f 29/409 109/410 110/411
f 28/412 108/413 109/414
f 111/415 115/416 114/417
f 112/418 116/419 115/420
f 101/421 115/422 116/423
f 100/424 114/425 115/426
f 10/427 119/428 11/429
f 9/430 118/431 10/432
f 46/433 122/434 47/435
f 45/436 121/437 46/438
f 34/439 125/440 35/441
f 33/442 124/443 34/444
f 4/445 128/446 5/447
f 3/448 127/449 4/450
f 53/451 130/452 131/453
f 52/454 129/455 130/456
f 41/457 133/458 134/459
f 40/460 132/461 133/462
f 6/463 9/464 12/465
f 15/466 18/467 21/468
f 27/469 30/470 33/471
f 39/472 42/473 45/474
f 51/475 54/476 57/477
f 63/478 66/479 69/480
f 21/481 18/482 78/483
f 81/484 84/485 87/486
f 93/487 96/488 99/489
f 105/490 108/491 111/492
f 117/493 120/494 45/495
f 9/496 6/497 120/498
f 123/499 126/500 3/501
f 33/502 30/503 126/504
f 105/505 114/506 99/507
f 111/508 108/509 27/510
f 93/511 102/512 87/513
f 81/514 90/515 15/516
f 75/517 78/518 69/519
f 63/520 72/521 57/522
f 51/523 60/524 132/525
f 129/526 132/527 39/528
f 4/529 7/530 6/531
f 5/532 8/533 7/534
f 6/535 7/536 121/537
f 7/538 8/539 122/540
f 10/541 13/542 12/543
f 10/544 11/545 14/546
f 12/547 13/548 124/549
f 13/550 14/551 125/552
f 15/553 16/554 19/555
f 16/556 17/557 20/558
f 18/559 19/560 79/561
f 19/562 20/563 80/564
f 22/565 25/566 24/567
f 23/568 26/569 25/570
f 24/571 25/572 82/573
f 25/574 26/575 83/576
f 27/577 28/578 31/579
f 28/580 29/581 32/582
f 30/583 31/584 127/585
f 31/586 32/587 128/588
f 34/589 37/590 36/591
f 35/592 38/593 37/594
f 37/595 112/596 111/597
f 38/598 113/599 112/600
f 39/601 40/602 43/603
f 40/604 41/605 44/606
f 42/607 43/608 118/609
f 43/610 44/611 119/612
f 46/613 49/614 48/615
f 47/616 50/617 49/618
f 49/619 130/620 129/621
f 50/622 131/623 130/624
f 51/625 52/626 55/627
f 52/628 53/629 56/630
f 54/631 55/632 64/633
f 55/634 56/635 65/636
f 58/637 61/638 60/639
f 59/640 62/641 61/642
f 61/643 133/644 132/645
f 62/646 134/647 133/648
f 64/649 67/650 66/651
f 65/652 68/653 67/654
f 67/655 76/656 75/657
f 68/658 77/659 76/660
f 69/661 70/662 73/663
f 70/664 71/665 74/666
f 58/667 73/668 74/669
f 57/670 72/671 73/672
f 22/673 76/674 77/675
f 21/676 75/677 76/678
f 71/679 70/680 79/681
f 70/682 69/683 78/684
f 82/685 85/686 84/687
f 83/688 86/689 85/690
f 84/691 85/692 94/693
f 85/694 86/695 95/696
f 87/697 88/698 91/699
f 88/700 89/701 92/702
f 16/703 91/704 92/705
f 15/706 90/707 91/708
f 94/709 97/710 96/711
f 95/712 98/713 97/714
f 97/715 106/716 105/717
f 98/718 107/719 106/720
f 99/721 100/722 103/723
f 100/724 101/725 104/726
f 88/727 103/728 104/729
f 87/730 102/731 103/732
f 106/733 109/734 108/735
f 107/736 110/737 109/738
f 29/739 28/740 109/741
f 28/742 27/743 108/744
f 111/745 112/746 115/747
f 112/748 113/749 116/750
f 101/751 100/752 115/753
f 100/754 99/755 114/756
f 10/757 118/758 119/759
f 9/760 117/761 118/762
f 46/763 121/764 122/765
f 45/766 120/767 121/768
f 34/769 124/770 125/771
f 33/772 123/773 124/774
f 4/775 127/776 128/777
f 3/778 126/779 127/780
f 53/781 52/782 130/783
f 52/784 51/785 129/786
f 41/787 40/788 133/789
f 40/790 39/791 132/792
f 136/793 137/794 135/795
f 138/796 141/797 137/798
f 142/799 139/800 141/801
f 140/802 135/803 139/804
f 141/805 135/806 137/807
f 138/808 140/809 142/810
f 144/811 145/812 143/813
f 146/814 149/815 145/816
f 150/817 147/818 149/819
f 148/820 143/821 147/822
f 149/823 143/824 145/825
f 146/826 148/827 150/828
f 152/829 153/830 151/831
f 154/832 157/833 153/834
f 158/835 155/836 157/837
f 156/838 151/839 155/840
f 157/841 151/842 153/843
f 154/844 156/845 158/846
f 136/847 138/848 137/849
f 138/850 142/851 141/852
f 142/853 140/854 139/855
f 140/856 136/857 135/858
f 141/859 139/860 135/861
f 138/862 136/863 140/864
f 144/865 146/866 145/867
f 146/868 150/869 149/870
f 150/871 148/872 147/873
f 148/874 144/875 143/876
f 149/877 147/878 143/879
f 146/880 144/881 148/882
f 152/883 154/884 153/885
f 154/886 158/887 157/888
f 158/889 156/890 155/891
f 156/892 152/893 151/894
f 157/895 155/896 151/897
f 154/898 152/899 156/900
