o CoffeeMachine039_Button002
v -0.044411 -0.187857 0.084391
v -0.050311 -0.185676 0.07997
v -0.051646 -0.185462 0.072399
v -0.047633 -0.187339 0.066113
v -0.040623 -0.190208 0.064795
v -0.034722 -0.192388 0.069216
v -0.033387 -0.192602 0.076786
v -0.0374 -0.190725 0.083072
v -0.04616 -0.198048 0.075186
v -0.047754 -0.186583 0.082796
v -0.051665 -0.185288 0.076313
v -0.050217 -0.186187 0.068823
v -0.044259 -0.188753 0.064712
v -0.037279 -0.191482 0.066389
v -0.033368 -0.192776 0.072872
v -0.034816 -0.191877 0.080362
v -0.040775 -0.189312 0.084473
v -0.049886 -0.192226 0.082968
v -0.04995 -0.194989 0.081736
v -0.052014 -0.194257 0.079455
v -0.052383 -0.191341 0.080209
v -0.046622 -0.193469 0.084525
v -0.047251 -0.196017 0.083023
v -0.053705 -0.190962 0.07664
v -0.053108 -0.193944 0.076503
v -0.053092 -0.194084 0.073344
v -0.053686 -0.191132 0.072818
v -0.052291 -0.19184 0.069327
v -0.051939 -0.194669 0.070457
v -0.049853 -0.195599 0.06827
v -0.049768 -0.192964 0.066682
v -0.046474 -0.194344 0.065314
v -0.047129 -0.19674 0.067139
v -0.044194 -0.197915 0.067205
v -0.042925 -0.195765 0.065395
v -0.039661 -0.197008 0.066951
v -0.041495 -0.198943 0.068492
v -0.039431 -0.199675 0.070774
v -0.037164 -0.197893 0.069711
v -0.035842 -0.198272 0.07328
v -0.038338 -0.199988 0.073725
v -0.038354 -0.199848 0.076885
v -0.035861 -0.198103 0.077102
v -0.037256 -0.197395 0.080592
v -0.039506 -0.199263 0.079772
v -0.041593 -0.198333 0.081959
v -0.039779 -0.19627 0.083238
v -0.043073 -0.19489 0.084606
v -0.044316 -0.197192 0.08309
v -0.049161 -0.186073 0.081514
v -0.046151 -0.187185 0.08377
v -0.051834 -0.185304 0.07435
v -0.051153 -0.185413 0.078212
v -0.049049 -0.186719 0.067328
v -0.051097 -0.185762 0.070535
v -0.042438 -0.189489 0.064561
v -0.046014 -0.188026 0.065234
v -0.035873 -0.191992 0.067671
v -0.038883 -0.19088 0.065416
v -0.033199 -0.192761 0.074835
v -0.03388 -0.192651 0.070973
v -0.035984 -0.191345 0.081857
v -0.033937 -0.192303 0.078651
v -0.042595 -0.188575 0.084624
v -0.039019 -0.190038 0.083951
v -0.050284 -0.193838 0.082733
v -0.048684 -0.195447 0.082603
v -0.047156 -0.19503 0.084225
v -0.048321 -0.192814 0.083919
v -0.05126 -0.191728 0.081717
v -0.052676 -0.19299 0.080089
v -0.05114 -0.194539 0.080762
v -0.053205 -0.191084 0.078493
v -0.053943 -0.192627 0.076669
v -0.052766 -0.194001 0.078067
v -0.045782 -0.196582 0.0833
v -0.043755 -0.196391 0.084302
v -0.04485 -0.194171 0.084753
v -0.05387 -0.190977 0.074723
v -0.053925 -0.19279 0.073007
v -0.053322 -0.193912 0.074916
v -0.05315 -0.191424 0.070998
v -0.052588 -0.193468 0.069662
v -0.05272 -0.194286 0.071802
v -0.051151 -0.192359 0.067868
v -0.050171 -0.194546 0.067127
v -0.051049 -0.195067 0.069185
v -0.048188 -0.193635 0.065824
v -0.047014 -0.195868 0.065817
v -0.048572 -0.196134 0.067476
v -0.044697 -0.195064 0.065167
v -0.043613 -0.197229 0.065894
v -0.045654 -0.197328 0.066927
v -0.041226 -0.196421 0.066001
v -0.040485 -0.198421 0.067386
v -0.042753 -0.198462 0.067625
v -0.038287 -0.197506 0.068203
v -0.038093 -0.199268 0.070029
v -0.040296 -0.19937 0.069465
v -0.036342 -0.19815 0.071426
v -0.036826 -0.199632 0.07345
v -0.03867 -0.199908 0.07216
v -0.035677 -0.198257 0.075197
v -0.036845 -0.199469 0.077111
v -0.038114 -0.199997 0.075312
v -0.036397 -0.19781 0.078922
v -0.038181 -0.198791 0.080457
v -0.038716 -0.199624 0.078425
v -0.038396 -0.196875 0.082052
v -0.040599 -0.197713 0.082991
v -0.040387 -0.198842 0.081042
v -0.041359 -0.195599 0.084096
v -0.042864 -0.197776 0.082751
v -0.051493 -0.188789 0.080128
v -0.048957 -0.189687 0.082931
v -0.045641 -0.190951 0.084512
v -0.052817 -0.188576 0.07262
v -0.052836 -0.188404 0.076502
v -0.048837 -0.190438 0.066386
v -0.0514 -0.189295 0.069074
v -0.041885 -0.193283 0.065079
v -0.045491 -0.191839 0.064997
v -0.036033 -0.195445 0.069463
v -0.038569 -0.194546 0.06666
v -0.034709 -0.195657 0.076971
v -0.03469 -0.19583 0.073089
v -0.038689 -0.193796 0.083205
v -0.036126 -0.194938 0.080517
v -0.042035 -0.192394 0.084594
v -0.05015 -0.195739 0.078045
v -0.048775 -0.196226 0.079567
v -0.046975 -0.196912 0.080423
v -0.050879 -0.19553 0.076078
v -0.050868 -0.195624 0.073972
v -0.0501 -0.196013 0.072048
v -0.048709 -0.196634 0.070591
v -0.046894 -0.197394 0.069836
v -0.044938 -0.198177 0.069881
v -0.043138 -0.198863 0.070738
v -0.041763 -0.19935 0.07226
v -0.041033 -0.199559 0.074226
v -0.041045 -0.199465 0.076333
v -0.041812 -0.199076 0.078257
v -0.043204 -0.198455 0.079714
v -0.045019 -0.197695 0.080469
v -0.048787 -0.194398 0.083654
v -0.051607 -0.193356 0.081542
v -0.053473 -0.192738 0.078449
v -0.045458 -0.1957 0.084454
v -0.05411 -0.192636 0.074832
v -0.05342 -0.193065 0.071259
v -0.051502 -0.193962 0.068255
v -0.04866 -0.195186 0.066294
v -0.04531 -0.196556 0.065664
v -0.041981 -0.197858 0.066464
v -0.039161 -0.1989 0.068577
v -0.037295 -0.199517 0.071669
v -0.036658 -0.19962 0.075286
v -0.037348 -0.199191 0.07886
v -0.039266 -0.198294 0.081863
v -0.042108 -0.19707 0.083824
v -0.050352 -0.189182 0.08166
v -0.047367 -0.190284 0.083896
v -0.053003 -0.188419 0.074555
v -0.052328 -0.188528 0.078385
v -0.050242 -0.189823 0.067591
v -0.052272 -0.188873 0.070771
v -0.043685 -0.19257 0.064847
v -0.047231 -0.191119 0.065514
v -0.037174 -0.195052 0.067931
v -0.040159 -0.193949 0.065695
v -0.034523 -0.195814 0.075036
v -0.035198 -0.195706 0.071206
v -0.037284 -0.194411 0.082
v -0.035254 -0.19536 0.07882
v -0.043841 -0.191663 0.084744
v -0.040295 -0.193114 0.084076
v -0.049999 -0.195614 0.079403
v -0.048148 -0.196298 0.080791
v -0.051644 -0.195141 0.074996
v -0.051225 -0.195209 0.077372
v -0.049931 -0.196012 0.070676
v -0.05119 -0.195423 0.072649
v -0.045864 -0.197716 0.068974
v -0.048064 -0.196816 0.069388
v -0.041825 -0.199256 0.070887
v -0.043677 -0.198572 0.0695
v -0.04018 -0.199729 0.075294
v -0.040599 -0.199661 0.072919
v -0.041893 -0.198858 0.079614
v -0.040634 -0.199447 0.077642
v -0.045961 -0.197154 0.081316
v -0.043761 -0.198054 0.080902
vt 0.163546 0.07398
vt 0.163518 0.074043
vt 0.1635 0.074026
vt 0.163564 0.073999
vt 0.163532 0.074055
vt 0.163518 0.074043
vt 0.163532 0.074055
vt 0.163475 0.07409
vt 0.163518 0.074043
vt 0.1635 0.074026
vt 0.163475 0.07409
vt 0.163461 0.07408
vt 0.163564 0.073999
vt 0.163622 0.073971
vt 0.163574 0.07401
vt 0.163546 0.07398
vt 0.163611 0.073957
vt 0.163564 0.073999
vt 0.163595 0.073938
vt 0.163661 0.073919
vt 0.163611 0.073957
vt 0.163622 0.073971
vt 0.163661 0.073919
vt 0.16367 0.073932
vt 0.163661 0.073919
vt 0.163723 0.073899
vt 0.16367 0.073932
vt 0.163661 0.073919
vt 0.1637 0.073863
vt 0.163713 0.073884
vt 0.163713 0.073884
vt 0.163756 0.07383
vt 0.163767 0.073852
vt 0.163723 0.073899
vt 0.163767 0.073852
vt 0.163775 0.073866
vt 0.165146 0.074321
vt 0.16514 0.074253
vt 0.165163 0.074315
vt 0.165146 0.074321
vt 0.165101 0.074272
vt 0.165118 0.074264
vt 0.165101 0.074272
vt 0.165087 0.074209
vt 0.165118 0.074264
vt 0.165118 0.074264
vt 0.165109 0.074196
vt 0.16514 0.074253
vt 0.163767 0.073852
vt 0.163831 0.07384
vt 0.163775 0.073866
vt 0.163756 0.07383
vt 0.163824 0.073824
vt 0.163767 0.073852
vt 0.163813 0.073801
vt 0.163881 0.073799
vt 0.163824 0.073824
vt 0.163831 0.07384
vt 0.163881 0.073799
vt 0.163887 0.073814
vt 0.163881 0.073799
vt 0.163946 0.073796
vt 0.163887 0.073814
vt 0.163881 0.073799
vt 0.163933 0.073754
vt 0.163941 0.073779
vt 0.163941 0.073779
vt 0.163995 0.073737
vt 0.164001 0.073761
vt 0.163946 0.073796
vt 0.164001 0.073761
vt 0.164005 0.073777
vt 0.164001 0.073761
vt 0.164066 0.073766
vt 0.164005 0.073777
vt 0.163995 0.073737
vt 0.164063 0.073748
vt 0.164001 0.073761
vt 0.164058 0.073723
vt 0.164125 0.073739
vt 0.164063 0.073748
vt 0.164066 0.073766
vt 0.164125 0.073739
vt 0.164127 0.073755
vt 0.164125 0.073739
vt 0.164188 0.073751
vt 0.164127 0.073755
vt 0.164125 0.073739
vt 0.164186 0.073708
vt 0.164187 0.073734
vt 0.164187 0.073734
vt 0.16425 0.073707
vt 0.16425 0.073732
vt 0.164188 0.073751
vt 0.16425 0.073732
vt 0.16425 0.073748
vt 0.16425 0.073732
vt 0.164312 0.073753
vt 0.16425 0.073748
vt 0.16425 0.073707
vt 0.164313 0.073735
vt 0.16425 0.073732
vt 0.164315 0.07371
vt 0.164375 0.073741
vt 0.164313 0.073735
vt 0.164312 0.073753
vt 0.164375 0.073741
vt 0.164373 0.073757
vt 0.164375 0.073741
vt 0.164434 0.073769
vt 0.164373 0.073757
vt 0.164375 0.073741
vt 0.164442 0.073727
vt 0.164437 0.073752
vt 0.164437 0.073752
vt 0.164505 0.073742
vt 0.164499 0.073766
vt 0.164434 0.073769
vt 0.164499 0.073766
vt 0.164494 0.073782
vt 0.164499 0.073766
vt 0.164553 0.073802
vt 0.164494 0.073782
vt 0.164505 0.073742
vt 0.164559 0.073785
vt 0.164499 0.073766
vt 0.164567 0.073761
vt 0.164618 0.073807
vt 0.164559 0.073785
vt 0.164553 0.073802
vt 0.164618 0.073807
vt 0.164611 0.073822
vt 0.164618 0.073807
vt 0.164667 0.073849
vt 0.164611 0.073822
vt 0.164618 0.073807
vt 0.164686 0.07381
vt 0.164675 0.073833
vt 0.164675 0.073833
vt 0.164743 0.07384
vt 0.16473 0.073862
vt 0.164667 0.073849
vt 0.16473 0.073862
vt 0.164722 0.073876
vt 0.16473 0.073862
vt 0.164774 0.07391
vt 0.164722 0.073876
vt 0.164743 0.07384
vt 0.164784 0.073895
vt 0.16473 0.073862
vt 0.164798 0.073874
vt 0.164835 0.073931
vt 0.164784 0.073895
vt 0.164774 0.07391
vt 0.164835 0.073931
vt 0.164826 0.073944
vt 0.164835 0.073931
vt 0.164873 0.073984
vt 0.164826 0.073944
vt 0.164835 0.073931
vt 0.164901 0.073951
vt 0.164884 0.07397
vt 0.164884 0.07397
vt 0.164948 0.073995
vt 0.164931 0.074013
vt 0.164873 0.073984
vt 0.164931 0.074013
vt 0.16492 0.074024
vt 0.164931 0.074013
vt 0.164961 0.07407
vt 0.16492 0.074024
vt 0.164948 0.073995
vt 0.164974 0.074058
vt 0.164931 0.074013
vt 0.164993 0.074041
vt 0.165015 0.074106
vt 0.164974 0.074058
vt 0.164961 0.07407
vt 0.165015 0.074106
vt 0.165002 0.074116
vt 0.165015 0.074106
vt 0.165038 0.074166
vt 0.165002 0.074116
vt 0.165015 0.074106
vt 0.165073 0.074142
vt 0.165053 0.074156
vt 0.165053 0.074156
vt 0.165109 0.074196
vt 0.165087 0.074209
vt 0.165038 0.074166
vt 0.165087 0.074209
vt 0.165073 0.074217
vt 0.16349 0.073919
vt 0.163572 0.073909
vt 0.163521 0.073953
vt 0.163543 0.073874
vt 0.163624 0.073868
vt 0.163572 0.073909
vt 0.163572 0.073909
vt 0.163646 0.073899
vt 0.163595 0.073938
vt 0.163521 0.073953
vt 0.163595 0.073938
vt 0.163546 0.07398
vt 0.163442 0.073968
vt 0.163428 0.074048
vt 0.163395 0.074016
vt 0.16349 0.073919
vt 0.163474 0.074
vt 0.163442 0.073968
vt 0.163521 0.073953
vt 0.1635 0.074026
vt 0.163474 0.074
vt 0.163474 0.074
vt 0.163461 0.07408
vt 0.163428 0.074048
vt 0.163715 0.073756
vt 0.163797 0.073767
vt 0.163738 0.073797
vt 0.163778 0.073727
vt 0.163859 0.073741
vt 0.163797 0.073767
vt 0.163797 0.073767
vt 0.163872 0.073776
vt 0.163813 0.073801
vt 0.163738 0.073797
vt 0.163813 0.073801
vt 0.163756 0.07383
vt 0.163656 0.073793
vt 0.163624 0.073868
vt 0.163597 0.07383
vt 0.163715 0.073756
vt 0.16368 0.073831
vt 0.163656 0.073793
vt 0.163738 0.073797
vt 0.1637 0.073863
vt 0.16368 0.073831
vt 0.16368 0.073831
vt 0.163646 0.073899
vt 0.163624 0.073868
vt 0.163974 0.073655
vt 0.164051 0.073687
vt 0.163986 0.073701
vt 0.164043 0.073642
vt 0.164117 0.073676
vt 0.164051 0.073687
vt 0.164051 0.073687
vt 0.164122 0.073714
vt 0.164058 0.073723
vt 0.163986 0.073701
vt 0.164058 0.073723
vt 0.163995 0.073737
vt 0.163908 0.073676
vt 0.163859 0.073741
vt 0.163841 0.073697
vt 0.163974 0.073655
vt 0.163922 0.073719
vt 0.163908 0.073676
vt 0.163986 0.073701
vt 0.163933 0.073754
vt 0.163922 0.073719
vt 0.163922 0.073719
vt 0.163872 0.073776
vt 0.163859 0.073741
vt 0.164251 0.073622
vt 0.164318 0.073672
vt 0.164251 0.073669
vt 0.164321 0.073627
vt 0.164384 0.073679
vt 0.164318 0.073672
vt 0.164318 0.073672
vt 0.164379 0.073716
vt 0.164315 0.07371
vt 0.164251 0.073669
vt 0.164315 0.07371
vt 0.16425 0.073707
vt 0.164181 0.073626
vt 0.164117 0.073676
vt 0.164112 0.07363
vt 0.164251 0.073622
vt 0.164184 0.073671
vt 0.164181 0.073626
vt 0.164251 0.073669
vt 0.164186 0.073708
vt 0.164184 0.073671
vt 0.164184 0.073671
vt 0.164122 0.073714
vt 0.164117 0.073676
vt 0.164527 0.07366
vt 0.164579 0.073725
vt 0.164515 0.073706
vt 0.164593 0.073683
vt 0.164641 0.073749
vt 0.164579 0.073725
vt 0.164579 0.073725
vt 0.164627 0.073783
vt 0.164567 0.073761
vt 0.164515 0.073706
vt 0.164567 0.073761
vt 0.164505 0.073742
vt 0.164459 0.073646
vt 0.164384 0.073679
vt 0.16439 0.073632
vt 0.164527 0.07366
vt 0.16445 0.073691
vt 0.164459 0.073646
vt 0.164515 0.073706
vt 0.164442 0.073727
vt 0.16445 0.073691
vt 0.16445 0.073691
vt 0.164379 0.073716
vt 0.164384 0.073679
vt 0.164784 0.073767
vt 0.164818 0.073842
vt 0.164761 0.073807
vt 0.164843 0.073805
vt 0.164873 0.073881
vt 0.164818 0.073842
vt 0.164818 0.073842
vt 0.164851 0.073911
vt 0.164798 0.073874
vt 0.164761 0.073807
vt 0.164798 0.073874
vt 0.164743 0.07384
vt 0.164722 0.073736
vt 0.164641 0.073749
vt 0.164659 0.073705
vt 0.164784 0.073767
vt 0.164702 0.073776
vt 0.164722 0.073736
vt 0.164761 0.073807
vt 0.164686 0.07381
vt 0.164702 0.073776
vt 0.164702 0.073776
vt 0.164627 0.073783
vt 0.164641 0.073749
vt 0.165007 0.073934
vt 0.165021 0.074016
vt 0.164974 0.073968
vt 0.165054 0.073985
vt 0.165064 0.074067
vt 0.165021 0.074016
vt 0.165021 0.074016
vt 0.165035 0.07409
vt 0.164993 0.074041
vt 0.164974 0.073968
vt 0.164993 0.074041
vt 0.164948 0.073995
vt 0.164954 0.073888
vt 0.164873 0.073881
vt 0.164901 0.073843
vt 0.165007 0.073934
vt 0.164925 0.073923
vt 0.164954 0.073888
vt 0.164974 0.073968
vt 0.164901 0.073951
vt 0.164925 0.073923
vt 0.164925 0.073923
vt 0.164851 0.073911
vt 0.164873 0.073881
vt 0.16518 0.074151
vt 0.165173 0.074234
vt 0.16514 0.074176
vt 0.165213 0.074212
vt 0.165204 0.074294
vt 0.165173 0.074234
vt 0.165173 0.074234
vt 0.165163 0.074315
vt 0.16514 0.074253
vt 0.16514 0.074176
vt 0.16514 0.074253
vt 0.165109 0.074196
vt 0.165141 0.074094
vt 0.165064 0.074067
vt 0.165101 0.074037
vt 0.16518 0.074151
vt 0.165104 0.07412
vt 0.165141 0.074094
vt 0.16514 0.074176
vt 0.165073 0.074142
vt 0.165104 0.07412
vt 0.165104 0.07412
vt 0.165035 0.07409
vt 0.165064 0.074067
vt 0.055153 0.213235
vt 0.066377 0.212537
vt 0.05963 0.219297
vt 0.072824 0.213106
vt 0.065783 0.206114
vt 0.086921 0.191951
vt 0.06574 0.223737
vt 0.066377 0.212537
vt 0.072824 0.213106
vt 0.081989 0.216912
vt 0.072824 0.213106
vt 0.086921 0.191951
vt 0.079508 0.229465
vt 0.075832 0.218837
vt 0.081989 0.216912
vt 0.06574 0.223737
vt 0.075832 0.218837
vt 0.072191 0.227667
vt 0.061994 0.196942
vt 0.061959 0.187018
vt 0.086921 0.191951
vt 0.049467 0.19945
vt 0.057838 0.19198
vt 0.061994 0.196942
vt 0.049407 0.184538
vt 0.057838 0.19198
vt 0.048287 0.191989
vt 0.065783 0.206114
vt 0.061994 0.196942
vt 0.086921 0.191951
vt 0.055153 0.213235
vt 0.060068 0.203121
vt 0.065783 0.206114
vt 0.049467 0.19945
vt 0.060068 0.203121
vt 0.05125 0.20679
vt 0.065766 0.177854
vt 0.072758 0.170812
vt 0.086921 0.191951
vt 0.055135 0.17077
vt 0.066335 0.171407
vt 0.065766 0.177854
vt 0.065636 0.160183
vt 0.066335 0.171407
vt 0.059575 0.164659
vt 0.061959 0.187018
vt 0.065766 0.177854
vt 0.086921 0.191951
vt 0.049407 0.184538
vt 0.060035 0.180862
vt 0.061959 0.187018
vt 0.055135 0.17077
vt 0.060035 0.180862
vt 0.051205 0.17722
vt 0.08193 0.167024
vt 0.091853 0.166989
vt 0.086921 0.191951
vt 0.079422 0.154497
vt 0.086891 0.162867
vt 0.08193 0.167024
vt 0.094334 0.154437
vt 0.086891 0.162867
vt 0.086882 0.153316
vt 0.072758 0.170812
vt 0.08193 0.167024
vt 0.086921 0.191951
vt 0.065636 0.160183
vt 0.075751 0.165098
vt 0.072758 0.170812
vt 0.079422 0.154497
vt 0.075751 0.165098
vt 0.072082 0.15628
vt 0.101018 0.170795
vt 0.108059 0.177788
vt 0.086921 0.191951
vt 0.108102 0.160164
vt 0.107465 0.171365
vt 0.101018 0.170795
vt 0.118689 0.170666
vt 0.107465 0.171365
vt 0.114212 0.164604
vt 0.091853 0.166989
vt 0.101018 0.170795
vt 0.086921 0.191951
vt 0.094334 0.154437
vt 0.09801 0.165064
vt 0.091853 0.166989
vt 0.108102 0.160164
vt 0.09801 0.165064
vt 0.101651 0.156234
vt 0.111848 0.186959
vt 0.111883 0.196883
vt 0.086921 0.191951
vt 0.124375 0.184451
vt 0.116004 0.191921
vt 0.111848 0.186959
vt 0.124435 0.199363
vt 0.116004 0.191921
vt 0.125556 0.191912
vt 0.108059 0.177788
vt 0.111848 0.186959
vt 0.086921 0.191951
vt 0.118689 0.170666
vt 0.113774 0.18078
vt 0.108059 0.177788
vt 0.124375 0.184451
vt 0.113774 0.18078
vt 0.122592 0.177111
vt 0.108076 0.206048
vt 0.101084 0.213089
vt 0.086921 0.191951
vt 0.118708 0.213132
vt 0.107507 0.212495
vt 0.108076 0.206048
vt 0.108206 0.223718
vt 0.107507 0.212495
vt 0.114267 0.219242
vt 0.111883 0.196883
vt 0.108076 0.206048
vt 0.086921 0.191951
vt 0.124435 0.199363
vt 0.113807 0.20304
vt 0.111883 0.196883
vt 0.118708 0.213132
vt 0.113807 0.20304
vt 0.122637 0.206681
vt 0.091912 0.216878
vt 0.081989 0.216912
vt 0.086921 0.191951
vt 0.09442 0.229404
vt 0.086951 0.221034
vt 0.091912 0.216878
vt 0.079508 0.229465
vt 0.086951 0.221034
vt 0.08696 0.230585
vt 0.101084 0.213089
vt 0.091912 0.216878
vt 0.086921 0.191951
vt 0.108206 0.223718
vt 0.098091 0.218803
vt 0.101084 0.213089
vt 0.09442 0.229404
vt 0.098091 0.218803
vt 0.10176 0.227622
vt 0.163546 0.07398
vt 0.163564 0.073999
vt 0.163518 0.074043
vt 0.163564 0.073999
vt 0.163574 0.07401
vt 0.163532 0.074055
vt 0.163532 0.074055
vt 0.163489 0.0741
vt 0.163475 0.07409
vt 0.1635 0.074026
vt 0.163518 0.074043
vt 0.163475 0.07409
vt 0.163564 0.073999
vt 0.163611 0.073957
vt 0.163622 0.073971
vt 0.163546 0.07398
vt 0.163595 0.073938
vt 0.163611 0.073957
vt 0.163595 0.073938
vt 0.163646 0.073899
vt 0.163661 0.073919
vt 0.163622 0.073971
vt 0.163611 0.073957
vt 0.163661 0.073919
vt 0.163661 0.073919
vt 0.163713 0.073884
vt 0.163723 0.073899
vt 0.163661 0.073919
vt 0.163646 0.073899
vt 0.1637 0.073863
vt 0.163713 0.073884
vt 0.1637 0.073863
vt 0.163756 0.07383
vt 0.163723 0.073899
vt 0.163713 0.073884
vt 0.163767 0.073852
vt 0.165146 0.074321
vt 0.165118 0.074264
vt 0.16514 0.074253
vt 0.165146 0.074321
vt 0.16513 0.074326
vt 0.165101 0.074272
vt 0.165101 0.074272
vt 0.165073 0.074217
vt 0.165087 0.074209
vt 0.165118 0.074264
vt 0.165087 0.074209
vt 0.165109 0.074196
vt 0.163767 0.073852
vt 0.163824 0.073824
vt 0.163831 0.07384
vt 0.163756 0.07383
vt 0.163813 0.073801
vt 0.163824 0.073824
vt 0.163813 0.073801
vt 0.163872 0.073776
vt 0.163881 0.073799
vt 0.163831 0.07384
vt 0.163824 0.073824
vt 0.163881 0.073799
vt 0.163881 0.073799
vt 0.163941 0.073779
vt 0.163946 0.073796
vt 0.163881 0.073799
vt 0.163872 0.073776
vt 0.163933 0.073754
vt 0.163941 0.073779
vt 0.163933 0.073754
vt 0.163995 0.073737
vt 0.163946 0.073796
vt 0.163941 0.073779
vt 0.164001 0.073761
vt 0.164001 0.073761
vt 0.164063 0.073748
vt 0.164066 0.073766
vt 0.163995 0.073737
vt 0.164058 0.073723
vt 0.164063 0.073748
vt 0.164058 0.073723
vt 0.164122 0.073714
vt 0.164125 0.073739
vt 0.164066 0.073766
vt 0.164063 0.073748
vt 0.164125 0.073739
vt 0.164125 0.073739
vt 0.164187 0.073734
vt 0.164188 0.073751
vt 0.164125 0.073739
vt 0.164122 0.073714
vt 0.164186 0.073708
vt 0.164187 0.073734
vt 0.164186 0.073708
vt 0.16425 0.073707
vt 0.164188 0.073751
vt 0.164187 0.073734
vt 0.16425 0.073732
vt 0.16425 0.073732
vt 0.164313 0.073735
vt 0.164312 0.073753
vt 0.16425 0.073707
vt 0.164315 0.07371
vt 0.164313 0.073735
vt 0.164315 0.07371
vt 0.164379 0.073716
vt 0.164375 0.073741
vt 0.164312 0.073753
vt 0.164313 0.073735
vt 0.164375 0.073741
vt 0.164375 0.073741
vt 0.164437 0.073752
vt 0.164434 0.073769
vt 0.164375 0.073741
vt 0.164379 0.073716
vt 0.164442 0.073727
vt 0.164437 0.073752
vt 0.164442 0.073727
vt 0.164505 0.073742
vt 0.164434 0.073769
vt 0.164437 0.073752
vt 0.164499 0.073766
vt 0.164499 0.073766
vt 0.164559 0.073785
vt 0.164553 0.073802
vt 0.164505 0.073742
vt 0.164567 0.073761
vt 0.164559 0.073785
vt 0.164567 0.073761
vt 0.164627 0.073783
vt 0.164618 0.073807
vt 0.164553 0.073802
vt 0.164559 0.073785
vt 0.164618 0.073807
vt 0.164618 0.073807
vt 0.164675 0.073833
vt 0.164667 0.073849
vt 0.164618 0.073807
vt 0.164627 0.073783
vt 0.164686 0.07381
vt 0.164675 0.073833
vt 0.164686 0.07381
vt 0.164743 0.07384
vt 0.164667 0.073849
vt 0.164675 0.073833
vt 0.16473 0.073862
vt 0.16473 0.073862
vt 0.164784 0.073895
vt 0.164774 0.07391
vt 0.164743 0.07384
vt 0.164798 0.073874
vt 0.164784 0.073895
vt 0.164798 0.073874
vt 0.164851 0.073911
vt 0.164835 0.073931
vt 0.164774 0.07391
vt 0.164784 0.073895
vt 0.164835 0.073931
vt 0.164835 0.073931
vt 0.164884 0.07397
vt 0.164873 0.073984
vt 0.164835 0.073931
vt 0.164851 0.073911
vt 0.164901 0.073951
vt 0.164884 0.07397
vt 0.164901 0.073951
vt 0.164948 0.073995
vt 0.164873 0.073984
vt 0.164884 0.07397
vt 0.164931 0.074013
vt 0.164931 0.074013
vt 0.164974 0.074058
vt 0.164961 0.07407
vt 0.164948 0.073995
vt 0.164993 0.074041
vt 0.164974 0.074058
vt 0.164993 0.074041
vt 0.165035 0.07409
vt 0.165015 0.074106
vt 0.164961 0.07407
vt 0.164974 0.074058
vt 0.165015 0.074106
vt 0.165015 0.074106
vt 0.165053 0.074156
vt 0.165038 0.074166
vt 0.165015 0.074106
vt 0.165035 0.07409
vt 0.165073 0.074142
vt 0.165053 0.074156
vt 0.165073 0.074142
vt 0.165109 0.074196
vt 0.165038 0.074166
vt 0.165053 0.074156
vt 0.165087 0.074209
vt 0.16349 0.073919
vt 0.163543 0.073874
vt 0.163572 0.073909
vt 0.163543 0.073874
vt 0.163597 0.07383
vt 0.163624 0.073868
vt 0.163572 0.073909
vt 0.163624 0.073868
vt 0.163646 0.073899
vt 0.163521 0.073953
vt 0.163572 0.073909
vt 0.163595 0.073938
vt 0.163442 0.073968
vt 0.163474 0.074
vt 0.163428 0.074048
vt 0.16349 0.073919
vt 0.163521 0.073953
vt 0.163474 0.074
vt 0.163521 0.073953
vt 0.163546 0.07398
vt 0.1635 0.074026
vt 0.163474 0.074
vt 0.1635 0.074026
vt 0.163461 0.07408
vt 0.163715 0.073756
vt 0.163778 0.073727
vt 0.163797 0.073767
vt 0.163778 0.073727
vt 0.163841 0.073697
vt 0.163859 0.073741
vt 0.163797 0.073767
vt 0.163859 0.073741
vt 0.163872 0.073776
vt 0.163738 0.073797
vt 0.163797 0.073767
vt 0.163813 0.073801
vt 0.163656 0.073793
vt 0.16368 0.073831
vt 0.163624 0.073868
vt 0.163715 0.073756
vt 0.163738 0.073797
vt 0.16368 0.073831
vt 0.163738 0.073797
vt 0.163756 0.07383
vt 0.1637 0.073863
vt 0.16368 0.073831
vt 0.1637 0.073863
vt 0.163646 0.073899
vt 0.163974 0.073655
vt 0.164043 0.073642
vt 0.164051 0.073687
vt 0.164043 0.073642
vt 0.164112 0.07363
vt 0.164117 0.073676
vt 0.164051 0.073687
vt 0.164117 0.073676
vt 0.164122 0.073714
vt 0.163986 0.073701
vt 0.164051 0.073687
vt 0.164058 0.073723
vt 0.163908 0.073676
vt 0.163922 0.073719
vt 0.163859 0.073741
vt 0.163974 0.073655
vt 0.163986 0.073701
vt 0.163922 0.073719
vt 0.163986 0.073701
vt 0.163995 0.073737
vt 0.163933 0.073754
vt 0.163922 0.073719
vt 0.163933 0.073754
vt 0.163872 0.073776
vt 0.164251 0.073622
vt 0.164321 0.073627
vt 0.164318 0.073672
vt 0.164321 0.073627
vt 0.16439 0.073632
vt 0.164384 0.073679
vt 0.164318 0.073672
vt 0.164384 0.073679
vt 0.164379 0.073716
vt 0.164251 0.073669
vt 0.164318 0.073672
vt 0.164315 0.07371
vt 0.164181 0.073626
vt 0.164184 0.073671
vt 0.164117 0.073676
vt 0.164251 0.073622
vt 0.164251 0.073669
vt 0.164184 0.073671
vt 0.164251 0.073669
vt 0.16425 0.073707
vt 0.164186 0.073708
vt 0.164184 0.073671
vt 0.164186 0.073708
vt 0.164122 0.073714
vt 0.164527 0.07366
vt 0.164593 0.073683
vt 0.164579 0.073725
vt 0.164593 0.073683
vt 0.164659 0.073705
vt 0.164641 0.073749
vt 0.164579 0.073725
vt 0.164641 0.073749
vt 0.164627 0.073783
vt 0.164515 0.073706
vt 0.164579 0.073725
vt 0.164567 0.073761
vt 0.164459 0.073646
vt 0.16445 0.073691
vt 0.164384 0.073679
vt 0.164527 0.07366
vt 0.164515 0.073706
vt 0.16445 0.073691
vt 0.164515 0.073706
vt 0.164505 0.073742
vt 0.164442 0.073727
vt 0.16445 0.073691
vt 0.164442 0.073727
vt 0.164379 0.073716
vt 0.164784 0.073767
vt 0.164843 0.073805
vt 0.164818 0.073842
vt 0.164843 0.073805
vt 0.164901 0.073843
vt 0.164873 0.073881
vt 0.164818 0.073842
vt 0.164873 0.073881
vt 0.164851 0.073911
vt 0.164761 0.073807
vt 0.164818 0.073842
vt 0.164798 0.073874
vt 0.164722 0.073736
vt 0.164702 0.073776
vt 0.164641 0.073749
vt 0.164784 0.073767
vt 0.164761 0.073807
vt 0.164702 0.073776
vt 0.164761 0.073807
vt 0.164743 0.07384
vt 0.164686 0.07381
vt 0.164702 0.073776
vt 0.164686 0.07381
vt 0.164627 0.073783
vt 0.165007 0.073934
vt 0.165054 0.073985
vt 0.165021 0.074016
vt 0.165054 0.073985
vt 0.165101 0.074037
vt 0.165064 0.074067
vt 0.165021 0.074016
vt 0.165064 0.074067
vt 0.165035 0.07409
vt 0.164974 0.073968
vt 0.165021 0.074016
vt 0.164993 0.074041
vt 0.164954 0.073888
vt 0.164925 0.073923
vt 0.164873 0.073881
vt 0.165007 0.073934
vt 0.164974 0.073968
vt 0.164925 0.073923
vt 0.164974 0.073968
vt 0.164948 0.073995
vt 0.164901 0.073951
vt 0.164925 0.073923
vt 0.164901 0.073951
vt 0.164851 0.073911
vt 0.16518 0.074151
vt 0.165213 0.074212
vt 0.165173 0.074234
vt 0.165213 0.074212
vt 0.165245 0.074272
vt 0.165204 0.074294
vt 0.165173 0.074234
vt 0.165204 0.074294
vt 0.165163 0.074315
vt 0.16514 0.074176
vt 0.165173 0.074234
vt 0.16514 0.074253
vt 0.165141 0.074094
vt 0.165104 0.07412
vt 0.165064 0.074067
vt 0.16518 0.074151
vt 0.16514 0.074176
vt 0.165104 0.07412
vt 0.16514 0.074176
vt 0.165109 0.074196
vt 0.165073 0.074142
vt 0.165104 0.07412
vt 0.165073 0.074142
vt 0.165035 0.07409
vt 0.055153 0.213235
vt 0.065783 0.206114
vt 0.066377 0.212537
vt 0.072824 0.213106
vt 0.066377 0.212537
vt 0.065783 0.206114
vt 0.06574 0.223737
vt 0.05963 0.219297
vt 0.066377 0.212537
vt 0.081989 0.216912
vt 0.075832 0.218837
vt 0.072824 0.213106
vt 0.079508 0.229465
vt 0.072191 0.227667
vt 0.075832 0.218837
vt 0.06574 0.223737
vt 0.072824 0.213106
vt 0.075832 0.218837
vt 0.061994 0.196942
vt 0.057838 0.19198
vt 0.061959 0.187018
vt 0.049467 0.19945
vt 0.048287 0.191989
vt 0.057838 0.19198
vt 0.049407 0.184538
vt 0.061959 0.187018
vt 0.057838 0.19198
vt 0.065783 0.206114
vt 0.060068 0.203121
vt 0.061994 0.196942
vt 0.055153 0.213235
vt 0.05125 0.20679
vt 0.060068 0.203121
vt 0.049467 0.19945
vt 0.061994 0.196942
vt 0.060068 0.203121
vt 0.065766 0.177854
vt 0.066335 0.171407
vt 0.072758 0.170812
vt 0.055135 0.17077
vt 0.059575 0.164659
vt 0.066335 0.171407
vt 0.065636 0.160183
vt 0.072758 0.170812
vt 0.066335 0.171407
vt 0.061959 0.187018
vt 0.060035 0.180862
vt 0.065766 0.177854
vt 0.049407 0.184538
vt 0.051205 0.17722
vt 0.060035 0.180862
vt 0.055135 0.17077
vt 0.065766 0.177854
vt 0.060035 0.180862
vt 0.08193 0.167024
vt 0.086891 0.162867
vt 0.091853 0.166989
vt 0.079422 0.154497
vt 0.086882 0.153316
vt 0.086891 0.162867
vt 0.094334 0.154437
vt 0.091853 0.166989
vt 0.086891 0.162867
vt 0.072758 0.170812
vt 0.075751 0.165098
vt 0.08193 0.167024
vt 0.065636 0.160183
vt 0.072082 0.15628
vt 0.075751 0.165098
vt 0.079422 0.154497
vt 0.08193 0.167024
vt 0.075751 0.165098
vt 0.101018 0.170795
vt 0.107465 0.171365
vt 0.108059 0.177788
vt 0.108102 0.160164
vt 0.114212 0.164604
vt 0.107465 0.171365
vt 0.118689 0.170666
vt 0.108059 0.177788
vt 0.107465 0.171365
vt 0.091853 0.166989
vt 0.09801 0.165064
vt 0.101018 0.170795
vt 0.094334 0.154437
vt 0.101651 0.156234
vt 0.09801 0.165064
vt 0.108102 0.160164
vt 0.101018 0.170795
vt 0.09801 0.165064
vt 0.111848 0.186959
vt 0.116004 0.191921
vt 0.111883 0.196883
vt 0.124375 0.184451
vt 0.125556 0.191912
vt 0.116004 0.191921
vt 0.124435 0.199363
vt 0.111883 0.196883
vt 0.116004 0.191921
vt 0.108059 0.177788
vt 0.113774 0.18078
vt 0.111848 0.186959
vt 0.118689 0.170666
vt 0.122592 0.177111
vt 0.113774 0.18078
vt 0.124375 0.184451
vt 0.111848 0.186959
vt 0.113774 0.18078
vt 0.108076 0.206048
vt 0.107507 0.212495
vt 0.101084 0.213089
vt 0.118708 0.213132
vt 0.114267 0.219242
vt 0.107507 0.212495
vt 0.108206 0.223718
vt 0.101084 0.213089
vt 0.107507 0.212495
vt 0.111883 0.196883
vt 0.113807 0.20304
vt 0.108076 0.206048
vt 0.124435 0.199363
vt 0.122637 0.206681
vt 0.113807 0.20304
vt 0.118708 0.213132
vt 0.108076 0.206048
vt 0.113807 0.20304
vt 0.091912 0.216878
vt 0.086951 0.221034
vt 0.081989 0.216912
vt 0.09442 0.229404
vt 0.08696 0.230585
vt 0.086951 0.221034
vt 0.079508 0.229465
vt 0.081989 0.216912
vt 0.086951 0.221034
vt 0.101084 0.213089
vt 0.098091 0.218803
vt 0.091912 0.216878
vt 0.108206 0.223718
vt 0.10176 0.227622
vt 0.098091 0.218803
vt 0.09442 0.229404
vt 0.091912 0.216878
vt 0.098091 0.218803
f 18/1 146/2 69/3
f 66/4 67/5 146/6
f 67/7 68/8 146/9
f 69/10 68/11 22/12
f 66/13 72/14 19/15
f 18/16 147/17 66/18
f 70/19 71/20 147/21
f 72/22 71/23 20/24
f 71/25 75/26 20/27
f 71/28 73/29 148/30
f 148/31 24/32 74/33
f 75/34 74/35 25/36
f 68/37 78/38 22/39
f 68/40 76/41 149/42
f 76/43 77/44 149/45
f 149/46 48/47 78/48
f 74/49 81/50 25/51
f 24/52 150/53 74/54
f 79/55 80/56 150/57
f 81/58 80/59 26/60
f 80/61 84/62 26/63
f 80/64 82/65 151/66
f 151/67 28/68 83/69
f 84/70 83/71 29/72
f 83/73 87/74 29/75
f 28/76 152/77 83/78
f 85/79 86/80 152/81
f 87/82 86/83 30/84
f 86/85 90/86 30/87
f 86/88 88/89 153/90
f 153/91 32/92 89/93
f 90/94 89/95 33/96
f 89/97 93/98 33/99
f 32/100 154/101 89/102
f 91/103 92/104 154/105
f 93/106 92/107 34/108
f 92/109 96/110 34/111
f 92/112 94/113 155/114
f 155/115 36/116 95/117
f 96/118 95/119 37/120
f 95/121 99/122 37/123
f 36/124 156/125 95/126
f 97/127 98/128 156/129
f 99/130 98/131 38/132
f 98/133 102/134 38/135
f 98/136 100/137 157/138
f 157/139 40/140 101/141
f 102/142 101/143 41/144
f 101/145 105/146 41/147
f 40/148 158/149 101/150
f 103/151 104/152 158/153
f 105/154 104/155 42/156
f 104/157 108/158 42/159
f 104/160 106/161 159/162
f 159/163 44/164 107/165
f 108/166 107/167 45/168
f 107/169 111/170 45/171
f 44/172 160/173 107/174
f 109/175 110/176 160/177
f 111/178 110/179 46/180
f 110/181 113/182 46/183
f 110/184 112/185 161/186
f 161/187 48/188 77/189
f 113/190 77/191 49/192
f 10/193 162/194 115/195
f 50/196 114/197 162/198
f 162/199 21/200 70/201
f 115/202 70/203 18/204
f 51/205 116/206 1/207
f 10/208 163/209 51/210
f 115/211 69/212 163/213
f 163/214 22/215 116/216
f 11/217 164/218 118/219
f 52/220 117/221 164/222
f 164/223 27/224 79/225
f 118/226 79/227 24/228
f 53/229 114/230 2/231
f 11/232 165/233 53/234
f 118/235 73/236 165/237
f 165/238 21/239 114/240
f 12/241 166/242 120/243
f 54/244 119/245 166/246
f 166/247 31/248 85/249
f 120/250 85/251 28/252
f 55/253 117/254 3/255
f 12/256 167/257 55/258
f 120/259 82/260 167/261
f 167/262 27/263 117/264
f 13/265 168/266 122/267
f 56/268 121/269 168/270
f 168/271 35/272 91/273
f 122/274 91/275 32/276
f 57/277 119/278 4/279
f 13/280 169/281 57/282
f 122/283 88/284 169/285
f 169/286 31/287 119/288
f 14/289 170/290 124/291
f 58/292 123/293 170/294
f 170/295 39/296 97/297
f 124/298 97/299 36/300
f 59/301 121/302 5/303
f 14/304 171/305 59/306
f 124/307 94/308 171/309
f 171/310 35/311 121/312
f 15/313 172/314 126/315
f 60/316 125/317 172/318
f 172/319 43/320 103/321
f 126/322 103/323 40/324
f 61/325 123/326 6/327
f 15/328 173/329 61/330
f 126/331 100/332 173/333
f 173/334 39/335 123/336
f 16/337 174/338 128/339
f 62/340 127/341 174/342
f 174/343 47/344 109/345
f 128/346 109/347 44/348
f 63/349 125/350 7/351
f 16/352 175/353 63/354
f 128/355 106/356 175/357
f 175/358 43/359 125/360
f 17/361 176/362 129/363
f 64/364 116/365 176/366
f 176/367 22/368 78/369
f 129/370 78/371 48/372
f 65/373 127/374 8/375
f 17/376 177/377 65/378
f 129/379 112/380 177/381
f 177/382 47/383 127/384
f 20/385 178/386 72/387
f 131/388 130/389 9/390
f 19/391 178/392 131/393
f 132/394 131/395 9/396
f 23/397 179/398 132/399
f 19/400 179/401 67/402
f 133/403 134/404 9/405
f 25/406 180/407 133/408
f 26/409 180/410 81/411
f 130/412 133/413 9/414
f 20/415 181/416 130/417
f 25/418 181/419 75/420
f 135/421 136/422 9/423
f 29/424 182/425 135/426
f 30/427 182/428 87/429
f 134/430 135/431 9/432
f 26/433 183/434 134/435
f 29/436 183/437 84/438
f 137/439 138/440 9/441
f 33/442 184/443 137/444
f 34/445 184/446 93/447
f 136/448 137/449 9/450
f 30/451 185/452 136/453
f 33/454 185/455 90/456
f 139/457 140/458 9/459
f 37/460 186/461 139/462
f 38/463 186/464 99/465
f 138/466 139/467 9/468
f 34/469 187/470 138/471
f 37/472 187/473 96/474
f 141/475 142/476 9/477
f 41/478 188/479 141/480
f 42/481 188/482 105/483
f 140/484 141/485 9/486
f 38/487 189/488 140/489
f 41/490 189/491 102/492
f 143/493 144/494 9/495
f 45/496 190/497 143/498
f 46/499 190/500 111/501
f 142/502 143/503 9/504
f 42/505 191/506 142/507
f 45/508 191/509 108/510
f 145/511 132/512 9/513
f 49/514 192/515 145/516
f 23/517 192/518 76/519
f 144/520 145/521 9/522
f 46/523 193/524 144/525
f 49/526 193/527 113/528
f 18/529 66/530 146/531
f 66/532 19/533 67/534
f 67/535 23/536 68/537
f 69/538 146/539 68/540
f 66/541 147/542 72/543
f 18/544 70/545 147/546
f 70/547 21/548 71/549
f 72/550 147/551 71/552
f 71/553 148/554 75/555
f 71/556 21/557 73/558
f 148/559 73/560 24/561
f 75/562 148/563 74/564
f 68/565 149/566 78/567
f 68/568 23/569 76/570
f 76/571 49/572 77/573
f 149/574 77/575 48/576
f 74/577 150/578 81/579
f 24/580 79/581 150/582
f 79/583 27/584 80/585
f 81/586 150/587 80/588
f 80/589 151/590 84/591
f 80/592 27/593 82/594
f 151/595 82/596 28/597
f 84/598 151/599 83/600
f 83/601 152/602 87/603
f 28/604 85/605 152/606
f 85/607 31/608 86/609
f 87/610 152/611 86/612
f 86/613 153/614 90/615
f 86/616 31/617 88/618
f 153/619 88/620 32/621
f 90/622 153/623 89/624
f 89/625 154/626 93/627
f 32/628 91/629 154/630
f 91/631 35/632 92/633
f 93/634 154/635 92/636
f 92/637 155/638 96/639
f 92/640 35/641 94/642
f 155/643 94/644 36/645
f 96/646 155/647 95/648
f 95/649 156/650 99/651
f 36/652 97/653 156/654
f 97/655 39/656 98/657
f 99/658 156/659 98/660
f 98/661 157/662 102/663
f 98/664 39/665 100/666
f 157/667 100/668 40/669
f 102/670 157/671 101/672
f 101/673 158/674 105/675
f 40/676 103/677 158/678
f 103/679 43/680 104/681
f 105/682 158/683 104/684
f 104/685 159/686 108/687
f 104/688 43/689 106/690
f 159/691 106/692 44/693
f 108/694 159/695 107/696
f 107/697 160/698 111/699
f 44/700 109/701 160/702
f 109/703 47/704 110/705
f 111/706 160/707 110/708
f 110/709 161/710 113/711
f 110/712 47/713 112/714
f 161/715 112/716 48/717
f 113/718 161/719 77/720
f 10/721 50/722 162/723
f 50/724 2/725 114/726
f 162/727 114/728 21/729
f 115/730 162/731 70/732
f 51/733 163/734 116/735
f 10/736 115/737 163/738
f 115/739 18/740 69/741
f 163/742 69/743 22/744
f 11/745 52/746 164/747
f 52/748 3/749 117/750
f 164/751 117/752 27/753
f 118/754 164/755 79/756
f 53/757 165/758 114/759
f 11/760 118/761 165/762
f 118/763 24/764 73/765
f 165/766 73/767 21/768
f 12/769 54/770 166/771
f 54/772 4/773 119/774
f 166/775 119/776 31/777
f 120/778 166/779 85/780
f 55/781 167/782 117/783
f 12/784 120/785 167/786
f 120/787 28/788 82/789
f 167/790 82/791 27/792
f 13/793 56/794 168/795
f 56/796 5/797 121/798
f 168/799 121/800 35/801
f 122/802 168/803 91/804
f 57/805 169/806 119/807
f 13/808 122/809 169/810
f 122/811 32/812 88/813
f 169/814 88/815 31/816
f 14/817 58/818 170/819
f 58/820 6/821 123/822
f 170/823 123/824 39/825
f 124/826 170/827 97/828
f 59/829 171/830 121/831
f 14/832 124/833 171/834
f 124/835 36/836 94/837
f 171/838 94/839 35/840
f 15/841 60/842 172/843
f 60/844 7/845 125/846
f 172/847 125/848 43/849
f 126/850 172/851 103/852
f 61/853 173/854 123/855
f 15/856 126/857 173/858
f 126/859 40/860 100/861
f 173/862 100/863 39/864
f 16/865 62/866 174/867
f 62/868 8/869 127/870
f 174/871 127/872 47/873
f 128/874 174/875 109/876
f 63/877 175/878 125/879
f 16/880 128/881 175/882
f 128/883 44/884 106/885
f 175/886 106/887 43/888
f 17/889 64/890 176/891
f 64/892 1/893 116/894
f 176/895 116/896 22/897
f 129/898 176/899 78/900
f 65/901 177/902 127/903
f 17/904 129/905 177/906
f 129/907 48/908 112/909
f 177/910 112/911 47/912
f 20/913 130/914 178/915
f 131/916 178/917 130/918
f 19/919 72/920 178/921
f 132/922 179/923 131/924
f 23/925 67/926 179/927
f 19/928 131/929 179/930
f 133/931 180/932 134/933
f 25/934 81/935 180/936
f 26/937 134/938 180/939
f 130/940 181/941 133/942
f 20/943 75/944 181/945
f 25/946 133/947 181/948
f 135/949 182/950 136/951
f 29/952 87/953 182/954
f 30/955 136/956 182/957
f 134/958 183/959 135/960
f 26/961 84/962 183/963
f 29/964 135/965 183/966
f 137/967 184/968 138/969
f 33/970 93/971 184/972
f 34/973 138/974 184/975
f 136/976 185/977 137/978
f 30/979 90/980 185/981
f 33/982 137/983 185/984
f 139/985 186/986 140/987
f 37/988 99/989 186/990
f 38/991 140/992 186/993
f 138/994 187/995 139/996
f 34/997 96/998 187/999
f 37/1000 139/1001 187/1002
f 141/1003 188/1004 142/1005
f 41/1006 105/1007 188/1008
f 42/1009 142/1010 188/1011
f 140/1012 189/1013 141/1014
f 38/1015 102/1016 189/1017
f 41/1018 141/1019 189/1020
f 143/1021 190/1022 144/1023
f 45/1024 111/1025 190/1026
f 46/1027 144/1028 190/1029
f 142/1030 191/1031 143/1032
f 42/1033 108/1034 191/1035
f 45/1036 143/1037 191/1038
f 145/1039 192/1040 132/1041
f 49/1042 76/1043 192/1044
f 23/1045 132/1046 192/1047
f 144/1048 193/1049 145/1050
f 46/1051 113/1052 193/1053
f 49/1054 145/1055 193/1056
