o CoffeeMachine039_Container001_Clear
v -0.00744 0.267698 0.123203
v -0.007482 0.268259 0.122971
v -0.007499 0.268491 0.122411
v 0.007756 0.268491 0.122411
v 0.007741 0.268259 0.122971
v 0.007705 0.267698 0.123203
v -0.068397 0.204605 -0.138773
v -0.068934 0.204678 -0.138541
v -0.069157 0.204708 -0.137981
v -0.07072 0.190192 -0.137981
v -0.070495 0.190192 -0.138541
v -0.06995 0.190193 -0.138773
v -0.007499 0.268491 -0.137981
v -0.007482 0.268259 -0.138541
v -0.00744 0.267698 -0.138773
v 0.007705 0.267698 -0.138773
v 0.007741 0.268259 -0.138541
v 0.007756 0.268491 -0.137981
v 0.069413 0.204708 -0.137981
v 0.06919 0.204679 -0.138541
v 0.068652 0.20461 -0.138773
v 0.069951 0.190137 -0.138773
v 0.070495 0.190136 -0.138541
v 0.07072 0.190136 -0.137981
v -0.068397 0.204605 0.123203
v -0.068934 0.204678 0.122971
v -0.069157 0.204708 0.122411
v -0.066692 0.221482 0.122411
v -0.066474 0.221421 0.122971
v -0.065948 0.221274 0.123203
v -0.06022 0.236213 -0.138773
v -0.060698 0.236486 -0.138541
v -0.060896 0.236599 -0.137981
v -0.066692 0.221482 -0.137981
v -0.066474 0.221421 -0.138541
v -0.065948 0.221274 -0.138773
v -0.06022 0.236213 0.123203
v -0.060698 0.236486 0.122971
v -0.060896 0.236599 0.122411
v -0.05128 0.25021 0.122411
v -0.05112 0.250044 0.122971
v -0.050733 0.249642 0.123203
v -0.037958 0.259244 -0.138773
v -0.03822 0.25974 -0.138541
v -0.038328 0.259946 -0.137981
v -0.05128 0.25021 -0.137981
v -0.05112 0.250044 -0.138541
v -0.050733 0.249642 -0.138773
v -0.037958 0.259244 0.123203
v -0.03822 0.25974 0.122971
v -0.038328 0.259946 0.122411
v -0.023447 0.265916 0.122411
v -0.023389 0.265691 0.122971
v -0.023247 0.265147 0.123203
v -0.023447 0.265916 -0.137981
v -0.023389 0.265691 -0.138541
v -0.023247 0.265147 -0.138773
v 0.023988 0.266261 0.122411
v 0.023929 0.266035 0.122971
v 0.023786 0.265489 0.123203
v 0.038204 0.259251 -0.138773
v 0.038473 0.259742 -0.138541
v 0.038584 0.259946 -0.137981
v 0.023988 0.266261 -0.137981
v 0.023929 0.266035 -0.138541
v 0.023786 0.265489 -0.138773
v 0.038204 0.259251 0.123203
v 0.038473 0.259742 0.122971
v 0.038584 0.259946 0.122411
v 0.051722 0.249948 0.122411
v 0.051561 0.249783 0.122971
v 0.051173 0.249382 0.123203
v 0.060475 0.236216 -0.138773
v 0.060954 0.236487 -0.138541
v 0.061152 0.236599 -0.137981
v 0.051722 0.249948 -0.137981
v 0.051561 0.249783 -0.138541
v 0.051173 0.249382 -0.138773
v 0.060475 0.236216 0.123203
v 0.060954 0.236487 0.122971
v 0.061152 0.236599 0.122411
v 0.06693 0.22121 0.122411
v 0.066712 0.22115 0.122971
v 0.066186 0.221004 0.123203
v 0.06693 0.22121 -0.137981
v 0.066712 0.22115 -0.138541
v 0.066186 0.221004 -0.138773
v -0.048229 0.154239 -0.137981
v -0.048184 0.154471 -0.138541
v -0.048077 0.155031 -0.138773
v 0.048485 0.154239 -0.137981
v 0.04844 0.154471 -0.138541
v 0.048333 0.155031 -0.138773
v -0.069157 0.175888 0.122411
v -0.068937 0.175947 0.122971
v -0.068408 0.176088 0.123203
v -0.07072 0.190192 0.122411
v -0.070495 0.190192 0.122971
v -0.06995 0.190193 0.123203
v -0.048229 0.154239 0.122411
v -0.048184 0.154471 0.122971
v -0.048077 0.155032 0.123203
v 0.048485 0.154239 0.122411
v 0.04844 0.154471 0.122971
v 0.048333 0.155032 0.123203
v 0.069413 0.175888 0.122411
v 0.069193 0.175945 0.122971
v 0.068661 0.176081 0.123203
v 0.069951 0.190137 0.123203
v 0.070495 0.190136 0.122971
v 0.07072 0.190136 0.122411
v -0.068408 0.176088 -0.138773
v -0.068937 0.175947 -0.138541
v -0.069157 0.175888 -0.137981
v -0.063027 0.16058 -0.137981
v -0.062855 0.160758 -0.138541
v -0.062441 0.161186 -0.138773
v -0.063027 0.16058 0.122411
v -0.062855 0.160758 0.122971
v -0.062441 0.161186 0.123203
v 0.063283 0.16058 -0.137981
v 0.063111 0.160758 -0.138541
v 0.062697 0.161186 -0.138773
v 0.063283 0.16058 0.122411
v 0.063111 0.160758 0.122971
v 0.062697 0.161186 0.123203
v 0.069413 0.175888 -0.137981
v 0.069193 0.175945 -0.138541
v 0.068661 0.176081 -0.138773
v -0.047619 0.157409 -0.137981
v -0.047664 0.157177 -0.138541
v -0.047772 0.156617 -0.138773
v 0.048028 0.156617 -0.138773
v 0.04792 0.157177 -0.138541
v 0.047876 0.157409 -0.137981
v -0.047772 0.156617 0.123203
v -0.047664 0.157177 0.122971
v -0.047619 0.157409 0.122411
v 0.047876 0.157409 0.122411
v 0.04792 0.157177 0.122971
v 0.048028 0.156617 0.123203
v -0.007096 0.265321 0.122411
v -0.007113 0.265553 0.122971
v -0.007155 0.266113 0.123203
v 0.007403 0.266113 0.123203
v 0.007367 0.265553 0.122971
v 0.007352 0.265321 0.122411
v -0.007155 0.266113 -0.138773
v -0.007113 0.265553 -0.138541
v -0.007096 0.265321 -0.137981
v 0.007352 0.265321 -0.137981
v 0.007367 0.265553 -0.138541
v 0.007403 0.266113 -0.138773
v 0.067109 0.204388 -0.138773
v 0.066571 0.204319 -0.138541
v 0.066348 0.204291 -0.137981
v 0.068378 0.190248 -0.138773
v 0.067834 0.190248 -0.138541
v 0.067609 0.190249 -0.137981
v 0.0671 0.176325 0.123203
v 0.066569 0.176462 0.122971
v 0.066348 0.176519 0.122411
v 0.067609 0.190249 0.122411
v 0.067834 0.190248 0.122971
v 0.068378 0.190248 0.123203
v -0.066092 0.204291 -0.137981
v -0.066315 0.204321 -0.138541
v -0.066852 0.204394 -0.138773
v -0.067599 0.190303 -0.137981
v -0.067825 0.190302 -0.138541
v -0.06837 0.190302 -0.138773
v -0.066092 0.176519 0.122411
v -0.066312 0.17646 0.122971
v -0.066841 0.176319 0.123203
v -0.06837 0.190302 0.123203
v -0.067825 0.190302 0.122971
v -0.067599 0.190303 0.122411
v -0.066092 0.204291 0.122411
v -0.066315 0.204321 0.122971
v -0.066852 0.204394 0.123203
v -0.063722 0.220421 0.122411
v -0.06394 0.220482 0.122971
v -0.064466 0.22063 0.123203
v -0.058149 0.234959 -0.137981
v -0.058347 0.235072 -0.138541
v -0.058825 0.235345 -0.138773
v -0.064466 0.22063 -0.138773
v -0.06394 0.220482 -0.138541
v -0.063722 0.220421 -0.137981
v -0.058149 0.234959 0.122411
v -0.058347 0.235072 0.122971
v -0.058825 0.235345 0.123203
v -0.049027 0.247869 0.122411
v -0.049188 0.248035 0.122971
v -0.049575 0.248437 0.123203
v -0.036742 0.257103 -0.137981
v -0.03685 0.257309 -0.138541
v -0.037112 0.257805 -0.138773
v -0.049575 0.248437 -0.138773
v -0.049188 0.248035 -0.138541
v -0.049027 0.247869 -0.137981
v -0.036742 0.257103 0.122411
v -0.03685 0.257309 0.122971
v -0.037112 0.257805 0.123203
v -0.022432 0.262845 0.122411
v -0.02249 0.263071 0.122971
v -0.022632 0.263615 0.123203
v -0.022632 0.263615 -0.138773
v -0.02249 0.263071 -0.138541
v -0.022432 0.262845 -0.137981
v 0.022962 0.263177 0.122411
v 0.023021 0.263403 0.122971
v 0.023163 0.263948 0.123203
v 0.036998 0.257103 -0.137981
v 0.037109 0.257307 -0.138541
v 0.037378 0.257798 -0.138773
v 0.023163 0.263948 -0.138773
v 0.023021 0.263403 -0.138541
v 0.022962 0.263177 -0.137981
v 0.036998 0.257103 0.122411
v 0.037109 0.257307 0.122971
v 0.037378 0.257798 0.123203
v 0.04946 0.247621 0.122411
v 0.04962 0.247786 0.122971
v 0.050008 0.248187 0.123203
v 0.058405 0.234959 -0.137981
v 0.058603 0.235071 -0.138541
v 0.059082 0.235342 -0.138773
v 0.050008 0.248187 -0.138773
v 0.04962 0.247786 -0.138541
v 0.04946 0.247621 -0.137981
v 0.058405 0.234959 0.122411
v 0.058603 0.235071 0.122971
v 0.059082 0.235342 0.123203
v 0.063961 0.22016 0.122411
v 0.064179 0.22022 0.122971
v 0.064705 0.220367 0.123203
v 0.064705 0.220367 -0.138773
v 0.064179 0.22022 -0.138541
v 0.063961 0.22016 -0.137981
v -0.066092 0.176519 -0.137981
v -0.066312 0.17646 -0.138541
v -0.066841 0.176319 -0.138773
v -0.061268 0.1624 -0.138773
v -0.060853 0.162828 -0.138541
v -0.060682 0.163006 -0.137981
v -0.060682 0.163006 0.122411
v -0.060853 0.162829 0.122971
v -0.061268 0.1624 0.123203
v 0.061524 0.1624 -0.138773
v 0.06111 0.162828 -0.138541
v 0.060938 0.163006 -0.137981
v 0.060938 0.163006 0.122411
v 0.06111 0.162829 0.122971
v 0.061524 0.1624 0.123203
v 0.0671 0.176325 -0.138773
v 0.066569 0.176462 -0.138541
v 0.066348 0.176519 -0.137981
v 0.069413 0.204708 0.122411
v 0.06919 0.20468 0.122971
v 0.068652 0.20461 0.123203
v 0.067109 0.204388 0.123203
v 0.066571 0.204319 0.122971
v 0.066348 0.204291 0.122411
v -0.048229 0.154239 -0.137455
v 0.048485 0.154239 -0.137455
v 0.063283 0.16058 -0.137455
v 0.069413 0.175888 -0.137455
v 0.07072 0.190136 -0.137455
v 0.069413 0.204708 -0.137455
v 0.06693 0.22121 -0.137455
v 0.061152 0.236599 -0.137455
v 0.051722 0.249948 -0.137455
v 0.038584 0.259946 -0.137455
v 0.023988 0.266261 -0.137455
v 0.007756 0.268491 -0.137455
v -0.007499 0.268491 -0.137455
v -0.023447 0.265916 -0.137455
v -0.038328 0.259946 -0.137455
v -0.05128 0.25021 -0.137455
v -0.060896 0.236599 -0.137455
v -0.066692 0.221482 -0.137455
v -0.069157 0.204708 -0.137455
v -0.07072 0.190192 -0.137455
v -0.069157 0.175888 -0.137455
v -0.063027 0.16058 -0.137455
v -0.048229 0.154239 0.120419
v -0.063027 0.16058 0.120419
v -0.069157 0.175888 0.120419
v -0.07072 0.190192 0.120419
v -0.069157 0.204708 0.120419
v -0.066692 0.221482 0.120419
v -0.060896 0.236599 0.120419
v -0.05128 0.25021 0.120419
v -0.038328 0.259946 0.120419
v -0.023447 0.265916 0.120419
v -0.007499 0.268491 0.120419
v 0.007756 0.268491 0.120419
v 0.023988 0.266261 0.120419
v 0.038584 0.259946 0.120419
v 0.051722 0.249948 0.120419
v 0.061152 0.236599 0.120419
v 0.06693 0.22121 0.120419
v 0.069413 0.204708 0.120419
v 0.07072 0.190136 0.120419
v 0.069413 0.175888 0.120419
v 0.063283 0.16058 0.120419
v 0.048485 0.154239 0.120419
v 0.048485 0.154239 -0.134572
v 0.063283 0.16058 -0.134572
v 0.069413 0.175888 -0.134572
v 0.07072 0.190136 -0.134572
v 0.069413 0.204708 -0.134572
v 0.06693 0.22121 -0.134572
v 0.061152 0.236599 -0.134572
v 0.051722 0.249948 -0.134572
v 0.038584 0.259946 -0.134572
v 0.023988 0.266261 -0.134572
v 0.007756 0.268491 -0.134572
v -0.007499 0.268491 -0.134572
v -0.023447 0.265916 -0.134572
v -0.038328 0.259946 -0.134572
v -0.05128 0.25021 -0.134572
v -0.060896 0.236599 -0.134572
v -0.066692 0.221482 -0.134572
v -0.069157 0.204708 -0.134572
v -0.07072 0.190192 -0.134572
v -0.069157 0.175888 -0.134572
v -0.063027 0.16058 -0.134572
v -0.048229 0.154239 -0.134572
v -0.048229 0.154239 0.115701
v -0.063027 0.16058 0.115701
v -0.069157 0.175888 0.115701
v -0.07072 0.190192 0.115701
v -0.069157 0.204708 0.115701
v -0.066692 0.221482 0.115701
v -0.060896 0.236599 0.115701
v -0.05128 0.25021 0.115701
v -0.038328 0.259946 0.115701
v -0.023447 0.265916 0.115701
v -0.007499 0.268491 0.115701
v 0.007756 0.268491 0.115701
v 0.023988 0.266261 0.115701
v 0.038584 0.259946 0.115701
v 0.051722 0.249948 0.115701
v 0.061152 0.236599 0.115701
v 0.06693 0.22121 0.115701
v 0.069413 0.204708 0.115701
v 0.07072 0.190136 0.115701
v 0.069413 0.175888 0.115701
v 0.063283 0.16058 0.115701
v 0.048485 0.154239 0.115701
v -0.047619 0.157409 -0.136722
v 0.047876 0.157409 -0.136722
v -0.007096 0.265321 -0.136722
v 0.007352 0.265321 -0.136722
v 0.066348 0.204291 -0.136722
v 0.067609 0.190249 -0.136722
v -0.066092 0.204291 -0.136722
v -0.067599 0.190303 -0.136722
v -0.058149 0.234959 -0.136722
v -0.063722 0.220421 -0.136722
v -0.036742 0.257103 -0.136722
v -0.049027 0.247869 -0.136722
v -0.022432 0.262845 -0.136722
v 0.036998 0.257103 -0.136722
v 0.022962 0.263177 -0.136722
v 0.058405 0.234959 -0.136722
v 0.04946 0.247621 -0.136722
v 0.063961 0.22016 -0.136722
v -0.066092 0.176519 -0.136722
v -0.060682 0.163006 -0.136722
v 0.060938 0.163006 -0.136722
v 0.066348 0.176519 -0.136722
v -0.047619 0.157409 -0.136
v 0.047876 0.157409 -0.136
v -0.007096 0.265321 -0.136
v 0.007352 0.265321 -0.136
v 0.066348 0.204291 -0.136
v 0.067609 0.190249 -0.136
v -0.066092 0.204291 -0.136
v -0.067599 0.190303 -0.136
v -0.058149 0.234959 -0.136
v -0.063722 0.220421 -0.136
v -0.036742 0.257103 -0.136
v -0.049027 0.247869 -0.136
v -0.022432 0.262845 -0.136
v 0.036998 0.257103 -0.136
v 0.022962 0.263177 -0.136
v 0.058405 0.234959 -0.136
v 0.04946 0.247621 -0.136
v 0.063961 0.22016 -0.136
v -0.066092 0.176519 -0.136
v -0.060682 0.163006 -0.136
v 0.060938 0.163006 -0.136
v 0.066348 0.176519 -0.136
vt 0.203533 0.153509
vt 0.205494 0.153411
vt 0.205496 0.15349
vt 0.203511 0.153142
vt 0.20551 0.153042
vt 0.205513 0.153122
vt 0.155129 0.241807
vt 0.157495 0.241882
vt 0.15513 0.241905
vt 0.193522 0.158321
vt 0.193342 0.155619
vt 0.193441 0.155607
vt 0.193337 0.196025
vt 0.19352 0.193368
vt 0.193436 0.196037
vt 0.223753 0.153015
vt 0.225798 0.153093
vt 0.223754 0.153094
vt 0.193246 0.160681
vt 0.193163 0.158363
vt 0.193344 0.160664
vt 0.188994 0.24188
vt 0.191363 0.241801
vt 0.191362 0.241899
vt 0.155124 0.199636
vt 0.152384 0.199537
vt 0.155125 0.199538
vt 0.150429 0.158339
vt 0.150606 0.155627
vt 0.150528 0.15835
vt 0.152387 0.241811
vt 0.149768 0.24194
vt 0.149761 0.241842
vt 0.193441 0.155607
vt 0.193099 0.153004
vt 0.193195 0.152976
vt 0.23444 0.186838
vt 0.232301 0.186882
vt 0.232303 0.186804
vt 0.195064 0.153468
vt 0.197217 0.153264
vt 0.195091 0.153544
vt 0.217315 0.153095
vt 0.219455 0.153024
vt 0.219455 0.153102
vt 0.197578 0.188185
vt 0.199678 0.188161
vt 0.199675 0.18824
vt 0.151294 0.198536
vt 0.150972 0.195966
vt 0.151072 0.195953
vt 0.199308 0.153086
vt 0.201395 0.15314
vt 0.199312 0.153166
vt 0.227991 0.153022
vt 0.230108 0.153099
vt 0.227991 0.153101
vt 0.209704 0.153276
vt 0.207631 0.153351
vt 0.20763 0.153271
vt 0.23012 0.186876
vt 0.232303 0.186804
vt 0.232301 0.186882
vt 0.209715 0.153056
vt 0.211866 0.153033
vt 0.211855 0.153112
vt 0.232288 0.153012
vt 0.234429 0.153054
vt 0.232289 0.153091
vt 0.150872 0.155696
vt 0.150528 0.15835
vt 0.150606 0.155627
vt 0.192977 0.155702
vt 0.192651 0.153145
vt 0.192745 0.153124
vt 0.150846 0.198679
vt 0.150508 0.19606
vt 0.150607 0.196047
vt 0.150256 0.191075
vt 0.150151 0.188855
vt 0.150354 0.191058
vt 0.188998 0.199654
vt 0.18668 0.199583
vt 0.188996 0.199556
vt 0.159823 0.241759
vt 0.162499 0.241808
vt 0.159826 0.241857
vt 0.193883 0.188905
vt 0.19409 0.186405
vt 0.194189 0.186413
vt 0.20388 0.188096
vt 0.205857 0.187864
vt 0.205883 0.188074
vt 0.199694 0.187941
vt 0.201763 0.188143
vt 0.199678 0.188161
vt 0.18134 0.24173
vt 0.16517 0.24183
vt 0.165168 0.241732
vt 0.150297 0.18396
vt 0.150203 0.167742
vt 0.150302 0.167747
vt 0.203533 0.15343
vt 0.205492 0.153332
vt 0.205494 0.153411
vt 0.192872 0.19593
vt 0.193064 0.193313
vt 0.192971 0.195943
vt 0.203895 0.187729
vt 0.205858 0.187785
vt 0.203897 0.187808
vt 0.20388 0.188096
vt 0.205883 0.188153
vt 0.203882 0.188176
vt 0.150713 0.191012
vt 0.150597 0.188731
vt 0.150811 0.190995
vt 0.197619 0.187885
vt 0.199678 0.188161
vt 0.197589 0.188106
vt 0.201788 0.187928
vt 0.20388 0.188096
vt 0.201763 0.188143
vt 0.209697 0.153436
vt 0.211813 0.153412
vt 0.211802 0.153493
vt 0.193076 0.155689
vt 0.192745 0.153124
vt 0.192838 0.153095
vt 0.149764 0.199508
vt 0.152382 0.199635
vt 0.149757 0.199606
vt 0.199312 0.153166
vt 0.197205 0.153185
vt 0.199308 0.153086
vt 0.19763 0.187805
vt 0.199699 0.187781
vt 0.199697 0.187861
vt 0.208001 0.187798
vt 0.210078 0.187829
vt 0.208001 0.187879
vt 0.23012 0.186797
vt 0.228002 0.186875
vt 0.228001 0.186796
vt 0.213971 0.153264
vt 0.211855 0.153112
vt 0.211866 0.153033
vt 0.193227 0.191019
vt 0.193162 0.193324
vt 0.193064 0.193313
vt 0.150422 0.19338
vt 0.150607 0.196047
vt 0.150508 0.19606
vt 0.19406 0.241902
vt 0.191363 0.241801
vt 0.194061 0.241804
vt 0.150068 0.162809
vt 0.149859 0.165307
vt 0.14976 0.165299
vt 0.193445 0.162957
vt 0.193625 0.165346
vt 0.193349 0.162978
vt 0.150811 0.190995
vt 0.19334 0.18876
vt 0.193129 0.191002
vt 0.203895 0.187729
vt 0.201426 0.153514
vt 0.203533 0.153509
vt 0.184017 0.240626
vt 0.18133 0.200256
vt 0.184006 0.200279
vt 0.223755 0.153963
vt 0.221592 0.153357
vt 0.223754 0.153352
vt 0.152381 0.19972
vt 0.155123 0.200188
vt 0.152381 0.200187
vt 0.210068 0.18767
vt 0.207632 0.153431
vt 0.209697 0.153436
vt 0.150977 0.193313
vt 0.193129 0.191002
vt 0.192966 0.193302
vt 0.211802 0.153493
vt 0.210068 0.18767
vt 0.209697 0.153436
vt 0.151072 0.195953
vt 0.192966 0.193302
vt 0.192872 0.19593
vt 0.181338 0.241408
vt 0.165168 0.241732
vt 0.16517 0.24141
vt 0.181338 0.240647
vt 0.165161 0.200257
vt 0.18133 0.200256
vt 0.191366 0.199719
vt 0.194064 0.199631
vt 0.194065 0.199716
vt 0.162493 0.240629
vt 0.159808 0.200233
vt 0.162482 0.200279
vt 0.213838 0.153697
vt 0.212163 0.187567
vt 0.211802 0.153493
vt 0.16517 0.240649
vt 0.181338 0.241408
vt 0.16517 0.24141
vt 0.221592 0.153968
vt 0.219465 0.186358
vt 0.219454 0.15397
vt 0.227991 0.153969
vt 0.225807 0.186364
vt 0.225798 0.153962
vt 0.189002 0.240696
vt 0.186686 0.200232
vt 0.189 0.200205
vt 0.194065 0.241483
vt 0.191366 0.240715
vt 0.194065 0.240718
vt 0.157482 0.200209
vt 0.159814 0.240675
vt 0.157486 0.240699
vt 0.151072 0.195953
vt 0.192648 0.198539
vt 0.151294 0.198536
vt 0.165161 0.200257
vt 0.162493 0.240629
vt 0.162482 0.200279
vt 0.194065 0.240718
vt 0.196735 0.200154
vt 0.196731 0.240746
vt 0.227991 0.153969
vt 0.23012 0.186356
vt 0.228001 0.186355
vt 0.205858 0.187706
vt 0.203533 0.153509
vt 0.205496 0.15349
vt 0.152383 0.240725
vt 0.149755 0.200159
vt 0.152381 0.200187
vt 0.193621 0.186362
vt 0.150396 0.183959
vt 0.193547 0.183965
vt 0.194065 0.240718
vt 0.191366 0.200186
vt 0.194065 0.200183
vt 0.193749 0.167744
vt 0.194003 0.183983
vt 0.193745 0.18397
vt 0.193542 0.162937
vt 0.193728 0.165336
vt 0.193445 0.162957
vt 0.205492 0.153332
vt 0.203511 0.153142
vt 0.205513 0.153122
vt 0.150203 0.167742
vt 0.149941 0.183977
vt 0.149945 0.167729
vt 0.193533 0.188801
vt 0.193586 0.191065
vt 0.193324 0.191036
vt 0.199697 0.187861
vt 0.201785 0.187768
vt 0.201787 0.187848
vt 0.150404 0.188772
vt 0.150354 0.191058
vt 0.150151 0.188855
vt 0.150611 0.160662
vt 0.150165 0.16283
vt 0.150346 0.160633
vt 0.151104 0.153127
vt 0.150606 0.155627
vt 0.150844 0.153036
vt 0.213946 0.15334
vt 0.211824 0.153332
vt 0.211855 0.153112
vt 0.199312 0.153166
vt 0.197252 0.153484
vt 0.197217 0.153264
vt 0.192838 0.153095
vt 0.193342 0.155619
vt 0.193076 0.155689
vt 0.203511 0.153142
vt 0.201425 0.153354
vt 0.201395 0.15314
vt 0.151106 0.198586
vt 0.150607 0.196047
vt 0.150873 0.195978
vt 0.193646 0.183966
vt 0.193551 0.16775
vt 0.19365 0.167749
vt 0.210078 0.187829
vt 0.208031 0.188094
vt 0.208001 0.187879
vt 0.193793 0.162853
vt 0.193706 0.160618
vt 0.193889 0.162832
vt 0.212189 0.187726
vt 0.214334 0.187668
vt 0.212224 0.187946
vt 0.150521 0.193369
vt 0.150873 0.195978
vt 0.150607 0.196047
vt 0.212224 0.187946
vt 0.214361 0.187744
vt 0.212237 0.188025
vt 0.19383 0.165326
vt 0.193793 0.162853
vt 0.194094 0.165303
vt 0.193825 0.186381
vt 0.194003 0.183983
vt 0.19409 0.186405
vt 0.150123 0.165331
vt 0.149945 0.167729
vt 0.149859 0.165307
vt 0.193786 0.188883
vt 0.193825 0.186381
vt 0.19409 0.186405
vt 0.149941 0.183977
vt 0.150117 0.186382
vt 0.149852 0.186406
vt 0.150165 0.16283
vt 0.150123 0.165331
vt 0.149859 0.165307
vt 0.150117 0.186382
vt 0.150151 0.188855
vt 0.149852 0.186406
vt 0.186686 0.200232
vt 0.184017 0.240626
vt 0.184006 0.200279
vt 0.192836 0.198589
vt 0.193337 0.196025
vt 0.193096 0.198682
vt 0.152383 0.240725
vt 0.155125 0.241485
vt 0.152383 0.241489
vt 0.2097 0.153356
vt 0.211824 0.153332
vt 0.211813 0.153412
vt 0.193422 0.193357
vt 0.193324 0.191036
vt 0.193586 0.191065
vt 0.197277 0.153643
vt 0.199699 0.187781
vt 0.197641 0.187725
vt 0.199675 0.18824
vt 0.201763 0.188143
vt 0.201764 0.188223
vt 0.155125 0.240721
vt 0.157482 0.200209
vt 0.157486 0.240699
vt 0.225807 0.186364
vt 0.223755 0.153963
vt 0.225798 0.153962
vt 0.210078 0.187829
vt 0.212224 0.187946
vt 0.210095 0.188049
vt 0.207632 0.153431
vt 0.205858 0.187706
vt 0.205496 0.15349
vt 0.197619 0.187885
vt 0.199697 0.187861
vt 0.199694 0.187941
vt 0.191366 0.200186
vt 0.189002 0.240696
vt 0.189 0.200205
vt 0.194006 0.167732
vt 0.194102 0.183987
vt 0.194003 0.183983
vt 0.151072 0.155721
vt 0.192968 0.158386
vt 0.150983 0.158404
vt 0.20763 0.153271
vt 0.205513 0.153122
vt 0.207655 0.153055
vt 0.21731 0.153964
vt 0.219465 0.186358
vt 0.21732 0.186366
vt 0.203898 0.187887
vt 0.201787 0.187848
vt 0.203897 0.187808
vt 0.19334 0.18876
vt 0.150322 0.186363
vt 0.193621 0.186362
vt 0.199334 0.153385
vt 0.201395 0.15314
vt 0.201425 0.153354
vt 0.232295 0.153959
vt 0.234443 0.186396
vt 0.232304 0.186362
vt 0.195431 0.187865
vt 0.197619 0.187885
vt 0.197589 0.188106
vt 0.223764 0.186738
vt 0.221602 0.18636
vt 0.223764 0.186365
vt 0.209704 0.153276
vt 0.211855 0.153112
vt 0.211824 0.153332
vt 0.195207 0.153898
vt 0.197641 0.187725
vt 0.195539 0.187509
vt 0.193423 0.158333
vt 0.193076 0.155689
vt 0.193342 0.155619
vt 0.201426 0.153514
vt 0.199699 0.187781
vt 0.199342 0.153545
vt 0.205883 0.188074
vt 0.208001 0.187879
vt 0.208031 0.188094
vt 0.22799 0.153358
vt 0.225798 0.153962
vt 0.225798 0.153351
vt 0.150512 0.162934
vt 0.150328 0.165351
vt 0.150225 0.165341
vt 0.150396 0.183959
vt 0.193551 0.16775
vt 0.193547 0.183965
vt 0.193344 0.160664
vt 0.193423 0.158333
vt 0.193609 0.160635
vt 0.225808 0.186806
vt 0.228002 0.186875
vt 0.225808 0.186884
vt 0.20551 0.153042
vt 0.207655 0.153055
vt 0.205513 0.153122
vt 0.205494 0.153411
vt 0.207632 0.153431
vt 0.205496 0.15349
vt 0.205857 0.187864
vt 0.208001 0.187798
vt 0.208001 0.187879
vt 0.150879 0.193324
vt 0.151072 0.195953
vt 0.150972 0.195966
vt 0.150781 0.193335
vt 0.150972 0.195966
vt 0.150873 0.195978
vt 0.193163 0.158363
vt 0.192977 0.155702
vt 0.193076 0.155689
vt 0.150886 0.158392
vt 0.151072 0.155721
vt 0.150983 0.158404
vt 0.186678 0.241852
vt 0.188996 0.241782
vt 0.188994 0.24188
vt 0.151198 0.153155
vt 0.150872 0.155696
vt 0.151104 0.153127
vt 0.195495 0.187656
vt 0.19763 0.187805
vt 0.197619 0.187885
vt 0.215138 0.153059
vt 0.217317 0.153017
vt 0.217315 0.153095
vt 0.199342 0.153545
vt 0.197264 0.153563
vt 0.199338 0.153465
vt 0.195405 0.187941
vt 0.197589 0.188106
vt 0.197578 0.188185
vt 0.203511 0.153063
vt 0.201395 0.15314
vt 0.201395 0.15306
vt 0.223764 0.186806
vt 0.221602 0.18688
vt 0.221602 0.186802
vt 0.199334 0.153385
vt 0.201426 0.153434
vt 0.199338 0.153465
vt 0.219455 0.153102
vt 0.221591 0.153021
vt 0.221591 0.153099
vt 0.205492 0.153332
vt 0.207631 0.153351
vt 0.205494 0.153411
vt 0.193793 0.162853
vt 0.193344 0.160664
vt 0.193609 0.160635
vt 0.159826 0.241857
vt 0.157493 0.241784
vt 0.159823 0.241759
vt 0.209718 0.152976
vt 0.207655 0.153055
vt 0.207654 0.152976
vt 0.197252 0.153484
vt 0.195091 0.153544
vt 0.197217 0.153264
vt 0.219465 0.186878
vt 0.217321 0.186807
vt 0.219465 0.1868
vt 0.212163 0.187567
vt 0.21424 0.187387
vt 0.212176 0.187647
vt 0.212176 0.187647
vt 0.214267 0.187461
vt 0.212189 0.187726
vt 0.191365 0.199634
vt 0.194063 0.199533
vt 0.194064 0.199631
vt 0.192971 0.195943
vt 0.193162 0.193324
vt 0.193071 0.195956
vt 0.192742 0.198561
vt 0.193071 0.195956
vt 0.192836 0.198589
vt 0.196717 0.241932
vt 0.194061 0.241804
vt 0.196724 0.241834
vt 0.150396 0.183959
vt 0.150302 0.167747
vt 0.150401 0.167748
vt 0.193745 0.18397
vt 0.19365 0.167749
vt 0.193749 0.167744
vt 0.16516 0.199706
vt 0.162484 0.199631
vt 0.165162 0.199608
vt 0.194105 0.167727
vt 0.194094 0.165303
vt 0.194193 0.165294
vt 0.157484 0.199658
vt 0.159813 0.199584
vt 0.15981 0.199682
vt 0.150248 0.160616
vt 0.150165 0.16283
vt 0.150068 0.162809
vt 0.150429 0.158339
vt 0.150346 0.160633
vt 0.150248 0.160616
vt 0.155129 0.241807
vt 0.152389 0.241909
vt 0.152387 0.241811
vt 0.18134 0.24173
vt 0.184013 0.241805
vt 0.181338 0.241828
vt 0.149846 0.167725
vt 0.149859 0.165307
vt 0.149945 0.167729
vt 0.149941 0.183977
vt 0.149846 0.167725
vt 0.149945 0.167729
vt 0.181328 0.199608
vt 0.16516 0.199706
vt 0.165162 0.199608
vt 0.184004 0.199631
vt 0.186683 0.199681
vt 0.184005 0.199729
vt 0.149852 0.186406
vt 0.150055 0.188876
vt 0.149753 0.186414
vt 0.150708 0.160679
vt 0.150609 0.162953
vt 0.150512 0.162934
vt 0.150611 0.160662
vt 0.150512 0.162934
vt 0.150416 0.162914
vt 0.194006 0.167732
vt 0.19383 0.165326
vt 0.194094 0.165303
vt 0.165168 0.241732
vt 0.162499 0.241808
vt 0.162498 0.24171
vt 0.150416 0.162914
vt 0.150225 0.165341
vt 0.150123 0.165331
vt 0.150616 0.191029
vt 0.150521 0.193369
vt 0.150354 0.191058
vt 0.193096 0.198682
vt 0.193436 0.196037
vt 0.193193 0.19871
vt 0.193533 0.188801
vt 0.193723 0.186372
vt 0.193825 0.186381
vt 0.149842 0.183982
vt 0.149852 0.186406
vt 0.149753 0.186414
vt 0.150302 0.167747
vt 0.150328 0.165351
vt 0.150401 0.167748
vt 0.150616 0.191029
vt 0.1505 0.188752
vt 0.150713 0.191012
vt 0.19334 0.18876
vt 0.193227 0.191019
vt 0.193129 0.191002
vt 0.193749 0.167744
vt 0.193728 0.165336
vt 0.19383 0.165326
vt 0.193646 0.183966
vt 0.193621 0.186362
vt 0.193547 0.183965
vt 0.193786 0.188883
vt 0.193684 0.191082
vt 0.193586 0.191065
vt 0.150198 0.183965
vt 0.150219 0.186373
vt 0.150117 0.186382
vt 0.223754 0.153094
vt 0.221591 0.153021
vt 0.223753 0.153015
vt 0.203533 0.15335
vt 0.201426 0.153434
vt 0.201425 0.153354
vt 0.203882 0.188176
vt 0.201763 0.188143
vt 0.20388 0.188096
vt 0.203897 0.187808
vt 0.201785 0.187768
vt 0.203895 0.187729
vt 0.209704 0.153276
vt 0.207655 0.153055
vt 0.209715 0.153056
vt 0.203533 0.15343
vt 0.201426 0.153514
vt 0.201426 0.153434
vt 0.193129 0.191002
vt 0.193064 0.193313
vt 0.192966 0.193302
vt 0.193586 0.191065
vt 0.19352 0.193368
vt 0.193422 0.193357
vt 0.193522 0.158321
vt 0.193609 0.160635
vt 0.193423 0.158333
vt 0.155124 0.199636
vt 0.157486 0.19956
vt 0.157484 0.199658
vt 0.15981 0.199682
vt 0.162484 0.199631
vt 0.162483 0.199729
vt 0.193889 0.162832
vt 0.194094 0.165303
vt 0.193793 0.162853
vt 0.150788 0.158381
vt 0.150708 0.160679
vt 0.150611 0.160662
vt 0.150886 0.158392
vt 0.150806 0.160697
vt 0.150708 0.160679
vt 0.150788 0.158381
vt 0.150972 0.155709
vt 0.150886 0.158392
vt 0.223764 0.186885
vt 0.225808 0.186806
vt 0.225808 0.186884
vt 0.193066 0.158374
vt 0.192877 0.155714
vt 0.192977 0.155702
vt 0.203897 0.187808
vt 0.205857 0.187864
vt 0.203898 0.187887
vt 0.208031 0.188094
vt 0.210099 0.188128
vt 0.208032 0.188174
vt 0.151292 0.153177
vt 0.150972 0.155709
vt 0.151198 0.153155
vt 0.195159 0.153751
vt 0.197264 0.153563
vt 0.195186 0.153825
vt 0.215137 0.186844
vt 0.217323 0.186886
vt 0.215144 0.186923
vt 0.19552 0.187582
vt 0.197641 0.187725
vt 0.19763 0.187805
vt 0.193071 0.195956
vt 0.193422 0.193357
vt 0.193337 0.196025
vt 0.199338 0.153465
vt 0.197252 0.153484
vt 0.199334 0.153385
vt 0.195186 0.153825
vt 0.197277 0.153643
vt 0.195207 0.153898
vt 0.150322 0.186363
vt 0.1505 0.188752
vt 0.150219 0.186373
vt 0.199338 0.153465
vt 0.201426 0.153514
vt 0.199342 0.153545
vt 0.219465 0.1868
vt 0.221602 0.18688
vt 0.219465 0.186878
vt 0.199694 0.187941
vt 0.201787 0.187848
vt 0.201788 0.187928
vt 0.205883 0.188153
vt 0.208031 0.188094
vt 0.208032 0.188174
vt 0.225798 0.153093
vt 0.227991 0.153022
vt 0.227991 0.153101
vt 0.205858 0.187785
vt 0.208 0.187718
vt 0.208001 0.187798
vt 0.150528 0.15835
vt 0.150611 0.160662
vt 0.150346 0.160633
vt 0.19365 0.167749
vt 0.193625 0.165346
vt 0.193728 0.165336
vt 0.2097 0.153356
vt 0.207632 0.153431
vt 0.207631 0.153351
vt 0.210095 0.188049
vt 0.212237 0.188025
vt 0.210099 0.188128
vt 0.230108 0.15302
vt 0.232289 0.153091
vt 0.230108 0.153099
vt 0.210068 0.18767
vt 0.212176 0.187647
vt 0.210073 0.18775
vt 0.210073 0.18775
vt 0.212189 0.187726
vt 0.210078 0.187829
vt 0.213883 0.153549
vt 0.211813 0.153412
vt 0.211824 0.153332
vt 0.213857 0.153623
vt 0.211802 0.153493
vt 0.211813 0.153412
vt 0.1512 0.198558
vt 0.150873 0.195978
vt 0.150972 0.195966
vt 0.196726 0.199503
vt 0.194064 0.199631
vt 0.194063 0.199533
vt 0.192648 0.198539
vt 0.192971 0.195943
vt 0.192742 0.198561
vt 0.150844 0.153036
vt 0.150507 0.155615
vt 0.150747 0.153008
vt 0.193445 0.162957
vt 0.193344 0.160664
vt 0.193542 0.162937
vt 0.193349 0.162978
vt 0.193246 0.160681
vt 0.193445 0.162957
vt 0.150297 0.18396
vt 0.150322 0.186363
vt 0.150219 0.186373
vt 0.194102 0.183987
vt 0.19409 0.186405
vt 0.194003 0.183983
vt 0.150203 0.167742
vt 0.150225 0.165341
vt 0.150302 0.167747
vt 0.18133 0.199706
vt 0.184004 0.199631
vt 0.184005 0.199729
vt 0.193745 0.18397
vt 0.193723 0.186372
vt 0.193646 0.183966
vt 0.193437 0.18878
vt 0.193621 0.186362
vt 0.193723 0.186372
vt 0.150219 0.186373
vt 0.150404 0.188772
vt 0.150117 0.186382
vt 0.186681 0.241754
vt 0.184013 0.241805
vt 0.184014 0.241707
vt 0.208 0.187718
vt 0.210073 0.18775
vt 0.208001 0.187798
vt 0.193437 0.18878
vt 0.193324 0.191036
vt 0.193227 0.191019
vt 0.150422 0.19338
vt 0.150354 0.191058
vt 0.150521 0.193369
vt 0.150879 0.193324
vt 0.150811 0.190995
vt 0.150977 0.193313
vt 0.193148 0.160699
vt 0.193066 0.158374
vt 0.193246 0.160681
vt 0.150781 0.193335
vt 0.150713 0.191012
vt 0.150879 0.193324
vt 0.189 0.199739
vt 0.191366 0.200186
vt 0.189 0.200205
vt 0.152387 0.241811
vt 0.149753 0.241519
vt 0.152383 0.241489
vt 0.149757 0.199606
vt 0.152381 0.19972
vt 0.149755 0.199691
vt 0.219465 0.186732
vt 0.221602 0.186802
vt 0.219465 0.1868
vt 0.225807 0.186738
vt 0.223764 0.186806
vt 0.223764 0.186738
vt 0.196735 0.199686
vt 0.194064 0.199631
vt 0.196733 0.199601
vt 0.215135 0.186776
vt 0.217321 0.186807
vt 0.215137 0.186844
vt 0.184005 0.199729
vt 0.186686 0.199766
vt 0.184006 0.199814
vt 0.234443 0.18677
vt 0.232303 0.186804
vt 0.232304 0.186736
vt 0.191365 0.199634
vt 0.188996 0.199556
vt 0.191364 0.199536
vt 0.23012 0.186729
vt 0.228001 0.186796
vt 0.228001 0.186728
vt 0.157482 0.199743
vt 0.155124 0.199636
vt 0.157484 0.199658
vt 0.193551 0.16775
vt 0.150328 0.165351
vt 0.193625 0.165346
vt 0.21732 0.186739
vt 0.215135 0.186402
vt 0.21732 0.186366
vt 0.188998 0.199654
vt 0.191366 0.199719
vt 0.189 0.199739
vt 0.162483 0.199729
vt 0.165161 0.199791
vt 0.162482 0.199814
vt 0.219465 0.1868
vt 0.21732 0.186739
vt 0.219465 0.186732
vt 0.150609 0.162953
vt 0.193148 0.160699
vt 0.193349 0.162978
vt 0.15981 0.199682
vt 0.157482 0.199743
vt 0.157484 0.199658
vt 0.186686 0.199766
vt 0.188998 0.199654
vt 0.189 0.199739
vt 0.152382 0.199635
vt 0.155123 0.199721
vt 0.152381 0.19972
vt 0.23012 0.186729
vt 0.232303 0.186804
vt 0.23012 0.186797
vt 0.162482 0.199814
vt 0.165161 0.200257
vt 0.162482 0.200279
vt 0.162482 0.199814
vt 0.15981 0.199682
vt 0.162483 0.199729
vt 0.184005 0.199729
vt 0.181329 0.199791
vt 0.18133 0.199706
vt 0.186686 0.200232
vt 0.189 0.199739
vt 0.189 0.200205
vt 0.184017 0.241386
vt 0.181338 0.240647
vt 0.184017 0.240626
vt 0.217315 0.153095
vt 0.21513 0.153318
vt 0.215138 0.153059
vt 0.21731 0.153964
vt 0.215135 0.186402
vt 0.21513 0.15393
vt 0.227991 0.153101
vt 0.23011 0.153356
vt 0.22799 0.153358
vt 0.16516 0.199706
vt 0.181329 0.199791
vt 0.165161 0.199791
vt 0.152383 0.241489
vt 0.155129 0.241807
vt 0.152387 0.241811
vt 0.157482 0.200209
vt 0.155123 0.199721
vt 0.157482 0.199743
vt 0.234443 0.186396
vt 0.232304 0.186736
vt 0.232304 0.186362
vt 0.221591 0.153099
vt 0.219454 0.15336
vt 0.219455 0.153102
vt 0.227991 0.153101
vt 0.225798 0.153351
vt 0.225798 0.153093
vt 0.149755 0.200159
vt 0.152381 0.19972
vt 0.152381 0.200187
vt 0.232289 0.153091
vt 0.234437 0.153313
vt 0.232295 0.153348
vt 0.186691 0.241432
vt 0.184014 0.241707
vt 0.184017 0.241386
vt 0.186691 0.241432
vt 0.188996 0.241782
vt 0.186681 0.241754
vt 0.157486 0.241462
vt 0.159823 0.241759
vt 0.157493 0.241784
vt 0.232289 0.153091
vt 0.23011 0.153356
vt 0.230108 0.153099
vt 0.162494 0.24139
vt 0.159814 0.240675
vt 0.162493 0.240629
vt 0.18133 0.200256
vt 0.165161 0.199791
vt 0.181329 0.199791
vt 0.193625 0.165346
vt 0.150609 0.162953
vt 0.193349 0.162978
vt 0.219465 0.186358
vt 0.21732 0.186739
vt 0.21732 0.186366
vt 0.159807 0.199767
vt 0.157482 0.200209
vt 0.157482 0.199743
vt 0.225798 0.153351
vt 0.223754 0.153094
vt 0.225798 0.153093
vt 0.194061 0.241804
vt 0.191366 0.241479
vt 0.194065 0.241483
vt 0.191366 0.200186
vt 0.194065 0.199716
vt 0.194065 0.200183
vt 0.184006 0.199814
vt 0.186686 0.200232
vt 0.184006 0.200279
vt 0.194061 0.241804
vt 0.196731 0.241511
vt 0.196724 0.241834
vt 0.155129 0.241807
vt 0.157486 0.241462
vt 0.157493 0.241784
vt 0.16517 0.24141
vt 0.162498 0.24171
vt 0.162494 0.24139
vt 0.23012 0.186356
vt 0.228001 0.186728
vt 0.228001 0.186355
vt 0.184014 0.241707
vt 0.181338 0.241408
vt 0.184017 0.241386
vt 0.232304 0.186736
vt 0.23012 0.186356
vt 0.232304 0.186362
vt 0.221602 0.186733
vt 0.219465 0.186358
vt 0.221602 0.18636
vt 0.196735 0.200154
vt 0.194065 0.199716
vt 0.196735 0.199686
vt 0.225807 0.186364
vt 0.228001 0.186728
vt 0.225807 0.186738
vt 0.150806 0.160697
vt 0.192968 0.158386
vt 0.193148 0.160699
vt 0.223764 0.186738
vt 0.225807 0.186364
vt 0.225807 0.186738
vt 0.191366 0.241479
vt 0.188996 0.241782
vt 0.189003 0.24146
vt 0.223754 0.153352
vt 0.221591 0.153099
vt 0.223754 0.153094
vt 0.217315 0.153095
vt 0.219454 0.15336
vt 0.21731 0.153353
vt 0.184006 0.200279
vt 0.181329 0.199791
vt 0.184006 0.199814
vt 0.152383 0.241489
vt 0.149753 0.240754
vt 0.152383 0.240725
vt 0.223764 0.186365
vt 0.221592 0.153968
vt 0.223755 0.153963
vt 0.221592 0.153357
vt 0.219454 0.15397
vt 0.219454 0.15336
vt 0.189003 0.24146
vt 0.186691 0.24067
vt 0.189002 0.240696
vt 0.151072 0.155721
vt 0.192651 0.153145
vt 0.192877 0.155714
vt 0.194065 0.241483
vt 0.196731 0.240746
vt 0.196731 0.241511
vt 0.186691 0.24067
vt 0.184017 0.241386
vt 0.184017 0.240626
vt 0.191366 0.240715
vt 0.189003 0.24146
vt 0.189002 0.240696
vt 0.22799 0.153358
vt 0.23011 0.153967
vt 0.227991 0.153969
vt 0.152381 0.200187
vt 0.155125 0.240721
vt 0.152383 0.240725
vt 0.155125 0.241485
vt 0.157486 0.240699
vt 0.157486 0.241462
vt 0.21731 0.153353
vt 0.21513 0.15393
vt 0.21513 0.153318
vt 0.232295 0.153348
vt 0.23011 0.153967
vt 0.23011 0.153356
vt 0.21731 0.153353
vt 0.219454 0.15397
vt 0.21731 0.153964
vt 0.16517 0.240649
vt 0.162494 0.24139
vt 0.162493 0.240629
vt 0.225798 0.153962
vt 0.223754 0.153352
vt 0.225798 0.153351
vt 0.232295 0.153959
vt 0.23012 0.186356
vt 0.23011 0.153967
vt 0.228001 0.186796
vt 0.225807 0.186738
vt 0.228001 0.186728
vt 0.157486 0.240699
vt 0.159814 0.241437
vt 0.157486 0.241462
vt 0.232295 0.153348
vt 0.234437 0.153925
vt 0.232295 0.153959
vt 0.162498 0.24171
vt 0.159814 0.241437
vt 0.162494 0.24139
vt 0.223764 0.186806
vt 0.221602 0.186733
vt 0.223764 0.186738
vt 0.162482 0.200279
vt 0.159807 0.199767
vt 0.162482 0.199814
vt 0 0
vt 0 0
vt 0 0
vt 0 0
vt 0 0
vt 0 0
vt 0 0
vt 0 0
vt 0 0
vt 0 0
vt 0 0
vt 0 0
vt 0 0
vt 0 0
vt 0 0
vt 0 0
vt 0 0
vt 0 0
vt 0 0
vt 0 0
vt 0 0
vt 0 0
vt 0 0
vt 0 0
vt 0 0
vt 0 0
vt 0 0
vt 0 0
vt 0 0
vt 0 0
vt 0 0
vt 0 0
vt 0 0
vt 0 0
vt 0 0
vt 0 0
vt 0 0
vt 0 0
vt 0 0
vt 0 0
vt 0 0
vt 0 0
vt 0 0
vt 0 0
vt 0 0
vt 0 0
vt 0 0
vt 0 0
vt 0 0
vt 0 0
vt 0 0
vt 0 0
vt 0 0
vt 0 0
vt 0 0
vt 0 0
vt 0 0
vt 0 0
vt 0 0
vt 0 0
vt 0 0
vt 0 0
vt 0 0
vt 0 0
vt 0 0
vt 0 0
vt 0 0
vt 0 0
vt 0 0
vt 0 0
vt 0 0
vt 0 0
vt 0 0
vt 0 0
vt 0 0
vt 0 0
vt 0 0
vt 0 0
vt 0 0
vt 0 0
vt 0 0
vt 0 0
vt 0 0
vt 0 0
vt 0 0
vt 0 0
vt 0 0
vt 0 0
vt 0 0
vt 0 0
vt 0 0
vt 0 0
vt 0 0
vt 0 0
vt 0 0
vt 0 0
vt 0 0
vt 0 0
vt 0 0
vt 0 0
vt 0 0
vt 0 0
vt 0 0
vt 0 0
vt 0 0
vt 0 0
vt 0 0
vt 0 0
vt 0 0
vt 0 0
vt 0 0
vt 0 0
vt 0 0
vt 0 0
vt 0 0
vt 0 0
vt 0 0
vt 0 0
vt 0 0
vt 0 0
vt 0.203533 0.153509
vt 0.203533 0.15343
vt 0.205494 0.153411
vt 0.203511 0.153142
vt 0.203511 0.153063
vt 0.20551 0.153042
vt 0.155129 0.241807
vt 0.157493 0.241784
vt 0.157495 0.241882
vt 0.193522 0.158321
vt 0.193423 0.158333
vt 0.193342 0.155619
vt 0.193337 0.196025
vt 0.193422 0.193357
vt 0.19352 0.193368
vt 0.223753 0.153015
vt 0.225799 0.153014
vt 0.225798 0.153093
vt 0.193246 0.160681
vt 0.193066 0.158374
vt 0.193163 0.158363
vt 0.188994 0.24188
vt 0.188996 0.241782
vt 0.191363 0.241801
vt 0.155124 0.199636
vt 0.152382 0.199635
vt 0.152384 0.199537
vt 0.150429 0.158339
vt 0.150507 0.155615
vt 0.150606 0.155627
vt 0.152387 0.241811
vt 0.152389 0.241909
vt 0.149768 0.24194
vt 0.193441 0.155607
vt 0.193342 0.155619
vt 0.193099 0.153004
vt 0.23444 0.186838
vt 0.234434 0.186917
vt 0.232301 0.186882
vt 0.195064 0.153468
vt 0.197205 0.153185
vt 0.197217 0.153264
vt 0.217315 0.153095
vt 0.217317 0.153017
vt 0.219455 0.153024
vt 0.197578 0.188185
vt 0.197589 0.188106
vt 0.199678 0.188161
vt 0.151294 0.198536
vt 0.1512 0.198558
vt 0.150972 0.195966
vt 0.199308 0.153086
vt 0.201395 0.15306
vt 0.201395 0.15314
vt 0.227991 0.153022
vt 0.230108 0.15302
vt 0.230108 0.153099
vt 0.209704 0.153276
vt 0.2097 0.153356
vt 0.207631 0.153351
vt 0.23012 0.186876
vt 0.23012 0.186797
vt 0.232303 0.186804
vt 0.209715 0.153056
vt 0.209718 0.152976
vt 0.211866 0.153033
vt 0.232288 0.153012
vt 0.234422 0.152976
vt 0.234429 0.153054
vt 0.150872 0.155696
vt 0.150788 0.158381
vt 0.150528 0.15835
vt 0.192977 0.155702
vt 0.192877 0.155714
vt 0.192651 0.153145
vt 0.150846 0.198679
vt 0.150749 0.198708
vt 0.150508 0.19606
vt 0.150256 0.191075
vt 0.150055 0.188876
vt 0.150151 0.188855
vt 0.188998 0.199654
vt 0.186683 0.199681
vt 0.18668 0.199583
vt 0.159823 0.241759
vt 0.162498 0.24171
vt 0.162499 0.241808
vt 0.193883 0.188905
vt 0.193786 0.188883
vt 0.19409 0.186405
vt 0.20388 0.188096
vt 0.203898 0.187887
vt 0.205857 0.187864
vt 0.199694 0.187941
vt 0.201788 0.187928
vt 0.201763 0.188143
vt 0.18134 0.24173
vt 0.181338 0.241828
vt 0.16517 0.24183
vt 0.150297 0.18396
vt 0.150198 0.183965
vt 0.150203 0.167742
vt 0.203533 0.15343
vt 0.203533 0.15335
vt 0.205492 0.153332
vt 0.192872 0.19593
vt 0.192966 0.193302
vt 0.193064 0.193313
vt 0.203895 0.187729
vt 0.205858 0.187706
vt 0.205858 0.187785
vt 0.20388 0.188096
vt 0.205883 0.188074
vt 0.205883 0.188153
vt 0.150713 0.191012
vt 0.1505 0.188752
vt 0.150597 0.188731
vt 0.197619 0.187885
vt 0.199694 0.187941
vt 0.199678 0.188161
vt 0.201788 0.187928
vt 0.203898 0.187887
vt 0.20388 0.188096
vt 0.209697 0.153436
vt 0.2097 0.153356
vt 0.211813 0.153412
vt 0.193076 0.155689
vt 0.192977 0.155702
vt 0.192745 0.153124
vt 0.149764 0.199508
vt 0.152384 0.199537
vt 0.152382 0.199635
vt 0.199312 0.153166
vt 0.197217 0.153264
vt 0.197205 0.153185
vt 0.19763 0.187805
vt 0.197641 0.187725
vt 0.199699 0.187781
vt 0.208001 0.187798
vt 0.210073 0.18775
vt 0.210078 0.187829
vt 0.23012 0.186797
vt 0.23012 0.186876
vt 0.228002 0.186875
vt 0.213971 0.153264
vt 0.213946 0.15334
vt 0.211855 0.153112
vt 0.193227 0.191019
vt 0.193324 0.191036
vt 0.193162 0.193324
vt 0.150422 0.19338
vt 0.150521 0.193369
vt 0.150607 0.196047
vt 0.19406 0.241902
vt 0.191362 0.241899
vt 0.191363 0.241801
vt 0.150068 0.162809
vt 0.150165 0.16283
vt 0.149859 0.165307
vt 0.193445 0.162957
vt 0.193728 0.165336
vt 0.193625 0.165346
vt 0.150811 0.190995
vt 0.150597 0.188731
vt 0.19334 0.18876
vt 0.203895 0.187729
vt 0.201785 0.187768
vt 0.201426 0.153514
vt 0.184017 0.240626
vt 0.181338 0.240647
vt 0.18133 0.200256
vt 0.223755 0.153963
vt 0.221592 0.153968
vt 0.221592 0.153357
vt 0.152381 0.19972
vt 0.155123 0.199721
vt 0.155123 0.200188
vt 0.210068 0.18767
vt 0.208 0.187718
vt 0.207632 0.153431
vt 0.150977 0.193313
vt 0.150811 0.190995
vt 0.193129 0.191002
vt 0.211802 0.153493
vt 0.212163 0.187567
vt 0.210068 0.18767
vt 0.151072 0.195953
vt 0.150977 0.193313
vt 0.192966 0.193302
vt 0.181338 0.241408
vt 0.18134 0.24173
vt 0.165168 0.241732
vt 0.181338 0.240647
vt 0.16517 0.240649
vt 0.165161 0.200257
vt 0.191366 0.199719
vt 0.191365 0.199634
vt 0.194064 0.199631
vt 0.162493 0.240629
vt 0.159814 0.240675
vt 0.159808 0.200233
vt 0.213838 0.153697
vt 0.214219 0.187314
vt 0.212163 0.187567
vt 0.16517 0.240649
vt 0.181338 0.240647
vt 0.181338 0.241408
vt 0.221592 0.153968
vt 0.221602 0.18636
vt 0.219465 0.186358
vt 0.227991 0.153969
vt 0.228001 0.186355
vt 0.225807 0.186364
vt 0.189002 0.240696
vt 0.186691 0.24067
vt 0.186686 0.200232
vt 0.194065 0.241483
vt 0.191366 0.241479
vt 0.191366 0.240715
vt 0.157482 0.200209
vt 0.159808 0.200233
vt 0.159814 0.240675
vt 0.151072 0.195953
vt 0.192872 0.19593
vt 0.192648 0.198539
vt 0.165161 0.200257
vt 0.16517 0.240649
vt 0.162493 0.240629
vt 0.194065 0.240718
vt 0.194065 0.200183
vt 0.196735 0.200154
vt 0.227991 0.153969
vt 0.23011 0.153967
vt 0.23012 0.186356
vt 0.205858 0.187706
vt 0.203895 0.187729
vt 0.203533 0.153509
vt 0.152383 0.240725
vt 0.149753 0.240754
vt 0.149755 0.200159
vt 0.193621 0.186362
vt 0.150322 0.186363
vt 0.150396 0.183959
vt 0.194065 0.240718
vt 0.191366 0.240715
vt 0.191366 0.200186
vt 0.193749 0.167744
vt 0.194006 0.167732
vt 0.194003 0.183983
vt 0.193542 0.162937
vt 0.19383 0.165326
vt 0.193728 0.165336
vt 0.205492 0.153332
vt 0.203533 0.15335
vt 0.203511 0.153142
vt 0.150203 0.167742
vt 0.150198 0.183965
vt 0.149941 0.183977
vt 0.193533 0.188801
vt 0.193786 0.188883
vt 0.193586 0.191065
vt 0.199697 0.187861
vt 0.199699 0.187781
vt 0.201785 0.187768
vt 0.150404 0.188772
vt 0.150616 0.191029
vt 0.150354 0.191058
vt 0.150611 0.160662
vt 0.150416 0.162914
vt 0.150165 0.16283
vt 0.151104 0.153127
vt 0.150872 0.155696
vt 0.150606 0.155627
vt 0.213946 0.15334
vt 0.213883 0.153549
vt 0.211824 0.153332
vt 0.199312 0.153166
vt 0.199334 0.153385
vt 0.197252 0.153484
vt 0.192838 0.153095
vt 0.193099 0.153004
vt 0.193342 0.155619
vt 0.203511 0.153142
vt 0.203533 0.15335
vt 0.201425 0.153354
vt 0.151106 0.198586
vt 0.150846 0.198679
vt 0.150607 0.196047
vt 0.193646 0.183966
vt 0.193547 0.183965
vt 0.193551 0.16775
vt 0.210078 0.187829
vt 0.210095 0.188049
vt 0.208031 0.188094
vt 0.193793 0.162853
vt 0.193609 0.160635
vt 0.193706 0.160618
vt 0.212189 0.187726
vt 0.214267 0.187461
vt 0.214334 0.187668
vt 0.150521 0.193369
vt 0.150781 0.193335
vt 0.150873 0.195978
vt 0.212224 0.187946
vt 0.214334 0.187668
vt 0.214361 0.187744
vt 0.19383 0.165326
vt 0.193542 0.162937
vt 0.193793 0.162853
vt 0.193825 0.186381
vt 0.193745 0.18397
vt 0.194003 0.183983
vt 0.150123 0.165331
vt 0.150203 0.167742
vt 0.149945 0.167729
vt 0.193786 0.188883
vt 0.193533 0.188801
vt 0.193825 0.186381
vt 0.149941 0.183977
vt 0.150198 0.183965
vt 0.150117 0.186382
vt 0.150165 0.16283
vt 0.150416 0.162914
vt 0.150123 0.165331
vt 0.150117 0.186382
vt 0.150404 0.188772
vt 0.150151 0.188855
vt 0.186686 0.200232
vt 0.186691 0.24067
vt 0.184017 0.240626
vt 0.192836 0.198589
vt 0.193071 0.195956
vt 0.193337 0.196025
vt 0.152383 0.240725
vt 0.155125 0.240721
vt 0.155125 0.241485
vt 0.2097 0.153356
vt 0.209704 0.153276
vt 0.211824 0.153332
vt 0.193422 0.193357
vt 0.193162 0.193324
vt 0.193324 0.191036
vt 0.197277 0.153643
vt 0.199342 0.153545
vt 0.199699 0.187781
vt 0.199675 0.18824
vt 0.199678 0.188161
vt 0.201763 0.188143
vt 0.155125 0.240721
vt 0.155123 0.200188
vt 0.157482 0.200209
vt 0.225807 0.186364
vt 0.223764 0.186365
vt 0.223755 0.153963
vt 0.210078 0.187829
vt 0.212189 0.187726
vt 0.212224 0.187946
vt 0.207632 0.153431
vt 0.208 0.187718
vt 0.205858 0.187706
vt 0.197619 0.187885
vt 0.19763 0.187805
vt 0.199697 0.187861
vt 0.191366 0.200186
vt 0.191366 0.240715
vt 0.189002 0.240696
vt 0.194006 0.167732
vt 0.194105 0.167727
vt 0.194102 0.183987
vt 0.151072 0.155721
vt 0.192877 0.155714
vt 0.192968 0.158386
vt 0.20763 0.153271
vt 0.205492 0.153332
vt 0.205513 0.153122
vt 0.21731 0.153964
vt 0.219454 0.15397
vt 0.219465 0.186358
vt 0.203898 0.187887
vt 0.201788 0.187928
vt 0.201787 0.187848
vt 0.19334 0.18876
vt 0.150597 0.188731
vt 0.150322 0.186363
vt 0.199334 0.153385
vt 0.199312 0.153166
vt 0.201395 0.15314
vt 0.232295 0.153959
vt 0.234437 0.153925
vt 0.234443 0.186396
vt 0.195431 0.187865
vt 0.195495 0.187656
vt 0.197619 0.187885
vt 0.223764 0.186738
vt 0.221602 0.186733
vt 0.221602 0.18636
vt 0.209704 0.153276
vt 0.209715 0.153056
vt 0.211855 0.153112
vt 0.195207 0.153898
vt 0.197277 0.153643
vt 0.197641 0.187725
vt 0.193423 0.158333
vt 0.193163 0.158363
vt 0.193076 0.155689
vt 0.201426 0.153514
vt 0.201785 0.187768
vt 0.199699 0.187781
vt 0.205883 0.188074
vt 0.205857 0.187864
vt 0.208001 0.187879
vt 0.22799 0.153358
vt 0.227991 0.153969
vt 0.225798 0.153962
vt 0.150512 0.162934
vt 0.150609 0.162953
vt 0.150328 0.165351
vt 0.150396 0.183959
vt 0.150401 0.167748
vt 0.193551 0.16775
vt 0.193344 0.160664
vt 0.193163 0.158363
vt 0.193423 0.158333
vt 0.225808 0.186806
vt 0.228001 0.186796
vt 0.228002 0.186875
vt 0.20551 0.153042
vt 0.207654 0.152976
vt 0.207655 0.153055
vt 0.205494 0.153411
vt 0.207631 0.153351
vt 0.207632 0.153431
vt 0.205857 0.187864
vt 0.205858 0.187785
vt 0.208001 0.187798
vt 0.150879 0.193324
vt 0.150977 0.193313
vt 0.151072 0.195953
vt 0.150781 0.193335
vt 0.150879 0.193324
vt 0.150972 0.195966
vt 0.193163 0.158363
vt 0.193066 0.158374
vt 0.192977 0.155702
vt 0.150886 0.158392
vt 0.150972 0.155709
vt 0.151072 0.155721
vt 0.186678 0.241852
vt 0.186681 0.241754
vt 0.188996 0.241782
vt 0.151198 0.153155
vt 0.150972 0.155709
vt 0.150872 0.155696
vt 0.195495 0.187656
vt 0.19552 0.187582
vt 0.19763 0.187805
vt 0.215138 0.153059
vt 0.215145 0.15298
vt 0.217317 0.153017
vt 0.199342 0.153545
vt 0.197277 0.153643
vt 0.197264 0.153563
vt 0.195405 0.187941
vt 0.195431 0.187865
vt 0.197589 0.188106
vt 0.203511 0.153063
vt 0.203511 0.153142
vt 0.201395 0.15314
vt 0.223764 0.186806
vt 0.223764 0.186885
vt 0.221602 0.18688
vt 0.199334 0.153385
vt 0.201425 0.153354
vt 0.201426 0.153434
vt 0.219455 0.153102
vt 0.219455 0.153024
vt 0.221591 0.153021
vt 0.205492 0.153332
vt 0.20763 0.153271
vt 0.207631 0.153351
vt 0.193793 0.162853
vt 0.193542 0.162937
vt 0.193344 0.160664
vt 0.159826 0.241857
vt 0.157495 0.241882
vt 0.157493 0.241784
vt 0.209718 0.152976
vt 0.209715 0.153056
vt 0.207655 0.153055
vt 0.197252 0.153484
vt 0.195159 0.153751
vt 0.195091 0.153544
vt 0.219465 0.186878
vt 0.217323 0.186886
vt 0.217321 0.186807
vt 0.212163 0.187567
vt 0.214219 0.187314
vt 0.21424 0.187387
vt 0.212176 0.187647
vt 0.21424 0.187387
vt 0.214267 0.187461
vt 0.191365 0.199634
vt 0.191364 0.199536
vt 0.194063 0.199533
vt 0.192971 0.195943
vt 0.193064 0.193313
vt 0.193162 0.193324
vt 0.192742 0.198561
vt 0.192971 0.195943
vt 0.193071 0.195956
vt 0.196717 0.241932
vt 0.19406 0.241902
vt 0.194061 0.241804
vt 0.150396 0.183959
vt 0.150297 0.18396
vt 0.150302 0.167747
vt 0.193745 0.18397
vt 0.193646 0.183966
vt 0.19365 0.167749
vt 0.16516 0.199706
vt 0.162483 0.199729
vt 0.162484 0.199631
vt 0.194105 0.167727
vt 0.194006 0.167732
vt 0.194094 0.165303
vt 0.157484 0.199658
vt 0.157486 0.19956
vt 0.159813 0.199584
vt 0.150248 0.160616
vt 0.150346 0.160633
vt 0.150165 0.16283
vt 0.150429 0.158339
vt 0.150528 0.15835
vt 0.150346 0.160633
vt 0.155129 0.241807
vt 0.15513 0.241905
vt 0.152389 0.241909
vt 0.18134 0.24173
vt 0.184014 0.241707
vt 0.184013 0.241805
vt 0.149846 0.167725
vt 0.14976 0.165299
vt 0.149859 0.165307
vt 0.149941 0.183977
vt 0.149842 0.183982
vt 0.149846 0.167725
vt 0.181328 0.199608
vt 0.18133 0.199706
vt 0.16516 0.199706
vt 0.184004 0.199631
vt 0.18668 0.199583
vt 0.186683 0.199681
vt 0.149852 0.186406
vt 0.150151 0.188855
vt 0.150055 0.188876
vt 0.150708 0.160679
vt 0.150806 0.160697
vt 0.150609 0.162953
vt 0.150611 0.160662
vt 0.150708 0.160679
vt 0.150512 0.162934
vt 0.194006 0.167732
vt 0.193749 0.167744
vt 0.19383 0.165326
vt 0.165168 0.241732
vt 0.16517 0.24183
vt 0.162499 0.241808
vt 0.150416 0.162914
vt 0.150512 0.162934
vt 0.150225 0.165341
vt 0.150616 0.191029
vt 0.150781 0.193335
vt 0.150521 0.193369
vt 0.193096 0.198682
vt 0.193337 0.196025
vt 0.193436 0.196037
vt 0.193533 0.188801
vt 0.193437 0.18878
vt 0.193723 0.186372
vt 0.149842 0.183982
vt 0.149941 0.183977
vt 0.149852 0.186406
vt 0.150302 0.167747
vt 0.150225 0.165341
vt 0.150328 0.165351
vt 0.150616 0.191029
vt 0.150404 0.188772
vt 0.1505 0.188752
vt 0.19334 0.18876
vt 0.193437 0.18878
vt 0.193227 0.191019
vt 0.193749 0.167744
vt 0.19365 0.167749
vt 0.193728 0.165336
vt 0.193646 0.183966
vt 0.193723 0.186372
vt 0.193621 0.186362
vt 0.193786 0.188883
vt 0.193883 0.188905
vt 0.193684 0.191082
vt 0.150198 0.183965
vt 0.150297 0.18396
vt 0.150219 0.186373
vt 0.223754 0.153094
vt 0.221591 0.153099
vt 0.221591 0.153021
vt 0.203533 0.15335
vt 0.203533 0.15343
vt 0.201426 0.153434
vt 0.203882 0.188176
vt 0.201764 0.188223
vt 0.201763 0.188143
vt 0.203897 0.187808
vt 0.201787 0.187848
vt 0.201785 0.187768
vt 0.209704 0.153276
vt 0.20763 0.153271
vt 0.207655 0.153055
vt 0.203533 0.15343
vt 0.203533 0.153509
vt 0.201426 0.153514
vt 0.193129 0.191002
vt 0.193227 0.191019
vt 0.193064 0.193313
vt 0.193586 0.191065
vt 0.193684 0.191082
vt 0.19352 0.193368
vt 0.193522 0.158321
vt 0.193706 0.160618
vt 0.193609 0.160635
vt 0.155124 0.199636
vt 0.155125 0.199538
vt 0.157486 0.19956
vt 0.15981 0.199682
vt 0.159813 0.199584
vt 0.162484 0.199631
vt 0.193889 0.162832
vt 0.194193 0.165294
vt 0.194094 0.165303
vt 0.150788 0.158381
vt 0.150886 0.158392
vt 0.150708 0.160679
vt 0.150886 0.158392
vt 0.150983 0.158404
vt 0.150806 0.160697
vt 0.150788 0.158381
vt 0.150872 0.155696
vt 0.150972 0.155709
vt 0.223764 0.186885
vt 0.223764 0.186806
vt 0.225808 0.186806
vt 0.193066 0.158374
vt 0.192968 0.158386
vt 0.192877 0.155714
vt 0.203897 0.187808
vt 0.205858 0.187785
vt 0.205857 0.187864
vt 0.208031 0.188094
vt 0.210095 0.188049
vt 0.210099 0.188128
vt 0.151292 0.153177
vt 0.151072 0.155721
vt 0.150972 0.155709
vt 0.195159 0.153751
vt 0.197252 0.153484
vt 0.197264 0.153563
vt 0.215137 0.186844
vt 0.217321 0.186807
vt 0.217323 0.186886
vt 0.19552 0.187582
vt 0.195539 0.187509
vt 0.197641 0.187725
vt 0.193071 0.195956
vt 0.193162 0.193324
vt 0.193422 0.193357
vt 0.199338 0.153465
vt 0.197264 0.153563
vt 0.197252 0.153484
vt 0.195186 0.153825
vt 0.197264 0.153563
vt 0.197277 0.153643
vt 0.150322 0.186363
vt 0.150597 0.188731
vt 0.1505 0.188752
vt 0.199338 0.153465
vt 0.201426 0.153434
vt 0.201426 0.153514
vt 0.219465 0.1868
vt 0.221602 0.186802
vt 0.221602 0.18688
vt 0.199694 0.187941
vt 0.199697 0.187861
vt 0.201787 0.187848
vt 0.205883 0.188153
vt 0.205883 0.188074
vt 0.208031 0.188094
vt 0.225798 0.153093
vt 0.225799 0.153014
vt 0.227991 0.153022
vt 0.205858 0.187785
vt 0.205858 0.187706
vt 0.208 0.187718
vt 0.150528 0.15835
vt 0.150788 0.158381
vt 0.150611 0.160662
vt 0.19365 0.167749
vt 0.193551 0.16775
vt 0.193625 0.165346
vt 0.2097 0.153356
vt 0.209697 0.153436
vt 0.207632 0.153431
vt 0.210095 0.188049
vt 0.212224 0.187946
vt 0.212237 0.188025
vt 0.230108 0.15302
vt 0.232288 0.153012
vt 0.232289 0.153091
vt 0.210068 0.18767
vt 0.212163 0.187567
vt 0.212176 0.187647
vt 0.210073 0.18775
vt 0.212176 0.187647
vt 0.212189 0.187726
vt 0.213883 0.153549
vt 0.213857 0.153623
vt 0.211813 0.153412
vt 0.213857 0.153623
vt 0.213838 0.153697
vt 0.211802 0.153493
vt 0.1512 0.198558
vt 0.151106 0.198586
vt 0.150873 0.195978
vt 0.196726 0.199503
vt 0.196733 0.199601
vt 0.194064 0.199631
vt 0.192648 0.198539
vt 0.192872 0.19593
vt 0.192971 0.195943
vt 0.150844 0.153036
vt 0.150606 0.155627
vt 0.150507 0.155615
vt 0.193445 0.162957
vt 0.193246 0.160681
vt 0.193344 0.160664
vt 0.193349 0.162978
vt 0.193148 0.160699
vt 0.193246 0.160681
vt 0.150297 0.18396
vt 0.150396 0.183959
vt 0.150322 0.186363
vt 0.194102 0.183987
vt 0.194189 0.186413
vt 0.19409 0.186405
vt 0.150203 0.167742
vt 0.150123 0.165331
vt 0.150225 0.165341
vt 0.18133 0.199706
vt 0.181328 0.199608
vt 0.184004 0.199631
vt 0.193745 0.18397
vt 0.193825 0.186381
vt 0.193723 0.186372
vt 0.193437 0.18878
vt 0.19334 0.18876
vt 0.193621 0.186362
vt 0.150219 0.186373
vt 0.1505 0.188752
vt 0.150404 0.188772
vt 0.186681 0.241754
vt 0.186678 0.241852
vt 0.184013 0.241805
vt 0.208 0.187718
vt 0.210068 0.18767
vt 0.210073 0.18775
vt 0.193437 0.18878
vt 0.193533 0.188801
vt 0.193324 0.191036
vt 0.150422 0.19338
vt 0.150256 0.191075
vt 0.150354 0.191058
vt 0.150879 0.193324
vt 0.150713 0.191012
vt 0.150811 0.190995
vt 0.193148 0.160699
vt 0.192968 0.158386
vt 0.193066 0.158374
vt 0.150781 0.193335
vt 0.150616 0.191029
vt 0.150713 0.191012
vt 0.189 0.199739
vt 0.191366 0.199719
vt 0.191366 0.200186
vt 0.152387 0.241811
vt 0.149761 0.241842
vt 0.149753 0.241519
vt 0.149757 0.199606
vt 0.152382 0.199635
vt 0.152381 0.19972
vt 0.219465 0.186732
vt 0.221602 0.186733
vt 0.221602 0.186802
vt 0.225807 0.186738
vt 0.225808 0.186806
vt 0.223764 0.186806
vt 0.196735 0.199686
vt 0.194065 0.199716
vt 0.194064 0.199631
vt 0.215135 0.186776
vt 0.21732 0.186739
vt 0.217321 0.186807
vt 0.184005 0.199729
vt 0.186683 0.199681
vt 0.186686 0.199766
vt 0.234443 0.18677
vt 0.23444 0.186838
vt 0.232303 0.186804
vt 0.191365 0.199634
vt 0.188998 0.199654
vt 0.188996 0.199556
vt 0.23012 0.186729
vt 0.23012 0.186797
vt 0.228001 0.186796
vt 0.157482 0.199743
vt 0.155123 0.199721
vt 0.155124 0.199636
vt 0.193551 0.16775
vt 0.150401 0.167748
vt 0.150328 0.165351
vt 0.21732 0.186739
vt 0.215135 0.186776
vt 0.215135 0.186402
vt 0.188998 0.199654
vt 0.191365 0.199634
vt 0.191366 0.199719
vt 0.162483 0.199729
vt 0.16516 0.199706
vt 0.165161 0.199791
vt 0.219465 0.1868
vt 0.217321 0.186807
vt 0.21732 0.186739
vt 0.150609 0.162953
vt 0.150806 0.160697
vt 0.193148 0.160699
vt 0.15981 0.199682
vt 0.159807 0.199767
vt 0.157482 0.199743
vt 0.186686 0.199766
vt 0.186683 0.199681
vt 0.188998 0.199654
vt 0.152382 0.199635
vt 0.155124 0.199636
vt 0.155123 0.199721
vt 0.23012 0.186729
vt 0.232304 0.186736
vt 0.232303 0.186804
vt 0.162482 0.199814
vt 0.165161 0.199791
vt 0.165161 0.200257
vt 0.162482 0.199814
vt 0.159807 0.199767
vt 0.15981 0.199682
vt 0.184005 0.199729
vt 0.184006 0.199814
vt 0.181329 0.199791
vt 0.186686 0.200232
vt 0.186686 0.199766
vt 0.189 0.199739
vt 0.184017 0.241386
vt 0.181338 0.241408
vt 0.181338 0.240647
vt 0.217315 0.153095
vt 0.21731 0.153353
vt 0.21513 0.153318
vt 0.21731 0.153964
vt 0.21732 0.186366
vt 0.215135 0.186402
vt 0.227991 0.153101
vt 0.230108 0.153099
vt 0.23011 0.153356
vt 0.16516 0.199706
vt 0.18133 0.199706
vt 0.181329 0.199791
vt 0.152383 0.241489
vt 0.155125 0.241485
vt 0.155129 0.241807
vt 0.157482 0.200209
vt 0.155123 0.200188
vt 0.155123 0.199721
vt 0.234443 0.186396
vt 0.234443 0.18677
vt 0.232304 0.186736
vt 0.221591 0.153099
vt 0.221592 0.153357
vt 0.219454 0.15336
vt 0.227991 0.153101
vt 0.22799 0.153358
vt 0.225798 0.153351
vt 0.149755 0.200159
vt 0.149755 0.199691
vt 0.152381 0.19972
vt 0.232289 0.153091
vt 0.234429 0.153054
vt 0.234437 0.153313
vt 0.186691 0.241432
vt 0.186681 0.241754
vt 0.184014 0.241707
vt 0.186691 0.241432
vt 0.189003 0.24146
vt 0.188996 0.241782
vt 0.157486 0.241462
vt 0.159814 0.241437
vt 0.159823 0.241759
vt 0.232289 0.153091
vt 0.232295 0.153348
vt 0.23011 0.153356
vt 0.162494 0.24139
vt 0.159814 0.241437
vt 0.159814 0.240675
vt 0.18133 0.200256
vt 0.165161 0.200257
vt 0.165161 0.199791
vt 0.193625 0.165346
vt 0.150328 0.165351
vt 0.150609 0.162953
vt 0.219465 0.186358
vt 0.219465 0.186732
vt 0.21732 0.186739
vt 0.159807 0.199767
vt 0.159808 0.200233
vt 0.157482 0.200209
vt 0.225798 0.153351
vt 0.223754 0.153352
vt 0.223754 0.153094
vt 0.194061 0.241804
vt 0.191363 0.241801
vt 0.191366 0.241479
vt 0.191366 0.200186
vt 0.191366 0.199719
vt 0.194065 0.199716
vt 0.184006 0.199814
vt 0.186686 0.199766
vt 0.186686 0.200232
vt 0.194061 0.241804
vt 0.194065 0.241483
vt 0.196731 0.241511
vt 0.155129 0.241807
vt 0.155125 0.241485
vt 0.157486 0.241462
vt 0.16517 0.24141
vt 0.165168 0.241732
vt 0.162498 0.24171
vt 0.23012 0.186356
vt 0.23012 0.186729
vt 0.228001 0.186728
vt 0.184014 0.241707
vt 0.18134 0.24173
vt 0.181338 0.241408
vt 0.232304 0.186736
vt 0.23012 0.186729
vt 0.23012 0.186356
vt 0.221602 0.186733
vt 0.219465 0.186732
vt 0.219465 0.186358
vt 0.196735 0.200154
vt 0.194065 0.200183
vt 0.194065 0.199716
vt 0.225807 0.186364
vt 0.228001 0.186355
vt 0.228001 0.186728
vt 0.150806 0.160697
vt 0.150983 0.158404
vt 0.192968 0.158386
vt 0.223764 0.186738
vt 0.223764 0.186365
vt 0.225807 0.186364
vt 0.191366 0.241479
vt 0.191363 0.241801
vt 0.188996 0.241782
vt 0.223754 0.153352
vt 0.221592 0.153357
vt 0.221591 0.153099
vt 0.217315 0.153095
vt 0.219455 0.153102
vt 0.219454 0.15336
vt 0.184006 0.200279
vt 0.18133 0.200256
vt 0.181329 0.199791
vt 0.152383 0.241489
vt 0.149753 0.241519
vt 0.149753 0.240754
vt 0.223764 0.186365
vt 0.221602 0.18636
vt 0.221592 0.153968
vt 0.221592 0.153357
vt 0.221592 0.153968
vt 0.219454 0.15397
vt 0.189003 0.24146
vt 0.186691 0.241432
vt 0.186691 0.24067
vt 0.151072 0.155721
vt 0.151292 0.153177
vt 0.192651 0.153145
vt 0.194065 0.241483
vt 0.194065 0.240718
vt 0.196731 0.240746
vt 0.186691 0.24067
vt 0.186691 0.241432
vt 0.184017 0.241386
vt 0.191366 0.240715
vt 0.191366 0.241479
vt 0.189003 0.24146
vt 0.22799 0.153358
vt 0.23011 0.153356
vt 0.23011 0.153967
vt 0.152381 0.200187
vt 0.155123 0.200188
vt 0.155125 0.240721
vt 0.155125 0.241485
vt 0.155125 0.240721
vt 0.157486 0.240699
vt 0.21731 0.153353
vt 0.21731 0.153964
vt 0.21513 0.15393
vt 0.232295 0.153348
vt 0.232295 0.153959
vt 0.23011 0.153967
vt 0.21731 0.153353
vt 0.219454 0.15336
vt 0.219454 0.15397
vt 0.16517 0.240649
vt 0.16517 0.24141
vt 0.162494 0.24139
vt 0.225798 0.153962
vt 0.223755 0.153963
vt 0.223754 0.153352
vt 0.232295 0.153959
vt 0.232304 0.186362
vt 0.23012 0.186356
vt 0.228001 0.186796
vt 0.225808 0.186806
vt 0.225807 0.186738
vt 0.157486 0.240699
vt 0.159814 0.240675
vt 0.159814 0.241437
vt 0.232295 0.153348
vt 0.234437 0.153313
vt 0.234437 0.153925
vt 0.162498 0.24171
vt 0.159823 0.241759
vt 0.159814 0.241437
vt 0.223764 0.186806
vt 0.221602 0.186802
vt 0.221602 0.186733
vt 0.162482 0.200279
vt 0.159808 0.200233
vt 0.159807 0.199767
f 150/1 152/2 151/3
f 15/4 17/5 16/6
f 27/7 98/8 26/9
f 26/10 30/11 29/12
f 84/13 260/14 83/15
f 2/16 4/17 3/18
f 176/19 180/20 175/21
f 110/22 259/23 260/24
f 9/25 35/26 8/27
f 8/28 36/29 7/30
f 28/31 38/32 39/33
f 29/34 37/35 38/36
f 75/37 77/38 76/39
f 32/40 48/41 31/42
f 40/43 50/44 51/45
f 41/46 49/47 50/48
f 226/49 239/50 240/51
f 44/52 57/53 43/54
f 59/55 69/56 58/57
f 216/58 218/59 217/60
f 62/61 76/62 77/63
f 61/64 77/65 78/66
f 71/67 81/68 70/69
f 187/70 7/71 36/72
f 182/73 190/74 191/75
f 73/76 86/77 87/78
f 23/79 129/80 22/81
f 24/82 128/83 23/84
f 94/85 119/86 95/87
f 107/88 126/89 125/90
f 1/91 145/92 6/93
f 204/94 54/95 49/96
f 103/97 101/98 100/99
f 134/100 132/101 131/102
f 149/103 153/104 152/105
f 235/106 263/107 236/108
f 142/109 146/110 143/111
f 1/112 5/113 2/114
f 158/115 258/116 159/117
f 195/118 49/119 42/120
f 207/121 1/122 54/123
f 214/124 230/125 231/126
f 183/127 191/128 192/129
f 32/130 34/131 33/132
f 43/133 47/134 44/135
f 194/136 202/137 203/138
f 212/139 222/140 213/141
f 63/142 65/143 64/144
f 74/145 78/146 77/147
f 164/148 262/149 263/150
f 20/151 87/152 86/153
f 83/154 259/155 82/156
f 113/157 117/158 116/159
f 173/160 247/161 172/162
f 159/163 162/164 163/165
f 142/166 210/167 150/168
f 351/169 309/170 310/171
f 341/172 296/173 297/174
f 282/175 326/176 325/177
f 220/178 219/179 214/180
f 156/181 163/182 264/183
f 231/184 220/185 214/186
f 240/187 264/188 235/189
f 308/190 100/191 287/192
f 352/193 330/194 309/195
f 270/196 85/197 271/198
f 332/199 328/200 329/201
f 226/202 223/203 231/204
f 331/205 308/206 287/207
f 340/208 322/209 339/210
f 343/211 319/212 342/213
f 349/214 311/215 312/216
f 303/217 348/218 347/219
f 327/220 333/221 334/222
f 240/223 232/224 226/225
f 330/226 332/227 329/228
f 347/229 315/230 346/231
f 343/232 317/233 318/234
f 147/235 150/236 151/237
f 336/238 324/239 325/240
f 253/241 135/242 139/243
f 347/244 313/245 314/246
f 136/247 105/248 141/249
f 174/250 248/251 173/252
f 153/253 15/254 16/255
f 132/256 93/257 90/258
f 160/259 109/260 165/261
f 203/262 205/263 206/264
f 256/265 22/266 129/267
f 171/268 112/269 12/270
f 186/271 36/272 31/273
f 73/274 229/275 78/276
f 43/277 199/278 48/279
f 192/280 30/281 183/282
f 15/283 208/284 57/285
f 228/286 87/287 238/288
f 140/289 138/290 137/291
f 222/292 60/293 213/294
f 96/295 98/296 95/297
f 225/298 79/299 72/300
f 21/301 238/302 87/303
f 72/304 80/305 71/306
f 249/307 96/308 120/309
f 255/310 105/311 126/312
f 244/313 90/314 117/315
f 108/316 255/317 126/318
f 93/319 250/320 123/321
f 112/322 244/323 117/324
f 250/325 129/326 123/327
f 311/328 351/329 310/330
f 234/331 84/332 79/333
f 336/334 291/335 292/336
f 215/337 229/338 230/339
f 261/340 165/341 109/342
f 201/343 202/344 193/345
f 50/346 54/347 53/348
f 335/349 327/350 334/351
f 319/352 341/353 342/354
f 222/355 72/356 67/357
f 219/358 147/359 151/360
f 195/361 203/362 204/363
f 313/364 349/365 312/366
f 102/367 104/368 105/369
f 189/370 178/371 166/372
f 217/373 16/374 66/375
f 338/376 322/377 323/378
f 144/379 206/380 143/381
f 162/382 252/383 253/384
f 198/385 57/386 208/387
f 345/388 315/389 316/390
f 37/391 195/392 42/393
f 277/394 321/395 320/396
f 216/397 78/398 229/399
f 184/400 193/401 190/402
f 25/403 183/404 30/405
f 210/406 202/407 196/408
f 6/409 213/410 60/411
f 299/412 342/413 298/414
f 242/415 246/416 245/417
f 135/418 138/419 139/420
f 175/421 25/422 99/423
f 18/424 65/425 17/426
f 17/427 66/428 16/429
f 152/430 219/431 151/432
f 145/433 212/434 213/435
f 155/436 240/437 239/438
f 154/439 239/440 238/441
f 180/442 182/443 183/444
f 167/445 189/446 166/447
f 107/448 111/449 110/450
f 185/451 187/452 186/453
f 192/454 194/455 195/456
f 39/457 41/458 40/459
f 196/460 200/461 197/462
f 38/463 42/464 41/465
f 14/466 57/467 56/468
f 13/469 56/470 55/471
f 198/472 209/473 197/474
f 51/475 53/476 52/477
f 153/478 218/479 152/480
f 96/481 175/482 99/483
f 95/484 97/485 94/486
f 62/487 66/488 65/489
f 199/490 31/491 48/492
f 44/493 46/494 45/495
f 223/496 233/497 224/498
f 224/499 234/500 225/501
f 19/502 86/503 85/504
f 236/505 262/506 237/507
f 233/508 237/509 234/510
f 80/511 82/512 81/513
f 135/514 131/515 130/516
f 141/517 137/518 136/519
f 88/520 116/521 89/522
f 101/523 120/524 119/525
f 10/526 113/527 114/528
f 11/529 112/530 113/531
f 8/532 12/533 11/534
f 27/535 29/536 28/537
f 103/538 125/539 104/540
f 89/541 117/542 90/543
f 93/544 89/545 90/546
f 92/547 88/548 89/549
f 122/550 127/551 121/552
f 123/553 128/554 122/555
f 170/556 241/557 242/558
f 171/559 242/560 243/561
f 102/562 249/563 120/564
f 100/565 119/566 118/567
f 243/568 245/569 244/570
f 157/571 21/572 22/573
f 79/574 83/575 80/576
f 160/577 254/578 255/579
f 92/580 123/581 122/582
f 131/583 246/584 130/585
f 157/586 257/587 158/588
f 162/589 164/590 163/591
f 136/592 248/593 249/594
f 140/595 253/596 139/597
f 108/598 110/599 109/600
f 133/601 251/602 250/603
f 3/604 53/605 2/606
f 148/607 209/608 208/609
f 2/610 54/611 1/612
f 143/613 205/614 142/615
f 216/616 66/617 61/618
f 149/619 210/620 209/621
f 163/622 263/623 264/624
f 109/625 260/626 261/627
f 26/628 99/629 25/630
f 9/631 11/632 10/633
f 114/634 116/635 115/636
f 95/637 120/638 96/639
f 168/640 170/641 171/642
f 167/643 169/644 170/645
f 168/646 188/647 167/648
f 14/649 18/650 17/651
f 179/652 181/653 182/654
f 143/655 145/656 144/657
f 60/658 68/659 59/660
f 184/661 188/662 185/663
f 186/664 200/665 185/666
f 33/667 47/668 32/669
f 191/670 193/671 194/672
f 237/673 261/674 84/675
f 197/676 199/677 198/678
f 185/679 201/680 184/681
f 252/682 257/683 251/684
f 197/685 210/686 196/687
f 45/688 56/689 44/690
f 204/691 206/692 207/693
f 5/694 60/695 59/696
f 4/697 59/698 58/699
f 146/700 211/701 212/702
f 7/703 171/704 12/705
f 137/706 247/707 248/708
f 215/709 219/710 218/711
f 67/712 71/713 68/714
f 68/715 70/716 69/717
f 220/718 224/719 221/720
f 221/721 225/722 222/723
f 228/724 230/725 229/726
f 227/727 231/728 230/729
f 227/730 238/731 239/732
f 74/733 85/734 86/735
f 232/736 236/737 233/738
f 31/739 35/740 32/741
f 173/742 175/743 174/744
f 172/745 176/746 173/747
f 134/748 252/749 251/750
f 104/751 126/752 105/753
f 132/754 245/755 131/756
f 91/757 122/758 121/759
f 141/760 254/761 140/762
f 161/763 253/764 254/765
f 251/766 256/767 250/768
f 106/769 125/770 124/771
f 211/772 221/773 212/774
f 161/775 165/776 164/777
f 20/778 22/779 21/780
f 155/781 159/782 156/783
f 177/784 179/785 176/786
f 154/787 158/788 155/789
f 269/790 313/791 312/792
f 28/793 293/794 292/795
f 33/796 282/797 281/798
f 279/799 55/800 45/801
f 276/802 13/803 277/804
f 272/805 85/806 75/807
f 281/808 46/809 33/810
f 121/811 268/812 267/813
f 272/814 76/815 273/816
f 19/817 23/818 20/819
f 274/820 64/821 275/822
f 284/823 9/824 10/825
f 138/826 246/827 247/828
f 280/829 324/830 323/831
f 24/832 270/833 269/834
f 115/835 265/836 286/837
f 45/838 280/839 279/840
f 241/841 177/842 172/843
f 114/844 284/845 10/846
f 268/847 24/848 269/849
f 34/850 283/851 282/852
f 274/853 76/854 63/855
f 286/856 330/857 329/858
f 286/859 114/860 115/861
f 121/862 266/863 91/864
f 311/865 269/866 312/867
f 307/868 352/869 351/870
f 40/871 293/872 39/873
f 338/874 324/875 337/876
f 58/877 300/878 299/879
f 88/880 266/881 265/882
f 292/883 27/884 28/885
f 327/886 283/887 284/888
f 315/889 273/890 316/891
f 52/892 295/893 51/894
f 58/895 298/896 4/897
f 324/898 282/899 325/900
f 70/901 302/902 301/903
f 306/904 124/905 307/906
f 306/907 111/908 106/909
f 290/910 94/911 97/912
f 70/913 300/914 69/915
f 288/916 333/917 332/918
f 309/919 265/920 266/921
f 247/922 241/923 172/924
f 322/925 280/926 323/927
f 285/928 327/929 284/930
f 298/931 3/932 4/933
f 82/934 304/935 303/936
f 313/937 271/938 314/939
f 267/940 311/941 310/942
f 82/943 302/944 81/945
f 27/946 290/947 97/948
f 287/949 118/950 288/951
f 317/952 275/953 318/954
f 124/955 308/956 307/957
f 273/958 317/959 316/960
f 278/961 322/962 321/963
f 315/964 271/965 272/966
f 319/967 275/968 276/969
f 169/970 178/971 177/972
f 277/973 319/974 276/975
f 304/976 111/977 305/978
f 297/979 52/980 3/981
f 40/982 295/983 294/984
f 310/985 266/986 267/987
f 292/988 337/989 336/990
f 320/991 340/992 341/993
f 296/994 339/995 295/996
f 305/997 350/998 349/999
f 189/1000 190/1001 181/1002
f 303/1003 346/1004 302/1005
f 350/1006 307/1007 351/1008
f 348/1009 305/1010 349/1011
f 299/1012 344/1013 343/1014
f 325/1015 335/1016 336/1017
f 291/1018 334/1019 290/1020
f 294/1021 337/1022 293/1023
f 301/1024 344/1025 300/1026
f 294/1027 339/1028 338/1029
f 331/1030 288/1031 332/1032
f 342/1033 297/1034 298/1035
f 345/1036 317/1037 344/1038
f 64/1039 276/1040 275/1041
f 334/1042 289/1043 290/1044
f 301/1045 346/1046 345/1047
f 118/1048 289/1049 288/1050
f 13/1051 278/1052 277/1053
f 329/1054 285/1055 286/1056
f 366/1057 370/1058 356/1059
f 355/1060 353/1061 359/1062
f 354/1063 353/1064 355/1065
f 374/1066 373/1067 354/1068
f 358/1069 374/1070 354/1071
f 357/1072 358/1073 354/1074
f 370/1075 357/1076 356/1077
f 370/1078 366/1079 368/1080
f 366/1081 369/1082 368/1083
f 354/1084 356/1085 357/1086
f 356/1087 367/1088 366/1089
f 355/1090 356/1091 354/1092
f 365/1093 355/1094 362/1095
f 361/1096 364/1097 363/1098
f 365/1099 361/1100 363/1101
f 362/1102 361/1103 365/1104
f 359/1105 362/1106 355/1107
f 360/1108 359/1109 353/1110
f 371/1111 360/1112 353/1113
f 353/1114 372/1115 371/1116
f 388/1117 378/1118 392/1119
f 377/1120 381/1121 375/1122
f 376/1123 377/1124 375/1125
f 396/1126 376/1127 395/1128
f 380/1129 376/1130 396/1131
f 379/1132 376/1133 380/1134
f 392/1135 378/1136 379/1137
f 392/1138 390/1139 388/1140
f 388/1141 390/1142 391/1143
f 376/1144 379/1145 378/1146
f 378/1147 388/1148 389/1149
f 377/1150 376/1151 378/1152
f 387/1153 384/1154 377/1155
f 383/1156 385/1157 386/1158
f 387/1159 385/1160 383/1161
f 384/1162 387/1163 383/1164
f 381/1165 377/1166 384/1167
f 382/1168 375/1169 381/1170
f 393/1171 375/1172 382/1173
f 375/1174 393/1175 394/1176
f 150/1177 149/1178 152/1179
f 15/1180 14/1181 17/1182
f 27/1183 97/1184 98/1185
f 26/1186 25/1187 30/1188
f 84/1189 261/1190 260/1191
f 2/1192 5/1193 4/1194
f 176/1195 179/1196 180/1197
f 110/1198 111/1199 259/1200
f 9/1201 34/1202 35/1203
f 8/1204 35/1205 36/1206
f 28/1207 29/1208 38/1209
f 29/1210 30/1211 37/1212
f 75/1213 74/1214 77/1215
f 32/1216 47/1217 48/1218
f 40/1219 41/1220 50/1221
f 41/1222 42/1223 49/1224
f 226/1225 227/1226 239/1227
f 44/1228 56/1229 57/1230
f 59/1231 68/1232 69/1233
f 216/1234 215/1235 218/1236
f 62/1237 63/1238 76/1239
f 61/1240 62/1241 77/1242
f 71/1243 80/1244 81/1245
f 187/1246 168/1247 7/1248
f 182/1249 181/1250 190/1251
f 73/1252 74/1253 86/1254
f 23/1255 128/1256 129/1257
f 24/1258 127/1259 128/1260
f 94/1261 118/1262 119/1263
f 107/1264 108/1265 126/1266
f 1/1267 144/1268 145/1269
f 204/1270 207/1271 54/1272
f 103/1273 104/1274 101/1275
f 134/1276 133/1277 132/1278
f 149/1279 148/1280 153/1281
f 235/1282 264/1283 263/1284
f 142/1285 147/1286 146/1287
f 1/1288 6/1289 5/1290
f 158/1291 257/1292 258/1293
f 195/1294 204/1295 49/1296
f 207/1297 144/1298 1/1299
f 214/1300 215/1301 230/1302
f 183/1303 182/1304 191/1305
f 32/1306 35/1307 34/1308
f 43/1309 48/1310 47/1311
f 194/1312 193/1313 202/1314
f 212/1315 221/1316 222/1317
f 63/1318 62/1319 65/1320
f 74/1321 73/1322 78/1323
f 164/1324 165/1325 262/1326
f 20/1327 21/1328 87/1329
f 83/1330 260/1331 259/1332
f 113/1333 112/1334 117/1335
f 173/1336 248/1337 247/1338
f 159/1339 258/1340 162/1341
f 142/1342 205/1343 210/1344
f 351/1345 352/1346 309/1347
f 341/1348 340/1349 296/1350
f 282/1351 283/1352 326/1353
f 220/1354 211/1355 219/1356
f 156/1357 159/1358 163/1359
f 231/1360 223/1361 220/1362
f 240/1363 156/1364 264/1365
f 308/1366 103/1367 100/1368
f 352/1369 331/1370 330/1371
f 270/1372 19/1373 85/1374
f 332/1375 333/1376 328/1377
f 226/1378 232/1379 223/1380
f 331/1381 352/1382 308/1383
f 340/1384 321/1385 322/1386
f 343/1387 318/1388 319/1389
f 349/1390 350/1391 311/1392
f 303/1393 304/1394 348/1395
f 327/1396 328/1397 333/1398
f 240/1399 235/1400 232/1401
f 330/1402 331/1403 332/1404
f 347/1405 314/1406 315/1407
f 343/1408 344/1409 317/1410
f 147/1411 142/1412 150/1413
f 336/1414 337/1415 324/1416
f 253/1417 252/1418 135/1419
f 347/1420 348/1421 313/1422
f 136/1423 102/1424 105/1425
f 174/1426 249/1427 248/1428
f 153/1429 148/1430 15/1431
f 132/1432 133/1433 93/1434
f 160/1435 108/1436 109/1437
f 203/1438 202/1439 205/1440
f 256/1441 157/1442 22/1443
f 171/1444 243/1445 112/1446
f 186/1447 187/1448 36/1449
f 73/1450 228/1451 229/1452
f 43/1453 198/1454 199/1455
f 192/1456 37/1457 30/1458
f 15/1459 148/1460 208/1461
f 228/1462 73/1463 87/1464
f 140/1465 139/1466 138/1467
f 222/1468 67/1469 60/1470
f 96/1471 99/1472 98/1473
f 225/1474 234/1475 79/1476
f 21/1477 154/1478 238/1479
f 72/1480 79/1481 80/1482
f 249/1483 174/1484 96/1485
f 255/1486 141/1487 105/1488
f 244/1489 132/1490 90/1491
f 108/1492 160/1493 255/1494
f 93/1495 133/1496 250/1497
f 112/1498 243/1499 244/1500
f 250/1501 256/1502 129/1503
f 311/1504 350/1505 351/1506
f 234/1507 237/1508 84/1509
f 336/1510 335/1511 291/1512
f 215/1513 216/1514 229/1515
f 261/1516 262/1517 165/1518
f 201/1519 196/1520 202/1521
f 50/1522 49/1523 54/1524
f 335/1525 326/1526 327/1527
f 319/1528 320/1529 341/1530
f 222/1531 225/1532 72/1533
f 219/1534 211/1535 147/1536
f 195/1537 194/1538 203/1539
f 313/1540 348/1541 349/1542
f 102/1543 101/1544 104/1545
f 189/1546 181/1547 178/1548
f 217/1549 153/1550 16/1551
f 338/1552 339/1553 322/1554
f 144/1555 207/1556 206/1557
f 162/1558 258/1559 252/1560
f 198/1561 43/1562 57/1563
f 345/1564 346/1565 315/1566
f 37/1567 192/1568 195/1569
f 277/1570 278/1571 321/1572
f 216/1573 61/1574 78/1575
f 184/1576 201/1577 193/1578
f 25/1579 180/1580 183/1581
f 210/1582 205/1583 202/1584
f 6/1585 145/1586 213/1587
f 299/1588 343/1589 342/1590
f 242/1591 241/1592 246/1593
f 135/1594 130/1595 138/1596
f 175/1597 180/1598 25/1599
f 18/1600 64/1601 65/1602
f 17/1603 65/1604 66/1605
f 152/1606 218/1607 219/1608
f 145/1609 146/1610 212/1611
f 155/1612 156/1613 240/1614
f 154/1615 155/1616 239/1617
f 180/1618 179/1619 182/1620
f 167/1621 188/1622 189/1623
f 107/1624 106/1625 111/1626
f 185/1627 188/1628 187/1629
f 192/1630 191/1631 194/1632
f 39/1633 38/1634 41/1635
f 196/1636 201/1637 200/1638
f 38/1639 37/1640 42/1641
f 14/1642 15/1643 57/1644
f 13/1645 14/1646 56/1647
f 198/1648 208/1649 209/1650
f 51/1651 50/1652 53/1653
f 153/1654 217/1655 218/1656
f 96/1657 174/1658 175/1659
f 95/1660 98/1661 97/1662
f 62/1663 61/1664 66/1665
f 199/1666 186/1667 31/1668
f 44/1669 47/1670 46/1671
f 223/1672 232/1673 233/1674
f 224/1675 233/1676 234/1677
f 19/1678 20/1679 86/1680
f 236/1681 263/1682 262/1683
f 233/1684 236/1685 237/1686
f 80/1687 83/1688 82/1689
f 135/1690 134/1691 131/1692
f 141/1693 140/1694 137/1695
f 88/1696 115/1697 116/1698
f 101/1699 102/1700 120/1701
f 10/1702 11/1703 113/1704
f 11/1705 12/1706 112/1707
f 8/1708 7/1709 12/1710
f 27/1711 26/1712 29/1713
f 103/1714 124/1715 125/1716
f 89/1717 116/1718 117/1719
f 93/1720 92/1721 89/1722
f 92/1723 91/1724 88/1725
f 122/1726 128/1727 127/1728
f 123/1729 129/1730 128/1731
f 170/1732 169/1733 241/1734
f 171/1735 170/1736 242/1737
f 102/1738 136/1739 249/1740
f 100/1741 101/1742 119/1743
f 243/1744 242/1745 245/1746
f 157/1747 154/1748 21/1749
f 79/1750 84/1751 83/1752
f 160/1753 161/1754 254/1755
f 92/1756 93/1757 123/1758
f 131/1759 245/1760 246/1761
f 157/1762 256/1763 257/1764
f 162/1765 161/1766 164/1767
f 136/1768 137/1769 248/1770
f 140/1771 254/1772 253/1773
f 108/1774 107/1775 110/1776
f 133/1777 134/1778 251/1779
f 3/1780 52/1781 53/1782
f 148/1783 149/1784 209/1785
f 2/1786 53/1787 54/1788
f 143/1789 206/1790 205/1791
f 216/1792 217/1793 66/1794
f 149/1795 150/1796 210/1797
f 163/1798 164/1799 263/1800
f 109/1801 110/1802 260/1803
f 26/1804 98/1805 99/1806
f 9/1807 8/1808 11/1809
f 114/1810 113/1811 116/1812
f 95/1813 119/1814 120/1815
f 168/1816 167/1817 170/1818
f 167/1819 166/1820 169/1821
f 168/1822 187/1823 188/1824
f 14/1825 13/1826 18/1827
f 179/1828 178/1829 181/1830
f 143/1831 146/1832 145/1833
f 60/1834 67/1835 68/1836
f 184/1837 189/1838 188/1839
f 186/1840 199/1841 200/1842
f 33/1843 46/1844 47/1845
f 191/1846 190/1847 193/1848
f 237/1849 262/1850 261/1851
f 197/1852 200/1853 199/1854
f 185/1855 200/1856 201/1857
f 252/1858 258/1859 257/1860
f 197/1861 209/1862 210/1863
f 45/1864 55/1865 56/1866
f 204/1867 203/1868 206/1869
f 5/1870 6/1871 60/1872
f 4/1873 5/1874 59/1875
f 146/1876 147/1877 211/1878
f 7/1879 168/1880 171/1881
f 137/1882 138/1883 247/1884
f 215/1885 214/1886 219/1887
f 67/1888 72/1889 71/1890
f 68/1891 71/1892 70/1893
f 220/1894 223/1895 224/1896
f 221/1897 224/1898 225/1899
f 228/1900 227/1901 230/1902
f 227/1903 226/1904 231/1905
f 227/1906 228/1907 238/1908
f 74/1909 75/1910 85/1911
f 232/1912 235/1913 236/1914
f 31/1915 36/1916 35/1917
f 173/1918 176/1919 175/1920
f 172/1921 177/1922 176/1923
f 134/1924 135/1925 252/1926
f 104/1927 125/1928 126/1929
f 132/1930 244/1931 245/1932
f 91/1933 92/1934 122/1935
f 141/1936 255/1937 254/1938
f 161/1939 162/1940 253/1941
f 251/1942 257/1943 256/1944
f 106/1945 107/1946 125/1947
f 211/1948 220/1949 221/1950
f 161/1951 160/1952 165/1953
f 20/1954 23/1955 22/1956
f 155/1957 158/1958 159/1959
f 177/1960 178/1961 179/1962
f 154/1963 157/1964 158/1965
f 269/1966 270/1967 313/1968
f 28/1969 39/1970 293/1971
f 33/1972 34/1973 282/1974
f 279/1975 278/1976 55/1977
f 276/1978 18/1979 13/1980
f 272/1981 271/1982 85/1983
f 281/1984 280/1985 46/1986
f 121/1987 127/1988 268/1989
f 272/1990 75/1991 76/1992
f 19/1993 24/1994 23/1995
f 274/1996 63/1997 64/1998
f 284/1999 283/2000 9/2001
f 138/2002 130/2003 246/2004
f 280/2005 281/2006 324/2007
f 24/2008 19/2009 270/2010
f 115/2011 88/2012 265/2013
f 45/2014 46/2015 280/2016
f 241/2017 169/2018 177/2019
f 114/2020 285/2021 284/2022
f 268/2023 127/2024 24/2025
f 34/2026 9/2027 283/2028
f 274/2029 273/2030 76/2031
f 286/2032 265/2033 330/2034
f 286/2035 285/2036 114/2037
f 121/2038 267/2039 266/2040
f 311/2041 268/2042 269/2043
f 307/2044 308/2045 352/2046
f 40/2047 294/2048 293/2049
f 338/2050 323/2051 324/2052
f 58/2053 69/2054 300/2055
f 88/2056 91/2057 266/2058
f 292/2059 291/2060 27/2061
f 327/2062 326/2063 283/2064
f 315/2065 272/2066 273/2067
f 52/2068 296/2069 295/2070
f 58/2071 299/2072 298/2073
f 324/2074 281/2075 282/2076
f 70/2077 81/2078 302/2079
f 306/2080 106/2081 124/2082
f 306/2083 305/2084 111/2085
f 290/2086 289/2087 94/2088
f 70/2089 301/2090 300/2091
f 288/2092 289/2093 333/2094
f 309/2095 330/2096 265/2097
f 247/2098 246/2099 241/2100
f 322/2101 279/2102 280/2103
f 285/2104 328/2105 327/2106
f 298/2107 297/2108 3/2109
f 82/2110 259/2111 304/2112
f 313/2113 270/2114 271/2115
f 267/2116 268/2117 311/2118
f 82/2119 303/2120 302/2121
f 27/2122 291/2123 290/2124
f 287/2125 100/2126 118/2127
f 317/2128 274/2129 275/2130
f 124/2131 103/2132 308/2133
f 273/2134 274/2135 317/2136
f 278/2137 279/2138 322/2139
f 315/2140 314/2141 271/2142
f 319/2143 318/2144 275/2145
f 169/2146 166/2147 178/2148
f 277/2149 320/2150 319/2151
f 304/2152 259/2153 111/2154
f 297/2155 296/2156 52/2157
f 40/2158 51/2159 295/2160
f 310/2161 309/2162 266/2163
f 292/2164 293/2165 337/2166
f 320/2167 321/2168 340/2169
f 296/2170 340/2171 339/2172
f 305/2173 306/2174 350/2175
f 189/2176 184/2177 190/2178
f 303/2179 347/2180 346/2181
f 350/2182 306/2183 307/2184
f 348/2185 304/2186 305/2187
f 299/2188 300/2189 344/2190
f 325/2191 326/2192 335/2193
f 291/2194 335/2195 334/2196
f 294/2197 338/2198 337/2199
f 301/2200 345/2201 344/2202
f 294/2203 295/2204 339/2205
f 331/2206 287/2207 288/2208
f 342/2209 341/2210 297/2211
f 345/2212 316/2213 317/2214
f 64/2215 18/2216 276/2217
f 334/2218 333/2219 289/2220
f 301/2221 302/2222 346/2223
f 118/2224 94/2225 289/2226
f 13/2227 55/2228 278/2229
f 329/2230 328/2231 285/2232
