o CoffeeMachine039_Button001
v 0.04305 -0.187744 0.082771
v 0.036705 -0.190901 0.079788
v 0.03427 -0.192538 0.072676
v 0.037171 -0.191695 0.065603
v 0.043709 -0.188866 0.06271
v 0.050054 -0.185709 0.065693
v 0.052489 -0.184072 0.072805
v 0.049588 -0.184915 0.079878
v 0.047409 -0.197057 0.073073
v 0.039593 -0.189405 0.081972
v 0.034847 -0.191997 0.076515
v 0.035099 -0.192425 0.068847
v 0.040202 -0.190441 0.06346
v 0.047166 -0.187205 0.063509
v 0.051912 -0.184613 0.068966
v 0.05166 -0.184185 0.076634
v 0.046557 -0.186169 0.082021
v 0.042179 -0.1948 0.081959
v 0.043869 -0.196894 0.080485
v 0.041537 -0.198102 0.078721
v 0.039359 -0.196261 0.079826
v 0.045553 -0.193178 0.082738
v 0.046659 -0.195553 0.081129
v 0.037545 -0.19733 0.076631
v 0.040037 -0.198986 0.07608
v 0.039572 -0.199423 0.072981
v 0.036982 -0.197858 0.072884
v 0.037791 -0.197749 0.069145
v 0.040241 -0.199332 0.06989
v 0.041914 -0.198742 0.067271
v 0.039814 -0.197035 0.065978
v 0.042773 -0.195811 0.063886
v 0.04436 -0.19773 0.065541
v 0.047191 -0.196459 0.064936
v 0.046197 -0.194274 0.063154
v 0.049572 -0.192652 0.063934
v 0.049981 -0.195118 0.065581
v 0.052313 -0.19391 0.067344
v 0.052391 -0.191191 0.066066
v 0.054205 -0.190122 0.069261
v 0.053813 -0.193026 0.069986
v 0.054278 -0.19259 0.073085
v 0.054769 -0.189594 0.073009
v 0.053959 -0.189704 0.076747
v 0.053609 -0.19268 0.076176
v 0.051936 -0.19327 0.078795
v 0.051936 -0.190417 0.079915
v 0.048978 -0.191641 0.082007
v 0.04949 -0.194282 0.080524
v 0.038046 -0.19019 0.081038
v 0.041283 -0.188579 0.08256
v 0.034386 -0.192345 0.074631
v 0.035628 -0.19151 0.078258
v 0.035994 -0.192133 0.067116
v 0.034514 -0.192563 0.070725
v 0.041929 -0.189679 0.062896
v 0.038594 -0.191122 0.064372
v 0.048713 -0.18642 0.064443
v 0.045476 -0.188031 0.062921
v 0.052373 -0.184265 0.07085
v 0.051131 -0.1851 0.067223
v 0.050765 -0.184477 0.078365
v 0.052245 -0.184047 0.074756
v 0.04483 -0.186931 0.082585
v 0.048165 -0.185488 0.081109
v 0.043009 -0.196223 0.081638
v 0.045209 -0.196219 0.081046
v 0.046243 -0.194669 0.082385
v 0.043828 -0.193994 0.082532
v 0.040668 -0.195566 0.081047
v 0.040307 -0.197623 0.079594
v 0.042567 -0.197533 0.079804
v 0.038308 -0.196855 0.078333
v 0.038569 -0.198647 0.076533
v 0.040594 -0.19861 0.077535
v 0.048104 -0.194874 0.081066
v 0.049524 -0.193196 0.081684
v 0.047291 -0.192385 0.082557
v 0.037095 -0.19767 0.074791
v 0.038029 -0.199153 0.072942
v 0.03958 -0.199291 0.074575
v 0.037221 -0.197883 0.070978
v 0.038805 -0.199048 0.06936
v 0.039685 -0.19947 0.071387
v 0.038666 -0.197463 0.067455
v 0.040743 -0.198365 0.066325
v 0.040893 -0.199119 0.068442
v 0.041203 -0.196476 0.064776
v 0.043578 -0.197192 0.06432
v 0.043014 -0.198294 0.066203
v 0.044459 -0.195068 0.063336
v 0.046859 -0.195719 0.063619
v 0.045736 -0.197116 0.064999
v 0.047922 -0.193458 0.06336
v 0.050093 -0.194164 0.064366
v 0.048631 -0.195771 0.065019
v 0.051082 -0.191886 0.064846
v 0.052795 -0.192765 0.06641
v 0.051272 -0.194457 0.066261
v 0.053442 -0.190597 0.067559
v 0.054533 -0.191741 0.069471
v 0.053245 -0.193379 0.068529
v 0.054655 -0.189782 0.071101
v 0.055073 -0.191235 0.073062
v 0.054259 -0.192698 0.07149
v 0.05453 -0.189569 0.074914
v 0.054297 -0.19134 0.076644
v 0.054154 -0.19252 0.074677
v 0.053085 -0.189989 0.078437
v 0.052359 -0.192023 0.079679
v 0.052947 -0.192871 0.077622
v 0.050547 -0.190976 0.081116
v 0.050825 -0.193696 0.079862
v 0.038139 -0.193874 0.079843
v 0.041003 -0.19239 0.082009
v 0.044431 -0.190743 0.082801
v 0.035724 -0.195496 0.07279
v 0.036296 -0.19496 0.076598
v 0.038601 -0.19466 0.065775
v 0.036546 -0.195385 0.068993
v 0.045085 -0.191855 0.062907
v 0.041606 -0.193417 0.06365
v 0.051377 -0.188724 0.065865
v 0.048513 -0.190208 0.063699
v 0.053792 -0.187101 0.072918
v 0.05322 -0.187638 0.069111
v 0.050915 -0.187937 0.079933
v 0.05297 -0.187213 0.076715
v 0.047909 -0.189181 0.082058
v 0.043593 -0.197964 0.076845
v 0.045146 -0.19716 0.078022
v 0.047006 -0.196266 0.07845
v 0.042592 -0.198554 0.075085
v 0.042283 -0.198844 0.07302
v 0.042728 -0.198785 0.070959
v 0.043843 -0.198391 0.069214
v 0.045473 -0.197717 0.06806
v 0.047361 -0.196869 0.067658
v 0.049221 -0.195975 0.068086
v 0.050774 -0.195171 0.069263
v 0.051775 -0.194581 0.071023
v 0.052084 -0.19429 0.073089
v 0.051639 -0.19435 0.075149
v 0.050523 -0.194744 0.076894
v 0.048893 -0.195418 0.078048
v 0.044587 -0.195449 0.082198
v 0.041555 -0.196958 0.080773
v 0.039291 -0.198194 0.07817
v 0.047909 -0.193906 0.082222
v 0.038127 -0.198976 0.074772
v 0.038248 -0.19918 0.071114
v 0.039634 -0.198778 0.067734
v 0.042068 -0.197831 0.065164
v 0.045192 -0.196479 0.063782
v 0.048514 -0.194935 0.063805
v 0.051546 -0.193427 0.065231
v 0.05381 -0.192191 0.067834
v 0.054973 -0.191409 0.071232
v 0.054853 -0.191205 0.07489
v 0.053467 -0.191607 0.07827
v 0.051033 -0.192554 0.08084
v 0.039468 -0.193168 0.081083
v 0.042678 -0.191571 0.082592
v 0.035839 -0.195305 0.074729
v 0.037071 -0.194477 0.078326
v 0.037434 -0.195095 0.067276
v 0.035966 -0.195522 0.070855
v 0.043319 -0.192662 0.063091
v 0.040012 -0.194093 0.064555
v 0.050047 -0.189429 0.064625
v 0.046837 -0.191027 0.063116
v 0.053677 -0.187293 0.07098
v 0.052445 -0.188121 0.067382
v 0.052082 -0.187503 0.078432
v 0.05355 -0.187076 0.074853
v 0.046196 -0.189936 0.082617
v 0.049504 -0.188505 0.081154
v 0.043853 -0.197621 0.078155
v 0.045844 -0.19663 0.079091
v 0.041602 -0.198946 0.074213
v 0.042366 -0.198433 0.076445
v 0.042591 -0.198816 0.06959
v 0.041681 -0.199081 0.07181
v 0.046242 -0.197307 0.066994
v 0.04419 -0.198194 0.067902
v 0.050416 -0.195302 0.067946
v 0.048425 -0.196292 0.067009
v 0.052667 -0.193976 0.071887
v 0.051903 -0.194489 0.069656
v 0.051678 -0.194106 0.07651
v 0.052588 -0.193842 0.07429
v 0.048027 -0.195616 0.079106
v 0.050079 -0.194728 0.078198
vt 0.171812 0.089118
vt 0.175903 0.089172
vt 0.175529 0.090552
vt 0.17244 0.087851
vt 0.176158 0.088252
vt 0.175903 0.089172
vt 0.176158 0.088252
vt 0.179546 0.089831
vt 0.175903 0.089172
vt 0.175529 0.090552
vt 0.179546 0.089831
vt 0.179451 0.091235
vt 0.17244 0.087851
vt 0.169897 0.085105
vt 0.172727 0.087277
vt 0.171812 0.089118
vt 0.169313 0.085859
vt 0.17244 0.087851
vt 0.168441 0.086993
vt 0.16661 0.083329
vt 0.169313 0.085859
vt 0.169897 0.085105
vt 0.16661 0.083329
vt 0.167067 0.082933
vt 0.16661 0.083329
vt 0.165331 0.079817
vt 0.167067 0.082933
vt 0.16661 0.083329
vt 0.16326 0.080999
vt 0.1645 0.080288
vt 0.1645 0.080288
vt 0.161645 0.077357
vt 0.162984 0.076905
vt 0.165331 0.079817
vt 0.162984 0.076905
vt 0.163594 0.076702
vt 0.179546 0.089831
vt 0.183431 0.091127
vt 0.179451 0.091235
vt 0.179546 0.089831
vt 0.183126 0.088762
vt 0.183246 0.089708
vt 0.183126 0.088762
vt 0.186866 0.088906
vt 0.183246 0.089708
vt 0.183246 0.089708
vt 0.187318 0.090246
vt 0.183431 0.091127
vt 0.162984 0.076905
vt 0.163129 0.073165
vt 0.163594 0.076702
vt 0.161645 0.077357
vt 0.162182 0.073286
vt 0.162984 0.076905
vt 0.160764 0.07347
vt 0.16206 0.069585
vt 0.162182 0.073286
vt 0.163129 0.073165
vt 0.16206 0.069585
vt 0.162663 0.069628
vt 0.16206 0.069585
vt 0.163639 0.066198
vt 0.162663 0.069628
vt 0.16206 0.069585
vt 0.161339 0.065569
vt 0.162719 0.065943
vt 0.162719 0.065943
vt 0.162772 0.061851
vt 0.164039 0.062479
vt 0.163639 0.066198
vt 0.164039 0.062479
vt 0.164614 0.062767
vt 0.164039 0.062479
vt 0.166786 0.059937
vt 0.164614 0.062767
vt 0.162772 0.061851
vt 0.166031 0.059352
vt 0.164039 0.062479
vt 0.164898 0.05848
vt 0.168561 0.056649
vt 0.166031 0.059352
vt 0.166786 0.059937
vt 0.168561 0.056649
vt 0.168958 0.057107
vt 0.168561 0.056649
vt 0.172073 0.05537
vt 0.168958 0.057107
vt 0.168561 0.056649
vt 0.170891 0.053299
vt 0.171603 0.05454
vt 0.171603 0.05454
vt 0.174534 0.051684
vt 0.174986 0.053024
vt 0.172073 0.05537
vt 0.174986 0.053024
vt 0.175189 0.053634
vt 0.174986 0.053024
vt 0.178725 0.053168
vt 0.175189 0.053634
vt 0.174534 0.051684
vt 0.178605 0.052222
vt 0.174986 0.053024
vt 0.17842 0.050804
vt 0.182305 0.052099
vt 0.178605 0.052222
vt 0.178725 0.053168
vt 0.182305 0.052099
vt 0.182262 0.052703
vt 0.182305 0.052099
vt 0.185693 0.053678
vt 0.182262 0.052703
vt 0.182305 0.052099
vt 0.186322 0.051378
vt 0.185948 0.052758
vt 0.185948 0.052758
vt 0.190039 0.052812
vt 0.189411 0.054079
vt 0.185693 0.053678
vt 0.189411 0.054079
vt 0.189123 0.054653
vt 0.189411 0.054079
vt 0.191954 0.056825
vt 0.189123 0.054653
vt 0.190039 0.052812
vt 0.192538 0.05607
vt 0.189411 0.054079
vt 0.19341 0.054937
vt 0.195241 0.0586
vt 0.192538 0.05607
vt 0.191954 0.056825
vt 0.195241 0.0586
vt 0.194784 0.058997
vt 0.195241 0.0586
vt 0.19652 0.062112
vt 0.194784 0.058997
vt 0.195241 0.0586
vt 0.198591 0.06093
vt 0.197351 0.061642
vt 0.197351 0.061642
vt 0.200206 0.064573
vt 0.198867 0.065025
vt 0.19652 0.062112
vt 0.198867 0.065025
vt 0.198257 0.065228
vt 0.198867 0.065025
vt 0.198722 0.068764
vt 0.198257 0.065228
vt 0.200206 0.064573
vt 0.199669 0.068644
vt 0.198867 0.065025
vt 0.201087 0.068459
vt 0.199791 0.072344
vt 0.199669 0.068644
vt 0.198722 0.068764
vt 0.199791 0.072344
vt 0.199188 0.072301
vt 0.199791 0.072344
vt 0.198213 0.075732
vt 0.199188 0.072301
vt 0.199791 0.072344
vt 0.200513 0.076361
vt 0.199132 0.075987
vt 0.199132 0.075987
vt 0.199079 0.080079
vt 0.197812 0.079451
vt 0.198213 0.075732
vt 0.197812 0.079451
vt 0.197237 0.079163
vt 0.197812 0.079451
vt 0.195066 0.081993
vt 0.197237 0.079163
vt 0.199079 0.080079
vt 0.19582 0.082578
vt 0.197812 0.079451
vt 0.196954 0.08345
vt 0.19329 0.085281
vt 0.19582 0.082578
vt 0.195066 0.081993
vt 0.19329 0.085281
vt 0.192894 0.084824
vt 0.19329 0.085281
vt 0.189778 0.08656
vt 0.192894 0.084824
vt 0.19329 0.085281
vt 0.19096 0.088631
vt 0.190249 0.08739
vt 0.190249 0.08739
vt 0.187318 0.090246
vt 0.186866 0.088906
vt 0.189778 0.08656
vt 0.186866 0.088906
vt 0.186663 0.088296
vt 0.169481 0.093853
vt 0.16714 0.088695
vt 0.170854 0.091066
vt 0.165532 0.0908
vt 0.163922 0.085688
vt 0.16714 0.088695
vt 0.16714 0.088695
vt 0.16555 0.084255
vt 0.168441 0.086993
vt 0.170854 0.091066
vt 0.168441 0.086993
vt 0.171812 0.089118
vt 0.174298 0.095181
vt 0.179313 0.093399
vt 0.179115 0.096508
vt 0.169481 0.093853
vt 0.174978 0.092622
vt 0.174298 0.095181
vt 0.170854 0.091066
vt 0.175529 0.090552
vt 0.174978 0.092622
vt 0.174978 0.092622
vt 0.179451 0.091235
vt 0.179313 0.093399
vt 0.156649 0.079057
vt 0.158641 0.073754
vt 0.15959 0.078057
vt 0.156016 0.074106
vt 0.158491 0.069352
vt 0.158641 0.073754
vt 0.158641 0.073754
vt 0.160656 0.069491
vt 0.160764 0.07347
vt 0.15959 0.078057
vt 0.160764 0.07347
vt 0.161645 0.077357
vt 0.159116 0.083402
vt 0.163922 0.085688
vt 0.161583 0.087746
vt 0.156649 0.079057
vt 0.161406 0.082072
vt 0.159116 0.083402
vt 0.15959 0.078057
vt 0.16326 0.080999
vt 0.161406 0.082072
vt 0.161406 0.082072
vt 0.16555 0.084255
vt 0.163922 0.085688
vt 0.158038 0.059521
vt 0.163196 0.057179
vt 0.160825 0.060893
vt 0.161091 0.055572
vt 0.166202 0.053961
vt 0.163196 0.057179
vt 0.163196 0.057179
vt 0.167635 0.05559
vt 0.164898 0.05848
vt 0.160825 0.060893
vt 0.164898 0.05848
vt 0.162772 0.061851
vt 0.15671 0.064337
vt 0.158491 0.069352
vt 0.155382 0.069154
vt 0.158038 0.059521
vt 0.159269 0.065017
vt 0.15671 0.064337
vt 0.160825 0.060893
vt 0.161339 0.065569
vt 0.159269 0.065017
vt 0.159269 0.065017
vt 0.160656 0.069491
vt 0.158491 0.069352
vt 0.172833 0.046689
vt 0.178137 0.04868
vt 0.173834 0.04963
vt 0.177785 0.046055
vt 0.182538 0.048531
vt 0.178137 0.04868
vt 0.178137 0.04868
vt 0.1824 0.050696
vt 0.17842 0.050804
vt 0.173834 0.04963
vt 0.17842 0.050804
vt 0.174534 0.051684
vt 0.168489 0.049156
vt 0.166202 0.053961
vt 0.164144 0.051623
vt 0.172833 0.046689
vt 0.169818 0.051446
vt 0.168489 0.049156
vt 0.173834 0.04963
vt 0.170891 0.053299
vt 0.169818 0.051446
vt 0.169818 0.051446
vt 0.167635 0.05559
vt 0.166202 0.053961
vt 0.192369 0.048077
vt 0.194711 0.053235
vt 0.190997 0.050864
vt 0.196319 0.05113
vt 0.197929 0.056242
vt 0.194711 0.053235
vt 0.194711 0.053235
vt 0.196301 0.057675
vt 0.19341 0.054937
vt 0.190997 0.050864
vt 0.19341 0.054937
vt 0.190039 0.052812
vt 0.187553 0.046749
vt 0.182538 0.048531
vt 0.182736 0.045422
vt 0.192369 0.048077
vt 0.186873 0.049309
vt 0.187553 0.046749
vt 0.190997 0.050864
vt 0.186322 0.051378
vt 0.186873 0.049309
vt 0.186873 0.049309
vt 0.1824 0.050696
vt 0.182538 0.048531
vt 0.205202 0.062872
vt 0.20321 0.068176
vt 0.202261 0.063873
vt 0.205835 0.067824
vt 0.20336 0.072577
vt 0.20321 0.068176
vt 0.20321 0.068176
vt 0.201195 0.072439
vt 0.201087 0.068459
vt 0.202261 0.063873
vt 0.201087 0.068459
vt 0.200206 0.064573
vt 0.202735 0.058528
vt 0.197929 0.056242
vt 0.200268 0.054183
vt 0.205202 0.062872
vt 0.200445 0.059857
vt 0.202735 0.058528
vt 0.202261 0.063873
vt 0.198591 0.06093
vt 0.200445 0.059857
vt 0.200445 0.059857
vt 0.196301 0.057675
vt 0.197929 0.056242
vt 0.203814 0.082409
vt 0.198656 0.084751
vt 0.201027 0.081037
vt 0.200761 0.086358
vt 0.195649 0.087969
vt 0.198656 0.084751
vt 0.198656 0.084751
vt 0.194216 0.08634
vt 0.196954 0.08345
vt 0.201027 0.081037
vt 0.196954 0.08345
vt 0.199079 0.080079
vt 0.205141 0.077592
vt 0.20336 0.072577
vt 0.206469 0.072776
vt 0.203814 0.082409
vt 0.202582 0.076913
vt 0.205141 0.077592
vt 0.201027 0.081037
vt 0.200513 0.076361
vt 0.202582 0.076913
vt 0.202582 0.076913
vt 0.201195 0.072439
vt 0.20336 0.072577
vt 0.189018 0.095241
vt 0.183714 0.09325
vt 0.188018 0.0923
vt 0.184066 0.095875
vt 0.179313 0.093399
vt 0.183714 0.09325
vt 0.183714 0.09325
vt 0.179451 0.091235
vt 0.183431 0.091127
vt 0.188018 0.0923
vt 0.183431 0.091127
vt 0.187318 0.090246
vt 0.193363 0.092774
vt 0.195649 0.087969
vt 0.197707 0.090307
vt 0.189018 0.095241
vt 0.192033 0.090484
vt 0.193363 0.092774
vt 0.188018 0.0923
vt 0.19096 0.088631
vt 0.192033 0.090484
vt 0.192033 0.090484
vt 0.194216 0.08634
vt 0.195649 0.087969
vt 0.254826 0.222048
vt 0.269381 0.218969
vt 0.261854 0.229118
vt 0.277928 0.218471
vt 0.267364 0.210678
vt 0.292298 0.188066
vt 0.270707 0.233751
vt 0.269381 0.218969
vt 0.277928 0.218471
vt 0.290656 0.221686
vt 0.277928 0.218471
vt 0.292298 0.188066
vt 0.289831 0.238592
vt 0.28297 0.225392
vt 0.290656 0.221686
vt 0.270707 0.233751
vt 0.28297 0.225392
vt 0.279907 0.23765
vt 0.260637 0.199405
vt 0.258678 0.186424
vt 0.292298 0.188066
vt 0.244726 0.205103
vt 0.254241 0.193713
vt 0.260637 0.199405
vt 0.241772 0.185598
vt 0.254241 0.193713
vt 0.241742 0.195567
vt 0.267364 0.210678
vt 0.260637 0.199405
vt 0.292298 0.188066
vt 0.254826 0.222048
vt 0.259308 0.207863
vt 0.267364 0.210678
vt 0.244726 0.205103
vt 0.259308 0.207863
vt 0.248475 0.214365
vt 0.261892 0.173696
vt 0.269686 0.163132
vt 0.292298 0.188066
vt 0.246613 0.166475
vt 0.261394 0.165148
vt 0.261892 0.173696
vt 0.258315 0.150594
vt 0.261394 0.165148
vt 0.251246 0.157621
vt 0.258678 0.186424
vt 0.261892 0.173696
vt 0.292298 0.188066
vt 0.241772 0.185598
vt 0.254972 0.178738
vt 0.258678 0.186424
vt 0.246613 0.166475
vt 0.254972 0.178738
vt 0.242714 0.175675
vt 0.280959 0.156405
vt 0.29394 0.154446
vt 0.292298 0.188066
vt 0.275261 0.140494
vt 0.286651 0.150008
vt 0.280959 0.156405
vt 0.294765 0.13754
vt 0.286651 0.150008
vt 0.284797 0.13751
vt 0.269686 0.163132
vt 0.280959 0.156405
vt 0.292298 0.188066
vt 0.258315 0.150594
vt 0.2725 0.155076
vt 0.269686 0.163132
vt 0.275261 0.140494
vt 0.2725 0.155076
vt 0.265998 0.144243
vt 0.306668 0.15766
vt 0.317232 0.165454
vt 0.292298 0.188066
vt 0.313889 0.14238
vt 0.315215 0.157162
vt 0.306668 0.15766
vt 0.32977 0.154083
vt 0.315215 0.157162
vt 0.322742 0.147013
vt 0.29394 0.154446
vt 0.306668 0.15766
vt 0.292298 0.188066
vt 0.294765 0.13754
vt 0.301626 0.15074
vt 0.29394 0.154446
vt 0.313889 0.14238
vt 0.301626 0.15074
vt 0.304689 0.138481
vt 0.323959 0.176727
vt 0.325918 0.189707
vt 0.292298 0.188066
vt 0.33987 0.171028
vt 0.330355 0.182418
vt 0.323959 0.176727
vt 0.342824 0.190533
vt 0.330355 0.182418
vt 0.342854 0.180565
vt 0.317232 0.165454
vt 0.323959 0.176727
vt 0.292298 0.188066
vt 0.32977 0.154083
vt 0.325288 0.168268
vt 0.317232 0.165454
vt 0.33987 0.171028
vt 0.325288 0.168268
vt 0.336121 0.161766
vt 0.322704 0.202436
vt 0.31491 0.212999
vt 0.292298 0.188066
vt 0.337983 0.209657
vt 0.323202 0.210983
vt 0.322704 0.202436
vt 0.326281 0.225538
vt 0.323202 0.210983
vt 0.33335 0.21851
vt 0.325918 0.189707
vt 0.322704 0.202436
vt 0.292298 0.188066
vt 0.342824 0.190533
vt 0.329624 0.197394
vt 0.325918 0.189707
vt 0.337983 0.209657
vt 0.329624 0.197394
vt 0.341882 0.200457
vt 0.303637 0.219727
vt 0.290656 0.221686
vt 0.292298 0.188066
vt 0.309335 0.235637
vt 0.297945 0.226123
vt 0.303637 0.219727
vt 0.289831 0.238592
vt 0.297945 0.226123
vt 0.299799 0.238621
vt 0.31491 0.212999
vt 0.303637 0.219727
vt 0.292298 0.188066
vt 0.326281 0.225538
vt 0.312096 0.221055
vt 0.31491 0.212999
vt 0.309335 0.235637
vt 0.312096 0.221055
vt 0.318598 0.231889
vt 0.171812 0.089118
vt 0.17244 0.087851
vt 0.175903 0.089172
vt 0.17244 0.087851
vt 0.172727 0.087277
vt 0.176158 0.088252
vt 0.176158 0.088252
vt 0.179589 0.089227
vt 0.179546 0.089831
vt 0.175529 0.090552
vt 0.175903 0.089172
vt 0.179546 0.089831
vt 0.17244 0.087851
vt 0.169313 0.085859
vt 0.169897 0.085105
vt 0.171812 0.089118
vt 0.168441 0.086993
vt 0.169313 0.085859
vt 0.168441 0.086993
vt 0.16555 0.084255
vt 0.16661 0.083329
vt 0.169897 0.085105
vt 0.169313 0.085859
vt 0.16661 0.083329
vt 0.16661 0.083329
vt 0.1645 0.080288
vt 0.165331 0.079817
vt 0.16661 0.083329
vt 0.16555 0.084255
vt 0.16326 0.080999
vt 0.1645 0.080288
vt 0.16326 0.080999
vt 0.161645 0.077357
vt 0.165331 0.079817
vt 0.1645 0.080288
vt 0.162984 0.076905
vt 0.179546 0.089831
vt 0.183246 0.089708
vt 0.183431 0.091127
vt 0.179546 0.089831
vt 0.179589 0.089227
vt 0.183126 0.088762
vt 0.183126 0.088762
vt 0.186663 0.088296
vt 0.186866 0.088906
vt 0.183246 0.089708
vt 0.186866 0.088906
vt 0.187318 0.090246
vt 0.162984 0.076905
vt 0.162182 0.073286
vt 0.163129 0.073165
vt 0.161645 0.077357
vt 0.160764 0.07347
vt 0.162182 0.073286
vt 0.160764 0.07347
vt 0.160656 0.069491
vt 0.16206 0.069585
vt 0.163129 0.073165
vt 0.162182 0.073286
vt 0.16206 0.069585
vt 0.16206 0.069585
vt 0.162719 0.065943
vt 0.163639 0.066198
vt 0.16206 0.069585
vt 0.160656 0.069491
vt 0.161339 0.065569
vt 0.162719 0.065943
vt 0.161339 0.065569
vt 0.162772 0.061851
vt 0.163639 0.066198
vt 0.162719 0.065943
vt 0.164039 0.062479
vt 0.164039 0.062479
vt 0.166031 0.059352
vt 0.166786 0.059937
vt 0.162772 0.061851
vt 0.164898 0.05848
vt 0.166031 0.059352
vt 0.164898 0.05848
vt 0.167635 0.05559
vt 0.168561 0.056649
vt 0.166786 0.059937
vt 0.166031 0.059352
vt 0.168561 0.056649
vt 0.168561 0.056649
vt 0.171603 0.05454
vt 0.172073 0.05537
vt 0.168561 0.056649
vt 0.167635 0.05559
vt 0.170891 0.053299
vt 0.171603 0.05454
vt 0.170891 0.053299
vt 0.174534 0.051684
vt 0.172073 0.05537
vt 0.171603 0.05454
vt 0.174986 0.053024
vt 0.174986 0.053024
vt 0.178605 0.052222
vt 0.178725 0.053168
vt 0.174534 0.051684
vt 0.17842 0.050804
vt 0.178605 0.052222
vt 0.17842 0.050804
vt 0.1824 0.050696
vt 0.182305 0.052099
vt 0.178725 0.053168
vt 0.178605 0.052222
vt 0.182305 0.052099
vt 0.182305 0.052099
vt 0.185948 0.052758
vt 0.185693 0.053678
vt 0.182305 0.052099
vt 0.1824 0.050696
vt 0.186322 0.051378
vt 0.185948 0.052758
vt 0.186322 0.051378
vt 0.190039 0.052812
vt 0.185693 0.053678
vt 0.185948 0.052758
vt 0.189411 0.054079
vt 0.189411 0.054079
vt 0.192538 0.05607
vt 0.191954 0.056825
vt 0.190039 0.052812
vt 0.19341 0.054937
vt 0.192538 0.05607
vt 0.19341 0.054937
vt 0.196301 0.057675
vt 0.195241 0.0586
vt 0.191954 0.056825
vt 0.192538 0.05607
vt 0.195241 0.0586
vt 0.195241 0.0586
vt 0.197351 0.061642
vt 0.19652 0.062112
vt 0.195241 0.0586
vt 0.196301 0.057675
vt 0.198591 0.06093
vt 0.197351 0.061642
vt 0.198591 0.06093
vt 0.200206 0.064573
vt 0.19652 0.062112
vt 0.197351 0.061642
vt 0.198867 0.065025
vt 0.198867 0.065025
vt 0.199669 0.068644
vt 0.198722 0.068764
vt 0.200206 0.064573
vt 0.201087 0.068459
vt 0.199669 0.068644
vt 0.201087 0.068459
vt 0.201195 0.072439
vt 0.199791 0.072344
vt 0.198722 0.068764
vt 0.199669 0.068644
vt 0.199791 0.072344
vt 0.199791 0.072344
vt 0.199132 0.075987
vt 0.198213 0.075732
vt 0.199791 0.072344
vt 0.201195 0.072439
vt 0.200513 0.076361
vt 0.199132 0.075987
vt 0.200513 0.076361
vt 0.199079 0.080079
vt 0.198213 0.075732
vt 0.199132 0.075987
vt 0.197812 0.079451
vt 0.197812 0.079451
vt 0.19582 0.082578
vt 0.195066 0.081993
vt 0.199079 0.080079
vt 0.196954 0.08345
vt 0.19582 0.082578
vt 0.196954 0.08345
vt 0.194216 0.08634
vt 0.19329 0.085281
vt 0.195066 0.081993
vt 0.19582 0.082578
vt 0.19329 0.085281
vt 0.19329 0.085281
vt 0.190249 0.08739
vt 0.189778 0.08656
vt 0.19329 0.085281
vt 0.194216 0.08634
vt 0.19096 0.088631
vt 0.190249 0.08739
vt 0.19096 0.088631
vt 0.187318 0.090246
vt 0.189778 0.08656
vt 0.190249 0.08739
vt 0.186866 0.088906
vt 0.169481 0.093853
vt 0.165532 0.0908
vt 0.16714 0.088695
vt 0.165532 0.0908
vt 0.161583 0.087746
vt 0.163922 0.085688
vt 0.16714 0.088695
vt 0.163922 0.085688
vt 0.16555 0.084255
vt 0.170854 0.091066
vt 0.16714 0.088695
vt 0.168441 0.086993
vt 0.174298 0.095181
vt 0.174978 0.092622
vt 0.179313 0.093399
vt 0.169481 0.093853
vt 0.170854 0.091066
vt 0.174978 0.092622
vt 0.170854 0.091066
vt 0.171812 0.089118
vt 0.175529 0.090552
vt 0.174978 0.092622
vt 0.175529 0.090552
vt 0.179451 0.091235
vt 0.156649 0.079057
vt 0.156016 0.074106
vt 0.158641 0.073754
vt 0.156016 0.074106
vt 0.155382 0.069154
vt 0.158491 0.069352
vt 0.158641 0.073754
vt 0.158491 0.069352
vt 0.160656 0.069491
vt 0.15959 0.078057
vt 0.158641 0.073754
vt 0.160764 0.07347
vt 0.159116 0.083402
vt 0.161406 0.082072
vt 0.163922 0.085688
vt 0.156649 0.079057
vt 0.15959 0.078057
vt 0.161406 0.082072
vt 0.15959 0.078057
vt 0.161645 0.077357
vt 0.16326 0.080999
vt 0.161406 0.082072
vt 0.16326 0.080999
vt 0.16555 0.084255
vt 0.158038 0.059521
vt 0.161091 0.055572
vt 0.163196 0.057179
vt 0.161091 0.055572
vt 0.164144 0.051623
vt 0.166202 0.053961
vt 0.163196 0.057179
vt 0.166202 0.053961
vt 0.167635 0.05559
vt 0.160825 0.060893
vt 0.163196 0.057179
vt 0.164898 0.05848
vt 0.15671 0.064337
vt 0.159269 0.065017
vt 0.158491 0.069352
vt 0.158038 0.059521
vt 0.160825 0.060893
vt 0.159269 0.065017
vt 0.160825 0.060893
vt 0.162772 0.061851
vt 0.161339 0.065569
vt 0.159269 0.065017
vt 0.161339 0.065569
vt 0.160656 0.069491
vt 0.172833 0.046689
vt 0.177785 0.046055
vt 0.178137 0.04868
vt 0.177785 0.046055
vt 0.182736 0.045422
vt 0.182538 0.048531
vt 0.178137 0.04868
vt 0.182538 0.048531
vt 0.1824 0.050696
vt 0.173834 0.04963
vt 0.178137 0.04868
vt 0.17842 0.050804
vt 0.168489 0.049156
vt 0.169818 0.051446
vt 0.166202 0.053961
vt 0.172833 0.046689
vt 0.173834 0.04963
vt 0.169818 0.051446
vt 0.173834 0.04963
vt 0.174534 0.051684
vt 0.170891 0.053299
vt 0.169818 0.051446
vt 0.170891 0.053299
vt 0.167635 0.05559
vt 0.192369 0.048077
vt 0.196319 0.05113
vt 0.194711 0.053235
vt 0.196319 0.05113
vt 0.200268 0.054183
vt 0.197929 0.056242
vt 0.194711 0.053235
vt 0.197929 0.056242
vt 0.196301 0.057675
vt 0.190997 0.050864
vt 0.194711 0.053235
vt 0.19341 0.054937
vt 0.187553 0.046749
vt 0.186873 0.049309
vt 0.182538 0.048531
vt 0.192369 0.048077
vt 0.190997 0.050864
vt 0.186873 0.049309
vt 0.190997 0.050864
vt 0.190039 0.052812
vt 0.186322 0.051378
vt 0.186873 0.049309
vt 0.186322 0.051378
vt 0.1824 0.050696
vt 0.205202 0.062872
vt 0.205835 0.067824
vt 0.20321 0.068176
vt 0.205835 0.067824
vt 0.206469 0.072776
vt 0.20336 0.072577
vt 0.20321 0.068176
vt 0.20336 0.072577
vt 0.201195 0.072439
vt 0.202261 0.063873
vt 0.20321 0.068176
vt 0.201087 0.068459
vt 0.202735 0.058528
vt 0.200445 0.059857
vt 0.197929 0.056242
vt 0.205202 0.062872
vt 0.202261 0.063873
vt 0.200445 0.059857
vt 0.202261 0.063873
vt 0.200206 0.064573
vt 0.198591 0.06093
vt 0.200445 0.059857
vt 0.198591 0.06093
vt 0.196301 0.057675
vt 0.203814 0.082409
vt 0.200761 0.086358
vt 0.198656 0.084751
vt 0.200761 0.086358
vt 0.197707 0.090307
vt 0.195649 0.087969
vt 0.198656 0.084751
vt 0.195649 0.087969
vt 0.194216 0.08634
vt 0.201027 0.081037
vt 0.198656 0.084751
vt 0.196954 0.08345
vt 0.205141 0.077592
vt 0.202582 0.076913
vt 0.20336 0.072577
vt 0.203814 0.082409
vt 0.201027 0.081037
vt 0.202582 0.076913
vt 0.201027 0.081037
vt 0.199079 0.080079
vt 0.200513 0.076361
vt 0.202582 0.076913
vt 0.200513 0.076361
vt 0.201195 0.072439
vt 0.189018 0.095241
vt 0.184066 0.095875
vt 0.183714 0.09325
vt 0.184066 0.095875
vt 0.179115 0.096508
vt 0.179313 0.093399
vt 0.183714 0.09325
vt 0.179313 0.093399
vt 0.179451 0.091235
vt 0.188018 0.0923
vt 0.183714 0.09325
vt 0.183431 0.091127
vt 0.193363 0.092774
vt 0.192033 0.090484
vt 0.195649 0.087969
vt 0.189018 0.095241
vt 0.188018 0.0923
vt 0.192033 0.090484
vt 0.188018 0.0923
vt 0.187318 0.090246
vt 0.19096 0.088631
vt 0.192033 0.090484
vt 0.19096 0.088631
vt 0.194216 0.08634
vt 0.254826 0.222048
vt 0.267364 0.210678
vt 0.269381 0.218969
vt 0.277928 0.218471
vt 0.269381 0.218969
vt 0.267364 0.210678
vt 0.270707 0.233751
vt 0.261854 0.229118
vt 0.269381 0.218969
vt 0.290656 0.221686
vt 0.28297 0.225392
vt 0.277928 0.218471
vt 0.289831 0.238592
vt 0.279907 0.23765
vt 0.28297 0.225392
vt 0.270707 0.233751
vt 0.277928 0.218471
vt 0.28297 0.225392
vt 0.260637 0.199405
vt 0.254241 0.193713
vt 0.258678 0.186424
vt 0.244726 0.205103
vt 0.241742 0.195567
vt 0.254241 0.193713
vt 0.241772 0.185598
vt 0.258678 0.186424
vt 0.254241 0.193713
vt 0.267364 0.210678
vt 0.259308 0.207863
vt 0.260637 0.199405
vt 0.254826 0.222048
vt 0.248475 0.214365
vt 0.259308 0.207863
vt 0.244726 0.205103
vt 0.260637 0.199405
vt 0.259308 0.207863
vt 0.261892 0.173696
vt 0.261394 0.165148
vt 0.269686 0.163132
vt 0.246613 0.166475
vt 0.251246 0.157621
vt 0.261394 0.165148
vt 0.258315 0.150594
vt 0.269686 0.163132
vt 0.261394 0.165148
vt 0.258678 0.186424
vt 0.254972 0.178738
vt 0.261892 0.173696
vt 0.241772 0.185598
vt 0.242714 0.175675
vt 0.254972 0.178738
vt 0.246613 0.166475
vt 0.261892 0.173696
vt 0.254972 0.178738
vt 0.280959 0.156405
vt 0.286651 0.150008
vt 0.29394 0.154446
vt 0.275261 0.140494
vt 0.284797 0.13751
vt 0.286651 0.150008
vt 0.294765 0.13754
vt 0.29394 0.154446
vt 0.286651 0.150008
vt 0.269686 0.163132
vt 0.2725 0.155076
vt 0.280959 0.156405
vt 0.258315 0.150594
vt 0.265998 0.144243
vt 0.2725 0.155076
vt 0.275261 0.140494
vt 0.280959 0.156405
vt 0.2725 0.155076
vt 0.306668 0.15766
vt 0.315215 0.157162
vt 0.317232 0.165454
vt 0.313889 0.14238
vt 0.322742 0.147013
vt 0.315215 0.157162
vt 0.32977 0.154083
vt 0.317232 0.165454
vt 0.315215 0.157162
vt 0.29394 0.154446
vt 0.301626 0.15074
vt 0.306668 0.15766
vt 0.294765 0.13754
vt 0.304689 0.138481
vt 0.301626 0.15074
vt 0.313889 0.14238
vt 0.306668 0.15766
vt 0.301626 0.15074
vt 0.323959 0.176727
vt 0.330355 0.182418
vt 0.325918 0.189707
vt 0.33987 0.171028
vt 0.342854 0.180565
vt 0.330355 0.182418
vt 0.342824 0.190533
vt 0.325918 0.189707
vt 0.330355 0.182418
vt 0.317232 0.165454
vt 0.325288 0.168268
vt 0.323959 0.176727
vt 0.32977 0.154083
vt 0.336121 0.161766
vt 0.325288 0.168268
vt 0.33987 0.171028
vt 0.323959 0.176727
vt 0.325288 0.168268
vt 0.322704 0.202436
vt 0.323202 0.210983
vt 0.31491 0.212999
vt 0.337983 0.209657
vt 0.33335 0.21851
vt 0.323202 0.210983
vt 0.326281 0.225538
vt 0.31491 0.212999
vt 0.323202 0.210983
vt 0.325918 0.189707
vt 0.329624 0.197394
vt 0.322704 0.202436
vt 0.342824 0.190533
vt 0.341882 0.200457
vt 0.329624 0.197394
vt 0.337983 0.209657
vt 0.322704 0.202436
vt 0.329624 0.197394
vt 0.303637 0.219727
vt 0.297945 0.226123
vt 0.290656 0.221686
vt 0.309335 0.235637
vt 0.299799 0.238621
vt 0.297945 0.226123
vt 0.289831 0.238592
vt 0.290656 0.221686
vt 0.297945 0.226123
vt 0.31491 0.212999
vt 0.312096 0.221055
vt 0.303637 0.219727
vt 0.326281 0.225538
vt 0.318598 0.231889
vt 0.312096 0.221055
vt 0.309335 0.235637
vt 0.303637 0.219727
vt 0.312096 0.221055
f 18/1 146/2 69/3
f 66/4 67/5 146/6
f 67/7 68/8 146/9
f 69/10 68/11 22/12
f 66/13 72/14 19/15
f 18/16 147/17 66/18
f 70/19 71/20 147/21
f 72/22 71/23 20/24
f 71/25 75/26 20/27
f 71/28 73/29 148/30
f 148/31 24/32 74/33
f 75/34 74/35 25/36
f 68/37 78/38 22/39
f 68/40 76/41 149/42
f 76/43 77/44 149/45
f 149/46 48/47 78/48
f 74/49 81/50 25/51
f 24/52 150/53 74/54
f 79/55 80/56 150/57
f 81/58 80/59 26/60
f 80/61 84/62 26/63
f 80/64 82/65 151/66
f 151/67 28/68 83/69
f 84/70 83/71 29/72
f 83/73 87/74 29/75
f 28/76 152/77 83/78
f 85/79 86/80 152/81
f 87/82 86/83 30/84
f 86/85 90/86 30/87
f 86/88 88/89 153/90
f 153/91 32/92 89/93
f 90/94 89/95 33/96
f 89/97 93/98 33/99
f 32/100 154/101 89/102
f 91/103 92/104 154/105
f 93/106 92/107 34/108
f 92/109 96/110 34/111
f 92/112 94/113 155/114
f 155/115 36/116 95/117
f 96/118 95/119 37/120
f 95/121 99/122 37/123
f 36/124 156/125 95/126
f 97/127 98/128 156/129
f 99/130 98/131 38/132
f 98/133 102/134 38/135
f 98/136 100/137 157/138
f 157/139 40/140 101/141
f 102/142 101/143 41/144
f 101/145 105/146 41/147
f 40/148 158/149 101/150
f 103/151 104/152 158/153
f 105/154 104/155 42/156
f 104/157 108/158 42/159
f 104/160 106/161 159/162
f 159/163 44/164 107/165
f 108/166 107/167 45/168
f 107/169 111/170 45/171
f 44/172 160/173 107/174
f 109/175 110/176 160/177
f 111/178 110/179 46/180
f 110/181 113/182 46/183
f 110/184 112/185 161/186
f 161/187 48/188 77/189
f 113/190 77/191 49/192
f 10/193 162/194 115/195
f 50/196 114/197 162/198
f 162/199 21/200 70/201
f 115/202 70/203 18/204
f 51/205 116/206 1/207
f 10/208 163/209 51/210
f 115/211 69/212 163/213
f 163/214 22/215 116/216
f 11/217 164/218 118/219
f 52/220 117/221 164/222
f 164/223 27/224 79/225
f 118/226 79/227 24/228
f 53/229 114/230 2/231
f 11/232 165/233 53/234
f 118/235 73/236 165/237
f 165/238 21/239 114/240
f 12/241 166/242 120/243
f 54/244 119/245 166/246
f 166/247 31/248 85/249
f 120/250 85/251 28/252
f 55/253 117/254 3/255
f 12/256 167/257 55/258
f 120/259 82/260 167/261
f 167/262 27/263 117/264
f 13/265 168/266 122/267
f 56/268 121/269 168/270
f 168/271 35/272 91/273
f 122/274 91/275 32/276
f 57/277 119/278 4/279
f 13/280 169/281 57/282
f 122/283 88/284 169/285
f 169/286 31/287 119/288
f 14/289 170/290 124/291
f 58/292 123/293 170/294
f 170/295 39/296 97/297
f 124/298 97/299 36/300
f 59/301 121/302 5/303
f 14/304 171/305 59/306
f 124/307 94/308 171/309
f 171/310 35/311 121/312
f 15/313 172/314 126/315
f 60/316 125/317 172/318
f 172/319 43/320 103/321
f 126/322 103/323 40/324
f 61/325 123/326 6/327
f 15/328 173/329 61/330
f 126/331 100/332 173/333
f 173/334 39/335 123/336
f 16/337 174/338 128/339
f 62/340 127/341 174/342
f 174/343 47/344 109/345
f 128/346 109/347 44/348
f 63/349 125/350 7/351
f 16/352 175/353 63/354
f 128/355 106/356 175/357
f 175/358 43/359 125/360
f 17/361 176/362 129/363
f 64/364 116/365 176/366
f 176/367 22/368 78/369
f 129/370 78/371 48/372
f 65/373 127/374 8/375
f 17/376 177/377 65/378
f 129/379 112/380 177/381
f 177/382 47/383 127/384
f 20/385 178/386 72/387
f 131/388 130/389 9/390
f 19/391 178/392 131/393
f 132/394 131/395 9/396
f 23/397 179/398 132/399
f 19/400 179/401 67/402
f 133/403 134/404 9/405
f 25/406 180/407 133/408
f 26/409 180/410 81/411
f 130/412 133/413 9/414
f 20/415 181/416 130/417
f 25/418 181/419 75/420
f 135/421 136/422 9/423
f 29/424 182/425 135/426
f 30/427 182/428 87/429
f 134/430 135/431 9/432
f 26/433 183/434 134/435
f 29/436 183/437 84/438
f 137/439 138/440 9/441
f 33/442 184/443 137/444
f 34/445 184/446 93/447
f 136/448 137/449 9/450
f 30/451 185/452 136/453
f 33/454 185/455 90/456
f 139/457 140/458 9/459
f 37/460 186/461 139/462
f 38/463 186/464 99/465
f 138/466 139/467 9/468
f 34/469 187/470 138/471
f 37/472 187/473 96/474
f 141/475 142/476 9/477
f 41/478 188/479 141/480
f 42/481 188/482 105/483
f 140/484 141/485 9/486
f 38/487 189/488 140/489
f 41/490 189/491 102/492
f 143/493 144/494 9/495
f 45/496 190/497 143/498
f 46/499 190/500 111/501
f 142/502 143/503 9/504
f 42/505 191/506 142/507
f 45/508 191/509 108/510
f 145/511 132/512 9/513
f 49/514 192/515 145/516
f 23/517 192/518 76/519
f 144/520 145/521 9/522
f 46/523 193/524 144/525
f 49/526 193/527 113/528
f 18/529 66/530 146/531
f 66/532 19/533 67/534
f 67/535 23/536 68/537
f 69/538 146/539 68/540
f 66/541 147/542 72/543
f 18/544 70/545 147/546
f 70/547 21/548 71/549
f 72/550 147/551 71/552
f 71/553 148/554 75/555
f 71/556 21/557 73/558
f 148/559 73/560 24/561
f 75/562 148/563 74/564
f 68/565 149/566 78/567
f 68/568 23/569 76/570
f 76/571 49/572 77/573
f 149/574 77/575 48/576
f 74/577 150/578 81/579
f 24/580 79/581 150/582
f 79/583 27/584 80/585
f 81/586 150/587 80/588
f 80/589 151/590 84/591
f 80/592 27/593 82/594
f 151/595 82/596 28/597
f 84/598 151/599 83/600
f 83/601 152/602 87/603
f 28/604 85/605 152/606
f 85/607 31/608 86/609
f 87/610 152/611 86/612
f 86/613 153/614 90/615
f 86/616 31/617 88/618
f 153/619 88/620 32/621
f 90/622 153/623 89/624
f 89/625 154/626 93/627
f 32/628 91/629 154/630
f 91/631 35/632 92/633
f 93/634 154/635 92/636
f 92/637 155/638 96/639
f 92/640 35/641 94/642
f 155/643 94/644 36/645
f 96/646 155/647 95/648
f 95/649 156/650 99/651
f 36/652 97/653 156/654
f 97/655 39/656 98/657
f 99/658 156/659 98/660
f 98/661 157/662 102/663
f 98/664 39/665 100/666
f 157/667 100/668 40/669
f 102/670 157/671 101/672
f 101/673 158/674 105/675
f 40/676 103/677 158/678
f 103/679 43/680 104/681
f 105/682 158/683 104/684
f 104/685 159/686 108/687
f 104/688 43/689 106/690
f 159/691 106/692 44/693
f 108/694 159/695 107/696
f 107/697 160/698 111/699
f 44/700 109/701 160/702
f 109/703 47/704 110/705
f 111/706 160/707 110/708
f 110/709 161/710 113/711
f 110/712 47/713 112/714
f 161/715 112/716 48/717
f 113/718 161/719 77/720
f 10/721 50/722 162/723
f 50/724 2/725 114/726
f 162/727 114/728 21/729
f 115/730 162/731 70/732
f 51/733 163/734 116/735
f 10/736 115/737 163/738
f 115/739 18/740 69/741
f 163/742 69/743 22/744
f 11/745 52/746 164/747
f 52/748 3/749 117/750
f 164/751 117/752 27/753
f 118/754 164/755 79/756
f 53/757 165/758 114/759
f 11/760 118/761 165/762
f 118/763 24/764 73/765
f 165/766 73/767 21/768
f 12/769 54/770 166/771
f 54/772 4/773 119/774
f 166/775 119/776 31/777
f 120/778 166/779 85/780
f 55/781 167/782 117/783
f 12/784 120/785 167/786
f 120/787 28/788 82/789
f 167/790 82/791 27/792
f 13/793 56/794 168/795
f 56/796 5/797 121/798
f 168/799 121/800 35/801
f 122/802 168/803 91/804
f 57/805 169/806 119/807
f 13/808 122/809 169/810
f 122/811 32/812 88/813
f 169/814 88/815 31/816
f 14/817 58/818 170/819
f 58/820 6/821 123/822
f 170/823 123/824 39/825
f 124/826 170/827 97/828
f 59/829 171/830 121/831
f 14/832 124/833 171/834
f 124/835 36/836 94/837
f 171/838 94/839 35/840
f 15/841 60/842 172/843
f 60/844 7/845 125/846
f 172/847 125/848 43/849
f 126/850 172/851 103/852
f 61/853 173/854 123/855
f 15/856 126/857 173/858
f 126/859 40/860 100/861
f 173/862 100/863 39/864
f 16/865 62/866 174/867
f 62/868 8/869 127/870
f 174/871 127/872 47/873
f 128/874 174/875 109/876
f 63/877 175/878 125/879
f 16/880 128/881 175/882
f 128/883 44/884 106/885
f 175/886 106/887 43/888
f 17/889 64/890 176/891
f 64/892 1/893 116/894
f 176/895 116/896 22/897
f 129/898 176/899 78/900
f 65/901 177/902 127/903
f 17/904 129/905 177/906
f 129/907 48/908 112/909
f 177/910 112/911 47/912
f 20/913 130/914 178/915
f 131/916 178/917 130/918
f 19/919 72/920 178/921
f 132/922 179/923 131/924
f 23/925 67/926 179/927
f 19/928 131/929 179/930
f 133/931 180/932 134/933
f 25/934 81/935 180/936
f 26/937 134/938 180/939
f 130/940 181/941 133/942
f 20/943 75/944 181/945
f 25/946 133/947 181/948
f 135/949 182/950 136/951
f 29/952 87/953 182/954
f 30/955 136/956 182/957
f 134/958 183/959 135/960
f 26/961 84/962 183/963
f 29/964 135/965 183/966
f 137/967 184/968 138/969
f 33/970 93/971 184/972
f 34/973 138/974 184/975
f 136/976 185/977 137/978
f 30/979 90/980 185/981
f 33/982 137/983 185/984
f 139/985 186/986 140/987
f 37/988 99/989 186/990
f 38/991 140/992 186/993
f 138/994 187/995 139/996
f 34/997 96/998 187/999
f 37/1000 139/1001 187/1002
f 141/1003 188/1004 142/1005
f 41/1006 105/1007 188/1008
f 42/1009 142/1010 188/1011
f 140/1012 189/1013 141/1014
f 38/1015 102/1016 189/1017
f 41/1018 141/1019 189/1020
f 143/1021 190/1022 144/1023
f 45/1024 111/1025 190/1026
f 46/1027 144/1028 190/1029
f 142/1030 191/1031 143/1032
f 42/1033 108/1034 191/1035
f 45/1036 143/1037 191/1038
f 145/1039 192/1040 132/1041
f 49/1042 76/1043 192/1044
f 23/1045 132/1046 192/1047
f 144/1048 193/1049 145/1050
f 46/1051 113/1052 193/1053
f 49/1054 145/1055 193/1056
