o Microwave041_door_Clear
v -0.066663 -0.2380005 -0.005167
v -0.066663 -0.2358465 -0.005167
v 0.098486 -0.2359215 -0.106465
v 0.098259 -0.2358465 -0.106455
v 0.098391 -0.2358645 -0.106461
v 0.098567 -0.2361455 -0.106469
v 0.098545 -0.2360145 -0.106468
v 0.098486 -0.2359215 0.102618
v 0.098567 -0.2361455 0.102622
v 0.098545 -0.2360145 0.102621
v 0.098259 -0.2358465 0.102607
v 0.098391 -0.2358645 0.102614
v 0.098544 -0.2379255 0.10262
v 0.098321 -0.2380005 0.10261
v 0.098452 -0.2379815 0.102616
v 0.098613 -0.2377005 0.102624
v 0.098598 -0.2378325 0.102623
v 0.098544 -0.2379255 -0.106468
v 0.098613 -0.2377005 -0.106471
v 0.098598 -0.2378325 -0.10647
v 0.098321 -0.2380005 -0.106458
v 0.098452 -0.2379815 -0.106463
v -0.234375 -0.2359215 0.102618
v -0.234147 -0.2358465 0.102608
v -0.234279 -0.2358645 0.102614
v -0.234456 -0.2361455 0.102622
v -0.234434 -0.2360145 0.102621
v -0.234375 -0.2359215 -0.106465
v -0.234456 -0.2361455 -0.106469
v -0.234434 -0.2360145 -0.106468
v -0.234147 -0.2358465 -0.106455
v -0.234279 -0.2358645 -0.106461
v -0.234433 -0.2379255 -0.106468
v -0.23421 -0.2380005 -0.106457
v -0.234341 -0.2379815 -0.106463
v -0.234501 -0.2377005 -0.106471
v -0.234486 -0.2378325 -0.10647
v -0.234433 -0.2379255 0.10262
v -0.234501 -0.2377005 0.102624
v -0.234486 -0.2378325 0.102623
v -0.234341 -0.2379815 0.102616
v 0.090555 -0.2359215 0.110548
v 0.090545 -0.2358465 0.110321
v 0.090551 -0.2358645 0.110453
v 0.090559 -0.2361455 0.11063
v 0.090558 -0.2360145 0.110607
v -0.226444 -0.2359215 0.110548
v -0.226448 -0.2361455 0.11063
v -0.226447 -0.2360145 0.110607
v -0.226434 -0.2358465 0.110321
v -0.22644 -0.2358645 0.110453
v -0.226447 -0.2379255 0.110606
v -0.226437 -0.2380005 0.110384
v -0.226443 -0.2379815 0.110514
v -0.22645 -0.2377005 0.110675
v -0.226449 -0.2378325 0.11066
v 0.090558 -0.2379255 0.110606
v 0.090561 -0.2377005 0.110675
v 0.09056 -0.2378325 0.11066
v 0.090549 -0.2380005 0.110384
v 0.090554 -0.2379815 0.110514
v -0.226444 -0.2359215 -0.114395
v -0.226434 -0.2358465 -0.114168
v -0.22644 -0.2358645 -0.1143
v -0.226448 -0.2361455 -0.114477
v -0.226447 -0.2360145 -0.114454
v 0.090555 -0.2359215 -0.114395
v 0.090559 -0.2361455 -0.114477
v 0.090558 -0.2360145 -0.114454
v 0.090545 -0.2358465 -0.114168
v 0.090551 -0.2358645 -0.1143
v 0.090558 -0.2379255 -0.114454
v 0.090548 -0.2380005 -0.114231
v 0.090554 -0.2379815 -0.114361
v 0.090561 -0.2377005 -0.114522
v 0.09056 -0.2378325 -0.114507
v -0.226447 -0.2379255 -0.114454
v -0.22645 -0.2377005 -0.114522
v -0.226449 -0.2378325 -0.114507
v -0.226437 -0.2380005 -0.114231
v -0.226443 -0.2379815 -0.114361
v 0.098265 -0.2359215 0.105051
v 0.098345 -0.2361455 0.105067
v 0.098323 -0.2360145 0.105063
v 0.098041 -0.2358465 0.105004
v 0.098171 -0.2358645 0.105031
v 0.098322 -0.2379255 0.105063
v 0.098103 -0.2380005 0.105016
v 0.098231 -0.2379815 0.105044
v 0.098389 -0.2377005 0.105077
v 0.098375 -0.2378325 0.105074
v 0.097604 -0.2359215 0.107032
v 0.097678 -0.2361455 0.10707
v 0.097657 -0.2360145 0.107059
v 0.097399 -0.2358465 0.106928
v 0.097518 -0.2358645 0.106988
v 0.097657 -0.2379255 0.107059
v 0.097451 -0.2380005 0.106974
v 0.097574 -0.2379825 0.107016
v 0.097718 -0.2377005 0.10709
v 0.097705 -0.2378325 0.107083
v 0.096506 -0.2359215 0.108569
v 0.096565 -0.2361455 0.108627
v 0.096549 -0.2360145 0.108611
v 0.096344 -0.2358465 0.108406
v 0.096438 -0.2358645 0.108501
v 0.096546 -0.2379425 0.108608
v 0.096386 -0.2380165 0.108449
v 0.09648 -0.2379985 0.108542
v 0.096595 -0.2377175 0.108658
v 0.096584 -0.2378485 0.108647
v 0.098265 -0.2359215 -0.108898
v 0.098041 -0.2358465 -0.108851
v 0.098171 -0.2358645 -0.108878
v 0.098345 -0.2361455 -0.108914
v 0.098323 -0.2360145 -0.10891
v 0.098322 -0.2379255 -0.10891
v 0.098389 -0.2377005 -0.108924
v 0.098375 -0.2378325 -0.108921
v 0.098102 -0.2380005 -0.108864
v 0.098231 -0.2379815 -0.108891
v 0.097604 -0.2359215 -0.110879
v 0.097399 -0.2358465 -0.110775
v 0.097518 -0.2358645 -0.110836
v 0.097678 -0.2361455 -0.110917
v 0.097657 -0.2360145 -0.110906
v 0.097657 -0.2379255 -0.110906
v 0.097718 -0.2377005 -0.110937
v 0.097705 -0.2378325 -0.110931
v 0.097454 -0.2380005 -0.110814
v 0.097574 -0.2379825 -0.110864
v 0.096506 -0.2359215 -0.112416
v 0.096344 -0.2358465 -0.112253
v 0.096438 -0.2358645 -0.112348
v 0.096565 -0.2361455 -0.112474
v 0.096549 -0.2360145 -0.112458
v 0.096546 -0.2379425 -0.112456
v 0.096595 -0.2377175 -0.112505
v 0.096584 -0.2378485 -0.112494
v 0.096386 -0.2380165 -0.112296
v 0.09648 -0.2379985 -0.112389
v -0.234153 -0.2359215 -0.108898
v -0.234234 -0.2361455 -0.108914
v -0.234212 -0.2360145 -0.10891
v -0.23393 -0.2358465 -0.108851
v -0.234059 -0.2358645 -0.108878
v -0.234211 -0.2379255 -0.10891
v -0.233991 -0.2380005 -0.108863
v -0.23412 -0.2379815 -0.108891
v -0.234278 -0.2377005 -0.108924
v -0.234264 -0.2378325 -0.108921
v -0.233493 -0.2359215 -0.110879
v -0.233566 -0.2361455 -0.110917
v -0.233546 -0.2360145 -0.110906
v -0.233288 -0.2358465 -0.110775
v -0.233407 -0.2358645 -0.110836
v -0.233545 -0.2379255 -0.110906
v -0.23334 -0.2380005 -0.11082
v -0.233462 -0.2379825 -0.110864
v -0.233607 -0.2377005 -0.110937
v -0.233594 -0.2378325 -0.110931
v -0.232395 -0.2359215 -0.112416
v -0.232453 -0.2361455 -0.112474
v -0.232437 -0.2360145 -0.112458
v -0.232232 -0.2358465 -0.112253
v -0.232327 -0.2358645 -0.112348
v -0.232435 -0.2379425 -0.112456
v -0.232275 -0.2380165 -0.112296
v -0.232369 -0.2379985 -0.112389
v -0.232484 -0.2377175 -0.112505
v -0.232473 -0.2378485 -0.112494
v -0.234153 -0.2359215 0.105051
v -0.23393 -0.2358465 0.105004
v -0.234059 -0.2358645 0.105031
v -0.234234 -0.2361455 0.105067
v -0.234212 -0.2360145 0.105063
v -0.234211 -0.2379255 0.105063
v -0.234278 -0.2377005 0.105077
v -0.234264 -0.2378325 0.105074
v -0.233991 -0.2380005 0.105017
v -0.23412 -0.2379815 0.105044
v -0.233493 -0.2359215 0.107032
v -0.233288 -0.2358465 0.106928
v -0.233407 -0.2358645 0.106988
v -0.233566 -0.2361455 0.10707
v -0.233546 -0.2360145 0.107059
v -0.233545 -0.2379255 0.107059
v -0.233607 -0.2377005 0.10709
v -0.233594 -0.2378325 0.107083
v -0.233341 -0.2380005 0.106969
v -0.233462 -0.2379825 0.107016
v -0.232395 -0.2359215 0.108569
v -0.232232 -0.2358465 0.108406
v -0.232327 -0.2358645 0.108501
v -0.232453 -0.2361455 0.108627
v -0.232437 -0.2360145 0.108611
v -0.232435 -0.2379425 0.108608
v -0.232484 -0.2377175 0.108658
v -0.232473 -0.2378485 0.108647
v -0.232275 -0.2380165 0.108449
v -0.232369 -0.2379985 0.108542
v -0.228877 -0.2359215 0.110327
v -0.228894 -0.2361455 0.110407
v -0.228889 -0.2360145 0.110385
v -0.22883 -0.2358465 0.110103
v -0.228857 -0.2358645 0.110233
v -0.228889 -0.2379255 0.110384
v -0.228844 -0.2380005 0.110166
v -0.22887 -0.2379815 0.110294
v -0.228903 -0.2377005 0.110452
v -0.2289 -0.2378325 0.110437
v -0.230859 -0.2359215 0.109667
v -0.230896 -0.2361455 0.10974
v -0.230886 -0.2360145 0.10972
v -0.230754 -0.2358465 0.109462
v -0.230815 -0.2358645 0.109581
v -0.230885 -0.2379255 0.109719
v -0.230783 -0.2380015 0.109518
v -0.230843 -0.2379825 0.109636
v -0.230917 -0.2377005 0.109781
v -0.23091 -0.2378325 0.109767
v 0.092988 -0.2359215 0.110327
v 0.092941 -0.2358465 0.110103
v 0.092968 -0.2358645 0.110233
v 0.093005 -0.2361455 0.110407
v 0.093 -0.2360145 0.110385
v 0.093 -0.2379255 0.110384
v 0.093014 -0.2377005 0.110452
v 0.093011 -0.2378325 0.110437
v 0.092958 -0.2380005 0.110165
v 0.092981 -0.2379815 0.110294
v 0.09497 -0.2359215 0.109667
v 0.094865 -0.2358465 0.109462
v 0.094926 -0.2358645 0.109581
v 0.095007 -0.2361455 0.10974
v 0.094997 -0.2360145 0.10972
v 0.094996 -0.2379255 0.109719
v 0.095028 -0.2377005 0.109781
v 0.095021 -0.2378325 0.109767
v 0.094894 -0.2380015 0.109518
v 0.094954 -0.2379825 0.109636
v 0.092988 -0.2359215 -0.114174
v 0.093005 -0.2361455 -0.114255
v 0.093 -0.2360145 -0.114232
v 0.092941 -0.2358465 -0.11395
v 0.092968 -0.2358645 -0.11408
v 0.093 -0.2379255 -0.114232
v 0.092955 -0.2380005 -0.114013
v 0.092981 -0.2379815 -0.114141
v 0.093014 -0.2377005 -0.114299
v 0.093011 -0.2378325 -0.114284
v 0.09497 -0.2359215 -0.113514
v 0.095007 -0.2361455 -0.113587
v 0.094997 -0.2360145 -0.113567
v 0.094865 -0.2358465 -0.113309
v 0.094926 -0.2358645 -0.113428
v 0.094996 -0.2379255 -0.113566
v 0.094894 -0.2380015 -0.113365
v 0.094954 -0.2379825 -0.113483
v 0.095028 -0.2377005 -0.113628
v 0.095021 -0.2378325 -0.113614
v -0.228877 -0.2359215 -0.114174
v -0.22883 -0.2358465 -0.11395
v -0.228857 -0.2358645 -0.11408
v -0.228894 -0.2361455 -0.114255
v -0.228889 -0.2360145 -0.114232
v -0.228889 -0.2379255 -0.114232
v -0.228903 -0.2377005 -0.114299
v -0.2289 -0.2378325 -0.114284
v -0.228847 -0.2380005 -0.114013
v -0.22887 -0.2379815 -0.114141
v -0.230858 -0.2359215 -0.113514
v -0.230754 -0.2358465 -0.113309
v -0.230815 -0.2358645 -0.113428
v -0.230896 -0.2361455 -0.113587
v -0.230886 -0.2360145 -0.113567
v -0.230885 -0.2379255 -0.113566
v -0.230917 -0.2377005 -0.113628
v -0.23091 -0.2378325 -0.113614
v -0.230783 -0.2380015 -0.113365
v -0.230843 -0.2379825 -0.113483
v 0.095669 -0.2380185 0.107732
v 0.094434 -0.2380025 0.108617
v -0.230323 -0.2380025 0.108617
v -0.231558 -0.2380185 0.107732
v -0.23421 -0.2380005 0.102611
v -0.231558 -0.2380185 -0.111579
v -0.230323 -0.2380035 -0.112465
v 0.094434 -0.2380035 -0.112465
v 0.095669 -0.2380185 -0.111579
vt 0.997129 0.008442
vt 0.99713 0.008442
vt 0.503831 0.008442
vt 0.99713 0.008442
vt 0.996475 0.008442
vt 0.503831 0.008442
vt 0.996475 0.008442
vt 0.994551 0.008443
vt 0.503831 0.008442
vt 0.994551 0.008443
vt 0.9892 0.008495
vt 0.503831 0.008442
vt 0.9892 0.114349
vt 0.985507 0.114396
vt 0.503831 0.114402
vt 0.985507 0.114396
vt 0.981082 0.114402
vt 0.503831 0.114402
vt 0.981082 0.114402
vt 0.973887 0.114402
vt 0.503831 0.114402
vt 0.973887 0.008442
vt 0.026113 0.008442
vt 0.503831 0.008442
vt 0.026113 0.114402
vt 0.018917 0.114402
vt 0.503831 0.114402
vt 0.018917 0.114402
vt 0.014493 0.114396
vt 0.503831 0.114402
vt 0.014493 0.114396
vt 0.010799 0.114349
vt 0.503831 0.114402
vt 0.010799 0.008495
vt 0.005451 0.008443
vt 0.503831 0.008442
vt 0.005451 0.008443
vt 0.002871 0.008442
vt 0.503831 0.008442
vt 0.002871 0.008442
vt 0.002871 0.008442
vt 0.503831 0.008442
vt 0.002871 0.008442
vt 0.003525 0.008442
vt 0.503831 0.008442
vt 0.003525 0.008442
vt 0.008152 0.008442
vt 0.503831 0.008442
vt 0.005449 0.114402
vt 0.0108 0.114349
vt 0.503831 0.114402
vt 0.0108 0.008495
vt 0.014493 0.00845
vt 0.503831 0.008442
vt 0.014493 0.00845
vt 0.018917 0.008442
vt 0.503831 0.008442
vt 0.018917 0.008442
vt 0.026113 0.008442
vt 0.503831 0.008442
vt 0.026113 0.008442
vt 0.973887 0.008442
vt 0.503831 0.008442
vt 0.973887 0.008442
vt 0.981083 0.008442
vt 0.503831 0.008442
vt 0.981083 0.008442
vt 0.985507 0.008449
vt 0.503831 0.008442
vt 0.985507 0.008449
vt 0.9892 0.008495
vt 0.503831 0.008442
vt 0.9892 0.114349
vt 0.994549 0.114402
vt 0.503831 0.114402
vt 0.991848 0.008442
vt 0.996475 0.008442
vt 0.503831 0.008442
vt 0.996475 0.008442
vt 0.997129 0.008442
vt 0.503831 0.008442
vt 0.996942 0.002
vt 0.996942 0.002
vt 0.503831 0.002
vt 0.996942 0.002
vt 0.996291 0.002
vt 0.503831 0.002
vt 0.996291 0.002
vt 0.994373 0.002
vt 0.503831 0.002
vt 0.994373 0.002
vt 0.991216 0.002
vt 0.503831 0.002
vt 0.991216 0.002
vt 0.986797 0.002
vt 0.503831 0.002
vt 0.986797 0.002
vt 0.981043 0.002
vt 0.503831 0.002
vt 0.981043 0.002
vt 0.973879 0.002
vt 0.503831 0.002
vt 0.973879 0.002
vt 0.026121 0.002
vt 0.503831 0.002
vt 0.026121 0.002
vt 0.018957 0.002
vt 0.503831 0.002
vt 0.018957 0.002
vt 0.013204 0.002
vt 0.503831 0.002
vt 0.013204 0.002
vt 0.008784 0.002
vt 0.503831 0.002
vt 0.008784 0.002
vt 0.005627 0.002
vt 0.503831 0.002
vt 0.005627 0.002
vt 0.003709 0.002
vt 0.503831 0.002
vt 0.003709 0.002
vt 0.003058 0.002
vt 0.503831 0.002
vt 0.003058 0.002
vt 0.003058 0.002
vt 0.503831 0.002
vt 0.003058 0.002
vt 0.003709 0.002
vt 0.503831 0.002
vt 0.003709 0.002
vt 0.005627 0.002
vt 0.503831 0.002
vt 0.005627 0.002
vt 0.008784 0.002
vt 0.503831 0.002
vt 0.008784 0.002
vt 0.013203 0.002
vt 0.503831 0.002
vt 0.013203 0.002
vt 0.018957 0.002
vt 0.503831 0.002
vt 0.018957 0.002
vt 0.026121 0.002
vt 0.503831 0.002
vt 0.026121 0.002
vt 0.973879 0.002
vt 0.503831 0.002
vt 0.973879 0.002
vt 0.981043 0.002
vt 0.503831 0.002
vt 0.981043 0.002
vt 0.986796 0.002
vt 0.503831 0.002
vt 0.986796 0.002
vt 0.991216 0.002
vt 0.503831 0.002
vt 0.991216 0.002
vt 0.996291 0.002
vt 0.503831 0.002
vt 0.996291 0.002
vt 0.996942 0.002
vt 0.503831 0.002
vt 0.981082 0.114402
vt 0.985507 0.114396
vt 0.986881 0.114401
vt 0.005451 0.008443
vt 0.010799 0.008495
vt 0.008657 0.008491
vt 0.018917 0.008442
vt 0.014493 0.00845
vt 0.013119 0.008444
vt 0.994549 0.114402
vt 0.9892 0.114349
vt 0.991343 0.114354
vt 0.996291 0.002
vt 0.991216 0.002
vt 0.994373 0.002
vt 0.997865 0.002897
vt 0.998 0.007546
vt 0.998 0.007546
vt 0.002135 0.002897
vt 0.002 0.007546
vt 0.002135 0.002897
vt 0.973921 0.119948
vt 0.026073 0.115299
vt 0.973927 0.115299
vt 0.026073 0.007546
vt 0.97392 0.002897
vt 0.973927 0.007546
vt 0.998 0.115299
vt 0.9972 0.119948
vt 0.997333 0.115299
vt 0.997333 0.115299
vt 0.995205 0.119948
vt 0.995326 0.115299
vt 0.995326 0.115299
vt 0.991877 0.119948
vt 0.991969 0.11525
vt 0.9972 0.002897
vt 0.998 0.007546
vt 0.997333 0.007546
vt 0.995205 0.002897
vt 0.997333 0.007546
vt 0.995326 0.007546
vt 0.991877 0.002897
vt 0.995326 0.007546
vt 0.991969 0.007594
vt 0.002 0.007546
vt 0.0028 0.002897
vt 0.002667 0.007546
vt 0.002667 0.007546
vt 0.004795 0.002897
vt 0.004674 0.007546
vt 0.004674 0.007546
vt 0.008123 0.002897
vt 0.008031 0.007594
vt 0.0028 0.119948
vt 0.002 0.115299
vt 0.002667 0.115299
vt 0.004795 0.119948
vt 0.002667 0.115299
vt 0.004674 0.115299
vt 0.008123 0.119948
vt 0.004674 0.115299
vt 0.008031 0.11525
vt 0.026073 0.115299
vt 0.018766 0.119948
vt 0.018739 0.115299
vt 0.018739 0.115299
vt 0.01278 0.119948
vt 0.012718 0.115299
vt 0.012718 0.115299
vt 0.008123 0.119948
vt 0.008031 0.11525
vt 0.981234 0.119948
vt 0.973927 0.115299
vt 0.981261 0.115299
vt 0.98722 0.119948
vt 0.981261 0.115299
vt 0.987282 0.115299
vt 0.991877 0.119948
vt 0.987282 0.115299
vt 0.991969 0.11525
vt 0.973927 0.007546
vt 0.981234 0.002897
vt 0.981261 0.007546
vt 0.981261 0.007546
vt 0.98722 0.002897
vt 0.987282 0.007546
vt 0.987282 0.007546
vt 0.991877 0.002897
vt 0.991969 0.007594
vt 0.018767 0.002897
vt 0.026073 0.007546
vt 0.018739 0.007546
vt 0.01278 0.002897
vt 0.018739 0.007546
vt 0.012718 0.007546
vt 0.008123 0.002897
vt 0.012718 0.007546
vt 0.008031 0.007594
vt 0.998 0.007546
vt 0.997955 0.007938
vt 0.997955 0.007938
vt 0.997955 0.007938
vt 0.997795 0.008218
vt 0.997795 0.008218
vt 0.997865 0.002897
vt 0.997798 0.002504
vt 0.997798 0.002504
vt 0.997798 0.002504
vt 0.997621 0.002224
vt 0.997621 0.002224
vt 0.002 0.007546
vt 0.002045 0.007938
vt 0.002045 0.007938
vt 0.002045 0.007938
vt 0.002205 0.008218
vt 0.002205 0.008218
vt 0.002135 0.002897
vt 0.002202 0.002504
vt 0.002202 0.002504
vt 0.002379 0.002224
vt 0.002202 0.002504
vt 0.002379 0.002224
vt 0.973927 0.115299
vt 0.026075 0.114907
vt 0.973925 0.114907
vt 0.973925 0.114907
vt 0.026083 0.114627
vt 0.973917 0.114627
vt 0.026079 0.119948
vt 0.973917 0.12034
vt 0.026082 0.12034
vt 0.026082 0.12034
vt 0.973909 0.12062
vt 0.02609 0.12062
vt 0.026073 0.007546
vt 0.973925 0.007938
vt 0.026075 0.007938
vt 0.026083 0.008218
vt 0.973925 0.007938
vt 0.973917 0.008218
vt 0.97392 0.002897
vt 0.026082 0.002504
vt 0.973917 0.002504
vt 0.973917 0.002504
vt 0.02609 0.002224
vt 0.973909 0.002224
vt 0.997289 0.114907
vt 0.998 0.115299
vt 0.997333 0.115299
vt 0.997131 0.114627
vt 0.997955 0.114907
vt 0.997289 0.114907
vt 0.997134 0.12034
vt 0.997865 0.119948
vt 0.997798 0.12034
vt 0.99696 0.12062
vt 0.997798 0.12034
vt 0.997621 0.12062
vt 0.995286 0.114907
vt 0.997333 0.115299
vt 0.995326 0.115299
vt 0.995142 0.114626
vt 0.997289 0.114907
vt 0.995286 0.114907
vt 0.995144 0.12034
vt 0.9972 0.119948
vt 0.997134 0.12034
vt 0.994985 0.12062
vt 0.997134 0.12034
vt 0.99696 0.12062
vt 0.995286 0.114907
vt 0.991969 0.11525
vt 0.991936 0.114858
vt 0.995142 0.114626
vt 0.991936 0.114858
vt 0.991821 0.114578
vt 0.991829 0.12034
vt 0.995205 0.119948
vt 0.995144 0.12034
vt 0.991703 0.12062
vt 0.995144 0.12034
vt 0.994985 0.12062
vt 0.997289 0.007938
vt 0.998 0.007546
vt 0.997955 0.007938
vt 0.997131 0.008218
vt 0.997955 0.007938
vt 0.997795 0.008218
vt 0.997134 0.002504
vt 0.997865 0.002897
vt 0.9972 0.002897
vt 0.99696 0.002224
vt 0.997798 0.002504
vt 0.997134 0.002504
vt 0.995286 0.007938
vt 0.997333 0.007546
vt 0.997289 0.007938
vt 0.995142 0.008218
vt 0.997289 0.007938
vt 0.997131 0.008218
vt 0.995144 0.002504
vt 0.9972 0.002897
vt 0.995205 0.002897
vt 0.994985 0.002224
vt 0.997134 0.002504
vt 0.995144 0.002504
vt 0.995286 0.007938
vt 0.991969 0.007594
vt 0.995326 0.007546
vt 0.995142 0.008218
vt 0.991936 0.007987
vt 0.995286 0.007938
vt 0.991829 0.002504
vt 0.995205 0.002897
vt 0.991877 0.002897
vt 0.991703 0.002224
vt 0.995144 0.002504
vt 0.991829 0.002504
vt 0.002711 0.007938
vt 0.002 0.007546
vt 0.002667 0.007546
vt 0.002869 0.008218
vt 0.002045 0.007938
vt 0.002711 0.007938
vt 0.002866 0.002504
vt 0.002135 0.002897
vt 0.002202 0.002504
vt 0.00304 0.002224
vt 0.002202 0.002504
vt 0.002379 0.002224
vt 0.004714 0.007938
vt 0.002667 0.007546
vt 0.004674 0.007546
vt 0.004858 0.008218
vt 0.002711 0.007938
vt 0.004714 0.007938
vt 0.004856 0.002504
vt 0.0028 0.002897
vt 0.002866 0.002504
vt 0.005015 0.002224
vt 0.002866 0.002504
vt 0.00304 0.002224
vt 0.004714 0.007938
vt 0.008031 0.007594
vt 0.008064 0.007987
vt 0.004858 0.008218
vt 0.008064 0.007987
vt 0.008179 0.008267
vt 0.008171 0.002504
vt 0.004795 0.002897
vt 0.004856 0.002504
vt 0.008297 0.002224
vt 0.004856 0.002504
vt 0.005015 0.002224
vt 0.002711 0.114907
vt 0.002 0.115299
vt 0.002045 0.114907
vt 0.002869 0.114627
vt 0.002045 0.114907
vt 0.002205 0.114627
vt 0.002866 0.12034
vt 0.002135 0.119948
vt 0.0028 0.119948
vt 0.00304 0.12062
vt 0.002202 0.12034
vt 0.002866 0.12034
vt 0.004714 0.114907
vt 0.002667 0.115299
vt 0.002711 0.114907
vt 0.004858 0.114626
vt 0.002711 0.114907
vt 0.002869 0.114627
vt 0.004856 0.12034
vt 0.0028 0.119948
vt 0.004795 0.119948
vt 0.005015 0.12062
vt 0.002866 0.12034
vt 0.004856 0.12034
vt 0.004714 0.114907
vt 0.008031 0.11525
vt 0.004674 0.115299
vt 0.004858 0.114626
vt 0.008064 0.114858
vt 0.004714 0.114907
vt 0.008171 0.12034
vt 0.004795 0.119948
vt 0.008123 0.119948
vt 0.008297 0.12062
vt 0.004856 0.12034
vt 0.008171 0.12034
vt 0.018748 0.114907
vt 0.026073 0.115299
vt 0.018739 0.115299
vt 0.018781 0.114627
vt 0.026075 0.114907
vt 0.018748 0.114907
vt 0.01878 0.12034
vt 0.026079 0.119948
vt 0.026082 0.12034
vt 0.018817 0.12062
vt 0.026082 0.12034
vt 0.02609 0.12062
vt 0.012739 0.114907
vt 0.018739 0.115299
vt 0.012718 0.115299
vt 0.012812 0.114626
vt 0.018748 0.114907
vt 0.012739 0.114907
vt 0.012811 0.12034
vt 0.018766 0.119948
vt 0.01878 0.12034
vt 0.012892 0.12062
vt 0.01878 0.12034
vt 0.018817 0.12062
vt 0.012739 0.114907
vt 0.008031 0.11525
vt 0.008064 0.114858
vt 0.012812 0.114626
vt 0.008064 0.114858
vt 0.008179 0.114578
vt 0.008171 0.12034
vt 0.01278 0.119948
vt 0.012811 0.12034
vt 0.008297 0.12062
vt 0.012811 0.12034
vt 0.012892 0.12062
vt 0.981252 0.114907
vt 0.973927 0.115299
vt 0.973925 0.114907
vt 0.981219 0.114627
vt 0.973925 0.114907
vt 0.973917 0.114627
vt 0.98122 0.12034
vt 0.973921 0.119948
vt 0.981234 0.119948
vt 0.981183 0.12062
vt 0.973917 0.12034
vt 0.98122 0.12034
vt 0.987261 0.114907
vt 0.981261 0.115299
vt 0.981252 0.114907
vt 0.987188 0.114626
vt 0.981252 0.114907
vt 0.981219 0.114627
vt 0.987189 0.12034
vt 0.981234 0.119948
vt 0.98722 0.119948
vt 0.987108 0.12062
vt 0.98122 0.12034
vt 0.987189 0.12034
vt 0.987261 0.114907
vt 0.991969 0.11525
vt 0.987282 0.115299
vt 0.987188 0.114626
vt 0.991936 0.114858
vt 0.987261 0.114907
vt 0.991829 0.12034
vt 0.98722 0.119948
vt 0.991877 0.119948
vt 0.991703 0.12062
vt 0.987189 0.12034
vt 0.991829 0.12034
vt 0.981252 0.007938
vt 0.973927 0.007546
vt 0.981261 0.007546
vt 0.981219 0.008218
vt 0.973925 0.007938
vt 0.981252 0.007938
vt 0.98122 0.002504
vt 0.97392 0.002897
vt 0.973917 0.002504
vt 0.981183 0.002224
vt 0.973917 0.002504
vt 0.973909 0.002224
vt 0.987261 0.007938
vt 0.981261 0.007546
vt 0.987282 0.007546
vt 0.987188 0.008218
vt 0.981252 0.007938
vt 0.987261 0.007938
vt 0.987189 0.002504
vt 0.981234 0.002897
vt 0.98122 0.002504
vt 0.987108 0.002224
vt 0.98122 0.002504
vt 0.981183 0.002224
vt 0.987261 0.007938
vt 0.991969 0.007594
vt 0.991936 0.007987
vt 0.987188 0.008218
vt 0.991936 0.007987
vt 0.991821 0.008267
vt 0.991829 0.002504
vt 0.98722 0.002897
vt 0.987189 0.002504
vt 0.991703 0.002224
vt 0.987189 0.002504
vt 0.987108 0.002224
vt 0.018748 0.007938
vt 0.026073 0.007546
vt 0.026075 0.007938
vt 0.018781 0.008218
vt 0.026075 0.007938
vt 0.026083 0.008218
vt 0.01878 0.002504
vt 0.026079 0.002897
vt 0.018767 0.002897
vt 0.018817 0.002224
vt 0.026082 0.002504
vt 0.01878 0.002504
vt 0.012739 0.007938
vt 0.018739 0.007546
vt 0.018748 0.007938
vt 0.012812 0.008219
vt 0.018748 0.007938
vt 0.018781 0.008218
vt 0.012811 0.002504
vt 0.018767 0.002897
vt 0.01278 0.002897
vt 0.012892 0.002224
vt 0.01878 0.002504
vt 0.012811 0.002504
vt 0.012739 0.007938
vt 0.008031 0.007594
vt 0.012718 0.007546
vt 0.012812 0.008219
vt 0.008064 0.007987
vt 0.012739 0.007938
vt 0.008171 0.002504
vt 0.01278 0.002897
vt 0.008123 0.002897
vt 0.008297 0.002224
vt 0.012811 0.002504
vt 0.008171 0.002504
vt 0.99713 0.008442
vt 0.99752 0.008386
vt 0.99752 0.008386
vt 0.99752 0.008386
vt 0.997795 0.008218
vt 0.997795 0.008218
vt 0.99752 0.114458
vt 0.996475 0.114402
vt 0.997129 0.114402
vt 0.997795 0.114627
vt 0.99686 0.114458
vt 0.99752 0.114458
vt 0.994894 0.114458
vt 0.996475 0.114402
vt 0.99686 0.114458
vt 0.997131 0.114627
vt 0.994894 0.114458
vt 0.99686 0.114458
vt 0.991623 0.11441
vt 0.994542 0.114402
vt 0.994894 0.114458
vt 0.995142 0.114626
vt 0.991623 0.11441
vt 0.994894 0.114458
vt 0.987061 0.114457
vt 0.991343 0.114354
vt 0.991623 0.11441
vt 0.987188 0.114626
vt 0.991623 0.11441
vt 0.991821 0.114578
vt 0.981162 0.114458
vt 0.986881 0.114401
vt 0.987061 0.114457
vt 0.981219 0.114627
vt 0.987061 0.114457
vt 0.987188 0.114626
vt 0.973905 0.114458
vt 0.981082 0.114402
vt 0.981162 0.114458
vt 0.973917 0.114627
vt 0.981162 0.114458
vt 0.981219 0.114627
vt 0.026113 0.114402
vt 0.973905 0.114458
vt 0.026095 0.114458
vt 0.026095 0.114458
vt 0.973917 0.114627
vt 0.026083 0.114627
vt 0.026095 0.114458
vt 0.018917 0.114402
vt 0.026113 0.114402
vt 0.026083 0.114627
vt 0.018838 0.114458
vt 0.026095 0.114458
vt 0.018838 0.114458
vt 0.013118 0.1144
vt 0.018917 0.114402
vt 0.018781 0.114627
vt 0.012939 0.114457
vt 0.018838 0.114458
vt 0.012939 0.114457
vt 0.008657 0.114354
vt 0.013118 0.1144
vt 0.012812 0.114626
vt 0.008376 0.11441
vt 0.012939 0.114457
vt 0.005458 0.114402
vt 0.008376 0.11441
vt 0.005106 0.114458
vt 0.004858 0.114626
vt 0.008376 0.11441
vt 0.008179 0.114578
vt 0.003525 0.114402
vt 0.005106 0.114458
vt 0.00314 0.114458
vt 0.002869 0.114627
vt 0.005106 0.114458
vt 0.004858 0.114626
vt 0.00248 0.114458
vt 0.003525 0.114402
vt 0.00314 0.114458
vt 0.002205 0.114627
vt 0.00314 0.114458
vt 0.002869 0.114627
vt 0.002871 0.008442
vt 0.00248 0.008386
vt 0.00248 0.008386
vt 0.002205 0.008218
vt 0.00248 0.008386
vt 0.002205 0.008218
vt 0.00248 0.008386
vt 0.003525 0.008442
vt 0.002871 0.008442
vt 0.002205 0.008218
vt 0.00314 0.008386
vt 0.00248 0.008386
vt 0.005106 0.008386
vt 0.003525 0.008442
vt 0.00314 0.008386
vt 0.002869 0.008218
vt 0.005106 0.008386
vt 0.00314 0.008386
vt 0.008377 0.008435
vt 0.005458 0.008442
vt 0.005106 0.008386
vt 0.004858 0.008218
vt 0.008377 0.008435
vt 0.005106 0.008386
vt 0.012939 0.008387
vt 0.008657 0.008491
vt 0.008377 0.008435
vt 0.012812 0.008219
vt 0.008377 0.008435
vt 0.008179 0.008267
vt 0.018838 0.008386
vt 0.013119 0.008444
vt 0.012939 0.008387
vt 0.018781 0.008218
vt 0.012939 0.008387
vt 0.012812 0.008219
vt 0.026095 0.008386
vt 0.018917 0.008442
vt 0.018838 0.008386
vt 0.026083 0.008218
vt 0.018838 0.008386
vt 0.018781 0.008218
vt 0.973887 0.008442
vt 0.026095 0.008386
vt 0.973905 0.008386
vt 0.973905 0.008386
vt 0.026083 0.008218
vt 0.973917 0.008218
vt 0.973905 0.008386
vt 0.981083 0.008442
vt 0.973887 0.008442
vt 0.973917 0.008218
vt 0.981162 0.008386
vt 0.973905 0.008386
vt 0.981162 0.008386
vt 0.986881 0.008444
vt 0.981083 0.008442
vt 0.981219 0.008218
vt 0.987061 0.008387
vt 0.981162 0.008386
vt 0.987061 0.008387
vt 0.991343 0.008491
vt 0.986881 0.008444
vt 0.987188 0.008218
vt 0.991623 0.008435
vt 0.987061 0.008387
vt 0.994542 0.008442
vt 0.991623 0.008435
vt 0.994894 0.008386
vt 0.995142 0.008218
vt 0.991623 0.008435
vt 0.991821 0.008267
vt 0.996475 0.008442
vt 0.994894 0.008386
vt 0.99686 0.008386
vt 0.997131 0.008218
vt 0.994894 0.008386
vt 0.995142 0.008218
vt 0.99752 0.008386
vt 0.996475 0.008442
vt 0.99686 0.008386
vt 0.997795 0.008218
vt 0.99686 0.008386
vt 0.997131 0.008218
vt 0.996942 0.002
vt 0.997336 0.002056
vt 0.997336 0.002056
vt 0.997621 0.002224
vt 0.997336 0.002056
vt 0.997621 0.002224
vt 0.997336 0.002056
vt 0.996291 0.002
vt 0.996942 0.002
vt 0.997621 0.002224
vt 0.996679 0.002056
vt 0.997336 0.002056
vt 0.996679 0.002056
vt 0.994373 0.002
vt 0.996291 0.002
vt 0.99696 0.002224
vt 0.994728 0.002056
vt 0.996679 0.002056
vt 0.994728 0.002056
vt 0.991216 0.002
vt 0.994373 0.002
vt 0.994985 0.002224
vt 0.991499 0.002056
vt 0.994728 0.002056
vt 0.986977 0.002056
vt 0.991216 0.002
vt 0.991499 0.002056
vt 0.987108 0.002224
vt 0.991499 0.002056
vt 0.991703 0.002224
vt 0.981124 0.002056
vt 0.986797 0.002
vt 0.986977 0.002056
vt 0.981183 0.002224
vt 0.986977 0.002056
vt 0.987108 0.002224
vt 0.973897 0.002056
vt 0.981043 0.002
vt 0.981124 0.002056
vt 0.973909 0.002224
vt 0.981124 0.002056
vt 0.981183 0.002224
vt 0.026121 0.002
vt 0.973897 0.002056
vt 0.026103 0.002056
vt 0.026103 0.002056
vt 0.973909 0.002224
vt 0.02609 0.002224
vt 0.026103 0.002056
vt 0.018957 0.002
vt 0.026121 0.002
vt 0.02609 0.002224
vt 0.018876 0.002056
vt 0.026103 0.002056
vt 0.018876 0.002056
vt 0.013204 0.002
vt 0.018957 0.002
vt 0.018817 0.002224
vt 0.013023 0.002056
vt 0.018876 0.002056
vt 0.013023 0.002056
vt 0.008784 0.002
vt 0.013204 0.002
vt 0.012892 0.002224
vt 0.008501 0.002056
vt 0.013023 0.002056
vt 0.005272 0.002056
vt 0.008784 0.002
vt 0.008501 0.002056
vt 0.005015 0.002224
vt 0.008501 0.002056
vt 0.008297 0.002224
vt 0.003321 0.002056
vt 0.005627 0.002
vt 0.005272 0.002056
vt 0.00304 0.002224
vt 0.005272 0.002056
vt 0.005015 0.002224
vt 0.002664 0.002056
vt 0.003709 0.002
vt 0.003321 0.002056
vt 0.002379 0.002224
vt 0.003321 0.002056
vt 0.00304 0.002224
vt 0.003058 0.002
vt 0.002664 0.002056
vt 0.002664 0.002056
vt 0.002379 0.002224
vt 0.002664 0.002056
vt 0.002379 0.002224
vt 0.002664 0.120788
vt 0.003709 0.120845
vt 0.003058 0.120845
vt 0.002379 0.12062
vt 0.003321 0.120788
vt 0.002664 0.120788
vt 0.003321 0.120788
vt 0.005627 0.120845
vt 0.003709 0.120845
vt 0.00304 0.12062
vt 0.005272 0.120788
vt 0.003321 0.120788
vt 0.005272 0.120788
vt 0.008784 0.120845
vt 0.005627 0.120845
vt 0.005015 0.12062
vt 0.008501 0.120788
vt 0.005272 0.120788
vt 0.013023 0.120788
vt 0.008784 0.120845
vt 0.008501 0.120788
vt 0.012892 0.12062
vt 0.008501 0.120788
vt 0.008297 0.12062
vt 0.018875 0.120788
vt 0.013203 0.120845
vt 0.013023 0.120788
vt 0.018817 0.12062
vt 0.013023 0.120788
vt 0.012892 0.12062
vt 0.026103 0.120788
vt 0.018957 0.120845
vt 0.018875 0.120788
vt 0.02609 0.12062
vt 0.018875 0.120788
vt 0.018817 0.12062
vt 0.973879 0.120845
vt 0.026103 0.120788
vt 0.973897 0.120788
vt 0.973909 0.12062
vt 0.026103 0.120788
vt 0.02609 0.12062
vt 0.973897 0.120788
vt 0.981043 0.120845
vt 0.973879 0.120845
vt 0.973909 0.12062
vt 0.981124 0.120788
vt 0.973897 0.120788
vt 0.981124 0.120788
vt 0.986796 0.120845
vt 0.981043 0.120845
vt 0.981183 0.12062
vt 0.986977 0.120788
vt 0.981124 0.120788
vt 0.986977 0.120788
vt 0.991216 0.120845
vt 0.986796 0.120845
vt 0.987108 0.12062
vt 0.991499 0.120788
vt 0.986977 0.120788
vt 0.994728 0.120788
vt 0.991216 0.120845
vt 0.991499 0.120788
vt 0.994985 0.12062
vt 0.991499 0.120788
vt 0.991703 0.12062
vt 0.996679 0.120788
vt 0.994373 0.120845
vt 0.994728 0.120788
vt 0.99696 0.12062
vt 0.994728 0.120788
vt 0.994985 0.12062
vt 0.997336 0.120788
vt 0.996291 0.120845
vt 0.996679 0.120788
vt 0.997621 0.12062
vt 0.996679 0.120788
vt 0.99696 0.12062
vt 0.9892 0.114349
vt 0.986881 0.114401
vt 0.985507 0.114396
vt 0.994551 0.008443
vt 0.991343 0.008491
vt 0.9892 0.008495
vt 0.010799 0.114349
vt 0.013118 0.1144
vt 0.008657 0.114354
vt 0.018917 0.114402
vt 0.013118 0.1144
vt 0.014493 0.114396
vt 0.0108 0.008495
vt 0.013119 0.008444
vt 0.014493 0.00845
vt 0.003525 0.008442
vt 0.002871 0.008442
vt 0.005451 0.008443
vt 0.005449 0.114402
vt 0.008657 0.114354
vt 0.0108 0.114349
vt 0.9892 0.008495
vt 0.986881 0.008444
vt 0.991343 0.008491
vt 0.981083 0.008442
vt 0.986881 0.008444
vt 0.985507 0.008449
vt 0.997865 0.002897
vt 0.997865 0.002897
vt 0.998 0.007546
vt 0.002135 0.002897
vt 0.002 0.007546
vt 0.002 0.007546
vt 0.973921 0.119948
vt 0.026079 0.119948
vt 0.026073 0.115299
vt 0.026073 0.007546
vt 0.026079 0.002897
vt 0.97392 0.002897
vt 0.998 0.115299
vt 0.997865 0.119948
vt 0.9972 0.119948
vt 0.997333 0.115299
vt 0.9972 0.119948
vt 0.995205 0.119948
vt 0.995326 0.115299
vt 0.995205 0.119948
vt 0.991877 0.119948
vt 0.9972 0.002897
vt 0.997865 0.002897
vt 0.998 0.007546
vt 0.995205 0.002897
vt 0.9972 0.002897
vt 0.997333 0.007546
vt 0.991877 0.002897
vt 0.995205 0.002897
vt 0.995326 0.007546
vt 0.002 0.007546
vt 0.002135 0.002897
vt 0.0028 0.002897
vt 0.002667 0.007546
vt 0.0028 0.002897
vt 0.004795 0.002897
vt 0.004674 0.007546
vt 0.004795 0.002897
vt 0.008123 0.002897
vt 0.0028 0.119948
vt 0.002135 0.119948
vt 0.002 0.115299
vt 0.004795 0.119948
vt 0.0028 0.119948
vt 0.002667 0.115299
vt 0.008123 0.119948
vt 0.004795 0.119948
vt 0.004674 0.115299
vt 0.026073 0.115299
vt 0.026079 0.119948
vt 0.018766 0.119948
vt 0.018739 0.115299
vt 0.018766 0.119948
vt 0.01278 0.119948
vt 0.012718 0.115299
vt 0.01278 0.119948
vt 0.008123 0.119948
vt 0.981234 0.119948
vt 0.973921 0.119948
vt 0.973927 0.115299
vt 0.98722 0.119948
vt 0.981234 0.119948
vt 0.981261 0.115299
vt 0.991877 0.119948
vt 0.98722 0.119948
vt 0.987282 0.115299
vt 0.973927 0.007546
vt 0.97392 0.002897
vt 0.981234 0.002897
vt 0.981261 0.007546
vt 0.981234 0.002897
vt 0.98722 0.002897
vt 0.987282 0.007546
vt 0.98722 0.002897
vt 0.991877 0.002897
vt 0.018767 0.002897
vt 0.026079 0.002897
vt 0.026073 0.007546
vt 0.01278 0.002897
vt 0.018767 0.002897
vt 0.018739 0.007546
vt 0.008123 0.002897
vt 0.01278 0.002897
vt 0.012718 0.007546
vt 0.998 0.007546
vt 0.998 0.007546
vt 0.997955 0.007938
vt 0.997955 0.007938
vt 0.997955 0.007938
vt 0.997795 0.008218
vt 0.997865 0.002897
vt 0.997865 0.002897
vt 0.997798 0.002504
vt 0.997798 0.002504
vt 0.997798 0.002504
vt 0.997621 0.002224
vt 0.002 0.007546
vt 0.002 0.007546
vt 0.002045 0.007938
vt 0.002045 0.007938
vt 0.002045 0.007938
vt 0.002205 0.008218
vt 0.002135 0.002897
vt 0.002135 0.002897
vt 0.002202 0.002504
vt 0.002379 0.002224
vt 0.002202 0.002504
vt 0.002202 0.002504
vt 0.973927 0.115299
vt 0.026073 0.115299
vt 0.026075 0.114907
vt 0.973925 0.114907
vt 0.026075 0.114907
vt 0.026083 0.114627
vt 0.026079 0.119948
vt 0.973921 0.119948
vt 0.973917 0.12034
vt 0.026082 0.12034
vt 0.973917 0.12034
vt 0.973909 0.12062
vt 0.026073 0.007546
vt 0.973927 0.007546
vt 0.973925 0.007938
vt 0.026083 0.008218
vt 0.026075 0.007938
vt 0.973925 0.007938
vt 0.97392 0.002897
vt 0.026079 0.002897
vt 0.026082 0.002504
vt 0.973917 0.002504
vt 0.026082 0.002504
vt 0.02609 0.002224
vt 0.997289 0.114907
vt 0.997955 0.114907
vt 0.998 0.115299
vt 0.997131 0.114627
vt 0.997795 0.114627
vt 0.997955 0.114907
vt 0.997134 0.12034
vt 0.9972 0.119948
vt 0.997865 0.119948
vt 0.99696 0.12062
vt 0.997134 0.12034
vt 0.997798 0.12034
vt 0.995286 0.114907
vt 0.997289 0.114907
vt 0.997333 0.115299
vt 0.995142 0.114626
vt 0.997131 0.114627
vt 0.997289 0.114907
vt 0.995144 0.12034
vt 0.995205 0.119948
vt 0.9972 0.119948
vt 0.994985 0.12062
vt 0.995144 0.12034
vt 0.997134 0.12034
vt 0.995286 0.114907
vt 0.995326 0.115299
vt 0.991969 0.11525
vt 0.995142 0.114626
vt 0.995286 0.114907
vt 0.991936 0.114858
vt 0.991829 0.12034
vt 0.991877 0.119948
vt 0.995205 0.119948
vt 0.991703 0.12062
vt 0.991829 0.12034
vt 0.995144 0.12034
vt 0.997289 0.007938
vt 0.997333 0.007546
vt 0.998 0.007546
vt 0.997131 0.008218
vt 0.997289 0.007938
vt 0.997955 0.007938
vt 0.997134 0.002504
vt 0.997798 0.002504
vt 0.997865 0.002897
vt 0.99696 0.002224
vt 0.997621 0.002224
vt 0.997798 0.002504
vt 0.995286 0.007938
vt 0.995326 0.007546
vt 0.997333 0.007546
vt 0.995142 0.008218
vt 0.995286 0.007938
vt 0.997289 0.007938
vt 0.995144 0.002504
vt 0.997134 0.002504
vt 0.9972 0.002897
vt 0.994985 0.002224
vt 0.99696 0.002224
vt 0.997134 0.002504
vt 0.995286 0.007938
vt 0.991936 0.007987
vt 0.991969 0.007594
vt 0.995142 0.008218
vt 0.991821 0.008267
vt 0.991936 0.007987
vt 0.991829 0.002504
vt 0.995144 0.002504
vt 0.995205 0.002897
vt 0.991703 0.002224
vt 0.994985 0.002224
vt 0.995144 0.002504
vt 0.002711 0.007938
vt 0.002045 0.007938
vt 0.002 0.007546
vt 0.002869 0.008218
vt 0.002205 0.008218
vt 0.002045 0.007938
vt 0.002866 0.002504
vt 0.0028 0.002897
vt 0.002135 0.002897
vt 0.00304 0.002224
vt 0.002866 0.002504
vt 0.002202 0.002504
vt 0.004714 0.007938
vt 0.002711 0.007938
vt 0.002667 0.007546
vt 0.004858 0.008218
vt 0.002869 0.008218
vt 0.002711 0.007938
vt 0.004856 0.002504
vt 0.004795 0.002897
vt 0.0028 0.002897
vt 0.005015 0.002224
vt 0.004856 0.002504
vt 0.002866 0.002504
vt 0.004714 0.007938
vt 0.004674 0.007546
vt 0.008031 0.007594
vt 0.004858 0.008218
vt 0.004714 0.007938
vt 0.008064 0.007987
vt 0.008171 0.002504
vt 0.008123 0.002897
vt 0.004795 0.002897
vt 0.008297 0.002224
vt 0.008171 0.002504
vt 0.004856 0.002504
vt 0.002711 0.114907
vt 0.002667 0.115299
vt 0.002 0.115299
vt 0.002869 0.114627
vt 0.002711 0.114907
vt 0.002045 0.114907
vt 0.002866 0.12034
vt 0.002202 0.12034
vt 0.002135 0.119948
vt 0.00304 0.12062
vt 0.002379 0.12062
vt 0.002202 0.12034
vt 0.004714 0.114907
vt 0.004674 0.115299
vt 0.002667 0.115299
vt 0.004858 0.114626
vt 0.004714 0.114907
vt 0.002711 0.114907
vt 0.004856 0.12034
vt 0.002866 0.12034
vt 0.0028 0.119948
vt 0.005015 0.12062
vt 0.00304 0.12062
vt 0.002866 0.12034
vt 0.004714 0.114907
vt 0.008064 0.114858
vt 0.008031 0.11525
vt 0.004858 0.114626
vt 0.008179 0.114578
vt 0.008064 0.114858
vt 0.008171 0.12034
vt 0.004856 0.12034
vt 0.004795 0.119948
vt 0.008297 0.12062
vt 0.005015 0.12062
vt 0.004856 0.12034
vt 0.018748 0.114907
vt 0.026075 0.114907
vt 0.026073 0.115299
vt 0.018781 0.114627
vt 0.026083 0.114627
vt 0.026075 0.114907
vt 0.01878 0.12034
vt 0.018766 0.119948
vt 0.026079 0.119948
vt 0.018817 0.12062
vt 0.01878 0.12034
vt 0.026082 0.12034
vt 0.012739 0.114907
vt 0.018748 0.114907
vt 0.018739 0.115299
vt 0.012812 0.114626
vt 0.018781 0.114627
vt 0.018748 0.114907
vt 0.012811 0.12034
vt 0.01278 0.119948
vt 0.018766 0.119948
vt 0.012892 0.12062
vt 0.012811 0.12034
vt 0.01878 0.12034
vt 0.012739 0.114907
vt 0.012718 0.115299
vt 0.008031 0.11525
vt 0.012812 0.114626
vt 0.012739 0.114907
vt 0.008064 0.114858
vt 0.008171 0.12034
vt 0.008123 0.119948
vt 0.01278 0.119948
vt 0.008297 0.12062
vt 0.008171 0.12034
vt 0.012811 0.12034
vt 0.981252 0.114907
vt 0.981261 0.115299
vt 0.973927 0.115299
vt 0.981219 0.114627
vt 0.981252 0.114907
vt 0.973925 0.114907
vt 0.98122 0.12034
vt 0.973917 0.12034
vt 0.973921 0.119948
vt 0.981183 0.12062
vt 0.973909 0.12062
vt 0.973917 0.12034
vt 0.987261 0.114907
vt 0.987282 0.115299
vt 0.981261 0.115299
vt 0.987188 0.114626
vt 0.987261 0.114907
vt 0.981252 0.114907
vt 0.987189 0.12034
vt 0.98122 0.12034
vt 0.981234 0.119948
vt 0.987108 0.12062
vt 0.981183 0.12062
vt 0.98122 0.12034
vt 0.987261 0.114907
vt 0.991936 0.114858
vt 0.991969 0.11525
vt 0.987188 0.114626
vt 0.991821 0.114578
vt 0.991936 0.114858
vt 0.991829 0.12034
vt 0.987189 0.12034
vt 0.98722 0.119948
vt 0.991703 0.12062
vt 0.987108 0.12062
vt 0.987189 0.12034
vt 0.981252 0.007938
vt 0.973925 0.007938
vt 0.973927 0.007546
vt 0.981219 0.008218
vt 0.973917 0.008218
vt 0.973925 0.007938
vt 0.98122 0.002504
vt 0.981234 0.002897
vt 0.97392 0.002897
vt 0.981183 0.002224
vt 0.98122 0.002504
vt 0.973917 0.002504
vt 0.987261 0.007938
vt 0.981252 0.007938
vt 0.981261 0.007546
vt 0.987188 0.008218
vt 0.981219 0.008218
vt 0.981252 0.007938
vt 0.987189 0.002504
vt 0.98722 0.002897
vt 0.981234 0.002897
vt 0.987108 0.002224
vt 0.987189 0.002504
vt 0.98122 0.002504
vt 0.987261 0.007938
vt 0.987282 0.007546
vt 0.991969 0.007594
vt 0.987188 0.008218
vt 0.987261 0.007938
vt 0.991936 0.007987
vt 0.991829 0.002504
vt 0.991877 0.002897
vt 0.98722 0.002897
vt 0.991703 0.002224
vt 0.991829 0.002504
vt 0.987189 0.002504
vt 0.018748 0.007938
vt 0.018739 0.007546
vt 0.026073 0.007546
vt 0.018781 0.008218
vt 0.018748 0.007938
vt 0.026075 0.007938
vt 0.01878 0.002504
vt 0.026082 0.002504
vt 0.026079 0.002897
vt 0.018817 0.002224
vt 0.02609 0.002224
vt 0.026082 0.002504
vt 0.012739 0.007938
vt 0.012718 0.007546
vt 0.018739 0.007546
vt 0.012812 0.008219
vt 0.012739 0.007938
vt 0.018748 0.007938
vt 0.012811 0.002504
vt 0.01878 0.002504
vt 0.018767 0.002897
vt 0.012892 0.002224
vt 0.018817 0.002224
vt 0.01878 0.002504
vt 0.012739 0.007938
vt 0.008064 0.007987
vt 0.008031 0.007594
vt 0.012812 0.008219
vt 0.008179 0.008267
vt 0.008064 0.007987
vt 0.008171 0.002504
vt 0.012811 0.002504
vt 0.01278 0.002897
vt 0.008297 0.002224
vt 0.012892 0.002224
vt 0.012811 0.002504
vt 0.99713 0.008442
vt 0.997129 0.008442
vt 0.99752 0.008386
vt 0.99752 0.008386
vt 0.99752 0.008386
vt 0.997795 0.008218
vt 0.99752 0.114458
vt 0.99686 0.114458
vt 0.996475 0.114402
vt 0.997795 0.114627
vt 0.997131 0.114627
vt 0.99686 0.114458
vt 0.994894 0.114458
vt 0.994542 0.114402
vt 0.996475 0.114402
vt 0.997131 0.114627
vt 0.995142 0.114626
vt 0.994894 0.114458
vt 0.991623 0.11441
vt 0.991343 0.114354
vt 0.994542 0.114402
vt 0.995142 0.114626
vt 0.991821 0.114578
vt 0.991623 0.11441
vt 0.987061 0.114457
vt 0.986881 0.114401
vt 0.991343 0.114354
vt 0.987188 0.114626
vt 0.987061 0.114457
vt 0.991623 0.11441
vt 0.981162 0.114458
vt 0.981082 0.114402
vt 0.986881 0.114401
vt 0.981219 0.114627
vt 0.981162 0.114458
vt 0.987061 0.114457
vt 0.973905 0.114458
vt 0.973887 0.114402
vt 0.981082 0.114402
vt 0.973917 0.114627
vt 0.973905 0.114458
vt 0.981162 0.114458
vt 0.026113 0.114402
vt 0.973887 0.114402
vt 0.973905 0.114458
vt 0.026095 0.114458
vt 0.973905 0.114458
vt 0.973917 0.114627
vt 0.026095 0.114458
vt 0.018838 0.114458
vt 0.018917 0.114402
vt 0.026083 0.114627
vt 0.018781 0.114627
vt 0.018838 0.114458
vt 0.018838 0.114458
vt 0.012939 0.114457
vt 0.013118 0.1144
vt 0.018781 0.114627
vt 0.012812 0.114626
vt 0.012939 0.114457
vt 0.012939 0.114457
vt 0.008376 0.11441
vt 0.008657 0.114354
vt 0.012812 0.114626
vt 0.008179 0.114578
vt 0.008376 0.11441
vt 0.005458 0.114402
vt 0.008657 0.114354
vt 0.008376 0.11441
vt 0.004858 0.114626
vt 0.005106 0.114458
vt 0.008376 0.11441
vt 0.003525 0.114402
vt 0.005458 0.114402
vt 0.005106 0.114458
vt 0.002869 0.114627
vt 0.00314 0.114458
vt 0.005106 0.114458
vt 0.00248 0.114458
vt 0.002871 0.114402
vt 0.003525 0.114402
vt 0.002205 0.114627
vt 0.00248 0.114458
vt 0.00314 0.114458
vt 0.002871 0.008442
vt 0.002871 0.008442
vt 0.00248 0.008386
vt 0.002205 0.008218
vt 0.00248 0.008386
vt 0.00248 0.008386
vt 0.00248 0.008386
vt 0.00314 0.008386
vt 0.003525 0.008442
vt 0.002205 0.008218
vt 0.002869 0.008218
vt 0.00314 0.008386
vt 0.005106 0.008386
vt 0.005458 0.008442
vt 0.003525 0.008442
vt 0.002869 0.008218
vt 0.004858 0.008218
vt 0.005106 0.008386
vt 0.008377 0.008435
vt 0.008657 0.008491
vt 0.005458 0.008442
vt 0.004858 0.008218
vt 0.008179 0.008267
vt 0.008377 0.008435
vt 0.012939 0.008387
vt 0.013119 0.008444
vt 0.008657 0.008491
vt 0.012812 0.008219
vt 0.012939 0.008387
vt 0.008377 0.008435
vt 0.018838 0.008386
vt 0.018917 0.008442
vt 0.013119 0.008444
vt 0.018781 0.008218
vt 0.018838 0.008386
vt 0.012939 0.008387
vt 0.026095 0.008386
vt 0.026113 0.008442
vt 0.018917 0.008442
vt 0.026083 0.008218
vt 0.026095 0.008386
vt 0.018838 0.008386
vt 0.973887 0.008442
vt 0.026113 0.008442
vt 0.026095 0.008386
vt 0.973905 0.008386
vt 0.026095 0.008386
vt 0.026083 0.008218
vt 0.973905 0.008386
vt 0.981162 0.008386
vt 0.981083 0.008442
vt 0.973917 0.008218
vt 0.981219 0.008218
vt 0.981162 0.008386
vt 0.981162 0.008386
vt 0.987061 0.008387
vt 0.986881 0.008444
vt 0.981219 0.008218
vt 0.987188 0.008218
vt 0.987061 0.008387
vt 0.987061 0.008387
vt 0.991623 0.008435
vt 0.991343 0.008491
vt 0.987188 0.008218
vt 0.991821 0.008267
vt 0.991623 0.008435
vt 0.994542 0.008442
vt 0.991343 0.008491
vt 0.991623 0.008435
vt 0.995142 0.008218
vt 0.994894 0.008386
vt 0.991623 0.008435
vt 0.996475 0.008442
vt 0.994542 0.008442
vt 0.994894 0.008386
vt 0.997131 0.008218
vt 0.99686 0.008386
vt 0.994894 0.008386
vt 0.99752 0.008386
vt 0.997129 0.008442
vt 0.996475 0.008442
vt 0.997795 0.008218
vt 0.99752 0.008386
vt 0.99686 0.008386
vt 0.996942 0.002
vt 0.996942 0.002
vt 0.997336 0.002056
vt 0.997621 0.002224
vt 0.997336 0.002056
vt 0.997336 0.002056
vt 0.997336 0.002056
vt 0.996679 0.002056
vt 0.996291 0.002
vt 0.997621 0.002224
vt 0.99696 0.002224
vt 0.996679 0.002056
vt 0.996679 0.002056
vt 0.994728 0.002056
vt 0.994373 0.002
vt 0.99696 0.002224
vt 0.994985 0.002224
vt 0.994728 0.002056
vt 0.994728 0.002056
vt 0.991499 0.002056
vt 0.991216 0.002
vt 0.994985 0.002224
vt 0.991703 0.002224
vt 0.991499 0.002056
vt 0.986977 0.002056
vt 0.986797 0.002
vt 0.991216 0.002
vt 0.987108 0.002224
vt 0.986977 0.002056
vt 0.991499 0.002056
vt 0.981124 0.002056
vt 0.981043 0.002
vt 0.986797 0.002
vt 0.981183 0.002224
vt 0.981124 0.002056
vt 0.986977 0.002056
vt 0.973897 0.002056
vt 0.973879 0.002
vt 0.981043 0.002
vt 0.973909 0.002224
vt 0.973897 0.002056
vt 0.981124 0.002056
vt 0.026121 0.002
vt 0.973879 0.002
vt 0.973897 0.002056
vt 0.026103 0.002056
vt 0.973897 0.002056
vt 0.973909 0.002224
vt 0.026103 0.002056
vt 0.018876 0.002056
vt 0.018957 0.002
vt 0.02609 0.002224
vt 0.018817 0.002224
vt 0.018876 0.002056
vt 0.018876 0.002056
vt 0.013023 0.002056
vt 0.013204 0.002
vt 0.018817 0.002224
vt 0.012892 0.002224
vt 0.013023 0.002056
vt 0.013023 0.002056
vt 0.008501 0.002056
vt 0.008784 0.002
vt 0.012892 0.002224
vt 0.008297 0.002224
vt 0.008501 0.002056
vt 0.005272 0.002056
vt 0.005627 0.002
vt 0.008784 0.002
vt 0.005015 0.002224
vt 0.005272 0.002056
vt 0.008501 0.002056
vt 0.003321 0.002056
vt 0.003709 0.002
vt 0.005627 0.002
vt 0.00304 0.002224
vt 0.003321 0.002056
vt 0.005272 0.002056
vt 0.002664 0.002056
vt 0.003058 0.002
vt 0.003709 0.002
vt 0.002379 0.002224
vt 0.002664 0.002056
vt 0.003321 0.002056
vt 0.003058 0.002
vt 0.003058 0.002
vt 0.002664 0.002056
vt 0.002379 0.002224
vt 0.002664 0.002056
vt 0.002664 0.002056
vt 0.002664 0.120788
vt 0.003321 0.120788
vt 0.003709 0.120845
vt 0.002379 0.12062
vt 0.00304 0.12062
vt 0.003321 0.120788
vt 0.003321 0.120788
vt 0.005272 0.120788
vt 0.005627 0.120845
vt 0.00304 0.12062
vt 0.005015 0.12062
vt 0.005272 0.120788
vt 0.005272 0.120788
vt 0.008501 0.120788
vt 0.008784 0.120845
vt 0.005015 0.12062
vt 0.008297 0.12062
vt 0.008501 0.120788
vt 0.013023 0.120788
vt 0.013203 0.120845
vt 0.008784 0.120845
vt 0.012892 0.12062
vt 0.013023 0.120788
vt 0.008501 0.120788
vt 0.018875 0.120788
vt 0.018957 0.120845
vt 0.013203 0.120845
vt 0.018817 0.12062
vt 0.018875 0.120788
vt 0.013023 0.120788
vt 0.026103 0.120788
vt 0.026121 0.120845
vt 0.018957 0.120845
vt 0.02609 0.12062
vt 0.026103 0.120788
vt 0.018875 0.120788
vt 0.973879 0.120845
vt 0.026121 0.120845
vt 0.026103 0.120788
vt 0.973909 0.12062
vt 0.973897 0.120788
vt 0.026103 0.120788
vt 0.973897 0.120788
vt 0.981124 0.120788
vt 0.981043 0.120845
vt 0.973909 0.12062
vt 0.981183 0.12062
vt 0.981124 0.120788
vt 0.981124 0.120788
vt 0.986977 0.120788
vt 0.986796 0.120845
vt 0.981183 0.12062
vt 0.987108 0.12062
vt 0.986977 0.120788
vt 0.986977 0.120788
vt 0.991499 0.120788
vt 0.991216 0.120845
vt 0.987108 0.12062
vt 0.991703 0.12062
vt 0.991499 0.120788
vt 0.994728 0.120788
vt 0.994373 0.120845
vt 0.991216 0.120845
vt 0.994985 0.12062
vt 0.994728 0.120788
vt 0.991499 0.120788
vt 0.996679 0.120788
vt 0.996291 0.120845
vt 0.994373 0.120845
vt 0.99696 0.12062
vt 0.996679 0.120788
vt 0.994728 0.120788
vt 0.997336 0.120788
vt 0.996942 0.120845
vt 0.996291 0.120845
vt 0.997621 0.12062
vt 0.997336 0.120788
vt 0.996679 0.120788
vt 0.9892 0.114349
vt 0.991343 0.114354
vt 0.986881 0.114401
vt 0.010799 0.114349
vt 0.014493 0.114396
vt 0.013118 0.1144
vt 0.0108 0.008495
vt 0.008657 0.008491
vt 0.013119 0.008444
vt 0.9892 0.008495
vt 0.985507 0.008449
vt 0.986881 0.008444
f 21/1 14/2 1/3
f 14/4 88/5 1/6
f 88/7 98/8 1/9
f 98/10 282/11 1/12
f 282/13 283/14 1/15
f 283/16 230/17 1/18
f 230/19 60/20 1/21
f 60/22 53/23 1/24
f 53/25 208/26 1/27
f 208/28 284/29 1/30
f 284/31 285/32 1/33
f 285/34 190/35 1/36
f 190/37 286/38 1/39
f 286/40 34/41 1/42
f 34/43 148/44 1/45
f 148/46 158/47 1/48
f 158/49 287/50 1/51
f 287/52 288/53 1/54
f 288/55 270/56 1/57
f 270/58 80/59 1/60
f 80/61 73/62 1/63
f 73/64 248/65 1/66
f 248/67 289/68 1/69
f 289/70 290/71 1/72
f 290/73 130/74 1/75
f 130/76 120/77 1/78
f 120/79 21/80 1/81
f 11/82 4/83 2/84
f 4/85 113/86 2/87
f 113/88 123/89 2/90
f 123/91 133/92 2/93
f 133/94 255/95 2/96
f 255/97 245/98 2/99
f 245/100 70/101 2/102
f 70/103 63/104 2/105
f 63/106 263/107 2/108
f 263/109 273/110 2/111
f 273/112 165/113 2/114
f 165/115 155/116 2/117
f 155/118 145/119 2/120
f 145/121 31/122 2/123
f 31/124 24/125 2/126
f 24/127 173/128 2/129
f 173/130 183/131 2/132
f 183/133 193/134 2/135
f 193/136 215/137 2/138
f 215/139 205/140 2/141
f 205/142 50/143 2/144
f 50/145 43/146 2/147
f 43/148 223/149 2/150
f 223/151 233/152 2/153
f 233/154 105/155 2/156
f 105/157 85/158 2/159
f 85/160 11/161 2/162
f 230/163 283/164 240/165
f 190/166 285/167 200/168
f 270/169 288/170 280/171
f 130/172 290/173 140/174
f 85/175 105/176 95/177
f 6/178 16/179 19/180
f 29/181 39/182 26/183
f 45/184 55/185 58/186
f 78/187 68/188 75/189
f 16/190 83/191 90/192
f 90/193 93/194 100/195
f 100/196 103/197 110/198
f 115/199 19/200 118/201
f 125/202 118/203 128/204
f 135/205 128/206 138/207
f 36/208 143/209 150/210
f 150/211 153/212 160/213
f 160/214 163/215 170/216
f 175/217 39/218 178/219
f 185/220 178/221 188/222
f 195/223 188/224 198/225
f 55/226 203/227 210/228
f 210/229 213/230 220/231
f 220/232 195/233 198/234
f 225/235 58/236 228/237
f 235/238 228/239 238/240
f 103/241 238/242 110/243
f 75/244 243/245 250/246
f 250/247 253/248 260/249
f 260/250 135/251 138/252
f 265/253 78/254 268/255
f 275/256 268/257 278/258
f 163/259 278/260 170/261
f 19/262 17/263 20/264
f 20/265 13/266 18/267
f 9/268 7/269 10/270
f 10/271 3/272 8/273
f 39/274 37/275 40/276
f 40/277 33/278 38/279
f 29/280 27/281 30/282
f 28/283 27/284 23/285
f 58/286 56/287 59/288
f 59/289 52/290 57/291
f 48/292 46/293 49/294
f 49/295 42/296 47/297
f 78/298 76/299 79/300
f 77/301 76/302 72/303
f 68/304 66/305 69/306
f 69/307 62/308 67/309
f 91/310 16/311 90/312
f 87/313 17/314 91/315
f 84/316 9/317 10/318
f 82/319 10/320 8/321
f 101/322 90/323 100/324
f 97/325 91/326 101/327
f 94/328 83/329 84/330
f 92/331 84/332 82/333
f 101/334 110/335 111/336
f 97/337 111/338 107/339
f 104/340 93/341 94/342
f 102/343 94/344 92/345
f 119/346 19/347 20/348
f 117/349 20/350 18/351
f 116/352 6/353 115/354
f 112/355 7/356 116/357
f 129/358 118/359 119/360
f 127/361 119/362 117/363
f 126/364 115/365 125/366
f 122/367 116/368 126/369
f 129/370 138/371 128/372
f 127/373 139/374 129/375
f 136/376 125/377 135/378
f 132/379 126/380 136/381
f 151/382 36/383 150/384
f 147/385 37/386 151/387
f 144/388 29/389 30/390
f 142/391 30/392 28/393
f 161/394 150/395 160/396
f 157/397 151/398 161/399
f 154/400 143/401 144/402
f 152/403 144/404 142/405
f 161/406 170/407 171/408
f 157/409 171/410 167/411
f 164/412 153/413 154/414
f 162/415 154/416 152/417
f 179/418 39/419 40/420
f 177/421 40/422 38/423
f 176/424 26/425 175/426
f 172/427 27/428 176/429
f 189/430 178/431 179/432
f 187/433 179/434 177/435
f 186/436 175/437 185/438
f 182/439 176/440 186/441
f 189/442 198/443 188/444
f 187/445 199/446 189/447
f 196/448 185/449 195/450
f 192/451 186/452 196/453
f 211/454 55/455 210/456
f 207/457 56/458 211/459
f 204/460 48/461 49/462
f 202/463 49/464 47/465
f 221/466 210/467 220/468
f 217/469 211/470 221/471
f 214/472 203/473 204/474
f 212/475 204/476 202/477
f 221/478 198/479 199/480
f 217/481 199/482 197/483
f 196/484 213/485 214/486
f 192/487 214/488 212/489
f 229/490 58/491 59/492
f 227/493 59/494 57/495
f 226/496 45/497 225/498
f 222/499 46/500 226/501
f 239/502 228/503 229/504
f 237/505 229/506 227/507
f 236/508 225/509 235/510
f 232/511 226/512 236/513
f 239/514 110/515 238/516
f 237/517 111/518 239/519
f 104/520 235/521 103/522
f 102/523 236/524 104/525
f 251/526 75/527 250/528
f 247/529 76/530 251/531
f 244/532 68/533 69/534
f 242/535 69/536 67/537
f 261/538 250/539 260/540
f 257/541 251/542 261/543
f 254/544 243/545 244/546
f 252/547 244/548 242/549
f 261/550 138/551 139/552
f 257/553 139/554 137/555
f 136/556 253/557 254/558
f 132/559 254/560 252/561
f 269/562 78/563 79/564
f 267/565 79/566 77/567
f 266/568 65/569 265/570
f 262/571 66/572 266/573
f 279/574 268/575 269/576
f 277/577 269/578 267/579
f 276/580 265/581 275/582
f 272/583 266/584 276/585
f 279/586 170/587 278/588
f 277/589 171/590 279/591
f 164/592 275/593 163/594
f 162/595 276/596 164/597
f 14/598 22/599 15/600
f 15/601 18/602 13/603
f 15/604 88/605 14/606
f 13/607 89/608 15/609
f 99/610 88/611 89/612
f 87/613 99/614 89/615
f 109/616 98/617 99/618
f 97/619 109/620 99/621
f 241/622 108/623 109/624
f 237/625 109/626 107/627
f 231/628 240/629 241/630
f 227/631 241/632 237/633
f 61/634 230/635 231/636
f 57/637 231/638 227/639
f 53/640 61/641 54/642
f 54/643 57/644 52/645
f 54/646 208/647 53/648
f 52/649 209/650 54/651
f 209/652 218/653 208/654
f 207/655 219/656 209/657
f 219/658 200/659 218/660
f 217/661 201/662 219/663
f 190/664 201/665 191/666
f 187/667 201/668 197/669
f 180/670 191/671 181/672
f 177/673 191/674 187/675
f 41/676 180/677 181/678
f 38/679 181/680 177/681
f 34/682 41/683 35/684
f 33/685 41/686 38/687
f 35/688 148/689 34/690
f 33/691 149/692 35/693
f 159/694 148/695 149/696
f 147/697 159/698 149/699
f 169/700 158/701 159/702
f 157/703 169/704 159/705
f 281/706 168/707 169/708
f 277/709 169/710 167/711
f 271/712 280/713 281/714
f 267/715 281/716 277/717
f 81/718 270/719 271/720
f 77/721 271/722 267/723
f 73/724 81/725 74/726
f 74/727 77/728 72/729
f 74/730 248/731 73/732
f 72/733 249/734 74/735
f 249/736 258/737 248/738
f 247/739 259/740 249/741
f 259/742 140/743 258/744
f 257/745 141/746 259/747
f 130/748 141/749 131/750
f 127/751 141/752 137/753
f 120/754 131/755 121/756
f 117/757 131/758 127/759
f 22/760 120/761 121/762
f 18/763 121/764 117/765
f 4/766 12/767 5/768
f 3/769 12/770 8/771
f 5/772 113/773 4/774
f 3/775 114/776 5/777
f 114/778 123/779 113/780
f 112/781 124/782 114/783
f 124/784 133/785 123/786
f 122/787 134/788 124/789
f 256/790 133/791 134/792
f 252/793 134/794 132/795
f 246/796 255/797 256/798
f 242/799 256/800 252/801
f 71/802 245/803 246/804
f 67/805 246/806 242/807
f 63/808 71/809 64/810
f 64/811 67/812 62/813
f 64/814 263/815 63/816
f 62/817 264/818 64/819
f 264/820 273/821 263/822
f 262/823 274/824 264/825
f 274/826 165/827 273/828
f 272/829 166/830 274/831
f 156/832 165/833 166/834
f 152/835 166/836 162/837
f 146/838 155/839 156/840
f 142/841 156/842 152/843
f 32/844 145/845 146/846
f 28/847 146/848 142/849
f 24/850 32/851 25/852
f 23/853 32/854 28/855
f 25/856 173/857 24/858
f 23/859 174/860 25/861
f 174/862 183/863 173/864
f 172/865 184/866 174/867
f 184/868 193/869 183/870
f 182/871 194/872 184/873
f 216/874 193/875 194/876
f 212/877 194/878 192/879
f 206/880 215/881 216/882
f 202/883 216/884 212/885
f 51/886 205/887 206/888
f 47/889 206/890 202/891
f 43/892 51/893 44/894
f 42/895 51/896 47/897
f 44/898 223/899 43/900
f 42/901 224/902 44/903
f 224/904 233/905 223/906
f 222/907 234/908 224/909
f 234/910 105/911 233/912
f 232/913 106/914 234/915
f 96/916 105/917 106/918
f 92/919 106/920 102/921
f 86/922 95/923 96/924
f 82/925 96/926 92/927
f 12/928 85/929 86/930
f 8/931 86/932 82/933
f 282/934 240/935 283/936
f 98/937 108/938 282/939
f 285/940 218/941 200/942
f 208/943 218/944 284/945
f 287/946 280/947 288/948
f 180/949 286/950 190/951
f 158/952 168/953 287/954
f 290/955 258/956 140/957
f 248/958 258/959 289/960
f 6/961 9/962 16/963
f 29/964 36/965 39/966
f 45/967 48/968 55/969
f 78/970 65/971 68/972
f 16/973 9/974 83/975
f 90/976 83/977 93/978
f 100/979 93/980 103/981
f 115/982 6/983 19/984
f 125/985 115/986 118/987
f 135/988 125/989 128/990
f 36/991 29/992 143/993
f 150/994 143/995 153/996
f 160/997 153/998 163/999
f 175/1000 26/1001 39/1002
f 185/1003 175/1004 178/1005
f 195/1006 185/1007 188/1008
f 55/1009 48/1010 203/1011
f 210/1012 203/1013 213/1014
f 220/1015 213/1016 195/1017
f 225/1018 45/1019 58/1020
f 235/1021 225/1022 228/1023
f 103/1024 235/1025 238/1026
f 75/1027 68/1028 243/1029
f 250/1030 243/1031 253/1032
f 260/1033 253/1034 135/1035
f 265/1036 65/1037 78/1038
f 275/1039 265/1040 268/1041
f 163/1042 275/1043 278/1044
f 19/1045 16/1046 17/1047
f 20/1048 17/1049 13/1050
f 9/1051 6/1052 7/1053
f 10/1054 7/1055 3/1056
f 39/1057 36/1058 37/1059
f 40/1060 37/1061 33/1062
f 29/1063 26/1064 27/1065
f 28/1066 30/1067 27/1068
f 58/1069 55/1070 56/1071
f 59/1072 56/1073 52/1074
f 48/1075 45/1076 46/1077
f 49/1078 46/1079 42/1080
f 78/1081 75/1082 76/1083
f 77/1084 79/1085 76/1086
f 68/1087 65/1088 66/1089
f 69/1090 66/1091 62/1092
f 91/1093 17/1094 16/1095
f 87/1096 13/1097 17/1098
f 84/1099 83/1100 9/1101
f 82/1102 84/1103 10/1104
f 101/1105 91/1106 90/1107
f 97/1108 87/1109 91/1110
f 94/1111 93/1112 83/1113
f 92/1114 94/1115 84/1116
f 101/1117 100/1118 110/1119
f 97/1120 101/1121 111/1122
f 104/1123 103/1124 93/1125
f 102/1126 104/1127 94/1128
f 119/1129 118/1130 19/1131
f 117/1132 119/1133 20/1134
f 116/1135 7/1136 6/1137
f 112/1138 3/1139 7/1140
f 129/1141 128/1142 118/1143
f 127/1144 129/1145 119/1146
f 126/1147 116/1148 115/1149
f 122/1150 112/1151 116/1152
f 129/1153 139/1154 138/1155
f 127/1156 137/1157 139/1158
f 136/1159 126/1160 125/1161
f 132/1162 122/1163 126/1164
f 151/1165 37/1166 36/1167
f 147/1168 33/1169 37/1170
f 144/1171 143/1172 29/1173
f 142/1174 144/1175 30/1176
f 161/1177 151/1178 150/1179
f 157/1180 147/1181 151/1182
f 154/1183 153/1184 143/1185
f 152/1186 154/1187 144/1188
f 161/1189 160/1190 170/1191
f 157/1192 161/1193 171/1194
f 164/1195 163/1196 153/1197
f 162/1198 164/1199 154/1200
f 179/1201 178/1202 39/1203
f 177/1204 179/1205 40/1206
f 176/1207 27/1208 26/1209
f 172/1210 23/1211 27/1212
f 189/1213 188/1214 178/1215
f 187/1216 189/1217 179/1218
f 186/1219 176/1220 175/1221
f 182/1222 172/1223 176/1224
f 189/1225 199/1226 198/1227
f 187/1228 197/1229 199/1230
f 196/1231 186/1232 185/1233
f 192/1234 182/1235 186/1236
f 211/1237 56/1238 55/1239
f 207/1240 52/1241 56/1242
f 204/1243 203/1244 48/1245
f 202/1246 204/1247 49/1248
f 221/1249 211/1250 210/1251
f 217/1252 207/1253 211/1254
f 214/1255 213/1256 203/1257
f 212/1258 214/1259 204/1260
f 221/1261 220/1262 198/1263
f 217/1264 221/1265 199/1266
f 196/1267 195/1268 213/1269
f 192/1270 196/1271 214/1272
f 229/1273 228/1274 58/1275
f 227/1276 229/1277 59/1278
f 226/1279 46/1280 45/1281
f 222/1282 42/1283 46/1284
f 239/1285 238/1286 228/1287
f 237/1288 239/1289 229/1290
f 236/1291 226/1292 225/1293
f 232/1294 222/1295 226/1296
f 239/1297 111/1298 110/1299
f 237/1300 107/1301 111/1302
f 104/1303 236/1304 235/1305
f 102/1306 232/1307 236/1308
f 251/1309 76/1310 75/1311
f 247/1312 72/1313 76/1314
f 244/1315 243/1316 68/1317
f 242/1318 244/1319 69/1320
f 261/1321 251/1322 250/1323
f 257/1324 247/1325 251/1326
f 254/1327 253/1328 243/1329
f 252/1330 254/1331 244/1332
f 261/1333 260/1334 138/1335
f 257/1336 261/1337 139/1338
f 136/1339 135/1340 253/1341
f 132/1342 136/1343 254/1344
f 269/1345 268/1346 78/1347
f 267/1348 269/1349 79/1350
f 266/1351 66/1352 65/1353
f 262/1354 62/1355 66/1356
f 279/1357 278/1358 268/1359
f 277/1360 279/1361 269/1362
f 276/1363 266/1364 265/1365
f 272/1366 262/1367 266/1368
f 279/1369 171/1370 170/1371
f 277/1372 167/1373 171/1374
f 164/1375 276/1376 275/1377
f 162/1378 272/1379 276/1380
f 14/1381 21/1382 22/1383
f 15/1384 22/1385 18/1386
f 15/1387 89/1388 88/1389
f 13/1390 87/1391 89/1392
f 99/1393 98/1394 88/1395
f 87/1396 97/1397 99/1398
f 109/1399 108/1400 98/1401
f 97/1402 107/1403 109/1404
f 241/1405 240/1406 108/1407
f 237/1408 241/1409 109/1410
f 231/1411 230/1412 240/1413
f 227/1414 231/1415 241/1416
f 61/1417 60/1418 230/1419
f 57/1420 61/1421 231/1422
f 53/1423 60/1424 61/1425
f 54/1426 61/1427 57/1428
f 54/1429 209/1430 208/1431
f 52/1432 207/1433 209/1434
f 209/1435 219/1436 218/1437
f 207/1438 217/1439 219/1440
f 219/1441 201/1442 200/1443
f 217/1444 197/1445 201/1446
f 190/1447 200/1448 201/1449
f 187/1450 191/1451 201/1452
f 180/1453 190/1454 191/1455
f 177/1456 181/1457 191/1458
f 41/1459 286/1460 180/1461
f 38/1462 41/1463 181/1464
f 34/1465 286/1466 41/1467
f 33/1468 35/1469 41/1470
f 35/1471 149/1472 148/1473
f 33/1474 147/1475 149/1476
f 159/1477 158/1478 148/1479
f 147/1480 157/1481 159/1482
f 169/1483 168/1484 158/1485
f 157/1486 167/1487 169/1488
f 281/1489 280/1490 168/1491
f 277/1492 281/1493 169/1494
f 271/1495 270/1496 280/1497
f 267/1498 271/1499 281/1500
f 81/1501 80/1502 270/1503
f 77/1504 81/1505 271/1506
f 73/1507 80/1508 81/1509
f 74/1510 81/1511 77/1512
f 74/1513 249/1514 248/1515
f 72/1516 247/1517 249/1518
f 249/1519 259/1520 258/1521
f 247/1522 257/1523 259/1524
f 259/1525 141/1526 140/1527
f 257/1528 137/1529 141/1530
f 130/1531 140/1532 141/1533
f 127/1534 131/1535 141/1536
f 120/1537 130/1538 131/1539
f 117/1540 121/1541 131/1542
f 22/1543 21/1544 120/1545
f 18/1546 22/1547 121/1548
f 4/1549 11/1550 12/1551
f 3/1552 5/1553 12/1554
f 5/1555 114/1556 113/1557
f 3/1558 112/1559 114/1560
f 114/1561 124/1562 123/1563
f 112/1564 122/1565 124/1566
f 124/1567 134/1568 133/1569
f 122/1570 132/1571 134/1572
f 256/1573 255/1574 133/1575
f 252/1576 256/1577 134/1578
f 246/1579 245/1580 255/1581
f 242/1582 246/1583 256/1584
f 71/1585 70/1586 245/1587
f 67/1588 71/1589 246/1590
f 63/1591 70/1592 71/1593
f 64/1594 71/1595 67/1596
f 64/1597 264/1598 263/1599
f 62/1600 262/1601 264/1602
f 264/1603 274/1604 273/1605
f 262/1606 272/1607 274/1608
f 274/1609 166/1610 165/1611
f 272/1612 162/1613 166/1614
f 156/1615 155/1616 165/1617
f 152/1618 156/1619 166/1620
f 146/1621 145/1622 155/1623
f 142/1624 146/1625 156/1626
f 32/1627 31/1628 145/1629
f 28/1630 32/1631 146/1632
f 24/1633 31/1634 32/1635
f 23/1636 25/1637 32/1638
f 25/1639 174/1640 173/1641
f 23/1642 172/1643 174/1644
f 174/1645 184/1646 183/1647
f 172/1648 182/1649 184/1650
f 184/1651 194/1652 193/1653
f 182/1654 192/1655 194/1656
f 216/1657 215/1658 193/1659
f 212/1660 216/1661 194/1662
f 206/1663 205/1664 215/1665
f 202/1666 206/1667 216/1668
f 51/1669 50/1670 205/1671
f 47/1672 51/1673 206/1674
f 43/1675 50/1676 51/1677
f 42/1678 44/1679 51/1680
f 44/1681 224/1682 223/1683
f 42/1684 222/1685 224/1686
f 224/1687 234/1688 233/1689
f 222/1690 232/1691 234/1692
f 234/1693 106/1694 105/1695
f 232/1696 102/1697 106/1698
f 96/1699 95/1700 105/1701
f 92/1702 96/1703 106/1704
f 86/1705 85/1706 95/1707
f 82/1708 86/1709 96/1710
f 12/1711 11/1712 85/1713
f 8/1714 12/1715 86/1716
f 282/1717 108/1718 240/1719
f 285/1720 284/1721 218/1722
f 287/1723 168/1724 280/1725
f 290/1726 289/1727 258/1728
