o Blender002_Button001
v -0.0116 -0.0563055 -0.069202
v -0.011854 -0.0563055 -0.067276
v -0.012597 -0.0563055 -0.065481
v -0.01378 -0.0563055 -0.06394
v -0.015321 -0.0563055 -0.062757
v -0.017115 -0.0563055 -0.062014
v -0.019041 -0.0563055 -0.06176
v -0.020967 -0.0563055 -0.062014
v -0.022762 -0.0563055 -0.062757
v -0.024303 -0.0563055 -0.06394
v -0.025485 -0.0563055 -0.065481
v -0.026229 -0.0563055 -0.067276
v -0.026482 -0.0563055 -0.069202
v -0.026229 -0.0563055 -0.071128
v -0.025485 -0.0563055 -0.072922
v -0.024303 -0.0563055 -0.074463
v -0.022762 -0.0563055 -0.075646
v -0.020967 -0.0563055 -0.076389
v -0.019041 -0.0563055 -0.076643
v -0.017115 -0.0563055 -0.076389
v -0.015321 -0.0563055 -0.075646
v -0.01378 -0.0563055 -0.074463
v -0.012597 -0.0563055 -0.072922
v -0.011854 -0.0563055 -0.071128
v -0.019041 -0.0563055 -0.069202
v -0.019041 -0.0662015 -0.069202
v -0.012746 -0.0662015 -0.069202
v -0.0116 -0.0650655 -0.069202
v -0.011936 -0.0658685 -0.069202
v -0.011854 -0.0650655 -0.067276
v -0.01296 -0.0662015 -0.067572
v -0.012178 -0.0658685 -0.067363
v -0.013589 -0.0662015 -0.066054
v -0.012597 -0.0650655 -0.065481
v -0.012888 -0.0658685 -0.065649
v -0.01378 -0.0650655 -0.06394
v -0.01459 -0.0662015 -0.06475
v -0.014017 -0.0658685 -0.064177
v -0.015894 -0.0662015 -0.06375
v -0.015321 -0.0650655 -0.062757
v -0.015488 -0.0658685 -0.063048
v -0.017115 -0.0650655 -0.062014
v -0.017412 -0.0662015 -0.063121
v -0.017202 -0.0658685 -0.062338
v -0.019041 -0.0662015 -0.062906
v -0.019041 -0.0650655 -0.06176
v -0.019041 -0.0658685 -0.062096
v -0.020967 -0.0650655 -0.062014
v -0.020671 -0.0662015 -0.063121
v -0.02088 -0.0658685 -0.062338
v -0.022189 -0.0662015 -0.06375
v -0.022762 -0.0650655 -0.062757
v -0.022594 -0.0658685 -0.063048
v -0.024303 -0.0650655 -0.06394
v -0.023493 -0.0662015 -0.06475
v -0.024066 -0.0658685 -0.064177
v -0.024493 -0.0662015 -0.066054
v -0.025485 -0.0650655 -0.065481
v -0.025195 -0.0658685 -0.065649
v -0.026229 -0.0650655 -0.067276
v -0.025122 -0.0662015 -0.067572
v -0.025905 -0.0658685 -0.067363
v -0.025337 -0.0662015 -0.069202
v -0.026482 -0.0650655 -0.069202
v -0.026147 -0.0658685 -0.069202
v -0.026229 -0.0650655 -0.071128
v -0.025122 -0.0662015 -0.070831
v -0.025905 -0.0658685 -0.071041
v -0.024493 -0.0662015 -0.072349
v -0.025485 -0.0650655 -0.072922
v -0.025195 -0.0658685 -0.072754
v -0.024303 -0.0650655 -0.074463
v -0.023493 -0.0662015 -0.073653
v -0.024066 -0.0658685 -0.074226
v -0.022189 -0.0662015 -0.074653
v -0.022762 -0.0650655 -0.075646
v -0.022594 -0.0658685 -0.075355
v -0.020967 -0.0650655 -0.076389
v -0.020671 -0.0662015 -0.075282
v -0.02088 -0.0658685 -0.076065
v -0.019041 -0.0662015 -0.075497
v -0.019041 -0.0650655 -0.076643
v -0.019041 -0.0658685 -0.076307
v -0.017115 -0.0650655 -0.076389
v -0.017412 -0.0662015 -0.075282
v -0.017202 -0.0658685 -0.076065
v -0.015894 -0.0662015 -0.074653
v -0.015321 -0.0650655 -0.075646
v -0.015488 -0.0658685 -0.075355
v -0.01378 -0.0650655 -0.074463
v -0.01459 -0.0662015 -0.073653
v -0.014017 -0.0658685 -0.074226
v -0.013589 -0.0662015 -0.072349
v -0.012597 -0.0650655 -0.072922
v -0.012888 -0.0658685 -0.072754
v -0.011854 -0.0650655 -0.071128
v -0.01296 -0.0662015 -0.070831
v -0.012178 -0.0658685 -0.071041
vt 0.465217 0.469024
vt 0.461102 0.500272
vt 0.344488 0.469024
vt 0.461102 0.500272
vt 0.449042 0.529389
vt 0.344488 0.469024
vt 0.449042 0.529389
vt 0.429857 0.554392
vt 0.344488 0.469024
vt 0.572966 0.87555
vt 0.584548 0.870753
vt 0.584548 0.870753
vt 0.404853 0.573579
vt 0.375735 0.585639
vt 0.344488 0.469024
vt 0.548108 0.87555
vt 0.560537 0.877186
vt 0.560537 0.877186
vt 0.344488 0.589753
vt 0.313242 0.585639
vt 0.344488 0.469024
vt 0.526581 0.863121
vt 0.536526 0.870753
vt 0.536526 0.870753
vt 0.284124 0.573579
vt 0.25912 0.554392
vt 0.344488 0.469024
vt 0.514152 0.841594
vt 0.518949 0.853176
vt 0.518949 0.853176
vt 0.239935 0.529389
vt 0.227873 0.500272
vt 0.344488 0.469024
vt 0.514152 0.816736
vt 0.512516 0.829165
vt 0.512516 0.829165
vt 0.22376 0.469024
vt 0.227873 0.437777
vt 0.344488 0.469024
vt 0.227873 0.437777
vt 0.239935 0.40866
vt 0.344488 0.469024
vt 0.239935 0.40866
vt 0.25912 0.383656
vt 0.344488 0.469024
vt 0.25912 0.383656
vt 0.284124 0.36447
vt 0.344488 0.469024
vt 0.284124 0.36447
vt 0.313242 0.352409
vt 0.344488 0.469024
vt 0.313242 0.352409
vt 0.344488 0.348296
vt 0.344488 0.469024
vt 0.344488 0.348296
vt 0.375735 0.352409
vt 0.344488 0.469024
vt 0.375735 0.352409
vt 0.404853 0.36447
vt 0.344488 0.469024
vt 0.404853 0.36447
vt 0.429857 0.383656
vt 0.344488 0.469024
vt 0.429857 0.383656
vt 0.449042 0.40866
vt 0.344488 0.469024
vt 0.449042 0.40866
vt 0.461104 0.437777
vt 0.344488 0.469024
vt 0.606922 0.841594
vt 0.608558 0.829165
vt 0.608558 0.829165
vt 0.608558 0.829165
vt 0.560537 0.829165
vt 0.606922 0.841594
vt 0.461104 0.437777
vt 0.465217 0.469024
vt 0.344488 0.469024
vt 0.606922 0.841594
vt 0.560537 0.829165
vt 0.602125 0.853176
vt 0.594493 0.863121
vt 0.602125 0.853176
vt 0.602125 0.853176
vt 0.602125 0.853176
vt 0.560537 0.829165
vt 0.594493 0.863121
vt 0.429857 0.554392
vt 0.404853 0.573579
vt 0.344488 0.469024
vt 0.594493 0.863121
vt 0.560537 0.829165
vt 0.584548 0.870753
vt 0.584548 0.870753
vt 0.594493 0.863121
vt 0.594493 0.863121
vt 0.584548 0.870753
vt 0.560537 0.829165
vt 0.572966 0.87555
vt 0.375735 0.585639
vt 0.344488 0.589753
vt 0.344488 0.469024
vt 0.572966 0.87555
vt 0.560537 0.829165
vt 0.560537 0.877186
vt 0.560537 0.877186
vt 0.572966 0.87555
vt 0.572966 0.87555
vt 0.560537 0.877186
vt 0.560537 0.829165
vt 0.548108 0.87555
vt 0.313242 0.585639
vt 0.284124 0.573579
vt 0.344488 0.469024
vt 0.548108 0.87555
vt 0.560537 0.829165
vt 0.536526 0.870753
vt 0.536526 0.870753
vt 0.548108 0.87555
vt 0.548108 0.87555
vt 0.536526 0.870753
vt 0.560537 0.829165
vt 0.526581 0.863121
vt 0.25912 0.554392
vt 0.239935 0.529389
vt 0.344488 0.469024
vt 0.526581 0.863121
vt 0.560537 0.829165
vt 0.518949 0.853176
vt 0.518949 0.853176
vt 0.526581 0.863121
vt 0.526581 0.863121
vt 0.518949 0.853176
vt 0.560537 0.829165
vt 0.514152 0.841594
vt 0.227873 0.500272
vt 0.22376 0.469024
vt 0.344488 0.469024
vt 0.514152 0.841594
vt 0.560537 0.829165
vt 0.512516 0.829165
vt 0.512516 0.829165
vt 0.514152 0.841594
vt 0.514152 0.841594
vt 0.512516 0.829165
vt 0.560537 0.829165
vt 0.514152 0.816736
vt 0.518949 0.805155
vt 0.514152 0.816736
vt 0.514152 0.816736
vt 0.514152 0.816736
vt 0.560537 0.829165
vt 0.518949 0.805155
vt 0.526581 0.795209
vt 0.518949 0.805155
vt 0.518949 0.805155
vt 0.518949 0.805155
vt 0.560537 0.829165
vt 0.526581 0.795209
vt 0.536526 0.787578
vt 0.526581 0.795209
vt 0.526581 0.795209
vt 0.526581 0.795209
vt 0.560537 0.829165
vt 0.536526 0.787578
vt 0.548108 0.78278
vt 0.536526 0.787578
vt 0.536526 0.787578
vt 0.536526 0.787578
vt 0.560537 0.829165
vt 0.548108 0.78278
vt 0.560537 0.781144
vt 0.548108 0.78278
vt 0.548108 0.78278
vt 0.548108 0.78278
vt 0.560537 0.829165
vt 0.560537 0.781144
vt 0.572966 0.78278
vt 0.560537 0.781144
vt 0.560537 0.781144
vt 0.560537 0.781144
vt 0.560537 0.829165
vt 0.572966 0.78278
vt 0.584548 0.787578
vt 0.572966 0.78278
vt 0.572966 0.78278
vt 0.572966 0.78278
vt 0.560537 0.829165
vt 0.584548 0.787578
vt 0.594493 0.795209
vt 0.584548 0.787578
vt 0.584548 0.787578
vt 0.584548 0.787578
vt 0.560537 0.829165
vt 0.594493 0.795209
vt 0.602125 0.805155
vt 0.594493 0.795209
vt 0.594493 0.795209
vt 0.594493 0.795209
vt 0.560537 0.829165
vt 0.602125 0.805155
vt 0.606922 0.816736
vt 0.602125 0.805155
vt 0.602125 0.805155
vt 0.602125 0.805155
vt 0.560537 0.829165
vt 0.606922 0.816736
vt 0.606922 0.816736
vt 0.560537 0.829165
vt 0.608558 0.829165
vt 0.602125 0.853176
vt 0.606922 0.841594
vt 0.606922 0.841594
vt 0.482329 0.505959
vt 0.480756 0.469024
vt 0.487191 0.469024
vt 0.480756 0.469024
vt 0.461102 0.500272
vt 0.465217 0.469024
vt 0.445395 0.569931
vt 0.462499 0.537158
vt 0.468073 0.540376
vt 0.440844 0.565379
vt 0.449042 0.529389
vt 0.462499 0.537158
vt 0.415841 0.592609
vt 0.379757 0.600648
vt 0.412622 0.587035
vt 0.379757 0.600648
vt 0.404853 0.573579
vt 0.412622 0.587035
vt 0.307554 0.606865
vt 0.344488 0.605292
vt 0.344488 0.611727
vt 0.30922 0.600648
vt 0.344488 0.589753
vt 0.344488 0.605292
vt 0.243582 0.569931
vt 0.276355 0.587035
vt 0.273136 0.592609
vt 0.248133 0.565379
vt 0.284124 0.573579
vt 0.276355 0.587035
vt 0.220904 0.540376
vt 0.212865 0.504292
vt 0.226478 0.537158
vt 0.212865 0.504292
vt 0.239935 0.529389
vt 0.226478 0.537158
vt 0.206648 0.43209
vt 0.208221 0.469024
vt 0.201785 0.469024
vt 0.208221 0.469024
vt 0.227873 0.437777
vt 0.22376 0.469024
vt 0.243582 0.368118
vt 0.226478 0.400891
vt 0.220904 0.397673
vt 0.248133 0.372669
vt 0.239935 0.40866
vt 0.226478 0.400891
vt 0.273136 0.34544
vt 0.30922 0.337401
vt 0.276355 0.351013
vt 0.30922 0.337401
vt 0.284124 0.36447
vt 0.276355 0.351013
vt 0.344488 0.326321
vt 0.379756 0.337401
vt 0.344488 0.332757
vt 0.344488 0.332757
vt 0.375735 0.352409
vt 0.344488 0.348296
vt 0.445395 0.368118
vt 0.412622 0.351013
vt 0.415841 0.34544
vt 0.440844 0.372669
vt 0.404853 0.36447
vt 0.412622 0.351013
vt 0.468073 0.397673
vt 0.476112 0.433756
vt 0.462499 0.400891
vt 0.476112 0.433756
vt 0.449042 0.40866
vt 0.462499 0.400891
vt 0.468073 0.540376
vt 0.476112 0.504292
vt 0.482329 0.505959
vt 0.476112 0.504292
vt 0.449042 0.529389
vt 0.461102 0.500272
vt 0.445395 0.569931
vt 0.412622 0.587035
vt 0.440844 0.565379
vt 0.440844 0.565379
vt 0.404853 0.573579
vt 0.429857 0.554392
vt 0.381423 0.606865
vt 0.344488 0.605292
vt 0.379757 0.600648
vt 0.379757 0.600648
vt 0.344488 0.589753
vt 0.375735 0.585639
vt 0.273136 0.592609
vt 0.30922 0.600648
vt 0.307554 0.606865
vt 0.276355 0.587035
vt 0.313242 0.585639
vt 0.30922 0.600648
vt 0.220904 0.540376
vt 0.248133 0.565379
vt 0.243582 0.569931
vt 0.248133 0.565379
vt 0.239935 0.529389
vt 0.25912 0.554392
vt 0.206648 0.505959
vt 0.208221 0.469024
vt 0.212865 0.504292
vt 0.208221 0.469024
vt 0.227873 0.500272
vt 0.212865 0.504292
vt 0.220904 0.397673
vt 0.212865 0.433756
vt 0.206648 0.43209
vt 0.212865 0.433756
vt 0.239935 0.40866
vt 0.227873 0.437777
vt 0.243582 0.368118
vt 0.276355 0.351013
vt 0.248133 0.372669
vt 0.248133 0.372669
vt 0.284124 0.36447
vt 0.25912 0.383656
vt 0.344488 0.326321
vt 0.30922 0.337401
vt 0.307554 0.331184
vt 0.344488 0.332757
vt 0.313242 0.352409
vt 0.30922 0.337401
vt 0.415841 0.34544
vt 0.379756 0.337401
vt 0.381423 0.331184
vt 0.379756 0.337401
vt 0.404853 0.36447
vt 0.375735 0.352409
vt 0.468073 0.397673
vt 0.440844 0.372669
vt 0.445395 0.368118
vt 0.440844 0.372669
vt 0.449042 0.40866
vt 0.429857 0.383656
vt 0.461104 0.437777
vt 0.480756 0.469024
vt 0.465217 0.469024
vt 0.480756 0.469024
vt 0.482329 0.43209
vt 0.487191 0.469024
vt 0.608558 0.829165
vt 0.606922 0.816736
vt 0.606922 0.816736
vt 0.572966 0.87555
vt 0.572966 0.87555
vt 0.584548 0.870753
vt 0.548108 0.87555
vt 0.548108 0.87555
vt 0.560537 0.877186
vt 0.526581 0.863121
vt 0.526581 0.863121
vt 0.536526 0.870753
vt 0.514152 0.841594
vt 0.514152 0.841594
vt 0.518949 0.853176
vt 0.514152 0.816736
vt 0.514152 0.816736
vt 0.512516 0.829165
vt 0.606922 0.841594
vt 0.606922 0.841594
vt 0.608558 0.829165
vt 0.594493 0.863121
vt 0.594493 0.863121
vt 0.602125 0.853176
vt 0.584548 0.870753
vt 0.584548 0.870753
vt 0.594493 0.863121
vt 0.560537 0.877186
vt 0.560537 0.877186
vt 0.572966 0.87555
vt 0.536526 0.870753
vt 0.536526 0.870753
vt 0.548108 0.87555
vt 0.518949 0.853176
vt 0.518949 0.853176
vt 0.526581 0.863121
vt 0.512516 0.829165
vt 0.512516 0.829165
vt 0.514152 0.841594
vt 0.518949 0.805155
vt 0.518949 0.805155
vt 0.514152 0.816736
vt 0.526581 0.795209
vt 0.526581 0.795209
vt 0.518949 0.805155
vt 0.536526 0.787578
vt 0.536526 0.787578
vt 0.526581 0.795209
vt 0.548108 0.78278
vt 0.548108 0.78278
vt 0.536526 0.787578
vt 0.560537 0.781144
vt 0.560537 0.781144
vt 0.548108 0.78278
vt 0.572966 0.78278
vt 0.572966 0.78278
vt 0.560537 0.781144
vt 0.584548 0.787578
vt 0.584548 0.787578
vt 0.572966 0.78278
vt 0.594493 0.795209
vt 0.594493 0.795209
vt 0.584548 0.787578
vt 0.602125 0.805155
vt 0.602125 0.805155
vt 0.594493 0.795209
vt 0.606922 0.816736
vt 0.606922 0.816736
vt 0.602125 0.805155
vt 0.602125 0.853176
vt 0.602125 0.853176
vt 0.606922 0.841594
vt 0.482329 0.505959
vt 0.476112 0.504292
vt 0.480756 0.469024
vt 0.480756 0.469024
vt 0.476112 0.504292
vt 0.461102 0.500272
vt 0.445395 0.569931
vt 0.440844 0.565379
vt 0.462499 0.537158
vt 0.440844 0.565379
vt 0.429857 0.554392
vt 0.449042 0.529389
vt 0.415841 0.592609
vt 0.381423 0.606865
vt 0.379757 0.600648
vt 0.379757 0.600648
vt 0.375735 0.585639
vt 0.404853 0.573579
vt 0.307554 0.606865
vt 0.30922 0.600648
vt 0.344488 0.605292
vt 0.30922 0.600648
vt 0.313242 0.585639
vt 0.344488 0.589753
vt 0.243582 0.569931
vt 0.248133 0.565379
vt 0.276355 0.587035
vt 0.248133 0.565379
vt 0.25912 0.554392
vt 0.284124 0.573579
vt 0.220904 0.540376
vt 0.206648 0.505959
vt 0.212865 0.504292
vt 0.212865 0.504292
vt 0.227873 0.500272
vt 0.239935 0.529389
vt 0.206648 0.43209
vt 0.212865 0.433756
vt 0.208221 0.469024
vt 0.208221 0.469024
vt 0.212865 0.433756
vt 0.227873 0.437777
vt 0.243582 0.368118
vt 0.248133 0.372669
vt 0.226478 0.400891
vt 0.248133 0.372669
vt 0.25912 0.383656
vt 0.239935 0.40866
vt 0.273136 0.34544
vt 0.307554 0.331184
vt 0.30922 0.337401
vt 0.30922 0.337401
vt 0.313242 0.352409
vt 0.284124 0.36447
vt 0.344488 0.326321
vt 0.381423 0.331184
vt 0.379756 0.337401
vt 0.344488 0.332757
vt 0.379756 0.337401
vt 0.375735 0.352409
vt 0.445395 0.368118
vt 0.440844 0.372669
vt 0.412622 0.351013
vt 0.440844 0.372669
vt 0.429857 0.383656
vt 0.404853 0.36447
vt 0.468073 0.397673
vt 0.482329 0.43209
vt 0.476112 0.433756
vt 0.476112 0.433756
vt 0.461104 0.437777
vt 0.449042 0.40866
vt 0.468073 0.540376
vt 0.462499 0.537158
vt 0.476112 0.504292
vt 0.476112 0.504292
vt 0.462499 0.537158
vt 0.449042 0.529389
vt 0.445395 0.569931
vt 0.415841 0.592609
vt 0.412622 0.587035
vt 0.440844 0.565379
vt 0.412622 0.587035
vt 0.404853 0.573579
vt 0.381423 0.606865
vt 0.344488 0.611727
vt 0.344488 0.605292
vt 0.379757 0.600648
vt 0.344488 0.605292
vt 0.344488 0.589753
vt 0.273136 0.592609
vt 0.276355 0.587035
vt 0.30922 0.600648
vt 0.276355 0.587035
vt 0.284124 0.573579
vt 0.313242 0.585639
vt 0.220904 0.540376
vt 0.226478 0.537158
vt 0.248133 0.565379
vt 0.248133 0.565379
vt 0.226478 0.537158
vt 0.239935 0.529389
vt 0.206648 0.505959
vt 0.201785 0.469024
vt 0.208221 0.469024
vt 0.208221 0.469024
vt 0.22376 0.469024
vt 0.227873 0.500272
vt 0.220904 0.397673
vt 0.226478 0.400891
vt 0.212865 0.433756
vt 0.212865 0.433756
vt 0.226478 0.400891
vt 0.239935 0.40866
vt 0.243582 0.368118
vt 0.273136 0.34544
vt 0.276355 0.351013
vt 0.248133 0.372669
vt 0.276355 0.351013
vt 0.284124 0.36447
vt 0.344488 0.326321
vt 0.344488 0.332757
vt 0.30922 0.337401
vt 0.344488 0.332757
vt 0.344488 0.348296
vt 0.313242 0.352409
vt 0.415841 0.34544
vt 0.412622 0.351013
vt 0.379756 0.337401
vt 0.379756 0.337401
vt 0.412622 0.351013
vt 0.404853 0.36447
vt 0.468073 0.397673
vt 0.462499 0.400891
vt 0.440844 0.372669
vt 0.440844 0.372669
vt 0.462499 0.400891
vt 0.449042 0.40866
vt 0.461104 0.437777
vt 0.476112 0.433756
vt 0.480756 0.469024
vt 0.480756 0.469024
vt 0.476112 0.433756
vt 0.482329 0.43209
vt 0.608558 0.829165
vt 0.608558 0.829165
vt 0.606922 0.816736
f 27/1 31/2 26/3
f 31/4 33/5 26/6
f 33/7 37/8 26/9
f 6/10 40/11 5/12
f 39/13 43/14 26/15
f 8/16 46/17 7/18
f 45/19 49/20 26/21
f 10/22 52/23 9/24
f 51/25 55/26 26/27
f 12/28 58/29 11/30
f 57/31 61/32 26/33
f 14/34 64/35 13/36
f 63/37 67/38 26/39
f 67/40 69/41 26/42
f 69/43 73/44 26/45
f 73/46 75/47 26/48
f 75/49 79/50 26/51
f 79/52 81/53 26/54
f 81/55 85/56 26/57
f 85/58 87/59 26/60
f 87/61 91/62 26/63
f 91/64 93/65 26/66
f 93/67 97/68 26/69
f 2/70 28/71 1/72
f 1/73 25/74 2/75
f 97/76 27/77 26/78
f 2/79 25/80 3/81
f 4/82 34/83 3/84
f 3/85 25/86 4/87
f 37/88 39/89 26/90
f 4/91 25/92 5/93
f 5/94 36/95 4/96
f 5/97 25/98 6/99
f 43/100 45/101 26/102
f 6/103 25/104 7/105
f 7/106 42/107 6/108
f 7/109 25/110 8/111
f 49/112 51/113 26/114
f 8/115 25/116 9/117
f 9/118 48/119 8/120
f 9/121 25/122 10/123
f 55/124 57/125 26/126
f 10/127 25/128 11/129
f 11/130 54/131 10/132
f 11/133 25/134 12/135
f 61/136 63/137 26/138
f 12/139 25/140 13/141
f 13/142 60/143 12/144
f 13/145 25/146 14/147
f 15/148 66/149 14/150
f 14/151 25/152 15/153
f 16/154 70/155 15/156
f 15/157 25/158 16/159
f 17/160 72/161 16/162
f 16/163 25/164 17/165
f 18/166 76/167 17/168
f 17/169 25/170 18/171
f 19/172 78/173 18/174
f 18/175 25/176 19/177
f 20/178 82/179 19/180
f 19/181 25/182 20/183
f 21/184 84/185 20/186
f 20/187 25/188 21/189
f 22/190 88/191 21/192
f 21/193 25/194 22/195
f 23/196 90/197 22/198
f 22/199 25/200 23/201
f 24/202 94/203 23/204
f 23/205 25/206 24/207
f 24/208 25/209 1/210
f 3/211 30/212 2/213
f 30/214 29/215 28/216
f 29/217 31/218 27/219
f 36/220 35/221 34/222
f 38/223 33/224 35/225
f 40/226 44/227 41/228
f 44/229 39/230 41/231
f 48/232 47/233 46/234
f 50/235 45/236 47/237
f 54/238 53/239 52/240
f 56/241 51/242 53/243
f 58/244 62/245 59/246
f 62/247 57/248 59/249
f 66/250 65/251 64/252
f 65/253 67/254 63/255
f 72/256 71/257 70/258
f 74/259 69/260 71/261
f 76/262 80/263 77/264
f 80/265 75/266 77/267
f 82/268 86/269 83/270
f 83/271 85/272 81/273
f 90/274 89/275 88/276
f 92/277 87/278 89/279
f 94/280 98/281 95/282
f 98/283 93/284 95/285
f 34/286 32/287 30/288
f 32/289 33/290 31/291
f 36/292 41/293 38/294
f 38/295 39/296 37/297
f 42/298 47/299 44/300
f 44/301 45/302 43/303
f 52/304 50/305 48/306
f 53/307 49/308 50/309
f 58/310 56/311 54/312
f 56/313 57/314 55/315
f 60/316 65/317 62/318
f 65/319 61/320 62/321
f 70/322 68/323 66/324
f 68/325 69/326 67/327
f 72/328 77/329 74/330
f 74/331 75/332 73/333
f 82/334 80/335 78/336
f 83/337 79/338 80/339
f 88/340 86/341 84/342
f 86/343 87/344 85/345
f 94/346 92/347 90/348
f 92/349 93/350 91/351
f 97/352 29/353 27/354
f 29/355 96/356 28/357
f 1/358 96/359 24/360
f 6/361 42/362 40/363
f 8/364 48/365 46/366
f 10/367 54/368 52/369
f 12/370 60/371 58/372
f 14/373 66/374 64/375
f 2/376 30/377 28/378
f 4/379 36/380 34/381
f 5/382 40/383 36/384
f 7/385 46/386 42/387
f 9/388 52/389 48/390
f 11/391 58/392 54/393
f 13/394 64/395 60/396
f 15/397 70/398 66/399
f 16/400 72/401 70/402
f 17/403 76/404 72/405
f 18/406 78/407 76/408
f 19/409 82/410 78/411
f 20/412 84/413 82/414
f 21/415 88/416 84/417
f 22/418 90/419 88/420
f 23/421 94/422 90/423
f 24/424 96/425 94/426
f 3/427 34/428 30/429
f 30/430 32/431 29/432
f 29/433 32/434 31/435
f 36/436 38/437 35/438
f 38/439 37/440 33/441
f 40/442 42/443 44/444
f 44/445 43/446 39/447
f 48/448 50/449 47/450
f 50/451 49/452 45/453
f 54/454 56/455 53/456
f 56/457 55/458 51/459
f 58/460 60/461 62/462
f 62/463 61/464 57/465
f 66/466 68/467 65/468
f 65/469 68/470 67/471
f 72/472 74/473 71/474
f 74/475 73/476 69/477
f 76/478 78/479 80/480
f 80/481 79/482 75/483
f 82/484 84/485 86/486
f 83/487 86/488 85/489
f 90/490 92/491 89/492
f 92/493 91/494 87/495
f 94/496 96/497 98/498
f 98/499 97/500 93/501
f 34/502 35/503 32/504
f 32/505 35/506 33/507
f 36/508 40/509 41/510
f 38/511 41/512 39/513
f 42/514 46/515 47/516
f 44/517 47/518 45/519
f 52/520 53/521 50/522
f 53/523 51/524 49/525
f 58/526 59/527 56/528
f 56/529 59/530 57/531
f 60/532 64/533 65/534
f 65/535 63/536 61/537
f 70/538 71/539 68/540
f 68/541 71/542 69/543
f 72/544 76/545 77/546
f 74/547 77/548 75/549
f 82/550 83/551 80/552
f 83/553 81/554 79/555
f 88/556 89/557 86/558
f 86/559 89/560 87/561
f 94/562 95/563 92/564
f 92/565 95/566 93/567
f 97/568 98/569 29/570
f 29/571 98/572 96/573
f 1/574 28/575 96/576
