o Blender002_Blade001
v -0.068643 0.0088795 0.03367
v -0.064828 0.0145575 0.032307
v -0.041024 0.0183315 0.023831
v -0.028228 0.0269795 0.022824
v -0.021369 0.0597555 0.022824
v -0.020129 0.0593985 0.022824
v -0.017783 0.0574565 0.022824
v -0.017165 0.0560405 0.022824
v -0.011791 0.0256985 0.022824
v -0.007519 0.0207815 0.022821
v -0.00307 0.0189025 0.023094
v 0.00032 0.0183525 0.023786
v 0.00049 0.0045235 0.023839
v -0.005026 0.0033665 0.022882
v -0.012696 -0.0051635 0.022824
v -0.020437 -0.0365485 0.022824
v -0.021578 -0.0359115 0.022824
v -0.022783 -0.0346065 0.022824
v -0.027768 -0.0057215 0.022824
v -0.02852 -0.0033885 0.022824
v -0.040919 0.0045025 0.023794
v -0.03763 0.0039755 0.024142
v -0.033643 0.0024275 0.023839
v -0.029652 -0.0013515 0.023843
v -0.027823 -0.0054265 0.023843
v -0.023399 -0.0331795 0.023843
v -0.022851 -0.0344995 0.023843
v -0.017738 -0.0369345 0.023843
v -0.007493 0.0020655 0.023842
v -0.005464 0.0031855 0.023873
v 0.028045 0.0103685 0.03474
v 0.027017 0.0127695 0.034372
v 0.000237 0.0183655 0.02483
v -0.004901 0.0194345 0.023913
v -0.006846 0.0203805 0.023841
v -0.008792 0.0217785 0.023843
v -0.011913 0.0259115 0.023843
v -0.027852 0.0281055 0.023843
v -0.0289 0.0254685 0.023843
v -0.029858 0.0239215 0.023843
v -0.035103 0.0196645 0.023873
v -0.03734 0.0189285 0.024098
v -0.040676 0.0183865 0.024789
v -0.068612 0.0103685 0.03474
v -0.040833 0.0044885 0.024838
v -0.068643 0.0088795 0.034751
v -0.068636 0.0099445 0.033667
v -0.037199 0.0038875 0.023049
v -0.035248 0.0032385 0.022867
v -0.033262 0.0021985 0.022821
v -0.031386 0.0007005 0.022824
v -0.029847 -0.0010645 0.022824
v -0.028635 -0.0031655 0.023843
v -0.031437 0.0007775 0.023843
v -0.035666 0.0034155 0.023913
v -0.021678 -0.0358345 0.023843
v -0.019197 -0.0369055 0.022824
v -0.023401 -0.0331905 0.022824
v -0.019257 -0.0369005 0.023843
v -0.02051 -0.0365175 0.023843
v -0.017738 -0.0369345 0.022824
v -0.012771 -0.0055515 0.023843
v -0.01142 -0.0021465 0.022824
v -0.00985 1.85e-05 0.022824
v -0.007602 0.0020165 0.022819
v -0.003227 0.0039215 0.024098
v -0.009443 0.0004565 0.023843
v -0.011164 -0.0017195 0.023843
v -0.012091 -0.0035415 0.023843
v -0.003024 0.0039575 0.0231
v 0.028077 0.0088795 0.034751
v 0.028077 0.0088795 0.03367
v 0.00014 0.0044685 0.024796
v 0.028041 0.0104295 0.033657
v 0.02764 0.0117055 0.033514
v 0.026938 0.0128675 0.033263
v 0.025593 0.0140175 0.032783
v 0.024344 0.0145365 0.033418
v 0.0257 0.0139515 0.033902
v 0.027672 0.0116325 0.034606
v 0.024262 0.0145575 0.032307
v -0.002937 0.0188735 0.024142
v -0.00505 0.0194925 0.022881
v -0.009549 0.0225185 0.022824
v -0.010709 0.0239225 0.022824
v -0.012802 0.0285875 0.023843
v -0.010455 0.0235705 0.023843
v -0.012737 0.0282565 0.022824
v -0.017167 0.0560295 0.023843
v -0.017715 0.0573485 0.023843
v -0.02131 0.0597505 0.023843
v -0.018988 0.0587615 0.022824
v -0.020057 0.0593675 0.023843
v -0.018889 0.0586835 0.023843
v -0.022828 0.0597845 0.022824
v -0.022828 0.0597845 0.023843
v -0.027704 0.0289235 0.022824
v -0.029576 0.0242755 0.022824
v -0.031448 0.0220875 0.022824
v -0.033355 0.0205955 0.02282
v -0.035268 0.0196035 0.022868
v -0.037244 0.0189515 0.023053
v -0.032862 0.0209195 0.023842
v -0.031017 0.0225185 0.023843
v -0.066159 0.0140175 0.032783
v -0.067504 0.0128675 0.033263
v -0.068387 0.0113065 0.033578
v -0.068238 0.0116325 0.034606
v -0.067584 0.0127695 0.034372
v -0.066267 0.0139515 0.033902
v -0.06491 0.0145365 0.033418
vt 0.820139 0.370748
vt 0.818804 0.370748
vt 0.819324 0.370748
vt 0.813713 0.370748
vt 0.813604 0.370748
vt 0.816447 0.370748
vt 0.816929 0.370748
vt 0.818804 0.370748
vt 0.816447 0.370748
vt 0.831134 0.370748
vt 0.828994 0.370748
vt 0.831506 0.370748
vt 0.820254 0.370748
vt 0.827897 0.370748
vt 0.820139 0.370748
vt 0.828914 0.370748
vt 0.828994 0.370748
vt 0.827897 0.370748
vt 0.747537 0.390012
vt 0.754313 0.387592
vt 0.796781 0.372471
vt 0.747537 0.390012
vt 0.74755 0.390007
vt 0.747993 0.389849
vt 0.74956 0.389289
vt 0.747537 0.390012
vt 0.747993 0.389849
vt 0.810382 0.370742
vt 0.806854 0.370824
vt 0.810217 0.370741
vt 0.813713 0.370748
vt 0.810382 0.370742
vt 0.810217 0.370741
vt 0.803389 0.371147
vt 0.806819 0.370825
vt 0.806854 0.370824
vt 0.796781 0.372471
vt 0.803309 0.371155
vt 0.803389 0.371147
vt 0.835364 0.370748
vt 0.837876 0.370748
vt 0.837956 0.370748
vt 0.838973 0.370748
vt 0.846911 0.370748
vt 0.837956 0.370748
vt 0.831134 0.370748
vt 0.831506 0.370748
vt 0.833161 0.370748
vt 0.833708 0.370748
vt 0.835364 0.370748
vt 0.833161 0.370748
vt 0.846911 0.370748
vt 0.848519 0.370748
vt 0.849177 0.370748
vt 0.849177 0.370748
vt 0.85044 0.370748
vt 0.851967 0.370748
vt 0.851967 0.370748
vt 0.8525 0.370748
vt 0.855958 0.370739
vt 0.855958 0.370739
vt 0.860492 0.370848
vt 0.860534 0.37085
vt 0.860534 0.37085
vt 0.864009 0.371228
vt 0.864091 0.371237
vt 0.87003 0.372456
vt 0.870332 0.372551
vt 0.864091 0.371237
vt 0.919332 0.390012
vt 0.870332 0.372551
vt 0.912556 0.387592
vt 0.918556 0.389735
vt 0.919332 0.390012
vt 0.91731 0.38929
vt 0.919332 0.390012
vt 0.918556 0.389735
vt 0.919268 0.389989
vt 0.747537 0.390012
vt 0.74956 0.389289
vt 0.751949 0.388436
vt 0.747537 0.390012
vt 0.751949 0.388436
vt 0.754313 0.387592
vt 0.754313 0.387592
vt 0.796594 0.372537
vt 0.796781 0.372471
vt 0.796594 0.372537
vt 0.803309 0.371155
vt 0.796781 0.372471
vt 0.803309 0.371155
vt 0.806819 0.370825
vt 0.803389 0.371147
vt 0.810217 0.370741
vt 0.806854 0.370824
vt 0.806819 0.370825
vt 0.813604 0.370748
vt 0.816929 0.370748
vt 0.816447 0.370748
vt 0.816929 0.370748
vt 0.819324 0.370748
vt 0.818804 0.370748
vt 0.835735 0.370748
vt 0.835364 0.370748
vt 0.833708 0.370748
vt 0.820254 0.370748
vt 0.828914 0.370748
vt 0.827897 0.370748
vt 0.833708 0.370748
vt 0.833161 0.370748
vt 0.831506 0.370748
vt 0.831506 0.370748
vt 0.828994 0.370748
vt 0.828914 0.370748
vt 0.820139 0.370748
vt 0.819324 0.370748
vt 0.820254 0.370748
vt 0.813713 0.370748
vt 0.810217 0.370741
vt 0.813604 0.370748
vt 0.860492 0.370848
vt 0.864009 0.371228
vt 0.860534 0.37085
vt 0.87003 0.372456
vt 0.864091 0.371237
vt 0.864009 0.371228
vt 0.856107 0.370742
vt 0.860492 0.370848
vt 0.855958 0.370739
vt 0.91731 0.38929
vt 0.919332 0.390012
vt 0.914921 0.388436
vt 0.912556 0.387592
vt 0.870332 0.372551
vt 0.87003 0.372456
vt 0.914921 0.388436
vt 0.919332 0.390012
vt 0.912556 0.387592
vt 0.846838 0.370748
vt 0.846911 0.370748
vt 0.838973 0.370748
vt 0.837956 0.370748
vt 0.837876 0.370748
vt 0.838973 0.370748
vt 0.835364 0.370748
vt 0.835735 0.370748
vt 0.837876 0.370748
vt 0.85044 0.370748
vt 0.8525 0.370748
vt 0.851967 0.370748
vt 0.8525 0.370748
vt 0.856107 0.370742
vt 0.855958 0.370739
vt 0.846838 0.370748
vt 0.848519 0.370748
vt 0.846911 0.370748
vt 0.85044 0.370748
vt 0.849177 0.370748
vt 0.848519 0.370748
vt 0.847985 0.372557
vt 0.849632 0.372557
vt 0.848301 0.372557
vt 0.848301 0.372557
vt 0.846779 0.372557
vt 0.847985 0.372557
vt 0.852689 0.372557
vt 0.850891 0.372557
vt 0.849632 0.372557
vt 0.833837 0.372557
vt 0.833032 0.372557
vt 0.835258 0.372557
vt 0.837956 0.372557
vt 0.837996 0.372557
vt 0.835258 0.372557
vt 0.830957 0.372557
vt 0.833032 0.372557
vt 0.831611 0.372557
vt 0.846779 0.372557
vt 0.83897 0.372557
vt 0.837956 0.372557
vt 0.919332 0.391932
vt 0.912702 0.389564
vt 0.869711 0.374251
vt 0.919332 0.391932
vt 0.919277 0.391912
vt 0.918613 0.391675
vt 0.917451 0.39126
vt 0.919332 0.391932
vt 0.918613 0.391675
vt 0.859757 0.372611
vt 0.857301 0.372553
vt 0.856153 0.372555
vt 0.852689 0.372557
vt 0.856153 0.372555
vt 0.853845 0.372557
vt 0.869711 0.374251
vt 0.864246 0.373089
vt 0.86373 0.37301
vt 0.859757 0.372611
vt 0.86373 0.37301
vt 0.860757 0.372682
vt 0.831611 0.372557
vt 0.828874 0.372557
vt 0.830957 0.372557
vt 0.827899 0.372557
vt 0.828874 0.372557
vt 0.828914 0.372557
vt 0.81999 0.372557
vt 0.820042 0.372557
vt 0.827899 0.372557
vt 0.81999 0.372557
vt 0.8186 0.372557
vt 0.820042 0.372557
vt 0.814369 0.372557
vt 0.813622 0.372557
vt 0.816794 0.372557
vt 0.818129 0.372557
vt 0.816794 0.372557
vt 0.8186 0.372557
vt 0.813622 0.372557
vt 0.811091 0.372555
vt 0.809705 0.372551
vt 0.809705 0.372551
vt 0.807112 0.372611
vt 0.806112 0.372682
vt 0.803139 0.37301
vt 0.802623 0.373089
vt 0.806112 0.372682
vt 0.747537 0.391932
vt 0.796934 0.374325
vt 0.754167 0.389564
vt 0.748256 0.391675
vt 0.747537 0.391932
vt 0.749418 0.39126
vt 0.747537 0.391932
vt 0.748256 0.391675
vt 0.747593 0.391912
vt 0.802623 0.373089
vt 0.797213 0.374237
vt 0.796934 0.374325
vt 0.919332 0.391932
vt 0.917451 0.39126
vt 0.915111 0.390425
vt 0.919332 0.391932
vt 0.915111 0.390425
vt 0.912702 0.389564
vt 0.912702 0.389564
vt 0.869883 0.374312
vt 0.869711 0.374251
vt 0.869883 0.374312
vt 0.864246 0.373089
vt 0.869711 0.374251
vt 0.864246 0.373089
vt 0.860757 0.372682
vt 0.86373 0.37301
vt 0.857301 0.372553
vt 0.859757 0.372611
vt 0.860757 0.372682
vt 0.853845 0.372557
vt 0.856153 0.372555
vt 0.857301 0.372553
vt 0.850891 0.372557
vt 0.852689 0.372557
vt 0.853845 0.372557
vt 0.848301 0.372557
vt 0.846723 0.372557
vt 0.846779 0.372557
vt 0.848301 0.372557
vt 0.849632 0.372557
vt 0.850891 0.372557
vt 0.846723 0.372557
vt 0.83897 0.372557
vt 0.846779 0.372557
vt 0.835912 0.372557
vt 0.835258 0.372557
vt 0.837996 0.372557
vt 0.837956 0.372557
vt 0.83897 0.372557
vt 0.837996 0.372557
vt 0.807112 0.372611
vt 0.803139 0.37301
vt 0.806112 0.372682
vt 0.797213 0.374237
vt 0.802623 0.373089
vt 0.803139 0.37301
vt 0.811091 0.372555
vt 0.807112 0.372611
vt 0.809705 0.372551
vt 0.749418 0.39126
vt 0.747537 0.391932
vt 0.751758 0.390425
vt 0.797213 0.374237
vt 0.754167 0.389564
vt 0.796934 0.374325
vt 0.751758 0.390425
vt 0.747537 0.391932
vt 0.754167 0.389564
vt 0.835912 0.372557
vt 0.833837 0.372557
vt 0.835258 0.372557
vt 0.833837 0.372557
vt 0.831611 0.372557
vt 0.833032 0.372557
vt 0.828914 0.372557
vt 0.81999 0.372557
vt 0.827899 0.372557
vt 0.828874 0.372557
vt 0.831611 0.372557
vt 0.828914 0.372557
vt 0.816428 0.372557
vt 0.814369 0.372557
vt 0.816794 0.372557
vt 0.814369 0.372557
vt 0.811091 0.372555
vt 0.813622 0.372557
vt 0.81999 0.372557
vt 0.818129 0.372557
vt 0.8186 0.372557
vt 0.816428 0.372557
vt 0.816794 0.372557
vt 0.818129 0.372557
vt 0.747593 0.391912
vt 0.74755 0.390007
vt 0.747537 0.390012
vt 0.747593 0.391912
vt 0.747537 0.390012
vt 0.747537 0.391932
vt 0.747537 0.390012
vt 0.796934 0.374325
vt 0.747537 0.391932
vt 0.796934 0.374325
vt 0.747537 0.390012
vt 0.796781 0.372471
vt 0.796781 0.372471
vt 0.803389 0.371147
vt 0.802623 0.373089
vt 0.796781 0.372471
vt 0.802623 0.373089
vt 0.796934 0.374325
vt 0.803389 0.371147
vt 0.806854 0.370824
vt 0.806112 0.372682
vt 0.809705 0.372551
vt 0.806854 0.370824
vt 0.810382 0.370742
vt 0.813713 0.370748
vt 0.813622 0.372557
vt 0.810382 0.370742
vt 0.803389 0.371147
vt 0.806112 0.372682
vt 0.802623 0.373089
vt 0.809705 0.372551
vt 0.810382 0.370742
vt 0.813622 0.372557
vt 0.806854 0.370824
vt 0.809705 0.372551
vt 0.806112 0.372682
vt 0.813622 0.372557
vt 0.813713 0.370748
vt 0.816447 0.370748
vt 0.816447 0.370748
vt 0.816794 0.372557
vt 0.813622 0.372557
vt 0.820042 0.372557
vt 0.818804 0.370748
vt 0.820139 0.370748
vt 0.818804 0.370748
vt 0.820042 0.372557
vt 0.8186 0.372557
vt 0.816794 0.372557
vt 0.816447 0.370748
vt 0.818804 0.370748
vt 0.8186 0.372557
vt 0.816794 0.372557
vt 0.818804 0.370748
vt 0.827897 0.370748
vt 0.827899 0.372557
vt 0.820042 0.372557
vt 0.827897 0.370748
vt 0.820042 0.372557
vt 0.820139 0.370748
vt 0.827897 0.370748
vt 0.828994 0.370748
vt 0.828874 0.372557
vt 0.827897 0.370748
vt 0.828874 0.372557
vt 0.827899 0.372557
vt 0.828994 0.370748
vt 0.831134 0.370748
vt 0.830957 0.372557
vt 0.828994 0.370748
vt 0.830957 0.372557
vt 0.828874 0.372557
vt 0.831134 0.370748
vt 0.833161 0.370748
vt 0.833032 0.372557
vt 0.831134 0.370748
vt 0.833032 0.372557
vt 0.830957 0.372557
vt 0.833161 0.370748
vt 0.835364 0.370748
vt 0.835258 0.372557
vt 0.833161 0.370748
vt 0.835258 0.372557
vt 0.833032 0.372557
vt 0.837956 0.370748
vt 0.835258 0.372557
vt 0.835364 0.370748
vt 0.835258 0.372557
vt 0.837956 0.370748
vt 0.837956 0.372557
vt 0.837956 0.370748
vt 0.846779 0.372557
vt 0.837956 0.372557
vt 0.846779 0.372557
vt 0.837956 0.370748
vt 0.846911 0.370748
vt 0.846911 0.370748
vt 0.849177 0.370748
vt 0.847985 0.372557
vt 0.851967 0.370748
vt 0.852689 0.372557
vt 0.849632 0.372557
vt 0.849177 0.370748
vt 0.851967 0.370748
vt 0.849632 0.372557
vt 0.849177 0.370748
vt 0.849632 0.372557
vt 0.847985 0.372557
vt 0.847985 0.372557
vt 0.846779 0.372557
vt 0.846911 0.370748
vt 0.855958 0.370739
vt 0.856153 0.372555
vt 0.852689 0.372557
vt 0.855958 0.370739
vt 0.860534 0.37085
vt 0.859757 0.372611
vt 0.86373 0.37301
vt 0.860534 0.37085
vt 0.864091 0.371237
vt 0.859757 0.372611
vt 0.856153 0.372555
vt 0.855958 0.370739
vt 0.86373 0.37301
vt 0.859757 0.372611
vt 0.860534 0.37085
vt 0.851967 0.370748
vt 0.855958 0.370739
vt 0.852689 0.372557
vt 0.870332 0.372551
vt 0.86373 0.37301
vt 0.864091 0.371237
vt 0.870332 0.372551
vt 0.869711 0.374251
vt 0.86373 0.37301
vt 0.870332 0.372551
vt 0.919332 0.390012
vt 0.869711 0.374251
vt 0.869711 0.374251
vt 0.919332 0.390012
vt 0.919332 0.391932
vt 0.919332 0.391932
vt 0.919332 0.390012
vt 0.919277 0.391912
vt 0.919268 0.389989
vt 0.919277 0.391912
vt 0.919332 0.390012
vt 0.918556 0.389735
vt 0.91731 0.38929
vt 0.917451 0.39126
vt 0.918613 0.391675
vt 0.919268 0.389989
vt 0.918556 0.389735
vt 0.918613 0.391675
vt 0.918556 0.389735
vt 0.917451 0.39126
vt 0.919268 0.389989
vt 0.918613 0.391675
vt 0.919277 0.391912
vt 0.915111 0.390425
vt 0.91731 0.38929
vt 0.914921 0.388436
vt 0.912702 0.389564
vt 0.914921 0.388436
vt 0.912556 0.387592
vt 0.91731 0.38929
vt 0.915111 0.390425
vt 0.917451 0.39126
vt 0.915111 0.390425
vt 0.914921 0.388436
vt 0.912702 0.389564
vt 0.869883 0.374312
vt 0.912702 0.389564
vt 0.912556 0.387592
vt 0.912556 0.387592
vt 0.87003 0.372456
vt 0.869883 0.374312
vt 0.864009 0.371228
vt 0.864246 0.373089
vt 0.87003 0.372456
vt 0.87003 0.372456
vt 0.864246 0.373089
vt 0.869883 0.374312
vt 0.864009 0.371228
vt 0.860492 0.370848
vt 0.860757 0.372682
vt 0.857301 0.372553
vt 0.860492 0.370848
vt 0.856107 0.370742
vt 0.856107 0.370742
vt 0.853845 0.372557
vt 0.857301 0.372553
vt 0.864009 0.371228
vt 0.860757 0.372682
vt 0.864246 0.373089
vt 0.860492 0.370848
vt 0.857301 0.372553
vt 0.860757 0.372682
vt 0.8525 0.370748
vt 0.853845 0.372557
vt 0.856107 0.370742
vt 0.8525 0.370748
vt 0.850891 0.372557
vt 0.853845 0.372557
vt 0.848301 0.372557
vt 0.85044 0.370748
vt 0.848519 0.370748
vt 0.850891 0.372557
vt 0.8525 0.370748
vt 0.85044 0.370748
vt 0.846838 0.370748
vt 0.846723 0.372557
vt 0.848301 0.372557
vt 0.848301 0.372557
vt 0.848519 0.370748
vt 0.846838 0.370748
vt 0.85044 0.370748
vt 0.848301 0.372557
vt 0.850891 0.372557
vt 0.838973 0.370748
vt 0.83897 0.372557
vt 0.846723 0.372557
vt 0.838973 0.370748
vt 0.846723 0.372557
vt 0.846838 0.370748
vt 0.838973 0.370748
vt 0.837876 0.370748
vt 0.837996 0.372557
vt 0.838973 0.370748
vt 0.837996 0.372557
vt 0.83897 0.372557
vt 0.837876 0.370748
vt 0.835735 0.370748
vt 0.835912 0.372557
vt 0.837876 0.370748
vt 0.835912 0.372557
vt 0.837996 0.372557
vt 0.835735 0.370748
vt 0.833708 0.370748
vt 0.833837 0.372557
vt 0.835735 0.370748
vt 0.833837 0.372557
vt 0.835912 0.372557
vt 0.833708 0.370748
vt 0.831506 0.370748
vt 0.831611 0.372557
vt 0.833708 0.370748
vt 0.831611 0.372557
vt 0.833837 0.372557
vt 0.828914 0.372557
vt 0.831611 0.372557
vt 0.831506 0.370748
vt 0.831506 0.370748
vt 0.828914 0.370748
vt 0.828914 0.372557
vt 0.828914 0.372557
vt 0.828914 0.370748
vt 0.820254 0.370748
vt 0.81999 0.372557
vt 0.828914 0.372557
vt 0.820254 0.370748
vt 0.820254 0.370748
vt 0.819324 0.370748
vt 0.81999 0.372557
vt 0.816929 0.370748
vt 0.816428 0.372557
vt 0.818129 0.372557
vt 0.814369 0.372557
vt 0.816929 0.370748
vt 0.813604 0.370748
vt 0.818129 0.372557
vt 0.819324 0.370748
vt 0.816929 0.370748
vt 0.818129 0.372557
vt 0.81999 0.372557
vt 0.819324 0.370748
vt 0.816929 0.370748
vt 0.814369 0.372557
vt 0.816428 0.372557
vt 0.813604 0.370748
vt 0.810217 0.370741
vt 0.811091 0.372555
vt 0.810217 0.370741
vt 0.806819 0.370825
vt 0.807112 0.372611
vt 0.806819 0.370825
vt 0.803309 0.371155
vt 0.807112 0.372611
vt 0.811091 0.372555
vt 0.814369 0.372557
vt 0.813604 0.370748
vt 0.807112 0.372611
vt 0.811091 0.372555
vt 0.810217 0.370741
vt 0.803139 0.37301
vt 0.807112 0.372611
vt 0.803309 0.371155
vt 0.796594 0.372537
vt 0.803139 0.37301
vt 0.803309 0.371155
vt 0.796594 0.372537
vt 0.797213 0.374237
vt 0.803139 0.37301
vt 0.754313 0.387592
vt 0.797213 0.374237
vt 0.796594 0.372537
vt 0.797213 0.374237
vt 0.754313 0.387592
vt 0.754167 0.389564
vt 0.754167 0.389564
vt 0.754313 0.387592
vt 0.751949 0.388436
vt 0.751758 0.390425
vt 0.751949 0.388436
vt 0.74956 0.389289
vt 0.751949 0.388436
vt 0.751758 0.390425
vt 0.754167 0.389564
vt 0.751758 0.390425
vt 0.74956 0.389289
vt 0.749418 0.39126
vt 0.749418 0.39126
vt 0.74956 0.389289
vt 0.747993 0.389849
vt 0.747593 0.391912
vt 0.747993 0.389849
vt 0.74755 0.390007
vt 0.747993 0.389849
vt 0.748256 0.391675
vt 0.749418 0.39126
vt 0.747993 0.389849
vt 0.747593 0.391912
vt 0.748256 0.391675
f 19/1 20/2 4/3
f 51/4 99/5 52/6
f 98/7 20/8 52/9
f 17/10 18/11 5/12
f 97/13 58/14 19/15
f 95/16 18/17 58/18
f 1/19 2/20 21/21
f 1/22 47/23 107/24
f 106/25 1/26 107/27
f 50/28 49/29 100/30
f 51/31 50/32 100/33
f 48/34 101/35 49/36
f 21/37 102/38 48/39
f 57/40 7/41 61/42
f 8/43 15/44 61/45
f 17/46 5/47 16/48
f 6/49 57/50 16/51
f 15/52 9/53 63/54
f 63/55 85/56 64/57
f 64/58 84/59 65/60
f 65/61 83/62 14/63
f 14/64 11/65 70/66
f 12/67 13/68 70/69
f 72/70 13/71 81/72
f 75/73 72/74 76/75
f 72/76 75/77 74/78
f 1/79 106/80 105/81
f 1/82 105/83 2/84
f 2/85 3/86 21/87
f 3/88 102/89 21/90
f 102/91 101/92 48/93
f 100/94 49/95 101/96
f 99/97 98/98 52/99
f 98/100 4/101 20/102
f 92/103 57/104 6/105
f 97/106 95/107 58/108
f 6/109 16/110 5/111
f 5/112 18/113 95/114
f 19/115 4/116 97/117
f 51/118 100/119 99/120
f 83/121 11/122 14/123
f 12/124 70/125 11/126
f 10/127 83/128 65/129
f 76/130 72/131 77/132
f 81/133 13/134 12/135
f 77/136 72/137 81/138
f 88/139 15/140 8/141
f 61/142 7/143 8/144
f 57/145 92/146 7/147
f 85/148 84/149 64/150
f 84/151 10/152 65/153
f 88/154 9/155 15/156
f 85/157 63/158 9/159
f 69/160 68/161 37/162
f 37/163 62/164 69/165
f 67/166 87/167 68/168
f 93/169 60/170 59/171
f 28/172 90/173 59/174
f 56/175 60/176 91/177
f 62/178 89/179 28/180
f 71/181 78/182 73/183
f 71/184 31/185 80/186
f 32/187 71/188 80/189
f 30/190 35/191 29/192
f 67/193 29/194 36/195
f 73/196 82/197 66/198
f 30/199 66/200 34/201
f 91/202 27/203 56/204
f 26/205 27/206 96/207
f 38/208 25/209 26/210
f 38/211 53/212 25/213
f 104/214 54/215 24/216
f 39/217 24/218 53/219
f 54/220 103/221 23/222
f 23/223 41/224 55/225
f 42/226 22/227 55/228
f 46/229 45/230 111/231
f 108/232 46/233 109/234
f 46/235 108/236 44/237
f 22/238 43/239 45/240
f 71/241 32/242 79/243
f 71/244 79/245 78/246
f 78/247 33/248 73/249
f 33/250 82/251 73/252
f 82/253 34/254 66/255
f 35/256 30/257 34/258
f 36/259 29/260 35/261
f 87/262 67/263 36/264
f 37/265 86/266 62/267
f 37/268 68/269 87/270
f 86/271 89/272 62/273
f 94/274 59/275 90/276
f 28/277 89/278 90/279
f 41/280 42/281 55/282
f 43/283 22/284 42/285
f 103/286 41/287 23/288
f 109/289 46/290 110/291
f 43/292 111/293 45/294
f 110/295 46/296 111/297
f 94/298 93/299 59/300
f 93/301 91/302 60/303
f 96/304 38/305 26/306
f 27/307 91/308 96/309
f 40/310 104/311 24/312
f 104/313 103/314 54/315
f 38/316 39/317 53/318
f 40/319 24/320 39/321
f 44/322 47/323 1/324
f 44/325 1/326 46/327
f 1/328 45/329 46/330
f 45/331 1/332 21/333
f 21/334 48/335 22/336
f 21/337 22/338 45/339
f 48/340 49/341 55/342
f 23/343 49/344 50/345
f 51/346 54/347 50/348
f 48/349 55/350 22/351
f 23/352 50/353 54/354
f 49/355 23/356 55/357
f 54/358 51/359 52/360
f 52/361 24/362 54/363
f 25/364 20/365 19/366
f 20/367 25/368 53/369
f 24/370 52/371 20/372
f 53/373 24/374 20/375
f 58/376 26/377 25/378
f 58/379 25/380 19/381
f 58/382 18/383 27/384
f 58/385 27/386 26/387
f 18/388 17/389 56/390
f 18/391 56/392 27/393
f 17/394 16/395 60/396
f 17/397 60/398 56/399
f 16/400 57/401 59/402
f 16/403 59/404 60/405
f 61/406 59/407 57/408
f 59/409 61/410 28/411
f 61/412 62/413 28/414
f 62/415 61/416 15/417
f 15/418 63/419 69/420
f 64/421 67/422 68/423
f 63/424 64/425 68/426
f 63/427 68/428 69/429
f 69/430 62/431 15/432
f 65/433 29/434 67/435
f 65/436 14/437 30/438
f 66/439 14/440 70/441
f 30/442 29/443 65/444
f 66/445 30/446 14/447
f 64/448 65/449 67/450
f 13/451 66/452 70/453
f 13/454 73/455 66/456
f 13/457 72/458 73/459
f 73/460 72/461 71/462
f 71/463 72/464 31/465
f 74/466 31/467 72/468
f 75/469 76/470 32/471
f 80/472 74/473 75/474
f 80/475 75/476 32/477
f 74/478 80/479 31/480
f 79/481 76/482 77/483
f 78/484 77/485 81/486
f 76/487 79/488 32/489
f 79/490 77/491 78/492
f 33/493 78/494 81/495
f 81/496 12/497 33/498
f 11/499 82/500 12/501
f 12/502 82/503 33/504
f 11/505 83/506 34/507
f 35/508 83/509 10/510
f 10/511 36/512 35/513
f 11/514 34/515 82/516
f 83/517 35/518 34/519
f 84/520 36/521 10/522
f 84/523 87/524 36/525
f 37/526 85/527 9/528
f 87/529 84/530 85/531
f 88/532 86/533 37/534
f 37/535 9/536 88/537
f 85/538 37/539 87/540
f 8/541 89/542 86/543
f 8/544 86/545 88/546
f 8/547 7/548 90/549
f 8/550 90/551 89/552
f 7/553 92/554 94/555
f 7/556 94/557 90/558
f 92/559 6/560 93/561
f 92/562 93/563 94/564
f 6/565 5/566 91/567
f 6/568 91/569 93/570
f 96/571 91/572 5/573
f 5/574 95/575 96/576
f 96/577 95/578 97/579
f 38/580 96/581 97/582
f 97/583 4/584 38/585
f 98/586 40/587 39/588
f 104/589 98/590 99/591
f 39/592 4/593 98/594
f 39/595 38/596 4/597
f 98/598 104/599 40/600
f 99/601 100/602 103/603
f 100/604 101/605 41/606
f 101/607 102/608 41/609
f 103/610 104/611 99/612
f 41/613 103/614 100/615
f 42/616 41/617 102/618
f 3/619 42/620 102/621
f 3/622 43/623 42/624
f 2/625 43/626 3/627
f 43/628 2/629 111/630
f 111/631 2/632 105/633
f 110/634 105/635 106/636
f 105/637 110/638 111/639
f 110/640 106/641 109/642
f 109/643 106/644 107/645
f 44/646 107/647 47/648
f 107/649 108/650 109/651
f 107/652 44/653 108/654
