o Blender002_Knob001
v -0.021083 -0.0805185 -0.132163
v -0.0074 -0.0697855 -0.146742
v -0.005076 -0.0697855 -0.144144
v -0.003239 -0.0697855 -0.141183
v -0.001944 -0.0697855 -0.137947
v -0.00123 -0.0697855 -0.134536
v -0.00112 -0.0697855 -0.131052
v -0.001616 -0.0697855 -0.127602
v -0.002704 -0.0697855 -0.124291
v -0.00435 -0.0697855 -0.121219
v -0.006504 -0.0697855 -0.11848
v -0.009102 -0.0697855 -0.116156
v -0.012064 -0.0697855 -0.114319
v -0.015299 -0.0697855 -0.113024
v -0.018711 -0.0697855 -0.112311
v -0.022194 -0.0697855 -0.1122
v -0.025644 -0.0697855 -0.112696
v -0.028955 -0.0697855 -0.113784
v -0.032027 -0.0697855 -0.11543
v -0.034766 -0.0697855 -0.117585
v -0.03709 -0.0697855 -0.120182
v -0.038927 -0.0697855 -0.123144
v -0.040222 -0.0697855 -0.12638
v -0.040936 -0.0697855 -0.129791
v -0.041046 -0.0697855 -0.133274
v -0.04055 -0.0697855 -0.136724
v -0.039462 -0.0697855 -0.140035
v -0.037816 -0.0697855 -0.143107
v -0.035486 -0.0697855 -0.145709
v -0.033064 -0.0697855 -0.14817
v -0.030102 -0.0697855 -0.150007
v -0.026866 -0.0697855 -0.151303
v -0.023455 -0.0697855 -0.152016
v -0.019972 -0.0697855 -0.152126
v -0.016522 -0.0697855 -0.15163
v -0.013211 -0.0697855 -0.150542
v -0.010139 -0.0697855 -0.148896
v -0.012828 -0.0913385 -0.132291
v -0.014868 -0.0911725 -0.134031
v -0.017593 -0.0909575 -0.136214
v -0.02073 -0.0907185 -0.138533
v -0.024008 -0.0904825 -0.140681
v -0.027153 -0.0902725 -0.142353
v -0.029895 -0.0901125 -0.143241
v -0.031787 -0.0900275 -0.142902
v -0.033093 -0.0900405 -0.141489
v -0.032875 -0.0901465 -0.139153
v -0.031536 -0.0903215 -0.136367
v -0.029423 -0.0905405 -0.133357
v -0.02688 -0.0907805 -0.130348
v -0.024251 -0.0910145 -0.127566
v -0.021883 -0.0912195 -0.125237
v -0.020122 -0.0913695 -0.123587
v -0.018417 -0.0915055 -0.122186
v -0.017264 -0.0915865 -0.121503
v -0.016094 -0.0916595 -0.121046
v -0.014918 -0.0917205 -0.120844
v -0.013747 -0.0917695 -0.120928
v -0.012594 -0.0918045 -0.12133
v -0.01147 -0.0918245 -0.12208
v -0.010411 -0.0918265 -0.123182
v -0.009671 -0.0918115 -0.124367
v -0.009288 -0.0917795 -0.125552
v -0.009231 -0.0917345 -0.126729
v -0.009467 -0.0916755 -0.127889
v -0.009966 -0.0916055 -0.129022
v -0.010694 -0.0915265 -0.130121
v -0.011621 -0.0914405 -0.131176
v -0.01271 -0.0912265 -0.132331
v -0.01477 -0.0910575 -0.134086
v -0.017522 -0.0908395 -0.136287
v -0.020691 -0.0905995 -0.138625
v -0.024004 -0.0903615 -0.140789
v -0.027184 -0.0901505 -0.142469
v -0.029959 -0.0899905 -0.143356
v -0.031879 -0.0899055 -0.143004
v -0.033208 -0.0899185 -0.141563
v -0.032998 -0.0900255 -0.139194
v -0.031656 -0.0902005 -0.136375
v -0.029529 -0.0904205 -0.133331
v -0.026966 -0.0906615 -0.13029
v -0.024315 -0.0908985 -0.12748
v -0.021925 -0.0911055 -0.125129
v -0.020147 -0.0912575 -0.123463
v -0.018426 -0.0913965 -0.12205
v -0.01726 -0.0914795 -0.121363
v -0.016076 -0.0915525 -0.120905
v -0.014884 -0.0916145 -0.120705
v -0.013697 -0.0916635 -0.120796
v -0.012526 -0.0916985 -0.121209
v -0.011382 -0.0917175 -0.121976
v -0.010303 -0.0917195 -0.123099
v -0.009547 -0.0917045 -0.124305
v -0.009154 -0.0916735 -0.12551
v -0.00909 -0.0916275 -0.126705
v -0.009325 -0.0915685 -0.12788
v -0.009825 -0.0914985 -0.129028
v -0.010558 -0.0914185 -0.130139
v -0.011493 -0.0913305 -0.131204
v -0.012542 -0.0909635 -0.13237
v -0.014631 -0.0907955 -0.134149
v -0.017423 -0.0905765 -0.136379
v -0.020639 -0.0903325 -0.138747
v -0.024003 -0.0900885 -0.140936
v -0.027235 -0.0898725 -0.142634
v -0.030059 -0.0897075 -0.143525
v -0.032022 -0.0896195 -0.143158
v -0.033382 -0.0896335 -0.141679
v -0.03318 -0.0897425 -0.139263
v -0.031826 -0.0899225 -0.136393
v -0.029673 -0.0901485 -0.1333
v -0.027077 -0.0903945 -0.130213
v -0.024391 -0.0906345 -0.127361
v -0.021969 -0.0908425 -0.124976
v -0.020167 -0.0909945 -0.123287
v -0.019573 -0.0910435 -0.122749
v -0.018421 -0.0911335 -0.121855
v -0.017237 -0.0912155 -0.121161
v -0.016033 -0.0912895 -0.1207
v -0.01482 -0.0913525 -0.120503
v -0.01361 -0.0914035 -0.120603
v -0.012415 -0.0914395 -0.121031
v -0.011246 -0.0914595 -0.121819
v -0.010141 -0.0914625 -0.12297
v -0.009364 -0.0914465 -0.124204
v -0.008956 -0.0914135 -0.125434
v -0.008885 -0.0913665 -0.126653
v -0.009117 -0.0913065 -0.12785
v -0.00962 -0.0912345 -0.129018
v -0.010361 -0.0911545 -0.130147
v -0.011307 -0.0910665 -0.131228
v -0.011892 -0.0885865 -0.132308
v -0.014109 -0.0884545 -0.134195
v -0.017072 -0.0882825 -0.13656
v -0.020486 -0.0880925 -0.13907
v -0.024056 -0.0879055 -0.141389
v -0.027488 -0.0877385 -0.143185
v -0.030487 -0.0876125 -0.144124
v -0.032584 -0.0875455 -0.143736
v -0.034023 -0.0875555 -0.142151
v -0.033816 -0.0876395 -0.139583
v -0.032385 -0.0877775 -0.136535
v -0.030106 -0.0879515 -0.133251
v -0.027355 -0.0881415 -0.129973
v -0.024506 -0.0883285 -0.126947
v -0.021937 -0.0884915 -0.124416
v -0.020025 -0.0886115 -0.122624
v -0.018172 -0.0887205 -0.121104
v -0.016915 -0.0887855 -0.12037
v -0.015636 -0.0888435 -0.119882
v -0.014347 -0.0888925 -0.119676
v -0.01306 -0.0889325 -0.119786
v -0.011788 -0.0889605 -0.120244
v -0.010543 -0.0889765 -0.121086
v -0.009364 -0.0889785 -0.122313
v -0.008535 -0.0889655 -0.123628
v -0.008097 -0.0889405 -0.124939
v -0.008018 -0.0889035 -0.126235
v -0.008262 -0.0888565 -0.127508
v -0.008793 -0.0888005 -0.128749
v -0.009578 -0.0887375 -0.129948
v -0.010582 -0.0886685 -0.131096
v -0.011288 -0.0861975 -0.132222
v -0.013626 -0.0861035 -0.134211
v -0.01675 -0.0859815 -0.136705
v -0.02035 -0.0858465 -0.139352
v -0.024115 -0.0857125 -0.141798
v -0.027734 -0.0855935 -0.143693
v -0.030897 -0.0855025 -0.144684
v -0.033119 -0.0854545 -0.144282
v -0.034628 -0.0854625 -0.142603
v -0.034409 -0.0855225 -0.139894
v -0.0329 -0.0856215 -0.136679
v -0.030496 -0.0857455 -0.133215
v -0.027593 -0.0858815 -0.129759
v -0.02459 -0.0860145 -0.126568
v -0.021881 -0.0861305 -0.123899
v -0.019865 -0.0862145 -0.12201
v -0.017911 -0.0862925 -0.120407
v -0.016585 -0.0863385 -0.119633
v -0.015236 -0.0863795 -0.119119
v -0.013877 -0.0864155 -0.118902
v -0.01252 -0.0864435 -0.119017
v -0.011178 -0.0864635 -0.119501
v -0.009866 -0.0864745 -0.120388
v -0.008623 -0.0864765 -0.121683
v -0.007748 -0.0864675 -0.123069
v -0.007287 -0.0864495 -0.124451
v -0.007203 -0.0864225 -0.125818
v -0.00746 -0.0863895 -0.12716
v -0.008021 -0.0863495 -0.128469
v -0.008848 -0.0863045 -0.129733
v -0.009907 -0.0862555 -0.130944
v -0.010692 -0.0838065 -0.132131
v -0.013149 -0.0837515 -0.134222
v -0.016433 -0.0836795 -0.136843
v -0.020216 -0.0835985 -0.139625
v -0.024173 -0.0835175 -0.142198
v -0.027977 -0.0834445 -0.144191
v -0.031303 -0.0833895 -0.145234
v -0.033648 -0.0833605 -0.144821
v -0.035223 -0.0833645 -0.143048
v -0.034992 -0.0834015 -0.140201
v -0.033404 -0.0834615 -0.136822
v -0.030875 -0.0835375 -0.133181
v -0.027824 -0.0836195 -0.129549
v -0.024666 -0.0836985 -0.126195
v -0.02182 -0.0837665 -0.123391
v -0.0197 -0.0838165 -0.121404
v -0.017647 -0.0838615 -0.11972
v -0.016254 -0.0838885 -0.118906
v -0.014836 -0.0839125 -0.118365
v -0.013408 -0.0839335 -0.118137
v -0.011982 -0.0839505 -0.118258
v -0.010573 -0.0839625 -0.118766
v -0.009194 -0.0839695 -0.119698
v -0.007889 -0.0839705 -0.121057
v -0.00697 -0.0839655 -0.122514
v -0.006486 -0.0839545 -0.123965
v -0.006398 -0.0839385 -0.125401
v -0.006669 -0.0839185 -0.126812
v -0.007258 -0.0838945 -0.128187
v -0.008128 -0.0838685 -0.129516
v -0.009241 -0.0838395 -0.130788
v -0.010067 -0.0814225 -0.132054
v -0.012647 -0.0814055 -0.13425
v -0.016095 -0.0813825 -0.137002
v -0.020068 -0.0813555 -0.139922
v -0.024224 -0.0813285 -0.142622
v -0.028221 -0.0813035 -0.144713
v -0.031715 -0.0812835 -0.145806
v -0.034189 -0.0812735 -0.145376
v -0.035839 -0.0812755 -0.143504
v -0.035599 -0.0812875 -0.14051
v -0.033933 -0.0813085 -0.13696
v -0.03128 -0.0813345 -0.133135
v -0.028076 -0.0813625 -0.12932
v -0.024762 -0.0813885 -0.125798
v -0.021773 -0.0814105 -0.122853
v -0.019547 -0.0814265 -0.120768
v -0.017391 -0.0814405 -0.119
v -0.015928 -0.0814485 -0.118145
v -0.014439 -0.0814565 -0.117579
v -0.012937 -0.0814635 -0.11734
v -0.011439 -0.0814695 -0.117469
v -0.009957 -0.0814735 -0.118004
v -0.008507 -0.0814755 -0.118986
v -0.007133 -0.0814755 -0.120417
v -0.006166 -0.0814745 -0.121948
v -0.005655 -0.0814705 -0.123475
v -0.005562 -0.0814655 -0.124985
v -0.005844 -0.0814585 -0.126467
v -0.006462 -0.0814505 -0.127912
v -0.007375 -0.0814425 -0.129308
v -0.008543 -0.0814335 -0.130644
v -0.009691 -0.0801275 -0.132029
v -0.012343 -0.0801285 -0.134285
v -0.015888 -0.0801305 -0.137112
v -0.019972 -0.0801315 -0.140112
v -0.024246 -0.0801315 -0.142884
v -0.028356 -0.0801305 -0.145029
v -0.031952 -0.0801305 -0.146148
v -0.034505 -0.0801295 -0.145703
v -0.036202 -0.0801295 -0.143768
v -0.035962 -0.0801295 -0.140685
v -0.034254 -0.0801305 -0.137031
v -0.03153 -0.0801305 -0.133097
v -0.02824 -0.0801305 -0.129175
v -0.024835 -0.0801295 -0.125555
v -0.021763 -0.0801285 -0.122527
v -0.019477 -0.0801265 -0.120384
v -0.01726 -0.0801255 -0.118567
v -0.015755 -0.0801245 -0.11769
v -0.014223 -0.0801245 -0.11711
v -0.012678 -0.0801245 -0.116868
v -0.011135 -0.0801245 -0.117004
v -0.009608 -0.0801255 -0.117558
v -0.008113 -0.0801265 -0.118572
v -0.006696 -0.0801265 -0.120049
v -0.005697 -0.0801255 -0.121629
v -0.005168 -0.0801255 -0.123202
v -0.005068 -0.0801245 -0.124757
v -0.005355 -0.0801245 -0.126283
v -0.005988 -0.0801245 -0.12777
v -0.006925 -0.0801245 -0.129206
v -0.008125 -0.0801255 -0.13058
v -0.018419 -0.0797105 -0.119144
v -0.018441 -0.0793355 -0.118827
v -0.009439 -0.0797325 -0.132084
v -0.012131 -0.0797345 -0.134372
v -0.01573 -0.0797365 -0.137238
v -0.01988 -0.0797385 -0.140277
v -0.024224 -0.0797375 -0.143082
v -0.028406 -0.0797375 -0.145248
v -0.032069 -0.0797365 -0.146368
v -0.034681 -0.0797355 -0.145898
v -0.036423 -0.0797355 -0.143908
v -0.036198 -0.0797355 -0.140759
v -0.034478 -0.0797365 -0.137036
v -0.031723 -0.0797375 -0.133034
v -0.02839 -0.0797375 -0.129047
v -0.024938 -0.0797365 -0.12537
v -0.021823 -0.0797335 -0.122296
v -0.019502 -0.0797315 -0.12012
v -0.017252 -0.0797295 -0.118278
v -0.015721 -0.0797295 -0.117392
v -0.014161 -0.0797295 -0.116809
v -0.012586 -0.0797295 -0.116571
v -0.01101 -0.0797295 -0.11672
v -0.009448 -0.0797305 -0.117297
v -0.007915 -0.0797315 -0.118343
v -0.006459 -0.0797315 -0.119861
v -0.005429 -0.0797305 -0.121482
v -0.004879 -0.0797305 -0.123093
v -0.004766 -0.0797295 -0.124683
v -0.00505 -0.0797295 -0.126241
v -0.005686 -0.0797295 -0.127756
v -0.006633 -0.0797295 -0.129217
v -0.007849 -0.0797305 -0.130614
v -0.009148 -0.0793565 -0.132159
v -0.011885 -0.0793565 -0.134482
v -0.015546 -0.0793565 -0.137391
v -0.01977 -0.0793565 -0.140472
v -0.024194 -0.0793565 -0.143312
v -0.028456 -0.0793565 -0.145497
v -0.032195 -0.0793565 -0.146615
v -0.034874 -0.0793565 -0.146115
v -0.036669 -0.0793565 -0.14406
v -0.036464 -0.0793565 -0.140835
v -0.034735 -0.0793565 -0.137034
v -0.031948 -0.0793565 -0.132955
v -0.028569 -0.0793565 -0.128895
v -0.025065 -0.0793565 -0.125154
v -0.021901 -0.0793565 -0.122028
v -0.019544 -0.0793565 -0.119817
v -0.017255 -0.0793565 -0.117947
v -0.015696 -0.0793565 -0.117051
v -0.014103 -0.0793565 -0.116466
v -0.012493 -0.0793565 -0.116235
v -0.010878 -0.0793565 -0.1164
v -0.009275 -0.0793565 -0.117003
v -0.007697 -0.0793565 -0.118087
v -0.006195 -0.0793565 -0.119655
v -0.005128 -0.0793565 -0.121324
v -0.004552 -0.0793565 -0.12298
v -0.004425 -0.0793565 -0.12461
v -0.004703 -0.0793565 -0.126205
v -0.005342 -0.0793565 -0.127753
v -0.0063 -0.0793565 -0.129243
v -0.007533 -0.0793565 -0.130664
v -0.019472 -0.0914215 -0.123053
v -0.019512 -0.0913095 -0.122941
v -0.018419 -0.0801055 -0.119429
v -0.018547 -0.0814125 -0.119865
v -0.018802 -0.0838185 -0.120593
v -0.019066 -0.0862335 -0.121288
v -0.019328 -0.0886455 -0.121993
v -0.007386 -0.0798955 -0.146756
v -0.006987 -0.0792565 -0.147181
v -0.004593 -0.0792565 -0.144505
v -0.00506 -0.0798955 -0.144156
v -0.002701 -0.0792565 -0.141455
v -0.003221 -0.0798955 -0.141191
v -0.001366 -0.0792565 -0.138121
v -0.001925 -0.0798955 -0.137953
v -0.000631 -0.0792565 -0.134607
v -0.00121 -0.0798955 -0.134538
v -0.000518 -0.0792565 -0.131019
v -0.0011 -0.0798955 -0.131051
v -0.001029 -0.0792565 -0.127465
v -0.001597 -0.0798955 -0.127598
v -0.002149 -0.0792565 -0.124054
v -0.002686 -0.0798955 -0.124284
v -0.003845 -0.0792565 -0.120889
v -0.004333 -0.0798955 -0.121209
v -0.006065 -0.0792565 -0.118067
v -0.00649 -0.0798955 -0.118467
v -0.008741 -0.0792565 -0.115674
v -0.00909 -0.0798955 -0.116141
v -0.011792 -0.0792565 -0.113781
v -0.012055 -0.0798955 -0.114302
v -0.015125 -0.0792565 -0.112447
v -0.015293 -0.0798955 -0.113005
v -0.018639 -0.0792565 -0.111712
v -0.018708 -0.0798955 -0.112291
v -0.022228 -0.0792565 -0.111598
v -0.022195 -0.0798955 -0.112181
v -0.025781 -0.0792565 -0.112109
v -0.025648 -0.0798955 -0.112677
v -0.029192 -0.0792565 -0.11323
v -0.028963 -0.0798955 -0.113766
v -0.032357 -0.0792565 -0.114926
v -0.032037 -0.0798955 -0.115414
v -0.035179 -0.0792565 -0.117145
v -0.03478 -0.0798955 -0.117571
v -0.037572 -0.0792565 -0.119821
v -0.037105 -0.0798955 -0.120171
v -0.039465 -0.0792565 -0.122872
v -0.038945 -0.0798955 -0.123135
v -0.040799 -0.0792565 -0.126205
v -0.040241 -0.0798955 -0.126374
v -0.041534 -0.0792565 -0.12972
v -0.040955 -0.0798955 -0.129789
v -0.041648 -0.0792565 -0.133308
v -0.041066 -0.0798955 -0.133276
v -0.041137 -0.0792565 -0.136862
v -0.040569 -0.0798955 -0.136729
v -0.040016 -0.0792565 -0.140273
v -0.03948 -0.0798955 -0.140043
v -0.03832 -0.0792565 -0.143437
v -0.037832 -0.0798955 -0.143118
v -0.03609 -0.0792575 -0.146251
v -0.035676 -0.0798955 -0.14586
v -0.033425 -0.0792565 -0.148653
v -0.033075 -0.0798955 -0.148186
v -0.030374 -0.0792565 -0.150546
v -0.030111 -0.0798955 -0.150025
v -0.027041 -0.0792565 -0.15188
v -0.026872 -0.0798955 -0.151321
v -0.023527 -0.0792565 -0.152615
v -0.023457 -0.0798955 -0.152036
v -0.019938 -0.0792565 -0.152728
v -0.019971 -0.0798955 -0.152146
v -0.016384 -0.0792565 -0.152217
v -0.016517 -0.0798955 -0.151649
v -0.012973 -0.0792565 -0.151097
v -0.013203 -0.0798955 -0.150561
v -0.009809 -0.0792565 -0.149401
v -0.010128 -0.0798955 -0.148913
vt 0.743366 0.58979
vt 0.750155 0.58979
vt 0.741669 0.689469
vt 0.972684 0.689469
vt 0.974382 0.58979
vt 0.736758 0.58979
vt 0.750419 0.535766
vt 0.75742 0.583563
vt 0.750419 0.583563
vt 0.965966 0.583563
vt 0.974435 0.535766
vt 0.729418 0.535766
vt 0.757367 0.58979
vt 0.764156 0.58979
vt 0.75567 0.689469
vt 0.743419 0.535766
vt 0.750419 0.583563
vt 0.743419 0.583563
vt 0.764367 0.58979
vt 0.771157 0.58979
vt 0.76267 0.689469
vt 0.75742 0.535766
vt 0.76442 0.583563
vt 0.75742 0.583563
vt 0.771368 0.58979
vt 0.778157 0.58979
vt 0.769671 0.689469
vt 0.76442 0.583563
vt 0.771421 0.535766
vt 0.771421 0.583563
vt 0.778368 0.58979
vt 0.785158 0.58979
vt 0.776671 0.689469
vt 0.771421 0.583563
vt 0.778421 0.535766
vt 0.778421 0.583563
vt 0.785369 0.58979
vt 0.792158 0.58979
vt 0.783671 0.689469
vt 0.778421 0.535766
vt 0.785422 0.583563
vt 0.778421 0.583563
vt 0.792369 0.58979
vt 0.799159 0.58979
vt 0.790672 0.689469
vt 0.785422 0.535766
vt 0.792422 0.583563
vt 0.785422 0.583563
vt 0.79937 0.58979
vt 0.806159 0.58979
vt 0.797672 0.689469
vt 0.792422 0.535766
vt 0.799423 0.583563
vt 0.792422 0.583563
vt 0.80637 0.58979
vt 0.813159 0.58979
vt 0.804673 0.689469
vt 0.799423 0.583563
vt 0.806423 0.535766
vt 0.806423 0.583563
vt 0.813371 0.58979
vt 0.82016 0.58979
vt 0.811673 0.689469
vt 0.806423 0.535766
vt 0.813424 0.583563
vt 0.806423 0.583563
vt 0.820371 0.58979
vt 0.82716 0.58979
vt 0.818674 0.689469
vt 0.813424 0.535766
vt 0.820424 0.583563
vt 0.813424 0.583563
vt 0.827372 0.58979
vt 0.834161 0.58979
vt 0.825674 0.689469
vt 0.820424 0.583563
vt 0.827425 0.535766
vt 0.827425 0.583563
vt 0.834372 0.58979
vt 0.841161 0.58979
vt 0.832675 0.689469
vt 0.827425 0.535766
vt 0.834425 0.583563
vt 0.827425 0.583563
vt 0.841373 0.58979
vt 0.848162 0.58979
vt 0.839675 0.689469
vt 0.834425 0.535766
vt 0.841425 0.583563
vt 0.834425 0.583563
vt 0.848373 0.58979
vt 0.855162 0.58979
vt 0.846676 0.689469
vt 0.841425 0.535766
vt 0.848426 0.583563
vt 0.841425 0.583563
vt 0.855374 0.58979
vt 0.862163 0.58979
vt 0.853676 0.689469
vt 0.848426 0.535766
vt 0.855426 0.583563
vt 0.848426 0.583563
vt 0.862374 0.58979
vt 0.869163 0.58979
vt 0.860677 0.689469
vt 0.855426 0.535766
vt 0.862427 0.583563
vt 0.855426 0.583563
vt 0.869375 0.58979
vt 0.876164 0.58979
vt 0.867677 0.689469
vt 0.862427 0.583563
vt 0.869427 0.535766
vt 0.869427 0.583563
vt 0.876375 0.58979
vt 0.883164 0.58979
vt 0.874678 0.689469
vt 0.869427 0.535766
vt 0.876428 0.583563
vt 0.869427 0.583563
vt 0.883376 0.58979
vt 0.890165 0.58979
vt 0.881678 0.689469
vt 0.876428 0.535766
vt 0.883428 0.583563
vt 0.876428 0.583563
vt 0.890376 0.58979
vt 0.897165 0.58979
vt 0.888679 0.689469
vt 0.883428 0.535766
vt 0.890429 0.583563
vt 0.883428 0.583563
vt 0.897376 0.58979
vt 0.904166 0.58979
vt 0.895679 0.689469
vt 0.890429 0.535766
vt 0.897429 0.583563
vt 0.890429 0.583563
vt 0.904377 0.58979
vt 0.911166 0.58979
vt 0.90268 0.689469
vt 0.897429 0.583563
vt 0.90443 0.535766
vt 0.90443 0.583563
vt 0.911377 0.58979
vt 0.918167 0.58979
vt 0.90968 0.689469
vt 0.90443 0.535766
vt 0.91143 0.583563
vt 0.90443 0.583563
vt 0.918378 0.58979
vt 0.925167 0.58979
vt 0.916681 0.689469
vt 0.91143 0.535766
vt 0.918431 0.583568
vt 0.91143 0.583563
vt 0.925378 0.58979
vt 0.932168 0.58979
vt 0.923681 0.689469
vt 0.918431 0.583568
vt 0.925431 0.535766
vt 0.925431 0.583563
vt 0.932379 0.58979
vt 0.939168 0.58979
vt 0.930682 0.689469
vt 0.925431 0.535766
vt 0.932432 0.583563
vt 0.925431 0.583563
vt 0.939379 0.58979
vt 0.946169 0.58979
vt 0.937682 0.689469
vt 0.932432 0.535766
vt 0.939432 0.583563
vt 0.932432 0.583563
vt 0.94638 0.58979
vt 0.953169 0.58979
vt 0.944683 0.689469
vt 0.939432 0.535766
vt 0.946433 0.583563
vt 0.939432 0.583563
vt 0.95338 0.58979
vt 0.96017 0.58979
vt 0.951683 0.689469
vt 0.946433 0.535766
vt 0.953433 0.583563
vt 0.946433 0.583563
vt 0.960381 0.58979
vt 0.96717 0.58979
vt 0.958683 0.689469
vt 0.953433 0.535766
vt 0.960434 0.583563
vt 0.953433 0.583563
vt 0.818108 0.342218
vt 0.818091 0.342913
vt 0.814336 0.342913
vt 0.967381 0.58979
vt 0.974171 0.58979
vt 0.965684 0.689469
vt 0.960434 0.535766
vt 0.967434 0.583563
vt 0.960434 0.583563
vt 0.736418 0.535766
vt 0.743419 0.583563
vt 0.736418 0.583563
vt 0.967434 0.535766
vt 0.974435 0.583563
vt 0.967434 0.583563
vt 0.818058 0.3443
vt 0.818091 0.342913
vt 0.821864 0.342913
vt 0.873325 0.342218
vt 0.808397 0.342218
vt 0.808396 0.342913
vt 0.808397 0.342218
vt 0.810982 0.342218
vt 0.810976 0.342913
vt 0.858465 0.342218
vt 0.858427 0.342913
vt 0.857216 0.342913
vt 0.859615 0.342218
vt 0.859578 0.342913
vt 0.858427 0.342913
vt 0.810982 0.342218
vt 0.814347 0.342218
vt 0.814336 0.342913
vt 0.825321 0.342218
vt 0.825295 0.342913
vt 0.821864 0.342913
vt 0.828104 0.342218
vt 0.828077 0.342913
vt 0.825295 0.342913
vt 0.830126 0.342218
vt 0.830105 0.342913
vt 0.828077 0.342913
vt 0.832009 0.342218
vt 0.831999 0.342913
vt 0.830105 0.342913
vt 0.832009 0.342218
vt 0.834287 0.342218
vt 0.834281 0.342913
vt 0.834287 0.342218
vt 0.83727 0.342218
vt 0.837262 0.342913
vt 0.83727 0.342218
vt 0.840817 0.342218
vt 0.840805 0.342913
vt 0.840817 0.342218
vt 0.844615 0.342218
vt 0.844597 0.342913
vt 0.844615 0.342218
vt 0.848304 0.342218
vt 0.848281 0.342913
vt 0.851506 0.342218
vt 0.851477 0.342913
vt 0.848281 0.342913
vt 0.853832 0.342218
vt 0.8538 0.342913
vt 0.851477 0.342913
vt 0.860746 0.342218
vt 0.860712 0.342913
vt 0.859578 0.342913
vt 0.861922 0.342218
vt 0.861892 0.342913
vt 0.860712 0.342913
vt 0.863221 0.342218
vt 0.863199 0.342913
vt 0.861892 0.342913
vt 0.863221 0.342218
vt 0.864689 0.342218
vt 0.864676 0.342913
vt 0.866032 0.342218
vt 0.866026 0.342913
vt 0.864676 0.342913
vt 0.866032 0.342218
vt 0.86723 0.342218
vt 0.867231 0.342913
vt 0.86723 0.342218
vt 0.868365 0.342218
vt 0.868369 0.342913
vt 0.868365 0.342218
vt 0.869506 0.342218
vt 0.869511 0.342913
vt 0.869506 0.342218
vt 0.8707 0.342218
vt 0.870705 0.342913
vt 0.8707 0.342218
vt 0.871971 0.342218
vt 0.871974 0.342913
vt 0.871971 0.342218
vt 0.873325 0.342218
vt 0.873326 0.342913
vt 0.821886 0.342218
vt 0.821864 0.342913
vt 0.818091 0.342913
vt 0.857253 0.342218
vt 0.857216 0.342913
vt 0.855926 0.342913
vt 0.814314 0.3443
vt 0.814336 0.342913
vt 0.818091 0.342913
vt 0.855855 0.3443
vt 0.855926 0.342913
vt 0.857216 0.342913
vt 0.860643 0.3443
vt 0.860712 0.342913
vt 0.861892 0.342913
vt 0.861834 0.3443
vt 0.861892 0.342913
vt 0.863199 0.342913
vt 0.858351 0.3443
vt 0.858427 0.342913
vt 0.859578 0.342913
vt 0.810976 0.342913
vt 0.814336 0.342913
vt 0.814314 0.3443
vt 0.825244 0.3443
vt 0.825295 0.342913
vt 0.828077 0.342913
vt 0.82182 0.3443
vt 0.821864 0.342913
vt 0.825295 0.342913
vt 0.828025 0.3443
vt 0.828077 0.342913
vt 0.830105 0.342913
vt 0.830063 0.3443
vt 0.830105 0.342913
vt 0.831999 0.342913
vt 0.831999 0.342913
vt 0.834281 0.342913
vt 0.834269 0.3443
vt 0.834281 0.342913
vt 0.837262 0.342913
vt 0.837247 0.3443
vt 0.837262 0.342913
vt 0.840805 0.342913
vt 0.840781 0.3443
vt 0.840805 0.342913
vt 0.844597 0.342913
vt 0.844562 0.3443
vt 0.844597 0.342913
vt 0.848281 0.342913
vt 0.848234 0.3443
vt 0.848234 0.3443
vt 0.848281 0.342913
vt 0.851477 0.342913
vt 0.85142 0.3443
vt 0.851477 0.342913
vt 0.8538 0.342913
vt 0.857142 0.3443
vt 0.857216 0.342913
vt 0.858427 0.342913
vt 0.808396 0.342913
vt 0.810976 0.342913
vt 0.810965 0.3443
vt 0.859504 0.3443
vt 0.859578 0.342913
vt 0.860712 0.342913
vt 0.863199 0.342913
vt 0.864676 0.342913
vt 0.86465 0.3443
vt 0.864676 0.342913
vt 0.866026 0.342913
vt 0.866016 0.3443
vt 0.866026 0.342913
vt 0.867231 0.342913
vt 0.867232 0.3443
vt 0.867231 0.342913
vt 0.868369 0.342913
vt 0.868377 0.3443
vt 0.868369 0.342913
vt 0.869511 0.342913
vt 0.869521 0.3443
vt 0.869511 0.342913
vt 0.870705 0.342913
vt 0.870714 0.3443
vt 0.870705 0.342913
vt 0.871974 0.342913
vt 0.871981 0.3443
vt 0.871974 0.342913
vt 0.873326 0.342913
vt 0.873329 0.3443
vt 0.854487 0.3443
vt 0.854585 0.342913
vt 0.855926 0.342913
vt 0.818058 0.3443
vt 0.818052 0.357281
vt 0.814311 0.357281
vt 0.818052 0.357281
vt 0.818047 0.370262
vt 0.814307 0.370262
vt 0.810965 0.3443
vt 0.814314 0.3443
vt 0.814311 0.357281
vt 0.873329 0.3443
vt 0.808393 0.3443
vt 0.808393 0.357281
vt 0.860643 0.3443
vt 0.860631 0.357281
vt 0.859491 0.357281
vt 0.861834 0.3443
vt 0.861824 0.357281
vt 0.860631 0.357281
vt 0.858351 0.3443
vt 0.858338 0.357281
vt 0.857129 0.357281
vt 0.808393 0.3443
vt 0.810965 0.3443
vt 0.810963 0.357281
vt 0.825244 0.3443
vt 0.825235 0.357281
vt 0.821813 0.357281
vt 0.82182 0.3443
vt 0.821813 0.357281
vt 0.818052 0.357281
vt 0.828025 0.3443
vt 0.828015 0.357281
vt 0.825235 0.357281
vt 0.830063 0.3443
vt 0.830056 0.357281
vt 0.828015 0.357281
vt 0.831978 0.3443
vt 0.831975 0.357281
vt 0.830056 0.357281
vt 0.831978 0.3443
vt 0.834269 0.3443
vt 0.834266 0.357281
vt 0.834269 0.3443
vt 0.837247 0.3443
vt 0.837244 0.357281
vt 0.837247 0.3443
vt 0.840781 0.3443
vt 0.840776 0.357281
vt 0.840781 0.3443
vt 0.844562 0.3443
vt 0.844556 0.357281
vt 0.844562 0.3443
vt 0.848234 0.3443
vt 0.848226 0.357281
vt 0.85142 0.3443
vt 0.85141 0.357281
vt 0.848226 0.357281
vt 0.853736 0.3443
vt 0.853725 0.357281
vt 0.85141 0.357281
vt 0.857142 0.3443
vt 0.857129 0.357281
vt 0.855842 0.357281
vt 0.859504 0.3443
vt 0.859491 0.357281
vt 0.858338 0.357281
vt 0.863155 0.3443
vt 0.863147 0.357281
vt 0.861824 0.357281
vt 0.86465 0.3443
vt 0.864645 0.357281
vt 0.863147 0.357281
vt 0.86465 0.3443
vt 0.866016 0.3443
vt 0.866014 0.357281
vt 0.866016 0.3443
vt 0.867232 0.3443
vt 0.867232 0.357281
vt 0.867232 0.3443
vt 0.868377 0.3443
vt 0.868378 0.357281
vt 0.868377 0.3443
vt 0.869521 0.3443
vt 0.869523 0.357281
vt 0.869521 0.3443
vt 0.870714 0.3443
vt 0.870715 0.357281
vt 0.870714 0.3443
vt 0.871981 0.3443
vt 0.871982 0.357281
vt 0.871981 0.3443
vt 0.873329 0.3443
vt 0.873329 0.357281
vt 0.814307 0.370262
vt 0.818047 0.370262
vt 0.818041 0.383243
vt 0.810963 0.357281
vt 0.814311 0.357281
vt 0.814307 0.370262
vt 0.873329 0.357281
vt 0.808393 0.357281
vt 0.808392 0.370262
vt 0.860631 0.357281
vt 0.86062 0.370262
vt 0.859478 0.370262
vt 0.861824 0.357281
vt 0.861814 0.370262
vt 0.86062 0.370262
vt 0.858338 0.357281
vt 0.858325 0.370262
vt 0.857116 0.370262
vt 0.808393 0.357281
vt 0.810963 0.357281
vt 0.810961 0.370262
vt 0.825235 0.357281
vt 0.825226 0.370262
vt 0.821805 0.370262
vt 0.821813 0.357281
vt 0.821805 0.370262
vt 0.818047 0.370262
vt 0.828015 0.357281
vt 0.828006 0.370262
vt 0.825226 0.370262
vt 0.830056 0.357281
vt 0.830048 0.370262
vt 0.828006 0.370262
vt 0.831975 0.357281
vt 0.831971 0.370262
vt 0.830048 0.370262
vt 0.831975 0.357281
vt 0.834266 0.357281
vt 0.834264 0.370262
vt 0.834266 0.357281
vt 0.837244 0.357281
vt 0.837242 0.370262
vt 0.837244 0.357281
vt 0.840776 0.357281
vt 0.840772 0.370262
vt 0.840776 0.357281
vt 0.844556 0.357281
vt 0.84455 0.370262
vt 0.848226 0.357281
vt 0.848218 0.370262
vt 0.84455 0.370262
vt 0.85141 0.357281
vt 0.851401 0.370262
vt 0.848218 0.370262
vt 0.853725 0.357281
vt 0.853714 0.370262
vt 0.851401 0.370262
vt 0.857129 0.357281
vt 0.857116 0.370262
vt 0.85583 0.370262
vt 0.859491 0.357281
vt 0.859478 0.370262
vt 0.858325 0.370262
vt 0.863147 0.357281
vt 0.86314 0.370262
vt 0.861814 0.370262
vt 0.864645 0.357281
vt 0.864641 0.370262
vt 0.86314 0.370262
vt 0.864645 0.357281
vt 0.866014 0.357281
vt 0.866012 0.370262
vt 0.866014 0.357281
vt 0.867232 0.357281
vt 0.867232 0.370262
vt 0.867232 0.357281
vt 0.868378 0.357281
vt 0.868379 0.370262
vt 0.868378 0.357281
vt 0.869523 0.357281
vt 0.869525 0.370262
vt 0.869523 0.357281
vt 0.870715 0.357281
vt 0.870717 0.370262
vt 0.870715 0.357281
vt 0.871982 0.357281
vt 0.871983 0.370262
vt 0.871982 0.357281
vt 0.873329 0.357281
vt 0.873329 0.370262
vt 0.814303 0.383243
vt 0.818041 0.383243
vt 0.818035 0.396223
vt 0.810961 0.370262
vt 0.814307 0.370262
vt 0.814303 0.383243
vt 0.873329 0.370262
vt 0.808392 0.370262
vt 0.808392 0.383243
vt 0.86062 0.370262
vt 0.860608 0.383243
vt 0.859466 0.383243
vt 0.861814 0.370262
vt 0.861804 0.383243
vt 0.860608 0.383243
vt 0.858325 0.370262
vt 0.858312 0.383243
vt 0.857103 0.383243
vt 0.808392 0.370262
vt 0.810961 0.370262
vt 0.810959 0.383243
vt 0.825226 0.370262
vt 0.825218 0.383243
vt 0.821798 0.383243
vt 0.821805 0.370262
vt 0.821798 0.383243
vt 0.818041 0.383243
vt 0.828006 0.370262
vt 0.827997 0.383243
vt 0.825218 0.383243
vt 0.830048 0.370262
vt 0.830041 0.383243
vt 0.827997 0.383243
vt 0.831971 0.370262
vt 0.831968 0.383243
vt 0.830041 0.383243
vt 0.831971 0.370262
vt 0.834264 0.370262
vt 0.834262 0.383243
vt 0.834264 0.370262
vt 0.837242 0.370262
vt 0.837239 0.383243
vt 0.837242 0.370262
vt 0.840772 0.370262
vt 0.840768 0.383243
vt 0.840772 0.370262
vt 0.84455 0.370262
vt 0.844544 0.383243
vt 0.848218 0.370262
vt 0.84821 0.383243
vt 0.844544 0.383243
vt 0.851401 0.370262
vt 0.851391 0.383243
vt 0.84821 0.383243
vt 0.853714 0.370262
vt 0.853702 0.383243
vt 0.851391 0.383243
vt 0.857116 0.370262
vt 0.857103 0.383243
vt 0.855818 0.383243
vt 0.859478 0.370262
vt 0.859466 0.383243
vt 0.858312 0.383243
vt 0.86314 0.370262
vt 0.863132 0.383243
vt 0.861804 0.383243
vt 0.864641 0.370262
vt 0.864636 0.383243
vt 0.863132 0.383243
vt 0.864641 0.370262
vt 0.866012 0.370262
vt 0.866011 0.383243
vt 0.866012 0.370262
vt 0.867232 0.370262
vt 0.867232 0.383243
vt 0.867232 0.370262
vt 0.868379 0.370262
vt 0.868381 0.383243
vt 0.868379 0.370262
vt 0.869525 0.370262
vt 0.869526 0.383243
vt 0.869525 0.370262
vt 0.870717 0.370262
vt 0.870719 0.383243
vt 0.870717 0.370262
vt 0.871983 0.370262
vt 0.871984 0.383243
vt 0.871983 0.370262
vt 0.873329 0.370262
vt 0.87333 0.383243
vt 0.8143 0.396223
vt 0.818035 0.396223
vt 0.818025 0.403266
vt 0.810959 0.383243
vt 0.814303 0.383243
vt 0.8143 0.396223
vt 0.87333 0.383243
vt 0.808392 0.383243
vt 0.808391 0.396223
vt 0.860608 0.383243
vt 0.860596 0.396223
vt 0.859453 0.396223
vt 0.861804 0.383243
vt 0.861794 0.396223
vt 0.860596 0.396223
vt 0.858312 0.383243
vt 0.858299 0.396223
vt 0.85709 0.396223
vt 0.808392 0.383243
vt 0.810959 0.383243
vt 0.810957 0.396223
vt 0.825218 0.383243
vt 0.825209 0.396223
vt 0.82179 0.396223
vt 0.821798 0.383243
vt 0.82179 0.396223
vt 0.818035 0.396223
vt 0.827997 0.383243
vt 0.827988 0.396223
vt 0.825209 0.396223
vt 0.830041 0.383243
vt 0.830034 0.396223
vt 0.827988 0.396223
vt 0.831968 0.383243
vt 0.831964 0.396223
vt 0.830034 0.396223
vt 0.831968 0.383243
vt 0.834262 0.383243
vt 0.83426 0.396223
vt 0.834262 0.383243
vt 0.837239 0.383243
vt 0.837237 0.396223
vt 0.837239 0.383243
vt 0.840768 0.383243
vt 0.840764 0.396223
vt 0.840768 0.383243
vt 0.844544 0.383243
vt 0.844538 0.396223
vt 0.84821 0.383243
vt 0.848202 0.396223
vt 0.844538 0.396223
vt 0.851391 0.383243
vt 0.851381 0.396223
vt 0.848202 0.396223
vt 0.853702 0.383243
vt 0.853691 0.396223
vt 0.851381 0.396223
vt 0.857103 0.383243
vt 0.85709 0.396223
vt 0.855806 0.396223
vt 0.859466 0.383243
vt 0.859453 0.396223
vt 0.858299 0.396223
vt 0.863132 0.383243
vt 0.863125 0.396223
vt 0.861794 0.396223
vt 0.864636 0.383243
vt 0.864632 0.396223
vt 0.863125 0.396223
vt 0.864636 0.383243
vt 0.866011 0.383243
vt 0.866009 0.396223
vt 0.866011 0.383243
vt 0.867232 0.383243
vt 0.867232 0.396223
vt 0.867232 0.383243
vt 0.868381 0.383243
vt 0.868382 0.396223
vt 0.868381 0.383243
vt 0.869526 0.383243
vt 0.869528 0.396223
vt 0.869526 0.383243
vt 0.870719 0.383243
vt 0.87072 0.396223
vt 0.870719 0.383243
vt 0.871984 0.383243
vt 0.871985 0.396223
vt 0.871984 0.383243
vt 0.87333 0.383243
vt 0.87333 0.396223
vt 0.817996 0.405476
vt 0.818025 0.403266
vt 0.821777 0.403266
vt 0.810957 0.396223
vt 0.8143 0.396223
vt 0.814293 0.403266
vt 0.87333 0.396223
vt 0.808391 0.396223
vt 0.80839 0.403266
vt 0.860596 0.396223
vt 0.860575 0.403266
vt 0.85943 0.403266
vt 0.861794 0.396223
vt 0.861776 0.403266
vt 0.860575 0.403266
vt 0.858299 0.396223
vt 0.858276 0.403266
vt 0.857067 0.403266
vt 0.808391 0.396223
vt 0.810957 0.396223
vt 0.810954 0.403266
vt 0.825209 0.396223
vt 0.825193 0.403266
vt 0.821777 0.403266
vt 0.82179 0.396223
vt 0.821777 0.403266
vt 0.818025 0.403266
vt 0.827988 0.396223
vt 0.827972 0.403266
vt 0.825193 0.403266
vt 0.830034 0.396223
vt 0.830021 0.403266
vt 0.827972 0.403266
vt 0.831964 0.396223
vt 0.831958 0.403266
vt 0.830021 0.403266
vt 0.831964 0.396223
vt 0.83426 0.396223
vt 0.834256 0.403266
vt 0.83426 0.396223
vt 0.837237 0.396223
vt 0.837232 0.403266
vt 0.837237 0.396223
vt 0.840764 0.396223
vt 0.840757 0.403266
vt 0.840764 0.396223
vt 0.844538 0.396223
vt 0.844527 0.403266
vt 0.848202 0.396223
vt 0.848188 0.403266
vt 0.844527 0.403266
vt 0.851381 0.396223
vt 0.851364 0.403266
vt 0.848188 0.403266
vt 0.853691 0.396223
vt 0.853672 0.403266
vt 0.851364 0.403266
vt 0.85709 0.396223
vt 0.857067 0.403266
vt 0.855784 0.403266
vt 0.859453 0.396223
vt 0.85943 0.403266
vt 0.858276 0.403266
vt 0.863125 0.396223
vt 0.863111 0.403266
vt 0.861776 0.403266
vt 0.864632 0.396223
vt 0.864624 0.403266
vt 0.863111 0.403266
vt 0.864632 0.396223
vt 0.866009 0.396223
vt 0.866006 0.403266
vt 0.866009 0.396223
vt 0.867232 0.396223
vt 0.867232 0.403266
vt 0.867232 0.396223
vt 0.868382 0.396223
vt 0.868384 0.403266
vt 0.868382 0.396223
vt 0.869528 0.396223
vt 0.869531 0.403266
vt 0.869528 0.396223
vt 0.87072 0.396223
vt 0.870723 0.403266
vt 0.87072 0.396223
vt 0.871985 0.396223
vt 0.871987 0.403266
vt 0.871985 0.396223
vt 0.87333 0.396223
vt 0.873331 0.403266
vt 0.814293 0.403266
vt 0.818025 0.403266
vt 0.817996 0.405476
vt 0.855721 0.405476
vt 0.855784 0.403266
vt 0.857067 0.403266
vt 0.860515 0.405476
vt 0.860575 0.403266
vt 0.861776 0.403266
vt 0.861724 0.405476
vt 0.861776 0.403266
vt 0.863111 0.403266
vt 0.858209 0.405476
vt 0.858276 0.403266
vt 0.85943 0.403266
vt 0.810954 0.403266
vt 0.814293 0.403266
vt 0.814274 0.405476
vt 0.825148 0.405476
vt 0.825193 0.403266
vt 0.827972 0.403266
vt 0.821738 0.405476
vt 0.821777 0.403266
vt 0.825193 0.403266
vt 0.827926 0.405476
vt 0.827972 0.403266
vt 0.830021 0.403266
vt 0.829984 0.405476
vt 0.830021 0.403266
vt 0.831958 0.403266
vt 0.831958 0.403266
vt 0.834256 0.403266
vt 0.834246 0.405476
vt 0.834256 0.403266
vt 0.837232 0.403266
vt 0.837219 0.405476
vt 0.837232 0.403266
vt 0.840757 0.403266
vt 0.840736 0.405476
vt 0.840757 0.403266
vt 0.844527 0.403266
vt 0.844496 0.405476
vt 0.844496 0.405476
vt 0.844527 0.403266
vt 0.848188 0.403266
vt 0.848147 0.405476
vt 0.848188 0.403266
vt 0.851364 0.403266
vt 0.851313 0.405476
vt 0.851364 0.403266
vt 0.853672 0.403266
vt 0.857002 0.405476
vt 0.857067 0.403266
vt 0.858276 0.403266
vt 0.80839 0.403266
vt 0.810954 0.403266
vt 0.810944 0.405476
vt 0.859365 0.405476
vt 0.85943 0.403266
vt 0.860575 0.403266
vt 0.863073 0.405476
vt 0.863111 0.403266
vt 0.864624 0.403266
vt 0.864624 0.403266
vt 0.866006 0.403266
vt 0.865996 0.405476
vt 0.866006 0.403266
vt 0.867232 0.403266
vt 0.867233 0.405476
vt 0.867232 0.403266
vt 0.868384 0.403266
vt 0.868391 0.405476
vt 0.868384 0.403266
vt 0.869531 0.403266
vt 0.86954 0.405476
vt 0.869531 0.403266
vt 0.870723 0.403266
vt 0.870731 0.405476
vt 0.870723 0.403266
vt 0.871987 0.403266
vt 0.871993 0.405476
vt 0.871987 0.403266
vt 0.873331 0.403266
vt 0.873333 0.405476
vt 0.808385 0.407688
vt 0.873335 0.407688
vt 0.873333 0.405476
vt 0.821738 0.405476
vt 0.8217 0.407688
vt 0.817967 0.407688
vt 0.817967 0.407688
vt 0.814255 0.407688
vt 0.814274 0.405476
vt 0.857002 0.405476
vt 0.856937 0.407688
vt 0.855659 0.407688
vt 0.861724 0.405476
vt 0.861673 0.407688
vt 0.860454 0.407688
vt 0.863073 0.405476
vt 0.863034 0.407688
vt 0.861673 0.407688
vt 0.859365 0.405476
vt 0.8593 0.407688
vt 0.858143 0.407688
vt 0.814255 0.407688
vt 0.810934 0.407688
vt 0.810944 0.405476
vt 0.827926 0.405476
vt 0.827879 0.407688
vt 0.825102 0.407688
vt 0.825148 0.405476
vt 0.825102 0.407688
vt 0.8217 0.407688
vt 0.829984 0.405476
vt 0.829947 0.407688
vt 0.827879 0.407688
vt 0.831939 0.405476
vt 0.831921 0.407688
vt 0.829947 0.407688
vt 0.834235 0.407688
vt 0.831921 0.407688
vt 0.831939 0.405476
vt 0.837205 0.407688
vt 0.834235 0.407688
vt 0.834246 0.405476
vt 0.840715 0.407688
vt 0.837205 0.407688
vt 0.837219 0.405476
vt 0.844466 0.407688
vt 0.840715 0.407688
vt 0.840736 0.405476
vt 0.848147 0.405476
vt 0.848106 0.407688
vt 0.844466 0.407688
vt 0.851313 0.405476
vt 0.851264 0.407688
vt 0.848106 0.407688
vt 0.853615 0.405476
vt 0.853558 0.407688
vt 0.851264 0.407688
vt 0.858209 0.405476
vt 0.858143 0.407688
vt 0.856937 0.407688
vt 0.810934 0.407688
vt 0.808385 0.407688
vt 0.808388 0.405476
vt 0.860515 0.405476
vt 0.860454 0.407688
vt 0.8593 0.407688
vt 0.864578 0.407688
vt 0.863034 0.407688
vt 0.863073 0.405476
vt 0.865987 0.407688
vt 0.864578 0.407688
vt 0.864601 0.405476
vt 0.867234 0.407688
vt 0.865987 0.407688
vt 0.865996 0.405476
vt 0.868397 0.407688
vt 0.867234 0.407688
vt 0.867233 0.405476
vt 0.869549 0.407688
vt 0.868397 0.407688
vt 0.868391 0.405476
vt 0.870739 0.407688
vt 0.869549 0.407688
vt 0.86954 0.405476
vt 0.871998 0.407688
vt 0.870739 0.407688
vt 0.870731 0.405476
vt 0.873335 0.407688
vt 0.871998 0.407688
vt 0.871993 0.405476
vt 0.736365 0.58979
vt 0.743155 0.58979
vt 0.734668 0.689469
vt 0.736418 0.583563
vt 0.729418 0.535766
vt 0.736418 0.535766
vt 0.750366 0.58979
vt 0.757156 0.58979
vt 0.748669 0.689469
vt 0.873331 0.403266
vt 0.80839 0.403266
vt 0.808388 0.405476
vt 0.854585 0.342913
vt 0.854487 0.3443
vt 0.853736 0.3443
vt 0.864689 0.342218
vt 0.857253 0.342218
vt 0.8707 0.342218
vt 0.8538 0.342913
vt 0.853832 0.342218
vt 0.854643 0.342218
vt 0.854585 0.342913
vt 0.854643 0.342218
vt 0.855961 0.342218
vt 0.854668 0.405476
vt 0.854609 0.407688
vt 0.853558 0.407688
vt 0.855721 0.405476
vt 0.855659 0.407688
vt 0.854609 0.407688
vt 0.853615 0.405476
vt 0.853672 0.403266
vt 0.85467 0.398132
vt 0.854668 0.405476
vt 0.85467 0.398132
vt 0.855784 0.403266
vt 0.853672 0.403266
vt 0.853691 0.396223
vt 0.854674 0.390326
vt 0.85467 0.398132
vt 0.854674 0.390326
vt 0.855806 0.396223
vt 0.853691 0.396223
vt 0.853702 0.383243
vt 0.854669 0.379065
vt 0.854674 0.390326
vt 0.854669 0.379065
vt 0.855818 0.383243
vt 0.853702 0.383243
vt 0.853714 0.370262
vt 0.854653 0.367313
vt 0.854669 0.379065
vt 0.854653 0.367313
vt 0.85583 0.370262
vt 0.853714 0.370262
vt 0.853725 0.357281
vt 0.854612 0.355491
vt 0.854653 0.367313
vt 0.854612 0.355491
vt 0.855842 0.357281
vt 0.853725 0.357281
vt 0.853736 0.3443
vt 0.854487 0.3443
vt 0.854612 0.355491
vt 0.854487 0.3443
vt 0.855855 0.3443
vt 0.873326 0.342913
vt 0.808396 0.342913
vt 0.808393 0.3443
vt 0.736412 0.586689
vt 0.736969 0.58979
vt 0.729424 0.586689
vt 0.736418 0.583563
vt 0.743155 0.58979
vt 0.736365 0.58979
vt 0.743419 0.583563
vt 0.750155 0.58979
vt 0.743366 0.58979
vt 0.75742 0.583563
vt 0.750366 0.58979
vt 0.750419 0.583563
vt 0.75742 0.583563
vt 0.764156 0.58979
vt 0.757367 0.58979
vt 0.76442 0.583563
vt 0.771157 0.58979
vt 0.764367 0.58979
vt 0.771421 0.583563
vt 0.778157 0.58979
vt 0.771368 0.58979
vt 0.785422 0.583563
vt 0.778368 0.58979
vt 0.778421 0.583563
vt 0.785422 0.583563
vt 0.792158 0.58979
vt 0.785369 0.58979
vt 0.799423 0.583563
vt 0.792369 0.58979
vt 0.792422 0.583563
vt 0.799423 0.583563
vt 0.806159 0.58979
vt 0.79937 0.58979
vt 0.813424 0.583563
vt 0.80637 0.58979
vt 0.806423 0.583563
vt 0.820424 0.583563
vt 0.813371 0.58979
vt 0.813424 0.583563
vt 0.827425 0.583563
vt 0.820371 0.58979
vt 0.820424 0.583563
vt 0.834425 0.583563
vt 0.827372 0.58979
vt 0.827425 0.583563
vt 0.841425 0.583563
vt 0.834372 0.58979
vt 0.834425 0.583563
vt 0.848426 0.583563
vt 0.841373 0.58979
vt 0.841425 0.583563
vt 0.855426 0.583563
vt 0.848373 0.58979
vt 0.848426 0.583563
vt 0.862427 0.583563
vt 0.855374 0.58979
vt 0.855426 0.583563
vt 0.862427 0.583563
vt 0.869163 0.58979
vt 0.862374 0.58979
vt 0.876428 0.583563
vt 0.869375 0.58979
vt 0.869427 0.583563
vt 0.876428 0.583563
vt 0.883164 0.58979
vt 0.876375 0.58979
vt 0.883428 0.583563
vt 0.890165 0.58979
vt 0.883376 0.58979
vt 0.890429 0.583563
vt 0.897165 0.58979
vt 0.890376 0.58979
vt 0.90443 0.583563
vt 0.897376 0.58979
vt 0.897429 0.583563
vt 0.91143 0.583563
vt 0.904377 0.58979
vt 0.90443 0.583563
vt 0.918431 0.583568
vt 0.911377 0.58979
vt 0.91143 0.583563
vt 0.918431 0.583568
vt 0.925167 0.58979
vt 0.918378 0.58979
vt 0.925431 0.583563
vt 0.932168 0.58979
vt 0.925378 0.58979
vt 0.939432 0.583563
vt 0.932379 0.58979
vt 0.932432 0.583563
vt 0.946433 0.583563
vt 0.939379 0.58979
vt 0.939432 0.583563
vt 0.953433 0.583563
vt 0.94638 0.58979
vt 0.946433 0.583563
vt 0.953433 0.583563
vt 0.96017 0.58979
vt 0.95338 0.58979
vt 0.960434 0.583563
vt 0.96717 0.58979
vt 0.960381 0.58979
vt 0.967434 0.583563
vt 0.974171 0.58979
vt 0.967381 0.58979
vt 0.97454 0.586689
vt 0.965966 0.583563
vt 0.981329 0.586689
vt 0.736969 0.58979
vt 0.743758 0.58979
vt 0.979685 0.689469
vt 0.750419 0.535766
vt 0.75742 0.535766
vt 0.75742 0.583563
vt 0.965966 0.583563
vt 0.974435 0.583563
vt 0.974435 0.535766
vt 0.743419 0.535766
vt 0.750419 0.535766
vt 0.750419 0.583563
vt 0.75742 0.535766
vt 0.76442 0.535766
vt 0.76442 0.583563
vt 0.76442 0.583563
vt 0.76442 0.535766
vt 0.771421 0.535766
vt 0.771421 0.583563
vt 0.771421 0.535766
vt 0.778421 0.535766
vt 0.778421 0.535766
vt 0.785422 0.535766
vt 0.785422 0.583563
vt 0.785422 0.535766
vt 0.792422 0.535766
vt 0.792422 0.583563
vt 0.792422 0.535766
vt 0.799423 0.535766
vt 0.799423 0.583563
vt 0.799423 0.583563
vt 0.799423 0.535766
vt 0.806423 0.535766
vt 0.806423 0.535766
vt 0.813424 0.535766
vt 0.813424 0.583563
vt 0.813424 0.535766
vt 0.820424 0.535766
vt 0.820424 0.583563
vt 0.820424 0.583563
vt 0.820424 0.535766
vt 0.827425 0.535766
vt 0.827425 0.535766
vt 0.834425 0.535766
vt 0.834425 0.583563
vt 0.834425 0.535766
vt 0.841425 0.535766
vt 0.841425 0.583563
vt 0.841425 0.535766
vt 0.848426 0.535766
vt 0.848426 0.583563
vt 0.848426 0.535766
vt 0.855426 0.535766
vt 0.855426 0.583563
vt 0.855426 0.535766
vt 0.862427 0.535766
vt 0.862427 0.583563
vt 0.862427 0.583563
vt 0.862427 0.535766
vt 0.869427 0.535766
vt 0.869427 0.535766
vt 0.876428 0.535766
vt 0.876428 0.583563
vt 0.876428 0.535766
vt 0.883428 0.535766
vt 0.883428 0.583563
vt 0.883428 0.535766
vt 0.890429 0.535766
vt 0.890429 0.583563
vt 0.890429 0.535766
vt 0.897429 0.535766
vt 0.897429 0.583563
vt 0.897429 0.583563
vt 0.897429 0.535766
vt 0.90443 0.535766
vt 0.90443 0.535766
vt 0.91143 0.535766
vt 0.91143 0.583563
vt 0.91143 0.535766
vt 0.918431 0.535766
vt 0.918431 0.583568
vt 0.918431 0.583568
vt 0.918431 0.535766
vt 0.925431 0.535766
vt 0.925431 0.535766
vt 0.932432 0.535766
vt 0.932432 0.583563
vt 0.932432 0.535766
vt 0.939432 0.535766
vt 0.939432 0.583563
vt 0.939432 0.535766
vt 0.946433 0.535766
vt 0.946433 0.583563
vt 0.946433 0.535766
vt 0.953433 0.535766
vt 0.953433 0.583563
vt 0.953433 0.535766
vt 0.960434 0.535766
vt 0.960434 0.583563
vt 0.818108 0.342218
vt 0.814336 0.342913
vt 0.814347 0.342218
vt 0.960434 0.535766
vt 0.967434 0.535766
vt 0.967434 0.583563
vt 0.736418 0.535766
vt 0.743419 0.535766
vt 0.743419 0.583563
vt 0.967434 0.535766
vt 0.974435 0.535766
vt 0.974435 0.583563
vt 0.818058 0.3443
vt 0.821864 0.342913
vt 0.82182 0.3443
vt 0.873325 0.342218
vt 0.808396 0.342913
vt 0.873326 0.342913
vt 0.808397 0.342218
vt 0.810976 0.342913
vt 0.808396 0.342913
vt 0.858465 0.342218
vt 0.857216 0.342913
vt 0.857253 0.342218
vt 0.859615 0.342218
vt 0.858427 0.342913
vt 0.858465 0.342218
vt 0.810982 0.342218
vt 0.814336 0.342913
vt 0.810976 0.342913
vt 0.825321 0.342218
vt 0.821864 0.342913
vt 0.821886 0.342218
vt 0.828104 0.342218
vt 0.825295 0.342913
vt 0.825321 0.342218
vt 0.830126 0.342218
vt 0.828077 0.342913
vt 0.828104 0.342218
vt 0.832009 0.342218
vt 0.830105 0.342913
vt 0.830126 0.342218
vt 0.832009 0.342218
vt 0.834281 0.342913
vt 0.831999 0.342913
vt 0.834287 0.342218
vt 0.837262 0.342913
vt 0.834281 0.342913
vt 0.83727 0.342218
vt 0.840805 0.342913
vt 0.837262 0.342913
vt 0.840817 0.342218
vt 0.844597 0.342913
vt 0.840805 0.342913
vt 0.844615 0.342218
vt 0.848281 0.342913
vt 0.844597 0.342913
vt 0.851506 0.342218
vt 0.848281 0.342913
vt 0.848304 0.342218
vt 0.853832 0.342218
vt 0.851477 0.342913
vt 0.851506 0.342218
vt 0.860746 0.342218
vt 0.859578 0.342913
vt 0.859615 0.342218
vt 0.861922 0.342218
vt 0.860712 0.342913
vt 0.860746 0.342218
vt 0.863221 0.342218
vt 0.861892 0.342913
vt 0.861922 0.342218
vt 0.863221 0.342218
vt 0.864676 0.342913
vt 0.863199 0.342913
vt 0.866032 0.342218
vt 0.864676 0.342913
vt 0.864689 0.342218
vt 0.866032 0.342218
vt 0.867231 0.342913
vt 0.866026 0.342913
vt 0.86723 0.342218
vt 0.868369 0.342913
vt 0.867231 0.342913
vt 0.868365 0.342218
vt 0.869511 0.342913
vt 0.868369 0.342913
vt 0.869506 0.342218
vt 0.870705 0.342913
vt 0.869511 0.342913
vt 0.8707 0.342218
vt 0.871974 0.342913
vt 0.870705 0.342913
vt 0.871971 0.342218
vt 0.873326 0.342913
vt 0.871974 0.342913
vt 0.821886 0.342218
vt 0.818091 0.342913
vt 0.818108 0.342218
vt 0.857253 0.342218
vt 0.855926 0.342913
vt 0.855961 0.342218
vt 0.814314 0.3443
vt 0.818091 0.342913
vt 0.818058 0.3443
vt 0.855855 0.3443
vt 0.857216 0.342913
vt 0.857142 0.3443
vt 0.860643 0.3443
vt 0.861892 0.342913
vt 0.861834 0.3443
vt 0.861834 0.3443
vt 0.863199 0.342913
vt 0.863155 0.3443
vt 0.858351 0.3443
vt 0.859578 0.342913
vt 0.859504 0.3443
vt 0.810976 0.342913
vt 0.814314 0.3443
vt 0.810965 0.3443
vt 0.825244 0.3443
vt 0.828077 0.342913
vt 0.828025 0.3443
vt 0.82182 0.3443
vt 0.825295 0.342913
vt 0.825244 0.3443
vt 0.828025 0.3443
vt 0.830105 0.342913
vt 0.830063 0.3443
vt 0.830063 0.3443
vt 0.831999 0.342913
vt 0.831978 0.3443
vt 0.831999 0.342913
vt 0.834269 0.3443
vt 0.831978 0.3443
vt 0.834281 0.342913
vt 0.837247 0.3443
vt 0.834269 0.3443
vt 0.837262 0.342913
vt 0.840781 0.3443
vt 0.837247 0.3443
vt 0.840805 0.342913
vt 0.844562 0.3443
vt 0.840781 0.3443
vt 0.844597 0.342913
vt 0.848234 0.3443
vt 0.844562 0.3443
vt 0.848234 0.3443
vt 0.851477 0.342913
vt 0.85142 0.3443
vt 0.85142 0.3443
vt 0.8538 0.342913
vt 0.853736 0.3443
vt 0.857142 0.3443
vt 0.858427 0.342913
vt 0.858351 0.3443
vt 0.808396 0.342913
vt 0.810965 0.3443
vt 0.808393 0.3443
vt 0.859504 0.3443
vt 0.860712 0.342913
vt 0.860643 0.3443
vt 0.863199 0.342913
vt 0.86465 0.3443
vt 0.863155 0.3443
vt 0.864676 0.342913
vt 0.866016 0.3443
vt 0.86465 0.3443
vt 0.866026 0.342913
vt 0.867232 0.3443
vt 0.866016 0.3443
vt 0.867231 0.342913
vt 0.868377 0.3443
vt 0.867232 0.3443
vt 0.868369 0.342913
vt 0.869521 0.3443
vt 0.868377 0.3443
vt 0.869511 0.342913
vt 0.870714 0.3443
vt 0.869521 0.3443
vt 0.870705 0.342913
vt 0.871981 0.3443
vt 0.870714 0.3443
vt 0.871974 0.342913
vt 0.873329 0.3443
vt 0.871981 0.3443
vt 0.854487 0.3443
vt 0.855926 0.342913
vt 0.855855 0.3443
vt 0.818058 0.3443
vt 0.814311 0.357281
vt 0.814314 0.3443
vt 0.818052 0.357281
vt 0.814307 0.370262
vt 0.814311 0.357281
vt 0.810965 0.3443
vt 0.814311 0.357281
vt 0.810963 0.357281
vt 0.873329 0.3443
vt 0.808393 0.357281
vt 0.873329 0.357281
vt 0.860643 0.3443
vt 0.859491 0.357281
vt 0.859504 0.3443
vt 0.861834 0.3443
vt 0.860631 0.357281
vt 0.860643 0.3443
vt 0.858351 0.3443
vt 0.857129 0.357281
vt 0.857142 0.3443
vt 0.808393 0.3443
vt 0.810963 0.357281
vt 0.808393 0.357281
vt 0.825244 0.3443
vt 0.821813 0.357281
vt 0.82182 0.3443
vt 0.82182 0.3443
vt 0.818052 0.357281
vt 0.818058 0.3443
vt 0.828025 0.3443
vt 0.825235 0.357281
vt 0.825244 0.3443
vt 0.830063 0.3443
vt 0.828015 0.357281
vt 0.828025 0.3443
vt 0.831978 0.3443
vt 0.830056 0.357281
vt 0.830063 0.3443
vt 0.831978 0.3443
vt 0.834266 0.357281
vt 0.831975 0.357281
vt 0.834269 0.3443
vt 0.837244 0.357281
vt 0.834266 0.357281
vt 0.837247 0.3443
vt 0.840776 0.357281
vt 0.837244 0.357281
vt 0.840781 0.3443
vt 0.844556 0.357281
vt 0.840776 0.357281
vt 0.844562 0.3443
vt 0.848226 0.357281
vt 0.844556 0.357281
vt 0.85142 0.3443
vt 0.848226 0.357281
vt 0.848234 0.3443
vt 0.853736 0.3443
vt 0.85141 0.357281
vt 0.85142 0.3443
vt 0.857142 0.3443
vt 0.855842 0.357281
vt 0.855855 0.3443
vt 0.859504 0.3443
vt 0.858338 0.357281
vt 0.858351 0.3443
vt 0.863155 0.3443
vt 0.861824 0.357281
vt 0.861834 0.3443
vt 0.86465 0.3443
vt 0.863147 0.357281
vt 0.863155 0.3443
vt 0.86465 0.3443
vt 0.866014 0.357281
vt 0.864645 0.357281
vt 0.866016 0.3443
vt 0.867232 0.357281
vt 0.866014 0.357281
vt 0.867232 0.3443
vt 0.868378 0.357281
vt 0.867232 0.357281
vt 0.868377 0.3443
vt 0.869523 0.357281
vt 0.868378 0.357281
vt 0.869521 0.3443
vt 0.870715 0.357281
vt 0.869523 0.357281
vt 0.870714 0.3443
vt 0.871982 0.357281
vt 0.870715 0.357281
vt 0.871981 0.3443
vt 0.873329 0.357281
vt 0.871982 0.357281
vt 0.814307 0.370262
vt 0.818041 0.383243
vt 0.814303 0.383243
vt 0.810963 0.357281
vt 0.814307 0.370262
vt 0.810961 0.370262
vt 0.873329 0.357281
vt 0.808392 0.370262
vt 0.873329 0.370262
vt 0.860631 0.357281
vt 0.859478 0.370262
vt 0.859491 0.357281
vt 0.861824 0.357281
vt 0.86062 0.370262
vt 0.860631 0.357281
vt 0.858338 0.357281
vt 0.857116 0.370262
vt 0.857129 0.357281
vt 0.808393 0.357281
vt 0.810961 0.370262
vt 0.808392 0.370262
vt 0.825235 0.357281
vt 0.821805 0.370262
vt 0.821813 0.357281
vt 0.821813 0.357281
vt 0.818047 0.370262
vt 0.818052 0.357281
vt 0.828015 0.357281
vt 0.825226 0.370262
vt 0.825235 0.357281
vt 0.830056 0.357281
vt 0.828006 0.370262
vt 0.828015 0.357281
vt 0.831975 0.357281
vt 0.830048 0.370262
vt 0.830056 0.357281
vt 0.831975 0.357281
vt 0.834264 0.370262
vt 0.831971 0.370262
vt 0.834266 0.357281
vt 0.837242 0.370262
vt 0.834264 0.370262
vt 0.837244 0.357281
vt 0.840772 0.370262
vt 0.837242 0.370262
vt 0.840776 0.357281
vt 0.84455 0.370262
vt 0.840772 0.370262
vt 0.848226 0.357281
vt 0.84455 0.370262
vt 0.844556 0.357281
vt 0.85141 0.357281
vt 0.848218 0.370262
vt 0.848226 0.357281
vt 0.853725 0.357281
vt 0.851401 0.370262
vt 0.85141 0.357281
vt 0.857129 0.357281
vt 0.85583 0.370262
vt 0.855842 0.357281
vt 0.859491 0.357281
vt 0.858325 0.370262
vt 0.858338 0.357281
vt 0.863147 0.357281
vt 0.861814 0.370262
vt 0.861824 0.357281
vt 0.864645 0.357281
vt 0.86314 0.370262
vt 0.863147 0.357281
vt 0.864645 0.357281
vt 0.866012 0.370262
vt 0.864641 0.370262
vt 0.866014 0.357281
vt 0.867232 0.370262
vt 0.866012 0.370262
vt 0.867232 0.357281
vt 0.868379 0.370262
vt 0.867232 0.370262
vt 0.868378 0.357281
vt 0.869525 0.370262
vt 0.868379 0.370262
vt 0.869523 0.357281
vt 0.870717 0.370262
vt 0.869525 0.370262
vt 0.870715 0.357281
vt 0.871983 0.370262
vt 0.870717 0.370262
vt 0.871982 0.357281
vt 0.873329 0.370262
vt 0.871983 0.370262
vt 0.814303 0.383243
vt 0.818035 0.396223
vt 0.8143 0.396223
vt 0.810961 0.370262
vt 0.814303 0.383243
vt 0.810959 0.383243
vt 0.873329 0.370262
vt 0.808392 0.383243
vt 0.87333 0.383243
vt 0.86062 0.370262
vt 0.859466 0.383243
vt 0.859478 0.370262
vt 0.861814 0.370262
vt 0.860608 0.383243
vt 0.86062 0.370262
vt 0.858325 0.370262
vt 0.857103 0.383243
vt 0.857116 0.370262
vt 0.808392 0.370262
vt 0.810959 0.383243
vt 0.808392 0.383243
vt 0.825226 0.370262
vt 0.821798 0.383243
vt 0.821805 0.370262
vt 0.821805 0.370262
vt 0.818041 0.383243
vt 0.818047 0.370262
vt 0.828006 0.370262
vt 0.825218 0.383243
vt 0.825226 0.370262
vt 0.830048 0.370262
vt 0.827997 0.383243
vt 0.828006 0.370262
vt 0.831971 0.370262
vt 0.830041 0.383243
vt 0.830048 0.370262
vt 0.831971 0.370262
vt 0.834262 0.383243
vt 0.831968 0.383243
vt 0.834264 0.370262
vt 0.837239 0.383243
vt 0.834262 0.383243
vt 0.837242 0.370262
vt 0.840768 0.383243
vt 0.837239 0.383243
vt 0.840772 0.370262
vt 0.844544 0.383243
vt 0.840768 0.383243
vt 0.848218 0.370262
vt 0.844544 0.383243
vt 0.84455 0.370262
vt 0.851401 0.370262
vt 0.84821 0.383243
vt 0.848218 0.370262
vt 0.853714 0.370262
vt 0.851391 0.383243
vt 0.851401 0.370262
vt 0.857116 0.370262
vt 0.855818 0.383243
vt 0.85583 0.370262
vt 0.859478 0.370262
vt 0.858312 0.383243
vt 0.858325 0.370262
vt 0.86314 0.370262
vt 0.861804 0.383243
vt 0.861814 0.370262
vt 0.864641 0.370262
vt 0.863132 0.383243
vt 0.86314 0.370262
vt 0.864641 0.370262
vt 0.866011 0.383243
vt 0.864636 0.383243
vt 0.866012 0.370262
vt 0.867232 0.383243
vt 0.866011 0.383243
vt 0.867232 0.370262
vt 0.868381 0.383243
vt 0.867232 0.383243
vt 0.868379 0.370262
vt 0.869526 0.383243
vt 0.868381 0.383243
vt 0.869525 0.370262
vt 0.870719 0.383243
vt 0.869526 0.383243
vt 0.870717 0.370262
vt 0.871984 0.383243
vt 0.870719 0.383243
vt 0.871983 0.370262
vt 0.87333 0.383243
vt 0.871984 0.383243
vt 0.8143 0.396223
vt 0.818025 0.403266
vt 0.814293 0.403266
vt 0.810959 0.383243
vt 0.8143 0.396223
vt 0.810957 0.396223
vt 0.87333 0.383243
vt 0.808391 0.396223
vt 0.87333 0.396223
vt 0.860608 0.383243
vt 0.859453 0.396223
vt 0.859466 0.383243
vt 0.861804 0.383243
vt 0.860596 0.396223
vt 0.860608 0.383243
vt 0.858312 0.383243
vt 0.85709 0.396223
vt 0.857103 0.383243
vt 0.808392 0.383243
vt 0.810957 0.396223
vt 0.808391 0.396223
vt 0.825218 0.383243
vt 0.82179 0.396223
vt 0.821798 0.383243
vt 0.821798 0.383243
vt 0.818035 0.396223
vt 0.818041 0.383243
vt 0.827997 0.383243
vt 0.825209 0.396223
vt 0.825218 0.383243
vt 0.830041 0.383243
vt 0.827988 0.396223
vt 0.827997 0.383243
vt 0.831968 0.383243
vt 0.830034 0.396223
vt 0.830041 0.383243
vt 0.831968 0.383243
vt 0.83426 0.396223
vt 0.831964 0.396223
vt 0.834262 0.383243
vt 0.837237 0.396223
vt 0.83426 0.396223
vt 0.837239 0.383243
vt 0.840764 0.396223
vt 0.837237 0.396223
vt 0.840768 0.383243
vt 0.844538 0.396223
vt 0.840764 0.396223
vt 0.84821 0.383243
vt 0.844538 0.396223
vt 0.844544 0.383243
vt 0.851391 0.383243
vt 0.848202 0.396223
vt 0.84821 0.383243
vt 0.853702 0.383243
vt 0.851381 0.396223
vt 0.851391 0.383243
vt 0.857103 0.383243
vt 0.855806 0.396223
vt 0.855818 0.383243
vt 0.859466 0.383243
vt 0.858299 0.396223
vt 0.858312 0.383243
vt 0.863132 0.383243
vt 0.861794 0.396223
vt 0.861804 0.383243
vt 0.864636 0.383243
vt 0.863125 0.396223
vt 0.863132 0.383243
vt 0.864636 0.383243
vt 0.866009 0.396223
vt 0.864632 0.396223
vt 0.866011 0.383243
vt 0.867232 0.396223
vt 0.866009 0.396223
vt 0.867232 0.383243
vt 0.868382 0.396223
vt 0.867232 0.396223
vt 0.868381 0.383243
vt 0.869528 0.396223
vt 0.868382 0.396223
vt 0.869526 0.383243
vt 0.87072 0.396223
vt 0.869528 0.396223
vt 0.870719 0.383243
vt 0.871985 0.396223
vt 0.87072 0.396223
vt 0.871984 0.383243
vt 0.87333 0.396223
vt 0.871985 0.396223
vt 0.817996 0.405476
vt 0.821777 0.403266
vt 0.821738 0.405476
vt 0.810957 0.396223
vt 0.814293 0.403266
vt 0.810954 0.403266
vt 0.87333 0.396223
vt 0.80839 0.403266
vt 0.873331 0.403266
vt 0.860596 0.396223
vt 0.85943 0.403266
vt 0.859453 0.396223
vt 0.861794 0.396223
vt 0.860575 0.403266
vt 0.860596 0.396223
vt 0.858299 0.396223
vt 0.857067 0.403266
vt 0.85709 0.396223
vt 0.808391 0.396223
vt 0.810954 0.403266
vt 0.80839 0.403266
vt 0.825209 0.396223
vt 0.821777 0.403266
vt 0.82179 0.396223
vt 0.82179 0.396223
vt 0.818025 0.403266
vt 0.818035 0.396223
vt 0.827988 0.396223
vt 0.825193 0.403266
vt 0.825209 0.396223
vt 0.830034 0.396223
vt 0.827972 0.403266
vt 0.827988 0.396223
vt 0.831964 0.396223
vt 0.830021 0.403266
vt 0.830034 0.396223
vt 0.831964 0.396223
vt 0.834256 0.403266
vt 0.831958 0.403266
vt 0.83426 0.396223
vt 0.837232 0.403266
vt 0.834256 0.403266
vt 0.837237 0.396223
vt 0.840757 0.403266
vt 0.837232 0.403266
vt 0.840764 0.396223
vt 0.844527 0.403266
vt 0.840757 0.403266
vt 0.848202 0.396223
vt 0.844527 0.403266
vt 0.844538 0.396223
vt 0.851381 0.396223
vt 0.848188 0.403266
vt 0.848202 0.396223
vt 0.853691 0.396223
vt 0.851364 0.403266
vt 0.851381 0.396223
vt 0.85709 0.396223
vt 0.855784 0.403266
vt 0.855806 0.396223
vt 0.859453 0.396223
vt 0.858276 0.403266
vt 0.858299 0.396223
vt 0.863125 0.396223
vt 0.861776 0.403266
vt 0.861794 0.396223
vt 0.864632 0.396223
vt 0.863111 0.403266
vt 0.863125 0.396223
vt 0.864632 0.396223
vt 0.866006 0.403266
vt 0.864624 0.403266
vt 0.866009 0.396223
vt 0.867232 0.403266
vt 0.866006 0.403266
vt 0.867232 0.396223
vt 0.868384 0.403266
vt 0.867232 0.403266
vt 0.868382 0.396223
vt 0.869531 0.403266
vt 0.868384 0.403266
vt 0.869528 0.396223
vt 0.870723 0.403266
vt 0.869531 0.403266
vt 0.87072 0.396223
vt 0.871987 0.403266
vt 0.870723 0.403266
vt 0.871985 0.396223
vt 0.873331 0.403266
vt 0.871987 0.403266
vt 0.814293 0.403266
vt 0.817996 0.405476
vt 0.814274 0.405476
vt 0.855721 0.405476
vt 0.857067 0.403266
vt 0.857002 0.405476
vt 0.860515 0.405476
vt 0.861776 0.403266
vt 0.861724 0.405476
vt 0.861724 0.405476
vt 0.863111 0.403266
vt 0.863073 0.405476
vt 0.858209 0.405476
vt 0.85943 0.403266
vt 0.859365 0.405476
vt 0.810954 0.403266
vt 0.814274 0.405476
vt 0.810944 0.405476
vt 0.825148 0.405476
vt 0.827972 0.403266
vt 0.827926 0.405476
vt 0.821738 0.405476
vt 0.825193 0.403266
vt 0.825148 0.405476
vt 0.827926 0.405476
vt 0.830021 0.403266
vt 0.829984 0.405476
vt 0.829984 0.405476
vt 0.831958 0.403266
vt 0.831939 0.405476
vt 0.831958 0.403266
vt 0.834246 0.405476
vt 0.831939 0.405476
vt 0.834256 0.403266
vt 0.837219 0.405476
vt 0.834246 0.405476
vt 0.837232 0.403266
vt 0.840736 0.405476
vt 0.837219 0.405476
vt 0.840757 0.403266
vt 0.844496 0.405476
vt 0.840736 0.405476
vt 0.844496 0.405476
vt 0.848188 0.403266
vt 0.848147 0.405476
vt 0.848147 0.405476
vt 0.851364 0.403266
vt 0.851313 0.405476
vt 0.851313 0.405476
vt 0.853672 0.403266
vt 0.853615 0.405476
vt 0.857002 0.405476
vt 0.858276 0.403266
vt 0.858209 0.405476
vt 0.80839 0.403266
vt 0.810944 0.405476
vt 0.808388 0.405476
vt 0.859365 0.405476
vt 0.860575 0.403266
vt 0.860515 0.405476
vt 0.863073 0.405476
vt 0.864624 0.403266
vt 0.864601 0.405476
vt 0.864624 0.403266
vt 0.865996 0.405476
vt 0.864601 0.405476
vt 0.866006 0.403266
vt 0.867233 0.405476
vt 0.865996 0.405476
vt 0.867232 0.403266
vt 0.868391 0.405476
vt 0.867233 0.405476
vt 0.868384 0.403266
vt 0.86954 0.405476
vt 0.868391 0.405476
vt 0.869531 0.403266
vt 0.870731 0.405476
vt 0.86954 0.405476
vt 0.870723 0.403266
vt 0.871993 0.405476
vt 0.870731 0.405476
vt 0.871987 0.403266
vt 0.873333 0.405476
vt 0.871993 0.405476
vt 0.808385 0.407688
vt 0.873333 0.405476
vt 0.808388 0.405476
vt 0.821738 0.405476
vt 0.817967 0.407688
vt 0.817996 0.405476
vt 0.817967 0.407688
vt 0.814274 0.405476
vt 0.817996 0.405476
vt 0.857002 0.405476
vt 0.855659 0.407688
vt 0.855721 0.405476
vt 0.861724 0.405476
vt 0.860454 0.407688
vt 0.860515 0.405476
vt 0.863073 0.405476
vt 0.861673 0.407688
vt 0.861724 0.405476
vt 0.859365 0.405476
vt 0.858143 0.407688
vt 0.858209 0.405476
vt 0.814255 0.407688
vt 0.810944 0.405476
vt 0.814274 0.405476
vt 0.827926 0.405476
vt 0.825102 0.407688
vt 0.825148 0.405476
vt 0.825148 0.405476
vt 0.8217 0.407688
vt 0.821738 0.405476
vt 0.829984 0.405476
vt 0.827879 0.407688
vt 0.827926 0.405476
vt 0.831939 0.405476
vt 0.829947 0.407688
vt 0.829984 0.405476
vt 0.834235 0.407688
vt 0.831939 0.405476
vt 0.834246 0.405476
vt 0.837205 0.407688
vt 0.834246 0.405476
vt 0.837219 0.405476
vt 0.840715 0.407688
vt 0.837219 0.405476
vt 0.840736 0.405476
vt 0.844466 0.407688
vt 0.840736 0.405476
vt 0.844496 0.405476
vt 0.848147 0.405476
vt 0.844466 0.407688
vt 0.844496 0.405476
vt 0.851313 0.405476
vt 0.848106 0.407688
vt 0.848147 0.405476
vt 0.853615 0.405476
vt 0.851264 0.407688
vt 0.851313 0.405476
vt 0.858209 0.405476
vt 0.856937 0.407688
vt 0.857002 0.405476
vt 0.810934 0.407688
vt 0.808388 0.405476
vt 0.810944 0.405476
vt 0.860515 0.405476
vt 0.8593 0.407688
vt 0.859365 0.405476
vt 0.864578 0.407688
vt 0.863073 0.405476
vt 0.864601 0.405476
vt 0.865987 0.407688
vt 0.864601 0.405476
vt 0.865996 0.405476
vt 0.867234 0.407688
vt 0.865996 0.405476
vt 0.867233 0.405476
vt 0.868397 0.407688
vt 0.867233 0.405476
vt 0.868391 0.405476
vt 0.869549 0.407688
vt 0.868391 0.405476
vt 0.86954 0.405476
vt 0.870739 0.407688
vt 0.86954 0.405476
vt 0.870731 0.405476
vt 0.871998 0.407688
vt 0.870731 0.405476
vt 0.871993 0.405476
vt 0.873335 0.407688
vt 0.871993 0.405476
vt 0.873333 0.405476
vt 0.736418 0.583563
vt 0.965966 0.583563
vt 0.729418 0.535766
vt 0.873331 0.403266
vt 0.808388 0.405476
vt 0.873333 0.405476
vt 0.854585 0.342913
vt 0.853736 0.3443
vt 0.8538 0.342913
vt 0.871971 0.342218
vt 0.854643 0.342218
vt 0.873325 0.342218
vt 0.873325 0.342218
vt 0.854643 0.342218
vt 0.808397 0.342218
vt 0.808397 0.342218
vt 0.851506 0.342218
vt 0.810982 0.342218
vt 0.810982 0.342218
vt 0.848304 0.342218
vt 0.814347 0.342218
vt 0.851506 0.342218
vt 0.848304 0.342218
vt 0.810982 0.342218
vt 0.814347 0.342218
vt 0.844615 0.342218
vt 0.818108 0.342218
vt 0.818108 0.342218
vt 0.840817 0.342218
vt 0.821886 0.342218
vt 0.844615 0.342218
vt 0.840817 0.342218
vt 0.818108 0.342218
vt 0.821886 0.342218
vt 0.83727 0.342218
vt 0.825321 0.342218
vt 0.825321 0.342218
vt 0.834287 0.342218
vt 0.828104 0.342218
vt 0.83727 0.342218
vt 0.834287 0.342218
vt 0.825321 0.342218
vt 0.828104 0.342218
vt 0.834287 0.342218
vt 0.830126 0.342218
vt 0.830126 0.342218
vt 0.834287 0.342218
vt 0.832009 0.342218
vt 0.83727 0.342218
vt 0.821886 0.342218
vt 0.840817 0.342218
vt 0.844615 0.342218
vt 0.814347 0.342218
vt 0.848304 0.342218
vt 0.851506 0.342218
vt 0.808397 0.342218
vt 0.853832 0.342218
vt 0.853832 0.342218
vt 0.808397 0.342218
vt 0.854643 0.342218
vt 0.854643 0.342218
vt 0.871971 0.342218
vt 0.855961 0.342218
vt 0.855961 0.342218
vt 0.871971 0.342218
vt 0.857253 0.342218
vt 0.857253 0.342218
vt 0.863221 0.342218
vt 0.858465 0.342218
vt 0.858465 0.342218
vt 0.861922 0.342218
vt 0.859615 0.342218
vt 0.859615 0.342218
vt 0.861922 0.342218
vt 0.860746 0.342218
vt 0.861922 0.342218
vt 0.858465 0.342218
vt 0.863221 0.342218
vt 0.863221 0.342218
vt 0.857253 0.342218
vt 0.864689 0.342218
vt 0.864689 0.342218
vt 0.869506 0.342218
vt 0.866032 0.342218
vt 0.866032 0.342218
vt 0.869506 0.342218
vt 0.86723 0.342218
vt 0.86723 0.342218
vt 0.869506 0.342218
vt 0.868365 0.342218
vt 0.869506 0.342218
vt 0.864689 0.342218
vt 0.8707 0.342218
vt 0.8707 0.342218
vt 0.857253 0.342218
vt 0.871971 0.342218
vt 0.8538 0.342913
vt 0.854643 0.342218
vt 0.854585 0.342913
vt 0.854585 0.342913
vt 0.855961 0.342218
vt 0.855926 0.342913
vt 0.854668 0.405476
vt 0.853558 0.407688
vt 0.853615 0.405476
vt 0.855721 0.405476
vt 0.854609 0.407688
vt 0.854668 0.405476
vt 0.853615 0.405476
vt 0.85467 0.398132
vt 0.854668 0.405476
vt 0.854668 0.405476
vt 0.855784 0.403266
vt 0.855721 0.405476
vt 0.853672 0.403266
vt 0.854674 0.390326
vt 0.85467 0.398132
vt 0.85467 0.398132
vt 0.855806 0.396223
vt 0.855784 0.403266
vt 0.853691 0.396223
vt 0.854669 0.379065
vt 0.854674 0.390326
vt 0.854674 0.390326
vt 0.855818 0.383243
vt 0.855806 0.396223
vt 0.853702 0.383243
vt 0.854653 0.367313
vt 0.854669 0.379065
vt 0.854669 0.379065
vt 0.85583 0.370262
vt 0.855818 0.383243
vt 0.853714 0.370262
vt 0.854612 0.355491
vt 0.854653 0.367313
vt 0.854653 0.367313
vt 0.855842 0.357281
vt 0.85583 0.370262
vt 0.853725 0.357281
vt 0.854487 0.3443
vt 0.854612 0.355491
vt 0.854612 0.355491
vt 0.855855 0.3443
vt 0.855842 0.357281
vt 0.873326 0.342913
vt 0.808393 0.3443
vt 0.873329 0.3443
vt 0.736412 0.586689
vt 0.743758 0.58979
vt 0.736969 0.58979
vt 0.736418 0.583563
vt 0.743419 0.583563
vt 0.743155 0.58979
vt 0.743419 0.583563
vt 0.750419 0.583563
vt 0.750155 0.58979
vt 0.75742 0.583563
vt 0.757156 0.58979
vt 0.750366 0.58979
vt 0.75742 0.583563
vt 0.76442 0.583563
vt 0.764156 0.58979
vt 0.76442 0.583563
vt 0.771421 0.583563
vt 0.771157 0.58979
vt 0.771421 0.583563
vt 0.778421 0.583563
vt 0.778157 0.58979
vt 0.785422 0.583563
vt 0.785158 0.58979
vt 0.778368 0.58979
vt 0.785422 0.583563
vt 0.792422 0.583563
vt 0.792158 0.58979
vt 0.799423 0.583563
vt 0.799159 0.58979
vt 0.792369 0.58979
vt 0.799423 0.583563
vt 0.806423 0.583563
vt 0.806159 0.58979
vt 0.813424 0.583563
vt 0.813159 0.58979
vt 0.80637 0.58979
vt 0.820424 0.583563
vt 0.82016 0.58979
vt 0.813371 0.58979
vt 0.827425 0.583563
vt 0.82716 0.58979
vt 0.820371 0.58979
vt 0.834425 0.583563
vt 0.834161 0.58979
vt 0.827372 0.58979
vt 0.841425 0.583563
vt 0.841161 0.58979
vt 0.834372 0.58979
vt 0.848426 0.583563
vt 0.848162 0.58979
vt 0.841373 0.58979
vt 0.855426 0.583563
vt 0.855162 0.58979
vt 0.848373 0.58979
vt 0.862427 0.583563
vt 0.862163 0.58979
vt 0.855374 0.58979
vt 0.862427 0.583563
vt 0.869427 0.583563
vt 0.869163 0.58979
vt 0.876428 0.583563
vt 0.876164 0.58979
vt 0.869375 0.58979
vt 0.876428 0.583563
vt 0.883428 0.583563
vt 0.883164 0.58979
vt 0.883428 0.583563
vt 0.890429 0.583563
vt 0.890165 0.58979
vt 0.890429 0.583563
vt 0.897429 0.583563
vt 0.897165 0.58979
vt 0.90443 0.583563
vt 0.904166 0.58979
vt 0.897376 0.58979
vt 0.91143 0.583563
vt 0.911166 0.58979
vt 0.904377 0.58979
vt 0.918431 0.583568
vt 0.918167 0.58979
vt 0.911377 0.58979
vt 0.918431 0.583568
vt 0.925431 0.583563
vt 0.925167 0.58979
vt 0.925431 0.583563
vt 0.932432 0.583563
vt 0.932168 0.58979
vt 0.939432 0.583563
vt 0.939168 0.58979
vt 0.932379 0.58979
vt 0.946433 0.583563
vt 0.946169 0.58979
vt 0.939379 0.58979
vt 0.953433 0.583563
vt 0.953169 0.58979
vt 0.94638 0.58979
vt 0.953433 0.583563
vt 0.960434 0.583563
vt 0.96017 0.58979
vt 0.960434 0.583563
vt 0.967434 0.583563
vt 0.96717 0.58979
vt 0.967434 0.583563
vt 0.974435 0.583563
vt 0.974171 0.58979
vt 0.97454 0.586689
vt 0.974435 0.583563
vt 0.965966 0.583563
f 363/1 365/2 1/3
f 1/4 429/5 358/6
f 5/7 366/8 364/9
f 359/10 37/11 2/12
f 367/13 369/14 1/15
f 4/16 364/17 362/18
f 369/19 371/20 1/21
f 6/22 368/23 366/24
f 371/25 373/26 1/27
f 368/28 8/29 370/30
f 373/31 375/32 1/33
f 370/34 9/35 372/36
f 375/37 377/38 1/39
f 9/40 374/41 372/42
f 377/43 379/44 1/45
f 10/46 376/47 374/48
f 379/49 381/50 1/51
f 11/52 378/53 376/54
f 381/55 383/56 1/57
f 378/58 13/59 380/60
f 383/61 385/62 1/63
f 13/64 382/65 380/66
f 385/67 387/68 1/69
f 14/70 384/71 382/72
f 387/73 389/74 1/75
f 384/76 16/77 386/78
f 389/79 391/80 1/81
f 16/82 388/83 386/84
f 391/85 393/86 1/87
f 17/88 390/89 388/90
f 393/91 395/92 1/93
f 18/94 392/95 390/96
f 395/97 397/98 1/99
f 19/100 394/101 392/102
f 397/103 399/104 1/105
f 20/106 396/107 394/108
f 399/109 401/110 1/111
f 396/112 22/113 398/114
f 401/115 403/116 1/117
f 22/118 400/119 398/120
f 403/121 405/122 1/123
f 23/124 402/125 400/126
f 405/127 407/128 1/129
f 24/130 404/131 402/132
f 407/133 409/134 1/135
f 25/136 406/137 404/138
f 409/139 411/140 1/141
f 406/142 27/143 408/144
f 411/145 413/146 1/147
f 27/148 410/149 408/150
f 413/151 415/152 1/153
f 28/154 412/155 410/156
f 415/157 417/158 1/159
f 412/160 30/161 414/162
f 417/163 419/164 1/165
f 30/166 416/167 414/168
f 419/169 421/170 1/171
f 31/172 418/173 416/174
f 421/175 423/176 1/177
f 32/178 420/179 418/180
f 423/181 425/182 1/183
f 33/184 422/185 420/186
f 425/187 427/188 1/189
f 34/190 424/191 422/192
f 41/193 72/194 71/195
f 427/196 429/197 1/198
f 35/199 426/200 424/201
f 3/202 362/203 360/204
f 36/205 428/206 426/207
f 103/208 72/209 73/210
f 68/211 38/212 69/213
f 38/214 39/215 70/216
f 56/217 87/218 86/219
f 57/220 88/221 87/222
f 39/223 40/224 71/225
f 43/226 74/227 73/228
f 44/229 75/230 74/231
f 45/232 76/233 75/234
f 46/235 77/236 76/237
f 46/238 47/239 78/240
f 47/241 48/242 79/243
f 48/244 49/245 80/246
f 49/247 50/248 81/249
f 50/250 51/251 82/252
f 52/253 83/254 82/255
f 53/256 84/257 83/258
f 58/259 89/260 88/261
f 59/262 90/263 89/264
f 60/265 91/266 90/267
f 60/268 61/269 92/270
f 62/271 93/272 92/273
f 62/274 63/275 94/276
f 63/277 64/278 95/279
f 64/280 65/281 96/282
f 65/283 66/284 97/285
f 66/286 67/287 98/288
f 67/289 68/290 99/291
f 42/292 73/293 72/294
f 55/295 86/296 85/297
f 102/298 71/299 72/300
f 117/301 85/302 86/303
f 121/304 89/305 90/306
f 122/307 90/308 91/309
f 119/310 87/311 88/312
f 70/313 71/314 102/315
f 105/316 74/317 75/318
f 104/319 73/320 74/321
f 106/322 75/323 76/324
f 107/325 76/326 77/327
f 77/328 78/329 109/330
f 78/331 79/332 110/333
f 79/334 80/335 111/336
f 80/337 81/338 112/339
f 81/340 82/341 113/342
f 113/343 82/344 83/345
f 114/346 83/347 84/348
f 118/349 86/350 87/351
f 69/352 70/353 101/354
f 120/355 88/356 89/357
f 91/358 92/359 124/360
f 92/361 93/362 125/363
f 93/364 94/365 126/366
f 94/367 95/368 127/369
f 95/370 96/371 128/372
f 96/373 97/374 129/375
f 97/376 98/377 130/378
f 98/379 99/380 131/381
f 116/382 352/383 85/384
f 103/385 135/386 134/387
f 135/388 166/389 165/390
f 101/391 102/392 134/393
f 131/394 100/395 132/396
f 121/397 152/398 151/399
f 122/400 153/401 152/402
f 119/403 150/404 149/405
f 100/406 101/407 133/408
f 105/409 137/410 136/411
f 104/412 136/413 135/414
f 106/415 138/416 137/417
f 107/418 139/419 138/420
f 108/421 140/422 139/423
f 108/424 109/425 141/426
f 109/427 110/428 142/429
f 110/430 111/431 143/432
f 111/433 112/434 144/435
f 112/436 113/437 145/438
f 114/439 146/440 145/441
f 115/442 147/443 146/444
f 118/445 149/446 148/447
f 120/448 151/449 150/450
f 123/451 154/452 153/453
f 124/454 155/455 154/456
f 124/457 125/458 156/459
f 125/460 126/461 157/462
f 126/463 127/464 158/465
f 127/466 128/467 159/468
f 128/469 129/470 160/471
f 129/472 130/473 161/474
f 130/475 131/476 162/477
f 165/478 166/479 197/480
f 133/481 134/482 165/483
f 162/484 132/485 163/486
f 152/487 183/488 182/489
f 153/490 184/491 183/492
f 150/493 181/494 180/495
f 132/496 133/497 164/498
f 137/499 168/500 167/501
f 136/502 167/503 166/504
f 138/505 169/506 168/507
f 139/508 170/509 169/510
f 140/511 171/512 170/513
f 140/514 141/515 172/516
f 141/517 142/518 173/519
f 142/520 143/521 174/522
f 143/523 144/524 175/525
f 145/526 176/527 175/528
f 146/529 177/530 176/531
f 147/532 178/533 177/534
f 149/535 180/536 179/537
f 151/538 182/539 181/540
f 154/541 185/542 184/543
f 155/544 186/545 185/546
f 155/547 156/548 187/549
f 156/550 157/551 188/552
f 157/553 158/554 189/555
f 158/556 159/557 190/558
f 159/559 160/560 191/561
f 160/562 161/563 192/564
f 161/565 162/566 193/567
f 196/568 197/569 228/570
f 164/571 165/572 196/573
f 193/574 163/575 194/576
f 183/577 214/578 213/579
f 184/580 215/581 214/582
f 181/583 212/584 211/585
f 163/586 164/587 195/588
f 168/589 199/590 198/591
f 167/592 198/593 197/594
f 169/595 200/596 199/597
f 170/598 201/599 200/600
f 171/601 202/602 201/603
f 171/604 172/605 203/606
f 172/607 173/608 204/609
f 173/610 174/611 205/612
f 174/613 175/614 206/615
f 176/616 207/617 206/618
f 177/619 208/620 207/621
f 178/622 209/623 208/624
f 180/625 211/626 210/627
f 182/628 213/629 212/630
f 185/631 216/632 215/633
f 186/634 217/635 216/636
f 186/637 187/638 218/639
f 187/640 188/641 219/642
f 188/643 189/644 220/645
f 189/646 190/647 221/648
f 190/649 191/650 222/651
f 191/652 192/653 223/654
f 192/655 193/656 224/657
f 227/658 228/659 259/660
f 195/661 196/662 227/663
f 224/664 194/665 225/666
f 214/667 245/668 244/669
f 215/670 246/671 245/672
f 212/673 243/674 242/675
f 194/676 195/677 226/678
f 199/679 230/680 229/681
f 198/682 229/683 228/684
f 200/685 231/686 230/687
f 201/688 232/689 231/690
f 202/691 233/692 232/693
f 202/694 203/695 234/696
f 203/697 204/698 235/699
f 204/700 205/701 236/702
f 205/703 206/704 237/705
f 207/706 238/707 237/708
f 208/709 239/710 238/711
f 209/712 240/713 239/714
f 211/715 242/716 241/717
f 213/718 244/719 243/720
f 216/721 247/722 246/723
f 217/724 248/725 247/726
f 217/727 218/728 249/729
f 218/730 219/731 250/732
f 219/733 220/734 251/735
f 220/736 221/737 252/738
f 221/739 222/740 253/741
f 222/742 223/743 254/744
f 223/745 224/746 255/747
f 292/748 259/749 260/750
f 226/751 227/752 258/753
f 255/754 225/755 256/756
f 245/757 276/758 275/759
f 246/760 277/761 276/762
f 243/763 274/764 273/765
f 225/766 226/767 257/768
f 230/769 261/770 260/771
f 229/772 260/773 259/774
f 231/775 262/776 261/777
f 232/778 263/779 262/780
f 233/781 264/782 263/783
f 233/784 234/785 265/786
f 234/787 235/788 266/789
f 235/790 236/791 267/792
f 236/793 237/794 268/795
f 238/796 269/797 268/798
f 239/799 270/800 269/801
f 240/802 271/803 270/804
f 242/805 273/806 272/807
f 244/808 275/809 274/810
f 247/811 278/812 277/813
f 248/814 279/815 278/816
f 248/817 249/818 280/819
f 249/820 250/821 281/822
f 250/823 251/824 282/825
f 251/826 252/827 283/828
f 252/829 253/830 284/831
f 253/832 254/833 285/834
f 254/835 255/836 286/837
f 258/838 259/839 292/840
f 305/841 272/842 273/843
f 309/844 276/845 277/846
f 310/847 277/848 278/849
f 307/850 274/851 275/852
f 257/853 258/854 291/855
f 294/856 261/857 262/858
f 293/859 260/860 261/861
f 295/862 262/863 263/864
f 296/865 263/866 264/867
f 264/868 265/869 298/870
f 265/871 266/872 299/873
f 266/874 267/875 300/876
f 267/877 268/878 301/879
f 301/880 268/881 269/882
f 302/883 269/884 270/885
f 303/886 270/887 271/888
f 306/889 273/890 274/891
f 256/892 257/893 290/894
f 308/895 275/896 276/897
f 311/898 278/899 279/900
f 279/901 280/902 313/903
f 280/904 281/905 314/906
f 281/907 282/908 315/909
f 282/910 283/911 316/912
f 283/913 284/914 317/915
f 284/916 285/917 318/918
f 285/919 286/920 319/921
f 320/922 350/923 319/924
f 293/925 324/926 323/927
f 323/928 322/929 291/930
f 306/931 337/932 336/933
f 310/934 341/935 340/936
f 311/937 342/938 341/939
f 308/940 339/941 338/942
f 322/943 321/944 290/945
f 295/946 326/947 325/948
f 294/949 325/950 324/951
f 296/952 327/953 326/954
f 297/955 328/956 327/957
f 329/958 328/959 297/960
f 330/961 329/962 298/963
f 331/964 330/965 299/966
f 332/967 331/968 300/969
f 302/970 333/971 332/972
f 303/973 334/974 333/975
f 304/976 335/977 334/978
f 307/979 338/980 337/981
f 321/982 320/983 289/984
f 309/985 340/986 339/987
f 343/988 342/989 311/990
f 344/991 343/992 312/993
f 345/994 344/995 313/996
f 346/997 345/998 314/999
f 347/1000 346/1001 315/1002
f 348/1003 347/1004 316/1005
f 349/1006 348/1007 317/1008
f 350/1009 349/1010 318/1011
f 361/1012 363/1013 1/1014
f 360/1015 2/1016 3/1017
f 365/1018 367/1019 1/1020
f 286/1021 256/1022 289/1023
f 352/1024 116/1025 115/1026
f 61/1027 55/1028 66/1029
f 84/1030 53/1031 351/1032
f 352/1033 351/1034 54/1035
f 287/1036 288/1037 335/1038
f 305/1039 336/1040 288/1041
f 304/1042 271/1043 353/1044
f 287/1045 353/1046 272/1047
f 271/1048 240/1049 354/1050
f 353/1051 354/1052 241/1053
f 240/1054 209/1055 355/1056
f 354/1057 355/1058 210/1059
f 209/1060 178/1061 356/1062
f 355/1063 356/1064 179/1065
f 178/1066 147/1067 357/1068
f 356/1069 357/1070 148/1071
f 147/1072 115/1073 116/1074
f 357/1075 116/1076 117/1077
f 99/1078 69/1079 100/1080
f 360/1081 358/1082 359/1083
f 360/1084 363/1085 361/1086
f 362/1087 365/1088 363/1089
f 366/1090 365/1091 364/1092
f 366/1093 369/1094 367/1095
f 368/1096 371/1097 369/1098
f 370/1099 373/1100 371/1101
f 374/1102 373/1103 372/1104
f 374/1105 377/1106 375/1107
f 378/1108 377/1109 376/1110
f 378/1111 381/1112 379/1113
f 382/1114 381/1115 380/1116
f 384/1117 383/1118 382/1119
f 386/1120 385/1121 384/1122
f 388/1123 387/1124 386/1125
f 390/1126 389/1127 388/1128
f 392/1129 391/1130 390/1131
f 394/1132 393/1133 392/1134
f 396/1135 395/1136 394/1137
f 396/1138 399/1139 397/1140
f 400/1141 399/1142 398/1143
f 400/1144 403/1145 401/1146
f 402/1147 405/1148 403/1149
f 404/1150 407/1151 405/1152
f 408/1153 407/1154 406/1155
f 410/1156 409/1157 408/1158
f 412/1159 411/1160 410/1161
f 412/1162 415/1163 413/1164
f 414/1165 417/1166 415/1167
f 418/1168 417/1169 416/1170
f 420/1171 419/1172 418/1173
f 422/1174 421/1175 420/1176
f 422/1177 425/1178 423/1179
f 424/1180 427/1181 425/1182
f 426/1183 429/1184 427/1185
f 429/1186 359/1187 358/1188
f 358/1189 361/1190 1/1191
f 5/1192 6/1193 366/1194
f 359/1195 428/1196 37/1197
f 4/1198 5/1199 364/1200
f 6/1201 7/1202 368/1203
f 368/1204 7/1205 8/1206
f 370/1207 8/1208 9/1209
f 9/1210 10/1211 374/1212
f 10/1213 11/1214 376/1215
f 11/1216 12/1217 378/1218
f 378/1219 12/1220 13/1221
f 13/1222 14/1223 382/1224
f 14/1225 15/1226 384/1227
f 384/1228 15/1229 16/1230
f 16/1231 17/1232 388/1233
f 17/1234 18/1235 390/1236
f 18/1237 19/1238 392/1239
f 19/1240 20/1241 394/1242
f 20/1243 21/1244 396/1245
f 396/1246 21/1247 22/1248
f 22/1249 23/1250 400/1251
f 23/1252 24/1253 402/1254
f 24/1255 25/1256 404/1257
f 25/1258 26/1259 406/1260
f 406/1261 26/1262 27/1263
f 27/1264 28/1265 410/1266
f 28/1267 29/1268 412/1269
f 412/1270 29/1271 30/1272
f 30/1273 31/1274 416/1275
f 31/1276 32/1277 418/1278
f 32/1279 33/1280 420/1281
f 33/1282 34/1283 422/1284
f 34/1285 35/1286 424/1287
f 41/1288 71/1289 40/1290
f 35/1291 36/1292 426/1293
f 3/1294 4/1295 362/1296
f 36/1297 37/1298 428/1299
f 103/1300 73/1301 104/1302
f 68/1303 69/1304 99/1305
f 38/1306 70/1307 69/1308
f 56/1309 86/1310 55/1311
f 57/1312 87/1313 56/1314
f 39/1315 71/1316 70/1317
f 43/1318 73/1319 42/1320
f 44/1321 74/1322 43/1323
f 45/1324 75/1325 44/1326
f 46/1327 76/1328 45/1329
f 46/1330 78/1331 77/1332
f 47/1333 79/1334 78/1335
f 48/1336 80/1337 79/1338
f 49/1339 81/1340 80/1341
f 50/1342 82/1343 81/1344
f 52/1345 82/1346 51/1347
f 53/1348 83/1349 52/1350
f 58/1351 88/1352 57/1353
f 59/1354 89/1355 58/1356
f 60/1357 90/1358 59/1359
f 60/1360 92/1361 91/1362
f 62/1363 92/1364 61/1365
f 62/1366 94/1367 93/1368
f 63/1369 95/1370 94/1371
f 64/1372 96/1373 95/1374
f 65/1375 97/1376 96/1377
f 66/1378 98/1379 97/1380
f 67/1381 99/1382 98/1383
f 42/1384 72/1385 41/1386
f 55/1387 85/1388 54/1389
f 102/1390 72/1391 103/1392
f 117/1393 86/1394 118/1395
f 121/1396 90/1397 122/1398
f 122/1399 91/1400 123/1401
f 119/1402 88/1403 120/1404
f 70/1405 102/1406 101/1407
f 105/1408 75/1409 106/1410
f 104/1411 74/1412 105/1413
f 106/1414 76/1415 107/1416
f 107/1417 77/1418 108/1419
f 77/1420 109/1421 108/1422
f 78/1423 110/1424 109/1425
f 79/1426 111/1427 110/1428
f 80/1429 112/1430 111/1431
f 81/1432 113/1433 112/1434
f 113/1435 83/1436 114/1437
f 114/1438 84/1439 115/1440
f 118/1441 87/1442 119/1443
f 69/1444 101/1445 100/1446
f 120/1447 89/1448 121/1449
f 91/1450 124/1451 123/1452
f 92/1453 125/1454 124/1455
f 93/1456 126/1457 125/1458
f 94/1459 127/1460 126/1461
f 95/1462 128/1463 127/1464
f 96/1465 129/1466 128/1467
f 97/1468 130/1469 129/1470
f 98/1471 131/1472 130/1473
f 116/1474 85/1475 117/1476
f 103/1477 134/1478 102/1479
f 135/1480 165/1481 134/1482
f 101/1483 134/1484 133/1485
f 131/1486 132/1487 162/1488
f 121/1489 151/1490 120/1491
f 122/1492 152/1493 121/1494
f 119/1495 149/1496 118/1497
f 100/1498 133/1499 132/1500
f 105/1501 136/1502 104/1503
f 104/1504 135/1505 103/1506
f 106/1507 137/1508 105/1509
f 107/1510 138/1511 106/1512
f 108/1513 139/1514 107/1515
f 108/1516 141/1517 140/1518
f 109/1519 142/1520 141/1521
f 110/1522 143/1523 142/1524
f 111/1525 144/1526 143/1527
f 112/1528 145/1529 144/1530
f 114/1531 145/1532 113/1533
f 115/1534 146/1535 114/1536
f 118/1537 148/1538 117/1539
f 120/1540 150/1541 119/1542
f 123/1543 153/1544 122/1545
f 124/1546 154/1547 123/1548
f 124/1549 156/1550 155/1551
f 125/1552 157/1553 156/1554
f 126/1555 158/1556 157/1557
f 127/1558 159/1559 158/1560
f 128/1561 160/1562 159/1563
f 129/1564 161/1565 160/1566
f 130/1567 162/1568 161/1569
f 165/1570 197/1571 196/1572
f 133/1573 165/1574 164/1575
f 162/1576 163/1577 193/1578
f 152/1579 182/1580 151/1581
f 153/1582 183/1583 152/1584
f 150/1585 180/1586 149/1587
f 132/1588 164/1589 163/1590
f 137/1591 167/1592 136/1593
f 136/1594 166/1595 135/1596
f 138/1597 168/1598 137/1599
f 139/1600 169/1601 138/1602
f 140/1603 170/1604 139/1605
f 140/1606 172/1607 171/1608
f 141/1609 173/1610 172/1611
f 142/1612 174/1613 173/1614
f 143/1615 175/1616 174/1617
f 145/1618 175/1619 144/1620
f 146/1621 176/1622 145/1623
f 147/1624 177/1625 146/1626
f 149/1627 179/1628 148/1629
f 151/1630 181/1631 150/1632
f 154/1633 184/1634 153/1635
f 155/1636 185/1637 154/1638
f 155/1639 187/1640 186/1641
f 156/1642 188/1643 187/1644
f 157/1645 189/1646 188/1647
f 158/1648 190/1649 189/1650
f 159/1651 191/1652 190/1653
f 160/1654 192/1655 191/1656
f 161/1657 193/1658 192/1659
f 196/1660 228/1661 227/1662
f 164/1663 196/1664 195/1665
f 193/1666 194/1667 224/1668
f 183/1669 213/1670 182/1671
f 184/1672 214/1673 183/1674
f 181/1675 211/1676 180/1677
f 163/1678 195/1679 194/1680
f 168/1681 198/1682 167/1683
f 167/1684 197/1685 166/1686
f 169/1687 199/1688 168/1689
f 170/1690 200/1691 169/1692
f 171/1693 201/1694 170/1695
f 171/1696 203/1697 202/1698
f 172/1699 204/1700 203/1701
f 173/1702 205/1703 204/1704
f 174/1705 206/1706 205/1707
f 176/1708 206/1709 175/1710
f 177/1711 207/1712 176/1713
f 178/1714 208/1715 177/1716
f 180/1717 210/1718 179/1719
f 182/1720 212/1721 181/1722
f 185/1723 215/1724 184/1725
f 186/1726 216/1727 185/1728
f 186/1729 218/1730 217/1731
f 187/1732 219/1733 218/1734
f 188/1735 220/1736 219/1737
f 189/1738 221/1739 220/1740
f 190/1741 222/1742 221/1743
f 191/1744 223/1745 222/1746
f 192/1747 224/1748 223/1749
f 227/1750 259/1751 258/1752
f 195/1753 227/1754 226/1755
f 224/1756 225/1757 255/1758
f 214/1759 244/1760 213/1761
f 215/1762 245/1763 214/1764
f 212/1765 242/1766 211/1767
f 194/1768 226/1769 225/1770
f 199/1771 229/1772 198/1773
f 198/1774 228/1775 197/1776
f 200/1777 230/1778 199/1779
f 201/1780 231/1781 200/1782
f 202/1783 232/1784 201/1785
f 202/1786 234/1787 233/1788
f 203/1789 235/1790 234/1791
f 204/1792 236/1793 235/1794
f 205/1795 237/1796 236/1797
f 207/1798 237/1799 206/1800
f 208/1801 238/1802 207/1803
f 209/1804 239/1805 208/1806
f 211/1807 241/1808 210/1809
f 213/1810 243/1811 212/1812
f 216/1813 246/1814 215/1815
f 217/1816 247/1817 216/1818
f 217/1819 249/1820 248/1821
f 218/1822 250/1823 249/1824
f 219/1825 251/1826 250/1827
f 220/1828 252/1829 251/1830
f 221/1831 253/1832 252/1833
f 222/1834 254/1835 253/1836
f 223/1837 255/1838 254/1839
f 292/1840 260/1841 293/1842
f 226/1843 258/1844 257/1845
f 255/1846 256/1847 286/1848
f 245/1849 275/1850 244/1851
f 246/1852 276/1853 245/1854
f 243/1855 273/1856 242/1857
f 225/1858 257/1859 256/1860
f 230/1861 260/1862 229/1863
f 229/1864 259/1865 228/1866
f 231/1867 261/1868 230/1869
f 232/1870 262/1871 231/1872
f 233/1873 263/1874 232/1875
f 233/1876 265/1877 264/1878
f 234/1879 266/1880 265/1881
f 235/1882 267/1883 266/1884
f 236/1885 268/1886 267/1887
f 238/1888 268/1889 237/1890
f 239/1891 269/1892 238/1893
f 240/1894 270/1895 239/1896
f 242/1897 272/1898 241/1899
f 244/1900 274/1901 243/1902
f 247/1903 277/1904 246/1905
f 248/1906 278/1907 247/1908
f 248/1909 280/1910 279/1911
f 249/1912 281/1913 280/1914
f 250/1915 282/1916 281/1917
f 251/1918 283/1919 282/1920
f 252/1921 284/1922 283/1923
f 253/1924 285/1925 284/1926
f 254/1927 286/1928 285/1929
f 258/1930 292/1931 291/1932
f 305/1933 273/1934 306/1935
f 309/1936 277/1937 310/1938
f 310/1939 278/1940 311/1941
f 307/1942 275/1943 308/1944
f 257/1945 291/1946 290/1947
f 294/1948 262/1949 295/1950
f 293/1951 261/1952 294/1953
f 295/1954 263/1955 296/1956
f 296/1957 264/1958 297/1959
f 264/1960 298/1961 297/1962
f 265/1963 299/1964 298/1965
f 266/1966 300/1967 299/1968
f 267/1969 301/1970 300/1971
f 301/1972 269/1973 302/1974
f 302/1975 270/1976 303/1977
f 303/1978 271/1979 304/1980
f 306/1981 274/1982 307/1983
f 256/1984 290/1985 289/1986
f 308/1987 276/1988 309/1989
f 311/1990 279/1991 312/1992
f 279/1993 313/1994 312/1995
f 280/1996 314/1997 313/1998
f 281/1999 315/2000 314/2001
f 282/2002 316/2003 315/2004
f 283/2005 317/2006 316/2007
f 284/2008 318/2009 317/2010
f 285/2011 319/2012 318/2013
f 320/2014 319/2015 289/2016
f 293/2017 323/2018 292/2019
f 323/2020 291/2021 292/2022
f 306/2023 336/2024 305/2025
f 310/2026 340/2027 309/2028
f 311/2029 341/2030 310/2031
f 308/2032 338/2033 307/2034
f 322/2035 290/2036 291/2037
f 295/2038 325/2039 294/2040
f 294/2041 324/2042 293/2043
f 296/2044 326/2045 295/2046
f 297/2047 327/2048 296/2049
f 329/2050 297/2051 298/2052
f 330/2053 298/2054 299/2055
f 331/2056 299/2057 300/2058
f 332/2059 300/2060 301/2061
f 302/2062 332/2063 301/2064
f 303/2065 333/2066 302/2067
f 304/2068 334/2069 303/2070
f 307/2071 337/2072 306/2073
f 321/2074 289/2075 290/2076
f 309/2077 339/2078 308/2079
f 343/2080 311/2081 312/2082
f 344/2083 312/2084 313/2085
f 345/2086 313/2087 314/2088
f 346/2089 314/2090 315/2091
f 347/2092 315/2093 316/2094
f 348/2095 316/2096 317/2097
f 349/2098 317/2099 318/2100
f 350/2101 318/2102 319/2103
f 360/2104 359/2105 2/2106
f 286/2107 289/2108 319/2109
f 352/2110 115/2111 84/2112
f 67/2113 351/2114 68/2115
f 68/2116 351/2117 38/2118
f 38/2119 52/2120 39/2121
f 39/2122 51/2123 40/2124
f 52/2125 51/2126 39/2127
f 40/2128 50/2129 41/2130
f 41/2131 49/2132 42/2133
f 50/2134 49/2135 41/2136
f 42/2137 48/2138 43/2139
f 43/2140 47/2141 44/2142
f 48/2143 47/2144 43/2145
f 44/2146 47/2147 45/2148
f 45/2149 47/2150 46/2151
f 48/2152 42/2153 49/2154
f 50/2155 40/2156 51/2157
f 52/2158 38/2159 53/2160
f 53/2161 38/2162 351/2163
f 351/2164 67/2165 54/2166
f 54/2167 67/2168 55/2169
f 55/2170 60/2171 56/2172
f 56/2173 59/2174 57/2175
f 57/2176 59/2177 58/2178
f 59/2179 56/2180 60/2181
f 60/2182 55/2183 61/2184
f 61/2185 65/2186 62/2187
f 62/2188 65/2189 63/2190
f 63/2191 65/2192 64/2193
f 65/2194 61/2195 66/2196
f 66/2197 55/2198 67/2199
f 84/2200 351/2201 352/2202
f 352/2203 54/2204 85/2205
f 287/2206 335/2207 304/2208
f 305/2209 288/2210 287/2211
f 304/2212 353/2213 287/2214
f 287/2215 272/2216 305/2217
f 271/2218 354/2219 353/2220
f 353/2221 241/2222 272/2223
f 240/2224 355/2225 354/2226
f 354/2227 210/2228 241/2229
f 209/2230 356/2231 355/2232
f 355/2233 179/2234 210/2235
f 178/2236 357/2237 356/2238
f 356/2239 148/2240 179/2241
f 147/2242 116/2243 357/2244
f 357/2245 117/2246 148/2247
f 99/2248 100/2249 131/2250
f 360/2251 361/2252 358/2253
f 360/2254 362/2255 363/2256
f 362/2257 364/2258 365/2259
f 366/2260 367/2261 365/2262
f 366/2263 368/2264 369/2265
f 368/2266 370/2267 371/2268
f 370/2269 372/2270 373/2271
f 374/2272 375/2273 373/2274
f 374/2275 376/2276 377/2277
f 378/2278 379/2279 377/2280
f 378/2281 380/2282 381/2283
f 382/2284 383/2285 381/2286
f 384/2287 385/2288 383/2289
f 386/2290 387/2291 385/2292
f 388/2293 389/2294 387/2295
f 390/2296 391/2297 389/2298
f 392/2299 393/2300 391/2301
f 394/2302 395/2303 393/2304
f 396/2305 397/2306 395/2307
f 396/2308 398/2309 399/2310
f 400/2311 401/2312 399/2313
f 400/2314 402/2315 403/2316
f 402/2317 404/2318 405/2319
f 404/2320 406/2321 407/2322
f 408/2323 409/2324 407/2325
f 410/2326 411/2327 409/2328
f 412/2329 413/2330 411/2331
f 412/2332 414/2333 415/2334
f 414/2335 416/2336 417/2337
f 418/2338 419/2339 417/2340
f 420/2341 421/2342 419/2343
f 422/2344 423/2345 421/2346
f 422/2347 424/2348 425/2349
f 424/2350 426/2351 427/2352
f 426/2353 428/2354 429/2355
f 429/2356 428/2357 359/2358
