o Refrigerator031_Body001_Clear
v 0.402809 0.2106715 -0.143167
v -0.007511 0.2106715 -0.143167
v 0.402809 0.2106715 -0.152033
v -0.007511 0.2106715 -0.152033
v 0.402809 -0.2350605 -0.143167
v -0.007511 -0.2350615 -0.143167
v 0.402809 -0.2350605 -0.152033
v -0.007511 -0.2350615 -0.152033
v 0.402809 0.2106715 0.213325
v -0.007511 0.2106715 0.213325
v 0.402809 0.2106715 0.204459
v -0.007511 0.2106715 0.20446
v 0.402809 -0.1811365 0.213325
v -0.007511 -0.1811375 0.213325
v 0.402809 -0.1811365 0.20446
v -0.007511 -0.1811375 0.20446
v 0.402809 0.2106715 0.559707
v -0.007511 0.2106715 0.559707
v 0.402809 0.2106715 0.550841
v -0.007511 0.2106715 0.550841
v 0.402809 -0.1811365 0.559707
v -0.007511 -0.1811375 0.559707
v 0.402809 -0.1811365 0.550841
v -0.007511 -0.1811375 0.550841
vt 0.852795 0.53075
vt 0.842733 0.53075
vt 0.852795 0.54165
vt 0.888476 0.56345
vt 0.888693 0.56345
vt 0.888476 0.55255
vt 0.88505 0.584412
vt 0.885267 0.57435
vt 0.88505 0.57435
vt 0.885267 0.57435
vt 0.88505 0.584412
vt 0.885267 0.584412
vt 0.872917 0.54165
vt 0.862856 0.54165
vt 0.872917 0.55255
vt 0.889345 0.54165
vt 0.889345 0.55255
vt 0.889563 0.54165
vt 0.885702 0.57435
vt 0.885702 0.584412
vt 0.885919 0.584412
vt 0.885919 0.584412
vt 0.885919 0.57435
vt 0.885702 0.57435
vt 0.852795 0.54165
vt 0.842733 0.53075
vt 0.842733 0.54165
vt 0.888476 0.55255
vt 0.888693 0.56345
vt 0.888693 0.55255
vt 0.872917 0.55255
vt 0.862856 0.54165
vt 0.862856 0.55255
vt 0.889563 0.54165
vt 0.889345 0.55255
vt 0.889563 0.55255
vt 0.852795 0.54165
vt 0.842733 0.54165
vt 0.852795 0.55255
vt 0.888693 0.55255
vt 0.888911 0.55255
vt 0.888693 0.54165
vt 0.884833 0.584412
vt 0.88505 0.57435
vt 0.884833 0.57435
vt 0.88505 0.57435
vt 0.884833 0.584412
vt 0.88505 0.584412
vt 0.862856 0.55255
vt 0.852795 0.55255
vt 0.862856 0.56345
vt 0.88978 0.55255
vt 0.88978 0.54165
vt 0.889563 0.55255
vt 0.8813 0.57435
vt 0.8813 0.584412
vt 0.881517 0.584412
vt 0.881517 0.584412
vt 0.881517 0.57435
vt 0.8813 0.57435
vt 0.852795 0.55255
vt 0.842733 0.54165
vt 0.842733 0.55255
vt 0.888693 0.54165
vt 0.888911 0.55255
vt 0.888911 0.54165
vt 0.862856 0.56345
vt 0.852795 0.55255
vt 0.852795 0.56345
vt 0.889563 0.55255
vt 0.88978 0.54165
vt 0.889563 0.54165
vt 0.862856 0.54165
vt 0.852795 0.54165
vt 0.862856 0.55255
vt 0.888693 0.56345
vt 0.888911 0.56345
vt 0.888693 0.55255
vt 0.881517 0.584412
vt 0.881735 0.57435
vt 0.881517 0.57435
vt 0.881735 0.57435
vt 0.881517 0.584412
vt 0.881735 0.584412
vt 0.872917 0.55255
vt 0.862856 0.55255
vt 0.872917 0.56345
vt 0.888911 0.55255
vt 0.888911 0.56345
vt 0.889128 0.55255
vt 0.8813 0.584412
vt 0.8813 0.57435
vt 0.881082 0.57435
vt 0.881082 0.57435
vt 0.881082 0.584412
vt 0.8813 0.584412
vt 0.862856 0.55255
vt 0.852795 0.54165
vt 0.852795 0.55255
vt 0.888693 0.55255
vt 0.888911 0.56345
vt 0.888911 0.55255
vt 0.872917 0.56345
vt 0.862856 0.55255
vt 0.862856 0.56345
vt 0.889128 0.55255
vt 0.888911 0.56345
vt 0.889128 0.56345
f 1/1 2/2 5/3
f 2/4 4/5 6/6
f 1/7 4/8 2/9
f 4/10 1/11 3/12
f 4/13 3/14 8/15
f 1/16 5/17 3/18
f 5/19 6/20 8/21
f 8/22 7/23 5/24
f 5/25 2/26 6/27
f 6/28 4/29 8/30
f 8/31 3/32 7/33
f 3/34 5/35 7/36
f 9/37 10/38 13/39
f 10/40 12/41 14/42
f 9/43 12/44 10/45
f 12/46 9/47 11/48
f 12/49 11/50 16/51
f 9/52 13/53 11/54
f 13/55 14/56 16/57
f 16/58 15/59 13/60
f 13/61 10/62 14/63
f 14/64 12/65 16/66
f 16/67 11/68 15/69
f 11/70 13/71 15/72
f 17/73 18/74 21/75
f 18/76 20/77 22/78
f 17/79 20/80 18/81
f 20/82 17/83 19/84
f 20/85 19/86 24/87
f 17/88 21/89 19/90
f 21/91 22/92 24/93
f 24/94 23/95 21/96
f 21/97 18/98 22/99
f 22/100 20/101 24/102
f 24/103 19/104 23/105
f 19/106 21/107 23/108
