o Refrigerator031_fridge_drawer1
v 0.013962 0.1731655 -0.187148
v 0.013505 0.1742825 -0.188224
v 0.012058 0.1737065 -0.188219
v 0.012494 0.1725785 -0.187148
v 0.333362 0.1725795 -0.187148
v 0.3338 0.1737045 -0.188224
v 0.332354 0.1742825 -0.188219
v 0.331894 0.1731655 -0.187148
v 0.332769 0.1732245 -0.493125
v 0.332335 0.1742825 -0.492029
v 0.333812 0.1736935 -0.492029
v 0.012044 0.1736925 -0.492029
v 0.013532 0.1742825 -0.492014
v 0.013087 0.1732245 -0.493125
v -0.001288 0.1591545 -0.493125
v -0.002403 0.1590935 -0.492049
v -0.001792 0.1605245 -0.492056
v 5.7e-05 0.1607365 -0.493125
v -0.000661 0.1600575 -0.187148
v -0.001788 0.1605285 -0.188223
v -0.002403 0.1590985 -0.188218
v -0.001284 0.1586025 -0.187148
v -0.001295 -0.1747015 -0.187148
v -0.002403 -0.1747015 -0.188228
v -0.001295 -0.1758095 -0.188228
v -0.001253 -0.1758095 -0.490883
v -0.002403 -0.1747235 -0.492066
v -0.001339 -0.1747465 -0.493125
v -0.000104 -0.1758095 -0.492004
v 0.347167 0.1586025 -0.187148
v 0.348286 0.1590945 -0.188223
v 0.347674 0.1605255 -0.188218
v 0.346543 0.1600565 -0.187148
v 0.347178 -0.1758095 -0.188228
v 0.348286 -0.1747015 -0.188228
v 0.347178 -0.1747015 -0.187148
v 0.345987 -0.1758095 -0.492004
v 0.3472 -0.1747235 -0.493125
v 0.348286 -0.1747465 -0.492088
v 0.347136 -0.1758095 -0.490883
v 0.345823 0.1607365 -0.493125
v 0.347671 0.1605275 -0.49205
v 0.348286 0.1590965 -0.492053
v 0.347171 0.1591545 -0.493125
v 0.014352 0.1679525 -0.188227
v 0.015805 0.1685345 -0.188226
v 0.015364 0.1696435 -0.187148
v 0.013907 0.1690615 -0.187148
v 0.331952 0.1690615 -0.187148
v 0.330494 0.1696455 -0.187148
v 0.330053 0.1685345 -0.188227
v 0.331507 0.1679535 -0.188227
v 0.331516 0.1679445 -0.486425
v 0.330028 0.1685335 -0.48641
v 0.330473 0.1674755 -0.487521
v 0.015386 0.1674755 -0.487521
v 0.015819 0.1685335 -0.486425
v 0.014342 0.1679435 -0.486425
v 0.005806 0.1582715 -0.487521
v 0.00396 0.1580625 -0.486446
v 0.003346 0.1566315 -0.486449
v 0.004461 0.1566895 -0.487521
v 0.003346 0.1566265 -0.188227
v 0.003962 0.1580645 -0.188225
v 0.002855 0.1585435 -0.187148
v 0.002236 0.1571005 -0.187148
v 0.003346 -0.1747015 -0.188228
v 0.002237 -0.1747015 -0.187148
v 0.002237 -0.1758095 -0.188228
v 0.004443 -0.1747125 -0.487521
v 0.003346 -0.1747235 -0.486462
v 0.002227 -0.1758095 -0.487521
v 0.003346 -0.1758095 -0.488612
v 0.34192 0.1580615 -0.188227
v 0.342537 0.1566245 -0.188225
v 0.343647 0.1570975 -0.187148
v 0.343028 0.1585405 -0.187148
v 0.343646 -0.1758095 -0.188228
v 0.343646 -0.1747015 -0.187148
v 0.342537 -0.1747015 -0.188228
v 0.342537 -0.1758095 -0.488612
v 0.343667 -0.1758095 -0.487521
v 0.342537 -0.1747125 -0.486451
v 0.34144 -0.1747125 -0.487521
v 0.341422 0.1566865 -0.487521
v 0.342537 0.1566255 -0.486445
v 0.341926 0.1580565 -0.486452
v 0.340074 0.1582685 -0.487521
v 0.127287 -0.1944045 -0.31676
v 0.12837 -0.1941645 -0.313937
v 0.12691 -0.1929495 -0.298147
v 0.125455 -0.1944045 -0.314506
v 0.12691 -0.1809235 -0.274332
v 0.12884 -0.1782195 -0.272523
v 0.128851 -0.1805765 -0.271162
v 0.220639 -0.1944045 -0.314506
v 0.219184 -0.1929495 -0.299511
v 0.217723 -0.1941445 -0.313939
v 0.218807 -0.1944045 -0.316759
v 0.217243 -0.1799175 -0.270982
v 0.217345 -0.1775495 -0.272205
v 0.219184 -0.1802505 -0.274039
v 0.220816 -0.1944045 -0.272347
v 0.217219 -0.1919305 -0.273207
v 0.219184 -0.1923385 -0.275981
v 0.221457 -0.1944045 -0.275288
v 0.124624 -0.1944045 -0.27529
v 0.12691 -0.1922355 -0.275979
v 0.12899 -0.1917585 -0.272923
v 0.125159 -0.1944045 -0.272293
v 0.357591 -0.1923885 -0.502137
v 0.359607 -0.1924275 -0.50021
v 0.357513 -0.1944045 -0.499354
v 0.352768 -0.1944045 -0.500091
v 0.357549 -0.1782785 -0.182751
v 0.359607 -0.1782785 -0.184758
v 0.357549 -0.1762205 -0.184758
v 0.357549 -0.1762205 -0.500131
v 0.359607 -0.1782785 -0.500131
v 0.357549 -0.1782785 -0.502137
v 0.357632 -0.1924295 -0.182751
v 0.354153 -0.1944045 -0.184796
v 0.357473 -0.1944045 -0.18606
v 0.359607 -0.1924285 -0.184677
v -0.013506 -0.1924285 -0.184677
v -0.011411 -0.1944045 -0.186
v -0.007955 -0.1944045 -0.184833
v -0.011532 -0.1924295 -0.182751
v -0.011448 -0.1762205 -0.500131
v -0.011448 -0.1782785 -0.502137
v -0.013506 -0.1782785 -0.500131
v -0.013506 -0.1923875 -0.500171
v -0.011532 -0.1924305 -0.502137
v -0.006669 -0.1944045 -0.500091
v -0.011413 -0.1944045 -0.499353
v -0.011448 -0.1782785 -0.182751
v -0.011448 -0.1762205 -0.184758
v -0.013506 -0.1782785 -0.184758
vt 0.8825282 0.7611052
vt 0.88248616 0.7610872
vt 0.8825692 0.7610022
vt 0.8825692 0.7610022
vt 0.88248616 0.7610872
vt 0.8825272 0.76098526
vt 0.8825152 0.76113725
vt 0.8825282 0.7611052
vt 0.89183617 0.76113725
vt 0.89183617 0.76113725
vt 0.8825282 0.7611052
vt 0.8918232 0.7611052
vt 0.9064841 0.7050642
vt 0.9064841 0.7051102
vt 0.9002621 0.7050642
vt 0.9002621 0.7050642
vt 0.9064841 0.7051102
vt 0.9002632 0.7051112
vt 0.88248616 0.7610872
vt 0.8824732 0.7611202
vt 0.8821012 0.7607212
vt 0.8821012 0.7607212
vt 0.8824732 0.7611202
vt 0.88206816 0.7607352
vt 0.89186615 0.7610872
vt 0.8918232 0.7611052
vt 0.8918241 0.76098526
vt 0.8918241 0.76098526
vt 0.8918232 0.7611052
vt 0.89178216 0.7610022
vt 0.89186615 0.7610872
vt 0.89225113 0.7607212
vt 0.8918781 0.7611202
vt 0.8918781 0.7611202
vt 0.89225113 0.7607212
vt 0.89228415 0.7607352
vt 0.9064841 0.71374923
vt 0.9064841 0.7137822
vt 0.9002621 0.71374923
vt 0.9002621 0.71374923
vt 0.9064841 0.7137822
vt 0.9002621 0.7137822
vt 0.85067517 0.7267662
vt 0.85066617 0.7267362
vt 0.85103714 0.72638524
vt 0.85103714 0.72638524
vt 0.85066617 0.7267362
vt 0.85104716 0.72633123
vt 0.9002621 0.71374923
vt 0.9002292 0.71374923
vt 0.9002632 0.7051112
vt 0.9002632 0.7051112
vt 0.9002292 0.71374923
vt 0.9002292 0.7050872
vt 0.9002292 0.7050872
vt 0.9002292 0.70459723
vt 0.9002621 0.7050642
vt 0.9002621 0.7050642
vt 0.9002292 0.70459723
vt 0.90026116 0.70454526
vt 0.85108316 0.7365322
vt 0.85103714 0.7364922
vt 0.85108316 0.7263452
vt 0.85108316 0.7263452
vt 0.85103714 0.7364922
vt 0.85103714 0.72638524
vt 0.8510891 0.7365642
vt 0.85108316 0.7365322
vt 0.8608562 0.73656523
vt 0.8608562 0.73656523
vt 0.85108316 0.7365322
vt 0.8608532 0.73653424
vt 0.90026116 0.70454526
vt 0.9002621 0.70451224
vt 0.9064841 0.70454526
vt 0.9064841 0.70454526
vt 0.9002621 0.70451224
vt 0.9064841 0.70451224
vt 0.8821012 0.7607212
vt 0.8820832 0.76067924
vt 0.8822042 0.7606772
vt 0.8822042 0.7606772
vt 0.8820832 0.76067924
vt 0.8821862 0.76063526
vt 0.88205016 0.7606932
vt 0.88205016 0.7508402
vt 0.8820832 0.76067924
vt 0.8820832 0.76067924
vt 0.88205016 0.7508402
vt 0.88208216 0.7508402
vt 0.88208216 0.7508402
vt 0.88208216 0.7508072
vt 0.8821862 0.7508402
vt 0.8821862 0.7508402
vt 0.88208216 0.7508072
vt 0.8821862 0.7508072
vt 0.91011214 0.71541226
vt 0.9101132 0.71545625
vt 0.90392613 0.71545124
vt 0.90392613 0.71545124
vt 0.9101132 0.71545625
vt 0.9038912 0.7154952
vt 0.9036982 0.68274426
vt 0.9037322 0.6827772
vt 0.9035982 0.68284225
vt 0.9035982 0.68284225
vt 0.9037322 0.6827772
vt 0.90363014 0.6828742
vt 0.8608881 0.73649824
vt 0.8608532 0.73653424
vt 0.8608881 0.7263812
vt 0.8608881 0.7263812
vt 0.8608532 0.73653424
vt 0.8608521 0.7263452
vt 0.89226913 0.76067924
vt 0.89225113 0.7607212
vt 0.89216614 0.76063526
vt 0.89216614 0.76063526
vt 0.89225113 0.7607212
vt 0.89214814 0.7606772
vt 0.89230216 0.7606932
vt 0.89226913 0.76067924
vt 0.89230216 0.7508402
vt 0.89230216 0.7508402
vt 0.89226913 0.76067924
vt 0.89226913 0.7508402
vt 0.8902882 0.72530925
vt 0.8902882 0.72526723
vt 0.8965101 0.72530925
vt 0.8965101 0.72530925
vt 0.8902882 0.72526723
vt 0.8965101 0.72526723
vt 0.89226913 0.7508072
vt 0.89226913 0.7508402
vt 0.89216614 0.7508072
vt 0.89216614 0.7508072
vt 0.89226913 0.7508402
vt 0.89216614 0.7508402
vt 0.89751315 0.6926172
vt 0.9036982 0.6926472
vt 0.8975122 0.6926562
vt 0.8975122 0.6926562
vt 0.9036982 0.6926472
vt 0.9037342 0.6926872
vt 0.9036982 0.6926472
vt 0.9035982 0.6925472
vt 0.9037322 0.6926142
vt 0.9037322 0.6926142
vt 0.9035982 0.6925472
vt 0.90363014 0.6925162
vt 0.8608571 0.72631323
vt 0.8608521 0.7263452
vt 0.8510891 0.72631323
vt 0.8510891 0.72631323
vt 0.8608521 0.7263452
vt 0.85108316 0.7263452
vt 0.88254017 0.76095223
vt 0.8825272 0.76098526
vt 0.8822361 0.7606632
vt 0.8822361 0.7606632
vt 0.8825272 0.76098526
vt 0.8822042 0.7606772
vt 0.8711102 0.7369832
vt 0.87111115 0.73693824
vt 0.87716216 0.73701423
vt 0.87716216 0.73701423
vt 0.87111115 0.73693824
vt 0.8771632 0.7369682
vt 0.8825692 0.7610022
vt 0.8825822 0.7609692
vt 0.89178216 0.7610022
vt 0.89178216 0.7610022
vt 0.8825822 0.7609692
vt 0.8917692 0.7609692
vt 0.89181113 0.76095223
vt 0.8921162 0.7606632
vt 0.8918241 0.76098526
vt 0.8918241 0.76098526
vt 0.8921162 0.7606632
vt 0.89214814 0.7606772
vt 0.87111115 0.7459532
vt 0.8711102 0.74591625
vt 0.8771632 0.74598324
vt 0.8771632 0.74598324
vt 0.8711102 0.74591625
vt 0.87716216 0.7459452
vt 0.8972411 0.7037112
vt 0.8975222 0.7034422
vt 0.8972721 0.7037252
vt 0.8972721 0.7037252
vt 0.8975222 0.7034422
vt 0.8975762 0.70343626
vt 0.8771962 0.7459512
vt 0.87716216 0.7459452
vt 0.8771962 0.7369952
vt 0.8771962 0.7369952
vt 0.87716216 0.7459452
vt 0.87716216 0.73701423
vt 0.8880302 0.7037112
vt 0.88800013 0.7037252
vt 0.88775015 0.7034422
vt 0.88775015 0.7034422
vt 0.88800013 0.7037252
vt 0.88769615 0.70343626
vt 0.88775015 0.7034422
vt 0.88771117 0.7033962
vt 0.8975222 0.7034422
vt 0.8975222 0.7034422
vt 0.88771117 0.7033962
vt 0.8975612 0.7033962
vt 0.86280817 0.74636626
vt 0.86280715 0.7464082
vt 0.8567532 0.7463472
vt 0.8567532 0.7463472
vt 0.86280715 0.7464082
vt 0.8567532 0.7463892
vt 0.88771117 0.7033962
vt 0.88767815 0.70339423
vt 0.88771015 0.6936122
vt 0.88771015 0.6936122
vt 0.88767815 0.70339423
vt 0.88767815 0.6936122
vt 0.8821862 0.76063526
vt 0.8821862 0.7508402
vt 0.8822181 0.7606212
vt 0.85520315 0.77115023
vt 0.85520315 0.7613682
vt 0.85523516 0.7613692
vt 0.8975122 0.6828512
vt 0.89751315 0.6828122
vt 0.90356517 0.68288124
vt 0.90356517 0.68288124
vt 0.89751315 0.6828122
vt 0.9035982 0.68284225
vt 0.9035971 0.6829132
vt 0.90363014 0.6828742
vt 0.9035971 0.69249225
vt 0.9035971 0.69249225
vt 0.90363014 0.6828742
vt 0.90363014 0.6925162
vt 0.90662515 0.7447552
vt 0.9066261 0.7448012
vt 0.90057313 0.7447932
vt 0.90057313 0.7447932
vt 0.9066261 0.7448012
vt 0.90057313 0.74483824
vt 0.89216614 0.76063526
vt 0.8921342 0.7606212
vt 0.89216614 0.7508402
vt 0.89216614 0.7508402
vt 0.8921342 0.7606212
vt 0.8921342 0.7508402
vt 0.9066591 0.7362052
vt 0.90060616 0.73624223
vt 0.9066582 0.7361602
vt 0.9066582 0.7361602
vt 0.90060616 0.73624223
vt 0.90057313 0.7361982
vt 0.89756215 0.6936122
vt 0.8975942 0.6936122
vt 0.8975612 0.7033962
vt 0.8975612 0.7033962
vt 0.8975942 0.6936122
vt 0.8975942 0.70339423
vt 0.8711102 0.7369832
vt 0.87716216 0.73701423
vt 0.8711102 0.74591625
vt 0.8711102 0.74591625
vt 0.87716216 0.73701423
vt 0.87716216 0.7459452
vt 0.87111115 0.73693824
vt 0.8711172 0.73657525
vt 0.8771632 0.7369682
vt 0.8771632 0.7369682
vt 0.8711172 0.73657525
vt 0.87716913 0.7366052
vt 0.8567852 0.73656523
vt 0.8628402 0.7365842
vt 0.8567532 0.7463472
vt 0.8567532 0.7463472
vt 0.8628402 0.7365842
vt 0.86280817 0.74636626
vt 0.90662515 0.7447552
vt 0.90057313 0.7447932
vt 0.9066591 0.7362052
vt 0.9066591 0.7362052
vt 0.90057313 0.7447932
vt 0.90060616 0.73624223
vt 0.9066261 0.7448012
vt 0.90663016 0.74520123
vt 0.90057313 0.74483824
vt 0.90057313 0.74483824
vt 0.90663016 0.74520123
vt 0.90057814 0.7452382
vt 0.89756215 0.6936122
vt 0.8975612 0.7033962
vt 0.88771015 0.6936122
vt 0.88771015 0.6936122
vt 0.8975612 0.7033962
vt 0.88771117 0.7033962
vt 0.88775015 0.7034422
vt 0.8975222 0.7034422
vt 0.8880302 0.7037112
vt 0.8880302 0.7037112
vt 0.8975222 0.7034422
vt 0.8972411 0.7037112
vt 0.9064841 0.7051102
vt 0.9064841 0.71374923
vt 0.9002632 0.7051112
vt 0.9002632 0.7051112
vt 0.9064841 0.71374923
vt 0.9002621 0.71374923
vt 0.9064841 0.7050642
vt 0.9002621 0.7050642
vt 0.9064841 0.70454526
vt 0.9064841 0.70454526
vt 0.9002621 0.7050642
vt 0.90026116 0.70454526
vt 0.9101132 0.71545625
vt 0.9100802 0.7240702
vt 0.9038912 0.7154952
vt 0.9038912 0.7154952
vt 0.9100802 0.7240702
vt 0.90385914 0.72410923
vt 0.8902882 0.72526723
vt 0.8902882 0.7154142
vt 0.8965101 0.72526723
vt 0.8965101 0.72526723
vt 0.8902882 0.7154142
vt 0.8965112 0.71541226
vt 0.8902882 0.72530925
vt 0.8965101 0.72530925
vt 0.8902882 0.7256942
vt 0.8902882 0.7256942
vt 0.8965101 0.72530925
vt 0.8965092 0.7256942
vt 0.8608521 0.7263452
vt 0.8608532 0.73653424
vt 0.85108316 0.7263452
vt 0.85108316 0.7263452
vt 0.8608532 0.73653424
vt 0.85108316 0.7365322
vt 0.85103714 0.7364922
vt 0.85067517 0.73611224
vt 0.85103714 0.72638524
vt 0.85103714 0.72638524
vt 0.85067517 0.73611224
vt 0.85067517 0.7267662
vt 0.8825282 0.7611052
vt 0.8825692 0.7610022
vt 0.8918232 0.7611052
vt 0.8918232 0.7611052
vt 0.8825692 0.7610022
vt 0.89178216 0.7610022
vt 0.8821012 0.7607212
vt 0.8822042 0.7606772
vt 0.88248616 0.7610872
vt 0.88248616 0.7610872
vt 0.8822042 0.7606772
vt 0.8825272 0.76098526
vt 0.8821862 0.7508402
vt 0.8821862 0.76063526
vt 0.88208216 0.7508402
vt 0.88208216 0.7508402
vt 0.8821862 0.76063526
vt 0.8820832 0.76067924
vt 0.9036982 0.68274426
vt 0.9035982 0.68284225
vt 0.89751315 0.6827122
vt 0.89751315 0.6827122
vt 0.9035982 0.68284225
vt 0.89751315 0.6828122
vt 0.89226913 0.76067924
vt 0.89216614 0.76063526
vt 0.89226913 0.7508402
vt 0.89226913 0.7508402
vt 0.89216614 0.76063526
vt 0.89216614 0.7508402
vt 0.89751315 0.6925172
vt 0.9035982 0.6925472
vt 0.89751315 0.6926172
vt 0.89751315 0.6926172
vt 0.9035982 0.6925472
vt 0.9036982 0.6926472
vt 0.8918241 0.76098526
vt 0.89214814 0.7606772
vt 0.89186615 0.7610872
vt 0.89186615 0.7610872
vt 0.89214814 0.7606772
vt 0.89225113 0.7607212
vt 0.9037322 0.6926142
vt 0.90363014 0.6925162
vt 0.9037322 0.6827772
vt 0.9037322 0.6827772
vt 0.90363014 0.6925162
vt 0.90363014 0.6828742
vt 0.8825152 0.76113725
vt 0.8824732 0.7611202
vt 0.8825282 0.7611052
vt 0.8825282 0.7611052
vt 0.8824732 0.7611202
vt 0.88248616 0.7610872
vt 0.8918781 0.7611202
vt 0.89183617 0.76113725
vt 0.89186615 0.7610872
vt 0.89186615 0.7610872
vt 0.89183617 0.76113725
vt 0.8918232 0.7611052
vt 0.9002292 0.71374923
vt 0.9002621 0.71374923
vt 0.9002621 0.7137822
vt 0.9002621 0.7050642
vt 0.9002632 0.7051112
vt 0.9002292 0.7050872
vt 0.8510891 0.7365642
vt 0.85104716 0.73654723
vt 0.85108316 0.7365322
vt 0.85108316 0.7365322
vt 0.85104716 0.73654723
vt 0.85103714 0.7364922
vt 0.88206816 0.7607352
vt 0.88205016 0.7606932
vt 0.8821012 0.7607212
vt 0.8821012 0.7607212
vt 0.88205016 0.7606932
vt 0.8820832 0.76067924
vt 0.90859413 0.7402442
vt 0.9085622 0.74026024
vt 0.9085622 0.74021626
vt 0.9038912 0.7154952
vt 0.90385914 0.71547925
vt 0.90392613 0.71545124
vt 0.90392613 0.71545124
vt 0.90385914 0.71547925
vt 0.90389216 0.7154342
vt 0.89230216 0.7606932
vt 0.89228415 0.7607352
vt 0.89226913 0.76067924
vt 0.89226913 0.76067924
vt 0.89228415 0.7607352
vt 0.89225113 0.7607212
vt 0.8959632 0.7174202
vt 0.8959621 0.7174592
vt 0.8959292 0.71742725
vt 0.9037652 0.6926562
vt 0.9037342 0.6926872
vt 0.9037322 0.6926142
vt 0.9037322 0.6926142
vt 0.9037342 0.6926872
vt 0.9036982 0.6926472
vt 0.85103714 0.72638524
vt 0.85104716 0.72633123
vt 0.85108316 0.7263452
vt 0.8965422 0.7252692
vt 0.8965101 0.72530925
vt 0.8965101 0.72526723
vt 0.88254017 0.76095223
vt 0.8825822 0.7609692
vt 0.8825272 0.76098526
vt 0.8825272 0.76098526
vt 0.8825822 0.7609692
vt 0.8825692 0.7610022
vt 0.89178216 0.7610022
vt 0.8917692 0.7609692
vt 0.8918241 0.76098526
vt 0.8918241 0.76098526
vt 0.8917692 0.7609692
vt 0.89181113 0.76095223
vt 0.8771632 0.74598324
vt 0.87716216 0.7459452
vt 0.8771962 0.7459512
vt 0.8771962 0.7369952
vt 0.87716216 0.73701423
vt 0.8771632 0.7369682
vt 0.88775015 0.7034422
vt 0.88769615 0.70343626
vt 0.88771117 0.7033962
vt 0.8628402 0.7463682
vt 0.86280715 0.7464082
vt 0.86280817 0.74636626
vt 0.8822181 0.7606212
vt 0.8822361 0.7606632
vt 0.8821862 0.76063526
vt 0.8821862 0.76063526
vt 0.8822361 0.7606632
vt 0.8822042 0.7606772
vt 0.8959621 0.7076552
vt 0.8959292 0.70762324
vt 0.8959632 0.70761526
vt 0.9035971 0.6829132
vt 0.90356517 0.68288124
vt 0.90363014 0.6828742
vt 0.90363014 0.6828742
vt 0.90356517 0.68288124
vt 0.9035982 0.68284225
vt 0.8921162 0.7606632
vt 0.8921342 0.7606212
vt 0.89214814 0.7606772
vt 0.89214814 0.7606772
vt 0.8921342 0.7606212
vt 0.89216614 0.76063526
vt 0.9051082 0.7609642
vt 0.90514016 0.7609922
vt 0.9051082 0.76100826
vt 0.90057313 0.7361982
vt 0.90060616 0.73624223
vt 0.9005412 0.7362142
vt 0.9005412 0.7362142
vt 0.90060616 0.73624223
vt 0.9005742 0.7362572
vt 0.90057313 0.7447932
vt 0.90057313 0.74483824
vt 0.9005412 0.7448102
vt 0.8975612 0.7033962
vt 0.8975762 0.70343626
vt 0.8975222 0.7034422
vt 0.8846781 0.68667424
vt 0.8846111 0.6866212
vt 0.8872862 0.6828792
vt 0.8872862 0.6828792
vt 0.8846111 0.6866212
vt 0.88726413 0.68274426
vt 0.88304317 0.7115092
vt 0.88312817 0.7114772
vt 0.88304317 0.7140492
vt 0.88304317 0.7140492
vt 0.88312817 0.7114772
vt 0.88312817 0.7140782
vt 0.88304317 0.7115092
vt 0.8817972 0.7115642
vt 0.8825692 0.7114732
vt 0.87952816 0.75274026
vt 0.87952816 0.75195324
vt 0.87959415 0.7520232
vt 0.8830612 0.7114252
vt 0.8825692 0.7114732
vt 0.8818852 0.71139526
vt 0.8818852 0.71139526
vt 0.8825692 0.7114732
vt 0.8819041 0.71147525
vt 0.87960416 0.7519282
vt 0.8796592 0.75199425
vt 0.87959415 0.7520232
vt 0.87959415 0.7520232
vt 0.8796592 0.75199425
vt 0.87965214 0.75208724
vt 0.87868917 0.7610022
vt 0.87861514 0.7610022
vt 0.87867117 0.7584182
vt 0.87867117 0.7584182
vt 0.87861514 0.7610022
vt 0.87859714 0.7584152
vt 0.8846781 0.68927526
vt 0.8872862 0.6930962
vt 0.8846111 0.68932724
vt 0.8846111 0.68932724
vt 0.8872862 0.6930962
vt 0.88726413 0.6932312
vt 0.88029814 0.75963223
vt 0.8800992 0.75847423
vt 0.8802831 0.75917923
vt 0.8802831 0.75917923
vt 0.8800992 0.75847423
vt 0.8801862 0.7584802
vt 0.8803432 0.7596072
vt 0.8802831 0.75917923
vt 0.8803432 0.7583412
vt 0.8803432 0.7583412
vt 0.8802831 0.75917923
vt 0.8802582 0.7584102
vt 0.87964416 0.71822023
vt 0.87964416 0.7183242
vt 0.87958217 0.7182622
vt 0.87958217 0.7182622
vt 0.87964416 0.7183242
vt 0.87958616 0.71835923
vt 0.8817972 0.7141292
vt 0.8818852 0.7141472
vt 0.87917215 0.71790624
vt 0.87917215 0.71790624
vt 0.8818852 0.7141472
vt 0.8792102 0.71800023
vt 0.8787532 0.7584192
vt 0.87882817 0.7583132
vt 0.87874913 0.76099825
vt 0.87874913 0.76099825
vt 0.87882817 0.7583132
vt 0.87882817 0.7611102
vt 0.88179517 0.7114102
vt 0.87917316 0.7076132
vt 0.8818852 0.71139526
vt 0.8818852 0.71139526
vt 0.87917316 0.7076132
vt 0.87920815 0.70751524
vt 0.8851862 0.7045192
vt 0.8852521 0.7046602
vt 0.88518715 0.7153102
vt 0.88518715 0.7153102
vt 0.8852521 0.7046602
vt 0.8852521 0.71516824
vt 0.88083017 0.69342625
vt 0.8808892 0.6934172
vt 0.8808892 0.6936102
vt 0.8916131 0.74290526
vt 0.8918072 0.7429652
vt 0.8916131 0.7429652
vt 0.88726413 0.6932312
vt 0.88728917 0.6933042
vt 0.8807602 0.69319725
vt 0.8807602 0.69319725
vt 0.88728917 0.6933042
vt 0.88071716 0.6932712
vt 0.8838942 0.7184752
vt 0.88395417 0.7184752
vt 0.8838942 0.72926223
vt 0.8838942 0.72926223
vt 0.88395417 0.7184752
vt 0.88395417 0.72926223
vt 0.8838942 0.71841526
vt 0.8838942 0.7184752
vt 0.8836992 0.71841526
vt 0.87910914 0.71841526
vt 0.87910914 0.71821225
vt 0.87916416 0.7183992
vt 0.89155316 0.7363372
vt 0.8916131 0.7363372
vt 0.89155316 0.74290526
vt 0.89155316 0.74290526
vt 0.8916131 0.7363372
vt 0.8916131 0.74290526
vt 0.8836602 0.7464112
vt 0.8836002 0.7463882
vt 0.8836602 0.7364122
vt 0.8836602 0.7364122
vt 0.8836002 0.7463882
vt 0.8836002 0.73639023
vt 0.87917215 0.71790624
vt 0.87910914 0.71801823
vt 0.87917316 0.7076132
vt 0.87917316 0.7076132
vt 0.87910914 0.71801823
vt 0.87910914 0.70752525
vt 0.8836992 0.7293232
vt 0.8836992 0.7292652
vt 0.8838942 0.7293232
vt 0.8838942 0.7293232
vt 0.8836992 0.7292652
vt 0.8838942 0.72926223
vt 0.89087117 0.7363912
vt 0.8908721 0.74296224
vt 0.8907912 0.73643124
vt 0.8907912 0.73643124
vt 0.8908721 0.74296224
vt 0.8907912 0.7429382
vt 0.8836602 0.7364122
vt 0.8836602 0.7363342
vt 0.89022917 0.7364122
vt 0.89022917 0.7364122
vt 0.8836602 0.7363342
vt 0.89022917 0.7363342
vt 0.8850012 0.7153682
vt 0.8849932 0.7153082
vt 0.8851942 0.7153682
vt 0.8851942 0.7153682
vt 0.8849932 0.7153082
vt 0.88518715 0.7153102
vt 0.88304317 0.7115092
vt 0.88304317 0.7140492
vt 0.8817972 0.7115642
vt 0.8817972 0.7115642
vt 0.88304317 0.7140492
vt 0.8817872 0.7140852
vt 0.8802831 0.75917923
vt 0.8801862 0.7584802
vt 0.8802582 0.7584102
vt 0.87868917 0.7610022
vt 0.87867117 0.7584182
vt 0.87874913 0.76099825
vt 0.87874913 0.76099825
vt 0.87867117 0.7584182
vt 0.8787532 0.7584192
vt 0.8872862 0.6930962
vt 0.8846781 0.68927526
vt 0.8872862 0.6828792
vt 0.8872862 0.6828792
vt 0.8846781 0.68927526
vt 0.8846781 0.68667424
vt 0.8846111 0.68932724
vt 0.88726413 0.6932312
vt 0.88343513 0.6893442
vt 0.88343513 0.6893442
vt 0.88726413 0.6932312
vt 0.8807602 0.69319725
vt 0.87917215 0.71790624
vt 0.87917316 0.7076132
vt 0.8817972 0.7141292
vt 0.8817972 0.7141292
vt 0.87917316 0.7076132
vt 0.88179517 0.7114102
vt 0.8916131 0.74290526
vt 0.8916131 0.7363372
vt 0.89180917 0.7429072
vt 0.89180917 0.7429072
vt 0.8916131 0.7363372
vt 0.89180917 0.7363342
vt 0.8849932 0.7153082
vt 0.8849932 0.7045212
vt 0.88518715 0.7153102
vt 0.88518715 0.7153102
vt 0.8849932 0.7045212
vt 0.8851862 0.7045192
vt 0.87959415 0.7520232
vt 0.87965214 0.75208724
vt 0.87952816 0.75274026
vt 0.8836602 0.7364122
vt 0.89022917 0.7364122
vt 0.8836602 0.7464112
vt 0.8836602 0.7464112
vt 0.89022917 0.7364122
vt 0.89022917 0.7464112
vt 0.8838942 0.7184752
vt 0.8838942 0.72926223
vt 0.8836992 0.7184732
vt 0.8836992 0.7184732
vt 0.8838942 0.72926223
vt 0.8836992 0.7292652
vt 0.88075817 0.6827122
vt 0.88726413 0.68274426
vt 0.88343513 0.6865922
vt 0.88343513 0.6865922
vt 0.88726413 0.68274426
vt 0.8846111 0.6866212
vt 0.89087117 0.7363912
vt 0.8910422 0.73639524
vt 0.8908721 0.74296224
vt 0.8908721 0.74296224
vt 0.8910422 0.73639524
vt 0.8910422 0.74296224
vt 0.88312817 0.7114772
vt 0.88304317 0.7115092
vt 0.8830612 0.7114252
vt 0.8830612 0.7114252
vt 0.88304317 0.7115092
vt 0.8825692 0.7114732
vt 0.87959415 0.7520232
vt 0.87952816 0.75195324
vt 0.87960416 0.7519282
vt 0.8826102 0.7140962
vt 0.88304317 0.7140492
vt 0.8830612 0.7141302
vt 0.8830612 0.7141302
vt 0.88304317 0.7140492
vt 0.88312817 0.7140782
vt 0.8802792 0.7583132
vt 0.8803432 0.7583412
vt 0.8802582 0.7584102
vt 0.88021016 0.75839126
vt 0.8801862 0.7584802
vt 0.8800942 0.7583852
vt 0.8800942 0.7583852
vt 0.8801862 0.7584802
vt 0.8800992 0.75847423
vt 0.8818852 0.71139526
vt 0.8819041 0.71147525
vt 0.88179517 0.7114102
vt 0.88179517 0.7114102
vt 0.8819041 0.71147525
vt 0.88181216 0.71153724
vt 0.88728917 0.6933042
vt 0.88726413 0.6932312
vt 0.88734716 0.6932472
vt 0.88734716 0.6932472
vt 0.88726413 0.6932312
vt 0.8872862 0.6930962
vt 0.8838942 0.7184752
vt 0.8838942 0.71841526
vt 0.88395417 0.7184752
vt 0.89155316 0.74290526
vt 0.8916131 0.74290526
vt 0.8916131 0.7429652
vt 0.87917215 0.71790624
vt 0.8792102 0.71800023
vt 0.87910914 0.71801823
vt 0.87910914 0.71801823
vt 0.8792102 0.71800023
vt 0.8791672 0.7180742
vt 0.88932115 0.7611942
vt 0.88924116 0.7612342
vt 0.8892932 0.76113725
vt 0.87910914 0.70752525
vt 0.87920815 0.70751524
vt 0.87917316 0.7076132
vt 0.8836602 0.7364122
vt 0.8836002 0.73639023
vt 0.8836602 0.7363342
vt 0.8908721 0.74296224
vt 0.89084315 0.7430222
vt 0.8907912 0.7429382
vt 0.88726413 0.68274426
vt 0.88734716 0.68275523
vt 0.8872862 0.6828792
vt 0.88873917 0.7611932
vt 0.88867915 0.7612162
vt 0.88867915 0.76113725
f 1/1 4/2 47/3
f 47/4 4/5 48/6
f 2/7 1/8 7/9
f 7/10 1/11 8/12
f 3/13 2/14 12/15
f 12/16 2/17 13/18
f 4/19 3/20 19/21
f 19/22 3/23 20/24
f 5/25 8/26 49/27
f 49/28 8/29 50/30
f 5/31 33/32 6/33
f 6/34 33/35 32/36
f 7/37 6/38 10/39
f 10/40 6/41 11/42
f 9/43 11/44 41/45
f 41/46 11/47 42/48
f 10/49 9/50 13/51
f 13/52 9/53 14/54
f 14/55 18/56 12/57
f 12/58 18/59 17/60
f 15/61 18/62 44/63
f 44/64 18/65 41/66
f 16/67 15/68 27/69
f 27/70 15/71 28/72
f 17/73 16/74 20/75
f 20/76 16/77 21/78
f 19/79 22/80 65/81
f 65/82 22/83 66/84
f 21/85 24/86 22/87
f 22/88 24/89 23/90
f 23/91 25/92 68/93
f 68/94 25/95 69/96
f 25/97 24/98 26/99
f 26/100 24/101 27/102
f 26/103 29/104 72/105
f 72/106 29/107 73/108
f 29/109 28/110 37/111
f 37/112 28/113 38/114
f 30/115 33/116 76/117
f 76/118 33/119 77/120
f 31/121 30/122 35/123
f 35/124 30/125 36/126
f 32/127 31/128 42/129
f 42/130 31/131 43/132
f 34/133 36/134 78/135
f 78/136 36/137 79/138
f 34/139 40/140 35/141
f 35/142 40/143 39/144
f 40/145 82/146 37/147
f 37/148 82/149 81/150
f 39/151 38/152 43/153
f 43/154 38/155 44/156
f 45/157 48/158 64/159
f 64/160 48/161 65/162
f 46/163 45/164 57/165
f 57/166 45/167 58/168
f 47/169 46/170 50/171
f 50/172 46/173 51/174
f 52/175 74/176 49/177
f 49/178 74/179 77/180
f 52/181 51/182 53/183
f 53/184 51/185 54/186
f 55/187 88/188 53/189
f 53/190 88/191 87/192
f 55/193 54/194 56/195
f 56/196 54/197 57/198
f 56/199 58/200 59/201
f 59/202 58/203 60/204
f 59/205 62/206 88/207
f 88/208 62/209 85/210
f 61/211 60/212 63/213
f 63/214 60/215 64/216
f 62/217 61/218 70/219
f 70/220 61/221 71/222
f 66/223 68/224 63/225
f 63/226 68/227 67/228
f 67/229 69/230 71/231
f 71/232 69/233 72/234
f 70/235 73/236 84/237
f 84/238 73/239 81/240
f 75/241 74/242 86/243
f 86/244 74/245 87/246
f 76/247 75/248 79/249
f 79/250 75/251 80/252
f 80/253 83/254 78/255
f 78/256 83/257 82/258
f 84/259 83/260 85/261
f 85/262 83/263 86/264
f 46/265 57/266 51/267
f 51/268 57/269 54/270
f 45/271 64/272 58/273
f 58/274 64/275 60/276
f 67/277 71/278 63/279
f 63/280 71/281 61/282
f 75/283 86/284 80/285
f 80/286 86/287 83/288
f 74/289 52/290 87/291
f 87/292 52/293 53/294
f 84/295 85/296 70/297
f 70/298 85/299 62/300
f 59/301 88/302 56/303
f 56/304 88/305 55/306
f 2/307 7/308 13/309
f 13/310 7/311 10/312
f 3/313 12/314 20/315
f 20/316 12/317 17/318
f 24/319 21/320 27/321
f 27/322 21/323 16/324
f 31/325 35/326 43/327
f 43/328 35/329 39/330
f 32/331 42/332 6/333
f 6/334 42/335 11/336
f 38/337 28/338 44/339
f 44/340 28/341 15/342
f 18/343 14/344 41/345
f 41/346 14/347 9/348
f 1/349 47/350 8/351
f 8/352 47/353 50/354
f 19/355 65/356 4/357
f 4/358 65/359 48/360
f 68/361 66/362 23/363
f 23/364 66/365 22/366
f 26/367 72/368 25/369
f 25/370 72/371 69/372
f 30/373 76/374 36/375
f 36/376 76/377 79/378
f 78/379 82/380 34/381
f 34/382 82/383 40/384
f 49/385 77/386 5/387
f 5/388 77/389 33/390
f 37/391 81/392 29/393
f 29/394 81/395 73/396
f 2/397 3/398 1/399
f 1/400 3/401 4/402
f 6/403 7/404 5/405
f 5/406 7/407 8/408
f 9/409 10/410 11/411
f 12/412 13/413 14/414
f 16/415 17/416 15/417
f 15/418 17/419 18/420
f 20/421 21/422 19/423
f 19/424 21/425 22/426
f 23/427 24/428 25/429
f 27/430 28/431 26/432
f 26/433 28/434 29/435
f 31/436 32/437 30/438
f 30/439 32/440 33/441
f 34/442 35/443 36/444
f 38/445 39/446 37/447
f 37/448 39/449 40/450
f 41/451 42/452 44/453
f 44/454 42/455 43/456
f 45/457 46/458 48/459
f 48/460 46/461 47/462
f 50/463 51/464 49/465
f 49/466 51/467 52/468
f 53/469 54/470 55/471
f 56/472 57/473 58/474
f 59/475 60/476 62/477
f 62/478 60/479 61/480
f 63/481 64/482 66/483
f 66/484 64/485 65/486
f 67/487 68/488 69/489
f 70/490 71/491 73/492
f 73/493 71/494 72/495
f 74/496 75/497 77/498
f 77/499 75/500 76/501
f 78/502 79/503 80/504
f 82/505 83/506 81/507
f 81/508 83/509 84/510
f 86/511 87/512 85/513
f 85/514 87/515 88/516
f 89/517 92/518 134/519
f 134/520 92/521 135/522
f 90/523 89/524 98/525
f 98/526 89/527 99/528
f 90/529 94/530 91/531
f 91/532 94/533 93/534
f 92/535 91/536 107/537
f 107/538 91/539 108/540
f 95/541 109/542 93/543
f 93/544 109/545 108/546
f 95/547 94/548 100/549
f 100/550 94/551 101/552
f 99/553 114/554 96/555
f 96/556 114/557 113/558
f 96/559 106/560 97/561
f 97/562 106/563 105/564
f 98/565 97/566 101/567
f 101/568 97/569 102/570
f 100/571 102/572 104/573
f 104/574 102/575 105/576
f 103/577 106/578 122/579
f 122/580 106/581 123/582
f 104/583 103/584 109/585
f 109/586 103/587 110/588
f 110/589 127/590 107/591
f 107/592 127/593 126/594
f 111/595 114/596 133/597
f 133/598 114/599 134/600
f 112/601 111/602 119/603
f 119/604 111/605 120/606
f 113/607 112/608 123/609
f 123/610 112/611 124/612
f 115/613 117/614 136/615
f 136/616 117/617 137/618
f 116/619 115/620 124/621
f 124/622 115/623 121/624
f 117/625 116/626 118/627
f 118/628 116/629 119/630
f 118/631 120/632 129/633
f 129/634 120/635 130/636
f 122/637 121/638 127/639
f 127/640 121/641 128/642
f 125/643 128/644 138/645
f 138/646 128/647 136/648
f 125/649 132/650 126/651
f 126/652 132/653 135/654
f 129/655 131/656 137/657
f 137/658 131/659 138/660
f 131/661 130/662 132/663
f 132/664 130/665 133/666
f 90/667 98/668 94/669
f 94/670 98/671 101/672
f 97/673 105/674 102/675
f 95/676 100/677 109/678
f 109/679 100/680 104/681
f 114/682 99/683 134/684
f 134/685 99/686 89/687
f 96/688 113/689 106/690
f 106/691 113/692 123/693
f 122/694 127/695 103/696
f 103/697 127/698 110/699
f 119/700 116/701 112/702
f 112/703 116/704 124/705
f 130/706 120/707 133/708
f 133/709 120/710 111/711
f 93/712 108/713 91/714
f 129/715 137/716 118/717
f 118/718 137/719 117/720
f 115/721 136/722 121/723
f 121/724 136/725 128/726
f 126/727 135/728 107/729
f 107/730 135/731 92/732
f 125/733 138/734 132/735
f 132/736 138/737 131/738
f 89/739 90/740 92/741
f 92/742 90/743 91/744
f 93/745 94/746 95/747
f 97/748 98/749 96/750
f 96/751 98/752 99/753
f 100/754 101/755 102/756
f 104/757 105/758 103/759
f 103/760 105/761 106/762
f 107/763 108/764 110/765
f 110/766 108/767 109/768
f 112/769 113/770 111/771
f 111/772 113/773 114/774
f 115/775 116/776 117/777
f 118/778 119/779 120/780
f 122/781 123/782 121/783
f 121/784 123/785 124/786
f 125/787 126/788 128/789
f 128/790 126/791 127/792
f 129/793 130/794 131/795
f 132/796 133/797 135/798
f 135/799 133/800 134/801
f 136/802 137/803 138/804
