o Refrigerator031_fridge_drawer0
v 0.013056 0.1741975 -0.580825
v 0.012596 0.1753215 -0.581907
v 0.011141 0.1747405 -0.581903
v 0.01158 0.1736065 -0.580825
v 0.334275 0.1736075 -0.580825
v 0.334716 0.1747395 -0.581907
v 0.333262 0.1753215 -0.581903
v 0.332799 0.1741975 -0.580825
v 0.333679 0.1742565 -0.887996
v 0.333243 0.1753205 -0.886894
v 0.334728 0.1747285 -0.886894
v 0.011127 0.1747275 -0.886894
v 0.012624 0.1753205 -0.886879
v 0.012176 0.1742565 -0.887996
v -0.002281 0.1601065 -0.887996
v -0.003403 0.1600455 -0.886914
v -0.002788 0.1614845 -0.886921
v -0.000928 0.1616975 -0.887996
v -0.00165 0.1610145 -0.580825
v -0.002784 0.1614885 -0.581906
v -0.003403 0.1600505 -0.581901
v -0.002277 0.1595515 -0.580825
v -0.002288 -0.1756705 -0.580825
v -0.003403 -0.1756705 -0.581912
v -0.002288 -0.1767845 -0.581912
v -0.002246 -0.1767845 -0.885742
v -0.003403 -0.1756925 -0.886932
v -0.002333 -0.1757145 -0.887996
v -0.00109 -0.1767845 -0.886869
v 0.348159 0.1595505 -0.580825
v 0.349284 0.1600465 -0.581906
v 0.348668 0.1614845 -0.581901
v 0.347531 0.1610135 -0.580825
v 0.34817 -0.1767845 -0.581912
v 0.349284 -0.1756705 -0.581912
v 0.34817 -0.1756705 -0.580825
v 0.346972 -0.1767845 -0.886869
v 0.348192 -0.1756925 -0.887996
v 0.349284 -0.1757145 -0.886953
v 0.348128 -0.1767845 -0.885742
v 0.346807 0.1616975 -0.887996
v 0.348666 0.1614875 -0.886916
v 0.349284 0.1600485 -0.886918
v 0.348163 0.1601065 -0.887996
v 0.013448 0.1689545 -0.58191
v 0.014909 0.1695395 -0.581909
v 0.014466 0.1706555 -0.580825
v 0.013 0.1700695 -0.580825
v 0.332857 0.1700705 -0.580825
v 0.331391 0.1706565 -0.580825
v 0.330947 0.1695395 -0.58191
v 0.33241 0.1689555 -0.58191
v 0.332419 0.1689465 -0.881258
v 0.330922 0.1695395 -0.881243
v 0.33137 0.1684755 -0.88236
v 0.014487 0.1684755 -0.88236
v 0.014923 0.1695395 -0.881258
v 0.013438 0.1689455 -0.881258
v 0.004853 0.1592185 -0.88236
v 0.002997 0.1590085 -0.88128
v 0.002379 0.1575695 -0.881282
v 0.0035 0.1576275 -0.88236
v 0.002379 0.1575645 -0.58191
v 0.002998 0.1590105 -0.581909
v 0.001885 0.1594915 -0.580825
v 0.001263 0.1580405 -0.580825
v 0.002379 -0.1756705 -0.581912
v 0.001264 -0.1756705 -0.580825
v 0.001264 -0.1767845 -0.581912
v 0.003483 -0.1756815 -0.88236
v 0.002379 -0.1756925 -0.881296
v 0.001254 -0.1767845 -0.88236
v 0.002379 -0.1767845 -0.883457
v 0.342882 0.1590075 -0.58191
v 0.343503 0.1575625 -0.581908
v 0.344619 0.1580375 -0.580825
v 0.343996 0.1594885 -0.580825
v 0.344617 -0.1767845 -0.581912
v 0.344617 -0.1756705 -0.580825
v 0.343503 -0.1756705 -0.581912
v 0.343503 -0.1767845 -0.883457
v 0.344639 -0.1767845 -0.88236
v 0.343503 -0.1756815 -0.881285
v 0.342399 -0.1756815 -0.88236
v 0.342382 0.1576245 -0.88236
v 0.343503 0.1575635 -0.881278
v 0.342888 0.1590025 -0.881285
v 0.341026 0.1592155 -0.88236
v 0.127026 -0.1954425 -0.711175
v 0.128115 -0.1952015 -0.708337
v 0.126647 -0.1939795 -0.692457
v 0.125184 -0.1954425 -0.708909
v 0.126647 -0.1819355 -0.668506
v 0.128588 -0.1792155 -0.666687
v 0.128599 -0.1815865 -0.665318
v 0.22091 -0.1954425 -0.708909
v 0.219447 -0.1939785 -0.693828
v 0.217977 -0.1951815 -0.708339
v 0.219068 -0.1954425 -0.711175
v 0.217495 -0.1809235 -0.665137
v 0.217597 -0.1785425 -0.666367
v 0.219447 -0.1812585 -0.668211
v 0.221088 -0.1954425 -0.666509
v 0.217471 -0.1929545 -0.667374
v 0.219447 -0.1933645 -0.670164
v 0.221733 -0.1954425 -0.669467
v 0.124348 -0.1954425 -0.669469
v 0.126647 -0.1932605 -0.670162
v 0.128739 -0.1927815 -0.667088
v 0.124887 -0.1954425 -0.666455
v 0.358642 -0.1934145 -0.89706
v 0.360669 -0.1934545 -0.895122
v 0.358564 -0.1954425 -0.894261
v 0.353792 -0.1954425 -0.895002
v 0.3586 -0.1792675 -0.576404
v 0.360669 -0.1792675 -0.578421
v 0.3586 -0.1771975 -0.578421
v 0.3586 -0.1771975 -0.895042
v 0.360669 -0.1792675 -0.895042
v 0.3586 -0.1792675 -0.89706
v 0.358684 -0.1934565 -0.576404
v 0.355184 -0.1954425 -0.57846
v 0.358524 -0.1954425 -0.579731
v 0.360669 -0.1934555 -0.578341
v -0.014569 -0.1934555 -0.578341
v -0.012462 -0.1954425 -0.579671
v -0.008986 -0.1954425 -0.578497
v -0.012583 -0.1934565 -0.576404
v -0.012499 -0.1771975 -0.895042
v -0.012499 -0.1792675 -0.89706
v -0.014569 -0.1792675 -0.895042
v -0.014569 -0.1934135 -0.895082
v -0.012583 -0.1934575 -0.89706
v -0.007693 -0.1954425 -0.895002
v -0.012463 -0.1954425 -0.89426
v -0.012499 -0.1792675 -0.576404
v -0.012499 -0.1771975 -0.578421
v -0.014569 -0.1792675 -0.578421
vt 0.8393421 0.7614132
vt 0.8392992 0.7613962
vt 0.8393831 0.7613102
vt 0.8393831 0.7613102
vt 0.8392992 0.7613962
vt 0.83934116 0.76129323
vt 0.8393291 0.76144624
vt 0.8393421 0.7614132
vt 0.84865016 0.76144624
vt 0.84865016 0.76144624
vt 0.8393421 0.7614132
vt 0.84863716 0.7614132
vt 0.8466692 0.73719525
vt 0.8466692 0.7372402
vt 0.8404472 0.7371942
vt 0.8404472 0.7371942
vt 0.8466692 0.7372402
vt 0.84044814 0.7372412
vt 0.8392992 0.7613962
vt 0.83928716 0.7614292
vt 0.83891517 0.7610302
vt 0.83891517 0.7610302
vt 0.83928716 0.7614292
vt 0.83888215 0.7610432
vt 0.84868014 0.7613962
vt 0.84863716 0.7614132
vt 0.8486382 0.76129323
vt 0.8486382 0.76129323
vt 0.84863716 0.7614132
vt 0.84859616 0.7613102
vt 0.84868014 0.7613962
vt 0.8490652 0.7610302
vt 0.8486922 0.7614292
vt 0.8486922 0.7614292
vt 0.8490652 0.7610302
vt 0.84909815 0.7610432
vt 0.8466692 0.74588025
vt 0.8466692 0.7459122
vt 0.8404472 0.74587923
vt 0.8404472 0.74587923
vt 0.8466692 0.7459122
vt 0.8404472 0.7459132
vt 0.8608972 0.7267662
vt 0.8608881 0.7267362
vt 0.86125916 0.72638524
vt 0.86125916 0.72638524
vt 0.8608881 0.7267362
vt 0.8612702 0.72633123
vt 0.8404472 0.74587923
vt 0.84041417 0.74587923
vt 0.84044814 0.7372412
vt 0.84044814 0.7372412
vt 0.84041417 0.74587923
vt 0.84041417 0.7372172
vt 0.84041417 0.7372172
vt 0.84041417 0.73672724
vt 0.8404472 0.7371942
vt 0.8404472 0.7371942
vt 0.84041417 0.73672724
vt 0.8404462 0.73667526
vt 0.8613051 0.7365322
vt 0.86125916 0.7364922
vt 0.8613051 0.7263452
vt 0.8613051 0.7263452
vt 0.86125916 0.7364922
vt 0.86125916 0.72638524
vt 0.8613112 0.7365642
vt 0.8613051 0.7365322
vt 0.87107915 0.73656523
vt 0.87107915 0.73656523
vt 0.8613051 0.7365322
vt 0.87107515 0.73653424
vt 0.8404462 0.73667526
vt 0.8404462 0.73664224
vt 0.8466692 0.73667526
vt 0.8466692 0.73667526
vt 0.8404462 0.73664224
vt 0.8466692 0.73664224
vt 0.83891517 0.7610302
vt 0.83889717 0.7609872
vt 0.83901817 0.76098526
vt 0.83901817 0.76098526
vt 0.83889717 0.7609872
vt 0.83900017 0.76094323
vt 0.83886415 0.7610022
vt 0.83886415 0.7511482
vt 0.83889717 0.7609872
vt 0.83889717 0.7609872
vt 0.83886415 0.7511482
vt 0.83889616 0.7511482
vt 0.83889616 0.7511482
vt 0.83889616 0.7511162
vt 0.83900017 0.7511482
vt 0.83900017 0.7511482
vt 0.83889616 0.7511162
vt 0.83900017 0.7511162
vt 0.9101331 0.6936122
vt 0.9101331 0.6936562
vt 0.9039471 0.69365025
vt 0.9039471 0.69365025
vt 0.9101331 0.6936562
vt 0.9039122 0.69369423
vt 0.9038131 0.6936442
vt 0.90384614 0.6936772
vt 0.90371215 0.6937422
vt 0.90371215 0.6937422
vt 0.90384614 0.6936772
vt 0.9037452 0.6937742
vt 0.8711102 0.73649824
vt 0.87107515 0.73653424
vt 0.8711102 0.7263812
vt 0.8711102 0.7263812
vt 0.87107515 0.73653424
vt 0.8710742 0.7263452
vt 0.8490832 0.7609872
vt 0.8490652 0.7610302
vt 0.8489802 0.76094323
vt 0.8489802 0.76094323
vt 0.8490652 0.7610302
vt 0.8489622 0.76098526
vt 0.84911615 0.7610022
vt 0.8490832 0.7609872
vt 0.84911615 0.7511482
vt 0.84911615 0.7511482
vt 0.8490832 0.7609872
vt 0.8490832 0.7511482
vt 0.88772017 0.71440923
vt 0.88772017 0.7143672
vt 0.8939421 0.71440923
vt 0.8939421 0.71440923
vt 0.88772017 0.7143672
vt 0.8939421 0.7143672
vt 0.8490832 0.7511162
vt 0.8490832 0.7511482
vt 0.8489802 0.7511162
vt 0.8489802 0.7511162
vt 0.8490832 0.7511482
vt 0.8489802 0.7511482
vt 0.8976271 0.7035172
vt 0.9038131 0.70354724
vt 0.89762616 0.7035562
vt 0.89762616 0.7035562
vt 0.9038131 0.70354724
vt 0.9038482 0.70358723
vt 0.9038131 0.70354724
vt 0.90371215 0.7034482
vt 0.90384614 0.7035142
vt 0.90384614 0.7035142
vt 0.90371215 0.7034482
vt 0.9037452 0.7034162
vt 0.87107915 0.72631323
vt 0.8710742 0.7263452
vt 0.8613112 0.72631323
vt 0.8613112 0.72631323
vt 0.8710742 0.7263452
vt 0.8613051 0.7263452
vt 0.83935416 0.7612612
vt 0.83934116 0.76129323
vt 0.8390502 0.7609712
vt 0.8390502 0.7609712
vt 0.83934116 0.76129323
vt 0.83901817 0.76098526
vt 0.8771962 0.7369832
vt 0.8771962 0.73693824
vt 0.88324815 0.73701423
vt 0.88324815 0.73701423
vt 0.8771962 0.73693824
vt 0.88324815 0.7369682
vt 0.8393831 0.7613102
vt 0.8393961 0.7612782
vt 0.84859616 0.7613102
vt 0.84859616 0.7613102
vt 0.8393961 0.7612782
vt 0.84858316 0.7612782
vt 0.8486252 0.7612612
vt 0.8489301 0.7609712
vt 0.8486382 0.76129323
vt 0.8486382 0.76129323
vt 0.8489301 0.7609712
vt 0.8489622 0.76098526
vt 0.8771962 0.7459532
vt 0.8771962 0.74591625
vt 0.88324815 0.74598324
vt 0.88324815 0.74598324
vt 0.8771962 0.74591625
vt 0.88324714 0.7459452
vt 0.89712715 0.69281125
vt 0.8974081 0.6925422
vt 0.8971572 0.6928252
vt 0.8971572 0.6928252
vt 0.8974081 0.6925422
vt 0.8974621 0.69253623
vt 0.8832812 0.7459512
vt 0.88324714 0.7459452
vt 0.8832812 0.7369952
vt 0.8832812 0.7369952
vt 0.88324714 0.7459452
vt 0.88324815 0.73701423
vt 0.88791615 0.69281125
vt 0.88788515 0.6928252
vt 0.8876362 0.6925422
vt 0.8876362 0.6925422
vt 0.88788515 0.6928252
vt 0.8875822 0.69253623
vt 0.8876362 0.6925422
vt 0.8875972 0.6924962
vt 0.8974081 0.6925422
vt 0.8974081 0.6925422
vt 0.8875972 0.6924962
vt 0.8974471 0.6924962
vt 0.85672116 0.74636626
vt 0.85672015 0.7464082
vt 0.8506671 0.7463472
vt 0.8506671 0.7463472
vt 0.85672015 0.7464082
vt 0.85066617 0.7463892
vt 0.8875972 0.6924962
vt 0.8875642 0.6924942
vt 0.88759613 0.6827122
vt 0.88759613 0.6827122
vt 0.8875642 0.6924942
vt 0.8875642 0.6827122
vt 0.83900017 0.76094323
vt 0.83900017 0.7511482
vt 0.8390322 0.7609292
vt 0.84911615 0.77115023
vt 0.84911615 0.7613682
vt 0.84914815 0.7613692
vt 0.89762616 0.6937522
vt 0.8976271 0.69371223
vt 0.9036802 0.6937822
vt 0.9036802 0.6937822
vt 0.8976271 0.69371223
vt 0.90371215 0.6937422
vt 0.9037112 0.6938132
vt 0.9037452 0.6937742
vt 0.9037112 0.7033922
vt 0.9037112 0.7033922
vt 0.9037452 0.6937742
vt 0.9037452 0.7034162
vt 0.90759015 0.73459923
vt 0.90759015 0.73464423
vt 0.9015372 0.7346362
vt 0.9015372 0.7346362
vt 0.90759015 0.73464423
vt 0.9015372 0.7346822
vt 0.8489802 0.76094323
vt 0.8489481 0.7609292
vt 0.8489802 0.7511482
vt 0.8489802 0.7511482
vt 0.8489481 0.7609292
vt 0.8489481 0.7511482
vt 0.9076232 0.72604823
vt 0.9015702 0.72608626
vt 0.9076222 0.72600424
vt 0.9076222 0.72600424
vt 0.9015702 0.72608626
vt 0.9015372 0.7260422
vt 0.8974482 0.6827122
vt 0.89748013 0.6827122
vt 0.8974471 0.6924962
vt 0.8974471 0.6924962
vt 0.89748013 0.6827122
vt 0.89748013 0.6924942
vt 0.8771962 0.7369832
vt 0.88324815 0.73701423
vt 0.8771962 0.74591625
vt 0.8771962 0.74591625
vt 0.88324815 0.73701423
vt 0.88324714 0.7459452
vt 0.8771962 0.73693824
vt 0.87720215 0.73657525
vt 0.88324815 0.7369682
vt 0.88324815 0.7369682
vt 0.87720215 0.73657525
vt 0.8832551 0.7366052
vt 0.8506982 0.73656523
vt 0.8567532 0.7365842
vt 0.8506671 0.7463472
vt 0.8506671 0.7463472
vt 0.8567532 0.7365842
vt 0.85672116 0.74636626
vt 0.90759015 0.73459923
vt 0.9015372 0.7346362
vt 0.9076232 0.72604823
vt 0.9076232 0.72604823
vt 0.9015372 0.7346362
vt 0.9015702 0.72608626
vt 0.90759015 0.73464423
vt 0.9075942 0.7350452
vt 0.9015372 0.7346822
vt 0.9015372 0.7346822
vt 0.9075942 0.7350452
vt 0.9015422 0.7350822
vt 0.8974482 0.6827122
vt 0.8974471 0.6924962
vt 0.88759613 0.6827122
vt 0.88759613 0.6827122
vt 0.8974471 0.6924962
vt 0.8875972 0.6924962
vt 0.8876362 0.6925422
vt 0.8974081 0.6925422
vt 0.88791615 0.69281125
vt 0.88791615 0.69281125
vt 0.8974081 0.6925422
vt 0.89712715 0.69281125
vt 0.8466692 0.7372402
vt 0.8466692 0.74588025
vt 0.84044814 0.7372412
vt 0.84044814 0.7372412
vt 0.8466692 0.74588025
vt 0.8404472 0.74587923
vt 0.8466692 0.73719525
vt 0.8404472 0.7371942
vt 0.8466692 0.73667526
vt 0.8466692 0.73667526
vt 0.8404472 0.7371942
vt 0.8404462 0.73667526
vt 0.9101331 0.6936562
vt 0.9101012 0.7022702
vt 0.9039122 0.69369423
vt 0.9039122 0.69369423
vt 0.9101012 0.7022702
vt 0.90387917 0.70230925
vt 0.88772017 0.7143672
vt 0.88772017 0.7045142
vt 0.8939421 0.7143672
vt 0.8939421 0.7143672
vt 0.88772017 0.7045142
vt 0.8939432 0.70451224
vt 0.88772017 0.71440923
vt 0.8939421 0.71440923
vt 0.88772017 0.7147942
vt 0.88772017 0.7147942
vt 0.8939421 0.71440923
vt 0.8939421 0.7147942
vt 0.8710742 0.7263452
vt 0.87107515 0.73653424
vt 0.8613051 0.7263452
vt 0.8613051 0.7263452
vt 0.87107515 0.73653424
vt 0.8613051 0.7365322
vt 0.86125916 0.7364922
vt 0.8608972 0.73611224
vt 0.86125916 0.72638524
vt 0.86125916 0.72638524
vt 0.8608972 0.73611224
vt 0.8608972 0.7267662
vt 0.8393421 0.7614132
vt 0.8393831 0.7613102
vt 0.84863716 0.7614132
vt 0.84863716 0.7614132
vt 0.8393831 0.7613102
vt 0.84859616 0.7613102
vt 0.83891517 0.7610302
vt 0.83901817 0.76098526
vt 0.8392992 0.7613962
vt 0.8392992 0.7613962
vt 0.83901817 0.76098526
vt 0.83934116 0.76129323
vt 0.83900017 0.7511482
vt 0.83900017 0.76094323
vt 0.83889616 0.7511482
vt 0.83889616 0.7511482
vt 0.83900017 0.76094323
vt 0.83889717 0.7609872
vt 0.9038131 0.6936442
vt 0.90371215 0.6937422
vt 0.8976271 0.6936122
vt 0.8976271 0.6936122
vt 0.90371215 0.6937422
vt 0.8976271 0.69371223
vt 0.8490832 0.7609872
vt 0.8489802 0.76094323
vt 0.8490832 0.7511482
vt 0.8490832 0.7511482
vt 0.8489802 0.76094323
vt 0.8489802 0.7511482
vt 0.8976271 0.7034172
vt 0.90371215 0.7034482
vt 0.8976271 0.7035172
vt 0.8976271 0.7035172
vt 0.90371215 0.7034482
vt 0.9038131 0.70354724
vt 0.8486382 0.76129323
vt 0.8489622 0.76098526
vt 0.84868014 0.7613962
vt 0.84868014 0.7613962
vt 0.8489622 0.76098526
vt 0.8490652 0.7610302
vt 0.90384614 0.7035142
vt 0.9037452 0.7034162
vt 0.90384614 0.6936772
vt 0.90384614 0.6936772
vt 0.9037452 0.7034162
vt 0.9037452 0.6937742
vt 0.8393291 0.76144624
vt 0.83928716 0.7614292
vt 0.8393421 0.7614132
vt 0.8393421 0.7614132
vt 0.83928716 0.7614292
vt 0.8392992 0.7613962
vt 0.8486922 0.7614292
vt 0.84865016 0.76144624
vt 0.84868014 0.7613962
vt 0.84868014 0.7613962
vt 0.84865016 0.76144624
vt 0.84863716 0.7614132
vt 0.84041417 0.74587923
vt 0.8404472 0.74587923
vt 0.8404472 0.7459132
vt 0.8404472 0.7371942
vt 0.84044814 0.7372412
vt 0.84041417 0.7372172
vt 0.8613112 0.7365642
vt 0.8612702 0.73654723
vt 0.8613051 0.7365322
vt 0.8613051 0.7365322
vt 0.8612702 0.73654723
vt 0.86125916 0.7364922
vt 0.83888215 0.7610432
vt 0.83886415 0.7610022
vt 0.83891517 0.7610302
vt 0.83891517 0.7610302
vt 0.83886415 0.7610022
vt 0.83889717 0.7609872
vt 0.9086151 0.7184432
vt 0.90858316 0.71845925
vt 0.9085822 0.71841526
vt 0.9039122 0.69369423
vt 0.90387917 0.6936792
vt 0.9039471 0.69365025
vt 0.9039471 0.69365025
vt 0.90387917 0.6936792
vt 0.9039122 0.6936342
vt 0.84911615 0.7610022
vt 0.84909815 0.7610432
vt 0.8490832 0.7609872
vt 0.8490832 0.7609872
vt 0.84909815 0.7610432
vt 0.8490652 0.7610302
vt 0.89607716 0.72832024
vt 0.8960762 0.7283592
vt 0.89604414 0.7283282
vt 0.90387917 0.7035562
vt 0.9038482 0.70358723
vt 0.90384614 0.7035142
vt 0.90384614 0.7035142
vt 0.9038482 0.70358723
vt 0.9038131 0.70354724
vt 0.86125916 0.72638524
vt 0.8612702 0.72633123
vt 0.8613051 0.7263452
vt 0.89397514 0.7143692
vt 0.8939421 0.71440923
vt 0.8939421 0.7143672
vt 0.83935416 0.7612612
vt 0.8393961 0.7612782
vt 0.83934116 0.76129323
vt 0.83934116 0.76129323
vt 0.8393961 0.7612782
vt 0.8393831 0.7613102
vt 0.84859616 0.7613102
vt 0.84858316 0.7612782
vt 0.8486382 0.76129323
vt 0.8486382 0.76129323
vt 0.84858316 0.7612782
vt 0.8486252 0.7612612
vt 0.88324815 0.74598324
vt 0.88324714 0.7459452
vt 0.8832812 0.7459512
vt 0.8832812 0.7369952
vt 0.88324815 0.73701423
vt 0.88324815 0.7369682
vt 0.8876362 0.6925422
vt 0.8875822 0.69253623
vt 0.8875972 0.6924962
vt 0.8567532 0.7463682
vt 0.85672015 0.7464082
vt 0.85672116 0.74636626
vt 0.8390322 0.7609292
vt 0.8390502 0.7609712
vt 0.83900017 0.76094323
vt 0.83900017 0.76094323
vt 0.8390502 0.7609712
vt 0.83901817 0.76098526
vt 0.8960762 0.7185552
vt 0.89604414 0.71852326
vt 0.89607716 0.71851623
vt 0.9037112 0.6938132
vt 0.9036802 0.6937822
vt 0.9037452 0.6937742
vt 0.9037452 0.6937742
vt 0.9036802 0.6937822
vt 0.90371215 0.6937422
vt 0.8489301 0.7609712
vt 0.8489481 0.7609292
vt 0.8489622 0.76098526
vt 0.8489622 0.76098526
vt 0.8489481 0.7609292
vt 0.8489802 0.76094323
vt 0.90607214 0.7508072
vt 0.9061042 0.75083625
vt 0.90607214 0.7508522
vt 0.9015372 0.7260422
vt 0.9015702 0.72608626
vt 0.9015051 0.72605824
vt 0.9015051 0.72605824
vt 0.9015702 0.72608626
vt 0.90153813 0.7261012
vt 0.9015372 0.7346362
vt 0.9015372 0.7346822
vt 0.9015051 0.7346542
vt 0.8974471 0.6924962
vt 0.8974621 0.69253623
vt 0.8974081 0.6925422
vt 0.88761914 0.7193742
vt 0.88755214 0.7193222
vt 0.8902272 0.7155802
vt 0.8902272 0.7155802
vt 0.88755214 0.7193222
vt 0.89020514 0.7154452
vt 0.8859842 0.74420923
vt 0.8860692 0.7441772
vt 0.8859842 0.7467492
vt 0.8859842 0.7467492
vt 0.8860692 0.7441772
vt 0.8860692 0.7467792
vt 0.8859842 0.74420923
vt 0.88473815 0.7442652
vt 0.88551015 0.74417424
vt 0.87952816 0.7519282
vt 0.87952816 0.7511412
vt 0.87959415 0.7512112
vt 0.8860022 0.74412525
vt 0.88551015 0.74417424
vt 0.8848262 0.7440962
vt 0.8848262 0.7440962
vt 0.88551015 0.74417424
vt 0.88484514 0.7441752
vt 0.87960416 0.7511162
vt 0.8796592 0.7511822
vt 0.87959415 0.7512112
vt 0.87959415 0.7512112
vt 0.8796592 0.7511822
vt 0.87965214 0.7512742
vt 0.8793411 0.7610022
vt 0.87926716 0.7610022
vt 0.8793231 0.7584182
vt 0.8793231 0.7584182
vt 0.87926716 0.7610022
vt 0.87924916 0.7584152
vt 0.88761914 0.7219762
vt 0.8902272 0.7257962
vt 0.88755214 0.7220272
vt 0.88755214 0.7220272
vt 0.8902272 0.7257962
vt 0.89020514 0.7259312
vt 0.87983215 0.75963223
vt 0.8796322 0.75847423
vt 0.8798171 0.75917923
vt 0.8798171 0.75917923
vt 0.8796322 0.75847423
vt 0.87971914 0.7584802
vt 0.87987614 0.7596072
vt 0.8798171 0.75917923
vt 0.87987614 0.7583412
vt 0.87987614 0.7583412
vt 0.8798171 0.75917923
vt 0.87979114 0.7584102
vt 0.87958217 0.71822023
vt 0.87958217 0.7183242
vt 0.8795202 0.7182622
vt 0.8795202 0.7182622
vt 0.87958217 0.7183242
vt 0.8795242 0.71835923
vt 0.88473713 0.7468292
vt 0.8848262 0.7468482
vt 0.88211316 0.7506062
vt 0.88211316 0.7506062
vt 0.8848262 0.7468482
vt 0.8821502 0.7507012
vt 0.87940514 0.7584192
vt 0.8794801 0.7583132
vt 0.87940115 0.76099825
vt 0.87940115 0.76099825
vt 0.8794801 0.7583132
vt 0.8794801 0.7611102
vt 0.8847362 0.7441102
vt 0.8821142 0.74031425
vt 0.8848262 0.7440962
vt 0.8848262 0.7440962
vt 0.8821142 0.74031425
vt 0.88214916 0.74021626
vt 0.8876532 0.70451224
vt 0.88772017 0.70465326
vt 0.88765514 0.7153032
vt 0.88765514 0.7153032
vt 0.88772017 0.70465326
vt 0.88772017 0.7151612
vt 0.8809482 0.6934172
vt 0.88100815 0.6934172
vt 0.8809762 0.6936082
vt 0.89135814 0.74290526
vt 0.89155215 0.7429652
vt 0.89135814 0.7429652
vt 0.89020514 0.7259312
vt 0.8902302 0.72600424
vt 0.8837012 0.7258982
vt 0.8837012 0.7258982
vt 0.8902302 0.72600424
vt 0.8836582 0.7259722
vt 0.88363916 0.7184752
vt 0.8836992 0.7184752
vt 0.88363916 0.72926223
vt 0.88363916 0.72926223
vt 0.8836992 0.7184752
vt 0.8836992 0.72926223
vt 0.88363916 0.71841526
vt 0.88363916 0.7184752
vt 0.8834431 0.71841526
vt 0.87922215 0.71822023
vt 0.87916416 0.71841526
vt 0.87916416 0.71822023
vt 0.8912982 0.7363372
vt 0.89135814 0.7363372
vt 0.8912982 0.74290526
vt 0.8912982 0.74290526
vt 0.89135814 0.7363372
vt 0.89135814 0.74290526
vt 0.8939122 0.7462372
vt 0.8938522 0.7462142
vt 0.8939122 0.7362392
vt 0.8939122 0.7362392
vt 0.8938522 0.7462142
vt 0.8938522 0.7362162
vt 0.88211316 0.7506062
vt 0.88205016 0.75071824
vt 0.8821142 0.74031425
vt 0.8821142 0.74031425
vt 0.88205016 0.75071824
vt 0.88205016 0.7402252
vt 0.8834431 0.7293232
vt 0.8834431 0.7292652
vt 0.88363916 0.7293232
vt 0.88363916 0.7293232
vt 0.8834431 0.7292652
vt 0.88363916 0.72926223
vt 0.8906202 0.7363912
vt 0.8906212 0.74296224
vt 0.8905401 0.73643124
vt 0.8905401 0.73643124
vt 0.8906212 0.74296224
vt 0.8905401 0.7429382
vt 0.8939122 0.7362392
vt 0.8939122 0.7361602
vt 0.9004811 0.7362392
vt 0.9004811 0.7362392
vt 0.8939122 0.7361602
vt 0.9004811 0.7361602
vt 0.8874692 0.71536124
vt 0.8874612 0.7153002
vt 0.88766116 0.71536124
vt 0.88766116 0.71536124
vt 0.8874612 0.7153002
vt 0.88765514 0.7153032
vt 0.8859842 0.74420923
vt 0.8859842 0.7467492
vt 0.88473815 0.7442652
vt 0.88473815 0.7442652
vt 0.8859842 0.7467492
vt 0.8847282 0.7467852
vt 0.8798171 0.75917923
vt 0.87971914 0.7584802
vt 0.87979114 0.7584102
vt 0.8793411 0.7610022
vt 0.8793231 0.7584182
vt 0.87940115 0.76099825
vt 0.87940115 0.76099825
vt 0.8793231 0.7584182
vt 0.87940514 0.7584192
vt 0.8902272 0.7257962
vt 0.88761914 0.7219762
vt 0.8902272 0.7155802
vt 0.8902272 0.7155802
vt 0.88761914 0.7219762
vt 0.88761914 0.7193742
vt 0.88755214 0.7220272
vt 0.89020514 0.7259312
vt 0.88637614 0.7220452
vt 0.88637614 0.7220452
vt 0.89020514 0.7259312
vt 0.8837012 0.7258982
vt 0.88211316 0.7506062
vt 0.8821142 0.74031425
vt 0.88473713 0.7468292
vt 0.88473713 0.7468292
vt 0.8821142 0.74031425
vt 0.8847362 0.7441102
vt 0.89135814 0.74290526
vt 0.89135814 0.7363372
vt 0.89155316 0.7429072
vt 0.89155316 0.7429072
vt 0.89135814 0.7363372
vt 0.89155316 0.7363342
vt 0.8874612 0.7153002
vt 0.8874612 0.7045132
vt 0.88765514 0.7153032
vt 0.88765514 0.7153032
vt 0.8874612 0.7045132
vt 0.8876532 0.70451224
vt 0.87959415 0.7512112
vt 0.87965214 0.7512742
vt 0.87952816 0.7519282
vt 0.8939122 0.7362392
vt 0.9004811 0.7362392
vt 0.8939122 0.7462372
vt 0.8939122 0.7462372
vt 0.9004811 0.7362392
vt 0.9004811 0.7462372
vt 0.88363916 0.7184752
vt 0.88363916 0.72926223
vt 0.8834431 0.7184732
vt 0.8834431 0.7184732
vt 0.88363916 0.72926223
vt 0.8834431 0.7292652
vt 0.8836992 0.71541226
vt 0.89020514 0.7154452
vt 0.88637614 0.7192922
vt 0.88637614 0.7192922
vt 0.89020514 0.7154452
vt 0.88755214 0.7193222
vt 0.8906202 0.7363912
vt 0.8907912 0.73639524
vt 0.8906212 0.74296224
vt 0.8906212 0.74296224
vt 0.8907912 0.73639524
vt 0.8907912 0.74296224
vt 0.8860692 0.7441772
vt 0.8859842 0.74420923
vt 0.8860022 0.74412525
vt 0.8860022 0.74412525
vt 0.8859842 0.74420923
vt 0.88551015 0.74417424
vt 0.87959415 0.7512112
vt 0.87952816 0.7511412
vt 0.87960416 0.7511162
vt 0.88555115 0.7467972
vt 0.8859842 0.7467492
vt 0.8860022 0.7468312
vt 0.8860022 0.7468312
vt 0.8859842 0.7467492
vt 0.8860692 0.7467792
vt 0.8798121 0.7583132
vt 0.87987614 0.7583412
vt 0.87979114 0.7584102
vt 0.8797442 0.75839126
vt 0.87971914 0.7584802
vt 0.87962717 0.7583852
vt 0.87962717 0.7583852
vt 0.87971914 0.7584802
vt 0.8796322 0.75847423
vt 0.8848262 0.7440962
vt 0.88484514 0.7441752
vt 0.8847362 0.7441102
vt 0.8847362 0.7441102
vt 0.88484514 0.7441752
vt 0.88475317 0.7442372
vt 0.8902302 0.72600424
vt 0.89020514 0.7259312
vt 0.8902882 0.7259482
vt 0.8902882 0.7259482
vt 0.89020514 0.7259312
vt 0.8902272 0.7257962
vt 0.88363916 0.7184752
vt 0.88363916 0.71841526
vt 0.8836992 0.7184752
vt 0.8912982 0.74290526
vt 0.89135814 0.74290526
vt 0.89135814 0.7429652
vt 0.88211316 0.7506062
vt 0.8821502 0.7507012
vt 0.88205016 0.75071824
vt 0.88205016 0.75071824
vt 0.8821502 0.7507012
vt 0.88210815 0.7507752
vt 0.88907015 0.7611942
vt 0.88899016 0.7612342
vt 0.88904214 0.76113725
vt 0.88205016 0.7402252
vt 0.88214916 0.74021626
vt 0.8821142 0.74031425
vt 0.8939122 0.7362392
vt 0.8938522 0.7362162
vt 0.8939122 0.7361602
vt 0.8906212 0.74296224
vt 0.89059216 0.7430222
vt 0.8905401 0.7429382
vt 0.89020514 0.7154452
vt 0.8902882 0.71545523
vt 0.8902272 0.7155802
vt 0.8989911 0.76101923
vt 0.89893115 0.76104224
vt 0.89893115 0.7609642
f 1/1 4/2 47/3
f 47/4 4/5 48/6
f 2/7 1/8 7/9
f 7/10 1/11 8/12
f 3/13 2/14 12/15
f 12/16 2/17 13/18
f 4/19 3/20 19/21
f 19/22 3/23 20/24
f 5/25 8/26 49/27
f 49/28 8/29 50/30
f 5/31 33/32 6/33
f 6/34 33/35 32/36
f 7/37 6/38 10/39
f 10/40 6/41 11/42
f 9/43 11/44 41/45
f 41/46 11/47 42/48
f 10/49 9/50 13/51
f 13/52 9/53 14/54
f 14/55 18/56 12/57
f 12/58 18/59 17/60
f 15/61 18/62 44/63
f 44/64 18/65 41/66
f 16/67 15/68 27/69
f 27/70 15/71 28/72
f 17/73 16/74 20/75
f 20/76 16/77 21/78
f 19/79 22/80 65/81
f 65/82 22/83 66/84
f 21/85 24/86 22/87
f 22/88 24/89 23/90
f 23/91 25/92 68/93
f 68/94 25/95 69/96
f 25/97 24/98 26/99
f 26/100 24/101 27/102
f 26/103 29/104 72/105
f 72/106 29/107 73/108
f 29/109 28/110 37/111
f 37/112 28/113 38/114
f 30/115 33/116 76/117
f 76/118 33/119 77/120
f 31/121 30/122 35/123
f 35/124 30/125 36/126
f 32/127 31/128 42/129
f 42/130 31/131 43/132
f 34/133 36/134 78/135
f 78/136 36/137 79/138
f 34/139 40/140 35/141
f 35/142 40/143 39/144
f 40/145 82/146 37/147
f 37/148 82/149 81/150
f 39/151 38/152 43/153
f 43/154 38/155 44/156
f 45/157 48/158 64/159
f 64/160 48/161 65/162
f 46/163 45/164 57/165
f 57/166 45/167 58/168
f 47/169 46/170 50/171
f 50/172 46/173 51/174
f 52/175 74/176 49/177
f 49/178 74/179 77/180
f 52/181 51/182 53/183
f 53/184 51/185 54/186
f 55/187 88/188 53/189
f 53/190 88/191 87/192
f 55/193 54/194 56/195
f 56/196 54/197 57/198
f 56/199 58/200 59/201
f 59/202 58/203 60/204
f 59/205 62/206 88/207
f 88/208 62/209 85/210
f 61/211 60/212 63/213
f 63/214 60/215 64/216
f 62/217 61/218 70/219
f 70/220 61/221 71/222
f 66/223 68/224 63/225
f 63/226 68/227 67/228
f 67/229 69/230 71/231
f 71/232 69/233 72/234
f 70/235 73/236 84/237
f 84/238 73/239 81/240
f 75/241 74/242 86/243
f 86/244 74/245 87/246
f 76/247 75/248 79/249
f 79/250 75/251 80/252
f 80/253 83/254 78/255
f 78/256 83/257 82/258
f 84/259 83/260 85/261
f 85/262 83/263 86/264
f 46/265 57/266 51/267
f 51/268 57/269 54/270
f 45/271 64/272 58/273
f 58/274 64/275 60/276
f 67/277 71/278 63/279
f 63/280 71/281 61/282
f 75/283 86/284 80/285
f 80/286 86/287 83/288
f 74/289 52/290 87/291
f 87/292 52/293 53/294
f 84/295 85/296 70/297
f 70/298 85/299 62/300
f 59/301 88/302 56/303
f 56/304 88/305 55/306
f 2/307 7/308 13/309
f 13/310 7/311 10/312
f 3/313 12/314 20/315
f 20/316 12/317 17/318
f 24/319 21/320 27/321
f 27/322 21/323 16/324
f 31/325 35/326 43/327
f 43/328 35/329 39/330
f 32/331 42/332 6/333
f 6/334 42/335 11/336
f 38/337 28/338 44/339
f 44/340 28/341 15/342
f 18/343 14/344 41/345
f 41/346 14/347 9/348
f 1/349 47/350 8/351
f 8/352 47/353 50/354
f 19/355 65/356 4/357
f 4/358 65/359 48/360
f 68/361 66/362 23/363
f 23/364 66/365 22/366
f 26/367 72/368 25/369
f 25/370 72/371 69/372
f 30/373 76/374 36/375
f 36/376 76/377 79/378
f 78/379 82/380 34/381
f 34/382 82/383 40/384
f 49/385 77/386 5/387
f 5/388 77/389 33/390
f 37/391 81/392 29/393
f 29/394 81/395 73/396
f 2/397 3/398 1/399
f 1/400 3/401 4/402
f 6/403 7/404 5/405
f 5/406 7/407 8/408
f 9/409 10/410 11/411
f 12/412 13/413 14/414
f 16/415 17/416 15/417
f 15/418 17/419 18/420
f 20/421 21/422 19/423
f 19/424 21/425 22/426
f 23/427 24/428 25/429
f 27/430 28/431 26/432
f 26/433 28/434 29/435
f 31/436 32/437 30/438
f 30/439 32/440 33/441
f 34/442 35/443 36/444
f 38/445 39/446 37/447
f 37/448 39/449 40/450
f 41/451 42/452 44/453
f 44/454 42/455 43/456
f 45/457 46/458 48/459
f 48/460 46/461 47/462
f 50/463 51/464 49/465
f 49/466 51/467 52/468
f 53/469 54/470 55/471
f 56/472 57/473 58/474
f 59/475 60/476 62/477
f 62/478 60/479 61/480
f 63/481 64/482 66/483
f 66/484 64/485 65/486
f 67/487 68/488 69/489
f 70/490 71/491 73/492
f 73/493 71/494 72/495
f 74/496 75/497 77/498
f 77/499 75/500 76/501
f 78/502 79/503 80/504
f 82/505 83/506 81/507
f 81/508 83/509 84/510
f 86/511 87/512 85/513
f 85/514 87/515 88/516
f 89/517 92/518 134/519
f 134/520 92/521 135/522
f 90/523 89/524 98/525
f 98/526 89/527 99/528
f 90/529 94/530 91/531
f 91/532 94/533 93/534
f 92/535 91/536 107/537
f 107/538 91/539 108/540
f 95/541 109/542 93/543
f 93/544 109/545 108/546
f 95/547 94/548 100/549
f 100/550 94/551 101/552
f 99/553 114/554 96/555
f 96/556 114/557 113/558
f 96/559 106/560 97/561
f 97/562 106/563 105/564
f 98/565 97/566 101/567
f 101/568 97/569 102/570
f 100/571 102/572 104/573
f 104/574 102/575 105/576
f 103/577 106/578 122/579
f 122/580 106/581 123/582
f 104/583 103/584 109/585
f 109/586 103/587 110/588
f 110/589 127/590 107/591
f 107/592 127/593 126/594
f 111/595 114/596 133/597
f 133/598 114/599 134/600
f 112/601 111/602 119/603
f 119/604 111/605 120/606
f 113/607 112/608 123/609
f 123/610 112/611 124/612
f 115/613 117/614 136/615
f 136/616 117/617 137/618
f 116/619 115/620 124/621
f 124/622 115/623 121/624
f 117/625 116/626 118/627
f 118/628 116/629 119/630
f 118/631 120/632 129/633
f 129/634 120/635 130/636
f 122/637 121/638 127/639
f 127/640 121/641 128/642
f 125/643 128/644 138/645
f 138/646 128/647 136/648
f 125/649 132/650 126/651
f 126/652 132/653 135/654
f 129/655 131/656 137/657
f 137/658 131/659 138/660
f 131/661 130/662 132/663
f 132/664 130/665 133/666
f 90/667 98/668 94/669
f 94/670 98/671 101/672
f 97/673 105/674 102/675
f 95/676 100/677 109/678
f 109/679 100/680 104/681
f 114/682 99/683 134/684
f 134/685 99/686 89/687
f 96/688 113/689 106/690
f 106/691 113/692 123/693
f 122/694 127/695 103/696
f 103/697 127/698 110/699
f 119/700 116/701 112/702
f 112/703 116/704 124/705
f 130/706 120/707 133/708
f 133/709 120/710 111/711
f 93/712 108/713 91/714
f 129/715 137/716 118/717
f 118/718 137/719 117/720
f 115/721 136/722 121/723
f 121/724 136/725 128/726
f 126/727 135/728 107/729
f 107/730 135/731 92/732
f 125/733 138/734 132/735
f 132/736 138/737 131/738
f 89/739 90/740 92/741
f 92/742 90/743 91/744
f 93/745 94/746 95/747
f 97/748 98/749 96/750
f 96/751 98/752 99/753
f 100/754 101/755 102/756
f 104/757 105/758 103/759
f 103/760 105/761 106/762
f 107/763 108/764 110/765
f 110/766 108/767 109/768
f 112/769 113/770 111/771
f 111/772 113/773 114/774
f 115/775 116/776 117/777
f 118/778 119/779 120/780
f 122/781 123/782 121/783
f 121/784 123/785 124/786
f 125/787 126/788 128/789
f 128/790 126/791 127/792
f 129/793 130/794 131/795
f 132/796 133/797 135/798
f 135/799 133/800 134/801
f 136/802 137/803 138/804
