o Refrigerator031_freezer_drawer1
v -0.336902 0.1614075 -0.222901
v -0.337318 0.1624775 -0.223931
v -0.338634 0.1619255 -0.223927
v -0.338237 0.1608455 -0.222901
v -0.127295 0.1608455 -0.222901
v -0.126896 0.1619235 -0.223931
v -0.128211 0.1624775 -0.223927
v -0.12863 0.1614075 -0.222901
v -0.127834 0.1614645 -0.49229
v -0.128228 0.1624775 -0.49124
v -0.126886 0.1619125 -0.49124
v -0.338646 0.1619125 -0.49124
v -0.337293 0.1624775 -0.491226
v -0.337698 0.1614645 -0.49229
v -0.35077 0.1479855 -0.49229
v -0.351784 0.1479275 -0.491259
v -0.351228 0.1492985 -0.491266
v -0.349547 0.1495005 -0.49229
v -0.3502 0.1488505 -0.222901
v -0.351225 0.1493015 -0.223931
v -0.351784 0.1479325 -0.223926
v -0.350767 0.1474575 -0.222901
v -0.350776 -0.1727595 -0.222901
v -0.351784 -0.1727595 -0.223936
v -0.350776 -0.1738215 -0.223936
v -0.350738 -0.1738215 -0.490143
v -0.351784 -0.1727815 -0.491276
v -0.350817 -0.1728025 -0.49229
v -0.349693 -0.1738215 -0.491216
v -0.114741 0.1474565 -0.222901
v -0.113723 0.1479285 -0.223931
v -0.11428 0.1492985 -0.223926
v -0.115308 0.1488495 -0.222901
v -0.114731 -0.1738215 -0.223936
v -0.113723 -0.1727595 -0.223936
v -0.114731 -0.1727595 -0.222901
v -0.115814 -0.1738215 -0.491216
v -0.114711 -0.1727815 -0.49229
v -0.113723 -0.1728025 -0.491297
v -0.114769 -0.1738215 -0.490143
v -0.115963 0.1495005 -0.49229
v -0.114283 0.1493005 -0.49126
v -0.113723 0.1479305 -0.491263
v -0.114737 0.1479855 -0.49229
v -0.336548 0.1564135 -0.223935
v -0.335227 0.1569705 -0.223933
v -0.335627 0.1580335 -0.222901
v -0.336952 0.1574755 -0.222901
v -0.128577 0.1574765 -0.222901
v -0.129903 0.1580345 -0.222901
v -0.130304 0.1569705 -0.223935
v -0.128982 0.1564145 -0.223935
v -0.128973 0.1564055 -0.485872
v -0.130327 0.1569705 -0.485857
v -0.129921 0.1559575 -0.486922
v -0.335608 0.1559575 -0.486922
v -0.335214 0.1569705 -0.485872
v -0.336556 0.1564055 -0.485872
v -0.344319 0.1471395 -0.486922
v -0.345997 0.1469395 -0.485892
v -0.346556 0.1455695 -0.485894
v -0.345542 0.1456245 -0.486922
v -0.346556 0.1455645 -0.223934
v -0.345996 0.1469415 -0.223933
v -0.347003 0.1473995 -0.222901
v -0.347565 0.1460175 -0.222901
v -0.346556 -0.1727595 -0.223936
v -0.347564 -0.1727595 -0.222901
v -0.347564 -0.1738215 -0.223936
v -0.345558 -0.1727705 -0.486921
v -0.346556 -0.1727815 -0.485907
v -0.347574 -0.1738215 -0.486921
v -0.346556 -0.1738215 -0.487967
v -0.119513 0.1469385 -0.223934
v -0.118951 0.1455625 -0.223933
v -0.117942 0.1460155 -0.222901
v -0.118505 0.1473975 -0.222901
v -0.117943 -0.1738215 -0.223936
v -0.117943 -0.1727595 -0.222901
v -0.118951 -0.1727595 -0.223936
v -0.118951 -0.1738215 -0.487967
v -0.117924 -0.1738215 -0.486921
v -0.118951 -0.1727705 -0.485897
v -0.119949 -0.1727705 -0.486921
v -0.119965 0.1456215 -0.486922
v -0.118951 0.1455625 -0.485891
v -0.119507 0.1469335 -0.485898
v -0.121191 0.1471365 -0.486922
v -0.270661 -0.1965795 -0.347062
v -0.269676 -0.1963495 -0.344358
v -0.271004 -0.1951855 -0.329232
v -0.272327 -0.1965795 -0.344903
v -0.271004 -0.1810635 -0.306418
v -0.269249 -0.1784725 -0.304686
v -0.269239 -0.1807305 -0.303382
v -0.18577 -0.1965795 -0.344903
v -0.187093 -0.1951855 -0.330539
v -0.188422 -0.1963305 -0.34436
v -0.187436 -0.1965795 -0.347062
v -0.188858 -0.1800995 -0.303209
v -0.188766 -0.1778315 -0.304381
v -0.187093 -0.1804185 -0.306138
v -0.185609 -0.1965795 -0.304517
v -0.18888 -0.1942095 -0.305341
v -0.187093 -0.1946005 -0.307998
v -0.185026 -0.1965795 -0.307334
v -0.273082 -0.1965795 -0.307336
v -0.271004 -0.1945015 -0.307996
v -0.269112 -0.1940445 -0.305068
v -0.272596 -0.1965795 -0.304465
v -0.105262 -0.1946475 -0.500923
v -0.103429 -0.1946855 -0.499077
v -0.105332 -0.1965795 -0.498257
v -0.109647 -0.1965795 -0.498963
v -0.1053 -0.1761865 -0.218689
v -0.103429 -0.1761855 -0.220611
v -0.1053 -0.1742145 -0.220611
v -0.1053 -0.1742145 -0.499001
v -0.103429 -0.1761865 -0.499001
v -0.1053 -0.1761865 -0.500923
v -0.105224 -0.1946875 -0.218689
v -0.108388 -0.1965795 -0.220648
v -0.105369 -0.1965795 -0.221858
v -0.103429 -0.1946865 -0.220534
v -0.361881 -0.1946865 -0.220534
v -0.359976 -0.1965795 -0.221802
v -0.356832 -0.1965795 -0.220683
v -0.360085 -0.1946875 -0.218689
v -0.360009 -0.1742145 -0.499001
v -0.360009 -0.1761865 -0.500923
v -0.361881 -0.1761865 -0.499001
v -0.361881 -0.1946465 -0.499039
v -0.360085 -0.1946875 -0.500923
v -0.355663 -0.1965795 -0.498963
v -0.359977 -0.1965795 -0.498256
v -0.360009 -0.1761855 -0.218689
v -0.360009 -0.1742145 -0.220611
v -0.361881 -0.1761855 -0.220611
vt 0.8715892 0.7365432
vt 0.87154615 0.7365252
vt 0.8716302 0.7364402
vt 0.8716302 0.7364402
vt 0.87154615 0.7365252
vt 0.87158716 0.73642325
vt 0.8715751 0.73657525
vt 0.8715892 0.7365432
vt 0.87829715 0.73657525
vt 0.87829715 0.73657525
vt 0.8715892 0.7365432
vt 0.87828416 0.7365432
vt 0.8569212 0.7469602
vt 0.8569201 0.7470062
vt 0.8506992 0.7469602
vt 0.8506992 0.7469602
vt 0.8569201 0.7470062
vt 0.8506992 0.74700725
vt 0.87154615 0.7365252
vt 0.87153316 0.7365582
vt 0.87116116 0.7361592
vt 0.87116116 0.7361592
vt 0.87153316 0.7365582
vt 0.8711282 0.7361732
vt 0.87832713 0.7365252
vt 0.87828416 0.7365432
vt 0.8782861 0.73642325
vt 0.8782861 0.73642325
vt 0.87828416 0.7365432
vt 0.87824315 0.7364402
vt 0.87832713 0.7365252
vt 0.8787122 0.7361592
vt 0.8783401 0.7365582
vt 0.8783401 0.7365582
vt 0.8787122 0.7361592
vt 0.8787452 0.7361732
vt 0.8569212 0.75323725
vt 0.8569201 0.7532692
vt 0.8506992 0.75323623
vt 0.8506992 0.75323623
vt 0.8569201 0.7532692
vt 0.8506992 0.7532702
vt 0.8943062 0.7361512
vt 0.8942752 0.7361602
vt 0.8939241 0.7357892
vt 0.8939241 0.7357892
vt 0.8942752 0.7361602
vt 0.8938702 0.7357792
vt 0.8506992 0.75323623
vt 0.85066617 0.75323623
vt 0.8506992 0.74700725
vt 0.8506992 0.74700725
vt 0.85066617 0.75323623
vt 0.85066617 0.74698323
vt 0.85066617 0.74698323
vt 0.85066617 0.7464932
vt 0.8506992 0.7469602
vt 0.8506992 0.7469602
vt 0.85066617 0.7464932
vt 0.8506982 0.74644125
vt 0.9014722 0.7357432
vt 0.9014331 0.7357892
vt 0.89388514 0.73574424
vt 0.89388514 0.73574424
vt 0.9014331 0.7357892
vt 0.8939241 0.7357892
vt 0.9015051 0.7357372
vt 0.9014722 0.7357432
vt 0.9015051 0.7260362
vt 0.9015051 0.7260362
vt 0.9014722 0.7357432
vt 0.9014741 0.72604024
vt 0.8506982 0.74644125
vt 0.8506982 0.7464082
vt 0.8569201 0.74644125
vt 0.8569201 0.74644125
vt 0.8506982 0.7464082
vt 0.8569212 0.7464082
vt 0.87116116 0.7361592
vt 0.87114316 0.73611724
vt 0.87126416 0.7361152
vt 0.87126416 0.7361152
vt 0.87114316 0.73611724
vt 0.87124616 0.73607326
vt 0.8711102 0.7361312
vt 0.8711102 0.7263452
vt 0.87114316 0.73611724
vt 0.87114316 0.73611724
vt 0.8711102 0.7263452
vt 0.87114316 0.7263452
vt 0.87114316 0.7263452
vt 0.87114316 0.72631323
vt 0.87124616 0.7263452
vt 0.87124616 0.7263452
vt 0.87114316 0.72631323
vt 0.87124616 0.72631323
vt 0.9067942 0.7452382
vt 0.90679514 0.74528223
vt 0.9006082 0.7452762
vt 0.9006082 0.7452762
vt 0.90679514 0.74528223
vt 0.90057313 0.7453212
vt 0.90007114 0.7462692
vt 0.90010417 0.74630225
vt 0.8999702 0.7463672
vt 0.8999702 0.7463672
vt 0.90010417 0.74630225
vt 0.9000032 0.7463992
vt 0.9014381 0.72600424
vt 0.9014741 0.72604024
vt 0.89391917 0.7260052
vt 0.89391917 0.7260052
vt 0.9014741 0.72604024
vt 0.8938842 0.7260412
vt 0.8787302 0.73611724
vt 0.8787122 0.7361592
vt 0.87862813 0.73607326
vt 0.87862813 0.73607326
vt 0.8787122 0.7361592
vt 0.8786092 0.7361152
vt 0.8787632 0.7361312
vt 0.8787302 0.73611724
vt 0.8787632 0.7263452
vt 0.8787632 0.7263452
vt 0.8787302 0.73611724
vt 0.87873113 0.7263452
vt 0.89397514 0.71434224
vt 0.89397514 0.7143002
vt 0.90019715 0.71434224
vt 0.90019715 0.71434224
vt 0.89397514 0.7143002
vt 0.90019715 0.7143002
vt 0.87873113 0.72631323
vt 0.87873113 0.7263452
vt 0.8786272 0.72631323
vt 0.8786272 0.72631323
vt 0.87873113 0.7263452
vt 0.8786272 0.7263452
vt 0.89388514 0.75361526
vt 0.90007114 0.7536452
vt 0.8938842 0.75365424
vt 0.8938842 0.75365424
vt 0.90007114 0.7536452
vt 0.9001062 0.75368524
vt 0.90007114 0.7536452
vt 0.8999702 0.75354624
vt 0.90010417 0.7536122
vt 0.90010417 0.7536122
vt 0.8999702 0.75354624
vt 0.9000032 0.75351423
vt 0.8938522 0.7260362
vt 0.8938842 0.7260412
vt 0.8938522 0.7357382
vt 0.8938522 0.7357382
vt 0.8938842 0.7260412
vt 0.89388514 0.73574424
vt 0.87160015 0.73639023
vt 0.87158716 0.73642325
vt 0.87129617 0.7361012
vt 0.87129617 0.7361012
vt 0.87158716 0.73642325
vt 0.87126416 0.7361152
vt 0.8628402 0.7467492
vt 0.8628402 0.7467042
vt 0.8688922 0.7467802
vt 0.8688922 0.7467802
vt 0.8628402 0.7467042
vt 0.8688922 0.74673426
vt 0.8716302 0.7364402
vt 0.8716422 0.7364072
vt 0.87824315 0.7364402
vt 0.87824315 0.7364402
vt 0.8716422 0.7364072
vt 0.87823015 0.7364072
vt 0.8782731 0.73639023
vt 0.8785772 0.7361012
vt 0.8782861 0.73642325
vt 0.8782861 0.73642325
vt 0.8785772 0.7361012
vt 0.8786092 0.7361152
vt 0.8628402 0.7531922
vt 0.8628402 0.75315523
vt 0.8688922 0.7532222
vt 0.8688922 0.7532222
vt 0.8628402 0.75315523
vt 0.8688911 0.7531842
vt 0.90350616 0.7254442
vt 0.90378714 0.72517526
vt 0.90353715 0.72545826
vt 0.90353715 0.72545826
vt 0.90378714 0.72517526
vt 0.90384114 0.7251692
vt 0.86892515 0.7531902
vt 0.8688911 0.7531842
vt 0.86892515 0.7467612
vt 0.86892515 0.7467612
vt 0.8688911 0.7531842
vt 0.8688922 0.7467802
vt 0.8968942 0.7254442
vt 0.8968642 0.72545826
vt 0.8966142 0.72517526
vt 0.8966142 0.72517526
vt 0.8968642 0.72545826
vt 0.8965602 0.7251692
vt 0.8966142 0.72517526
vt 0.8965752 0.72512925
vt 0.90378714 0.72517526
vt 0.90378714 0.72517526
vt 0.8965752 0.72512925
vt 0.9038261 0.72512925
vt 0.86889416 0.7462992
vt 0.86889416 0.7463412
vt 0.8628402 0.74627924
vt 0.8628402 0.74627924
vt 0.86889416 0.7463412
vt 0.8628402 0.7463222
vt 0.8965752 0.72512925
vt 0.8965422 0.7251272
vt 0.89657414 0.7154132
vt 0.89657414 0.7154132
vt 0.8965422 0.7251272
vt 0.8965422 0.71541226
vt 0.87124616 0.73607326
vt 0.87124616 0.7263452
vt 0.87127817 0.7360592
vt 0.8628402 0.74627924
vt 0.8628402 0.73656523
vt 0.8628721 0.73656523
vt 0.8938842 0.7463772
vt 0.89388514 0.74633723
vt 0.8999381 0.7464072
vt 0.8999381 0.7464072
vt 0.89388514 0.74633723
vt 0.8999702 0.7463672
vt 0.8999692 0.74643826
vt 0.9000032 0.7463992
vt 0.8999692 0.7534902
vt 0.8999692 0.7534902
vt 0.9000032 0.7463992
vt 0.9000032 0.75351423
vt 0.9098501 0.6912482
vt 0.9098501 0.69129324
vt 0.90379715 0.69128525
vt 0.90379715 0.69128525
vt 0.9098501 0.69129324
vt 0.90379715 0.6913312
vt 0.87862813 0.73607326
vt 0.8785952 0.7360592
vt 0.8786272 0.7263452
vt 0.8786272 0.7263452
vt 0.8785952 0.7360592
vt 0.8785952 0.7263452
vt 0.90988314 0.6827562
vt 0.9038302 0.68279326
vt 0.9098822 0.6827122
vt 0.9098822 0.6827122
vt 0.9038302 0.68279326
vt 0.90379715 0.6827492
vt 0.9038272 0.7154132
vt 0.90385914 0.7154132
vt 0.9038261 0.72512925
vt 0.9038261 0.72512925
vt 0.90385914 0.7154132
vt 0.90385914 0.7251272
vt 0.8628402 0.7467492
vt 0.8688922 0.7467802
vt 0.8628402 0.75315523
vt 0.8628402 0.75315523
vt 0.8688922 0.7467802
vt 0.8688911 0.7531842
vt 0.8628402 0.7467042
vt 0.86284614 0.7463412
vt 0.8688922 0.74673426
vt 0.8688922 0.74673426
vt 0.86284614 0.7463412
vt 0.86889917 0.7463712
vt 0.8628721 0.73656523
vt 0.8689271 0.73658526
vt 0.8628402 0.74627924
vt 0.8628402 0.74627924
vt 0.8689271 0.73658526
vt 0.86889416 0.7462992
vt 0.9098501 0.6912482
vt 0.90379715 0.69128525
vt 0.90988314 0.6827562
vt 0.90988314 0.6827562
vt 0.90379715 0.69128525
vt 0.9038302 0.68279326
vt 0.9098501 0.69129324
vt 0.9098542 0.69169426
vt 0.90379715 0.6913312
vt 0.90379715 0.6913312
vt 0.9098542 0.69169426
vt 0.90380216 0.6917312
vt 0.9038272 0.7154132
vt 0.9038261 0.72512925
vt 0.89657414 0.7154132
vt 0.89657414 0.7154132
vt 0.9038261 0.72512925
vt 0.8965752 0.72512925
vt 0.8966142 0.72517526
vt 0.90378714 0.72517526
vt 0.8968942 0.7254442
vt 0.8968942 0.7254442
vt 0.90378714 0.72517526
vt 0.90350616 0.7254442
vt 0.8569201 0.7470062
vt 0.8569212 0.75323725
vt 0.8506992 0.74700725
vt 0.8506992 0.74700725
vt 0.8569212 0.75323725
vt 0.8506992 0.75323623
vt 0.8569212 0.7469602
vt 0.8506992 0.7469602
vt 0.8569201 0.74644125
vt 0.8569201 0.74644125
vt 0.8506992 0.7469602
vt 0.8506982 0.74644125
vt 0.90679514 0.74528223
vt 0.9067621 0.7538382
vt 0.90057313 0.7453212
vt 0.90057313 0.7453212
vt 0.9067621 0.7538382
vt 0.9005412 0.7538762
vt 0.89397514 0.7143002
vt 0.89397514 0.7045142
vt 0.90019715 0.7143002
vt 0.90019715 0.7143002
vt 0.89397514 0.7045142
vt 0.9001981 0.70451224
vt 0.89397514 0.71434224
vt 0.90019715 0.71434224
vt 0.89397514 0.7147272
vt 0.89397514 0.7147272
vt 0.90019715 0.71434224
vt 0.9001962 0.7147272
vt 0.8938842 0.7260412
vt 0.9014741 0.72604024
vt 0.89388514 0.73574424
vt 0.89388514 0.73574424
vt 0.9014741 0.72604024
vt 0.9014722 0.7357432
vt 0.9014331 0.7357892
vt 0.9010521 0.7361512
vt 0.8939241 0.7357892
vt 0.8939241 0.7357892
vt 0.9010521 0.7361512
vt 0.8943062 0.7361512
vt 0.8715892 0.7365432
vt 0.8716302 0.7364402
vt 0.87828416 0.7365432
vt 0.87828416 0.7365432
vt 0.8716302 0.7364402
vt 0.87824315 0.7364402
vt 0.87116116 0.7361592
vt 0.87126416 0.7361152
vt 0.87154615 0.7365252
vt 0.87154615 0.7365252
vt 0.87126416 0.7361152
vt 0.87158716 0.73642325
vt 0.87124616 0.7263452
vt 0.87124616 0.73607326
vt 0.87114316 0.7263452
vt 0.87114316 0.7263452
vt 0.87124616 0.73607326
vt 0.87114316 0.73611724
vt 0.90007114 0.7462692
vt 0.8999702 0.7463672
vt 0.89388514 0.7462372
vt 0.89388514 0.7462372
vt 0.8999702 0.7463672
vt 0.89388514 0.74633723
vt 0.8787302 0.73611724
vt 0.87862813 0.73607326
vt 0.87873113 0.7263452
vt 0.87873113 0.7263452
vt 0.87862813 0.73607326
vt 0.8786272 0.7263452
vt 0.89388514 0.75351524
vt 0.8999702 0.75354624
vt 0.89388514 0.75361526
vt 0.89388514 0.75361526
vt 0.8999702 0.75354624
vt 0.90007114 0.7536452
vt 0.8782861 0.73642325
vt 0.8786092 0.7361152
vt 0.87832713 0.7365252
vt 0.87832713 0.7365252
vt 0.8786092 0.7361152
vt 0.8787122 0.7361592
vt 0.90010417 0.7536122
vt 0.9000032 0.75351423
vt 0.90010417 0.74630225
vt 0.90010417 0.74630225
vt 0.9000032 0.75351423
vt 0.9000032 0.7463992
vt 0.8715751 0.73657525
vt 0.87153316 0.7365582
vt 0.8715892 0.7365432
vt 0.8715892 0.7365432
vt 0.87153316 0.7365582
vt 0.87154615 0.7365252
vt 0.8783401 0.7365582
vt 0.87829715 0.73657525
vt 0.87832713 0.7365252
vt 0.87832713 0.7365252
vt 0.87829715 0.73657525
vt 0.87828416 0.7365432
vt 0.85066617 0.75323623
vt 0.8506992 0.75323623
vt 0.8506992 0.7532702
vt 0.8506992 0.7469602
vt 0.8506992 0.74700725
vt 0.85066617 0.74698323
vt 0.9015051 0.7357372
vt 0.9014871 0.7357782
vt 0.9014722 0.7357432
vt 0.9014722 0.7357432
vt 0.9014871 0.7357782
vt 0.9014331 0.7357892
vt 0.8711282 0.7361732
vt 0.8711102 0.7361312
vt 0.87116116 0.7361592
vt 0.87116116 0.7361592
vt 0.8711102 0.7361312
vt 0.87114316 0.73611724
vt 0.90682614 0.7452672
vt 0.90679514 0.74528223
vt 0.9067942 0.7452382
vt 0.90057313 0.7453212
vt 0.9005412 0.7453052
vt 0.9006082 0.7452762
vt 0.9006082 0.7452762
vt 0.9005412 0.7453052
vt 0.9005742 0.74526024
vt 0.8787632 0.7361312
vt 0.8787452 0.7361732
vt 0.8787302 0.73611724
vt 0.8787302 0.73611724
vt 0.8787452 0.7361732
vt 0.8787122 0.7361592
vt 0.89388514 0.75361526
vt 0.8938842 0.75365424
vt 0.8938522 0.75362325
vt 0.9001372 0.75365424
vt 0.9001062 0.75368524
vt 0.90010417 0.7536122
vt 0.90010417 0.7536122
vt 0.9001062 0.75368524
vt 0.90007114 0.7536452
vt 0.8939241 0.7357892
vt 0.8938702 0.7357792
vt 0.89388514 0.73574424
vt 0.9002292 0.7143022
vt 0.90019715 0.71434224
vt 0.90019715 0.7143002
vt 0.87160015 0.73639023
vt 0.8716422 0.7364072
vt 0.87158716 0.73642325
vt 0.87158716 0.73642325
vt 0.8716422 0.7364072
vt 0.8716302 0.7364402
vt 0.87824315 0.7364402
vt 0.87823015 0.7364072
vt 0.8782861 0.73642325
vt 0.8782861 0.73642325
vt 0.87823015 0.7364072
vt 0.8782731 0.73639023
vt 0.8688922 0.7532222
vt 0.8688911 0.7531842
vt 0.86892515 0.7531902
vt 0.86892515 0.7467612
vt 0.8688922 0.7467802
vt 0.8688922 0.74673426
vt 0.8966142 0.72517526
vt 0.8965602 0.7251692
vt 0.8965752 0.72512925
vt 0.8689271 0.74630123
vt 0.86889416 0.7463412
vt 0.86889416 0.7462992
vt 0.87127817 0.7360592
vt 0.87129617 0.7361012
vt 0.87124616 0.73607326
vt 0.87124616 0.73607326
vt 0.87129617 0.7361012
vt 0.87126416 0.7361152
vt 0.8938842 0.7463772
vt 0.8938522 0.7463452
vt 0.89388514 0.74633723
vt 0.8999692 0.74643826
vt 0.8999381 0.7464072
vt 0.9000032 0.7463992
vt 0.9000032 0.7463992
vt 0.8999381 0.7464072
vt 0.8999702 0.7463672
vt 0.8785772 0.7361012
vt 0.8785952 0.7360592
vt 0.8786092 0.7361152
vt 0.8786092 0.7361152
vt 0.8785952 0.7360592
vt 0.87862813 0.73607326
vt 0.9098822 0.6827122
vt 0.90991414 0.6827402
vt 0.90988314 0.6827562
vt 0.90379715 0.6827492
vt 0.9038302 0.68279326
vt 0.9037652 0.68276525
vt 0.9037652 0.68276525
vt 0.9038302 0.68279326
vt 0.9037981 0.68280923
vt 0.90379715 0.69128525
vt 0.90379715 0.6913312
vt 0.9037652 0.69130325
vt 0.9038261 0.72512925
vt 0.90384114 0.7251692
vt 0.90378714 0.72517526
vt 0.8444332 0.7489042
vt 0.8443662 0.74885225
vt 0.84704113 0.7460802
vt 0.84704113 0.7460802
vt 0.8443662 0.74885225
vt 0.8470192 0.7459452
vt 0.8427982 0.7737392
vt 0.84288317 0.7737072
vt 0.8427982 0.7762792
vt 0.8427982 0.7762792
vt 0.84288317 0.7737072
vt 0.84288317 0.77630925
vt 0.8427982 0.7737392
vt 0.84155214 0.77379525
vt 0.84232414 0.77370423
vt 0.88370216 0.7401962
vt 0.88370216 0.7394092
vt 0.8837682 0.7394792
vt 0.84281516 0.7736552
vt 0.84232414 0.77370423
vt 0.8416402 0.7736262
vt 0.8416402 0.7736262
vt 0.84232414 0.77370423
vt 0.8416592 0.77370524
vt 0.88377815 0.73938423
vt 0.88383317 0.7394502
vt 0.8837682 0.7394792
vt 0.8837682 0.7394792
vt 0.88383317 0.7394502
vt 0.88382614 0.7395432
vt 0.8789191 0.7610022
vt 0.87884617 0.7610022
vt 0.8789011 0.7584182
vt 0.8789011 0.7584182
vt 0.87884617 0.7610022
vt 0.87882817 0.7584152
vt 0.8444332 0.7515062
vt 0.84704113 0.75377023
vt 0.8443662 0.75155723
vt 0.8443662 0.75155723
vt 0.84704113 0.75377023
vt 0.8470192 0.7539042
vt 0.88073313 0.75963223
vt 0.88053316 0.75847423
vt 0.8807182 0.75917923
vt 0.8807182 0.75917923
vt 0.88053316 0.75847423
vt 0.8806212 0.7584802
vt 0.8807782 0.7596072
vt 0.8807182 0.75917923
vt 0.8807782 0.7583412
vt 0.8807782 0.7583412
vt 0.8807182 0.75917923
vt 0.8806932 0.7584102
vt 0.8795202 0.71822023
vt 0.8795202 0.7183242
vt 0.8794571 0.7182622
vt 0.8794571 0.7182622
vt 0.8795202 0.7183242
vt 0.87946117 0.71835923
vt 0.84310216 0.7515562
vt 0.8431902 0.75157523
vt 0.84047717 0.7537762
vt 0.84047717 0.7537762
vt 0.8431902 0.75157523
vt 0.84051514 0.7538712
vt 0.87898314 0.7584192
vt 0.8790581 0.7583132
vt 0.87897915 0.76099825
vt 0.87897915 0.76099825
vt 0.8790581 0.7583132
vt 0.8790581 0.7611102
vt 0.8431002 0.74883723
vt 0.8404782 0.74601126
vt 0.8431902 0.7488222
vt 0.8431902 0.7488222
vt 0.8404782 0.74601126
vt 0.84051317 0.7459132
vt 0.8800812 0.72631323
vt 0.88014716 0.72645426
vt 0.88008213 0.7345042
vt 0.88008213 0.7345042
vt 0.88014716 0.72645426
vt 0.88014716 0.73436224
vt 0.8808892 0.69342625
vt 0.8809482 0.6934172
vt 0.8809482 0.6936102
vt 0.8911022 0.74290526
vt 0.89129615 0.7429652
vt 0.8911022 0.7429652
vt 0.8470192 0.7539042
vt 0.84704417 0.75397825
vt 0.84051514 0.7538712
vt 0.84051514 0.7538712
vt 0.84704417 0.75397825
vt 0.84047216 0.75394523
vt 0.87982816 0.7263732
vt 0.8798882 0.7263732
vt 0.87982816 0.7345612
vt 0.87982816 0.7345612
vt 0.8798882 0.7263732
vt 0.8798882 0.7345612
vt 0.87982816 0.72631323
vt 0.87982816 0.7263732
vt 0.8796332 0.72631323
vt 0.88083017 0.6934172
vt 0.8807722 0.6936122
vt 0.8807722 0.6934172
vt 0.8910422 0.7363372
vt 0.8911022 0.7363372
vt 0.8910422 0.74290526
vt 0.8910422 0.74290526
vt 0.8911022 0.7363372
vt 0.8911022 0.74290526
vt 0.87117016 0.75365126
vt 0.8711102 0.7536292
vt 0.87117016 0.7460622
vt 0.87117016 0.7460622
vt 0.8711102 0.7536292
vt 0.8711102 0.7460392
vt 0.84047717 0.7537762
vt 0.84041417 0.75388825
vt 0.8404782 0.74601126
vt 0.8404782 0.74601126
vt 0.84041417 0.75388825
vt 0.84041417 0.7459222
vt 0.8796332 0.7346212
vt 0.8796332 0.73456323
vt 0.87982816 0.7346212
vt 0.87982816 0.7346212
vt 0.8796332 0.73456323
vt 0.87982816 0.7345612
vt 0.8903692 0.7363912
vt 0.89037013 0.74296224
vt 0.8902892 0.73643124
vt 0.8902892 0.73643124
vt 0.89037013 0.74296224
vt 0.8902892 0.7429382
vt 0.87117016 0.7460622
vt 0.87117016 0.74598324
vt 0.8777392 0.7460622
vt 0.8777392 0.7460622
vt 0.87117016 0.74598324
vt 0.8777392 0.74598324
vt 0.87989616 0.7345622
vt 0.8798882 0.7345022
vt 0.88008815 0.7345622
vt 0.88008815 0.7345622
vt 0.8798882 0.7345022
vt 0.88008213 0.7345042
vt 0.8427982 0.7737392
vt 0.8427982 0.7762792
vt 0.84155214 0.77379525
vt 0.84155214 0.77379525
vt 0.8427982 0.7762792
vt 0.8415421 0.7763152
vt 0.8807182 0.75917923
vt 0.8806212 0.7584802
vt 0.8806932 0.7584102
vt 0.8789191 0.7610022
vt 0.8789011 0.7584182
vt 0.87897915 0.76099825
vt 0.87897915 0.76099825
vt 0.8789011 0.7584182
vt 0.87898314 0.7584192
vt 0.84704113 0.75377023
vt 0.8444332 0.7515062
vt 0.84704113 0.7460802
vt 0.84704113 0.7460802
vt 0.8444332 0.7515062
vt 0.8444332 0.7489042
vt 0.8443662 0.75155723
vt 0.8470192 0.7539042
vt 0.8431902 0.75157523
vt 0.8431902 0.75157523
vt 0.8470192 0.7539042
vt 0.84051514 0.7538712
vt 0.84047717 0.7537762
vt 0.8404782 0.74601126
vt 0.84310216 0.7515562
vt 0.84310216 0.7515562
vt 0.8404782 0.74601126
vt 0.8431002 0.74883723
vt 0.8911022 0.74290526
vt 0.8911022 0.7363372
vt 0.8912982 0.7429072
vt 0.8912982 0.7429072
vt 0.8911022 0.7363372
vt 0.8912982 0.7363342
vt 0.8798882 0.7345022
vt 0.8798882 0.7263142
vt 0.88008213 0.7345042
vt 0.88008213 0.7345042
vt 0.8798882 0.7263142
vt 0.8800812 0.72631323
vt 0.8837682 0.7394792
vt 0.88382614 0.7395432
vt 0.88370216 0.7401962
vt 0.87117016 0.7460622
vt 0.8777392 0.7460622
vt 0.87117016 0.75365126
vt 0.87117016 0.75365126
vt 0.8777392 0.7460622
vt 0.8777392 0.75365126
vt 0.87982816 0.7263732
vt 0.87982816 0.7345612
vt 0.8796332 0.7263702
vt 0.8796332 0.7263702
vt 0.87982816 0.7345612
vt 0.8796332 0.73456323
vt 0.84051317 0.7459132
vt 0.8470192 0.7459452
vt 0.8431902 0.7488222
vt 0.8431902 0.7488222
vt 0.8470192 0.7459452
vt 0.8443662 0.74885225
vt 0.8903692 0.7363912
vt 0.8905401 0.73639524
vt 0.89037013 0.74296224
vt 0.89037013 0.74296224
vt 0.8905401 0.73639524
vt 0.8905401 0.74296224
vt 0.84288317 0.7737072
vt 0.8427982 0.7737392
vt 0.84281516 0.7736552
vt 0.84281516 0.7736552
vt 0.8427982 0.7737392
vt 0.84232414 0.77370423
vt 0.8837682 0.7394792
vt 0.88370216 0.7394092
vt 0.88377815 0.73938423
vt 0.84236515 0.77632725
vt 0.8427982 0.7762792
vt 0.84281516 0.7763612
vt 0.84281516 0.7763612
vt 0.8427982 0.7762792
vt 0.84288317 0.77630925
vt 0.88071316 0.7583132
vt 0.8807782 0.7583412
vt 0.8806932 0.7584102
vt 0.88064516 0.75839126
vt 0.8806212 0.7584802
vt 0.88052815 0.7583852
vt 0.88052815 0.7583852
vt 0.8806212 0.7584802
vt 0.88053316 0.75847423
vt 0.8416402 0.7736262
vt 0.8416592 0.77370524
vt 0.8415502 0.7736402
vt 0.8415502 0.7736402
vt 0.8416592 0.77370524
vt 0.84156716 0.77376723
vt 0.84704417 0.75397825
vt 0.8470192 0.7539042
vt 0.84710115 0.7539212
vt 0.84710115 0.7539212
vt 0.8470192 0.7539042
vt 0.84704113 0.75377023
vt 0.87982816 0.7263732
vt 0.87982816 0.72631323
vt 0.8798882 0.7263732
vt 0.8910422 0.74290526
vt 0.8911022 0.74290526
vt 0.8911022 0.7429652
vt 0.84047717 0.7537762
vt 0.84051514 0.7538712
vt 0.84041417 0.75388825
vt 0.84041417 0.75388825
vt 0.84051514 0.7538712
vt 0.84047216 0.75394523
vt 0.8903692 0.7363912
vt 0.8902892 0.73643124
vt 0.89034116 0.7363342
vt 0.84041417 0.7459222
vt 0.84051317 0.7459132
vt 0.8404782 0.74601126
vt 0.87117016 0.7460622
vt 0.8711102 0.7460392
vt 0.87117016 0.74598324
vt 0.89037013 0.74296224
vt 0.89034116 0.7430222
vt 0.8902892 0.7429382
vt 0.8470192 0.7459452
vt 0.84710115 0.7459552
vt 0.84704113 0.7460802
vt 0.87779915 0.7460392
vt 0.8777392 0.7460622
vt 0.8777392 0.74598324
f 1/1 4/2 47/3
f 47/4 4/5 48/6
f 2/7 1/8 7/9
f 7/10 1/11 8/12
f 3/13 2/14 12/15
f 12/16 2/17 13/18
f 4/19 3/20 19/21
f 19/22 3/23 20/24
f 5/25 8/26 49/27
f 49/28 8/29 50/30
f 5/31 33/32 6/33
f 6/34 33/35 32/36
f 7/37 6/38 10/39
f 10/40 6/41 11/42
f 9/43 11/44 41/45
f 41/46 11/47 42/48
f 10/49 9/50 13/51
f 13/52 9/53 14/54
f 14/55 18/56 12/57
f 12/58 18/59 17/60
f 15/61 18/62 44/63
f 44/64 18/65 41/66
f 16/67 15/68 27/69
f 27/70 15/71 28/72
f 17/73 16/74 20/75
f 20/76 16/77 21/78
f 19/79 22/80 65/81
f 65/82 22/83 66/84
f 21/85 24/86 22/87
f 22/88 24/89 23/90
f 23/91 25/92 68/93
f 68/94 25/95 69/96
f 25/97 24/98 26/99
f 26/100 24/101 27/102
f 26/103 29/104 72/105
f 72/106 29/107 73/108
f 29/109 28/110 37/111
f 37/112 28/113 38/114
f 30/115 33/116 76/117
f 76/118 33/119 77/120
f 31/121 30/122 35/123
f 35/124 30/125 36/126
f 32/127 31/128 42/129
f 42/130 31/131 43/132
f 34/133 36/134 78/135
f 78/136 36/137 79/138
f 34/139 40/140 35/141
f 35/142 40/143 39/144
f 40/145 82/146 37/147
f 37/148 82/149 81/150
f 39/151 38/152 43/153
f 43/154 38/155 44/156
f 45/157 48/158 64/159
f 64/160 48/161 65/162
f 46/163 45/164 57/165
f 57/166 45/167 58/168
f 47/169 46/170 50/171
f 50/172 46/173 51/174
f 52/175 74/176 49/177
f 49/178 74/179 77/180
f 52/181 51/182 53/183
f 53/184 51/185 54/186
f 55/187 88/188 53/189
f 53/190 88/191 87/192
f 55/193 54/194 56/195
f 56/196 54/197 57/198
f 56/199 58/200 59/201
f 59/202 58/203 60/204
f 59/205 62/206 88/207
f 88/208 62/209 85/210
f 61/211 60/212 63/213
f 63/214 60/215 64/216
f 62/217 61/218 70/219
f 70/220 61/221 71/222
f 66/223 68/224 63/225
f 63/226 68/227 67/228
f 67/229 69/230 71/231
f 71/232 69/233 72/234
f 70/235 73/236 84/237
f 84/238 73/239 81/240
f 75/241 74/242 86/243
f 86/244 74/245 87/246
f 76/247 75/248 79/249
f 79/250 75/251 80/252
f 80/253 83/254 78/255
f 78/256 83/257 82/258
f 84/259 83/260 85/261
f 85/262 83/263 86/264
f 46/265 57/266 51/267
f 51/268 57/269 54/270
f 45/271 64/272 58/273
f 58/274 64/275 60/276
f 67/277 71/278 63/279
f 63/280 71/281 61/282
f 75/283 86/284 80/285
f 80/286 86/287 83/288
f 74/289 52/290 87/291
f 87/292 52/293 53/294
f 84/295 85/296 70/297
f 70/298 85/299 62/300
f 59/301 88/302 56/303
f 56/304 88/305 55/306
f 2/307 7/308 13/309
f 13/310 7/311 10/312
f 3/313 12/314 20/315
f 20/316 12/317 17/318
f 24/319 21/320 27/321
f 27/322 21/323 16/324
f 31/325 35/326 43/327
f 43/328 35/329 39/330
f 32/331 42/332 6/333
f 6/334 42/335 11/336
f 38/337 28/338 44/339
f 44/340 28/341 15/342
f 18/343 14/344 41/345
f 41/346 14/347 9/348
f 1/349 47/350 8/351
f 8/352 47/353 50/354
f 19/355 65/356 4/357
f 4/358 65/359 48/360
f 68/361 66/362 23/363
f 23/364 66/365 22/366
f 26/367 72/368 25/369
f 25/370 72/371 69/372
f 30/373 76/374 36/375
f 36/376 76/377 79/378
f 78/379 82/380 34/381
f 34/382 82/383 40/384
f 49/385 77/386 5/387
f 5/388 77/389 33/390
f 37/391 81/392 29/393
f 29/394 81/395 73/396
f 2/397 3/398 1/399
f 1/400 3/401 4/402
f 6/403 7/404 5/405
f 5/406 7/407 8/408
f 9/409 10/410 11/411
f 12/412 13/413 14/414
f 16/415 17/416 15/417
f 15/418 17/419 18/420
f 20/421 21/422 19/423
f 19/424 21/425 22/426
f 23/427 24/428 25/429
f 27/430 28/431 26/432
f 26/433 28/434 29/435
f 31/436 32/437 30/438
f 30/439 32/440 33/441
f 34/442 35/443 36/444
f 38/445 39/446 37/447
f 37/448 39/449 40/450
f 41/451 42/452 44/453
f 44/454 42/455 43/456
f 45/457 46/458 48/459
f 48/460 46/461 47/462
f 50/463 51/464 49/465
f 49/466 51/467 52/468
f 53/469 54/470 55/471
f 56/472 57/473 58/474
f 59/475 60/476 62/477
f 62/478 60/479 61/480
f 63/481 64/482 66/483
f 66/484 64/485 65/486
f 67/487 68/488 69/489
f 70/490 71/491 73/492
f 73/493 71/494 72/495
f 74/496 75/497 77/498
f 77/499 75/500 76/501
f 78/502 79/503 80/504
f 82/505 83/506 81/507
f 81/508 83/509 84/510
f 86/511 87/512 85/513
f 85/514 87/515 88/516
f 89/517 92/518 134/519
f 134/520 92/521 135/522
f 90/523 89/524 98/525
f 98/526 89/527 99/528
f 90/529 94/530 91/531
f 91/532 94/533 93/534
f 92/535 91/536 107/537
f 107/538 91/539 108/540
f 95/541 109/542 93/543
f 93/544 109/545 108/546
f 95/547 94/548 100/549
f 100/550 94/551 101/552
f 99/553 114/554 96/555
f 96/556 114/557 113/558
f 96/559 106/560 97/561
f 97/562 106/563 105/564
f 98/565 97/566 101/567
f 101/568 97/569 102/570
f 100/571 102/572 104/573
f 104/574 102/575 105/576
f 103/577 106/578 122/579
f 122/580 106/581 123/582
f 104/583 103/584 109/585
f 109/586 103/587 110/588
f 110/589 127/590 107/591
f 107/592 127/593 126/594
f 111/595 114/596 133/597
f 133/598 114/599 134/600
f 112/601 111/602 119/603
f 119/604 111/605 120/606
f 113/607 112/608 123/609
f 123/610 112/611 124/612
f 115/613 117/614 136/615
f 136/616 117/617 137/618
f 116/619 115/620 124/621
f 124/622 115/623 121/624
f 117/625 116/626 118/627
f 118/628 116/629 119/630
f 118/631 120/632 129/633
f 129/634 120/635 130/636
f 122/637 121/638 127/639
f 127/640 121/641 128/642
f 125/643 128/644 138/645
f 138/646 128/647 136/648
f 125/649 132/650 126/651
f 126/652 132/653 135/654
f 129/655 131/656 137/657
f 137/658 131/659 138/660
f 131/661 130/662 132/663
f 132/664 130/665 133/666
f 90/667 98/668 94/669
f 94/670 98/671 101/672
f 97/673 105/674 102/675
f 95/676 100/677 109/678
f 109/679 100/680 104/681
f 114/682 99/683 134/684
f 134/685 99/686 89/687
f 96/688 113/689 106/690
f 106/691 113/692 123/693
f 122/694 127/695 103/696
f 103/697 127/698 110/699
f 119/700 116/701 112/702
f 112/703 116/704 124/705
f 130/706 120/707 133/708
f 133/709 120/710 111/711
f 93/712 108/713 91/714
f 129/715 137/716 118/717
f 118/718 137/719 117/720
f 115/721 136/722 121/723
f 121/724 136/725 128/726
f 126/727 135/728 107/729
f 107/730 135/731 92/732
f 125/733 138/734 132/735
f 132/736 138/737 131/738
f 89/739 90/740 92/741
f 92/742 90/743 91/744
f 93/745 94/746 95/747
f 97/748 98/749 96/750
f 96/751 98/752 99/753
f 100/754 101/755 102/756
f 104/757 105/758 103/759
f 103/760 105/761 106/762
f 107/763 108/764 110/765
f 110/766 108/767 109/768
f 112/769 113/770 111/771
f 111/772 113/773 114/774
f 115/775 116/776 117/777
f 118/778 119/779 120/780
f 122/781 123/782 121/783
f 121/784 123/785 124/786
f 125/787 126/788 128/789
f 128/790 126/791 127/792
f 129/793 130/794 131/795
f 132/796 133/797 135/798
f 135/799 133/800 134/801
f 136/802 137/803 138/804
